<?xml version="1.0" standalone="no"?>
<!DOCTYPE svg PUBLIC "-//W3C//DTD SVG 20010904//EN"
 "http://www.w3.org/TR/2001/REC-SVG-20010904/DTD/svg10.dtd">
<svg version="1.0" xmlns="http://www.w3.org/2000/svg"
 width="260.000000pt" height="260.000000pt" viewBox="0 0 260.000000 260.000000"
 preserveAspectRatio="xMidYMid meet">
<metadata>
Created by potrace 1.11, written by Peter Selinger 2001-2013
</metadata>
<g transform="translate(0.000000,260.000000) scale(0.100000,-0.100000)"
fill="#000000" stroke="none">
<path d="M1111 2414 c-118 -118 -191 -184 -205 -185 -11 0 -133 -1 -269 -1
-193 -1 -250 -4 -254 -14 -2 -7 -5 -131 -6 -276 l-2 -263 -186 -186 -187 -187
188 -187 187 -187 0 -264 c0 -146 4 -268 8 -272 4 -4 125 -7 271 -7 l264 -1
185 -184 c102 -102 187 -186 189 -188 2 -2 87 82 190 185 l186 187 273 1 272
0 1 274 1 273 182 182 c99 99 181 185 181 190 0 4 -82 89 -181 189 l-181 180
-1 278 -1 277 -255 0 c-141 1 -266 1 -277 1 -14 1 -85 65 -205 185 l-184 185
-184 -185z m-460 -465 c-60 -60 -111 -109 -115 -109 -3 0 -6 49 -6 110 l0 109
98 3 c53 2 105 1 114 -1 13 -2 -10 -32 -91 -112z m1413 1 c-1 -61 -3 -112 -5
-114 -2 -3 -55 47 -118 110 l-114 114 119 0 119 0 -1 -110z m-1308 -1408 c-3
-2 -54 -4 -115 -5 l-111 -2 0 120 0 120 115 -115 c63 -63 113 -116 111 -118z
m1308 108 l1 -110 -47 -1 c-64 0 -176 0 -185 1 -5 0 44 51 107 114 63 63 117
112 119 110 2 -2 4 -53 5 -114z"/>
</g>
</svg>
