<?xml version="1.0" encoding="utf-8"?>
<!-- Generator: Adobe Illustrator 16.0.0, SVG Export Plug-In . SVG Version: 6.00 Build 0)  -->
<!DOCTYPE svg PUBLIC "-//W3C//DTD SVG 1.1//EN" "http://www.w3.org/Graphics/SVG/1.1/DTD/svg11.dtd">
<svg version="1.1" id="Popa" xmlns="http://www.w3.org/2000/svg" xmlns:xlink="http://www.w3.org/1999/xlink" x="0px" y="0px"
	 width="106.299px" height="106.299px" viewBox="0 0 106.299 106.299" enable-background="new 0 0 106.299 106.299"
	 xml:space="preserve">
<g id="logo">
	<path fill="#03060C" d="M79.725,0h-53.15C11.898,0,0,11.898,0,26.575v53.15c0,9.836,5.344,18.423,13.287,23.019V26.359
		c0-7.339,5.949-13.288,13.288-13.288h53.15c7.338,0,13.287,5.949,13.287,13.288v53.15c0,7.338-5.949,13.287-13.287,13.287H26.772
		l-11.149,11.148c3.339,1.513,7.047,2.354,10.952,2.354h53.15c14.677,0,26.574-11.897,26.574-26.574v-53.15
		C106.299,11.898,94.401,0,79.725,0z"/>
	<path fill="#03060C" d="M30.82,26.702h22.669c13.375,0,21.989,6.877,21.989,18.741c0,12.467-9.597,19.042-22.745,19.042h-7.254
		v15.112H30.82V26.702z M52.431,52.999c5.214,0,8.388-2.72,8.388-7.027c0-4.534-3.174-6.952-8.463-6.952h-6.876v13.979H52.431z"/>
</g>
</svg>
