<?xml version="1.0" standalone="no"?>
<!DOCTYPE svg PUBLIC "-//W3C//DTD SVG 1.1//EN" "http://www.w3.org/Graphics/SVG/1.1/DTD/svg11.dtd">
<svg xmlns="http://www.w3.org/2000/svg">
<metadata>Generated by Fontastic.me</metadata>
<defs>
<font id="buroicons" horiz-adv-x="512">
<font-face font-family="buroicons" units-per-em="512" ascent="480" descent="-32"/>
<missing-glyph horiz-adv-x="512" />

<glyph unicode="&#97;" d="M256 452c-108 0-196-88-196-196 0-108 88-196 196-196 25 0 49 4 71 13 5 2 7 7 5 11-2 5-7 7-11 5-21-8-43-12-65-12-36 0-69 11-96 29 4 40 33 74 73 84 4 1 7 4 7 8l0 24c0 4-2 8-5 10-13 6-23 18-29 34-1 3-5 5-8 5 0 0-1 0-1 0-8 0-14 10-14 21 0 11 6 20 13 21 3 1 6 3 7 7 8 28 29 47 53 47 24 0 45-19 53-47 1-4 4-6 7-7 7-1 13-10 13-21 0-11-6-21-14-21 0 0 0 0-1 0-3 0-7-2-8-5-6-16-16-28-29-34-3-2-5-5-5-9l0-25c0-4 3-7 7-8 41-10 71-46 74-88 0 0 0-1 0-1 0-2 1-3 2-5 2-4 8-5 12-2 53 36 85 97 85 162 0 108-88 196-196 196z m112-335c-8 41-38 75-78 88l0 14c13 8 23 20 30 35 15 3 27 19 27 38 0 17-10 32-23 37-11 34-38 56-68 56-30 0-57-22-68-56-13-5-23-20-23-37 0-19 12-35 27-38 7-15 17-27 30-35l0-14c-41-13-70-47-78-88-41 33-67 83-67 139 0 99 80 179 179 179 99 0 179-80 179-179 0-54-25-105-67-139z"/>
<glyph unicode="&#98;" d="M256 452c-108 0-196-88-196-196 0-108 88-196 196-196 108 0 196 88 196 196 0 108-88 196-196 196z m88-172l-97-97c-4-4-10-6-15-6-6 0-11 2-16 6l-48 49c-9 8-9 22 0 31 8 8 22 8 31 0l33-33 81 81c9 9 23 9 31 0 9-8 9-22 0-31z"/>
<glyph unicode="&#99;" d="M79 156l0 213 49 0c18 0 31 12 31 30l0 49 151 0c11 0 12-7 12-12l0-32c0 0 0-1 0-1 0 0 0 0 0 0l0-74c1 0 2 0 3 0 5 0 11 0 16-1l0 75c0 0 0 0 0 0 0 0 0 0 0 1l0 32c0 19-13 31-31 31l-161 0c-2 0-5-1-7-3l-79-79c-2-2-3-4-3-7l0-222c0-18 13-31 31-31l97 0 0 19-97 0c-6 0-12 4-12 12z m49 232l-36 0 48 47 0-36c0-10-8-11-12-11z m12-163c-5 0-10-4-10-10 0-5 5-9 10-9l45 0c5 0 9 4 9 9 0 6-4 10-9 10z m73 39c0 5-4 9-9 9l-64 0c-5 0-10-4-10-9 0-5 5-9 10-9l64 0c5 0 9 4 9 9z m168-179c-3 39-29 72-66 85l0 1c10 6 18 16 24 28 13 3 23 17 23 33 0 15-8 27-19 32-10 28-32 46-58 46-26 0-49-18-58-46-11-5-19-17-19-32 0-16 10-30 23-33 5-12 14-22 24-28l0-1c-37-13-64-46-66-84 0-1-1-3-1-4l0-18c0-11 9-19 20-19l154 0c11 0 19 8 19 19l0 18c0 1 0 3 0 3 0 0 0 0 0 0z m-135 126c-1 3-5 6-9 6-5 0-10 6-10 15 0 8 5 14 9 15 4 0 7 3 8 7 6 22 22 37 41 37 18 0 35-15 41-37 1-4 4-7 8-7 4-1 9-7 9-15 0-9-6-15-10-15 0 0 0 0-1 0-3 0-7-3-8-6-5-12-13-22-23-27-4-2-5-5-5-9l0-13c0 0 0 0 0-1l-11-6-11 6c0 1 0 1 0 1l0 12c0 4-2 8-5 10-10 5-18 15-23 27z m116-147l-6 0-148 0 0 20c2 29 21 55 48 66l24-14c2-1 3-1 5-1 2 0 3 0 5 1l24 14c27-11 46-37 48-68z m90 70c-2 33-24 62-56 73 8 5 15 13 20 23 11 3 20 15 20 29 0 13-7 24-17 29-8 24-28 40-51 40-11 0-21-4-30-11-4-4-5-10-2-14 3-4 9-5 14-1 5 4 12 7 18 7 16 0 29-13 34-31 1-4 4-7 8-7 3-1 7-5 7-12 0-6-4-11-6-11-4 1-9-2-11-6-4-10-10-18-18-22-4-2-6-6-5-9l0-11c0 0 0 0 0 0l-9-5-3 2c-5 3-10 1-13-3-3-5-1-11 4-13l8-5c1-1 3-1 4-1 2 0 4 0 5 1l20 12c23-10 38-31 40-57l1-14-38 0c-5 0-9-4-9-10 0-5 4-9 9-9l38 0c10 0 18 8 18 18l0 15c0 0 0 2 0 3z"/>
<glyph unicode="&#100;" d="M79 123l0 242 58 0c17 0 31 13 31 29l0 60 173 0c8 0 15-6 15-14l0-202c5 0 11 0 16 0l0 202c0 16-14 29-31 29l-181 0c0 0 0 0 0 0-1 0-1 0-1 0-2 0-3-1-4-2l-89-89c-1 0-1-2-2-3 0 0 0-1 0-1 0 0 0-1 0-1l0-250c0-16 14-29 31-29l157 0c0 5 0 10 0 15l-157 0c-9 0-16 6-16 14z m74 320l0-49c0-7-7-13-16-13l-47 0z m152-123l-165 0c-4 0-8-4-8-8 0-4 4-8 8-8l165 0c4 0 8 4 8 8 0 4-4 8-8 8z m8-52c0 4-4 8-8 8l-165 0c-4 0-8-4-8-8 0-4 4-8 8-8l165 0c4 0 8 4 8 8z m-173-36c-4 0-8-3-8-8 0-4 4-7 8-7l100 0c5 0 8 3 8 7 0 5-3 8-8 8z m308-2l-179 0c-4 0-8-4-8-8l0-180c0-4 4-8 8-8l179 0c5 0 9 4 9 8l0 180c0 4-4 8-9 8z m-8-180l-163 0 0 164 163 0 0-164z m-151 44c-5 0-8-3-8-8 0-4 3-8 8-8l17 0 0-16c0-4 3-8 8-8 4 0 8 4 8 8l0 16 29 0 0-16c0-4 3-8 8-8 4 0 8 4 8 8l0 16 29 0 0-16c0-4 3-8 8-8 4 0 8 4 8 8l0 16 17 0c4 0 8 4 8 8 0 5-4 8-8 8l-17 0 0 29 17 0c4 0 8 4 8 8 0 4-4 8-8 8l-17 0 0 29 17 0c4 0 8 4 8 8 0 4-4 8-8 8l-17 0 0 18c0 4-4 8-8 8-5 0-8-4-8-8l0-18-29 0 0 18c0 4-4 8-8 8-5 0-8-4-8-8l0-18-29 0 0 18c0 4-4 8-8 8-5 0-8-4-8-8l0-18-17 0c-5 0-8-4-8-8 0-4 3-8 8-8l17 0 0-29-17 0c-5 0-8-4-8-8 0-4 3-8 8-8l17 0 0-29z m107 0l-29 0 0 29 29 0z m0 74l0-29-29 0 0 29z m-74 0l29 0 0-29-29 0z m0-45l29 0 0-29-29 0z"/>
<glyph unicode="&#101;" d="M153 272l142 0c6 0 11 5 11 11 0 6-5 11-11 11l-142 0c-6 0-11-5-11-11 0-6 5-11 11-11z m235-33l0 149c0 1 0 1 0 1 0 0 0 1 0 1l0 38c0 21-14 36-36 36l-188 0c-3 0-6-1-8-3l-93-93c-2-2-3-5-3-8l0-259c0-21 15-36 36-36l202 0c16-11 35-17 55-17 55 0 99 44 99 99 0 42-26 78-64 92z m-235 187l0-41c0-12-9-14-14-14l-42 0z m142-188l-142 0c-6 0-11-5-11-11 0-7 5-11 11-11l129 0c-9-10-17-22-21-35l-108 0c-6 0-11-5-11-11 0-6 5-11 11-11l102 0c0-4-1-8-1-12 0-23 8-43 21-60l-179 0c-7 0-14 4-14 14l0 248 57 0c21 0 36 15 36 36l0 57 177 0c12 0 14-9 14-14l0-38c0 0 0-1 0-1 0 0 0 0 0-1l0-143c-4 0-8 1-13 1-18 0-35-5-49-14-2 4-5 6-9 6z m103-79l-49-49c-2-2-5-3-8-3-3 0-6 1-8 3l-24 25c-4 4-4 11 0 15 4 5 11 5 16 0l16-16 41 41c4 4 11 4 16 0 4-5 4-12 0-16z"/>
<glyph unicode="&#102;" d="M388 250c0 0 0 1 0 1l0 54 63 0c4 0 7 2 8 5 1 4 0 8-3 10l-194 149c-3 2-7 2-10 0l-197-149c-3-2-5-6-3-9 1-4 4-6 8-6l65 0 0-128-22 0c-5 0-9-4-9-9l0-26-18 0c-5 0-9-4-9-9l0-34c0-5 4-9 9-9l189 0c19-29 52-48 89-48 59 0 107 48 107 107 0 47-31 87-73 101z m-304-143l0 18 19 0c4 0 8 4 8 8l0 27 23 0c4 0 8 3 8 8l0 145c0 5-4 9-8 9l-49 0 172 129 169-129-47 0c-4 0-8-4-8-9l0-59c-6 1-11 2-17 2-8 0-16-1-23-3l0 58c0 4-4 8-9 8-4 0-8-4-8-8l0-63c-20-8-37-22-49-39l0 102c0 4-3 8-8 8-5 0-9-4-9-8l0-144c0 0 0 0 1-1-1-5-2-11-2-17 0-15 3-29 8-42l-171 0z m270-48c-50 0-90 40-90 90 0 49 40 90 90 90 49 0 90-41 90-90 0-50-41-90-90-90z m43 128l-60-59-26 27c-4 3-9 3-12 0-4-4-4-9 0-12l32-33c2-2 4-3 6-3 3 0 5 1 7 3l65 65c3 4 3 9 0 12-3 4-9 4-12 0z m-206 132c-4 0-8-4-8-8l0-144c0-5 4-8 8-8 5 0 9 3 9 8l0 144c0 4-4 8-9 8z"/>
<glyph unicode="&#103;" d="M331 258c-19 0-36-5-51-13-9 5-18 9-28 12l0 8c16 10 29 24 37 43 18 3 31 22 31 44 0 20-11 37-26 42-13 40-44 67-80 67-36 0-68-27-81-67-15-5-26-22-26-42 0-22 13-41 31-44 8-18 21-33 37-43l0-8c-54-16-93-64-96-119-1-2-1-3-1-5l0-27c0-12 10-22 23-22l155 0c19-20 45-33 75-33 57 0 103 47 103 104 0 57-46 103-103 103z m-117-116l-24 17 15 51 17 0 9-28c-3-9-4-18-4-27 0-1 0-2 0-4z m27 65l-4 14c0 0 0 0 0 0 0 1-1 1-1 2 0 0-1 1-1 1 0 0-1 1-1 1 0 0 0 0 0 0l21 12c3-1 6-2 9-3-9-8-17-17-23-27z m-89 112c-2 4-5 6-9 6-11 0-19 12-19 27 0 13 7 25 17 27 4 0 6 3 7 6 10 35 36 59 66 59 29 0 55-24 65-59 1-3 3-6 7-6 10-2 17-14 17-27 0-15-9-28-18-28-4 1-8-1-10-5-7-19-20-33-35-41-4-2-5-6-5-9l0-19c0-1 1-3 1-4l-22-13-23 13c0 1 1 3 1 4l0 18c1 4-1 8-5 10-15 8-28 22-35 41z m-51-218c-3 0-6 2-6 5l0 27 0 2c4 47 34 86 77 102l22-12c-1 0-1-1-2-1 0 0 0-1-1-1 0-1 0-1 0-2 0 0-1 0-1 0l-18-63c-1-4 0-7 3-9l34-25c0 0 0 0 0 0 1-1 3-1 5-1 0 0 0 0 0 0 0 0 0 0 0 0 2 0 3 0 4 1 1 0 1 0 1 0l11 8c2-11 7-22 13-31z m230-33c-48 0-87 39-87 87 0 30 16 57 40 72 0 0 1 1 2 1 13 8 28 13 45 13 47 0 86-39 86-86 0-48-39-87-86-87z m41 124l-57-57-26 26c-3 3-9 3-12 0-3-4-3-9 0-12l32-32c1-2 4-2 6-2 2 0 4 0 6 2l63 63c3 4 3 9 0 12-3 4-9 4-12 0z"/>
<glyph unicode="&#104;" d="M418 143l-324 0c-5 0-9 1-14 2-8 4-14 10-18 19-1 4-2 8-2 13l0 207c0 19 15 34 34 34l324 0c19 0 34-15 34-34l0-207c0-5-1-9-3-13-3-9-10-15-18-19-4-1-8-2-13-2m-324 259c-10 0-18-8-18-18l0-207c0-3 0-5 1-7 2-4 6-8 10-10 2-1 4-1 7-1l324 0c2 0 5 0 7 1 4 2 8 6 10 10 0 2 1 4 1 7l0 207c0 10-8 18-18 18z m350-308l-376 0c-5 0-8 3-8 8 0 4 3 8 8 8l376 0c5 0 8-4 8-8 0-5-3-8-8-8m-165 199l-39 39c-6 5-13 7-19 5-6-3-9-9-9-16l0-93c0-8 3-14 9-16 6-2 13-1 19 5l39 39c5 5 7 12 7 18 0 7-2 14-7 19m-51-65c0 0 0 0 0 0l0 93c0 0 0-1 0-1l39-38c0 0 0-1 0-1 2-2 3-4 3-7 0-2-1-5-3-7 0 0 0 0 0 0z"/>
<glyph unicode="&#105;" d="M273 100l-205 0c-4 0-8-4-8-8 0-5 4-9 8-9l205 0c5 0 8 4 8 9 0 4-3 8-8 8z m-182 15l159 0c4 0 8 4 8 9 0 4-4 8-8 8l-159 0c-4 0-8-4-8-8 0-5 4-9 8-9z m361-5c-1 3-2 7-4 10 0 0-1 1-1 1-1 1-2 2-2 3-1 0-1 1-2 1l-175 175 11 11 6-6c3-3 8-5 13-5l0 0c5 0 10 2 14 5l27 28c4 3 5 8 5 13 0 5-2 10-5 14l-73 72c-3 4-9 6-13 6-6 0-10-2-14-6l-27-27c-4-4-6-9-6-14 0-5 2-10 6-13l6-6-64-63-6 6c-3 3-8 5-13 5-5 0-10-2-14-6l-27-27c-4-4-6-8-6-14 0-5 3-9 6-13l73-73c3-3 8-5 13-5l0 0c5 0 10 2 14 5l27 28c4 3 6 8 6 13 0 6-2 10-6 14l-6 6 11 10 175-175c1-1 2-2 3-3 0 0 1 0 1 0 1-1 1-1 2-2 1 0 2-1 3-1 0 0 1-1 1-1 2 0 4-1 6-1 2-1 3-1 5-1 2 0 4 0 7 1 0 0 1 0 1 0 1 0 1 0 2 1 4 1 8 4 12 7 3 3 5 7 7 11 0 1 0 2 0 2 1 4 2 9 1 14z m-228 283l27 27c1 1 1 1 2 1 0 0 1 0 1-1l73-72c0-1 1-1 1-2 0 0-1-1-1-1l-27-28c-1 0-1-1-2-1 0 0-1 0-2 1l-40 40c0 0 0 0 0 0l-32 33c-1 0-1 1-1 1 0 1 0 1 1 2z m6-33l22-22c0 0 0 0 0 0l15-15-64-63-37 37z m-21-133l-27-28c0 0-1 0-2 0 0-1-1 0-1 0l-73 73c-1 1-1 1-1 2 0 0 0 1 1 1l27 28c1 0 1 0 2 0 0 0 1 0 2 0l60-61c0 0 0 0 0 0 0 0 0 0 1 0l2-3c0 0 0 0 0 0l9-9c1-1 1-1 1-2 0 0 0-1-1-1z m226-127c-1-2-2-4-3-5-2-2-4-3-6-4 0 0-1 0-1 0 0 0 0 0 0 0-2 0-3 0-5 0-1 0-2 1-3 1 0 0-1 0-1 1-1 0-1 0-2 1 0 0-1 1-1 1l-175 175 18 18 175-175c0 0 1 0 1 0 0-1 1-1 1-2 1-2 2-3 2-5 0-1 0-3 0-5 0 0 0 0 0-1z"/>
<glyph unicode="&#106;" d="M203 219c-4 0-8-4-8-8l0-8c0-10-7-18-17-18l-8 0c-5 0-8-3-8-7 0-4 3-8 8-8l8 0c18 0 32 15 32 33l0 8c0 4-3 8-7 8z m219 42c-1 0-2 1-2 1l-143 58 55 22 14 5c4 1 10 1 14-1 5-2 8-6 10-11 3-9-2-20-11-24l-4-1c-4-1-6-6-5-10 2-4 6-6 10-4l4 1c8 3 15 9 19 18 4 8 4 17 1 26-6 17-26 26-44 20l-13-5-71-28-70 28-13 5c-18 6-38-3-44-20-3-9-3-18 1-26 4-9 11-15 19-18l4-1c4-2 8 0 10 4 1 4-1 9-5 10l-3 1c-10 4-15 15-12 24 2 5 5 9 10 11 5 2 10 2 14 1l14-5 55-22-143-58c0 0 0 0 0 0-20-8-33-26-33-48l0-14c0-28 22-51 50-51l74 0c28 0 50 23 50 51l0 1 44 0 0-1c0-28 22-51 50-51l74 0c28 0 50 23 50 51l0 14c0 21-12 39-30 47z m-203-61c0-20-16-36-35-36l-74 0c-19 0-35 16-35 36l0 14c0 20 16 36 35 36l74 0c19 0 35-16 35-36z m-35 65l-43 0 116 46 115-46-44 0c-27 0-49-22-50-49l-44 0c-1 27-23 49-50 49z m253-65c0-20-16-36-35-36l-74 0c-19 0-35 16-35 36l0 14c0 20 16 36 35 36l74 0c19 0 35-16 35-36z m-16 19c-5 0-8-4-8-8l0-8c0-10-8-18-17-18l-9 0c-4 0-7-3-7-7 0-4 3-8 7-8l9 0c18 0 32 15 32 33l0 8c0 4-3 8-7 8z"/>
<glyph unicode="&#107;" d="M134 68c-30 0-55 28-55 62 0 34 25 62 55 62 31 0 56-28 56-62 0-34-25-62-56-62m0 109c-22 0-39-21-39-47 0-26 17-47 39-47 22 0 40 21 40 47 0 26-18 47-40 47m120-109c-31 0-56 28-56 62 0 34 25 62 56 62 31 0 55-28 55-62 0-34-24-62-55-62m0 109c-22 0-40-21-40-47 0-26 18-47 40-47 22 0 40 21 40 47 0 26-18 47-40 47m119-109c-30 0-55 28-55 62 0 34 25 62 55 62 31 0 56-28 56-62 0-34-25-62-56-62m0 109c-22 0-39-21-39-47 0-26 17-47 39-47 22 0 40 21 40 47 0 26-18 47-40 47m71 71l-376 0c-5 0-8 4-8 8 0 5 3 8 8 8l376 0c5 0 8-3 8-8 0-4-3-8-8-8m-282 76c-1 0-2 0-3 0-3 1-5 5-5 8l0 104c0 5 3 8 8 8 4 0 8-3 8-8l0-78 56 83c2 3 6 4 9 3 4-1 6-4 6-8l0-104c0-4-4-8-8-8-4 0-8 4-8 8l0 79-57-83c-1-3-4-4-6-4m181 0c-4 0-8 4-8 8l0 97-55 0 0-97c0-4-4-8-8-8-4 0-8 4-8 8l0 104c0 5 4 8 8 8l71 0c5 0 8-3 8-8l0-104c0-4-3-8-8-8"/>
<glyph unicode="&#108;" d="M448 310c0 0-1 0-1 0-6 9-55 78-190 78-139 0-190-73-193-78-2-2-7-12-3-31 2-10 5-19 5-21 1-3 3-13 13-20 7-5 17-8 28-8 8 0 18 2 28 5 1 0 2 0 3 1-13-15-19-28-19-48l0-37c0-4 1-7 3-10 2-7 7-12 14-15 3-1 7-2 10-2l220 0c3 0 7 1 10 2 6 3 12 8 14 15 2 3 2 6 2 10l0 37c0 11-2 21-6 30-2 4-7 6-11 4-3-2-5-7-3-11 4-7 5-14 5-23l0-37c0-1 0-3-1-4-1-3-3-5-6-6-1-1-3-1-4-1l-220 0c-1 0-3 0-4 1-3 1-5 3-6 6-1 1-1 3-1 4l0 37c0 20 6 30 24 48l12 11c19 10 28 21 26 35-1 7-2 14-2 14 0 4-4 7-8 7-4 0-8-4-7-8 0 0 1-8 2-15 1-15-31-25-51-31-25-6-37-3-43 1-6 4-6 10-7 10 0 0 0 1 0 1 0 0-3 11-5 21-2 13 0 18 1 19 0 0 0 0 0 0 0 0 0 0 0 0 0 1 47 71 180 71 133 0 178-70 178-71 0 0 0 0 0 0 0 0 0 0 0 0 0 0 4-5 1-19-2-10-5-21-5-21 0 0 0-1-1-1 0 0 0-6-6-10-6-4-18-7-43-1-20 6-52 16-51 31 1 7 2 15 2 15 0 1 0 2 0 3-1 2-14 35-76 35-20 0-37-4-51-11-4-2-5-7-3-10 2-4 6-6 10-4 11 6 26 9 44 9 44 0 58-18 61-23-1-3-1-8-2-12-2-21 17-36 62-47 10-3 20-5 28-5 11 0 21 3 28 8 10 7 12 17 13 20 0 2 3 11 5 21 4 21-2 30-3 31z m-246-70c0-22 24-39 54-39 30 0 54 17 54 39 0 22-24 39-54 39-30 0-54-17-54-39z m92 0c0-13-17-23-38-23-21 0-38 10-38 23 0 13 17 24 38 24 21 0 38-11 38-24z"/>
<glyph unicode="&#109;" d="M309 357c3 4 4 8 4 13 0 14-11 24-24 24l-66 0c-1 1-1 2-2 3l-26 36c1 0 3 1 5 1 3 0 5-1 8-3 4-2 10-5 19-5 9 0 14 3 18 5 3 1 6 3 11 3 0 0 0 0 0 0 5 0 7-2 11-3 4-2 9-5 18-5 9 0 15 3 19 5 3 2 5 3 8 3 2 0 4-1 5-1l-6-9c-3-4-2-10 2-13 2-1 4-2 6-2 2 0 5 2 7 4l12 17c1 0 1 0 1 1 0 0 0 1 1 1 0 1 0 1 0 2 0 0 0 1 0 2 0 0 0 1 0 1 0 1 0 1-1 2 0 1 0 1-1 2 0 0 0 0 0 0-1 2-10 11-26 11-8 0-13-2-17-4-3-2-6-3-10-3-4 0-6 1-10 2-4 2-9 5-19 5 0 0 0 0 0 0-10 0-15-2-20-5-3-1-5-2-9-2-5 0-7 1-10 3-4 2-9 4-17 4-16 0-25-9-26-11 0 0 0 0 0 0-1-1-1-1-1-2-1 0-1-1-1-2 0 0 0-1 0-1 0-1 0-1 0-2 0-1 0-1 0-2 1 0 1-1 1-1 0 0 0-1 1-1l29-39c-7-4-12-12-12-21 0-6 2-11 5-15-50-27-109-87-104-170 5-71 75-125 164-125 88 0 159 54 164 125 5 80-51 140-111 172z m92-170c-4-62-67-109-145-109-79 0-141 47-145 109-5 83 63 141 111 159 5 2 7 7 5 12-1 4-6 7-10 6-1 0-1 0-2 0-3 0-5 3-5 6 0 3 2 6 5 6l74 0c3 0 6-3 6-6 0-3-3-6-6-6l-32 0c-5 0-9-4-9-9 0-5 4-10 9-10l32 0c0 0 1 1 2 1 57-28 115-84 110-159z m-129 95l-41 0c-6 0-10-4-10-9l0-48-9 0c-6 0-10-4-10-9 0-5 4-9 10-9l9 0 0-9-9 0c-6 0-10-4-10-10 0-5 4-9 10-9l9 0 0-28c0-5 4-10 10-10 5 0 9 5 9 10l0 28 31 0c5 0 9 4 9 9 0 6-4 10-9 10l-31 0 0 9 32 0c21 0 38 17 38 38 0 20-17 37-38 37z m0-57l-32 0 0 39 32 0c10 0 19-9 19-19 0-11-9-20-19-20z"/>
<glyph unicode="&#110;" d="M302 453c-83 0-150-68-150-150 0-39 14-73 38-100l-127-127c-4-4-4-10 0-14 1-2 4-3 6-3 3 0 5 1 7 3l128 128c26-23 60-38 98-38 83 0 150 68 150 151 0 82-67 150-150 150z m0-281c-72 0-131 58-131 131 0 72 59 130 131 130 72 0 131-58 131-130 0-73-59-131-131-131z m70 200c-4 4-10 4-14 0-4-3-4-10 0-13 15-15 24-35 24-56 0-22-9-42-24-57-4-3-4-10 0-13 2-2 5-3 7-3 3 0 5 1 7 3 19 18 29 43 29 70 0 26-10 51-29 69z"/>
<glyph unicode="&#111;" d="M341 61l-24 0c-11 0-20 9-20 20l0 21c-1 0-2 1-3 1l-15-14c-7-8-21-8-28 0l-17 17c-8 7-8 20 0 28l14 14c0 2-1 3-1 4l-20 0c-11 0-20 9-20 20l0 24c0 11 8 20 20 20l20 0c0 1 1 3 1 4l-14 14c-8 8-8 21 0 29l17 16c7 8 21 8 28 0l15-14c1 0 2 1 3 1l0 21c0 11 9 20 20 20l24 0c11 0 20-9 20-20l0-21c2 0 3-1 4-1l15 14c7 8 21 8 28 0l17-16c8-8 8-21 0-29l-15-14c1-1 1-3 2-4l20 0c11 0 20-9 20-20l0-24c0-11-9-20-20-20l-20 0c-1-1-1-2-2-4l15-14c8-8 8-21 0-28l-17-17c-7-8-21-8-28 0l-15 14c-1 0-2-1-4-1l0-21c0-11-9-20-20-20m-49 60c1 0 3 0 4-1 4-2 8-3 12-5 4-1 6-4 6-8l0-26c0-2 2-3 3-3l24 0c2 0 4 1 4 3l0 26c0 4 2 7 6 8 4 2 8 3 12 5 3 2 7 2 10-1l18-19c1-1 4-1 5 0l17 17c1 2 1 4 0 5l-19 19c-2 2-3 6-1 9 2 4 4 9 5 13 1 3 4 6 8 6l26 0c2 0 4 1 4 3l0 24c0 2-2 3-4 3l-26 0c-4 0-7 3-8 6-1 4-3 9-5 13-2 3-1 7 1 9l19 19c1 1 1 3 0 5l-17 17c-1 1-4 1-5 0l-18-19c-3-3-7-3-10-1-4 2-8 3-12 5-4 1-6 4-6 8l0 26c0 2-2 3-4 3l-24 0c-1 0-3-1-3-3l0-26c0-4-2-7-6-8-4-2-8-3-12-5-3-2-7-1-10 1l-18 19c-2 1-4 1-5 0l-17-17c-2-2-2-4 0-5l18-19c3-2 4-6 2-9-2-4-4-9-5-13-1-3-5-6-8-6l-26 0c-2 0-4-1-4-3l0-24c0-2 2-3 4-3l26 0c3 0 7-3 8-6 1-4 3-9 5-12 2-4 1-8-2-10l-18-19c-2-1-2-3 0-5l17-17c1-1 3-1 5 0l18 19c2 2 4 2 6 2m37 14c-27 0-49 22-49 49 0 27 22 49 49 49 28 0 50-22 50-49 0-27-22-49-50-49m0 82c-18 0-32-15-32-33 0-18 14-33 32-33 18 0 33 15 33 33 0 18-15 33-33 33m-192 33c-3 0-5 1-7 2l-18 7c-5 2-8 5-10 10-2 4-2 9 0 14l6 14c0 1-1 1-1 1l-15-6c-8-3-20 1-23 10l-8 18c-4 9 1 20 10 24l15 6 0 1-15 6c-9 4-14 15-10 24l8 18c3 9 14 13 23 10l15-6c0 0 0 0 1 1l-6 14c-4 9 0 20 9 24l19 7c8 4 20-1 23-9l6-15c1 0 1 0 2 0l6 15c3 9 14 13 23 10l18-8c10-4 14-14 10-23l-6-15c1 0 1-1 1-1l15 6c9 4 20-1 23-10l8-18c4-9-1-20-10-24l-14-6c0 0 0-1 0-1l14-6c9-4 14-14 10-24l-7-18c-3-7-10-11-17-11-2 0-5 0-7 1l-15 6c0 0 0 0-1-1l6-14c4-9 0-20-9-24l-18-7c-9-4-20 1-24 9l-6 15c-1 0-1 0-2 0l-6-15c-2-6-9-11-16-11m-28 66c3 0 5-1 7-3 2-2 4-5 7-7 3-2 4-6 3-10l-9-20c0 0 0-1 1-2l19-7c0 0 1 0 1 1l8 20c2 3 5 5 9 5 3 0 7 0 11 0 3 0 7-2 8-5l8-20c0-1 1-1 2-1l18 8c1 0 1 1 1 1l-8 20c-2 4-1 8 2 10 3 2 5 5 8 8 2 2 6 3 9 2l20-8c1 0 2 0 2 0l8 19c0 0 0 1-1 2l-20 8c-3 1-6 5-5 8 0 4 0 7 0 11-1 4 1 7 5 8l20 9c1 0 1 1 1 2l-8 18c0 0-1 1-1 1l-21-9c-3-1-7 0-9 3-3 2-5 5-8 7-3 3-4 6-2 10l8 20c0 0 0 1-1 2l-18 7c-1 0-2 0-2-1l-8-20c-2-3-5-5-9-5-3 1-7 1-10 0-4 0-7 2-9 5l-8 20c0 1-1 1-2 1l-18-7c-1-1-1-2-1-2l8-20c2-4 1-8-2-10-3-2-5-5-8-8-2-2-6-3-9-2l-20 8c-1 0-2 0-2 0l-8-19c0 0 1-1 1-1l20-9c4-1 6-5 5-8 0-4 0-7 0-11 1-3-1-7-5-8l-20-9c0 0-1-1 0-2l7-18c0 0 1-1 2-1l20 9c1 0 2 0 3 0m51-7c-5 0-11 1-16 3-10 4-18 12-23 22-4 11-4 22 0 33 7 15 22 26 39 26 6 0 11-1 16-4 22-8 32-33 23-54-7-16-22-26-39-26m0 67c-10 0-20-6-23-16-3-6-3-13 0-19 2-7 7-11 13-14 3-1 7-2 10-2 10 0 20 6 24 16 5 13-1 28-14 33-3 1-7 2-10 2"/>
<glyph unicode="&#112;" d="M369 315l-15 0 0 39c0 54-44 98-98 98-54 0-98-44-98-98l0-39-15 0c-22 0-39-17-39-38l0-179c0-21 17-38 39-38l226 0c22 0 39 17 39 38l0 179c0 21-17 38-39 38z m-193 39c0 44 36 80 80 80 44 0 80-36 80-80l0-39-160 0z m214-256c0-11-9-20-21-20l-226 0c-12 0-21 9-21 20l0 179c0 11 9 20 21 20l226 0c12 0 21-9 21-20z m-134 133c-24 0-44-20-44-44 0-24 20-43 44-43 24 0 44 19 44 43 0 24-20 44-44 44z m0-69c-14 0-26 11-26 25 0 14 12 26 26 26 14 0 26-12 26-26 0-14-12-25-26-25z"/>
<glyph unicode="&#113;" d="M256 332c-42 0-76-34-76-76 0-42 34-76 76-76 42 0 76 34 76 76 0 42-34 76-76 76z m0-133c-31 0-57 26-57 57 0 31 26 57 57 57 31 0 57-26 57-57 0-31-26-57-57-57z m168 105l-36 0c-2 4-3 7-5 11l26 25c11 12 11 30 0 41l-28 28c-10 10-30 10-41 0l-25-26c-4 2-7 3-11 5l0 36c0 15-13 28-29 28l-38 0c-16 0-29-13-29-28l0-36c-4-2-7-3-11-5l-25 26c-11 10-31 10-41 0l-28-28c-11-11-11-29 0-41l26-25c-2-4-3-7-5-11l-36 0c-15 0-28-13-28-29l0-38c0-16 13-29 28-29l36 0c2-4 3-7 5-11l-26-25c-11-12-11-30 0-41l28-28c10-10 30-10 41 0l25 26c4-2 7-3 11-5l0-36c0-15 13-28 29-28l38 0c16 0 29 13 29 28l0 36c4 2 7 3 11 5l25-25c11-11 31-11 41 0l28 27c11 11 11 29 0 41l-26 25c2 4 3 7 5 11l36 0c15 0 28 13 28 29l0 38c0 16-13 29-28 29z m9-67c0-6-4-10-9-10l-43 0c-5 0-8-3-9-7-3-7-6-14-9-20-2-4-1-9 2-12l30-30c4-4 4-10 0-13l-28-28c-3-3-10-3-13 0l-30 30c-3 3-8 4-12 2-6-3-13-6-20-9-4-1-7-4-7-9l0-42c0-6-4-10-10-10l-38 0c-6 0-10 4-10 10l0 42c0 5-3 8-7 9-7 3-14 6-20 9-2 1-3 1-5 1-2 0-5-1-7-3l-30-30c-3-3-10-3-13 0l-28 27c-4 4-4 10 0 14l30 30c3 3 4 8 2 12-3 6-6 13-9 20-1 4-5 7-9 7l-43 0c-5 0-9 4-9 10l0 38c0 6 4 10 9 10l43 0c4 0 8 3 9 7 3 7 6 14 9 20 2 4 1 9-2 12l-30 30c-4 4-4 10 0 14l28 27c3 3 10 3 13 0l30-30c3-3 8-4 12-2 6 3 13 6 20 9 4 1 7 4 7 9l0 43c0 5 4 9 10 9l38 0c6 0 10-4 10-9l0-43c0-4 3-8 7-9 7-3 14-5 20-9 4-2 9-1 12 2l30 30c3 3 10 3 13 0l28-27c4-4 4-10 0-14l-30-30c-3-3-4-8-2-12 3-6 6-13 9-20 1-4 4-7 9-7l43 0c5 0 9-4 9-10z"/>
<glyph unicode="&#114;" d="M440 400l-37 37c-16 16-43 16-58 0l-13-12c-4-4-4-10 0-14 4-4 10-4 14 0l13 12c8 9 22 9 30 0l37-37c9-8 9-22 0-30l-32-33-72 72c-1 1-1 2-2 3-4 4-10 4-14 0l-205-204c-1-1-2-2-2-4l-39-114c-1-3 0-7 2-10 2-2 5-3 8-3 0 0 1 0 2 0l120 33c2 0 4 1 5 2l243 244c16 16 16 42 0 58z m-84-115l-68 68 24 24 68-68z m-162-161l-67 68 147 147 68-68z m-79 52l63-64-93-25z"/>
<glyph unicode="&#115;" d="M256 60c-108 0-196 88-196 196 0 108 88 196 196 196 108 0 196-88 196-196 0-108-88-196-196-196m0 374c-98 0-178-80-178-178 0-98 80-178 178-178 98 0 178 80 178 178 0 98-80 178-178 178m-27-247c-2 0-4 1-6 3l-69 68c-3 4-3 9 0 13 4 3 10 3 13 0l62-62 113 113c4 3 10 3 13 0 4-4 4-10 0-13l-119-119c-2-2-4-3-7-3"/>
<glyph unicode="&#116;" d="M256 452c-108 0-196-88-196-196 0-108 88-196 196-196 108 0 196 88 196 196 0 108-88 196-196 196z m0-374c-98 0-178 80-178 178 0 98 80 178 178 178 98 0 178-80 178-178 0-98-80-178-178-178z m90 268c-3 3-9 3-12 0l-78-78-78 78c-3 3-9 3-12 0-4-4-4-9 0-13l77-77-77-78c-4-4-4-9 0-13 1-1 4-2 6-2 2 0 5 1 6 2l78 78 78-78c1-1 4-2 6-2 2 0 5 1 6 2 4 4 4 9 0 13l-77 78 77 77c4 4 4 9 0 13z"/>
<glyph unicode="&#117;" d="M332 212c0-11-9-21-20-21-11 0-20 10-20 21 0 11 9 20 20 20 11 0 20-9 20-20z m65-64c0-12-10-21-21-21-11 0-20 9-20 21 0 11 9 20 20 20 11 0 21-9 21-20z m18 305l-318 0c-20 0-37-17-37-38l0-318c0-21 17-38 37-38l318 0c20 0 37 17 37 38l0 318c0 21-17 38-37 38z m18-356c0-10-8-18-18-18l-318 0c-10 0-18 8-18 18l0 318c0 10 8 18 18 18l318 0c10 0 18-8 18-18z m-249 83l35 35c4 4 4 10 0 14-4 4-10 4-14 0l-35-35-35 35c-4 4-10 4-14 0-4-4-4-10 0-14l35-35-35-35c-4-4-4-10 0-14 2-2 4-3 7-3 2 0 5 1 7 3l35 35 35-35c2-2 5-3 7-3 2 0 5 1 7 3 4 4 4 10 0 14z m196 49l-84-84c-4-4-4-10 0-14 2-2 4-3 7-3 2 0 5 1 7 3l84 84c4 4 4 10 0 14-4 4-10 4-14 0z m-151 117l-49 0 0 50c0 6-5 10-10 10-5 0-10-4-10-10l0-50-50 0c-5 0-9-4-9-9 0-6 4-10 9-10l50 0 0-50c0-5 5-10 10-10 5 0 10 5 10 10l0 50 49 0c6 0 10 4 10 10 0 5-4 9-10 9z m175 0l-120 0c-5 0-9-4-9-9 0-6 4-10 9-10l120 0c5 0 9 4 9 10 0 5-4 9-9 9z"/>
<glyph unicode="&#118;" d="M147 424c-42 0-87-10-87-33l0-37c0-23 45-33 87-33 42 0 88 10 88 33l0 37c0 0 0 0 0 1-1 22-46 32-88 32z m0-16c47 0 70-12 71-17-1-4-24-16-71-16-46 0-70 12-71 16l0 0c1 5 25 17 71 17z m0-71c-47 0-70 12-71 17l0 17c17-8 45-12 71-12 27 0 54 4 71 12l0-17c-1-5-24-17-71-17z m79-13c-4 0-8-4-8-8-1-5-24-17-71-17-47 0-70 12-71 17 0 4-4 8-8 8-5 0-8-4-8-8l0-38c0-22 45-33 87-33 42 0 88 11 88 33l0 38c0 2-1 3-2 5-2 2-4 3-7 3z m-79-62c-47 0-70 12-71 16l0 17c17-8 45-12 71-12 27 0 54 4 71 12l0-17c-1-4-24-16-71-16z m305-28c0 22-45 33-87 33-42 0-88-11-88-33l0-38c0-22 46-32 88-32 42 0 87 10 87 32l0 37c0 1 0 1 0 1z m-87 16c46 0 70-11 71-16 0 0 0 0 0 0-1-5-25-16-71-16-47 0-70 11-71 16 1 4 24 16 71 16z m0-70c-47 0-70 12-71 16l0 18c17-9 44-13 71-13 26 0 54 4 71 13l0-17c-1-5-25-17-71-17z m79-14c-4 0-8-3-8-8-1-4-25-16-71-16-47 0-70 12-71 16 0 5-4 8-8 8-5 0-9-3-9-8l0-37c0-23 46-33 88-33 42 0 87 10 87 33l0 37c0 0 0 0 0 0 0 0 0 0 0 0 0 5-3 8-8 8z m-79-62c-47 0-70 12-71 17l0 17c17-9 44-13 71-13 26 0 54 4 71 13l0-17c-1-5-25-17-71-17z m-139 141c-4 0-8-4-8-9-1-4-24-16-71-16-47 0-70 12-71 16 0 5-4 9-8 9-5 0-8-4-8-9l0-37c0-23 45-33 87-33 42 0 88 10 88 33l0 37c0 1-1 3-1 4-1 2-4 5-8 5z m-79-63c-47 0-70 12-71 17l0 17c17-8 45-12 71-12 27 0 54 4 71 12l0-17c-1-5-24-17-71-17z m79-16c-4 0-8-3-8-8-1-4-24-16-71-16-47 0-70 12-71 16 0 5-4 8-8 8-5 0-8-3-8-8l0-37c0-23 45-33 87-33 42 0 88 10 88 33l0 37c0 1-1 2-1 3-1 3-4 5-8 5z m-79-62c-47 0-70 12-71 17l0 17c17-9 45-13 71-13 27 0 54 4 71 13l0-17c-1-5-24-17-71-17z"/>
<glyph unicode="&#119;" d="M415 373l-89 0 0 19c0 25-20 46-46 46l-48 0c-26 0-46-21-46-46l0-19-89 0c-21 0-37-16-37-37l0-78c0 0 0-1 0-1 0-1 0-2 0-2 1-1 1-2 2-2 0-1 0-1 0-1 1-1 2-2 4-2 4-2 8-4 12-5l0-137c0-19 16-34 35-34l286 0c19 0 35 15 35 34l0 137c3 2 7 3 11 4 4 1 7 5 7 9l0 78c0 21-16 37-37 37z m-211 19c0 15 12 28 28 28l48 0c16 0 28-13 28-28l0-19-104 0 0 19z m-107-37l318 0c11 0 19-8 19-19l0-71c-39-18-85-28-135-32l0 10c0 5-4 9-9 9l-68 0c-5 0-9-4-9-9l0-10c-50 3-95 14-135 31l0 72c0 11 8 19 19 19z m184-167l-50 0 0 46 50 0z m134-80c0-8-7-16-16-16l-286 0c-9 0-16 8-16 16l0 130c35-13 73-21 116-24l0-35c0-5 4-9 9-9l68 0c5 0 9 4 9 9l0 35c42 4 81 11 116 24z"/>
<glyph unicode="&#120;" d="M99 318c0-3 1-6 3-8 3-2 5-4 8-4 7 0 12 6 12 12 0 6-5 11-12 11-6 0-11-5-11-11z m145-168c0 6-2 13-7 19-6 5-12 7-19 7 0 6-2 13-7 19-6 5-13 7-19 7 0 7-2 14-8 19-9 10-24 10-33 1l-14-13c0 0 0 0 0 0l-5-5c-9-9-8-24 1-34 5-5 12-8 18-8 1 0 1 1 1 1 0-7 2-14 8-19 5-5 11-8 18-8 0 0 0 0 0 0 0 0 0-1 0-2 1-6 3-12 8-16 4-5 10-8 17-8 0 0 0 0 1 0 0 0 0 0 1 0 0-1-1-1 0-2 0-6 3-12 7-17 5-4 11-7 17-7 0 0 1 0 1 0 6 0 12 2 16 6l13 13c0 0 0 0 0 0l5 6c9 9 9 24-1 33-5 6-12 8-19 8z m-100 31c-3 4-4 9-1 12l5 5c0 0 0 0 0 0l13 13c3 3 9 3 12-1 2-2 3-4 4-7 0-2-1-4-2-5l-6-5c0 0 0 0 0 0l-13-13c-3-3-8-3-12 1z m27-26c-4 3-5 9-2 12l13 13c0 0 0 0 0 0l6 5c1 1 3 2 5 2 2 0 5-1 7-3 3-4 4-9 1-12l-9-9-10-9c-2-3-8-3-11 1z m32-30c-2 1-4 2-6 3-2 2-3 5-3 7 0 2 0 4 2 5l5 6c0 0 0 0 0 0l13 13c3 3 8 2 12-1 4-4 4-9 1-12l-13-13c0 0 0 0 0-1l-5-5c-2-1-4-2-6-2z m27-26c-3 0-5 1-7 3-2 2-3 4-3 7 0 2 0 4 2 5l5 5c0 0 0 0 0 0l13 14c3 3 8 2 12-2 2-1 3-4 3-6 0-2 0-4-2-6l-13-13c0 0 0 0 0 0l-5-5c-1-1-3-2-5-2z m-99 137c1-1 1-2 2-3 1-1 3-2 5-2 2 0 4 1 6 2 3 3 3 8 0 11-7 7-7 18 0 24l75 76c4 3 4 8 0 11-3 3-7 3-10 0l-76-76c-5-4-7-10-9-15l-44 44c-7 7-7 17 0 24l76 76c7 6 17 6 24 0l48-48c3-3 8-3 11 0 3 3 3 8 0 11l-48 48c-13 12-33 12-46 0l-76-76c-12-13-12-33 0-46l61-60c0-1 1-1 1-1z m313 103l-64 64c-10 11-28 11-39 0l-33-33c-11 1-23-3-32-11l-50-44c-2-2-3-4-2-7l13-97c0-1 0-1 0-1 0-1 0-1 1-1 0-1 0-1 0-2 1 0 1 0 1-1 1 0 1 0 2-1 0 0 0 0 0 0 1 0 2-1 2-1 1 0 1 0 1 0 0 0 1 0 2 0 7 0 30 1 42 16 7 9 8 20 4 34-3 11-3 20 1 27 2 3 4 5 6 6l77-77c3-3 2-8-1-12-4-3-9-4-12-1l-13 13c-3 3-8 3-11 0-1 0-1 0-1-1-1 0-1 0-1-1-3-3-3-8 0-11l13-13c3-3 2-8-2-12-1-2-4-3-6-3-2 0-4 1-5 2l-14 13c-3 3-7 3-10 0-1 0-1-1-1-1-1 0-1-1-2-1-3-3-3-8 0-11l14-13c1-1 1-3 1-5 0-3-1-5-3-7-2-2-4-3-6-3-3 0-4 0-6 2l-13 13c-3 3-8 3-11 0 0 0 0-1-1-1 0-1 0-1-1-1-3-3-3-8 0-11l13-13c3-3 3-9-1-12-3-3-3-8 0-11 2-2 4-2 5-2 2 0 4 0 6 2 5 5 7 12 7 19 1 0 1-1 1-1 1 0 1 1 1 1 7 0 13 3 17 7 5 5 8 12 7 19 1 0 1 0 1 0 7 0 13 2 18 7 6 6 8 12 8 19 0 0 0 0 1 0 6 0 13 2 18 8 9 9 10 24 1 33l-80 80c-1 1-1 1-1 1 0 0-1 1-2 1 0 0 0 0-1 0 0 0-1 1-1 1-1 0-1 0-2 0 0 0 0 0-1 0-1-1-12-4-19-15-6-11-7-24-3-40 3-8 2-15-1-20-6-6-17-9-25-9l-12 86 48 41c10 10 26 10 36 0l64-64c4-5 7-11 7-18 0-6-3-13-7-18l-3-3c-3-3-3-8 0-11 3-3 7-3 10 0l4 4c7 7 11 17 11 28l35 35c11 11 11 28 0 39z m-11-28l-28-28c-2 4-4 8-7 11l-64 64c-3 3-6 5-9 7l27 27c5 5 13 5 17 0l64-64c5-5 5-13 0-17z"/>
<glyph unicode="&#121;" d="M344 452l-176 0c-4 0-9-1-13-3-9-3-16-10-19-18-2-5-3-9-3-14l0-322c0-5 1-9 3-14 3-8 10-15 19-18 4-2 9-3 13-3l176 0c19 0 35 16 35 35l0 322c0 19-16 35-35 35z m-190-29c1 4 4 7 8 9 2 1 4 1 6 1l176 0c8 0 16-7 16-16l0-14-208 0 0 14c0 2 1 4 2 6z m190-344l-176 0c-2 0-4 0-6 1-4 2-7 5-8 9-1 2-2 4-2 6l0 51 178 0c5 0 10 5 10 10 0 5-5 10-10 10l-178 0 0 218 208 0 0-289c0-9-8-16-16-16z m-73 37c0-8-7-15-15-15-8 0-15 7-15 15 0 8 7 15 15 15 8 0 15-7 15-15z"/>
<glyph unicode="&#122;" d="M144 95c-3 0-6 0-9 2-10 4-17 13-17 25l0 16c0 4 4 8 9 8 4 0 8-4 8-8l0-16c0-5 2-9 6-10 3-1 7-1 10 2 7 7 32 33 45 46 5 5 8 8 8 8 7 7 10 8 20 8l201 0c6 0 11 5 11 11l0 203c0 6-5 11-11 11l-338 0c-6 0-11-5-11-11l0-203c0-6 5-11 11-11l40 0c5 0 9-3 9-8 0-4-4-8-9-8l-40 0c-15 0-27 12-27 27l0 203c0 15 12 27 27 27l338 0c15 0 27-12 27-27l0-203c0-15-12-27-27-27l-201 0c-5 0-5 0-8-4-1 0-4-3-8-7-13-14-38-40-45-46-5-6-12-8-19-8"/>
<glyph unicode="&#65;" d="M131 136l-48 0c-13 0-23 11-23 23l0 225c0 12 10 23 23 23l48 0c13 0 23-11 23-23l0-225c0-12-10-23-23-23m-48 255c-4 0-8-3-8-7l0-225c0-4 4-7 8-7l48 0c4 0 7 3 7 7l0 225c0 4-3 7-7 7z m23-217c-14 0-25 11-25 25 0 14 11 26 25 26 14 0 26-12 26-26 0-14-12-25-26-25m0 35c-5 0-9-4-9-10 0-5 4-9 9-9 6 0 10 4 10 9 0 6-4 10-10 10m134-73l-48 0c-13 0-23 11-23 23l0 225c0 12 10 23 23 23l48 0c13 0 23-11 23-23l0-225c0-12-10-23-23-23m-48 255c-4 0-8-3-8-7l0-225c0-4 4-7 8-7l48 0c4 0 7 3 7 7l0 225c0 4-3 7-7 7z m23-217c-14 0-25 11-25 25 0 14 11 26 25 26 14 0 26-12 26-26 0-14-12-25-26-25m0 35c-5 0-9-4-9-10 0-5 4-9 9-9 6 0 10 4 10 9 0 6-4 10-10 10m170-73c-9 0-17 5-21 14l-90 205c-5 12 0 25 12 31l44 19c3 1 6 2 9 2 9 0 18-6 21-14l90-205c5-12 0-26-12-31l-44-19c-3-1-6-2-9-2m-46 255c-1 0-2 0-3 0l-44-20c-3-1-5-6-4-9l90-206c2-4 6-5 10-4l44 20c4 1 6 6 4 9l-90 206c-1 2-4 4-7 4m52-211c-10 0-19 6-24 15-5 13 1 28 14 33 3 2 6 3 10 3 10 0 19-6 23-16 3-6 3-13 0-19-2-6-7-11-13-14-3-1-7-2-10-2m0 35c-2 0-3 0-4-1-5-2-7-8-5-13 2-4 8-7 13-5 2 1 4 3 5 6 1 2 1 5 0 7-2 4-6 6-9 6m38-110l-361 0c-5 0-8 4-8 8 0 4 3 8 8 8l361 0c4 0 8-4 8-8 0-4-4-8-8-8"/>
<glyph unicode="&#66;" d="M394 326l-108 0c-5 0-9-4-9-9 0-4 4-8 9-8l108 0c5 0 9 4 9 8 0 5-4 9-9 9z m56 36l-65 64c-1 2-3 3-6 3l-130 0c-15 0-25-11-25-26l0-70c0-5 3-9 8-9 5 0 9 4 9 9l0 70c0 4 1 9 8 9l122 0 0-39c0-15 10-26 26-26l9 0c4 0 8 4 8 9 0 4-4 8-8 8l-9 0c-4 0-9 2-9 9l0 27 47-48 0-175c0-6-3-9-8-9l-13 0c-5 0-9-4-9-8 0-5 4-9 9-9l13 0c14 0 25 11 25 26l0 179c0 2-1 4-2 6z m-56-100l-42 0c-5 0-9-4-9-8 0-5 4-9 9-9l42 0c5 0 9 4 9 9 0 4-4 8-9 8z m0 32l-75 0c-5 0-9-4-9-8 0-5 4-9 9-9l75 0c5 0 9 4 9 9 0 4-4 8-9 8z m-79-60c-5 0-10 0-14-1-6 46-45 82-92 82-51 0-92-42-92-92 0-3 0-6 0-9-32-4-57-32-57-65 0-36 29-66 65-66l190 0c42 0 76 34 76 76 0 42-34 75-76 75z m0-134l-190 0c-27 0-48 22-48 49 0 26 21 48 48 48 1 0 1 0 2 0 2 0 5 1 6 3 2 2 3 5 2 7-1 5-1 10-1 16 0 41 33 75 75 75 41 0 75-34 75-76 0-3 1-5 4-7 2-2 5-2 7-1 7 2 14 3 20 3 33 0 59-26 59-58 0-32-26-59-59-59z"/>
<glyph unicode="&#67;" d="M443 99l-25 0 0 204c0 15-12 27-27 27l-33 0c-15 0-28-12-28-27l0-204-26 0 0 109c0 15-12 27-27 27l-33 0c-15 0-27-12-27-27l0-109-25 0 0 195c0 15-12 27-27 27l-34 0c-15 0-27-12-27-27l0-195-26 0 0 261c0 5-4 9-9 9-5 0-9-4-9-9l0-270c0-5 4-9 9-9l374 0c5 0 9 4 9 9 0 5-4 9-9 9z m-94 204c0 5 4 9 8 9l34 0c5 0 9-4 9-9l0-204-51 0 0 204z m-114-95c0 5 4 9 9 9l33 0c5 0 9-4 9-9l0-109-51 0z m-113 86c0 5 4 9 9 9l34 0c5 0 9-4 9-9l0-195-52 0z m26 57c8 0 15 3 21 7l59-44c-3-5-4-10-4-16 0-20 16-36 36-36 21 0 37 16 37 36 0 6-2 11-4 16l58 53c6-6 14-9 23-9 20 0 37 16 37 36 0 21-17 37-37 37-20 0-36-16-36-37 0-4 1-8 2-12l-59-54c-6 4-13 7-21 7-7 0-15-3-21-7l-58 44c2 5 3 10 3 16 0 20-16 36-36 36-20 0-36-16-36-36-1-20 16-37 36-37z m226 62c10 0 18-9 18-19 0-10-8-18-18-18-10 0-18 8-18 18 0 10 8 19 18 19z m-95-115c0-10-9-18-19-18-10 0-18 8-18 18 0 10 8 18 18 18 10 0 19-8 19-18z m-131 108c10 0 18-8 18-18 0-10-8-18-18-18-10 0-18 8-18 18 0 10 8 18 18 18z"/>
<glyph unicode="&#68;" d="M247 264l0 131c0 13-10 23-22 23l-11 0c-4 0-8-4-8-8 0-5 4-8 8-8l11 0c3 0 6-3 6-7l0-13-155 0 0 13c0 4 3 7 6 7l11 0c4 0 8 3 8 8 0 4-4 8-8 8l-11 0c-12 0-22-10-22-23l0-131c0-13 10-23 22-23l143 0c12 0 22 10 22 23z m-171 0l0 102 155 0 0-102c0-4-3-7-6-7l-143 0c-3 0-6 3-6 7z m343 68l-149 0c-4 0-8-3-8-7 0-5 4-8 8-8l149 0c9 0 17-8 17-18l0-149c0-10-8-18-17-18l-236 0c-10 0-18 8-18 18l0 68c0 5-4 8-8 8-5 0-8-3-8-8l0-68c0-19 15-34 34-34l236 0c18 0 33 15 33 34l0 149c0 18-15 33-33 33z m25-236l-287 0c-5 0-8-3-8-8 0-4 3-8 8-8l287 0c5 0 8 4 8 8 0 5-3 8-8 8z m-235 84c0-4 4-8 8-8l174 0c5 0 8 4 8 8 0 4-3 8-8 8l-174 0c-4 0-8-4-8-8z m70 34l112 0c5 0 8 4 8 8 0 5-3 8-8 8l-112 0c-5 0-8-3-8-8 0-4 3-8 8-8z m0 42l112 0c5 0 8 4 8 8 0 5-3 8-8 8l-112 0c-5 0-8-3-8-8 0-4 3-8 8-8z m-164 138c4 0 8 3 8 7l0 23c0 4-4 8-8 8-4 0-8-4-8-8l0-22c0-5 4-8 8-8z m26 0c4 0 8 3 8 7l0 23c0 4-4 8-8 8-5 0-8-4-8-8l0-22c0-5 3-8 8-8z m25 0c5 0 8 3 8 7l0 23c0 4-3 8-8 8-4 0-8-4-8-8l0-22c0-5 4-8 8-8z m26 0c4 0 8 3 8 7l0 23c0 4-4 8-8 8-4 0-8-4-8-8l0-22c0-5 4-8 8-8z m-47-103l-19 0 14 14c9 7 18 23 5 39-12 15-30 8-39 2-3-3-4-8-2-11 3-4 8-5 12-2 0 0 11 8 17 1 6-8-1-15-4-18l-28-27c-2-2-3-6-1-9 1-3 4-5 7-5l38 0c4 0 8 4 8 8 0 5-4 8-8 8z m53 31c-5 4-13 6-19 6l2 7 19 0c4 0 8 4 8 8 0 4-4 8-8 8l-26 0c-4 0-7-3-8-7l-4-23c0-3 1-5 2-7 2-2 5-3 8-2 2 0 11 1 16-3 1 0 4-3 4-10 0-7-6-10-10-10-7 0-10 2-10 2-4 3-9 3-12-1-2-3-2-8 2-11 0 0 8-6 20-6 12 0 26 10 26 26 0 12-5 19-10 23z"/>
<glyph unicode="&#69;" d="M452 135c0 0 0 1 0 2 0 0 0 0 0 0 0 1 0 1 0 1 0 1 0 1 0 2-1 0-1 1-1 1 0 0 0 0 0 0 0 1 0 1 0 1 0 0 0 0 0 0-1 0-1 1-1 1 0 0-1 1-1 1 0 0 0 0 0 0 0 0-1 0-1 0l0 0c0 1 0 1 0 1l-50 33c-4 3-9 2-12-2-3-4-2-9 2-12l27-18-272 0c-4 0-8 1-12 2-8 4-14 10-18 18-1 4-2 8-2 12l0 202 18-27c2-2 4-3 7-3 2 0 4 0 5 1 4 3 5 8 2 12l-33 50c0 0-1 0-1 0l0 0c0 1 0 1 0 1 0 0 0 0 0 0-1 0-1 1-1 1-1 0-1 1-1 1 0 0 0 0 0 0 0 0 0 0 0 0-1 0-1 0-1 0 0 0-1 1-1 1-1 0-1 0-2 0 0 0 0 0-1 0 0 0 0 0 0 0-1 0-2 0-2 0-1 0-1-1-2-1 0 0 0 0 0 0-1 0-1 0-1 0 0 0 0-1 0-1-1 0-1-1-1-1 0 0-1 0-1-1l0 0c0 0 0 0 0 0l-34-50c-2-4-1-9 3-12 1-1 3-1 4-1 3 0 6 1 8 3l18 27 0-202c0-6 1-13 4-19 5-12 14-21 26-26 6-3 13-4 19-4l272 0-27-18c-4-3-5-8-2-12 2-3 4-4 7-4 2 0 3 0 5 1l50 34c1 0 1 1 1 1 0 0 1 1 1 1 0 0 0 0 0 0 0 0 1 0 1 1 0 0 0 0 0 0 0 0 0 0 0 0 0 1 0 1 1 2z m-294 46c1 0 3 1 4 1l39 22c6-5 13-7 21-7 19 0 34 15 34 34 0 8-3 16-8 22l43 54c4-2 10-4 15-4 12 0 22 6 28 15l50-19c0 0 0 0 0-1 0-18 16-34 34-34 19 0 34 16 34 34 0 19-15 34-34 34-12 0-23-6-29-16l-49 18c0 1 0 2 0 3 0 19-15 34-34 34-19 0-34-15-34-34 0-7 2-13 6-18l-45-56c-3 1-7 2-11 2-19 0-34-16-34-34 0-5 1-9 3-13l-37-21c-5-2-6-7-4-11 2-3 5-5 8-5z m260 134c10 0 17-7 17-17 0-9-7-16-17-16-9 0-16 7-16 16 0 10 7 17 16 17z m-112 39c9 0 17-8 17-17 0-9-8-17-17-17-9 0-17 8-17 17 0 9 8 17 17 17z m-84-107c9 0 17-7 17-16 0-10-8-17-17-17-9 0-17 7-17 17 0 9 8 16 17 16z"/>
<glyph unicode="&#70;" d="M337 237c-2 1-4 2-6 2l-56 0c-9 0-15-6-15-15l0-98c0-9 6-15 15-15l77 0c9 0 15 6 15 15l0 78c0 2-1 4-2 5z m8-31l-11 0 0 11z m-69-80l0 97 42 0 0-17c0-9 7-15 16-15l17 0 0-64z m150 147l-177 0c0 1 0 1 0 2 0 4-3 7-7 8l0 46c4 0 7 3 7 7 0 5-3 8-8 8l-6 0c0 0-1 0-1 0 0 0 0 0 0 0l-6 0c-5 0-8-3-8-8 0-4 3-7 7-7l0-46c-4-1-7-4-7-8 0-1 0-1 0-2l-14 0c0 1 0 1 0 2 0 4-3 7-7 8l0 46c4 0 7 3 7 7 0 5-4 8-8 8l-7 0c0 0 0 0 0 0 0 0 0 0 0 0l-7 0c-4 0-8-3-8-8 0-4 3-7 7-7l0-47c-4 0-7-3-7-7 0-4 4-8 8-8-4-4-8-9-9-14l-97 0c-4 0-7-4-7-8 0-5 3-8 7-8l97 0 0-9-107 0c-5 0-8-4-8-8 0-4 3-8 8-8l107 0 0-109c0-4 0-7 2-10 2-7 7-12 13-14 4-2 7-2 11-2l225 0c4 0 7 0 10 2 7 2 12 7 14 14 2 3 2 6 2 10l0 144c0 15-11 26-26 26z m10-170c0-2 0-3 0-4-1-3-3-5-6-6-1 0-2 0-4 0l-225 0c-2 0-3 0-4 0-3 1-5 3-6 6 0 1-1 2-1 4l0 144c0 6 5 10 11 10l225 0c6 0 10-4 10-10l0-144z m-302 55c-3 3-8 3-11 0-3-3-3-8 0-11l8-9c-12 0-27 2-36 10-18 14-17 44-17 44 0 4-3 8-7 8-5 0-8-3-9-8 0-1-1-38 23-56 13-10 30-13 44-13l-6-6c-3-3-3-8 0-11 2-2 4-2 6-2 2 0 4 0 5 2l21 20c1 2 2 4 2 6 0 2-1 4-2 5z m183 182c2-1 4-2 6-2 2 0 4 1 5 2 3 3 3 8 0 11l-8 8c12 0 27-1 37-9 17-14 17-44 17-44-1-4 3-8 7-8l0 0c5 0 8 3 8 7 0 2 1 38-22 57-13 10-31 13-44 13l5 6c3 3 3 8 0 11-3 3-8 3-11 0l-20-20c-3-3-3-8 0-12z m-239 18l184 0c3 0 6 2 7 6 1 3 0 6-3 8l-92 62c-2 2-6 2-8 0l-92-62c-3-2-4-5-3-8 1-4 4-6 7-6z m92 60l66-44-132 0z m-49-82c0 5-4 8-8 8l-7 0c0 0 0 0 0 0 0 0 0 0 0 0l-7 0c-5 0-8-3-8-8 0-4 3-7 7-7l0-46c-4-1-7-4-7-8 0-5 3-8 8-8l14 0c4 0 8 3 8 8 0 4-4 7-7 8l0 46c3 0 7 3 7 7z m42 0c0 5-3 8-8 8l-6 0c0 0 0 0 0 0 0 0-1 0-1 0l-6 0c-5 0-8-3-8-8 0-4 3-7 7-7l0-46c-4-1-7-4-7-8 0-4 3-8 8-8l13 0c5 0 8 3 8 8 0 4-3 7-7 8l0 46c4 0 7 3 7 7z"/>
<glyph unicode="&#71;" d="M442 384c0 0 0 0 0 0 0 0-1 0-1 0-6 7-15 10-24 10l-322 0c-9 0-18-4-24-10-1 0-1 0-1 0 0 0 0 0 0 0-6-6-10-15-10-25l0-206c0-5 1-9 3-14 3-8 10-15 18-19 5-1 9-2 14-2l322 0c5 0 9 1 14 2 8 4 15 11 18 19 2 5 3 9 3 14l0 206c0 10-4 19-10 25z m-25-9c0 0 0 0 0 0l-116-109c0 0 0 0 0 0l0 0-38-37c-2-3-4-4-7-4-2 0-4 1-7 4l-38 37 0 0c0 0 0 1 0 1l-116 108c0 0 0 0 0 0z m16-222c0-2-1-4-1-6-2-4-5-7-9-9-2-1-4-1-6-1l-322 0c-2 0-4 0-6 1-4 2-7 5-9 9 0 2-1 4-1 6l0 206c0 1 1 2 1 3l118-109 37-38c6-6 14-9 21-9 0 0 1 0 1 0 7 0 14 3 20 9l37 37 0 0 118 110c0-1 1-2 1-3l0-206z"/>
<glyph unicode="&#72;" d="M256 452c-108 0-196-88-196-196 0-108 88-196 196-196 25 0 49 4 71 13 5 2 7 7 5 11-2 5-7 7-11 5-11-4-22-7-33-9l-10 52 7 19c1 3 1 7-2 9l-13 13 21 13c35-14 59-46 62-84 0 0 0-1 0-1 0-2 1-3 2-5 2-4 8-5 12-2 53 36 85 97 85 162 0 108-88 196-196 196z m21-220c-3-2-5-5-5-9l0-25c0-1 1-2 1-3l-17-9-17 9c0 1 0 2 0 3l0 24c1 4-1 8-4 10-13 6-23 18-29 34-1 3-5 5-8 5 0 0-1 0-1 0-8 0-14 10-14 21 0 11 5 20 13 21 3 1 6 3 7 7 8 28 29 47 53 47 24 0 45-19 53-47 1-4 4-6 7-7 7-1 13-10 13-21 0-11-6-21-14-21 0 0 0 0-1 0-3 0-7-2-8-5-6-16-16-28-29-34z m-14-91l-14 0-4 11 11 10 11-10z m-42 45l22-13-14-13c-2-2-3-6-2-9l8-19-10-52c-24 4-46 13-65 26 3 36 27 67 61 80z m35-109c-5 0-9 0-14 1l9 46 11 0 8-46c-4-1-9-1-14-1z m112 40c-8 41-38 75-78 88l0 14c13 8 23 20 30 35 15 3 27 19 27 38 0 17-10 32-23 37-11 34-38 56-68 56-30 0-57-22-68-56-13-5-23-20-23-37 0-19 12-35 27-38 7-15 17-27 30-35l0-14c-41-13-70-47-78-88-41 33-67 83-67 139 0 99 80 179 179 179 99 0 179-80 179-179 0-54-25-105-67-139z"/>
<glyph unicode="&#73;" d="M168 287l-72 0c-5 0-9 4-9 9 0 6 4 10 9 10l72 0c5 0 9-4 9-10 0-5-4-9-9-9m68-92l-121 0c-6 0-10 5-10 10 0 5 4 10 10 10l121 0c5 0 9-5 9-10 0-5-4-10-9-10m167-54l-244 0c-5 0-9 4-9 10 0 5 4 9 9 9l244 0c21 0 26 7 27 18 2 10 6 45 11 79 5 32 9 65 10 72 1 4 1 8 1 10l-140-98c-3-3-8-3-12 0l-129 112c-3 3-4 7-3 11 2 3 5 6 9 6l254 0c16 0 27-2 34-9 7-9 7-21 5-34-1-8-5-39-10-73-5-34-9-68-11-78-2-23-18-35-46-35m-200 210l104-90 128 90c-1 0-3 0-4 0z m8-110l-164 0c-5 0-10 4-10 10 0 5 5 9 10 9l164 0c5 0 10-4 10-9 0-6-5-10-10-10"/>
<glyph unicode="&#74;" d="M268 285c0 5-4 9-9 9l-131 0c-5 0-9-4-9-9 0-4 4-8 9-8l131 0c5 0 9 4 9 8z m77-143c-5 0-9-4-9-8l0-29c0-7-3-14-14-14l-237 0c-6 0-14 4-14 14l0 230 54 0c19 0 32 13 32 32l0 54 165 0c13 0 14-10 14-14l0-35c0-5 4-9 9-9 5 0 9 4 9 9l0 35c0 19-13 32-32 32l-173 0c-3 0-5-1-7-3l-86-85c-2-2-3-4-3-7l0-239c0-19 14-32 32-32l237 0c19 0 32 13 32 32l0 28c0 5-4 9-9 9z m-220 211l-41 0 55 55 0-41c0-13-9-14-14-14z m3-144c-5 0-9-4-9-8 0-5 4-9 9-9l69 0c5 0 9 4 9 9 0 4-4 8-9 8z m98 34c0 5-4 9-8 9l-90 0c-5 0-9-4-9-9 0-5 4-9 9-9l90 0c4 0 8 4 8 9z m222 77l-34 34c-14 14-39 14-53 0l-122-122c-1-1-1-2-2-3l-35-104c-1-3 0-6 2-9 2-2 4-3 7-3 1 0 1 1 2 1l109 29c2 1 3 1 4 2l122 122c14 15 14 38 0 53z m-196-104l57-58-84-23z m183 64l-18-19-45 45c-3 4-9 4-12 0-4-3-4-9 0-12l44-45-80-81-62 62 112 111c7 7 20 7 27 0l34-34c8-7 8-20 0-27z"/>
<glyph unicode="&#75;" d="M195 273l0 13c12 7 21 19 28 33 14 3 25 18 25 36 0 16-8 30-21 35-10 32-36 53-65 53-29 0-55-21-65-53-12-5-21-19-21-35 0-18 11-33 25-36 7-14 17-26 29-33l0-13c-43-14-73-51-77-96 0-1 0-2 0-4l0-84c0-11 9-20 20-20l124 0c4 0 8 4 8 9 0 4-4 8-8 8l-124 0c-1 0-2 1-2 3l0 85c0 0 0 1 0 1 2 36 25 66 58 79l20-12-11-10c-2-2-3-6-2-9l6-16-12-66c-1-4 1-7 3-9l24-17c0 0 0 0 0 0 2-1 3-2 5-2 0 0 0 0 0 0 0 0 0 0 0 0 2 0 3 1 5 2 0 0 0 0 0 0l24 17c3 2 4 5 4 9l-13 66 6 16c1 3 0 7-2 9l-11 10 20 12c33-13 56-43 58-79 0 0 0-1 1-2l0-84c0-2-2-3-3-3l-11 0c-5 0-9-4-9-8 0-5 4-9 9-9l11 0c11 0 20 9 20 20l0 84c0 1 0 3 0 4-4 45-34 82-76 96z m-80 57c-1 4-4 6-8 6 0 0 0 0-1 0-7 0-13 9-13 19 0 10 6 19 12 20 4 0 7 3 7 6 8 27 28 45 50 45 22 0 42-18 50-45 1-3 3-6 7-6 7-2 12-10 12-20 0-10-6-19-13-19-1 0-1 0-1 0-4 0-7-2-8-6-6-14-16-25-27-32-4-1-5-5-5-8l0-24c0-1 0-2 0-2l-15-9-15 9c0 0 0 1 0 2l0 23c1 4-1 8-5 10-11 6-21 17-27 31z m52-114l-10 0-2 8 7 7 8-8z m-5-83l-14 10 11 56 7 0 10-56z m207 310c-50 0-90-40-90-90 0-4 0-8 0-12 1-4 5-8 10-7 5 0 8 5 8 10-1 3-1 6-1 9 0 40 33 73 73 73 40 0 72-33 72-73 0-40-32-73-72-73-14 0-28 4-40 12-2 2-4 2-7 1l-20-4 5 21c1 5-2 10-7 11-4 1-9-2-10-7l-7-34c-1-3 0-6 2-8 2-2 5-3 8-3l29 7c14-9 30-13 47-13 50 0 90 40 90 90 0 50-41 90-90 90z m9-90c0-5-4-9-9-9-5 0-10 4-10 9 0 5 5 9 10 9 5 0 9-4 9-9z m34 0c0-5-4-9-9-9-6 0-10 4-10 9 0 5 4 9 10 9 5 0 9-4 9-9z m-68 0c0-5-4-9-9-9-5 0-9 4-9 9 0 5 4 9 9 9 5 0 9-4 9-9z"/>
<glyph unicode="&#76;" d="M433 189l-179 0c-15 0-27 12-27 27l0 227c0 14 12 26 27 26l179 0c14 0 26-12 26-26l0-227c0-15-12-27-26-27m-179 261c-5 0-8-3-8-7l0-227c0-5 3-8 8-8l179 0c4 0 8 3 8 8l0 227c0 4-4 8-8 8z m115-365l-277 0c-22 0-39 18-39 40l0 174c0 22 17 40 39 40l108 0c5 0 10-4 10-9 0-6-5-10-10-10l-108 0c-11 0-21-9-21-21l0-174c0-12 10-21 21-21l277 0c12 0 21 9 21 21l0 37c0 6 4 10 10 10 5 0 9-4 9-10l0-37c0-22-18-40-40-40m31-42l-338 0c-5 0-9 4-9 9 0 5 4 10 9 10l338 0c5 0 9-5 9-10 0-5-4-9-9-9m2 351l-117 0c-5 0-9 5-9 10 0 5 4 9 9 9l117 0c5 0 10-4 10-9 0-5-5-10-10-10m0-48l-117 0c-5 0-9 4-9 10 0 5 4 9 9 9l117 0c5 0 10-4 10-9 0-6-5-10-10-10m0-48l-117 0c-5 0-9 4-9 9 0 5 4 10 9 10l117 0c5 0 10-5 10-10 0-5-5-9-10-9m0-48l-117 0c-5 0-9 4-9 9 0 5 4 9 9 9l117 0c5 0 10-4 10-9 0-5-5-9-10-9"/>
<glyph unicode="&#77;" d="M256 242c-5 0-9-4-9-9l0-126c0-20-17-37-37-37-20 0-37 16-37 37l0 15c0 5-4 9-8 9-5 0-9-4-9-9l0-15c0-30 24-55 54-55 30 0 55 25 55 55l0 126c0 5-4 9-9 9z m196-13l0 5c0 95-83 173-187 177l0 40c0 5-4 9-9 9-5 0-9-4-9-9l0-48c0-5 4-9 9-9 0 0 0 0 0 0 89 0 163-59 176-135-11 8-26 15-47 15-32 0-50-14-59-27-10 12-31 27-71 27-39 0-59-15-69-27-10 13-29 27-60 27-21 0-36-6-46-15 11 66 68 119 142 132 5 1 8 5 8 10-1 5-6 8-11 8-92-16-159-90-159-175l0-5c0-1 0-1 0-1 0-1 0-2 0-3 0 0 0 0 1 0 1-3 3-5 6-6 5-1 9 2 10 7 0 0 7 30 49 30 39 0 49-24 50-29 1-3 3-6 6-7 0 0 0 0 0 0 0 0 1-1 1-1 0 0 0 0 1 0 0 0 1 0 1 0 0 0 1 0 1 0 0 0 0 0 1 0 0 0 0 0 0 0 1 1 1 1 2 1 0 0 0 0 1 0 2 2 4 4 4 7 2 5 14 29 61 29 53 0 63-29 63-31 0 0 1 0 1 0 0-1 1-3 2-4 0 0 0 0 1 0 1-1 2-1 3-2 0 0 1 0 1 0 0 0 1 0 1 0 0 0 1 0 1 0 0 0 1 0 1 0 0 0 0 0 0 1 1 0 1 0 1 0 1 0 1 1 2 1 0 0 1 1 1 1 1 0 1 1 1 2 1 0 1 0 1 1 0 0 0 1 1 1 0 0 6 30 49 30 41 0 49-29 50-30 0 0 0 0 0-1 0 0 0 0 0 0 2-4 5-6 8-6 1 0 2 0 3 0 4 1 7 6 6 10z"/>
<glyph unicode="&#78;" d="M443 280l-17 0 0 37c0 24-20 43-44 43l-279 0c-24 0-43-19-43-43l0-208c0-23 19-43 43-43l279 0c24 0 44 20 44 43l0 39 17 0c5 0 9 4 9 10l0 113c0 5-4 9-9 9z m-9-113l-18 0c-5 0-9-4-9-9 0 0 0 0 0-1l0-48c0-13-11-24-25-24l-279 0c-14 0-25 11-25 24l0 208c0 13 11 24 25 24l279 0c14 0 25-11 25-24l0-37-117 0c-23 0-43-19-43-43l0-45c0-24 20-44 43-44l86 0c5 0 9 5 9 10 0 5-4 9-9 9l-86 0c-13 0-24 11-24 25l0 45c0 14 11 25 24 25l144 0z m-114 49c0-7-6-13-13-13-7 0-12 6-12 13 0 7 5 12 12 12 7 0 13-5 13-12z m-95 164l93 44 18-39c2-4 5-6 9-6 1 0 2 0 4 1 4 2 6 8 4 13l-22 47c-1 3-3 4-5 5-3 1-5 1-7 0l-102-48c-5-2-7-8-5-12 2-5 8-7 13-5z"/>
<glyph unicode="&#79;" d="M303 256c53 0 96 43 96 96 0 54-43 97-96 97l-122 0c-7 0-12-6-12-13 0 0 0 0 0 0l0-155-44 0c-7 0-12-6-12-13 0-7 5-12 12-12l44 0 0-57-44 0c-7 0-12-6-12-12 0-7 5-13 12-13l44 0 0-98c0-7 5-13 12-13 7 0 12 6 12 13l0 98 106 0c7 0 13 6 13 13 0 6-6 12-13 12l-106 0 0 57z m-110 168l110 0c40 0 72-32 72-72 0-39-32-71-72-71l-110 0z"/>
<glyph unicode="&#80;" d="M454 139c-4 19-20 37-48 53-50 30-82 34-98 13-3-5-7-10-9-12-7-2-35-5-73 33-10 10-19 20-24 31-5 8-8 16-9 24-2 9-1 15 0 18 3 2 7 6 12 9 21 16 17 47-13 98-16 28-34 44-53 47-16 3-27-3-30-6-3-1-13-7-23-14-23-15-26-29-26-32 0 0 0 0 0 0-3-12-20-118 101-238 91-92 175-105 216-105 15 0 24 2 26 2 0 0 0 0 0 0 4 1 17 5 30 25 7 10 13 21 14 24 3 3 9 14 7 30z m-24-17c0-1-1-2-1-2 0 0-7-12-14-23-9-13-16-16-16-16-1 0-1 0-1 0 0 0 0 0 0 0-1 0-105-20-222 97-117 117-95 219-95 220 0 0 0 0 0 0 0 0 0 0 0 0 0 0 2 8 17 17 10 7 22 14 22 14 1 0 1 0 2 1 0 0 5 4 13 2 9-1 22-9 38-37 11-17 33-59 19-70-8-6-15-12-15-12-2-1-3-2-3-4-1-1-6-13-2-32 1-10 5-20 11-31 7-12 16-24 28-36 55-55 97-37 99-36 1 0 3 1 4 3 0 0 6 7 11 15 11 14 53-9 71-19 27-16 35-29 36-38 2-8-2-13-2-13z"/>
<glyph unicode="&#81;" d="M378 167c-4 50-38 93-86 107l0 16c13 8 25 21 32 37 16 3 28 20 28 41 0 18-9 33-23 39-12 35-41 59-73 59-32 0-61-24-73-59-14-6-23-21-23-39 0-21 12-38 28-41 7-16 19-29 32-37l0-16c-48-14-82-57-86-107 0-1 0-3 0-4l0-95c0-12 10-22 22-22l146 0c5 0 9 4 9 9 0 5-4 10-9 10l-146 0c-2 0-3 1-3 3l0 96c0 0 0 1 0 1 3 41 29 75 66 89l23-13-15-14c-2-2-3-6-2-10l8-20-16-84c-1-3 1-7 4-9l30-22c0 0 0 0 0 0 2-1 3-1 5-1 0 0 0 0 0 0 0 0 0 0 0 0 0 0 1 0 1 0 1 0 1 0 2 0 1 1 2 1 3 2l29 21c3 2 5 6 4 9l-16 84 8 20c1 4 0 8-2 10l-14 14 22 13c37-14 63-48 66-89 0 0 0-2 0-2l0-95c0-2-1-3-3-3l-9 0c-5 0-10-5-10-10 0-5 5-9 10-9l9 0c12 0 22 10 22 22l0 95c0 1 0 3 0 4z m-175 172c-2 4-5 6-9 6 0 0 0 0-1 0-8 0-15 11-15 23 0 11 6 21 14 22 4 1 7 3 8 7 8 30 31 50 56 50 25 0 48-20 56-50 1-4 4-7 8-7 8-1 14-11 14-22 0-12-7-23-15-23-1 0-1 0-1 0-4 0-7-2-9-6-6-16-17-29-31-36-3-2-5-5-4-9l0-27c0-1 0-2 0-3l-18-10-18 10c0 1 0 2 0 3l0 26c1 4-1 8-4 10-14 7-25 20-31 36z m60-132l-14 0-4 11 11 11 12-11z m-7-106l-20 15 14 73 12 0 14-73z"/>
<glyph unicode="&#82;" d="M183 277c0-6-6-12-12-12-7 0-13 6-13 12 0 7 6 12 13 12 6 0 12-5 12-12z m171 0c0-6-6-12-13-12-6 0-12 6-12 12 0 7 6 12 12 12 7 0 13-5 13-12z m-110-139c0-6 5-12 12-12 7 0 12 6 12 12 0 7-5 12-12 12-7 0-12-5-12-12z m107 46c-50 33-50 50-50 60l0 2c0 8 4 13 4 13 0 0 0 0 0 0 10 10 19 22 26 39 14 5 27 23 30 37 4 12 2 24-5 33-3 4-6 6-9 8-1 1-1 3-1 4-3 24-6 49-25 66-11 10-24 11-30 10-6 4-16 10-31 10-13 0-32-4-43-9-26-13-45-42-51-81-4-1-8-4-10-8-7-8-9-21-6-33 4-14 17-32 31-37 8-17 16-30 26-39 0-1 4-5 4-13l0-2c0-10 1-27-50-60-68-43-66-126-66-129 0-5 4-9 9-9l236 0c5 0 10 4 10 9 0 5-4 9-10 9l-226 0c1 21 10 75 57 105 6 4 13 8 18 12l39-33c2-1 4-2 6-2 2 0 5 1 7 4 3 3 3 9-1 12l-37 31c24 21 27 37 26 50 9-3 17-5 27-5 10 0 18 2 27 6 0-14 2-29 25-51l-36-31c-4-3-4-9-1-12 2-3 4-4 7-4 2 0 4 1 6 2l39 33c5-4 12-8 19-12 46-30 54-84 56-105l-13 0c-5 0-9-4-9-9 0-5 4-9 9-9l23 0c5 0 9 4 9 9 0 3 2 86-66 129z m-130 86c0 0 0 0 0 0 0 0 0 0 0 1-9 8-18 21-25 39-2 3-5 5-9 5-4 1-15 13-19 25-2 7 0 14 2 17 1 1 2 3 4 3 4 0 8 3 9 8 4 35 20 61 42 72 8 4 24 8 35 8 13 0 21-8 21-8 3-2 6-3 9-2 0 0 1 0 3 0 4 0 10-1 16-6 14-12 16-32 19-54 0-3 1-7 1-10 1-5 5-8 9-8 1 0 2-1 3-3 3-3 5-10 3-17-4-13-16-25-20-25-3 0-7-2-8-5-16-37-35-54-60-54-13 0-25 5-35 14z m96 88c5 1 9 5 8 10-1 5-6 9-11 8-7-1-31-2-47 7-19 12-20 26-20 27 0 3-2 6-5 8-3 1-7 1-9-1-1-1-24-18-33-41-4-10-4-23-2-32l-1 0c-5 2-10-1-12-6-2-5 1-10 6-12l17-5c1 0 2 0 3 0 2 0 5 1 7 2 2 3 3 7 1 10-2 6-7 24-2 37 4 9 11 17 16 23 4-8 11-18 25-25 24-15 58-10 59-10z"/>
<glyph unicode="&#83;" d="M80 145c5-1 9-2 14-2l324 0c5 0 9 1 13 2 8 4 15 10 18 19 2 4 3 8 3 13l0 207c0 19-15 34-34 34l-324 0c-19 0-34-15-34-34l0-207c0-5 1-9 2-13 4-9 10-15 18-19z m-4 239c0 10 8 18 18 18l324 0c10 0 18-8 18-18l0-207c0-3 0-5-1-7-2-4-6-8-10-10-2-1-5-1-7-1l-324 0c-3 0-5 0-7 1-4 2-8 6-10 10-1 2-1 4-1 7z m368-274l-376 0c-5 0-8-4-8-8 0-5 3-8 8-8l376 0c5 0 8 3 8 8 0 4-3 8-8 8z m-315 224c3 0 6 1 7 4l7 10 0-119c0-5 1-9 2-14 4-8 10-14 19-18 4-1 8-2 13-2l163 0-10-7c-4-3-5-7-2-11 1-2 4-4 6-4 2 0 4 1 5 2l32 21c0 0 0 0 0 1 1 0 1 0 1 1 0 0 0 0 0 0 1 0 1 0 1 0 0 0 0 0 0 0 0 0 0 1 0 1 0 0 1 1 1 2 0 0 0 0 0 0 0 0 0 0 0 0 0 0 0 1 0 1 0 0 0 0 0 1 0 0 0 0 0 1 0 0 0 1 0 1 0 1-1 1-1 2 0 0 0 0 0 0 0 0 0 0 0 0 0 0-1 1-1 1 0 0 0 1-1 1 0 0 0 0 0 0l0 0c0 0 0 0 0 0l-32 22c-4 2-9 1-11-2-3-4-2-9 2-12l10-6-163 0c-3 0-5 0-7 1-4 2-8 5-10 10-1 2-1 4-1 7l0 119 7-10c1-3 4-4 6-4 2 0 3 1 5 1 3 3 4 8 2 12l-21 31c-1 1-1 1-1 1 0 0-1 1-1 1-1 0-1 1-2 1 0 0 0 0-1 1 0 0-1 0-1 0-1 0-1 0-1 0 0 0-1 0-1 0 0 0-1 0-1 0-1-1-2-1-2-1 0 0 0 0-1 0 0 0 0 0 0 0 0-1 0-1 0-1-1 0-1-1-1-1-1 0-1 0-1-1l-21-31c-3-4-2-9 2-12 1 0 3-1 4-1z m50-102c1-3 4-4 7-4 1 0 2 0 4 1l23 13c4-3 9-4 13-4 14 0 25 10 25 24 0 5-2 10-5 14l24 31c3-2 6-2 10-2 7 0 13 3 18 8l28-10c1-13 11-23 24-23 14 0 24 11 24 24 0 14-11 24-24 24-8 0-15-3-19-9l-27 10c0 0 0 0 0 0 0 13-11 24-24 24-14 0-25-11-25-24 0-4 2-8 3-12l-26-32c-1 0-3 1-6 1-13 0-24-11-24-24 0-3 1-5 2-7l-22-12c-4-2-5-7-3-11z m171 80c5 0 8-3 8-8 0-4-3-8-8-8-4 0-8 4-8 8 0 5 4 8 8 8z m-70 25c4 0 7-4 7-8 0-5-3-8-7-8-5 0-8 3-8 8 0 4 3 8 8 8z m-54-67c5 0 8-4 8-8 0-5-3-8-8-8-4 0-7 3-7 8 0 4 3 8 7 8z"/>
<glyph unicode="&#84;" d="M223 231c0 39-32 71-72 71-39 0-71-32-71-71 0-40 32-72 71-72 40 0 72 32 72 72z m-72-56c-30 0-55 25-55 56 0 30 25 55 55 55 31 0 56-25 56-55 0-31-25-56-56-56z m280 196l-24 0 0 34c0 12-9 21-21 21l-254 0c-11 0-21-9-21-21l0-90c0-4 4-8 8-8 4 0 8 4 8 8l0 90c0 3 2 5 5 5l254 0c3 0 5-2 5-5l0-34-214 0c-11 0-21-10-21-21l0-27c0-5 4-8 8-8 4 0 8 3 8 8l0 27c0 3 2 5 5 5l254 0c3 0 5-2 5-5l0-141c0 0 0-1 0-2-1-1-2-2-3-2-1-1-1-1-2-1l-193 0c-5 0-8-3-8-8 0-4 3-8 8-8l193 0c3 0 6 1 8 2 5 2 9 6 12 11 1 3 1 6 1 8l0 141c0 11-9 21-21 21z m-213-205c-2 4-6 6-10 4-4-2-6-7-4-11l14-28-13 6c0 0 0 0-1 1 0 0 0 0-1 0 0 0 0 0 0 0-1 0-1 0-2 0 0 0-1 0-1 0-1 0-1-1-2-1 0 0-1 0-1-1-1 0-1 0-1 0-1-1-1-1-1-2 0 0 0 0-1 0 0-1 0-1 0-1 0-1 0-1 0-1l-3-14-14 28c-2 4-6 6-10 4-4-2-6-7-4-10l24-50c1-2 4-4 7-4 0 0 0 0 1 0 3 0 6 3 7 6l5 26 24-12c1 0 3 0 4 0 2 0 4 0 5 2 3 2 3 6 2 9z m-82-16c-4 2-9 0-11-4l-13-28-3 14c0 0-1 0-1 1 0 0 0 0 0 1 0 0 0 0 0 0-1 1-1 1-1 1-1 1-1 1-1 2-1 0-1 0-2 0 0 0-1 1-1 1-1 0-1 0-1 0-1 0-2 0-2 0 0 0-1 0-1 0 0 0 0 0-1 0 0-1 0-1-1-1l-12-6 14 28c1 4 0 9-4 11-4 2-9 0-11-4l-23-49c-2-3-1-7 1-9 2-2 4-2 6-2 1 0 2 0 3 0l24 12 6-26c1-3 3-6 7-6 0 0 0 0 1 0 3 0 6 2 7 4l24 50c1 4 0 8-4 10z m142 120c-4 0-8-4-8-8 0-4 4-8 8-8l4 0 0-13c0-5 4-8 8-8 4 0 8 3 8 8l0 13 11 0c4 0 8 4 8 8 0 4-4 8-8 8l-11 0 0 8 16 0c13 0 24 10 24 24 0 13-11 24-24 24l-24 0c-4 0-8-3-8-8l0-25-4 0c-4 0-8-3-8-8 0-4 4-7 8-7l4 0 0-8-4 0z m20 40l16 0c4 0 8-3 8-8 0-5-4-9-8-9l-16 0z"/>
<glyph unicode="&#85;" d="M256 60c-108 0-196 88-196 196 0 108 88 196 196 196 108 0 196-88 196-196 0-108-88-196-196-196m0 372c-97 0-176-79-176-176 0-97 79-176 176-176 97 0 176 79 176 176 0 97-79 176-176 176m0-61c-6 0-10 5-10 10l0 26c0 5 4 10 10 10 5 0 10-5 10-10l0-26c0-5-5-10-10-10m0-276c-6 0-10 4-10 10l0 26c0 5 4 10 10 10 5 0 10-5 10-10l0-26c0-6-5-10-10-10m151 151l-26 0c-5 0-10 4-10 10 0 6 5 10 10 10l26 0c5 0 10-4 10-10 0-6-5-10-10-10m-276 0l-26 0c-5 0-10 4-10 10 0 6 5 10 10 10l26 0c5 0 10-4 10-10 0-6-5-10-10-10m125-34c-2 0-4 0-6 2l-74 59c-4 4-5 10-1 14 3 5 9 5 14 2l66-53 81 100c3 4 9 5 14 1 4-3 5-10 1-14l-87-108c-2-2-4-3-7-3 0 0 0 0-1 0"/>
<glyph unicode="&#86;" d="M339 282l-125 0c-4 0-8-4-8-8 0-5 4-9 8-9l125 0c5 0 9 4 9 9 0 4-4 8-9 8z m50 127l-9 0 0 15c0 17-13 30-31 30l-166 0c-3 0-5-1-6-2l-83-82c-1-2-2-4-2-6l0-230c0-18 12-30 30-30l10 0 0-14c0-18 12-31 30-31l227 0c18 0 30 13 30 31l0 289c0 18-12 30-30 30z m-26 15l0-15-140 0c-3 0-5 0-6-2l-26-26c0 2 0 3 0 4l0 52 158 0c12 0 14-9 14-13z m-202-52l-41 0 54 53 0-40c0-12-9-13-13-13z m53 8l0-39c0-13-9-14-14-14l-40 0z m-92-259c-6 0-13 3-13 13l0 221 52 0c1 0 2 0 3 0l-30-30c-2-2-2-4-2-6l0-198z m280-31c0-7-3-14-13-14l-227 0c-7 0-13 4-13 14l0 220 51 0c18 0 31 13 31 31l0 51 158 0c12 0 13-9 13-13l0-289z m-66 111l-122 0c-4 0-8-4-8-9 0-4 4-8 8-8l122 0c5 0 8 4 8 8 0 5-3 9-8 9z m3 40l-125 0c-4 0-8-3-8-8 0-5 4-9 8-9l125 0c4 0 8 4 8 9 0 5-4 8-8 8z m-48-83l-77 0c-4 0-8-4-8-8 0-5 4-9 8-9l77 0c5 0 9 4 9 9 0 4-4 8-9 8z"/>
<glyph unicode="&#87;" d="M267 364c0 0-1 1-1 1 0 1 0 1 0 1 0 1 0 1-1 1 0 1 0 1-1 1 0 1 0 1 0 1 0 0 0 0-1 0 0 0 0 1-1 1 0 0-1 0-1 0 0 0-1 0-1 0 0 0 0 0 0 0-1 0-1 0-2 0 0 0 0 0-1 0 0-1-1-1-1-1 0 0-1-1-1-1 0 0 0 0 0 0l-48-59c-2-2-2-7 1-9 3-2 7-2 9 1l36 44 0-197c0-4 3-7 7-7 4 0 7 3 7 7l0 216c0 0 0 0 0 0m-11-304c-108 0-196 88-196 196 0 108 88 196 196 196 108 0 196-88 196-196 0-108-88-196-196-196z m0 387c-105 0-191-86-191-191 0-105 86-191 191-191 105 0 191 86 191 191 0 105-86 191-191 191z"/>
<glyph unicode="&#88;" d="M256 60c-108 0-196 88-196 196 0 108 88 196 196 196 108 0 196-88 196-196 0-108-88-196-196-196z m0 387c-105 0-191-86-191-191 0-105 86-191 191-191 105 0 191 86 191 191 0 105-86 191-191 191z m79-285c0 4-3 7-7 7 0 0 0 0 0 0l-112 0 0 1 54 55c19 19 32 35 39 48 7 13 10 27 10 40 0 18-5 31-16 41-10 10-24 14-43 14-21 0-41-7-58-22l0 0c-1-1-2-3-2-4 0-4 3-7 6-7 2 0 3 1 4 1l0 0c0 0 0 1 0 1 0 0 1 0 1 0 15 12 32 18 49 18 13 0 24-3 32-11 8-8 12-18 12-31 0-9-1-17-4-25-3-8-8-16-14-24-6-9-17-21-33-38l-56-58 0 0c-2-1-3-3-3-6 0-3 3-6 6-7 0 0 0 0 1 0l127 0 0 0c4 0 7 4 7 7"/>
<glyph unicode="&#89;" d="M146 0c-10 0-10 0-21 10-10 11-10 21 0 32l209 209-209 209c-10 21-10 31 0 42 11 10 32 10 42 0l230-230c11-11 11-32 0-42l-240-220c0-10-11-10-11-10z"/>
<glyph unicode="&#90;" d="M512 136c0-11 0-11-10-21-11-11-32-11-42 0l-209 209-209-209c-11-11-32-11-42 0-10 10 0 31 10 42l230 230c11 10 21 10 32 0l230-230c10 0 10-11 10-21z"/>
<glyph unicode="&#48;" d="M512 366c0 10 0 10-10 21-11 10-21 10-32 0l-209-209-209 209c-21 10-31 10-42 0-10-11-10-21 0-32l230-230c11-10 32-10 42 0l230 230c0 0 0 11 0 11z"/>
<glyph unicode="&#49;" d="M376 0c11 0 11 0 21 10 11 11 11 32 0 42l-209 209 209 209c11 11 11 32 0 42-10 10-31 0-42-10l-230-230c-10-11-10-21 0-32l230-230c0-10 11-10 21-10z"/>
<glyph unicode="&#50;" d="M512 407l-110 105-146-151-151 151-105-105 151-151-151-146 105-110 151 151 146-151 110 110-151 146z"/>
</font>
</defs>
</svg>
