<?xml version="1.0" standalone="no"?>
<!DOCTYPE svg PUBLIC "-//W3C//DTD SVG 1.1//EN" "http://www.w3.org/Graphics/SVG/1.1/DTD/svg11.dtd" >
<svg xmlns="http://www.w3.org/2000/svg" xmlns:xlink="http://www.w3.org/1999/xlink" version="1.1">
<metadata>
Created by FontForge 20141024 at Sat May 30 15:22:47 2015
 By System Administrator
Copyright 2010-2012 \251 Canada Type. All rights reserved. Marvin is a trade mark of Canada Type.
</metadata>
<defs>
<font id="Marvin-Round" horiz-adv-x="731" >
  <font-face 
    font-family="Marvin"
    font-weight="500"
    font-stretch="normal"
    units-per-em="1000"
    panose-1="2 0 0 0 0 0 0 0 0 0"
    ascent="800"
    descent="-200"
    x-height="728"
    cap-height="731"
    bbox="-139.556 -334.76 1583.29 1313"
    underline-thickness="50"
    underline-position="-50"
    unicode-range="U+000D-FB04"
  />
<missing-glyph horiz-adv-x="754" 
d="M705 668l-9 -567c-3 -80 -21 -100 -102 -100l-444 -1c-81 0 -99 20 -102 100l-9 567c-3 80 18 100 98 100l470 1c80 0 101 -20 98 -100zM172 107l400 1l9 551h-418zM320 287c-44 0 -78 20 -78 51c0 68 149 63 149 112c0 40 -37 51 -74 51c-11 0 -21 -1 -32 -2
c-25 -3 -29 1 -32 26l-2 43c-3 31 7 40 38 43c13 1 27 2 42 2c112 0 206 -40 206 -115c0 -131 -165 -94 -165 -141c0 -5 3 -7 10 -7c3 0 7 1 11 2c7 3 8 2 9 -5l1 -15c3 -17 -2 -23 -17 -30c-23 -10 -45 -15 -66 -15zM320 135c-32 0 -64 27 -64 64c0 35 28 65 64 65
c33 0 63 -25 63 -64c0 -33 -24 -65 -63 -65z" />
    <glyph glyph-name="ff" unicode="FF" horiz-adv-x="1042" 
d="M243 271l-7 -192c-3 -80 -22 -103 -104 -108c-79 -5 -100 13 -97 93l14 587c3 79 23 100 103 97l273 -8c72 -3 93 -20 93 -94c0 -72 -15 -90 -86 -87l-175 6l-6 -136l122 -4c64 -3 81 -19 78 -84s-21 -82 -84 -77zM764 271l-7 -192c-3 -80 -22 -103 -104 -108
c-79 -5 -100 13 -97 93l14 587c3 79 23 100 103 97l273 -8c72 -3 93 -20 93 -94c0 -72 -15 -90 -86 -87l-175 6l-6 -136l122 -4c64 -3 81 -19 78 -84s-21 -82 -84 -77z" />
    <glyph glyph-name="fi" unicode="FI" horiz-adv-x="845" 
d="M243 271l-7 -192c-3 -80 -22 -103 -104 -108c-79 -5 -100 13 -97 93l14 587c3 79 23 100 103 97l273 -8c72 -3 93 -20 93 -94c0 -72 -15 -90 -86 -87l-175 6l-6 -136l122 -4c64 -3 81 -19 78 -84s-21 -82 -84 -77zM808 650l-14 -575c-3 -81 -21 -101 -102 -104l-31 -1
c-80 -3 -101 16 -98 96l12 580c3 81 21 102 102 102h33c80 0 101 -18 98 -98z" />
    <glyph glyph-name="fl" unicode="FL" horiz-adv-x="1075" 
d="M243 271l-7 -192c-3 -80 -22 -103 -104 -108c-79 -5 -100 13 -97 93l14 587c3 79 23 100 103 97l273 -8c72 -3 93 -20 93 -94c0 -72 -15 -90 -86 -87l-175 6l-6 -136l122 -4c64 -3 81 -19 78 -84s-21 -82 -84 -77zM1060 145l2 -42c3 -81 -16 -102 -98 -107l-267 -19
c-79 -5 -102 13 -105 93l-27 579c-5 80 16 104 95 104h28c81 0 99 -17 99 -96l-5 -447l177 22c80 11 96 -8 101 -87z" />
    <glyph glyph-name="ffi" unicode="FFI" horiz-adv-x="1366" 
d="M243 271l-7 -192c-3 -80 -22 -103 -104 -108c-79 -5 -100 13 -97 93l14 587c3 79 23 100 103 97l273 -8c72 -3 93 -20 93 -94c0 -72 -15 -90 -86 -87l-175 6l-6 -136l122 -4c64 -3 81 -19 78 -84s-21 -82 -84 -77zM764 271l-7 -192c-3 -80 -22 -103 -104 -108
c-79 -5 -100 13 -97 93l14 587c3 79 23 100 103 97l273 -8c72 -3 93 -20 93 -94c0 -72 -15 -90 -86 -87l-175 6l-6 -136l122 -4c64 -3 81 -19 78 -84s-21 -82 -84 -77zM1329 650l-14 -575c-3 -81 -21 -101 -102 -104l-31 -1c-80 -3 -101 16 -98 96l12 580
c3 81 21 102 102 102h33c80 0 101 -18 98 -98z" />
    <glyph glyph-name="ffl" unicode="FFL" horiz-adv-x="1596" 
d="M243 271l-7 -192c-3 -80 -22 -103 -104 -108c-79 -5 -100 13 -97 93l14 587c3 79 23 100 103 97l273 -8c72 -3 93 -20 93 -94c0 -72 -15 -90 -86 -87l-175 6l-6 -136l122 -4c64 -3 81 -19 78 -84s-21 -82 -84 -77zM764 271l-7 -192c-3 -80 -22 -103 -104 -108
c-79 -5 -100 13 -97 93l14 587c3 79 23 100 103 97l273 -8c72 -3 93 -20 93 -94c0 -72 -15 -90 -86 -87l-175 6l-6 -136l122 -4c64 -3 81 -19 78 -84s-21 -82 -84 -77zM1581 145l2 -42c3 -81 -16 -102 -98 -107l-267 -19c-79 -5 -102 13 -105 93l-27 579
c-5 80 16 104 95 104h28c81 0 99 -17 99 -96l-5 -447l177 22c80 11 96 -8 101 -87z" />
    <glyph glyph-name="T_T" unicode="TT" horiz-adv-x="990" 
d="M838 544l-27 -481c-5 -80 -26 -98 -106 -90l-10 1c-81 8 -99 29 -99 110l4 458l-180 -6l-26 -470c-5 -80 -24 -98 -105 -90l-10 1c-81 8 -99 29 -99 110l2 439l-77 -2c-69 -3 -87 15 -95 86c-8 70 9 86 77 91l810 43c79 3 100 -14 100 -96c0 -81 -19 -99 -99 -102z" />
    <glyph glyph-name="f_t" unicode="FT" horiz-adv-x="932" 
d="M777 561l-27 -479c-5 -80 -26 -98 -106 -90l-10 1c-81 8 -99 29 -99 110l4 448l-282 14l-6 -136l122 -4c65 -3 80 -18 77 -85c-3 -63 -19 -81 -83 -76l-124 7l-7 -192c-3 -80 -22 -103 -104 -108c-79 -5 -100 13 -97 93l14 587c3 80 23 100 103 100l694 -3
c72 0 90 -17 90 -91c0 -72 -17 -90 -89 -93z" />
    <glyph glyph-name=".notdef" horiz-adv-x="754" 
d="M705 668l-9 -567c-3 -80 -21 -100 -102 -100l-444 -1c-81 0 -99 20 -102 100l-9 567c-3 80 18 100 98 100l470 1c80 0 101 -20 98 -100zM172 107l400 1l9 551h-418zM320 287c-44 0 -78 20 -78 51c0 68 149 63 149 112c0 40 -37 51 -74 51c-11 0 -21 -1 -32 -2
c-25 -3 -29 1 -32 26l-2 43c-3 31 7 40 38 43c13 1 27 2 42 2c112 0 206 -40 206 -115c0 -131 -165 -94 -165 -141c0 -5 3 -7 10 -7c3 0 7 1 11 2c7 3 8 2 9 -5l1 -15c3 -17 -2 -23 -17 -30c-23 -10 -45 -15 -66 -15zM320 135c-32 0 -64 27 -64 64c0 35 28 65 64 65
c33 0 63 -25 63 -64c0 -33 -24 -65 -63 -65z" />
    <glyph glyph-name="_1" horiz-adv-x="0" 
 />
    <glyph glyph-name="CR" unicode="&#xd;" horiz-adv-x="400" 
 />
    <glyph glyph-name="NULL" horiz-adv-x="0" 
 />
    <glyph glyph-name="NULL" horiz-adv-x="0" 
 />
    <glyph glyph-name="space" unicode=" " horiz-adv-x="400" 
 />
    <glyph glyph-name="exclam" unicode="!" horiz-adv-x="401" 
d="M359 626l-71 -293c-19 -72 -40 -88 -115 -72c-74 16 -91 35 -86 111l17 293c5 81 26 96 105 85l74 -12c79 -13 95 -34 76 -112zM146 -17c-56 0 -109 46 -109 110c0 60 48 112 108 112c56 0 109 -47 109 -111c0 -56 -44 -111 -108 -111z" />
    <glyph glyph-name="quotedbl" unicode="&#x22;" horiz-adv-x="418" 
d="M395 681l-12 -131c-4 -47 -17 -56 -65 -49c-47 7 -61 20 -66 67l-12 93c-8 68 4 89 76 97c68 8 86 -9 79 -77zM185 681l-12 -131c-4 -47 -16 -56 -63 -49c-49 8 -63 19 -68 67l-12 93c-8 68 4 89 76 97c68 8 86 -9 79 -77z" />
    <glyph glyph-name="numbersign" unicode="#" horiz-adv-x="1148" 
d="M700 650l-53 -602c-5 -46 -14 -57 -62 -68c-45 -8 -63 -3 -87 37l-242 376l14 -304c3 -79 -17 -98 -95 -90l-16 2c-81 8 -99 29 -102 110l-12 477c-3 80 15 106 95 119l37 6c80 13 106 3 144 -70l152 -288l-11 281c-3 80 16 103 96 106l51 2c78 3 99 -15 91 -94zM926 285
c-118 0 -187 88 -187 196c0 104 82 182 181 182c101 0 194 -71 194 -186c0 -100 -68 -192 -188 -192zM927 421c36 0 56 31 56 62c0 40 -21 67 -56 67c-41 0 -62 -30 -62 -61c0 -40 25 -68 62 -68zM1013 55l-154 -7c-63 -3 -81 11 -86 76c-5 64 8 82 71 90l154 22
c74 11 96 -7 101 -82c5 -74 -10 -96 -86 -99z" />
    <glyph glyph-name="dollar" unicode="$" horiz-adv-x="588" 
d="M303 66l-1 -24c-1 -28 -8 -34 -37 -27c-28 7 -34 14 -35 43v11c-57 7 -111 22 -154 49s-47 51 -15 94c34 48 49 51 104 27c35 -15 69 -22 100 -22c60 0 100 24 100 67c0 95 -312 22 -312 204c0 104 77 153 169 169v10c-1 41 8 51 49 58c40 7 51 -2 50 -41l-1 -19
c24 0 47 -1 70 -4c53 -5 65 -22 65 -75c0 -55 -13 -65 -68 -54c-23 4 -46 7 -69 7c-47 0 -84 -10 -84 -45c0 -77 323 33 323 -221c0 -136 -123 -202 -254 -207z" />
    <glyph glyph-name="percent" unicode="%" horiz-adv-x="1010" 
d="M404 537c0 -117 -56 -246 -196 -246c-118 0 -191 114 -191 258c0 130 75 237 195 237s192 -111 192 -249zM754 649l-373 -636c-29 -53 -50 -55 -100 -19c-48 35 -55 57 -23 110l368 624c30 51 51 55 103 24c49 -31 58 -51 25 -103zM210 428c59 0 78 68 78 120
c0 56 -27 83 -62 83c-55 0 -85 -43 -85 -107c0 -44 15 -96 69 -96zM791 -44c-118 0 -191 114 -191 258c0 130 75 237 195 237s192 -111 192 -249c0 -117 -56 -246 -196 -246zM793 93c59 0 78 68 78 120c0 56 -27 83 -62 83c-55 0 -85 -43 -85 -107c0 -44 15 -96 69 -96z" />
    <glyph glyph-name="ampersand" unicode="&#x26;" horiz-adv-x="766" 
d="M494 243l160 7c64 3 81 -14 78 -79v-11c-3 -60 -20 -87 -73 -114c-92 -47 -187 -65 -278 -65c-192 0 -352 88 -352 200c0 125 109 151 219 175c-120 47 -174 107 -174 164c0 89 134 170 372 170c30 0 61 -1 92 -3c65 -5 83 -22 96 -86l1 -4c11 -61 -4 -76 -65 -65
c-60 11 -116 18 -161 18c-64 0 -108 -15 -108 -55s56 -53 135 -53c35 0 70 2 105 6c67 8 84 -8 87 -75l2 -54c1 -24 -5 -29 -29 -29c-147 0 -304 -14 -304 -107c0 -51 37 -70 89 -70c23 0 48 2 81 11c-23 7 -28 13 -28 40c0 7 0 14 1 25c3 43 11 51 54 54z" />
    <glyph glyph-name="quotesingle" unicode="'" horiz-adv-x="208" 
d="M185 681l-12 -131c-4 -47 -17 -56 -65 -49c-47 8 -70 19 -78 160c-5 69 6 89 76 97c68 8 86 -9 79 -77z" />
    <glyph glyph-name="parenleft" unicode="(" horiz-adv-x="450" 
d="M382 4c-33 -57 -63 -64 -116 -31c-131 83 -235 252 -235 418c0 133 58 266 190 365c60 45 92 39 132 -25c45 -71 42 -93 -24 -148c-73 -64 -109 -137 -109 -213c0 -87 47 -173 136 -241c59 -45 63 -61 26 -125z" />
    <glyph glyph-name="parenright" unicode=")" horiz-adv-x="450" 
d="M184 -27c-53 -33 -82 -27 -114 28c-38 68 -35 82 24 128c89 68 136 154 136 241c0 76 -36 149 -109 213c-66 55 -69 77 -24 149c40 64 72 69 132 24c132 -99 190 -232 190 -365c0 -166 -104 -335 -235 -418z" />
    <glyph glyph-name="asterisk" unicode="*" horiz-adv-x="572" 
d="M420 479l53 -49c45 -40 43 -63 -4 -102c-48 -40 -70 -35 -109 11l-62 75l-26 -65c-29 -74 -54 -85 -127 -50c-70 32 -75 58 -27 117l27 32l-54 21c-65 24 -73 47 -43 111c29 64 52 69 111 34l54 -33l-14 64c-16 67 0 88 71 93c69 5 86 -13 77 -81l-8 -59l63 34
c61 34 86 26 118 -37c32 -60 22 -83 -43 -100z" />
    <glyph glyph-name="plus" unicode="+" horiz-adv-x="463" 
d="M342 262v-42c0 -72 -16 -90 -89 -90c-75 0 -93 16 -98 89l-3 35l-64 -2c-53 -3 -64 11 -67 64c-3 51 12 67 64 67l60 1l-1 26c-5 80 12 103 95 108c79 5 101 -13 101 -93v-37h44c49 1 60 -10 56 -61c-3 -51 -15 -61 -65 -64z" />
    <glyph glyph-name="comma" unicode="," horiz-adv-x="292" 
d="M233 68l-41 -95c-22 -50 -37 -61 -91 -69c-52 -7 -65 6 -54 55l24 124c13 72 33 85 108 77c69 -8 81 -29 54 -92z" />
    <glyph glyph-name="hyphen" unicode="-" horiz-adv-x="404" 
d="M361 341c5 -76 -10 -97 -86 -100l-154 -7c-63 -3 -81 11 -86 76c-5 64 8 82 71 90l154 22c74 11 96 -7 101 -81z" />
    <glyph glyph-name="period" unicode="." horiz-adv-x="317" 
d="M267 86c0 -56 -44 -111 -108 -111c-56 0 -109 46 -109 110c0 60 48 112 108 112c56 0 109 -47 109 -111z" />
    <glyph glyph-name="slash" unicode="/" horiz-adv-x="565" 
d="M533 627l-352 -601c-37 -60 -61 -68 -117 -22l-2 2c-59 45 -63 72 -28 136l318 598c37 69 63 78 132 35l15 -9c68 -44 75 -69 34 -139z" />
    <glyph glyph-name="zero" unicode="0" horiz-adv-x="668" 
d="M653 362c0 -187 -86 -392 -313 -392c-189 0 -305 183 -305 412c0 207 122 378 311 378c192 0 307 -179 307 -398zM343 189c93 0 125 107 125 191c0 88 -43 132 -99 132c-87 0 -136 -68 -136 -171c0 -69 24 -152 110 -152z" />
    <glyph glyph-name="one" unicode="1" horiz-adv-x="453" 
d="M405 599l-19 -529c-3 -79 -23 -100 -107 -97c-81 3 -102 21 -110 102l-35 328l-27 -11c-63 -25 -82 -12 -85 57c-3 66 6 105 41 161l28 46c43 69 71 82 151 69l67 -10c80 -13 99 -35 96 -116z" />
    <glyph glyph-name="two" unicode="2" horiz-adv-x="638" 
d="M576 97l-1 -37c-3 -80 -23 -98 -103 -93l-281 20c-76 5 -97 21 -113 94c-16 77 -8 92 64 130c92 46 176 114 176 176c0 61 -58 81 -118 81c-20 0 -41 -2 -60 -5c-47 -8 -57 0 -61 47l-17 233c-1 19 2 24 21 24c9 0 17 1 26 1c267 0 495 -70 495 -236
c0 -182 -142 -237 -326 -312l201 -15c80 -5 100 -28 97 -108z" />
    <glyph glyph-name="three" unicode="3" horiz-adv-x="669" 
d="M293 -47c-68 0 -123 5 -179 21c-72 21 -89 50 -62 122l2 7c30 81 44 87 123 53c39 -17 82 -28 117 -28c45 0 79 16 79 59c0 35 -45 68 -125 91c-44 13 -53 24 -53 68c0 42 8 52 52 57c67 8 125 34 125 81c0 35 -38 47 -89 47c-37 0 -81 -7 -120 -16
c-79 -18 -96 -6 -96 77l-1 82c-1 55 13 70 68 73c24 1 48 2 71 2c260 0 451 -90 451 -223c0 -94 -88 -153 -212 -185c93 -48 155 -125 155 -202c0 -134 -181 -186 -306 -186z" />
    <glyph glyph-name="four" unicode="4" horiz-adv-x="689" 
d="M198 297l175 -10l-15 240zM600 128l8 -31c19 -78 5 -99 -75 -110l-34 -4c-80 -11 -100 7 -108 87l-6 64l-237 8c-40 0 -61 11 -90 40c-31 29 -33 44 -16 83l158 362c32 76 58 96 138 112l57 12c77 16 102 0 115 -79l68 -397l24 -1c59 -3 71 -19 64 -76l-3 -19
c-7 -44 -18 -54 -63 -51z" />
    <glyph glyph-name="five" unicode="5" horiz-adv-x="671" 
d="M285 -38c-25 0 -51 1 -78 4c-59 5 -73 23 -89 81c-9 35 -13 58 -13 71c0 19 9 21 22 20c11 -1 19 -1 30 -1c100 0 224 31 224 99c0 52 -39 71 -90 71c-35 0 -75 -9 -112 -22c-77 -29 -93 -17 -106 63l-36 235c-13 79 5 104 83 117l300 56c74 14 93 -1 106 -76
c11 -72 -5 -94 -78 -99l-229 -21l22 -111c51 23 104 34 153 34c140 0 256 -87 256 -247c0 -165 -134 -274 -365 -274z" />
    <glyph glyph-name="six" unicode="6" horiz-adv-x="653" 
d="M28 314c0 244 114 385 309 433c74 18 105 2 137 -65l20 -41c35 -73 25 -92 -52 -111c-56 -15 -107 -42 -139 -97c34 13 69 20 105 20c111 0 224 -80 224 -228c0 -159 -141 -265 -297 -265c-198 0 -307 150 -307 354zM394 130c47 0 90 36 90 83c0 51 -46 87 -103 87
c-45 0 -88 -33 -88 -82c0 -51 45 -88 101 -88z" />
    <glyph glyph-name="seven" unicode="7" horiz-adv-x="609" 
d="M561 453l-232 -411c-39 -71 -70 -87 -144 -55l-12 5c-74 30 -84 51 -47 120l224 405l-208 -9c-80 -3 -101 16 -98 96l1 57c3 81 21 98 102 95l330 -18c79 -5 101 -22 115 -103c13 -77 6 -116 -31 -182z" />
    <glyph glyph-name="eight" unicode="8" horiz-adv-x="713" 
d="M646 545c0 -60 -27 -117 -100 -160c92 -29 140 -103 140 -187c0 -164 -162 -248 -334 -248c-160 0 -320 75 -320 226c0 114 76 182 177 211c-62 22 -118 86 -118 157c0 147 132 224 275 224c137 0 280 -72 280 -223zM396 469c45 0 89 27 89 71c0 43 -39 63 -78 63
c-42 0 -85 -26 -85 -74c0 -41 35 -60 74 -60zM334 122c67 0 113 36 113 81s-35 72 -102 72c-44 0 -110 -30 -110 -84c0 -44 36 -69 99 -69z" />
    <glyph glyph-name="nine" unicode="9" horiz-adv-x="651" 
d="M293 455c56 0 88 30 88 81c0 56 -49 85 -97 85c-61 0 -91 -39 -91 -79c0 -43 34 -87 100 -87zM208 -44c-15 0 -31 1 -47 2c-35 3 -45 11 -53 46l-38 161c-7 27 0 33 28 33c15 0 27 -2 39 -2c131 0 181 54 200 132c-27 -12 -55 -17 -83 -17c-152 0 -226 98 -226 205
c0 120 94 248 271 248c175 0 324 -149 324 -328c0 -312 -173 -480 -415 -480z" />
    <glyph glyph-name="colon" unicode=":" horiz-adv-x="317" 
d="M267 446c0 -56 -44 -111 -108 -111c-56 0 -109 46 -109 110c0 60 48 112 108 112c56 0 109 -47 109 -111zM267 86c0 -56 -44 -111 -108 -111c-56 0 -109 46 -109 110c0 60 48 112 108 112c56 0 109 -47 109 -111z" />
    <glyph glyph-name="semicolon" unicode=";" horiz-adv-x="317" 
d="M267 446c0 -56 -44 -111 -108 -111c-56 0 -109 46 -109 110c0 60 48 112 108 112c56 0 109 -47 109 -111zM95 -96c-52 -7 -65 6 -54 55l24 124c13 72 33 85 108 77c69 -8 81 -29 54 -92l-41 -95c-22 -50 -37 -61 -91 -69z" />
    <glyph glyph-name="less" unicode="&#x3c;" horiz-adv-x="561" 
d="M260 353l213 -202c55 -53 50 -80 -68 -131c-75 -32 -103 -25 -153 39l-174 227c-51 64 -48 93 8 151l246 258c54 56 81 53 123 -12l31 -47c43 -69 39 -94 -28 -142z" />
    <glyph glyph-name="equal" unicode="=" horiz-adv-x="446" 
d="M418 504c3 -70 -14 -90 -83 -95l-221 -17c-63 -5 -80 9 -85 72c-5 65 8 80 70 88l232 28c68 8 84 -8 87 -76zM341 139l-225 -7c-61 -3 -77 13 -82 73c-8 61 8 80 67 85l247 25c71 8 89 -11 86 -83c-3 -74 -19 -90 -93 -93z" />
    <glyph glyph-name="greater" unicode="&#x3e;" horiz-adv-x="561" 
d="M484 286l-174 -227c-50 -64 -78 -71 -153 -39l-48 22c-69 32 -75 56 -20 109l213 202l-198 141c-67 48 -71 73 -28 142l31 47c42 65 69 68 123 12l246 -258c56 -58 59 -87 8 -151z" />
    <glyph glyph-name="question" unicode="?" horiz-adv-x="572" 
d="M279 327c7 0 12 1 19 4c12 4 15 3 16 -10l2 -23c3 -28 -3 -40 -30 -52c-37 -17 -74 -25 -111 -25c-77 0 -134 37 -134 88c0 140 254 82 254 190c0 44 -48 85 -141 85c-15 0 -30 -1 -47 -3c-36 -5 -43 2 -46 39l-5 80c-3 53 12 69 65 74c23 2 46 3 71 3
c192 0 352 -67 352 -198c0 -185 -282 -171 -282 -239c0 -9 6 -13 17 -13zM175 -38c-56 0 -109 46 -109 110c0 60 48 112 108 112c56 0 109 -47 109 -111c0 -56 -44 -111 -108 -111z" />
    <glyph glyph-name="at" unicode="@" horiz-adv-x="812" 
d="M787 384c0 -204 -136 -392 -381 -392c-240 0 -381 180 -381 399c0 212 168 370 368 370c208 0 394 -145 394 -377zM134 384c0 -180 110 -304 278 -304c167 0 256 144 256 280c0 185 -99 314 -254 314c-191 0 -280 -142 -280 -290zM543 202c-54 -3 -68 8 -81 59l-10 40
l-107 -4l-5 -26c-8 -51 -22 -63 -75 -66c-49 -3 -59 10 -47 57l79 290c16 56 30 69 90 74c58 3 75 -6 94 -62l105 -299c16 -47 8 -60 -43 -63zM360 374h73l-41 130z" />
    <glyph glyph-name="A" unicode="A" 
d="M496 677l203 -583c27 -73 10 -95 -67 -98l-33 -2c-100 -5 -106 13 -125 93l-22 86l-193 -7l-11 -61c-13 -81 -18 -95 -119 -103l-29 -2c-77 -4 -94 17 -74 92l153 561c21 80 44 99 184 110c82 5 106 -8 133 -86zM286 305h131l-74 236z" />
    <glyph glyph-name="B" unicode="B" horiz-adv-x="695" 
d="M202 -10c-25 0 -48 1 -70 3c-53 4 -69 20 -72 73l-33 547c-5 77 16 101 91 117c59 11 120 18 181 18c176 0 310 -55 310 -161c0 -68 -46 -117 -126 -172c121 -11 205 -63 205 -169c0 -173 -264 -256 -486 -256zM227 583l13 -146c83 3 151 42 151 94c0 45 -40 68 -96 68
c-23 0 -47 -5 -68 -16zM261 287l14 -133c90 3 170 36 170 92c0 43 -38 58 -93 58c-33 0 -67 -6 -91 -17z" />
    <glyph glyph-name="C" unicode="C" horiz-adv-x="607" 
d="M406 221c19 0 40 3 61 8c50 14 58 6 74 -41l27 -85c21 -68 6 -95 -65 -108c-34 -6 -66 -9 -97 -9c-229 0 -388 163 -388 363c0 184 130 386 398 386c23 0 49 -3 78 -8c57 -12 69 -33 50 -88l-26 -74c-11 -29 -16 -34 -48 -26c-11 3 -24 4 -39 4
c-125 0 -183 -77 -183 -156c0 -115 73 -166 158 -166z" />
    <glyph glyph-name="D" unicode="D" 
d="M131 -27c-15 0 -28 0 -43 1c-33 3 -41 11 -41 44l6 636c0 50 13 62 63 65c21 1 43 1 64 1c301 0 523 -119 523 -352s-279 -395 -572 -395zM253 526l-15 -324c150 0 225 87 225 171c0 78 -65 154 -193 154c-5 0 -10 -1 -17 -1z" />
    <glyph glyph-name="E" unicode="E" horiz-adv-x="583" 
d="M557 141l2 -46c3 -81 -13 -99 -94 -99l-281 5c-80 0 -103 21 -108 101l-41 532c-5 81 10 101 91 112l287 34c68 8 87 -8 92 -77s-11 -88 -79 -96l-190 -22l10 -102l136 10c63 5 82 -10 87 -74c5 -63 -8 -81 -71 -86l-132 -11l15 -108l170 17c80 8 101 -10 106 -90z" />
    <glyph glyph-name="F" unicode="F" horiz-adv-x="575" 
d="M250 239l-1 -174c0 -78 -22 -98 -103 -88c-79 8 -99 31 -96 111l14 572c3 80 23 99 103 96l284 -12c79 -3 100 -24 97 -104v-10c-3 -79 -23 -100 -103 -95l-192 10v-118l135 -7c75 -5 95 -21 95 -99c0 -74 -17 -92 -91 -89z" />
    <glyph glyph-name="G" unicode="G" horiz-adv-x="818" 
d="M436 153c53 0 99 30 118 102l-55 1c-59 0 -71 16 -74 75c0 58 11 72 71 75l277 13c16 1 21 -3 22 -19v-23c0 -291 -193 -415 -370 -415c-196 0 -398 153 -398 408c0 247 194 394 420 394c53 0 107 -8 160 -24c73 -23 85 -52 52 -120l-6 -12c-35 -71 -52 -78 -128 -56
c-32 9 -63 14 -93 14c-93 0 -173 -49 -173 -196c0 -127 97 -217 177 -217z" />
    <glyph glyph-name="H" unicode="H" horiz-adv-x="650" 
d="M591 637l19 -542c3 -80 -16 -97 -114 -97c-80 0 -101 21 -101 102l-2 163l-124 -12l-4 -173c-3 -81 -22 -97 -105 -92c-80 5 -102 28 -102 108l-8 519c0 80 16 100 98 105l26 2c80 5 101 -14 98 -95l-5 -209l125 3l-2 201c0 78 17 101 97 106c80 8 101 -13 104 -89z" />
    <glyph glyph-name="I" unicode="I" horiz-adv-x="498" 
d="M427 100l-2 -27c-5 -78 -24 -95 -102 -87l-198 20c-72 8 -88 26 -83 99l1 9c5 68 21 81 90 78l15 371c-65 0 -80 15 -83 79v9c-3 69 15 88 83 91l247 10c75 3 96 -16 93 -93s-21 -96 -101 -96l-27 -388c59 -3 70 -19 67 -75z" />
    <glyph glyph-name="J" unicode="J" horiz-adv-x="694" 
d="M688 671c0 -76 -13 -97 -89 -102c11 -51 17 -100 17 -147c0 -296 -144 -446 -301 -446c-93 0 -189 52 -264 159c-45 61 -36 96 27 136l23 15c75 49 92 44 142 -28c25 -35 57 -62 90 -62c55 0 74 74 74 158c0 73 -14 154 -31 199l-42 -3c-65 -5 -85 12 -93 78s3 84 71 92
l278 34c73 9 98 -8 98 -83z" />
    <glyph glyph-name="K" unicode="K" horiz-adv-x="720" 
d="M446 360l188 -186c56 -55 54 -83 -9 -130l-18 -13c-65 -48 -94 -47 -150 12l-183 189l-19 -184c-7 -65 -26 -79 -91 -64c-67 16 -81 33 -84 100l-17 550c-3 80 18 101 97 98l47 -2c79 -3 99 -22 91 -102l-19 -197l146 203c48 67 77 79 158 76l29 -2c73 -4 83 -27 39 -84z
" />
    <glyph glyph-name="L" unicode="L" horiz-adv-x="566" 
d="M551 107c3 -84 -15 -105 -96 -110l-271 -20c-80 -5 -101 13 -106 93l-33 577c-5 80 13 103 94 108l53 4c81 5 99 -11 99 -92l-6 -481l163 13c80 5 100 -11 103 -92z" />
    <glyph glyph-name="M" unicode="M" horiz-adv-x="1011" 
d="M919 633l52 -539c8 -79 -11 -100 -90 -97c-130 3 -151 15 -156 105l-23 350l-141 -382c-16 -42 -30 -50 -75 -47c-45 1 -58 12 -73 55l-125 365l-22 -342c-5 -80 -26 -96 -143 -77c-80 13 -95 35 -82 115l88 527c13 79 36 96 117 91l46 -3c83 -5 105 -25 134 -102
l94 -257l99 237c32 76 56 93 139 96l51 1c81 3 102 -15 110 -96z" />
    <glyph glyph-name="N" unicode="N" horiz-adv-x="737" 
d="M700 650l-53 -602c-5 -46 -14 -57 -62 -68c-45 -8 -63 -3 -87 37l-242 376l14 -304c3 -79 -17 -98 -95 -90l-16 2c-81 8 -99 29 -102 110l-12 477c-3 80 15 106 95 119l37 6c80 13 106 3 144 -70l152 -288l-11 281c-3 80 16 103 96 106l51 2c78 3 99 -15 91 -94z" />
    <glyph glyph-name="O" unicode="O" horiz-adv-x="812" 
d="M406 761c245 0 381 -188 381 -392c0 -232 -186 -377 -394 -377c-200 0 -368 158 -368 370c0 219 141 399 381 399zM409 180c88 0 146 73 146 180c0 78 -51 161 -147 161s-160 -71 -160 -175c0 -84 51 -166 161 -166z" />
    <glyph glyph-name="P" unicode="P" horiz-adv-x="701" 
d="M292 202l17 -117c10 -78 -4 -101 -85 -106l-32 -2c-80 -5 -103 13 -108 93l-42 565c-5 77 15 103 89 119c49 10 98 15 147 15c267 0 409 -106 409 -295c0 -136 -130 -272 -395 -272zM238 575l28 -196c86 16 174 57 174 126c0 64 -49 89 -109 89c-31 0 -62 -6 -93 -19z
" />
    <glyph glyph-name="Q" unicode="Q" horiz-adv-x="820" 
d="M373 177c28 0 55 9 80 27l-18 15c-45 37 -48 57 -19 109c29 50 48 55 97 25l28 -17c7 25 12 51 12 76c0 73 -36 134 -124 134c-129 0 -200 -115 -200 -216c0 -81 45 -153 144 -153zM750 86c-51 -61 -79 -64 -140 -13l-20 16c-64 -75 -147 -123 -246 -123
c-216 0 -317 171 -317 356c0 208 131 433 375 433c225 0 317 -150 317 -319c0 -63 -12 -127 -35 -187l48 -29c68 -41 71 -68 18 -134z" />
    <glyph glyph-name="R" unicode="R" horiz-adv-x="638" 
d="M310 585c-39 0 -82 -10 -111 -19l22 -182c101 16 183 63 183 126c0 59 -43 75 -94 75zM471 321l126 -166c47 -63 41 -91 -29 -126l-34 -18c-72 -38 -97 -27 -129 46l-80 187c-27 -15 -58 -27 -82 -35l12 -109c8 -80 -8 -98 -88 -114l-20 -4c-77 -16 -98 6 -101 85
l-15 569c-3 77 21 103 97 111c39 5 80 7 119 7c189 0 363 -60 363 -220c0 -84 -51 -153 -139 -213z" />
    <glyph glyph-name="S" unicode="S" horiz-adv-x="711" 
d="M332 -21c-100 0 -199 25 -272 70c-56 35 -62 67 -23 118l3 5c48 61 62 68 137 36c47 -20 93 -29 133 -29c77 0 132 32 132 88c0 126 -413 29 -413 271c0 186 180 234 350 234c32 0 63 -2 94 -5c71 -8 90 -27 87 -99c-3 -59 -11 -76 -49 -76c-12 0 -76 13 -132 13
c-60 0 -111 -15 -111 -59c0 -102 428 43 428 -293c0 -190 -180 -274 -364 -274z" />
    <glyph glyph-name="T" unicode="T" horiz-adv-x="645" 
d="M400 517l16 -431c3 -81 -15 -101 -95 -112l-19 -2c-77 -11 -99 10 -96 88l12 444l-92 -6c-81 -5 -100 13 -100 93l1 67c0 79 21 99 100 94l406 -24c76 -5 94 -24 91 -102c-3 -76 -20 -95 -96 -100z" />
    <glyph glyph-name="U" unicode="U" horiz-adv-x="700" 
d="M490 521c0 47 -3 92 -7 133c-8 71 7 91 81 96c69 8 88 -12 96 -80c4 -46 6 -94 6 -144c0 -275 -73 -567 -310 -567c-219 0 -322 267 -322 578c0 39 3 84 7 128c8 77 29 100 109 89l30 -4c84 -8 95 -26 87 -108c-3 -35 -5 -69 -5 -100c0 -184 34 -309 112 -309
c87 0 116 119 116 288z" />
    <glyph glyph-name="V" unicode="V" horiz-adv-x="637" 
d="M608 644l-195 -570c-27 -77 -50 -93 -132 -85h-9c-83 8 -105 28 -123 107l-129 538c-19 77 -3 100 76 111l34 4c80 11 103 -5 116 -85l67 -386l83 382c16 81 41 101 121 90l23 -3c78 -11 92 -28 68 -103z" />
    <glyph glyph-name="W" unicode="W" horiz-adv-x="914" 
d="M898 602l-211 -557c-24 -67 -48 -78 -119 -62c-69 16 -89 35 -100 106l-39 244l-76 -237c-24 -76 -48 -99 -128 -115c-77 -16 -101 0 -114 77l-104 579c-13 79 0 102 80 115l64 12c77 16 100 -3 108 -82l31 -306l73 225c16 52 31 66 85 66c56 0 68 -7 79 -59l47 -256
l107 322c25 77 50 88 126 64l31 -11c77 -25 87 -51 60 -125z" />
    <glyph glyph-name="X" unicode="X" horiz-adv-x="710" 
d="M492 378l190 -233c48 -60 41 -86 -31 -113l-75 -27c-77 -29 -104 -20 -149 49l-83 126l-104 -145c-47 -63 -74 -72 -139 -23l-16 12c-64 45 -66 73 -10 129l166 167l-181 238c-49 65 -43 91 21 139l38 28c64 48 93 41 139 -23l134 -190l117 177c43 68 72 72 141 32
c77 -48 83 -73 29 -133z" />
    <glyph glyph-name="Y" unicode="Y" horiz-adv-x="727" 
d="M492 316l2 -234c0 -81 -18 -104 -99 -109l-46 -3c-79 -5 -101 12 -101 91l-3 262l-218 285c-47 61 -39 86 34 111l84 29c77 27 104 16 144 -55l115 -205l116 206c37 67 64 78 139 49c71 -27 79 -52 38 -115z" />
    <glyph glyph-name="Z" unicode="Z" horiz-adv-x="773" 
d="M725 116v-57c0 -79 -22 -99 -102 -91l-505 45c-76 7 -86 29 -45 93l297 454l-211 -11c-74 -5 -95 14 -92 91c0 76 20 96 95 99l491 22c73 3 86 -17 49 -81l-282 -475l207 7c80 3 98 -16 98 -96z" />
    <glyph glyph-name="bracketleft" unicode="[" horiz-adv-x="470" 
d="M432 -61c-5 -70 -21 -86 -90 -86l-202 1c-79 0 -102 20 -102 100l-12 712c0 79 18 101 98 101l207 2c74 0 92 -16 92 -93c0 -75 -18 -93 -92 -98l-83 -5l10 -550l93 1c68 0 84 -17 81 -85z" />
    <glyph glyph-name="backslash" unicode="\" horiz-adv-x="565" 
d="M230 600l293 -461c40 -62 34 -87 -24 -135c-56 -45 -83 -41 -123 18l-327 465c-45 66 -42 93 27 135l15 9c67 43 97 35 139 -31z" />
    <glyph glyph-name="bracketright" unicode="]" horiz-adv-x="470" 
d="M434 666l-12 -712c0 -80 -23 -100 -102 -100l-202 -1c-67 0 -87 16 -90 86c-3 67 13 85 81 85l93 -1l10 550l-83 5c-74 5 -92 24 -92 100c0 74 18 91 92 91l207 -2c80 0 98 -22 98 -101z" />
    <glyph glyph-name="asciicircum" unicode="^" horiz-adv-x="467" 
d="M349 582l42 -48c53 -61 51 -86 -14 -143c-62 -51 -89 -48 -139 15l-32 41l-55 -70c-31 -39 -48 -43 -88 -12c-43 31 -46 48 -19 91l59 95c33 52 56 67 119 77c62 11 85 1 127 -46z" />
    <glyph glyph-name="underscore" unicode="_" horiz-adv-x="423" 
d="M418 5c-4 -51 -14 -64 -63 -65l-285 -13c-52 -3 -66 10 -67 63c-3 52 10 68 63 68l298 6c48 1 57 -11 54 -59z" />
    <glyph glyph-name="grave" unicode="`" horiz-adv-x="342" 
d="M202 951l61 -64c23 -25 23 -37 -2 -62s-36 -26 -67 -10l-78 41c-52 26 -55 48 -15 93c39 44 60 46 101 2z" />
    <glyph glyph-name="a" unicode="a" horiz-adv-x="719" 
d="M286 255l128 8l-71 235zM486 665l200 -539c27 -75 16 -100 -61 -122c-105 -30 -128 -17 -152 61l-17 57l-198 -14l-12 -53c-16 -79 -41 -95 -119 -79l-30 5c-78 16 -92 38 -68 114l179 576c24 77 48 95 130 92c96 -3 119 -21 148 -98z" />
    <glyph glyph-name="b" unicode="b" horiz-adv-x="701" 
d="M266 -11c-31 0 -68 2 -103 5c-76 7 -101 32 -102 108l-15 532c-3 77 19 101 95 112c52 7 110 10 159 10c157 0 315 -41 315 -169c0 -68 -65 -124 -153 -172c119 -18 226 -78 226 -171c0 -184 -225 -255 -422 -255zM265 472c40 0 116 33 116 85c0 43 -40 59 -81 59
c-22 0 -42 -4 -60 -11l4 -131c7 -1 13 -2 21 -2zM313 154c63 0 137 17 137 82c0 57 -52 75 -108 75c-35 0 -69 -7 -93 -16l3 -135c16 -3 37 -6 61 -6z" />
    <glyph glyph-name="c" unicode="c" horiz-adv-x="517" 
d="M406 244c17 0 32 1 45 4c35 7 41 1 41 -34l-1 -200c0 -32 -9 -40 -40 -43c-15 -1 -28 -1 -43 -1c-264 0 -382 176 -382 361c0 204 143 419 391 419c9 0 19 0 28 -1c21 -1 25 -7 28 -27l9 -113c8 -91 -3 -104 -90 -130c-83 -24 -126 -79 -126 -140c0 -68 72 -95 140 -95z
" />
    <glyph glyph-name="d" unicode="d" horiz-adv-x="750" 
d="M165 -17c-16 0 -31 1 -47 2c-36 3 -44 12 -47 47l-30 608c-3 64 14 86 78 91c28 3 56 4 85 4c341 0 527 -161 527 -381c0 -186 -179 -371 -566 -371zM312 219c125 0 208 47 208 142c0 93 -90 151 -237 154l-6 -294c12 -1 24 -2 35 -2z" />
    <glyph glyph-name="e" unicode="e" horiz-adv-x="537" 
d="M518 119c3 -69 -8 -87 -76 -98l-281 -44c-78 -13 -101 5 -104 84l-29 558c-5 81 15 102 95 110l283 27c80 8 102 -10 102 -90v-42c0 -80 -17 -103 -98 -108l-202 -15l4 -89l178 16c56 5 74 -8 74 -65c0 -55 -9 -71 -65 -76l-177 -19l4 -100l202 25c65 8 86 -7 90 -74z
" />
    <glyph glyph-name="f" unicode="f" horiz-adv-x="521" 
d="M243 271l-7 -192c-3 -80 -22 -103 -104 -108c-79 -5 -100 13 -97 93l14 587c3 79 23 100 103 97l273 -8c72 -3 93 -20 93 -94c0 -72 -15 -90 -86 -87l-175 6l-6 -136l122 -4c64 -3 81 -19 78 -84s-21 -82 -84 -77z" />
    <glyph glyph-name="g" unicode="g" horiz-adv-x="688" 
d="M221 376c0 -99 87 -166 232 -199l-4 86l-25 1c-52 3 -66 16 -66 68c0 51 10 67 61 67l151 3c79 3 99 -21 94 -98c-8 -113 -30 -196 -67 -264c-39 -71 -88 -91 -165 -72c-243 61 -410 228 -410 430c0 182 190 354 459 354c26 0 51 -2 75 -6c56 -8 69 -27 61 -82l-13 -93
c-7 -47 -13 -63 -44 -63c-19 0 -65 13 -117 13c-108 0 -222 -44 -222 -145z" />
    <glyph glyph-name="h" unicode="h" horiz-adv-x="674" 
d="M635 642l-15 -550c-3 -80 -23 -101 -103 -96l-26 2c-79 5 -100 25 -95 104l10 194l-150 -33l5 -182c3 -75 -18 -93 -93 -90c-76 3 -96 22 -101 97l-39 524c-5 82 10 99 91 112l26 4c80 11 98 -8 101 -88l5 -184l163 5l10 194c3 79 26 99 105 94l9 -1
c80 -5 100 -25 97 -106z" />
    <glyph glyph-name="i" unicode="i" horiz-adv-x="324" 
d="M287 650l-14 -575c-3 -81 -21 -101 -102 -104l-31 -1c-80 -3 -101 16 -98 96l12 580c3 81 21 102 102 102h33c80 0 101 -18 98 -98z" />
    <glyph glyph-name="j" unicode="j" horiz-adv-x="657" 
d="M335 -37c-109 0 -215 65 -288 173c-43 63 -33 93 39 120l46 17c63 22 62 23 105 -31c19 -24 41 -36 68 -36c44 0 87 41 87 144c0 84 -24 189 -45 268s-10 101 70 120l60 14c76 19 102 3 121 -73c23 -92 34 -182 34 -258c0 -272 -109 -458 -297 -458z" />
    <glyph glyph-name="k" unicode="k" horiz-adv-x="706" 
d="M430 372l221 -211c56 -56 55 -80 -3 -135l-18 -17c-61 -53 -87 -52 -143 7l-226 244l-3 -166c0 -79 -20 -102 -100 -113c-77 -11 -98 6 -101 84l-24 572c-3 80 16 101 96 106l50 3c80 5 98 -15 93 -94l-12 -164l164 216c49 65 76 68 144 25l6 -4c67 -45 71 -70 22 -135z
" />
    <glyph glyph-name="l" unicode="l" horiz-adv-x="554" 
d="M539 145l2 -42c3 -81 -16 -102 -98 -107l-267 -19c-79 -5 -102 13 -105 93l-27 579c-5 80 16 104 95 104h28c81 0 99 -17 99 -96l-5 -447l177 22c80 11 96 -8 101 -87z" />
    <glyph glyph-name="m" unicode="m" horiz-adv-x="903" 
d="M782 664l93 -560c13 -80 -5 -98 -84 -103l-46 -3c-81 -5 -101 16 -109 96l-26 307l-112 -286c-13 -35 -24 -41 -61 -49c-35 -7 -45 0 -56 35l-90 279l-57 -302c-16 -77 -37 -94 -116 -75l-13 3c-78 19 -92 41 -76 121l121 556c13 61 31 76 96 79s81 -11 103 -71l102 -297
l121 292c24 61 47 75 115 67c67 -5 84 -23 95 -89z" />
    <glyph glyph-name="n" unicode="n" horiz-adv-x="693" 
d="M633 645l22 -597c3 -49 -10 -62 -61 -67c-50 -5 -67 3 -94 46l-230 356l44 -301c11 -79 -3 -102 -84 -110l-75 -9c-80 -8 -98 8 -101 89l-12 615c0 68 14 81 83 81c68 0 93 -17 133 -70l170 -232l-31 228c-11 77 8 96 85 88l48 -6c80 -8 100 -31 103 -111z" />
    <glyph glyph-name="o" unicode="o" horiz-adv-x="780" 
d="M755 368c0 -211 -161 -397 -369 -397c-205 0 -361 181 -361 394c0 216 157 403 364 403c211 0 366 -179 366 -400zM391 180c90 0 141 81 141 173s-55 172 -138 172c-91 0 -153 -83 -153 -175c0 -96 47 -170 150 -170z" />
    <glyph glyph-name="p" unicode="p" horiz-adv-x="602" 
d="M240 198l4 -123c3 -80 -17 -99 -100 -99c-82 0 -100 19 -103 100l-14 545c-3 76 22 103 94 116c47 9 95 12 146 12c197 0 343 -81 343 -236c0 -179 -126 -304 -370 -315zM261 362c109 0 171 59 171 112c0 43 -39 80 -124 80c-27 0 -55 -4 -78 -12l5 -179
c9 -1 18 -1 26 -1z" />
    <glyph glyph-name="q" unicode="q" horiz-adv-x="781" 
d="M399 233c16 0 32 3 48 9l-48 54c-24 27 -24 40 0 69c23 28 34 30 65 10l72 -47c7 18 11 38 11 60c0 107 -75 186 -160 186s-150 -78 -150 -163c0 -103 75 -178 162 -178zM766 57l-8 -10c-51 -61 -77 -62 -130 -4l-22 24c-64 -60 -144 -95 -221 -95
c-197 0 -344 187 -344 400c0 208 145 393 349 393c188 0 347 -188 347 -388c0 -60 -11 -113 -30 -162l38 -25c66 -45 72 -71 21 -133z" />
    <glyph glyph-name="r" unicode="r" horiz-adv-x="637" 
d="M254 575c-11 0 -23 1 -34 -2l10 -189c102 0 154 52 154 102c0 45 -43 89 -130 89zM461 294l110 -193c39 -67 26 -91 -50 -102l-11 -2c-81 -13 -106 2 -138 77l-76 179l-60 -8l9 -165c3 -80 -14 -100 -95 -100h-11c-80 0 -100 20 -100 100l2 563c0 75 23 101 98 108
c36 3 73 6 104 6c252 0 377 -122 377 -247c0 -83 -52 -165 -159 -216z" />
    <glyph glyph-name="s" unicode="s" horiz-adv-x="700" 
d="M71 144c43 51 58 56 122 24c32 -15 63 -22 94 -22c76 0 136 36 136 91c0 97 -380 10 -380 275c0 181 222 253 378 253c35 0 70 -3 105 -10c69 -15 84 -40 59 -107l-8 -21c-24 -59 -34 -64 -97 -48c-25 7 -51 10 -75 10c-76 0 -138 -31 -138 -79c0 -101 398 4 398 -295
c0 -145 -166 -245 -343 -245c-83 0 -165 21 -236 69c-49 33 -52 60 -15 105z" />
    <glyph glyph-name="t" unicode="t" horiz-adv-x="574" 
d="M422 545l-27 -479c-5 -80 -26 -98 -106 -90l-10 1c-81 8 -99 29 -99 110l4 448l-71 -2c-74 -3 -94 15 -102 91c-8 75 7 93 82 98l388 24c79 5 100 -15 100 -95s-19 -100 -99 -103z" />
    <glyph glyph-name="u" unicode="u" horiz-adv-x="704" 
d="M500 496c0 49 -3 100 -10 151c-8 77 8 95 86 95h10c71 0 88 -21 93 -89c2 -29 3 -59 3 -90c0 -332 -82 -601 -314 -601c-211 0 -340 306 -340 640c0 24 1 47 2 71c3 55 18 66 73 62l117 -9c64 -5 75 -20 72 -83c-1 -25 -2 -52 -2 -79c0 -204 28 -338 103 -338
c77 0 107 105 107 270z" />
    <glyph glyph-name="v" unicode="v" horiz-adv-x="640" 
d="M625 617l-194 -538c-27 -73 -49 -88 -129 -91c-78 -3 -101 15 -122 89l-152 521c-21 78 -10 102 68 124l45 12c77 19 98 7 111 -71l64 -419l105 428c19 78 43 92 121 71l20 -6c77 -21 90 -44 63 -120z" />
    <glyph glyph-name="w" unicode="w" horiz-adv-x="868" 
d="M857 595l-201 -565c-22 -57 -38 -68 -101 -60c-61 8 -79 23 -95 82l-67 233l-67 -221c-19 -61 -38 -76 -102 -87c-61 -11 -80 4 -91 65l-106 586c-13 77 2 100 82 108l11 1c82 8 102 -9 115 -89l42 -273l59 242c11 48 25 56 74 56s60 -12 71 -57l58 -287l95 321
c24 77 47 91 125 72l35 -9c77 -19 90 -43 63 -118z" />
    <glyph glyph-name="x" unicode="x" horiz-adv-x="763" 
d="M526 379l174 -147c59 -51 61 -78 1 -130l-47 -43c-60 -55 -89 -53 -145 6l-122 125l-103 -154c-45 -67 -70 -74 -142 -34l-71 39c-68 37 -73 65 -18 121l180 189l-183 195c-53 56 -50 85 17 125l15 10c69 43 98 39 154 -20l131 -137l121 177c45 67 73 75 145 38l43 -21
c71 -36 74 -62 26 -123z" />
    <glyph glyph-name="y" unicode="y" horiz-adv-x="701" 
d="M491 289l3 -208c0 -80 -18 -101 -99 -98l-61 1c-79 3 -100 21 -97 102l7 202l-203 263c-48 64 -46 89 22 135l38 27c66 48 94 39 139 -27l137 -205l99 193c35 73 63 80 139 54l10 -3c76 -24 85 -52 45 -122z" />
    <glyph glyph-name="z" unicode="z" horiz-adv-x="705" 
d="M664 102c5 -87 -15 -107 -94 -107h-461c-59 0 -72 14 -72 74c0 55 9 85 46 127l294 348l-206 -13c-80 -5 -101 13 -98 93v16c3 82 21 100 102 103l340 10c67 3 90 -11 119 -74c30 -63 26 -86 -14 -142l-266 -358l205 15c81 5 100 -11 105 -92z" />
    <glyph glyph-name="braceleft" unicode="{" horiz-adv-x="505" 
d="M424 38c11 0 25 1 41 6c29 9 35 5 36 -26l2 -36c3 -54 -9 -75 -61 -91c-36 -11 -65 -15 -96 -15c-115 0 -197 71 -197 187c0 36 4 71 4 100c0 56 -33 98 -92 118c-58 21 -67 31 -59 93l4 39c3 16 6 20 21 17c8 -1 15 -2 22 -2c68 0 98 43 98 107c0 23 -3 45 -3 70
c0 117 81 206 204 206c16 0 38 -2 65 -7c43 -9 58 -28 55 -72l-3 -46c-3 -23 -7 -27 -28 -20c-12 4 -23 7 -30 7c-59 0 -82 -58 -82 -106c0 -31 4 -60 4 -87c-1 -63 -38 -112 -105 -116c89 -24 118 -76 118 -157c0 -27 -1 -50 -1 -71c0 -49 25 -98 83 -98z" />
    <glyph glyph-name="bar" unicode="|" horiz-adv-x="294" 
d="M269 780l-17 -769c-3 -77 -20 -95 -98 -103c-75 -7 -96 11 -97 86l-30 805c-3 79 16 97 96 92l48 -3c80 -5 101 -27 98 -108z" />
    <glyph glyph-name="braceright" unicode="}" horiz-adv-x="505" 
d="M154 -134c-31 0 -60 4 -96 15c-52 16 -64 37 -61 91l2 36c1 31 7 35 36 26c16 -5 30 -6 41 -6c58 0 83 49 83 98c0 21 -1 44 -1 71c0 81 29 133 118 157c-67 4 -104 53 -105 116c0 27 4 56 4 87c0 48 -23 106 -82 106c-7 0 -18 -3 -30 -7c-21 -7 -25 -3 -28 20l-3 46
c-3 44 12 64 55 73c27 5 49 6 65 6c123 0 204 -89 204 -206c0 -25 -3 -47 -3 -70c0 -64 30 -107 98 -107c7 0 14 1 22 2c15 3 18 -1 21 -17l5 -41c8 -61 -1 -70 -60 -91c-59 -20 -92 -62 -92 -118c0 -29 4 -64 4 -100c0 -116 -83 -187 -197 -187z" />
    <glyph glyph-name="asciitilde" unicode="~" horiz-adv-x="565" 
d="M395 331c-80 0 -164 73 -209 73c-17 0 -31 -8 -42 -23c-24 -30 -32 -33 -68 -16l-16 8c-36 19 -46 36 -33 75c24 69 84 133 156 133c70 0 111 -73 162 -73c27 0 45 14 58 41c24 50 36 55 89 39c48 -13 60 -32 52 -81c-13 -92 -61 -176 -149 -176z" />
    <glyph glyph-name="uni00A0" unicode="&#xa0;" horiz-adv-x="400" 
 />
    <glyph glyph-name="exclamdown" unicode="&#xa1;" horiz-adv-x="327" 
d="M291 570c0 -58 -45 -112 -106 -112c-56 0 -111 45 -111 112c0 55 42 110 106 110c59 0 111 -49 111 -110zM272 300l16 -282c5 -80 -15 -100 -94 -100h-75c-80 0 -96 21 -88 99l37 299c8 75 29 90 106 85c77 -8 93 -24 98 -101z" />
    <glyph glyph-name="cent" unicode="&#xa2;" horiz-adv-x="512" 
d="M323 69l-1 -27c-1 -28 -8 -34 -37 -27c-28 7 -34 14 -35 43v23c-131 37 -214 148 -214 278c0 119 68 247 206 292v16c-1 41 7 52 50 59c39 7 48 -3 48 -42v-16c5 0 10 1 15 1c21 0 42 -2 63 -7c45 -9 55 -26 40 -70l-21 -60c-9 -24 -12 -28 -39 -21c-11 3 -20 4 -31 4
c-100 0 -147 -61 -147 -125c0 -92 59 -134 127 -134c16 0 33 2 49 7c39 11 48 6 60 -33l21 -68c17 -56 5 -75 -52 -86c-29 -5 -55 -8 -78 -8c-8 0 -16 0 -24 1z" />
    <glyph glyph-name="sterling" unicode="&#xa3;" horiz-adv-x="598" 
d="M575 114v-14c-3 -76 -21 -93 -96 -96l-379 -15h-11c-68 0 -84 21 -84 106c0 56 19 72 84 77h6c-7 29 -13 58 -17 86h-13c-47 0 -62 16 -62 83c0 36 15 48 59 52l11 1c11 228 119 371 306 371c71 0 178 -43 178 -93c0 -18 -10 -39 -31 -62l-62 -70
c-13 -15 -20 -22 -31 -22c-12 0 -44 27 -72 27c-48 0 -71 -60 -74 -132l147 14c8 1 16 1 23 1c45 0 59 -18 59 -77c0 -65 -13 -80 -80 -83l-139 -4c7 -35 13 -65 21 -86l170 9h17c53 0 70 -17 70 -73z" />
    <glyph glyph-name="currency" unicode="&#xa4;" horiz-adv-x="637" 
d="M436 221c33 0 77 14 95 14c21 0 29 -12 40 -47l27 -85c6 -19 9 -35 9 -47c0 -53 -79 -70 -171 -70c-200 0 -345 123 -380 286l-24 -1h-8c-19 0 -32 11 -32 44c0 12 9 18 26 19l30 2v13c0 9 0 19 1 28l-14 -1h-8c-20 0 -32 10 -32 45c0 15 8 18 27 21l38 3
c37 152 165 290 386 290c72 0 136 -15 136 -57c0 -10 -3 -23 -8 -39l-26 -74c-8 -23 -11 -30 -26 -30c-12 0 -40 8 -61 8c-84 0 -135 -33 -162 -78c185 16 188 16 191 16c19 0 23 -6 23 -25c0 -36 -6 -44 -37 -47l-198 -18c0 -15 -1 -25 2 -36c184 16 184 16 188 16
c19 0 25 -6 25 -26c0 -37 -7 -47 -40 -48l-150 -10c28 -45 77 -66 133 -66z" />
    <glyph glyph-name="yen" unicode="&#xa5;" horiz-adv-x="701" 
d="M694 245c0 -73 -16 -88 -86 -91l-115 -2l1 -71c0 -80 -18 -101 -99 -98l-61 1c-79 3 -100 21 -97 102l2 60l-131 -2c-64 0 -85 12 -85 79c0 63 10 79 74 82l129 6l-185 240c-48 64 -46 89 22 135l38 27c66 48 94 39 139 -27l137 -205l99 193c35 73 63 80 139 54l10 -3
c76 -24 85 -52 45 -122l-159 -279l96 5c69 3 87 -14 87 -84z" />
    <glyph glyph-name="brokenbar" unicode="&#xa6;" horiz-adv-x="294" 
d="M123 894l48 2c81 3 100 -16 97 -96l-8 -234c-3 -81 -23 -100 -103 -100h-13c-80 0 -102 19 -105 100l-11 223c-5 79 16 102 95 105zM159 -95h-16c-81 -5 -100 16 -100 95l2 220c0 81 21 97 100 92l10 -1c80 -5 101 -28 101 -108l2 -193c0 -81 -18 -105 -99 -105z" />
    <glyph glyph-name="dieresis" unicode="&#xa8;" horiz-adv-x="432" 
d="M382 876c0 -39 -31 -71 -68 -71c-39 0 -69 32 -69 71s30 71 69 71c37 0 68 -32 68 -71zM187 876c0 -39 -31 -71 -68 -71c-39 0 -69 32 -69 71s30 71 69 71c37 0 68 -32 68 -71z" />
    <glyph glyph-name="copyright" unicode="&#xa9;" horiz-adv-x="812" 
d="M787 384c0 -204 -136 -392 -381 -392c-240 0 -381 180 -381 399c0 212 168 370 368 370c208 0 394 -145 394 -377zM134 384c0 -180 110 -304 278 -304c167 0 256 144 256 280c0 185 -99 314 -254 314c-191 0 -280 -142 -280 -290zM495 158c-21 -4 -41 -6 -60 -6
c-140 0 -237 100 -237 223c0 113 80 236 244 236c15 0 31 -1 48 -5c35 -7 42 -20 30 -53l-16 -47c-7 -19 -10 -20 -29 -15c-8 2 -16 3 -24 3c-77 0 -112 -47 -112 -96c0 -71 44 -102 96 -102c13 0 25 2 38 5c31 8 37 6 46 -25l16 -52c13 -43 4 -58 -40 -66z" />
    <glyph glyph-name="ordfeminine" unicode="&#xaa;" horiz-adv-x="447" 
d="M304 641l105 -299c16 -47 7 -63 -44 -63c-53 0 -67 8 -80 59l-10 40l-107 -4l-5 -26c-8 -51 -22 -63 -75 -66c-49 -3 -59 10 -47 57l79 290c16 56 30 69 90 74c58 3 75 -6 94 -62zM183 451h73l-41 130zM399 167c-3 -47 -13 -59 -58 -60l-218 -10c-52 -3 -66 9 -71 62
c-7 51 6 64 57 64l238 -1c44 0 55 -11 52 -55z" />
    <glyph glyph-name="guillemotleft" unicode="&#xab;" horiz-adv-x="615" 
d="M216 379l118 -112c40 -40 43 -59 -1 -100c-40 -40 -62 -41 -102 -1l-144 139c-59 56 -58 82 -5 143l135 151c41 46 62 46 105 1c43 -44 43 -66 0 -110zM550 227c-42 -40 -62 -42 -103 -1l-81 78c-59 56 -58 85 -6 145l79 89c40 45 61 46 104 1c43 -44 43 -66 0 -110
l-48 -50l55 -53c41 -39 41 -59 0 -99z" />
    <glyph glyph-name="logicalnot" unicode="&#xac;" horiz-adv-x="514" 
d="M22 315c-3 58 13 73 69 73l295 4c79 0 99 -18 94 -98l-8 -135c-3 -49 -17 -61 -66 -61c-48 0 -60 12 -60 60l1 95l-252 -7c-57 -3 -72 12 -73 69z" />
    <glyph glyph-name="uni00AD" unicode="&#xad;" horiz-adv-x="404" 
d="M361 340c5 -74 -10 -96 -86 -99l-154 -7c-63 -3 -81 11 -86 75s8 83 71 91l154 22c74 11 96 -7 101 -82z" />
    <glyph glyph-name="registered" unicode="&#xae;" horiz-adv-x="812" 
d="M787 384c0 -204 -136 -392 -381 -392c-240 0 -381 180 -381 399c0 212 168 370 368 370c208 0 394 -145 394 -377zM134 384c0 -180 110 -304 278 -304c167 0 256 144 256 280c0 185 -99 314 -254 314c-191 0 -280 -142 -280 -290zM354 499l13 -102c57 9 103 35 103 71
c0 32 -24 42 -53 42c-23 0 -46 -6 -63 -11zM379 298l6 -56c5 -45 1 -72 -63 -72c-47 0 -54 17 -55 52l-8 313c-1 47 12 62 60 67c21 2 42 3 63 3c107 0 205 -33 205 -124c0 -47 -28 -85 -79 -120l65 -86c32 -43 28 -59 -20 -84c-48 -24 -63 -19 -85 30l-42 97
c-16 -9 -32 -15 -47 -20z" />
    <glyph glyph-name="overscore" unicode="&#xaf;" horiz-adv-x="526" 
d="M472 886c0 -56 -19 -71 -72 -72l-274 -11c-59 -3 -71 11 -74 71c-3 58 12 73 70 73l287 5c53 1 63 -13 63 -66z" />
    <glyph glyph-name="degree" unicode="&#xb0;" horiz-adv-x="425" 
d="M400 575c0 -100 -68 -192 -188 -192c-118 0 -187 88 -187 196c0 104 82 182 181 182c101 0 194 -71 194 -186zM134 587c0 -51 32 -87 79 -87c48 0 73 41 73 80c0 52 -28 88 -72 88c-55 0 -80 -40 -80 -81z" />
    <glyph glyph-name="plusminus" unicode="&#xb1;" horiz-adv-x="463" 
d="M341 382v-42c0 -72 -17 -90 -91 -90c-73 0 -91 16 -96 89l-3 35l-64 -2c-53 -3 -64 11 -67 64c-3 51 12 67 64 67l60 1l-1 26c-5 80 12 103 95 108c79 5 101 -13 101 -93v-37h44c49 1 60 -10 56 -61c-3 -51 -15 -61 -65 -64zM379 76l-287 -12c-53 -3 -64 11 -67 64
c-3 51 12 67 64 67l299 5c49 1 60 -10 56 -61c-3 -51 -15 -60 -65 -63z" />
    <glyph glyph-name="twosuperior" unicode="&#xb2;" horiz-adv-x="415" 
d="M370 338c-3 -62 -17 -78 -78 -73l-172 12c-49 3 -64 15 -74 62c-11 49 -5 61 42 84c60 30 115 76 115 115c0 40 -37 52 -77 52c-14 0 -27 -1 -39 -3c-31 -5 -36 -1 -39 30l-12 150c-1 12 2 18 31 18c173 0 322 -45 322 -153c0 -120 -93 -155 -212 -203l119 -9
c60 -5 77 -21 74 -82z" />
    <glyph glyph-name="threesuperior" unicode="&#xb3;" horiz-adv-x="435" 
d="M187 269c-41 0 -78 4 -112 13c-51 15 -62 34 -43 82c19 53 30 60 83 36c24 -11 50 -17 73 -17c29 0 51 11 51 39c0 23 -30 44 -81 59c-29 8 -34 15 -34 43c0 29 5 35 33 38c44 7 82 22 82 53c0 23 -26 30 -58 30c-23 0 -49 -4 -73 -9c-56 -13 -68 -3 -68 55v48
c0 35 8 44 43 47c16 1 32 1 47 1c169 0 293 -58 293 -145c0 -61 -57 -99 -137 -120c60 -31 100 -81 100 -132c0 -88 -116 -121 -199 -121z" />
    <glyph glyph-name="acute" unicode="&#xb4;" horiz-adv-x="350" 
d="M246 909l-81 -81c-25 -27 -38 -29 -74 -14c-33 13 -36 25 -19 56l42 75c32 56 52 62 113 43c56 -19 60 -38 19 -79z" />
    <glyph glyph-name="paragraph" unicode="&#xb6;" horiz-adv-x="598" 
d="M388 680l-17 -708c0 -53 -16 -66 -68 -69c-53 -3 -66 10 -65 63l6 262c-141 27 -216 159 -216 288c0 128 74 249 228 249c23 0 46 -2 69 -7c49 -11 64 -27 63 -78zM489 -91c-51 0 -63 9 -62 58l13 695c1 48 13 57 60 42l2 -1c49 -16 58 -31 58 -82l-9 -648
c0 -49 -14 -61 -62 -64z" />
    <glyph glyph-name="middot" unicode="&#xb7;" horiz-adv-x="317" 
d="M267 374c0 -56 -44 -111 -108 -111c-56 0 -109 46 -109 110c0 60 48 112 108 112c56 0 109 -47 109 -111z" />
    <glyph glyph-name="cedilla" unicode="&#xb8;" horiz-adv-x="544" 
d="M332 -285c-31 0 -63 6 -91 14c-36 11 -44 23 -35 60l6 25c5 21 8 24 31 21c7 -1 16 -2 27 -2c23 0 40 8 40 32c0 27 -25 39 -56 47c-40 11 -45 22 -34 59c12 39 23 50 63 43l6 -1c39 -7 47 -15 34 -54c33 -5 146 -24 146 -115c0 -83 -57 -129 -137 -129z" />
    <glyph glyph-name="onesuperior" unicode="&#xb9;" horiz-adv-x="294" 
d="M269 664l-11 -323c-3 -52 -15 -66 -69 -63c-53 3 -68 14 -73 67l-22 213l-18 -7c-40 -16 -53 -8 -54 35c-3 44 4 71 38 126c33 55 54 63 127 52c69 -11 85 -31 82 -100z" />
    <glyph glyph-name="ordmasculine" unicode="&#xba;" horiz-adv-x="452" 
d="M418 497c0 -100 -68 -192 -188 -192c-118 0 -187 88 -187 196c0 104 82 182 181 182c101 0 194 -71 194 -186zM169 509c0 -40 25 -68 62 -68c36 0 56 31 56 62c0 40 -21 67 -56 67c-41 0 -62 -30 -62 -61zM337 116l-194 -9c-48 -3 -61 8 -66 56c-7 49 4 61 51 68l194 28
c58 8 76 -5 81 -65c5 -59 -6 -75 -66 -78z" />
    <glyph glyph-name="guillemotright" unicode="&#xbb;" horiz-adv-x="615" 
d="M399 599l135 -151c53 -61 54 -87 -5 -143l-144 -139c-40 -40 -62 -39 -102 1c-44 41 -41 60 -1 100l118 112l-106 111c-43 43 -43 67 1 111c43 43 63 45 104 -2zM177 538l79 -89c52 -60 53 -89 -6 -145l-81 -78c-41 -41 -61 -39 -103 1c-41 40 -41 60 0 99l55 53l-48 50
c-43 43 -43 67 1 111c41 44 63 43 103 -2z" />
    <glyph glyph-name="onequarter" unicode="&#xbc;" horiz-adv-x="965" 
d="M709 649l-373 -636c-29 -53 -50 -55 -100 -19c-48 35 -55 57 -23 110l368 624c30 51 51 55 103 24c49 -31 58 -51 25 -103zM272 664l-11 -323c-3 -52 -15 -66 -69 -63c-53 3 -68 14 -73 67l-22 213l-18 -7c-40 -16 -53 -8 -54 35c-3 44 4 71 38 126c33 55 54 63 127 52
c69 -11 85 -31 82 -100zM644 179l113 -6l-9 156zM905 69c16 -69 8 -85 -55 -93c-59 -8 -77 4 -82 65l-3 32l-155 6c-27 1 -37 5 -56 24c-21 21 -23 30 -12 55l96 219c27 61 47 80 116 93c64 13 84 2 95 -65l42 -240l17 -1c37 -3 45 -12 40 -49l-2 -13
c-4 -28 -12 -33 -41 -33z" />
    <glyph glyph-name="onehalf" unicode="&#xbd;" horiz-adv-x="1019" 
d="M709 649l-373 -636c-29 -53 -50 -55 -100 -19c-48 35 -55 57 -23 110l368 624c30 51 51 55 103 24c49 -31 58 -51 25 -103zM652 18l-1 3v-1c1 -1 1 -1 1 -2zM272 664l-11 -323c-3 -52 -15 -66 -69 -63c-53 3 -68 14 -73 67l-22 213l-18 -7c-40 -16 -53 -8 -54 35
c-3 44 4 71 38 126c33 55 54 63 127 52c69 -11 85 -31 82 -100zM975 19c-3 -62 -17 -78 -78 -73l-172 12c-49 3 -64 15 -74 62c-11 49 -5 61 42 84c60 30 115 76 115 115c0 40 -37 52 -77 52c-14 0 -27 -1 -39 -3c-31 -5 -36 -1 -39 30l-12 150c-1 12 2 18 31 18
c173 0 322 -45 322 -153c0 -120 -93 -155 -212 -203l119 -9c60 -5 77 -21 74 -82z" />
    <glyph glyph-name="threequarters" unicode="&#xbe;" horiz-adv-x="1045" 
d="M789 649l-373 -636c-29 -53 -50 -55 -100 -19c-48 35 -55 57 -23 110l368 624c30 51 51 55 103 24c49 -31 58 -51 25 -103zM184 270c-41 0 -78 4 -112 13c-51 15 -62 34 -43 82c19 53 30 60 83 36c24 -11 50 -17 73 -17c29 0 51 11 51 39c0 23 -30 44 -81 59
c-29 8 -34 15 -34 43c0 29 5 35 33 38c44 7 82 22 82 53c0 23 -26 30 -58 30c-23 0 -49 -4 -73 -9c-56 -13 -68 -3 -68 55v48c0 35 8 44 43 47c16 1 32 1 47 1c169 0 293 -58 293 -145c0 -61 -57 -99 -137 -120c60 -31 100 -81 100 -132c0 -88 -116 -121 -199 -121zM724 179
l113 -6l-9 156zM985 69c16 -69 8 -85 -55 -93c-59 -8 -77 4 -82 65l-3 32l-155 6c-27 1 -37 5 -56 24c-21 21 -23 30 -12 55l96 219c27 61 47 80 116 93c64 13 84 2 95 -65l42 -240l17 -1c37 -3 45 -12 40 -49l-2 -13c-4 -28 -12 -33 -41 -33z" />
    <glyph glyph-name="questiondown" unicode="&#xbf;" horiz-adv-x="541" 
d="M282 312c-7 0 -12 -1 -19 -4c-12 -4 -15 -3 -16 10l-2 23c-3 28 3 40 30 52c37 17 74 25 111 25c75 0 134 -37 134 -88c0 -140 -254 -82 -254 -190c0 -44 48 -85 141 -85c14 0 30 1 47 3c36 5 43 -2 46 -39l5 -80c3 -53 -12 -69 -65 -74c-23 -2 -47 -3 -71 -3
c-192 0 -352 67 -352 198c0 185 282 171 282 239c0 9 -6 13 -17 13zM386 677c56 0 109 -46 109 -110c0 -60 -48 -112 -108 -112c-56 0 -109 47 -109 111c0 56 44 111 108 111z" />
    <glyph glyph-name="Agrave" unicode="&#xc0;" 
d="M336 951l61 -64c23 -25 23 -37 -1 -61l-1 -1c-25 -25 -36 -26 -67 -10l-78 41c-52 27 -56 47 -17 91l2 2c39 44 60 46 101 2zM496 677l203 -583c27 -73 10 -95 -67 -98l-33 -2c-100 -5 -106 13 -125 93l-22 86l-193 -7l-11 -61c-13 -81 -18 -95 -119 -103l-29 -2
c-77 -4 -94 17 -74 92l153 561c21 80 44 99 184 110c82 5 106 -8 133 -86zM286 305h131l-74 236z" />
    <glyph glyph-name="Aacute" unicode="&#xc1;" 
d="M466 909l-81 -81c-25 -27 -37 -30 -72 -15l-2 1c-33 13 -36 25 -19 56l42 75c32 56 51 62 111 43h2c56 -19 60 -38 19 -79zM496 677l203 -583c27 -73 10 -95 -67 -98l-33 -2c-100 -5 -106 13 -125 93l-22 86l-193 -7l-11 -61c-13 -81 -18 -95 -119 -103l-29 -2
c-77 -4 -94 17 -74 92l153 561c21 80 44 99 184 110c82 5 106 -8 133 -86zM286 305h131l-74 236z" />
    <glyph glyph-name="Acircumflex" unicode="&#xc2;" 
d="M428 978l53 -82c27 -40 20 -55 -25 -71l-1 -1c-47 -16 -62 -10 -81 37l-25 63l-40 -72c-21 -39 -36 -45 -79 -34h-1c-41 11 -47 24 -24 60l65 103c21 35 36 44 78 41h1c41 -3 55 -10 79 -44zM496 677l203 -583c27 -73 10 -95 -67 -98l-33 -2c-100 -5 -106 13 -125 93
l-22 86l-193 -7l-11 -61c-13 -81 -18 -95 -119 -103l-29 -2c-77 -4 -94 17 -74 92l153 561c21 80 44 99 184 110c82 5 106 -8 133 -86zM286 305h131l-74 236z" />
    <glyph glyph-name="Atilde" unicode="&#xc3;" 
d="M298 862c-13 0 -21 -7 -25 -22c-8 -25 -12 -27 -37 -24l-19 3c-39 5 -47 17 -44 54c3 53 20 121 73 121c67 0 58 -66 109 -66c24 0 27 19 27 47c0 5 0 8 -1 11c0 6 3 9 9 8l99 -11c11 -3 15 -5 15 -17c1 -5 1 -10 1 -17c0 -61 -15 -149 -96 -149c-73 0 -76 62 -111 62z
M496 677l203 -583c27 -73 10 -95 -67 -98l-33 -2c-100 -5 -106 13 -125 93l-22 86l-193 -7l-11 -61c-13 -81 -18 -95 -119 -103l-29 -2c-77 -4 -94 17 -74 92l153 561c21 80 44 99 184 110c82 5 106 -8 133 -86zM286 305h131l-74 236z" />
    <glyph glyph-name="Adieresis" unicode="&#xc4;" 
d="M509 876c0 -39 -31 -71 -68 -71c-39 0 -69 32 -69 71s30 71 69 71c37 0 68 -32 68 -71zM314 876c0 -39 -31 -71 -68 -71c-39 0 -69 32 -69 71s30 71 69 71c37 0 68 -32 68 -71zM496 677l203 -583c27 -73 10 -95 -67 -98l-33 -2c-100 -5 -106 13 -125 93l-22 86l-193 -7
l-11 -61c-13 -81 -18 -95 -119 -103l-29 -2c-77 -4 -94 17 -74 92l153 561c21 80 44 99 184 110c82 5 106 -8 133 -86zM286 305h131l-74 236z" />
    <glyph glyph-name="Aring" unicode="&#xc5;" 
d="M343 1050c73 0 133 -57 133 -126c0 -68 -60 -125 -133 -125s-133 57 -133 125c0 69 60 126 133 126zM314 921c0 -21 15 -37 34 -37s34 16 34 37c0 20 -15 37 -34 37s-34 -17 -34 -37zM496 677l203 -583c27 -73 10 -95 -67 -98l-33 -2c-100 -5 -106 13 -125 93l-22 86
l-193 -7l-11 -61c-13 -81 -18 -95 -119 -103l-29 -2c-77 -4 -94 17 -74 92l153 561c21 80 44 99 184 110c82 5 106 -8 133 -86zM286 305h131l-74 236z" />
    <glyph glyph-name="AE" unicode="&#xc6;" horiz-adv-x="985" 
d="M334 321h127l-19 246zM959 141l2 -46c3 -81 -13 -99 -94 -99l-281 5c-80 0 -103 21 -108 101l-7 87l-190 -7l-47 -120c-30 -76 -55 -86 -132 -62l-7 2c-76 24 -85 50 -51 121l262 541c35 75 63 92 144 97l364 23c68 3 93 -11 93 -81c0 -69 -11 -88 -79 -96l-190 -22
l10 -102l136 10c64 5 87 -9 87 -74c0 -63 -7 -81 -71 -86l-129 -11l18 -108l165 17c79 8 102 -10 105 -90z" />
    <glyph glyph-name="Ccedilla" unicode="&#xc7;" horiz-adv-x="595" 
d="M358 -293c-31 0 -63 6 -91 14c-36 11 -44 23 -35 60l6 25c5 21 8 24 31 21c7 -1 16 -2 27 -2c23 0 40 8 40 32c0 23 -20 36 -47 45c-47 13 -54 26 -39 73l9 31c-155 51 -253 185 -253 343c0 184 130 386 398 386c23 0 49 -3 78 -8c57 -12 69 -33 50 -88l-26 -74
c-11 -29 -16 -34 -48 -26c-11 3 -24 4 -39 4c-125 0 -183 -77 -183 -156c0 -115 73 -166 158 -166c19 0 40 3 61 8c50 14 58 6 74 -41l27 -85c21 -68 6 -95 -65 -108c-34 -6 -66 -9 -97 -9c-12 0 -23 0 -34 1l-11 -36c33 -5 146 -24 146 -115c0 -83 -57 -129 -137 -129z" />
    <glyph glyph-name="Egrave" unicode="&#xc8;" horiz-adv-x="583" 
d="M272 953l61 -64c23 -25 23 -37 -1 -61l-1 -1c-25 -25 -36 -26 -67 -10l-78 41c-52 27 -56 47 -17 91l2 2c39 44 60 46 101 2zM557 141l2 -46c3 -81 -13 -99 -94 -99l-281 5c-80 0 -103 21 -108 101l-41 532c-5 81 10 101 91 112l287 34c68 8 87 -8 92 -77
s-11 -88 -79 -96l-190 -22l10 -102l136 10c63 5 82 -10 87 -74c5 -63 -8 -81 -71 -86l-132 -11l15 -108l170 17c80 8 101 -10 106 -90z" />
    <glyph glyph-name="Eacute" unicode="&#xc9;" horiz-adv-x="583" 
d="M362 909l-81 -81c-25 -27 -37 -30 -72 -15l-2 1c-33 13 -36 25 -19 56l42 75c32 56 51 62 111 43h2c56 -19 60 -38 19 -79zM557 141l2 -46c3 -81 -13 -99 -94 -99l-281 5c-80 0 -103 21 -108 101l-41 532c-5 81 10 101 91 112l287 34c68 8 87 -8 92 -77s-11 -88 -79 -96
l-190 -22l10 -102l136 10c63 5 82 -10 87 -74c5 -63 -8 -81 -71 -86l-132 -11l15 -108l170 17c80 8 101 -10 106 -90z" />
    <glyph glyph-name="Ecircumflex" unicode="&#xca;" horiz-adv-x="583" 
d="M342 981l60 -77c29 -37 25 -53 -19 -73h-1c-44 -21 -62 -15 -83 29l-31 61l-34 -75c-19 -41 -32 -48 -76 -40h-1c-43 8 -48 21 -29 58l57 108c19 37 33 44 74 47h1c41 3 57 -6 82 -38zM557 141l2 -46c3 -81 -13 -99 -94 -99l-281 5c-80 0 -103 21 -108 101l-41 532
c-5 81 10 101 91 112l287 34c68 8 87 -8 92 -77s-11 -88 -79 -96l-190 -22l10 -102l136 10c63 5 82 -10 87 -74c5 -63 -8 -81 -71 -86l-132 -11l15 -108l170 17c80 8 101 -10 106 -90z" />
    <glyph glyph-name="Edieresis" unicode="&#xcb;" horiz-adv-x="583" 
d="M434 878c0 -39 -31 -71 -68 -71c-39 0 -69 32 -69 71s30 71 69 71c37 0 68 -32 68 -71zM239 862c0 -39 -31 -71 -68 -71c-39 0 -69 32 -69 71s30 71 69 71c37 0 68 -32 68 -71zM557 141l2 -46c3 -81 -13 -99 -94 -99l-281 5c-80 0 -103 21 -108 101l-41 532
c-5 81 10 101 91 112l287 34c68 8 87 -8 92 -77s-11 -88 -79 -96l-190 -22l10 -102l136 10c63 5 82 -10 87 -74c5 -63 -8 -81 -71 -86l-132 -11l15 -108l170 17c80 8 101 -10 106 -90z" />
    <glyph glyph-name="Igrave" unicode="&#xcc;" horiz-adv-x="498" 
d="M280 951l61 -64c23 -25 23 -37 -1 -61l-1 -1c-25 -25 -36 -26 -67 -10l-78 41c-52 27 -56 47 -17 91l2 2c39 44 60 46 101 2zM427 100l-2 -27c-5 -78 -24 -95 -102 -87l-198 20c-72 8 -88 26 -83 99l1 9c5 68 21 81 90 78l15 371c-65 0 -80 15 -83 79v9
c-3 69 15 88 83 91l247 10c75 3 96 -16 93 -93s-21 -96 -101 -96l-27 -388c59 -3 70 -19 67 -75z" />
    <glyph glyph-name="Iacute" unicode="&#xcd;" horiz-adv-x="498" 
d="M400 910l-81 -81c-25 -27 -37 -30 -72 -15l-2 1c-33 13 -36 25 -19 56l42 75c32 56 51 62 111 43h2c56 -19 60 -38 19 -79zM427 100l-2 -27c-5 -78 -24 -95 -102 -87l-198 20c-72 8 -88 26 -83 99l1 9c5 68 21 81 90 78l15 371c-65 0 -80 15 -83 79v9c-3 69 15 88 83 91
l247 10c75 3 96 -16 93 -93s-21 -96 -101 -96l-27 -388c59 -3 70 -19 67 -75z" />
    <glyph glyph-name="Icircumflex" unicode="&#xce;" horiz-adv-x="498" 
d="M373 975l53 -82c27 -40 20 -55 -25 -71l-1 -1c-47 -16 -62 -10 -81 37l-25 63l-40 -72c-21 -39 -36 -45 -79 -34h-1c-41 11 -47 24 -24 60l65 103c21 35 36 44 78 41h1c41 -3 55 -10 79 -44zM427 100l-2 -27c-5 -78 -24 -95 -102 -87l-198 20c-72 8 -88 26 -83 99l1 9
c5 68 21 81 90 78l15 371c-65 0 -80 15 -83 79v9c-3 69 15 88 83 91l247 10c75 3 96 -16 93 -93s-21 -96 -101 -96l-27 -388c59 -3 70 -19 67 -75z" />
    <glyph glyph-name="Idieresis" unicode="&#xcf;" horiz-adv-x="498" 
d="M446 867c0 -39 -31 -71 -68 -71c-39 0 -69 32 -69 71s30 71 69 71c37 0 68 -32 68 -71zM251 867c0 -39 -31 -71 -68 -71c-39 0 -69 32 -69 71s30 71 69 71c37 0 68 -32 68 -71zM427 100l-2 -27c-5 -78 -24 -95 -102 -87l-198 20c-72 8 -88 26 -83 99l1 9
c5 68 21 81 90 78l15 371c-65 0 -80 15 -83 79v9c-3 69 15 88 83 91l247 10c75 3 96 -16 93 -93s-21 -96 -101 -96l-27 -388c59 -3 70 -19 67 -75z" />
    <glyph glyph-name="Eth" unicode="&#xd0;" horiz-adv-x="725" 
d="M131 -27c-15 0 -28 1 -43 1c-33 3 -41 11 -41 44l2 239c-32 -3 -40 4 -43 35l-6 65c-4 44 6 56 51 59l2 238c0 50 13 62 63 65c21 0 43 1 64 1c301 0 523 -119 523 -352s-279 -395 -572 -395zM241 276l-3 -74c150 0 225 87 225 171c0 78 -65 154 -193 154
c-5 0 -10 -1 -17 -1l-5 -97l18 1c60 5 82 -8 82 -69c0 -58 -7 -76 -66 -81z" />
    <glyph glyph-name="Ntilde" unicode="&#xd1;" horiz-adv-x="737" 
d="M313 852c-13 0 -21 -7 -25 -22c-8 -25 -12 -27 -37 -24l-19 3c-39 5 -47 17 -44 54c3 53 20 121 73 121c67 0 58 -66 109 -66c24 0 27 19 27 47c0 5 0 8 -1 11c0 6 3 9 9 8l99 -11c11 -3 15 -5 15 -17c1 -5 1 -10 1 -17c0 -61 -15 -149 -96 -149c-73 0 -76 62 -111 62z
M700 650l-53 -602c-5 -46 -14 -57 -62 -68c-45 -8 -63 -3 -87 37l-242 376l14 -304c3 -79 -17 -98 -95 -90l-16 2c-81 8 -99 29 -102 110l-12 477c-3 80 15 106 95 119l37 6c80 13 106 3 144 -70l152 -288l-11 281c-3 80 16 103 96 106l51 2c78 3 99 -15 91 -94z" />
    <glyph glyph-name="Ograve" unicode="&#xd2;" horiz-adv-x="812" 
d="M403 957l61 -64c23 -25 23 -37 -1 -61l-1 -1c-25 -25 -36 -26 -67 -10l-78 41c-52 27 -56 47 -17 91l2 2c39 44 60 46 101 2zM406 761c245 0 381 -188 381 -392c0 -232 -186 -377 -394 -377c-200 0 -368 158 -368 370c0 219 141 399 381 399zM409 180
c88 0 146 73 146 180c0 78 -51 161 -147 161s-160 -71 -160 -175c0 -84 51 -166 161 -166z" />
    <glyph glyph-name="Oacute" unicode="&#xd3;" horiz-adv-x="812" 
d="M530 913l-81 -81c-25 -27 -37 -30 -72 -15l-2 1c-33 13 -36 25 -19 56l42 75c32 56 51 62 111 43h2c56 -19 60 -38 19 -79zM406 761c245 0 381 -188 381 -392c0 -232 -186 -377 -394 -377c-200 0 -368 158 -368 370c0 219 141 399 381 399zM409 180c88 0 146 73 146 180
c0 78 -51 161 -147 161s-160 -71 -160 -175c0 -84 51 -166 161 -166z" />
    <glyph glyph-name="Ocircumflex" unicode="&#xd4;" horiz-adv-x="812" 
d="M488 973l53 -82c27 -40 20 -55 -25 -71l-1 -1c-47 -16 -62 -10 -81 37l-25 63l-40 -72c-21 -39 -36 -45 -79 -34h-1c-41 11 -47 24 -24 60l65 103c21 35 36 44 78 41h1c41 -3 55 -10 79 -44zM406 761c245 0 381 -188 381 -392c0 -232 -186 -377 -394 -377
c-200 0 -368 158 -368 370c0 219 141 399 381 399zM409 180c88 0 146 73 146 180c0 78 -51 161 -147 161s-160 -71 -160 -175c0 -84 51 -166 161 -166z" />
    <glyph glyph-name="Otilde" unicode="&#xd5;" horiz-adv-x="812" 
d="M366 862c-13 0 -21 -7 -25 -22c-8 -25 -12 -27 -37 -24l-19 3c-39 5 -47 17 -44 54c3 53 20 121 73 121c67 0 58 -66 109 -66c24 0 27 19 27 47c0 5 0 8 -1 11c0 6 3 9 9 8l99 -11c11 -3 15 -5 15 -17c1 -5 1 -10 1 -17c0 -61 -15 -149 -96 -149c-73 0 -76 62 -111 62z
M406 761c245 0 381 -188 381 -392c0 -232 -186 -377 -394 -377c-200 0 -368 158 -368 370c0 219 141 399 381 399zM409 180c88 0 146 73 146 180c0 78 -51 161 -147 161s-160 -71 -160 -175c0 -84 51 -166 161 -166z" />
    <glyph glyph-name="Odieresis" unicode="&#xd6;" horiz-adv-x="812" 
d="M572 872c0 -39 -31 -71 -68 -71c-39 0 -69 32 -69 71s30 71 69 71c37 0 68 -32 68 -71zM377 872c0 -39 -31 -71 -68 -71c-39 0 -69 32 -69 71s30 71 69 71c37 0 68 -32 68 -71zM406 761c245 0 381 -188 381 -392c0 -232 -186 -377 -394 -377c-200 0 -368 158 -368 370
c0 219 141 399 381 399zM409 180c88 0 146 73 146 180c0 78 -51 161 -147 161s-160 -71 -160 -175c0 -84 51 -166 161 -166z" />
    <glyph glyph-name="multiply" unicode="&#xd7;" horiz-adv-x="427" 
d="M307 320l62 -60c35 -33 36 -50 -3 -83c-37 -32 -54 -32 -91 1l-56 52l-65 -67c-33 -35 -50 -35 -82 2c-33 39 -32 54 0 92l54 58l-62 57c-39 36 -39 54 -2 94c35 40 56 38 92 2l60 -58l53 58c35 39 53 39 93 2c39 -36 39 -55 3 -92z" />
    <glyph glyph-name="Oslash" unicode="&#xd8;" horiz-adv-x="812" 
d="M248 346c0 -35 7 -69 26 -97l127 272c-93 -4 -153 -74 -153 -175zM555 360c0 31 -8 62 -23 89l-143 -268c7 -1 13 -1 20 -1c88 0 146 73 146 180zM295 5l-32 -61c-21 -40 -37 -44 -74 -17c-39 29 -43 46 -24 89l19 40c-96 65 -159 174 -159 306c0 219 141 399 381 399
c36 0 70 -4 101 -12l10 22c30 59 51 67 108 29c56 -38 63 -59 30 -119l-3 -6c88 -75 135 -187 135 -306c0 -232 -186 -377 -394 -377c-35 0 -67 5 -98 13z" />
    <glyph glyph-name="Ugrave" unicode="&#xd9;" horiz-adv-x="700" 
d="M371 951l61 -64c23 -25 23 -37 -1 -61l-1 -1c-25 -25 -36 -26 -67 -10l-78 41c-52 27 -56 47 -17 91l2 2c39 44 60 46 101 2zM490 521c0 47 -3 92 -7 133c-8 71 7 91 81 96c69 8 88 -12 96 -80c4 -46 6 -94 6 -144c0 -275 -73 -567 -310 -567c-219 0 -322 267 -322 578
c0 39 3 84 7 128c8 77 29 100 109 89l30 -4c84 -8 95 -26 87 -108c-3 -35 -5 -69 -5 -100c0 -184 34 -309 112 -309c87 0 116 119 116 288z" />
    <glyph glyph-name="Uacute" unicode="&#xda;" horiz-adv-x="700" 
d="M507 901l-81 -81c-25 -27 -37 -30 -72 -15l-2 1c-33 13 -36 25 -19 56l42 75c32 56 51 62 111 43h2c56 -19 60 -38 19 -79zM490 521c0 47 -3 92 -7 133c-8 71 7 91 81 96c69 8 88 -12 96 -80c4 -46 6 -94 6 -144c0 -275 -73 -567 -310 -567c-219 0 -322 267 -322 578
c0 39 3 84 7 128c8 77 29 100 109 89l30 -4c84 -8 95 -26 87 -108c-3 -35 -5 -69 -5 -100c0 -184 34 -309 112 -309c87 0 116 119 116 288z" />
    <glyph glyph-name="Ucircumflex" unicode="&#xdb;" horiz-adv-x="700" 
d="M462 972l53 -82c27 -40 20 -55 -25 -71l-1 -1c-47 -16 -62 -10 -81 37l-25 63l-40 -72c-21 -39 -36 -45 -79 -34h-1c-41 11 -47 24 -24 60l65 103c21 35 36 44 78 41h1c41 -3 55 -10 79 -44zM490 521c0 47 -3 92 -7 133c-8 71 7 91 81 96c69 8 88 -12 96 -80
c4 -46 6 -94 6 -144c0 -275 -73 -567 -310 -567c-219 0 -322 267 -322 578c0 39 3 84 7 128c8 77 29 100 109 89l30 -4c84 -8 95 -26 87 -108c-3 -35 -5 -69 -5 -100c0 -184 34 -309 112 -309c87 0 116 119 116 288z" />
    <glyph glyph-name="Udieresis" unicode="&#xdc;" horiz-adv-x="700" 
d="M543 874c0 -39 -31 -71 -68 -71c-39 0 -69 32 -69 71s30 71 69 71c37 0 68 -32 68 -71zM348 874c0 -39 -31 -71 -68 -71c-39 0 -69 32 -69 71s30 71 69 71c37 0 68 -32 68 -71zM490 521c0 47 -3 92 -7 133c-8 71 7 91 81 96c69 8 88 -12 96 -80c4 -46 6 -94 6 -144
c0 -275 -73 -567 -310 -567c-219 0 -322 267 -322 578c0 39 3 84 7 128c8 77 29 100 109 89l30 -4c84 -8 95 -26 87 -108c-3 -35 -5 -69 -5 -100c0 -184 34 -309 112 -309c87 0 116 119 116 288z" />
    <glyph glyph-name="Yacute" unicode="&#xdd;" horiz-adv-x="727" 
d="M528 904l-81 -81c-25 -27 -37 -30 -72 -15l-2 1c-33 13 -36 25 -19 56l42 75c32 56 51 62 111 43h2c56 -19 60 -38 19 -79zM492 316l2 -234c0 -81 -18 -104 -99 -109l-46 -3c-79 -5 -101 12 -101 91l-3 262l-218 285c-47 61 -39 86 34 111l84 29c77 27 104 16 144 -55
l115 -205l116 206c37 67 64 78 139 49c71 -27 79 -52 38 -115z" />
    <glyph glyph-name="Thorn" unicode="&#xde;" horiz-adv-x="663" 
d="M340 444c-27 0 -55 -4 -78 -12l5 -158c9 -1 18 -1 26 -1c109 0 171 38 171 91c0 43 -39 80 -124 80zM264 88l1 -13c5 -80 -15 -101 -94 -104l-31 -1c-81 -3 -99 16 -99 96l4 580c0 81 22 96 101 101l20 1c78 3 100 -18 100 -109h33c241 0 349 -125 349 -256
c0 -176 -131 -296 -358 -296c-9 0 -17 1 -26 1z" />
    <glyph glyph-name="germandbls" unicode="&#xdf;" horiz-adv-x="1289" 
d="M287 -30c-83 0 -165 21 -236 69c-49 33 -52 60 -15 105c43 51 58 56 122 24c32 -15 63 -22 94 -22c76 0 136 36 136 91c0 97 -380 10 -380 275c0 181 222 253 378 253c35 0 70 -3 105 -10c69 -15 84 -40 59 -107l-8 -21c-24 -59 -34 -64 -97 -48c-25 7 -51 10 -75 10
c-76 0 -138 -31 -138 -79c0 -101 398 4 398 -295c0 -145 -166 -245 -343 -245zM680 144c43 51 58 56 122 24c32 -15 63 -22 94 -22c76 0 136 36 136 91c0 97 -380 10 -380 275c0 181 222 253 378 253c35 0 70 -3 105 -10c69 -15 84 -40 59 -107l-8 -21
c-24 -59 -34 -64 -97 -48c-25 7 -51 10 -75 10c-76 0 -138 -31 -138 -79c0 -101 398 4 398 -295c0 -145 -166 -245 -343 -245c-83 0 -165 21 -236 69c-49 33 -52 60 -15 105z" />
    <glyph glyph-name="agrave" unicode="&#xe0;" horiz-adv-x="719" 
d="M350 967l61 -64c23 -25 23 -37 -1 -61l-1 -1c-25 -25 -36 -26 -67 -10l-78 41c-52 27 -56 47 -17 91l2 2c39 44 60 46 101 2zM286 255l128 8l-71 235zM486 665l200 -539c27 -75 16 -100 -61 -122c-105 -30 -128 -17 -152 61l-17 57l-198 -14l-12 -53
c-16 -79 -41 -95 -119 -79l-30 5c-78 16 -92 38 -68 114l179 576c24 77 48 95 130 92c96 -3 119 -21 148 -98z" />
    <glyph glyph-name="aacute" unicode="&#xe1;" horiz-adv-x="719" 
d="M489 912l-81 -81c-25 -27 -37 -30 -72 -15l-2 1c-33 13 -36 25 -19 56l42 75c32 56 51 62 111 43h2c56 -19 60 -38 19 -79zM286 255l128 8l-71 235zM486 665l200 -539c27 -75 16 -100 -61 -122c-105 -30 -128 -17 -152 61l-17 57l-198 -14l-12 -53
c-16 -79 -41 -95 -119 -79l-30 5c-78 16 -92 38 -68 114l179 576c24 77 48 95 130 92c96 -3 119 -21 148 -98z" />
    <glyph glyph-name="acircumflex" unicode="&#xe2;" horiz-adv-x="719" 
d="M444 978l53 -82c27 -40 20 -55 -25 -71l-1 -1c-47 -16 -62 -10 -81 37l-25 63l-40 -72c-21 -39 -36 -45 -79 -34h-1c-41 11 -47 24 -24 60l65 103c21 35 36 44 78 41h1c41 -3 55 -10 79 -44zM286 255l128 8l-71 235zM486 665l200 -539c27 -75 16 -100 -61 -122
c-105 -30 -128 -17 -152 61l-17 57l-198 -14l-12 -53c-16 -79 -41 -95 -119 -79l-30 5c-78 16 -92 38 -68 114l179 576c24 77 48 95 130 92c96 -3 119 -21 148 -98z" />
    <glyph glyph-name="atilde" unicode="&#xe3;" horiz-adv-x="719" 
d="M319 862c-13 0 -21 -7 -25 -22c-8 -25 -12 -27 -37 -24l-19 3c-39 5 -47 17 -44 54c3 53 20 121 73 121c67 0 58 -66 109 -66c24 0 27 19 27 47c0 5 0 8 -1 11c0 6 3 9 9 8l99 -11c11 -3 15 -5 15 -17c1 -5 1 -10 1 -17c0 -61 -15 -149 -96 -149c-73 0 -76 62 -111 62z
M286 255l128 8l-71 235zM486 665l200 -539c27 -75 16 -100 -61 -122c-105 -30 -128 -17 -152 61l-17 57l-198 -14l-12 -53c-16 -79 -41 -95 -119 -79l-30 5c-78 16 -92 38 -68 114l179 576c24 77 48 95 130 92c96 -3 119 -21 148 -98z" />
    <glyph glyph-name="adieresis" unicode="&#xe4;" horiz-adv-x="719" 
d="M515 876c0 -39 -31 -71 -68 -71c-39 0 -69 32 -69 71s30 71 69 71c37 0 68 -32 68 -71zM320 876c0 -39 -31 -71 -68 -71c-39 0 -69 32 -69 71s30 71 69 71c37 0 68 -32 68 -71zM286 255l128 8l-71 235zM486 665l200 -539c27 -75 16 -100 -61 -122
c-105 -30 -128 -17 -152 61l-17 57l-198 -14l-12 -53c-16 -79 -41 -95 -119 -79l-30 5c-78 16 -92 38 -68 114l179 576c24 77 48 95 130 92c96 -3 119 -21 148 -98z" />
    <glyph glyph-name="aring" unicode="&#xe5;" horiz-adv-x="719" 
d="M351 1042c73 0 133 -57 133 -126c0 -68 -60 -125 -133 -125s-133 57 -133 125c0 69 60 126 133 126zM322 913c0 -21 15 -37 34 -37s34 16 34 37c0 20 -15 37 -34 37s-34 -17 -34 -37zM286 255l128 8l-71 235zM486 665l200 -539c27 -75 16 -100 -61 -122
c-105 -30 -128 -17 -152 61l-17 57l-198 -14l-12 -53c-16 -79 -41 -95 -119 -79l-30 5c-78 16 -92 38 -68 114l179 576c24 77 48 95 130 92c96 -3 119 -21 148 -98z" />
    <glyph glyph-name="ae" unicode="&#xe6;" horiz-adv-x="973" 
d="M286 248l128 8l-71 235zM958 120c0 -69 -9 -87 -76 -98l-281 -44c-80 -13 -104 3 -128 80l-17 57l-198 -14l-12 -53c-16 -79 -41 -95 -119 -79l-30 5c-78 16 -92 38 -68 114l179 576c24 77 48 95 130 92l93 -3c16 -1 21 -4 28 -20l387 27c80 5 102 -13 102 -93v-42
c0 -79 -17 -101 -98 -104l-308 -14l37 -100l251 22c55 5 71 -8 74 -65c3 -56 -9 -70 -65 -75l-209 -20l37 -99l201 24c65 8 90 -7 90 -74z" />
    <glyph glyph-name="ccedilla" unicode="&#xe7;" horiz-adv-x="517" 
d="M321 -295c-31 0 -63 6 -91 14c-36 11 -44 23 -35 60l6 25c5 21 8 24 31 21c7 -1 16 -2 27 -2c23 0 40 8 40 32c0 23 -20 36 -47 45c-47 13 -54 26 -39 73l9 33c-133 61 -196 191 -196 325c0 204 143 419 391 419c9 0 19 0 28 -1c21 -1 25 -7 28 -27l9 -113
c8 -91 -3 -104 -90 -130c-83 -24 -126 -79 -126 -140c0 -68 72 -95 140 -95c17 0 32 1 45 4c35 7 41 1 41 -34l-1 -200c0 -32 -9 -40 -40 -43c-15 -1 -28 -1 -43 -1c-31 0 -60 3 -87 7l-9 -28c33 -5 146 -24 146 -115c0 -83 -57 -129 -137 -129z" />
    <glyph glyph-name="egrave" unicode="&#xe8;" horiz-adv-x="537" 
d="M275 956l61 -64c23 -25 23 -37 -1 -61l-1 -1c-25 -25 -36 -26 -67 -10l-78 41c-52 27 -56 47 -17 91l2 2c39 44 60 46 101 2zM518 119c3 -69 -8 -87 -76 -98l-281 -44c-78 -13 -101 5 -104 84l-29 558c-5 81 15 102 95 110l283 27c80 8 102 -10 102 -90v-42
c0 -80 -17 -103 -98 -108l-202 -15l4 -89l178 16c56 5 74 -8 74 -65c0 -55 -9 -71 -65 -76l-177 -19l4 -100l202 25c65 8 86 -7 90 -74z" />
    <glyph glyph-name="eacute" unicode="&#xe9;" horiz-adv-x="537" 
d="M382 913l-81 -81c-25 -27 -37 -30 -72 -15l-2 1c-33 13 -36 25 -19 56l42 75c32 56 51 62 111 43h2c56 -19 60 -38 19 -79zM518 119c3 -69 -8 -87 -76 -98l-281 -44c-78 -13 -101 5 -104 84l-29 558c-5 81 15 102 95 110l283 27c80 8 102 -10 102 -90v-42
c0 -80 -17 -103 -98 -108l-202 -15l4 -89l178 16c56 5 74 -8 74 -65c0 -55 -9 -71 -65 -76l-177 -19l4 -100l202 25c65 8 86 -7 90 -74z" />
    <glyph glyph-name="ecircumflex" unicode="&#xea;" horiz-adv-x="537" 
d="M332 981l60 -77c29 -37 25 -53 -19 -73h-1c-44 -21 -62 -15 -83 29l-31 61l-34 -75c-19 -41 -32 -48 -76 -40h-1c-43 8 -48 21 -29 58l57 108c19 37 33 44 74 47h1c41 3 57 -6 82 -38zM518 119c3 -69 -8 -87 -76 -98l-281 -44c-78 -13 -101 5 -104 84l-29 558
c-5 81 15 102 95 110l283 27c80 8 102 -10 102 -90v-42c0 -80 -17 -103 -98 -108l-202 -15l4 -89l178 16c56 5 74 -8 74 -65c0 -55 -9 -71 -65 -76l-177 -19l4 -100l202 25c65 8 86 -7 90 -74z" />
    <glyph glyph-name="edieresis" unicode="&#xeb;" horiz-adv-x="537" 
d="M424 870c0 -39 -31 -71 -68 -71c-39 0 -69 32 -69 71s30 71 69 71c37 0 68 -32 68 -71zM229 854c0 -39 -31 -71 -68 -71c-39 0 -69 32 -69 71s30 71 69 71c37 0 68 -32 68 -71zM518 119c3 -69 -8 -87 -76 -98l-281 -44c-78 -13 -101 5 -104 84l-29 558
c-5 81 15 102 95 110l283 27c80 8 102 -10 102 -90v-42c0 -80 -17 -103 -98 -108l-202 -15l4 -89l178 16c56 5 74 -8 74 -65c0 -55 -9 -71 -65 -76l-177 -19l4 -100l202 25c65 8 86 -7 90 -74z" />
    <glyph glyph-name="igrave" unicode="&#xec;" horiz-adv-x="324" 
d="M172 951l61 -64c23 -25 23 -37 -1 -61l-1 -1c-25 -25 -36 -26 -67 -10l-78 41c-52 27 -56 47 -17 91l2 2c39 44 60 46 101 2zM287 650l-14 -575c-3 -81 -21 -101 -102 -104l-31 -1c-80 -3 -101 16 -98 96l12 580c3 81 21 102 102 102h33c80 0 101 -18 98 -98z" />
    <glyph glyph-name="iacute" unicode="&#xed;" horiz-adv-x="324" 
d="M293 909l-81 -81c-25 -27 -37 -30 -72 -15l-2 1c-33 13 -36 25 -19 56l42 75c32 56 51 62 111 43h2c56 -19 60 -38 19 -79zM287 650l-14 -575c-3 -81 -21 -101 -102 -104l-31 -1c-80 -3 -101 16 -98 96l12 580c3 81 21 102 102 102h33c80 0 101 -18 98 -98z" />
    <glyph glyph-name="icircumflex" unicode="&#xee;" horiz-adv-x="324" 
d="M254 978l53 -82c27 -40 20 -55 -25 -71l-1 -1c-47 -16 -62 -10 -81 37l-25 63l-40 -72c-21 -39 -36 -45 -79 -34h-1c-41 11 -47 24 -24 60l65 103c21 35 36 44 78 41h1c41 -3 55 -10 79 -44zM287 650l-14 -575c-3 -81 -21 -101 -102 -104l-31 -1c-80 -3 -101 16 -98 96
l12 580c3 81 21 102 102 102h33c80 0 101 -18 98 -98z" />
    <glyph glyph-name="idieresis" unicode="&#xef;" horiz-adv-x="324" 
d="M339 876c0 -39 -31 -71 -68 -71c-39 0 -69 32 -69 71s30 71 69 71c37 0 68 -32 68 -71zM144 876c0 -39 -31 -71 -68 -71c-39 0 -69 32 -69 71s30 71 69 71c37 0 68 -32 68 -71zM287 650l-14 -575c-3 -81 -21 -101 -102 -104l-31 -1c-80 -3 -101 16 -98 96l12 580
c3 81 21 102 102 102h33c80 0 101 -18 98 -98z" />
    <glyph glyph-name="eth" unicode="&#xf0;" 
d="M165 -17c-16 0 -31 -1 -47 2c-36 4 -44 12 -47 47l-13 255h-1c-41 -1 -52 8 -57 49l-1 11c-7 48 4 61 53 64l-11 229c-3 64 14 86 78 91c28 3 56 4 85 4c341 0 527 -161 527 -381c0 -186 -179 -371 -566 -371zM312 219c125 0 208 47 208 142c0 93 -90 151 -237 154
l-2 -86l33 3c56 4 80 -8 80 -67c0 -56 -6 -69 -62 -72l-54 -1l-1 -71c12 -1 24 -2 35 -2z" />
    <glyph glyph-name="ntilde" unicode="&#xf1;" horiz-adv-x="693" 
d="M282 863c-13 0 -21 -7 -25 -22c-8 -25 -12 -27 -37 -24l-19 3c-39 5 -47 17 -44 54c3 53 20 121 73 121c67 0 58 -66 109 -66c24 0 27 19 27 47c0 5 0 8 -1 11c0 6 3 9 9 8l99 -11c11 -3 15 -5 15 -17c1 -5 1 -10 1 -17c0 -61 -15 -149 -96 -149c-73 0 -76 62 -111 62z
M633 645l22 -597c3 -49 -10 -62 -61 -67c-50 -5 -67 3 -94 46l-230 356l44 -301c11 -79 -3 -102 -84 -110l-75 -9c-80 -8 -98 8 -101 89l-12 615c0 68 14 81 83 81c68 0 93 -17 133 -70l170 -232l-31 228c-11 77 8 96 85 88l48 -6c80 -8 100 -31 103 -111z" />
    <glyph glyph-name="ograve" unicode="&#xf2;" horiz-adv-x="780" 
d="M372 963l61 -64c23 -25 23 -37 -1 -61l-1 -1c-25 -25 -36 -26 -67 -10l-78 41c-52 27 -56 47 -17 91l2 2c39 44 60 46 101 2zM755 368c0 -211 -161 -397 -369 -397c-205 0 -361 181 -361 394c0 216 157 403 364 403c211 0 366 -179 366 -400zM391 180
c90 0 141 81 141 173s-55 172 -138 172c-91 0 -153 -83 -153 -175c0 -96 47 -170 150 -170z" />
    <glyph glyph-name="oacute" unicode="&#xf3;" horiz-adv-x="780" 
d="M503 913l-81 -81c-25 -27 -37 -30 -72 -15l-2 1c-33 13 -36 25 -19 56l42 75c32 56 51 62 111 43h2c56 -19 60 -38 19 -79zM755 368c0 -211 -161 -397 -369 -397c-205 0 -361 181 -361 394c0 216 157 403 364 403c211 0 366 -179 366 -400zM391 180c90 0 141 81 141 173
s-55 172 -138 172c-91 0 -153 -83 -153 -175c0 -96 47 -170 150 -170z" />
    <glyph glyph-name="ocircumflex" unicode="&#xf4;" horiz-adv-x="780" 
d="M473 978l53 -82c27 -40 20 -55 -25 -71l-1 -1c-47 -16 -62 -10 -81 37l-25 63l-40 -72c-21 -39 -36 -45 -79 -34h-1c-41 11 -47 24 -24 60l65 103c21 35 36 44 78 41h1c41 -3 55 -10 79 -44zM755 368c0 -211 -161 -397 -369 -397c-205 0 -361 181 -361 394
c0 216 157 403 364 403c211 0 366 -179 366 -400zM391 180c90 0 141 81 141 173s-55 172 -138 172c-91 0 -153 -83 -153 -175c0 -96 47 -170 150 -170z" />
    <glyph glyph-name="otilde" unicode="&#xf5;" horiz-adv-x="780" 
d="M350 862c-13 0 -21 -7 -25 -22c-8 -25 -12 -27 -37 -24l-19 3c-39 5 -47 17 -44 54c3 53 20 121 73 121c67 0 58 -66 109 -66c24 0 27 19 27 47c0 5 0 8 -1 11c0 6 3 9 9 8l99 -11c11 -3 15 -5 15 -17c1 -5 1 -10 1 -17c0 -61 -15 -149 -96 -149c-73 0 -76 62 -111 62z
M755 368c0 -211 -161 -397 -369 -397c-205 0 -361 181 -361 394c0 216 157 403 364 403c211 0 366 -179 366 -400zM391 180c90 0 141 81 141 173s-55 172 -138 172c-91 0 -153 -83 -153 -175c0 -96 47 -170 150 -170z" />
    <glyph glyph-name="odieresis" unicode="&#xf6;" horiz-adv-x="780" 
d="M556 876c0 -39 -31 -71 -68 -71c-39 0 -69 32 -69 71s30 71 69 71c37 0 68 -32 68 -71zM361 876c0 -39 -31 -71 -68 -71c-39 0 -69 32 -69 71s30 71 69 71c37 0 68 -32 68 -71zM755 368c0 -211 -161 -397 -369 -397c-205 0 -361 181 -361 394c0 216 157 403 364 403
c211 0 366 -179 366 -400zM391 180c90 0 141 81 141 173s-55 172 -138 172c-91 0 -153 -83 -153 -175c0 -96 47 -170 150 -170z" />
    <glyph glyph-name="divide" unicode="&#xf7;" horiz-adv-x="463" 
d="M342 520c0 -56 -44 -111 -108 -111c-56 0 -109 46 -109 110c0 60 48 112 108 112c56 0 109 -47 109 -111zM375 264l-287 -12c-53 -3 -64 11 -67 64c-3 51 12 67 64 67l299 5c49 1 60 -10 56 -61c-3 -51 -15 -60 -65 -63zM342 120c0 -56 -44 -111 -108 -111
c-56 0 -109 46 -109 110c0 60 48 112 108 112c56 0 109 -47 109 -111z" />
    <glyph glyph-name="oslash" unicode="&#xf8;" horiz-adv-x="780" 
d="M241 350c0 -39 7 -74 23 -102l129 277c-89 0 -152 -83 -152 -175zM379 180h12c90 0 141 81 141 173c0 29 -5 56 -16 83zM277 -11l-27 -52c-21 -40 -34 -38 -74 -17c-41 23 -43 46 -23 89l18 39c-91 72 -146 188 -146 317c0 216 157 403 364 403c37 0 74 -6 109 -17l6 13
c30 60 51 67 108 29c56 -37 63 -58 30 -118l-5 -10c75 -73 118 -178 118 -297c0 -211 -161 -397 -369 -397c-39 0 -74 7 -109 18z" />
    <glyph glyph-name="ugrave" unicode="&#xf9;" horiz-adv-x="704" 
d="M368 936l61 -64c23 -25 23 -37 -1 -61l-1 -1c-25 -25 -36 -26 -67 -10l-78 41c-52 27 -56 47 -17 91l2 2c39 44 60 46 101 2zM500 496c0 49 -3 100 -10 151c-8 77 8 95 86 95h10c71 0 88 -21 93 -89c2 -29 3 -59 3 -90c0 -332 -82 -601 -314 -601
c-211 0 -340 306 -340 640c0 24 1 47 2 71c3 55 18 66 73 62l117 -9c64 -5 75 -20 72 -83c-1 -25 -2 -52 -2 -79c0 -204 28 -338 103 -338c77 0 107 105 107 270z" />
    <glyph glyph-name="uacute" unicode="&#xfa;" horiz-adv-x="704" 
d="M498 895l-81 -81c-25 -27 -37 -30 -72 -15l-2 1c-33 13 -36 25 -19 56l42 75c32 56 51 62 111 43h2c56 -19 60 -38 19 -79zM500 496c0 49 -3 100 -10 151c-8 77 8 95 86 95h10c71 0 88 -21 93 -89c2 -29 3 -59 3 -90c0 -332 -82 -601 -314 -601c-211 0 -340 306 -340 640
c0 24 1 47 2 71c3 55 18 66 73 62l117 -9c64 -5 75 -20 72 -83c-1 -25 -2 -52 -2 -79c0 -204 28 -338 103 -338c77 0 107 105 107 270z" />
    <glyph glyph-name="ucircumflex" unicode="&#xfb;" horiz-adv-x="704" 
d="M461 968l53 -82c10 -16 15 -28 15 -37c0 -15 -33 -43 -77 -43c-21 0 -33 13 -45 45l-25 63l-40 -72c-16 -28 -26 -39 -49 -39c-41 0 -68 17 -68 32c0 9 4 20 13 33l65 103c21 35 36 41 79 41c40 0 56 -11 79 -44zM500 496c0 49 -3 100 -10 151c-8 77 8 95 86 95h10
c71 0 88 -21 93 -89c2 -29 3 -59 3 -90c0 -332 -82 -601 -314 -601c-211 0 -340 306 -340 640c0 24 1 47 2 71c3 55 18 66 73 62l117 -9c64 -5 75 -20 72 -83c-1 -25 -2 -52 -2 -79c0 -204 28 -338 103 -338c77 0 107 105 107 270z" />
    <glyph glyph-name="udieresis" unicode="&#xfc;" horiz-adv-x="704" 
d="M543 869c0 -39 -31 -71 -68 -71c-39 0 -69 32 -69 71s30 71 69 71c37 0 68 -32 68 -71zM348 869c0 -39 -31 -71 -68 -71c-39 0 -69 32 -69 71s30 71 69 71c37 0 68 -32 68 -71zM500 496c0 49 -3 100 -10 151c-8 77 8 95 86 95h10c71 0 88 -21 93 -89c2 -29 3 -59 3 -90
c0 -332 -82 -601 -314 -601c-211 0 -340 306 -340 640c0 24 1 47 2 71c3 55 18 66 73 62l117 -9c64 -5 75 -20 72 -83c-1 -25 -2 -52 -2 -79c0 -204 28 -338 103 -338c77 0 107 105 107 270z" />
    <glyph glyph-name="yacute" unicode="&#xfd;" horiz-adv-x="701" 
d="M474 902l-81 -81c-25 -27 -37 -30 -72 -15l-2 1c-33 13 -36 25 -19 56l42 75c32 56 51 62 111 43h2c56 -19 60 -38 19 -79zM491 289l3 -208c0 -80 -18 -101 -99 -98l-61 1c-79 3 -100 21 -97 102l7 202l-203 263c-48 64 -46 89 22 135l38 27c66 48 94 39 139 -27
l137 -205l99 193c35 73 63 80 139 54l10 -3c76 -24 85 -52 45 -122z" />
    <glyph glyph-name="thorn" unicode="&#xfe;" horiz-adv-x="663" 
d="M340 454c-27 0 -55 -4 -78 -12l5 -179c9 -1 18 -1 26 -1c109 0 171 59 171 112c0 43 -39 80 -124 80zM264 98l1 -13c5 -80 -15 -101 -94 -104l-31 -1c-81 -3 -99 16 -99 96l4 580c0 80 22 101 101 101h8c79 0 101 -18 101 -98v-10h44c241 0 349 -125 349 -256
c0 -144 -131 -296 -358 -296c-9 0 -17 1 -26 1z" />
    <glyph glyph-name="ydieresis" unicode="&#xff;" horiz-adv-x="701" 
d="M515 869c0 -39 -31 -71 -68 -71c-39 0 -69 32 -69 71s30 71 69 71c37 0 68 -32 68 -71zM320 869c0 -39 -31 -71 -68 -71c-39 0 -69 32 -69 71s30 71 69 71c37 0 68 -32 68 -71zM491 289l3 -208c0 -80 -18 -101 -99 -98l-61 1c-79 3 -100 21 -97 102l7 202l-203 263
c-48 64 -46 89 22 135l38 27c66 48 94 39 139 -27l137 -205l99 193c35 73 63 80 139 54l10 -3c76 -24 85 -52 45 -122z" />
    <glyph glyph-name="Amacron" unicode="&#x100;" 
d="M191 945l287 5c53 1 66 -13 62 -68c-3 -54 -17 -67 -71 -70l-274 -11c-59 -3 -71 11 -74 71c-3 58 12 73 70 73zM496 677l203 -583c27 -73 10 -95 -67 -98l-33 -2c-100 -5 -106 13 -125 93l-22 86l-193 -7l-11 -61c-13 -81 -18 -95 -119 -103l-29 -2
c-77 -4 -94 17 -74 92l153 561c21 80 44 99 184 110c82 5 106 -8 133 -86zM286 305h131l-74 236z" />
    <glyph glyph-name="amacron" unicode="&#x101;" horiz-adv-x="719" 
d="M202 947l287 5c31 0 62 -7 62 -68c0 -54 -18 -67 -71 -70l-274 -11c-59 -3 -71 11 -74 71c-3 58 12 73 70 73zM286 255l128 8l-71 235zM486 665l200 -539c27 -75 16 -100 -61 -122c-105 -30 -128 -17 -152 61l-17 57l-198 -14l-12 -53c-16 -79 -41 -95 -119 -79l-30 5
c-78 16 -92 38 -68 114l179 576c24 77 48 95 130 92c96 -3 119 -21 148 -98z" />
    <glyph glyph-name="Abreve" unicode="&#x102;" 
d="M340 963c0 7 -2 12 -2 19c0 6 4 9 11 9h88c43 0 64 -15 64 -44c0 -68 -55 -150 -179 -150c-112 0 -157 82 -157 150c0 24 12 32 43 32h9c34 0 37 0 53 -35c7 -15 20 -22 38 -22c27 0 32 18 32 41zM496 677l203 -583c27 -73 10 -95 -67 -98l-33 -2
c-100 -5 -106 13 -125 93l-22 86l-193 -7l-11 -61c-13 -81 -18 -95 -119 -103l-29 -2c-77 -4 -94 17 -74 92l153 561c21 80 44 99 184 110c82 5 106 -8 133 -86zM286 305h131l-74 236z" />
    <glyph glyph-name="abreve" unicode="&#x103;" horiz-adv-x="719" 
d="M348 967c0 7 -2 12 -2 19c0 6 4 9 11 9h88c43 0 64 -15 64 -44c0 -68 -55 -150 -179 -150c-112 0 -157 82 -157 150c0 24 12 32 43 32h9c34 0 37 0 53 -35c7 -15 20 -22 38 -22c27 0 32 18 32 41zM286 255l128 8l-71 235zM486 665l200 -539c27 -75 16 -100 -61 -122
c-105 -30 -128 -17 -152 61l-17 57l-198 -14l-12 -53c-16 -79 -41 -95 -119 -79l-30 5c-78 16 -92 38 -68 114l179 576c24 77 48 95 130 92c96 -3 119 -21 148 -98z" />
    <glyph glyph-name="Aogonek" unicode="&#x104;" 
d="M619 -150c19 0 34 6 49 13c28 15 37 12 53 -15l3 -6c13 -20 10 -38 -8 -54c-36 -35 -97 -56 -156 -56c-71 0 -136 33 -136 120c0 56 38 104 75 139l-47 182l-193 -7l-11 -61c-13 -79 -37 -100 -119 -103l-29 -2c-77 -4 -94 17 -74 92l153 561c21 80 43 97 126 105l58 5
c81 8 107 -9 133 -86l199 -570c26 -78 23 -91 -55 -123c-47 -20 -68 -56 -68 -84c0 -27 19 -50 47 -50zM286 305h131l-74 236z" />
    <glyph glyph-name="aogonek" unicode="&#x105;" horiz-adv-x="719" 
d="M553 -156c19 0 34 6 49 13c28 15 37 12 53 -15l3 -6c13 -20 10 -38 -8 -54c-36 -35 -97 -56 -156 -56c-71 0 -136 33 -136 120c0 85 62 154 126 181l-28 95l-198 -14l-12 -53c-16 -79 -41 -95 -119 -79l-30 5c-78 16 -92 38 -68 114l179 576c24 77 48 91 143 91
c81 0 106 -21 135 -97l198 -535c29 -76 19 -101 -58 -130c-105 -40 -120 -74 -120 -106c0 -27 19 -50 47 -50zM286 255l128 8l-71 235z" />
    <glyph glyph-name="Cacute" unicode="&#x106;" horiz-adv-x="607" 
d="M441 890l-81 -81c-25 -27 -37 -30 -72 -15l-2 1c-33 13 -36 25 -19 56l42 75c32 56 51 62 111 43h2c56 -19 60 -38 19 -79zM406 221c19 0 40 3 61 8c50 14 58 6 74 -41l27 -85c21 -68 6 -95 -65 -108c-34 -6 -66 -9 -97 -9c-229 0 -388 163 -388 363
c0 184 130 386 398 386c23 0 49 -3 78 -8c57 -12 69 -33 50 -88l-26 -74c-11 -29 -16 -34 -48 -26c-11 3 -24 4 -39 4c-125 0 -183 -77 -183 -156c0 -115 73 -166 158 -166z" />
    <glyph glyph-name="cacute" unicode="&#x107;" horiz-adv-x="517" 
d="M406 896l-81 -81c-25 -27 -37 -30 -72 -15l-2 1c-33 13 -36 25 -19 56l42 75c32 56 51 62 111 43h2c56 -19 60 -38 19 -79zM406 244c17 0 32 1 45 4c35 7 41 1 41 -34l-1 -200c0 -32 -9 -40 -40 -43c-15 -1 -28 -1 -43 -1c-264 0 -382 176 -382 361
c0 204 143 419 391 419c9 0 19 0 28 -1c21 -1 25 -7 28 -27l9 -113c8 -91 -3 -104 -90 -130c-83 -24 -126 -79 -126 -140c0 -68 72 -95 140 -95z" />
    <glyph glyph-name="Ccircumflex" unicode="&#x108;" horiz-adv-x="607" 
d="M419 961l53 -82c27 -40 20 -55 -25 -71l-1 -1c-47 -16 -62 -10 -81 37l-25 63l-40 -72c-21 -39 -36 -45 -79 -34h-1c-41 11 -47 24 -24 60l65 103c21 35 36 44 78 41h1c41 -3 55 -10 79 -44zM406 221c19 0 40 3 61 8c50 14 58 6 74 -41l27 -85c21 -68 6 -95 -65 -108
c-34 -6 -66 -9 -97 -9c-229 0 -388 163 -388 363c0 184 130 386 398 386c23 0 49 -3 78 -8c57 -12 69 -33 50 -88l-26 -74c-11 -29 -16 -34 -48 -26c-11 3 -24 4 -39 4c-125 0 -183 -77 -183 -156c0 -115 73 -166 158 -166z" />
    <glyph glyph-name="ccircumflex" unicode="&#x109;" horiz-adv-x="517" 
d="M394 968l53 -82c27 -40 20 -55 -25 -71l-1 -1c-47 -16 -62 -10 -81 37l-25 63l-40 -72c-21 -39 -36 -45 -79 -34h-1c-41 11 -47 24 -24 60l65 103c21 35 36 44 78 41h1c41 -3 55 -10 79 -44zM406 244c17 0 32 1 45 4c35 7 41 1 41 -34l-1 -200c0 -32 -9 -40 -40 -43
c-15 -1 -28 -1 -43 -1c-264 0 -382 176 -382 361c0 204 143 419 391 419c9 0 19 0 28 -1c21 -1 25 -7 28 -27l9 -113c8 -91 -3 -104 -90 -130c-83 -24 -126 -79 -126 -140c0 -68 72 -95 140 -95z" />
    <glyph glyph-name="Cdotaccent" unicode="&#x10a;" horiz-adv-x="607" 
d="M410 855c0 -39 -31 -71 -68 -71c-39 0 -69 32 -69 71s30 71 69 71c37 0 68 -32 68 -71zM406 221c19 0 40 3 61 8c50 14 58 6 74 -41l27 -85c21 -68 6 -95 -65 -108c-34 -6 -66 -9 -97 -9c-229 0 -388 163 -388 363c0 184 130 386 398 386c23 0 49 -3 78 -8
c57 -12 69 -33 50 -88l-26 -74c-11 -29 -16 -34 -48 -26c-11 3 -24 4 -39 4c-125 0 -183 -77 -183 -156c0 -115 73 -166 158 -166z" />
    <glyph glyph-name="cdotaccent" unicode="&#x10b;" horiz-adv-x="517" 
d="M367 868c0 -39 -31 -71 -68 -71c-39 0 -69 32 -69 71s30 71 69 71c37 0 68 -32 68 -71zM406 244c17 0 32 1 45 4c35 7 41 1 41 -34l-1 -200c0 -32 -9 -40 -40 -43c-15 -1 -28 -1 -43 -1c-264 0 -382 176 -382 361c0 204 143 419 391 419c9 0 19 0 28 -1
c21 -1 25 -7 28 -27l9 -113c8 -91 -3 -104 -90 -130c-83 -24 -126 -79 -126 -140c0 -68 72 -95 140 -95z" />
    <glyph glyph-name="Ccaron" unicode="&#x10c;" horiz-adv-x="607" 
d="M481 923l-65 -103c-21 -35 -36 -44 -78 -41h-1c-41 1 -56 9 -79 44l-53 82c-27 40 -20 55 25 71l1 1c47 16 62 10 81 -37l25 -63l40 72c21 39 36 45 79 34h1c41 -11 47 -24 24 -60zM406 221c19 0 40 3 61 8c50 14 58 6 74 -41l27 -85c21 -68 6 -95 -65 -108
c-34 -6 -66 -9 -97 -9c-229 0 -388 163 -388 363c0 184 130 386 398 386c23 0 49 -3 78 -8c57 -12 69 -33 50 -88l-26 -74c-11 -29 -16 -34 -48 -26c-11 3 -24 4 -39 4c-125 0 -183 -77 -183 -156c0 -115 73 -166 158 -166z" />
    <glyph glyph-name="ccaron" unicode="&#x10d;" horiz-adv-x="517" 
d="M470 958l-56 -109c-19 -37 -33 -44 -74 -47h-1c-41 -3 -57 6 -82 38l-59 76c-31 37 -26 54 18 73l1 1c45 19 61 15 83 -29l31 -61l33 75c17 41 32 48 76 41l1 -1c43 -7 48 -20 29 -57zM406 244c17 0 32 1 45 4c35 7 41 1 41 -34l-1 -200c0 -32 -9 -40 -40 -43
c-15 -1 -28 -1 -43 -1c-264 0 -382 176 -382 361c0 204 143 419 391 419c9 0 19 0 28 -1c21 -1 25 -7 28 -27l9 -113c8 -91 -3 -104 -90 -130c-83 -24 -126 -79 -126 -140c0 -68 72 -95 140 -95z" />
    <glyph glyph-name="Dcaron" unicode="&#x10e;" 
d="M513 892l-77 -97c-25 -32 -40 -38 -81 -31h-1c-41 8 -54 15 -73 53l-43 86c-23 43 -15 58 32 69h1c48 11 63 3 76 -45l18 -65l48 67c25 35 41 40 82 25l1 -1c39 -15 44 -29 17 -61zM131 -27c-15 0 -28 0 -43 1c-33 3 -41 11 -41 44l6 636c0 50 13 62 63 65
c21 1 43 1 64 1c301 0 523 -119 523 -352s-279 -395 -572 -395zM253 526l-15 -324c150 0 225 87 225 171c0 78 -65 154 -193 154c-5 0 -10 -1 -17 -1z" />
    <glyph glyph-name="dcaron" unicode="&#x10f;" 
d="M513 903l-77 -97c-25 -32 -40 -38 -81 -31h-1c-41 8 -54 15 -73 53l-43 86c-23 43 -15 58 32 69h1c48 11 63 3 76 -45l18 -65l48 67c25 35 41 40 82 25l1 -1c39 -15 44 -29 17 -61zM165 -17c-16 0 -31 1 -47 2c-36 3 -44 12 -47 47l-30 608c-3 64 14 86 78 91
c28 3 56 4 85 4c341 0 527 -161 527 -381c0 -186 -179 -371 -566 -371zM312 219c125 0 208 47 208 142c0 93 -90 151 -237 154l-6 -294c12 -1 24 -2 35 -2z" />
    <glyph glyph-name="Dcroat" unicode="&#x110;" horiz-adv-x="725" 
d="M131 -27c-15 0 -28 1 -43 1c-33 3 -41 11 -41 44l2 239c-32 -3 -40 4 -43 35l-6 65c-4 44 6 56 51 59l2 238c0 50 13 62 63 65c21 0 43 1 64 1c301 0 523 -119 523 -352s-279 -395 -572 -395zM241 276l-3 -74c150 0 225 87 225 171c0 78 -65 154 -193 154
c-5 0 -10 -1 -17 -1l-5 -97l18 1c60 5 82 -8 82 -69c0 -58 -7 -76 -66 -81z" />
    <glyph glyph-name="dslash" unicode="&#x111;" 
d="M165 -17c-16 0 -31 -1 -47 2c-36 4 -44 12 -47 47l-13 255h-1c-41 -1 -52 8 -57 49l-1 11c-7 48 4 61 53 64l-11 229c-3 64 14 86 78 91c28 3 56 4 85 4c341 0 527 -161 527 -381c0 -186 -179 -371 -566 -371zM312 219c125 0 208 47 208 142c0 93 -90 151 -237 154
l-2 -86l33 3c56 4 80 -8 80 -67c0 -56 -6 -69 -62 -72l-54 -1l-1 -71c12 -1 24 -2 35 -2z" />
    <glyph glyph-name="Emacron" unicode="&#x112;" horiz-adv-x="583" 
d="M465 902l1 -2c0 -53 -14 -70 -67 -75l-272 -32c-58 -8 -74 5 -79 63l-1 2c-5 58 6 74 65 79l286 26c53 5 67 -8 67 -61zM557 141l2 -46c3 -81 -13 -99 -94 -99l-281 5c-80 0 -103 21 -108 101l-41 532c-5 81 10 101 91 112l287 34c68 8 87 -8 92 -77s-11 -88 -79 -96
l-190 -22l10 -102l136 10c63 5 82 -10 87 -74c5 -63 -8 -81 -71 -86l-132 -11l15 -108l170 17c80 8 101 -10 106 -90z" />
    <glyph glyph-name="emacron" unicode="&#x113;" horiz-adv-x="537" 
d="M465 902l1 -2c0 -53 -14 -70 -67 -75l-272 -32c-58 -8 -74 5 -79 63l-1 2c-5 58 6 74 65 79l286 26c53 5 67 -8 67 -61zM518 119c3 -69 -8 -87 -76 -98l-281 -44c-78 -13 -101 5 -104 84l-29 558c-5 81 15 102 95 110l283 27c80 8 102 -10 102 -90v-42
c0 -80 -17 -103 -98 -108l-202 -15l4 -89l178 16c56 5 74 -8 74 -65c0 -55 -9 -71 -65 -76l-177 -19l4 -100l202 25c65 8 86 -7 90 -74z" />
    <glyph glyph-name="Ebreve" unicode="&#x114;" horiz-adv-x="583" 
d="M257 966c0 7 -2 12 -2 19c0 6 4 9 11 9h88c43 0 64 -15 64 -44c0 -68 -55 -150 -179 -150c-112 0 -157 82 -157 150c0 24 12 32 43 32h9c34 0 37 0 53 -35c7 -15 20 -22 38 -22c27 0 32 18 32 41zM557 141l2 -46c3 -81 -13 -99 -94 -99l-281 5c-80 0 -103 21 -108 101
l-41 532c-5 81 10 101 91 112l287 34c68 8 87 -8 92 -77s-11 -88 -79 -96l-190 -22l10 -102l136 10c63 5 82 -10 87 -74c5 -63 -8 -81 -71 -86l-132 -11l15 -108l170 17c80 8 101 -10 106 -90z" />
    <glyph glyph-name="ebreve" unicode="&#x115;" horiz-adv-x="537" 
d="M264 956c0 7 -2 12 -2 19c0 6 4 9 11 9h88c43 0 64 -15 64 -44c0 -68 -55 -150 -179 -150c-112 0 -157 82 -157 150c0 24 12 32 43 32h9c34 0 37 0 53 -35c7 -15 20 -22 38 -22c27 0 32 18 32 41zM518 119c3 -69 -8 -87 -76 -98l-281 -44c-78 -13 -101 5 -104 84l-29 558
c-5 81 15 102 95 110l283 27c80 8 102 -10 102 -90v-42c0 -80 -17 -103 -98 -108l-202 -15l4 -89l178 16c56 5 74 -8 74 -65c0 -55 -9 -71 -65 -76l-177 -19l4 -100l202 25c65 8 86 -7 90 -74z" />
    <glyph glyph-name="Edotaccent" unicode="&#x116;" horiz-adv-x="583" 
d="M329 877c0 -39 -31 -71 -68 -71c-39 0 -69 32 -69 71s30 71 69 71c37 0 68 -32 68 -71zM557 141l2 -46c3 -81 -13 -99 -94 -99l-281 5c-80 0 -103 21 -108 101l-41 532c-5 81 10 101 91 112l287 34c68 8 87 -8 92 -77s-11 -88 -79 -96l-190 -22l10 -102l136 10
c63 5 82 -10 87 -74c5 -63 -8 -81 -71 -86l-132 -11l15 -108l170 17c80 8 101 -10 106 -90z" />
    <glyph glyph-name="edotaccent" unicode="&#x117;" horiz-adv-x="537" 
d="M327 871c0 -39 -31 -71 -68 -71c-39 0 -69 32 -69 71s30 71 69 71c37 0 68 -32 68 -71zM518 119c3 -69 -8 -87 -76 -98l-281 -44c-78 -13 -101 5 -104 84l-29 558c-5 81 15 102 95 110l283 27c80 8 102 -10 102 -90v-42c0 -80 -17 -103 -98 -108l-202 -15l4 -89l178 16
c56 5 74 -8 74 -65c0 -55 -9 -71 -65 -76l-177 -19l4 -100l202 25c65 8 86 -7 90 -74z" />
    <glyph glyph-name="Eogonek" unicode="&#x118;" horiz-adv-x="583" 
d="M518 -147c16 0 32 6 47 13c28 15 36 12 52 -15l2 -3c15 -23 12 -37 -9 -54c-37 -32 -99 -64 -151 -64c-68 0 -138 54 -138 127c0 56 41 105 79 141l-216 3c-82 0 -100 21 -108 101l-41 532c-5 81 10 101 91 112l287 34c68 8 87 -8 92 -77s-11 -88 -79 -96l-190 -22
l10 -102l136 10c63 5 82 -10 87 -74c5 -63 -8 -81 -71 -86l-132 -11l15 -108l170 17c80 8 101 -10 106 -90l3 -66c3 -60 1 -67 -54 -106c-25 -18 -37 -39 -37 -64c0 -29 17 -52 49 -52z" />
    <glyph glyph-name="eogonek" unicode="&#x119;" horiz-adv-x="537" 
d="M486 -115c16 0 32 6 47 13c28 15 36 12 52 -15l2 -3c15 -23 12 -37 -9 -54c-37 -32 -99 -64 -151 -64c-68 0 -138 54 -138 126c0 44 26 85 55 117l-183 -29c-78 -13 -101 7 -104 85l-29 558c-5 81 15 102 95 110l283 27c80 8 102 -10 102 -90v-42
c0 -82 -17 -100 -98 -108l-202 -15l4 -89l178 16c56 5 69 -9 74 -65c3 -55 -9 -71 -65 -76l-177 -19l4 -100l202 25c66 8 85 -7 90 -75c5 -63 3 -64 -50 -115c-21 -19 -31 -43 -31 -66c0 -29 17 -52 49 -52z" />
    <glyph glyph-name="Ecaron" unicode="&#x11a;" horiz-adv-x="583" 
d="M403 961l-56 -108c-19 -37 -33 -44 -74 -47l-1 -1c-41 -3 -58 5 -82 38l-59 76c-31 37 -26 54 18 73l1 1c45 19 61 15 83 -29l31 -61l33 75c17 41 32 48 76 41l1 -1c43 -7 48 -20 29 -57zM557 141l2 -46c3 -81 -13 -99 -94 -99l-281 5c-80 0 -103 21 -108 101l-41 532
c-5 81 10 101 91 112l287 34c68 8 87 -8 92 -77s-11 -88 -79 -96l-190 -22l10 -102l136 10c63 5 82 -10 87 -74c5 -63 -8 -81 -71 -86l-132 -11l15 -108l170 17c80 8 101 -10 106 -90z" />
    <glyph glyph-name="ecaron" unicode="&#x11b;" horiz-adv-x="537" 
d="M403 951l-56 -108c-19 -37 -32 -45 -75 -48c-41 -3 -58 5 -82 38l-59 76c-31 37 -26 54 18 73l1 1c45 19 61 15 83 -29l31 -61l33 75c19 41 31 48 77 40c43 -7 48 -20 29 -57zM518 119c3 -69 -8 -87 -76 -98l-281 -44c-78 -13 -101 5 -104 84l-29 558
c-5 81 15 102 95 110l283 27c80 8 102 -10 102 -90v-42c0 -80 -17 -103 -98 -108l-202 -15l4 -89l178 16c56 5 74 -8 74 -65c0 -55 -9 -71 -65 -76l-177 -19l4 -100l202 25c65 8 86 -7 90 -74z" />
    <glyph glyph-name="Gcircumflex" unicode="&#x11c;" horiz-adv-x="818" 
d="M468 976l53 -82c27 -40 20 -55 -25 -71l-1 -1c-47 -16 -62 -10 -81 37l-25 63l-40 -72c-21 -39 -36 -45 -79 -34h-1c-41 11 -47 24 -24 60l65 103c21 35 36 44 78 41h1c41 -3 55 -10 79 -44zM436 153c53 0 99 30 118 102l-55 1c-59 0 -71 16 -74 75c0 58 11 72 71 75
l277 13c16 1 21 -3 22 -19v-23c0 -291 -193 -415 -370 -415c-196 0 -398 153 -398 408c0 247 194 394 420 394c53 0 107 -8 160 -24c73 -23 85 -52 52 -120l-6 -12c-35 -71 -52 -78 -128 -56c-32 9 -63 14 -93 14c-93 0 -173 -49 -173 -196c0 -127 97 -217 177 -217z" />
    <glyph glyph-name="gcircumflex" unicode="&#x11d;" horiz-adv-x="688" 
d="M459 966l53 -82c27 -40 20 -55 -25 -71l-1 -1c-47 -16 -62 -10 -81 37l-25 63l-40 -72c-21 -39 -36 -45 -79 -34h-1c-41 11 -47 24 -24 60l65 103c21 35 36 44 78 41h1c41 -3 55 -10 79 -44zM221 376c0 -99 87 -166 232 -199l-4 86l-25 1c-52 3 -66 16 -66 68
c0 51 10 67 61 67l151 3c79 3 99 -21 94 -98c-8 -113 -30 -196 -67 -264c-39 -71 -88 -91 -165 -72c-243 61 -410 228 -410 430c0 182 190 354 459 354c26 0 51 -2 75 -6c56 -8 69 -27 61 -82l-13 -93c-7 -47 -13 -63 -44 -63c-19 0 -65 13 -117 13
c-108 0 -222 -44 -222 -145z" />
    <glyph glyph-name="Gbreve" unicode="&#x11e;" horiz-adv-x="818" 
d="M414 966c0 3 -1 8 -2 15c-1 11 0 13 11 13h88c60 0 76 -23 57 -83c-21 -58 -65 -111 -172 -111c-108 0 -144 69 -155 133c-7 37 4 49 41 49h9c34 0 37 0 53 -35c7 -15 20 -22 38 -22c27 0 32 18 32 41zM436 153c53 0 99 30 118 102l-55 1c-59 0 -71 16 -74 75
c0 58 11 72 71 75l277 13c16 1 21 -3 22 -19v-23c0 -291 -193 -415 -370 -415c-196 0 -398 153 -398 408c0 247 194 394 420 394c53 0 107 -8 160 -24c73 -23 85 -52 52 -120l-6 -12c-35 -71 -52 -78 -128 -56c-32 9 -63 14 -93 14c-93 0 -173 -49 -173 -196
c0 -127 97 -217 177 -217z" />
    <glyph glyph-name="gbreve" unicode="&#x11f;" horiz-adv-x="688" 
d="M399 960c0 3 -1 8 -2 15c-1 11 0 13 11 13h88c60 0 76 -23 57 -83c-21 -58 -65 -111 -172 -111c-108 0 -144 69 -155 133c-7 37 4 49 41 49h9c34 0 37 0 53 -35c7 -15 20 -22 38 -22c27 0 32 18 32 41zM221 376c0 -99 87 -166 232 -199l-4 86l-25 1c-52 3 -66 16 -66 68
c0 51 10 67 61 67l151 3c79 3 99 -21 94 -98c-8 -113 -30 -196 -67 -264c-39 -71 -88 -91 -165 -72c-243 61 -410 228 -410 430c0 182 190 354 459 354c26 0 51 -2 75 -6c56 -8 69 -27 61 -82l-13 -93c-7 -47 -13 -63 -44 -63c-19 0 -65 13 -117 13
c-108 0 -222 -44 -222 -145z" />
    <glyph glyph-name="Gdotaccent" unicode="&#x120;" horiz-adv-x="818" 
d="M477 876c0 -39 -31 -71 -68 -71c-39 0 -69 32 -69 71s30 71 69 71c37 0 68 -32 68 -71zM436 153c53 0 99 30 118 102l-55 1c-59 0 -71 16 -74 75c0 58 11 72 71 75l277 13c16 1 21 -3 22 -19v-23c0 -291 -193 -415 -370 -415c-196 0 -398 153 -398 408
c0 247 194 394 420 394c53 0 107 -8 160 -24c73 -23 85 -52 52 -120l-6 -12c-35 -71 -52 -78 -128 -56c-32 9 -63 14 -93 14c-93 0 -173 -49 -173 -196c0 -127 97 -217 177 -217z" />
    <glyph glyph-name="gdotaccent" unicode="&#x121;" horiz-adv-x="688" 
d="M412 876c0 -39 -31 -71 -68 -71c-39 0 -69 32 -69 71s30 71 69 71c37 0 68 -32 68 -71zM221 376c0 -99 87 -166 232 -199l-4 86l-25 1c-52 3 -66 16 -66 68c0 51 10 67 61 67l151 3c79 3 99 -21 94 -98c-8 -113 -30 -196 -67 -264c-39 -71 -88 -91 -165 -72
c-243 61 -410 228 -410 430c0 182 190 354 459 354c26 0 51 -2 75 -6c56 -8 69 -27 61 -82l-13 -93c-7 -47 -13 -63 -44 -63c-19 0 -65 13 -117 13c-108 0 -222 -44 -222 -145z" />
    <glyph glyph-name="Gcommaaccent" unicode="&#x122;" horiz-adv-x="818" 
d="M359 -332h-2c-51 -7 -63 6 -52 55l24 124c13 72 33 85 108 77c69 -8 81 -29 54 -92l-41 -95c-22 -50 -37 -61 -91 -69zM436 153c53 0 99 30 118 102l-55 1c-59 0 -71 16 -74 75c0 58 11 72 71 75l277 13c16 1 21 -3 22 -19v-23c0 -291 -193 -415 -370 -415
c-196 0 -398 153 -398 408c0 247 194 394 420 394c53 0 107 -8 160 -24c73 -23 85 -52 52 -120l-6 -12c-35 -71 -52 -78 -128 -56c-32 9 -63 14 -93 14c-93 0 -173 -49 -173 -196c0 -127 97 -217 177 -217z" />
    <glyph glyph-name="gcommaaccent" unicode="&#x123;" horiz-adv-x="688" 
d="M313 -332c-52 -7 -65 6 -54 55l24 124c13 72 33 85 108 77c69 -8 81 -29 54 -92l-41 -95c-22 -50 -37 -61 -91 -69zM221 376c0 -99 87 -166 232 -199l-4 86l-25 1c-52 3 -66 16 -66 68c0 51 10 67 61 67l151 3c79 3 99 -21 94 -98c-8 -113 -30 -196 -67 -264
c-39 -71 -88 -91 -165 -72c-243 61 -410 228 -410 430c0 182 190 354 459 354c26 0 51 -2 75 -6c56 -8 69 -27 61 -82l-13 -93c-7 -47 -13 -63 -44 -63c-19 0 -65 13 -117 13c-108 0 -222 -44 -222 -145z" />
    <glyph glyph-name="Hcircumflex" unicode="&#x124;" horiz-adv-x="669" 
d="M420 946l53 -82c27 -40 20 -55 -25 -71l-1 -1c-47 -16 -62 -10 -81 37l-25 63l-40 -72c-21 -39 -36 -45 -79 -34h-1c-41 11 -47 24 -24 60l65 103c21 35 36 44 78 41h1c41 -3 55 -10 79 -44zM591 637l19 -542c3 -80 -16 -97 -114 -97c-80 0 -101 21 -101 102l-2 163
l-124 -12l-4 -173c-3 -81 -22 -97 -105 -92c-80 5 -102 28 -102 108l-8 519c0 80 16 100 98 105l26 2c80 5 101 -14 98 -95l-5 -209l125 3l-2 201c0 78 17 101 97 106c80 8 101 -13 104 -89z" />
    <glyph glyph-name="hcircumflex" unicode="&#x125;" horiz-adv-x="674" 
d="M416 962l53 -82c27 -40 20 -55 -25 -71l-1 -1c-47 -16 -62 -10 -81 37l-25 63l-40 -72c-21 -39 -36 -45 -79 -34h-1c-41 11 -47 24 -24 60l65 103c21 35 36 44 78 41h1c41 -3 55 -10 79 -44zM635 642l-15 -550c-3 -80 -23 -101 -103 -96l-26 2c-79 5 -100 25 -95 104
l10 194l-150 -33l5 -182c3 -75 -18 -93 -93 -90c-76 3 -96 22 -101 97l-39 524c-5 82 10 99 91 112l26 4c80 11 98 -8 101 -88l5 -184l163 5l10 194c3 79 26 99 105 94l9 -1c80 -5 100 -25 97 -106z" />
    <glyph glyph-name="Hbar" unicode="&#x126;" horiz-adv-x="669" 
d="M267 416l125 3l-1 65l-123 -3zM596 489l14 -394c3 -80 -16 -97 -114 -97c-80 0 -101 21 -101 102l-2 163l-124 -12l-4 -173c-3 -81 -22 -97 -105 -92c-80 5 -102 28 -102 108l-6 382c-28 1 -37 6 -38 34l-2 55c-1 31 6 39 37 39h1c-3 90 18 109 98 114l26 2
c79 5 100 -14 97 -95v-19l119 1v13c0 78 17 101 97 106s100 -11 103 -89l1 -28c53 1 65 -11 58 -58l-2 -16c-4 -37 -12 -45 -51 -46z" />
    <glyph glyph-name="hbar" unicode="&#x127;" horiz-adv-x="702" 
d="M279 456l163 5l3 63l-168 -4zM660 529l-12 -437c-3 -80 -23 -101 -103 -96l-26 2c-79 5 -100 25 -95 104l10 194l-150 -33l5 -182c3 -75 -18 -93 -93 -90c-76 3 -96 22 -101 97l-33 428c-37 0 -45 8 -48 44l-2 42c-3 35 6 42 41 43c-5 53 9 70 62 75l65 8
c73 11 91 -7 94 -82l177 2c5 87 26 106 106 101l17 -1c74 -5 89 -23 89 -99c41 1 52 -10 47 -51l-3 -27c-4 -33 -12 -41 -47 -42z" />
    <glyph glyph-name="Itilde" unicode="&#x128;" horiz-adv-x="498" 
d="M239 866c-13 0 -21 -7 -25 -22c-8 -25 -12 -27 -37 -24l-19 3c-39 5 -47 17 -44 54c3 53 20 121 73 121c67 0 58 -66 109 -66c24 0 27 19 27 47c0 5 0 8 -1 11c0 6 3 9 9 8l99 -11c11 -3 15 -5 15 -17c1 -5 1 -10 1 -17c0 -61 -15 -149 -96 -149c-73 0 -76 62 -111 62z
M427 100l-2 -27c-5 -78 -24 -95 -102 -87l-198 20c-72 8 -88 26 -83 99l1 9c5 68 21 81 90 78l15 371c-65 0 -80 15 -83 79v9c-3 69 15 88 83 91l247 10c75 3 96 -16 93 -93s-21 -96 -101 -96l-27 -388c59 -3 70 -19 67 -75z" />
    <glyph glyph-name="itilde" unicode="&#x129;" horiz-adv-x="324" 
d="M133 862c-13 0 -21 -7 -25 -22c-8 -25 -12 -27 -37 -24l-19 3c-39 5 -47 17 -44 54c3 53 20 121 73 121c67 0 58 -66 109 -66c24 0 27 19 27 47c0 5 0 8 -1 11c0 6 3 9 9 8l99 -11c11 -3 15 -5 15 -17c1 -5 1 -10 1 -17c0 -61 -15 -149 -96 -149c-73 0 -76 62 -111 62z
M287 650l-14 -575c-3 -81 -21 -101 -102 -104l-31 -1c-80 -3 -101 16 -98 96l12 580c3 81 21 102 102 102h33c80 0 101 -18 98 -98z" />
    <glyph glyph-name="Imacron" unicode="&#x12a;" horiz-adv-x="498" 
d="M132 947l287 5c53 1 66 -13 62 -68c-3 -54 -17 -67 -71 -70l-274 -11c-59 -3 -71 11 -74 69v2c-3 58 12 73 70 73zM427 100l-2 -27c-5 -78 -24 -95 -102 -87l-198 20c-72 8 -88 26 -83 99l1 9c5 68 21 81 90 78l15 371c-65 0 -80 15 -83 79v9c-3 69 15 88 83 91l247 10
c75 3 96 -16 93 -93s-21 -96 -101 -96l-27 -388c59 -3 70 -19 67 -75z" />
    <glyph glyph-name="imacron" unicode="&#x12b;" horiz-adv-x="324" 
d="M21 947l287 5c31 1 62 -15 62 -68c0 -54 -18 -67 -71 -70l-274 -11c-59 -3 -71 11 -74 69v2c-3 58 12 73 70 73zM287 650l-14 -575c-3 -81 -21 -101 -102 -104l-31 -1c-80 -3 -101 16 -98 96l12 580c3 81 21 102 102 102h33c80 0 101 -18 98 -98z" />
    <glyph glyph-name="Ibreve" unicode="&#x12c;" horiz-adv-x="498" 
d="M282 956c0 3 -1 8 -2 15c-1 11 0 13 11 13h88c60 0 76 -23 57 -83c-21 -58 -65 -111 -172 -111c-108 0 -144 69 -155 133c-7 37 4 49 41 49h9c34 0 37 0 53 -35c7 -15 20 -22 38 -22c27 0 32 18 32 41zM427 100l-2 -27c-5 -78 -24 -95 -102 -87l-198 20
c-72 8 -88 26 -83 99l1 9c5 68 21 81 90 78l15 371c-65 0 -80 15 -83 79v9c-3 69 15 88 83 91l247 10c75 3 96 -16 93 -93s-21 -96 -101 -96l-27 -388c59 -3 70 -19 67 -75z" />
    <glyph glyph-name="ibreve" unicode="&#x12d;" horiz-adv-x="324" 
d="M172 966c0 3 -1 8 -2 15c-1 11 0 13 11 13h88c60 0 76 -23 57 -83c-21 -58 -65 -111 -172 -111c-108 0 -144 69 -155 133c-7 37 4 49 41 49h9c34 0 37 0 53 -35c7 -15 20 -22 38 -22c27 0 32 18 32 41zM287 650l-14 -575c-3 -81 -21 -101 -102 -104l-31 -1
c-80 -3 -101 16 -98 96l12 580c3 81 21 102 102 102h33c80 0 101 -18 98 -98z" />
    <glyph glyph-name="Iogonek" unicode="&#x12e;" horiz-adv-x="498" 
d="M346 -148c17 0 34 4 51 13c29 15 36 13 53 -15l1 -3c15 -23 12 -37 -8 -56c-39 -37 -96 -57 -149 -57c-76 0 -142 37 -142 121c0 57 38 106 77 141l-104 10c-72 8 -88 26 -83 99l1 9c5 68 21 81 90 78l15 371c-65 0 -80 15 -83 79v9c-3 69 15 88 83 91l247 10
c76 3 93 -16 93 -93s-21 -96 -101 -96l-27 -388c59 -3 70 -19 67 -75l-3 -48c-5 -62 -19 -74 -82 -68c-19 -20 -42 -46 -42 -81c0 -39 19 -51 46 -51z" />
    <glyph glyph-name="iogonek" unicode="&#x12f;" horiz-adv-x="324" 
d="M235 -170c19 0 34 6 49 13c28 15 37 12 53 -15l1 -3c15 -23 12 -36 -9 -55c-37 -31 -97 -63 -153 -63c-66 0 -136 57 -136 125c0 56 37 102 82 137c-66 0 -80 15 -80 79l12 598c3 81 21 102 102 102h33c80 0 101 -18 98 -98l-14 -597c0 -57 -6 -67 -55 -111
c-20 -18 -30 -39 -30 -62c0 -27 19 -50 47 -50z" />
    <glyph glyph-name="Idot" unicode="&#x130;" horiz-adv-x="498" 
d="M351 874c0 -39 -31 -71 -68 -71c-39 0 -69 32 -69 71s30 71 69 71c37 0 68 -32 68 -71zM427 100l-2 -27c-5 -78 -24 -95 -102 -87l-198 20c-72 8 -88 26 -83 99l1 9c5 68 21 81 90 78l15 371c-65 0 -80 15 -83 79v9c-3 69 15 88 83 91l247 10c75 3 96 -16 93 -93
s-21 -96 -101 -96l-27 -388c59 -3 70 -19 67 -75z" />
    <glyph glyph-name="dotlessi" unicode="&#x131;" horiz-adv-x="324" 
d="M287 650l-14 -575c-3 -81 -21 -101 -102 -104l-31 -1c-80 -3 -101 16 -98 96l12 580c3 81 21 102 102 102h33c80 0 101 -18 98 -98z" />
    <glyph glyph-name="Jcircumflex" unicode="&#x134;" horiz-adv-x="694" 
d="M513 983l62 -74c31 -37 27 -52 -17 -75s-61 -17 -84 26l-33 60l-31 -76c-16 -43 -30 -48 -76 -43c-43 7 -50 17 -31 56l52 110c17 37 31 47 74 51c41 3 57 -3 84 -35zM688 671c0 -76 -13 -97 -89 -102c11 -51 17 -100 17 -147c0 -296 -144 -446 -301 -446
c-93 0 -189 52 -264 159c-45 61 -36 96 27 136l23 15c75 49 92 44 142 -28c25 -35 57 -62 90 -62c55 0 74 74 74 158c0 73 -14 154 -31 199l-42 -3c-65 -5 -85 12 -93 78s3 84 71 92l278 34c73 9 98 -8 98 -83z" />
    <glyph glyph-name="jcircumflex" unicode="&#x135;" horiz-adv-x="657" 
d="M442 993l71 -66c35 -33 34 -48 -6 -75l-2 -2c-41 -27 -58 -23 -87 17l-40 55l-21 -81c-11 -43 -24 -52 -68 -51h-2c-43 1 -50 13 -37 52l38 116c13 38 25 51 67 59c41 8 57 3 87 -24zM335 -37c-109 0 -215 65 -288 173c-43 63 -33 93 39 120l46 17c63 22 62 23 105 -31
c19 -24 41 -36 68 -36c44 0 87 41 87 144c0 84 -24 189 -45 268s-10 101 70 120l60 14c76 19 102 3 121 -73c23 -92 34 -182 34 -258c0 -272 -109 -458 -297 -458z" />
    <glyph glyph-name="Kcommaaccent" unicode="&#x136;" horiz-adv-x="720" 
d="M310 -332h-2c-51 -7 -63 6 -52 55l24 124c13 71 34 86 106 78l2 -1c69 -8 81 -29 54 -92l-41 -95c-22 -50 -37 -61 -91 -69zM446 360l188 -186c56 -55 54 -83 -9 -130l-18 -13c-65 -48 -94 -47 -150 12l-183 189l-19 -184c-7 -65 -26 -79 -91 -64c-67 16 -81 33 -84 100
l-17 550c-3 80 18 101 97 98l47 -2c79 -3 99 -22 91 -102l-19 -197l146 203c48 67 77 79 158 76l29 -2c73 -4 83 -27 39 -84z" />
    <glyph glyph-name="kcommaaccent" unicode="&#x137;" horiz-adv-x="706" 
d="M303 -332h-2c-51 -7 -63 6 -52 55l24 124c13 71 34 86 106 78l2 -1c69 -8 81 -29 54 -92l-41 -95c-22 -50 -37 -61 -91 -69zM430 372l221 -211c56 -56 55 -80 -3 -135l-18 -17c-61 -53 -87 -52 -143 7l-226 244l-3 -166c0 -79 -20 -102 -100 -113c-77 -11 -98 6 -101 84
l-24 572c-3 80 16 101 96 106l50 3c80 5 98 -15 93 -94l-12 -164l164 216c49 65 76 68 144 25l6 -4c67 -45 71 -70 22 -135z" />
    <glyph glyph-name="kgreenlandic" unicode="&#x138;" horiz-adv-x="706" 
d="M430 372l221 -211c56 -56 55 -80 -3 -135l-18 -17c-61 -53 -87 -52 -143 7l-226 244l-3 -166c0 -79 -20 -102 -100 -113c-77 -11 -98 6 -101 84l-24 572c-3 80 16 101 96 106l50 3c80 5 98 -15 93 -94l-12 -164l164 216c49 65 76 68 144 25l6 -4c67 -45 71 -70 22 -135z
" />
    <glyph glyph-name="Lacute" unicode="&#x139;" horiz-adv-x="566" 
d="M293 914l-81 -81c-25 -27 -37 -30 -72 -15l-2 1c-33 13 -36 25 -19 56l42 75c32 56 51 62 111 43h2c56 -19 60 -38 19 -79zM551 107c3 -84 -15 -105 -96 -110l-271 -20c-80 -5 -101 13 -106 93l-33 577c-5 80 13 103 94 108l53 4c81 5 99 -11 99 -92l-6 -481l163 13
c80 5 100 -11 103 -92z" />
    <glyph glyph-name="lacute" unicode="&#x13a;" horiz-adv-x="554" 
d="M274 914l-81 -81c-25 -27 -37 -30 -72 -15l-2 1c-33 13 -36 25 -19 56l42 75c32 56 51 62 111 43h2c56 -19 60 -38 19 -79zM539 145l2 -42c3 -81 -16 -102 -98 -107l-267 -19c-79 -5 -102 13 -105 93l-27 579c-5 80 16 104 95 104h28c81 0 99 -17 99 -96l-5 -447l177 22
c80 11 96 -8 101 -87z" />
    <glyph glyph-name="Lcommaaccent" unicode="&#x13b;" horiz-adv-x="566" 
d="M262 -333h-2c-51 -7 -63 6 -52 55l24 124c13 71 34 86 106 78l2 -1c69 -8 81 -29 54 -92l-41 -95c-22 -50 -37 -61 -91 -69zM551 107c3 -84 -15 -105 -96 -110l-271 -20c-80 -5 -101 13 -106 93l-33 577c-5 80 13 103 94 108l53 4c81 5 99 -11 99 -92l-6 -481l163 13
c80 5 100 -11 103 -92z" />
    <glyph glyph-name="lcommaaccent" unicode="&#x13c;" horiz-adv-x="554" 
d="M251 -329h-2c-51 -7 -63 6 -52 55l24 124c13 71 34 86 106 78l2 -1c69 -8 81 -29 54 -92l-41 -95c-22 -50 -37 -61 -91 -69zM539 145l2 -42c3 -81 -16 -102 -98 -107l-267 -19c-79 -5 -102 13 -105 93l-27 579c-5 80 16 104 95 104h28c81 0 99 -17 99 -96l-5 -447l177 22
c80 11 96 -8 101 -87z" />
    <glyph glyph-name="Lcaron" unicode="&#x13d;" horiz-adv-x="580" 
d="M408 471c-48 -7 -59 5 -48 50l31 135c16 67 35 79 105 71c65 -8 76 -28 48 -87l-50 -105c-21 -45 -37 -56 -86 -64zM551 107c3 -84 -15 -105 -96 -110l-271 -20c-80 -5 -101 13 -106 93l-33 577c-5 80 13 103 94 108l53 4c81 5 99 -11 99 -92l-6 -481l163 13
c80 5 100 -11 103 -92z" />
    <glyph glyph-name="lcaron" unicode="&#x13e;" horiz-adv-x="558" 
d="M386 481c-48 -7 -59 5 -48 50l31 135c16 67 35 79 105 71c65 -8 76 -28 48 -87l-50 -105c-21 -45 -37 -56 -86 -64zM539 145l2 -42c3 -81 -16 -102 -98 -107l-267 -19c-79 -5 -102 13 -105 93l-27 579c-5 80 16 104 95 104h28c81 0 99 -17 99 -96l-5 -447l177 22
c80 11 96 -8 101 -87z" />
    <glyph glyph-name="Ldot" unicode="&#x13f;" horiz-adv-x="594" 
d="M460 304c-56 0 -109 46 -109 110c0 60 48 112 108 112c56 0 109 -47 109 -111c0 -56 -44 -111 -108 -111zM551 107c3 -84 -15 -105 -96 -110l-271 -20c-80 -5 -101 13 -106 93l-33 577c-5 80 13 103 94 108l53 4c81 5 99 -11 99 -92l-6 -481l163 13c80 5 100 -11 103 -92
z" />
    <glyph glyph-name="ldot" unicode="&#x140;" horiz-adv-x="582" 
d="M445 338c-56 0 -109 46 -109 110c0 60 48 112 108 112c56 0 109 -47 109 -111c0 -56 -44 -111 -108 -111zM539 145l2 -42c3 -81 -16 -102 -98 -107l-267 -19c-79 -5 -102 13 -105 93l-27 579c-5 80 16 104 95 104h28c81 0 99 -17 99 -96l-5 -447l177 22
c80 11 96 -8 101 -87z" />
    <glyph glyph-name="Lslash" unicode="&#x141;" horiz-adv-x="566" 
d="M552 107c3 -84 -15 -105 -96 -110l-271 -20c-80 -5 -101 13 -106 93l-9 158c-55 -12 -70 -1 -75 54l-1 15c-5 61 6 79 66 97l-14 253c-5 80 13 103 94 108l53 4c81 5 99 -11 99 -92l-3 -203l16 5c72 21 95 7 95 -71c0 -79 -16 -103 -95 -119l-18 -4l-1 -89l163 13
c80 5 100 -11 103 -92z" />
    <glyph glyph-name="lslash" unicode="&#x142;" horiz-adv-x="554" 
d="M540 145l2 -42c3 -81 -16 -102 -98 -107l-267 -19c-79 -5 -102 13 -105 93l-9 198c-57 -12 -73 0 -78 57l-1 8c-5 65 6 81 71 103l-10 213c-5 80 16 104 95 104h28c81 0 99 -17 99 -96l-2 -157l30 9c72 24 95 6 95 -71c0 -79 -16 -103 -95 -119l-32 -7l-1 -102l177 22
c80 11 96 -8 101 -87z" />
    <glyph glyph-name="Nacute" unicode="&#x143;" horiz-adv-x="737" 
d="M490 896l-81 -81c-25 -27 -37 -30 -72 -15l-2 1c-33 13 -36 25 -19 56l42 75c32 56 51 62 111 43h2c56 -19 60 -38 19 -79zM700 650l-53 -602c-5 -46 -14 -57 -62 -68c-45 -8 -63 -3 -87 37l-242 376l14 -304c3 -79 -17 -98 -95 -90l-16 2c-81 8 -99 29 -102 110l-12 477
c-3 80 15 106 95 119l37 6c80 13 106 3 144 -70l152 -288l-11 281c-3 80 16 103 96 106l51 2c78 3 99 -15 91 -94z" />
    <glyph glyph-name="nacute" unicode="&#x144;" horiz-adv-x="693" 
d="M429 903l-81 -81c-25 -27 -37 -30 -72 -15l-2 1c-33 13 -36 25 -19 56l42 75c32 56 51 62 111 43h2c56 -19 60 -38 19 -79zM633 645l22 -597c3 -49 -10 -62 -61 -67c-50 -5 -67 3 -94 46l-230 356l44 -301c11 -79 -3 -102 -84 -110l-75 -9c-80 -8 -98 8 -101 89l-12 615
c0 68 14 81 83 81c68 0 93 -17 133 -70l170 -232l-31 228c-11 77 8 96 85 88l48 -6c80 -8 100 -31 103 -111z" />
    <glyph glyph-name="Ncommaaccent" unicode="&#x145;" horiz-adv-x="737" 
d="M318 -332h-2c-51 -7 -63 6 -52 55l24 124c13 72 33 85 108 77c69 -8 81 -29 54 -92l-41 -95c-22 -50 -37 -61 -91 -69zM700 650l-53 -602c-5 -46 -14 -57 -62 -68c-45 -8 -63 -3 -87 37l-242 376l14 -304c3 -79 -17 -98 -95 -90l-16 2c-81 8 -99 29 -102 110l-12 477
c-3 80 15 106 95 119l37 6c80 13 106 3 144 -70l152 -288l-11 281c-3 80 16 103 96 106l51 2c78 3 99 -15 91 -94z" />
    <glyph glyph-name="ncommaaccent" unicode="&#x146;" horiz-adv-x="693" 
d="M354 -328h-2c-51 -7 -63 6 -52 55l24 124c13 72 33 85 108 77c69 -8 81 -29 54 -92l-41 -95c-22 -50 -37 -61 -91 -69zM633 645l22 -597c3 -49 -10 -62 -61 -67c-50 -5 -67 3 -94 46l-230 356l44 -301c11 -79 -3 -102 -84 -110l-75 -9c-80 -8 -98 8 -101 89l-12 615
c0 68 14 81 83 81c68 0 93 -17 133 -70l170 -232l-31 228c-11 77 8 96 85 88l48 -6c80 -8 100 -31 103 -111z" />
    <glyph glyph-name="Ncaron" unicode="&#x147;" horiz-adv-x="737" 
d="M495 954l-51 -111c-16 -38 -31 -48 -73 -51c-41 -3 -58 2 -84 34l-63 74c-31 36 -28 51 15 74h1c44 23 61 18 85 -25l33 -59l30 76c16 43 30 49 74 44h2c43 -5 50 -17 31 -56zM700 650l-53 -602c-5 -46 -14 -57 -62 -68c-45 -8 -63 -3 -87 37l-242 376l14 -304
c3 -79 -17 -98 -95 -90l-16 2c-81 8 -99 29 -102 110l-12 477c-3 80 15 106 95 119l37 6c80 13 106 3 144 -70l152 -288l-11 281c-3 80 16 103 96 106l51 2c78 3 99 -15 91 -94z" />
    <glyph glyph-name="ncaron" unicode="&#x148;" horiz-adv-x="693" 
d="M457 950l-65 -103c-21 -35 -36 -44 -79 -41c-41 1 -56 9 -79 44l-53 82c-27 40 -20 55 25 71l1 1c47 16 62 10 81 -37l25 -63l40 72c21 39 36 45 79 34h1c41 -11 47 -24 24 -60zM633 645l22 -597c3 -49 -10 -62 -61 -67c-50 -5 -67 3 -94 46l-230 356l44 -301
c11 -79 -3 -102 -84 -110l-75 -9c-80 -8 -98 8 -101 89l-12 615c0 68 14 81 83 81c68 0 93 -17 133 -70l170 -232l-31 228c-11 77 8 96 85 88l48 -6c80 -8 100 -31 103 -111z" />
    <glyph glyph-name="Omacron" unicode="&#x14c;" horiz-adv-x="812" 
d="M615 886l-1 -2c-3 -54 -17 -67 -71 -70l-274 -11c-59 -3 -71 11 -74 69v2c-3 58 12 73 70 73l287 5c53 1 66 -13 63 -66zM406 761c245 0 381 -188 381 -392c0 -232 -186 -377 -394 -377c-200 0 -368 158 -368 370c0 219 141 399 381 399zM409 180c88 0 146 73 146 180
c0 78 -51 161 -147 161s-160 -71 -160 -175c0 -84 51 -166 161 -166z" />
    <glyph glyph-name="omacron" unicode="&#x14d;" horiz-adv-x="780" 
d="M599 886l-1 -2c-3 -54 -17 -67 -71 -70l-274 -11c-59 -3 -71 11 -74 69v2c-3 58 12 73 70 73l287 5c53 1 66 -13 63 -66zM755 368c0 -211 -161 -397 -369 -397c-205 0 -361 181 -361 394c0 216 157 403 364 403c211 0 366 -179 366 -400zM391 180c90 0 141 81 141 173
s-55 172 -138 172c-91 0 -153 -83 -153 -175c0 -96 47 -170 150 -170z" />
    <glyph glyph-name="Obreve" unicode="&#x14e;" horiz-adv-x="812" 
d="M411 966c0 3 -1 8 -2 15c-1 11 0 13 11 13h88c60 0 76 -23 57 -83c-21 -58 -65 -111 -172 -111c-108 0 -144 69 -155 133c-7 37 4 49 41 49h9c34 0 37 0 53 -35c7 -15 20 -22 38 -22c27 0 32 18 32 41zM406 761c245 0 381 -188 381 -392c0 -232 -186 -377 -394 -377
c-200 0 -368 158 -368 370c0 219 141 399 381 399zM409 180c88 0 146 73 146 180c0 78 -51 161 -147 161s-160 -71 -160 -175c0 -84 51 -166 161 -166z" />
    <glyph glyph-name="obreve" unicode="&#x14f;" horiz-adv-x="780" 
d="M395 966c0 3 -1 8 -2 15c-1 11 0 13 11 13h88c60 0 76 -23 57 -83c-21 -58 -65 -111 -172 -111c-108 0 -144 69 -155 133c-7 37 4 49 41 49h9c34 0 37 0 53 -35c7 -15 20 -22 38 -22c27 0 32 18 32 41zM755 368c0 -211 -161 -397 -369 -397c-205 0 -361 181 -361 394
c0 216 157 403 364 403c211 0 366 -179 366 -400zM391 180c90 0 141 81 141 173s-55 172 -138 172c-91 0 -153 -83 -153 -175c0 -96 47 -170 150 -170z" />
    <glyph glyph-name="Ohungarumlaut" unicode="&#x150;" horiz-adv-x="812" 
d="M616 903l-81 -81c-25 -27 -37 -30 -72 -15l-2 1c-33 13 -36 25 -19 56l42 75c32 56 51 62 111 43h2c56 -19 60 -38 19 -79zM407 903l-81 -81c-25 -27 -37 -30 -72 -15l-2 1c-33 13 -36 25 -19 56l42 75c32 56 51 62 111 43h2c56 -19 60 -38 19 -79zM406 761
c245 0 381 -188 381 -392c0 -232 -186 -377 -394 -377c-200 0 -368 158 -368 370c0 219 141 399 381 399zM409 180c88 0 146 73 146 180c0 78 -51 161 -147 161s-160 -71 -160 -175c0 -84 51 -166 161 -166z" />
    <glyph glyph-name="ohungarumlaut" unicode="&#x151;" horiz-adv-x="780" 
d="M597 913l-81 -81c-25 -27 -37 -30 -72 -15l-2 1c-33 13 -36 25 -19 56l42 75c32 56 51 62 111 43h2c56 -19 60 -38 19 -79zM388 913l-81 -81c-25 -27 -37 -30 -72 -15l-2 1c-33 13 -36 25 -19 56l42 75c32 56 51 62 111 43h2c56 -19 60 -38 19 -79zM755 368
c0 -211 -161 -397 -369 -397c-205 0 -361 181 -361 394c0 216 157 403 364 403c211 0 366 -179 366 -400zM391 180c90 0 141 81 141 173s-55 172 -138 172c-91 0 -153 -83 -153 -175c0 -96 47 -170 150 -170z" />
    <glyph glyph-name="OE" unicode="&#x152;" horiz-adv-x="1068" 
d="M234 346c0 -84 51 -166 161 -166c88 0 146 73 146 180c0 78 -51 161 -147 161s-160 -71 -160 -175zM1042 139l2 -46c3 -80 -13 -98 -94 -98l-304 4c-39 1 -49 10 -52 49c-64 -36 -138 -56 -215 -56c-200 0 -368 158 -368 370c0 219 141 399 381 399c56 0 107 -10 153 -29
l353 45c68 8 87 -6 92 -76c5 -69 -11 -88 -79 -96l-190 -22l10 -102l136 10c63 5 82 -10 87 -74c5 -63 -8 -81 -71 -86l-132 -11l15 -108l170 17c80 8 103 -10 106 -90z" />
    <glyph glyph-name="oe" unicode="&#x153;" horiz-adv-x="1030" 
d="M223 350c0 -96 48 -172 149 -172c88 0 140 83 140 175c0 93 -53 174 -138 174c-88 0 -151 -84 -151 -177zM1004 141l2 -46c3 -80 -13 -99 -94 -96l-381 14c-49 -27 -104 -42 -164 -42c-205 0 -361 181 -361 394c0 216 157 403 364 403c51 0 98 -11 142 -30l348 42
c68 8 87 -8 92 -77s-11 -88 -79 -96l-190 -22l10 -102l136 10c63 5 82 -10 87 -74c5 -63 -8 -81 -71 -86l-132 -11l15 -108l170 17c80 8 103 -10 106 -90z" />
    <glyph glyph-name="Racute" unicode="&#x154;" horiz-adv-x="638" 
d="M390 909l-81 -81c-25 -27 -37 -30 -72 -15l-2 1c-33 13 -36 25 -19 56l42 75c32 56 51 62 111 43h2c56 -19 60 -38 19 -79zM310 585c-39 0 -82 -10 -111 -19l22 -182c101 16 183 63 183 126c0 59 -43 75 -94 75zM471 321l126 -166c47 -63 41 -91 -29 -126l-34 -18
c-72 -38 -97 -27 -129 46l-80 187c-27 -15 -58 -27 -82 -35l12 -109c8 -80 -8 -98 -88 -114l-20 -4c-77 -16 -98 6 -101 85l-15 569c-3 77 21 103 97 111c39 5 80 7 119 7c189 0 363 -60 363 -220c0 -84 -51 -153 -139 -213z" />
    <glyph glyph-name="racute" unicode="&#x155;" horiz-adv-x="646" 
d="M394 909l-81 -81c-25 -27 -37 -30 -72 -15l-2 1c-33 13 -36 25 -19 56l42 75c32 56 51 62 111 43h2c56 -19 60 -38 19 -79zM254 575c-11 0 -23 1 -34 -2l10 -189c102 0 154 52 154 102c0 45 -43 89 -130 89zM461 294l110 -193c39 -67 26 -91 -50 -102l-11 -2
c-81 -13 -106 2 -138 77l-76 179l-60 -8l9 -165c3 -80 -14 -100 -95 -100h-11c-80 0 -100 20 -100 100l2 563c0 75 23 101 98 108c36 3 73 6 104 6c252 0 377 -122 377 -247c0 -83 -52 -165 -159 -216z" />
    <glyph glyph-name="Rcommaaccent" unicode="&#x156;" horiz-adv-x="638" 
d="M269 -332h-2c-51 -7 -63 6 -52 55l24 124c13 72 33 85 108 77c69 -8 81 -29 54 -92l-41 -95c-22 -50 -37 -61 -91 -69zM310 585c-39 0 -82 -10 -111 -19l22 -182c101 16 183 63 183 126c0 59 -43 75 -94 75zM471 321l126 -166c47 -63 41 -91 -29 -126l-34 -18
c-72 -38 -97 -27 -129 46l-80 187c-27 -15 -58 -27 -82 -35l12 -109c8 -80 -8 -98 -88 -114l-20 -4c-77 -16 -98 6 -101 85l-15 569c-3 77 21 103 97 111c39 5 80 7 119 7c189 0 363 -60 363 -220c0 -84 -51 -153 -139 -213z" />
    <glyph glyph-name="rcommaaccent" unicode="&#x157;" horiz-adv-x="646" 
d="M273 -332h-2c-51 -7 -63 6 -52 55l24 124c13 72 33 85 108 77c69 -8 81 -29 54 -92l-41 -95c-22 -50 -37 -61 -91 -69zM254 575c-11 0 -23 1 -34 -2l10 -189c102 0 154 52 154 102c0 45 -43 89 -130 89zM461 294l110 -193c39 -67 26 -91 -50 -102l-11 -2
c-81 -13 -106 2 -138 77l-76 179l-60 -8l9 -165c3 -80 -14 -100 -95 -100h-11c-80 0 -100 20 -100 100l2 563c0 75 23 101 98 108c36 3 73 6 104 6c252 0 377 -122 377 -247c0 -83 -52 -165 -159 -216z" />
    <glyph glyph-name="Rcaron" unicode="&#x158;" horiz-adv-x="638" 
d="M423 947l-65 -103c-21 -35 -36 -44 -78 -41h-1c-41 1 -56 9 -79 44l-53 82c-27 40 -20 55 25 71l1 1c47 16 62 10 81 -37l25 -63l40 72c21 39 36 45 79 34h1c41 -11 47 -24 24 -60zM310 585c-39 0 -82 -10 -111 -19l22 -182c101 16 183 63 183 126c0 59 -43 75 -94 75z
M471 321l126 -166c47 -63 41 -91 -29 -126l-34 -18c-72 -38 -97 -27 -129 46l-80 187c-27 -15 -58 -27 -82 -35l12 -109c8 -80 -8 -98 -88 -114l-20 -4c-77 -16 -98 6 -101 85l-15 569c-3 77 21 103 97 111c39 5 80 7 119 7c189 0 363 -60 363 -220
c0 -84 -51 -153 -139 -213z" />
    <glyph glyph-name="rcaron" unicode="&#x159;" horiz-adv-x="646" 
d="M437 951l-65 -103c-21 -35 -36 -44 -78 -41h-1c-41 1 -56 9 -79 44l-53 82c-27 40 -20 55 25 71l1 1c47 16 62 10 81 -37l25 -63l40 72c21 39 36 45 79 34h1c41 -11 47 -24 24 -60zM254 575c-11 0 -23 1 -34 -2l10 -189c102 0 154 52 154 102c0 45 -43 89 -130 89z
M461 294l110 -193c39 -67 26 -91 -50 -102l-11 -2c-81 -13 -106 2 -138 77l-76 179l-60 -8l9 -165c3 -80 -14 -100 -95 -100h-11c-80 0 -100 20 -100 100l2 563c0 75 23 101 98 108c36 3 73 6 104 6c252 0 377 -122 377 -247c0 -83 -52 -165 -159 -216z" />
    <glyph glyph-name="Sacute" unicode="&#x15a;" horiz-adv-x="711" 
d="M426 909l-81 -81c-25 -27 -37 -30 -72 -15l-2 1c-33 13 -36 25 -19 56l42 75c32 56 51 62 111 43h2c56 -19 60 -38 19 -79zM332 -21c-100 0 -199 25 -272 70c-56 35 -62 67 -23 118l3 5c48 61 62 68 137 36c47 -20 93 -29 133 -29c77 0 132 32 132 88
c0 126 -413 29 -413 271c0 186 180 234 350 234c32 0 63 -2 94 -5c71 -8 90 -27 87 -99c-3 -59 -11 -76 -49 -76c-12 0 -76 13 -132 13c-60 0 -111 -15 -111 -59c0 -102 428 43 428 -293c0 -190 -180 -274 -364 -274z" />
    <glyph glyph-name="sacute" unicode="&#x15b;" horiz-adv-x="700" 
d="M421 909l-81 -81c-25 -27 -37 -30 -72 -15l-2 1c-33 13 -36 25 -19 56l42 75c32 56 51 62 111 43h2c56 -19 60 -38 19 -79zM71 144c43 51 58 56 122 24c32 -15 63 -22 94 -22c76 0 136 36 136 91c0 97 -380 10 -380 275c0 181 222 253 378 253c35 0 70 -3 105 -10
c69 -15 84 -40 59 -107l-8 -21c-24 -59 -34 -64 -97 -48c-25 7 -51 10 -75 10c-76 0 -138 -31 -138 -79c0 -101 398 4 398 -295c0 -145 -166 -245 -343 -245c-83 0 -165 21 -236 69c-49 33 -52 60 -15 105z" />
    <glyph glyph-name="Scircumflex" unicode="&#x15c;" horiz-adv-x="711" 
d="M404 975l53 -82c27 -40 20 -55 -25 -71l-1 -1c-47 -16 -62 -10 -81 37l-25 63l-40 -72c-21 -39 -36 -45 -79 -34h-1c-41 11 -47 24 -24 60l65 103c21 35 36 44 78 41h1c41 -3 55 -10 79 -44zM332 -21c-100 0 -199 25 -272 70c-56 35 -62 67 -23 118l3 5
c48 61 62 68 137 36c47 -20 93 -29 133 -29c77 0 132 32 132 88c0 126 -413 29 -413 271c0 186 180 234 350 234c32 0 63 -2 94 -5c71 -8 90 -27 87 -99c-3 -59 -11 -76 -49 -76c-12 0 -76 13 -132 13c-60 0 -111 -15 -111 -59c0 -102 428 43 428 -293
c0 -190 -180 -274 -364 -274z" />
    <glyph glyph-name="scircumflex" unicode="&#x15d;" horiz-adv-x="700" 
d="M442 975l53 -82c27 -40 20 -55 -25 -71l-1 -1c-47 -16 -62 -10 -81 37l-25 63l-40 -72c-21 -39 -36 -45 -79 -34h-1c-41 11 -47 24 -24 60l65 103c21 35 36 44 78 41h1c41 -3 55 -10 79 -44zM71 144c43 51 58 56 122 24c32 -15 63 -22 94 -22c76 0 136 36 136 91
c0 97 -380 10 -380 275c0 181 222 253 378 253c35 0 70 -3 105 -10c69 -15 84 -40 59 -107l-8 -21c-24 -59 -34 -64 -97 -48c-25 7 -51 10 -75 10c-76 0 -138 -31 -138 -79c0 -101 398 4 398 -295c0 -145 -166 -245 -343 -245c-83 0 -165 21 -236 69c-49 33 -52 60 -15 105z
" />
    <glyph glyph-name="Scedilla" unicode="&#x15e;" horiz-adv-x="711" 
d="M391 -303c-31 0 -63 6 -91 14c-36 11 -44 23 -35 60l6 25c5 21 8 24 31 21c7 -1 16 -2 27 -2c23 0 40 8 40 32c0 23 -20 36 -47 45c-47 13 -53 26 -40 73l4 16c-84 7 -165 29 -226 68c-56 35 -62 67 -23 118l3 5c48 61 62 68 137 36c47 -20 93 -29 133 -29
c77 0 132 32 132 88c0 126 -413 29 -413 271c0 186 180 234 350 234c32 0 63 -2 94 -5c71 -8 90 -27 87 -99c-3 -59 -11 -76 -49 -76c-12 0 -76 13 -132 13c-60 0 -111 -15 -111 -59c0 -102 428 43 428 -293c0 -168 -142 -255 -303 -271l-11 -41c33 -5 146 -24 146 -115
c0 -83 -57 -129 -137 -129z" />
    <glyph glyph-name="scedilla" unicode="&#x15f;" horiz-adv-x="700" 
d="M71 144c43 51 58 56 122 24c32 -15 63 -22 94 -22c76 0 136 36 136 91c0 97 -380 10 -380 275c0 181 222 253 378 253c35 0 70 -3 105 -10c69 -15 84 -40 59 -107l-8 -21c-24 -59 -34 -64 -97 -48c-25 7 -51 10 -75 10c-76 0 -138 -31 -138 -79c0 -101 398 4 398 -295
c0 -131 -132 -222 -287 -241l-8 -30c33 -5 146 -24 146 -115c0 -83 -57 -129 -137 -129c-31 0 -63 6 -91 14c-36 11 -44 23 -35 60l6 25c5 21 8 24 31 21c7 -1 16 -2 27 -2c23 0 40 8 40 32c0 23 -20 36 -47 45c-48 13 -52 26 -39 78c-65 7 -129 27 -185 66
c-49 33 -52 60 -15 105z" />
    <glyph glyph-name="Scaron" unicode="&#x160;" horiz-adv-x="711" 
d="M448 959l-57 -107c-21 -37 -33 -44 -76 -47c-41 -3 -58 7 -81 38l-60 79c-28 37 -24 53 20 72l1 1c45 19 60 13 83 -30l30 -62l34 75c19 40 34 47 78 39c43 -8 48 -21 28 -58zM332 -21c-100 0 -199 25 -272 70c-56 35 -62 67 -23 118l3 5c48 61 62 68 137 36
c47 -20 93 -29 133 -29c77 0 132 32 132 88c0 126 -413 29 -413 271c0 186 180 234 350 234c32 0 63 -2 94 -5c71 -8 90 -27 87 -99c-3 -59 -11 -76 -49 -76c-12 0 -76 13 -132 13c-60 0 -111 -15 -111 -59c0 -102 428 43 428 -293c0 -190 -180 -274 -364 -274z" />
    <glyph glyph-name="scaron" unicode="&#x161;" horiz-adv-x="700" 
d="M460 964l-53 -109c-19 -38 -30 -47 -74 -50c-41 -3 -56 4 -83 36l-62 75c-31 37 -27 51 18 74c44 21 61 17 84 -27l32 -60l32 76c17 41 31 49 76 42c43 -7 49 -18 30 -57zM71 144c43 51 58 56 122 24c32 -15 63 -22 94 -22c76 0 136 36 136 91c0 97 -380 10 -380 275
c0 181 222 253 378 253c35 0 70 -3 105 -10c69 -15 84 -40 59 -107l-8 -21c-24 -59 -34 -64 -97 -48c-25 7 -51 10 -75 10c-76 0 -138 -31 -138 -79c0 -101 398 4 398 -295c0 -145 -166 -245 -343 -245c-83 0 -165 21 -236 69c-49 33 -52 60 -15 105z" />
    <glyph glyph-name="Tcommaaccent" unicode="&#x162;" horiz-adv-x="645" 
d="M272 -332c-52 -7 -65 6 -54 55l24 124c13 72 33 85 108 77c69 -8 81 -29 54 -92l-41 -95c-22 -50 -37 -61 -91 -69zM400 517l16 -431c3 -81 -15 -101 -95 -112l-19 -2c-77 -11 -99 10 -96 88l12 444l-92 -6c-81 -5 -100 13 -100 93l1 67c0 79 21 99 100 94l406 -24
c76 -5 94 -24 91 -102c-3 -76 -20 -95 -96 -100z" />
    <glyph glyph-name="tcommaaccent" unicode="&#x163;" horiz-adv-x="574" 
d="M237 -332c-52 -7 -65 6 -54 55l24 124c13 72 33 85 108 77c69 -8 81 -29 54 -92l-41 -95c-22 -50 -37 -61 -91 -69zM422 545l-27 -479c-5 -80 -26 -98 -106 -90l-10 1c-81 8 -99 29 -99 110l4 448l-71 -2c-74 -3 -94 15 -102 91c-8 75 7 93 82 98l388 24
c79 5 100 -15 100 -95s-19 -100 -99 -103z" />
    <glyph glyph-name="Tcaron" unicode="&#x164;" horiz-adv-x="645" 
d="M477 940l-65 -103c-21 -35 -36 -44 -78 -41h-1c-41 1 -56 9 -79 44l-53 82c-27 40 -20 55 25 71l1 1c47 16 62 10 81 -37l25 -63l40 72c21 39 36 45 79 34h1c41 -11 47 -24 24 -60zM400 517l16 -431c3 -81 -15 -101 -95 -112l-19 -2c-77 -11 -99 10 -96 88l12 444l-92 -6
c-81 -5 -100 13 -100 93l1 67c0 79 21 99 100 94l406 -24c76 -5 94 -24 91 -102c-3 -76 -20 -95 -96 -100z" />
    <glyph glyph-name="tcaron" unicode="&#x165;" horiz-adv-x="574" 
d="M433 933l-59 -107c-20 -36 -34 -44 -75 -45h-1c-41 -1 -57 7 -81 39l-58 78c-29 39 -25 54 19 73l2 1c45 19 61 13 82 -31l30 -62l35 75c19 40 33 47 77 38h1c43 -9 48 -22 28 -59zM422 545l-27 -479c-5 -80 -26 -98 -106 -90l-10 1c-81 8 -99 29 -99 110l4 448l-71 -2
c-74 -3 -94 15 -102 91c-8 75 7 93 82 98l388 24c79 5 100 -15 100 -95s-19 -100 -99 -103z" />
    <glyph glyph-name="Tbar" unicode="&#x166;" horiz-adv-x="645" 
d="M400 517l4 -111l58 1c53 1 66 -13 62 -68c-3 -54 -17 -67 -71 -70l-44 -2l7 -181c3 -81 -15 -101 -95 -112l-19 -2c-77 -11 -99 10 -96 88l5 198l-32 -1c-59 -3 -71 13 -74 72c-3 58 12 73 70 73h40l3 102l-92 -6c-81 -5 -100 13 -100 93l1 67c0 79 21 99 100 94l406 -24
c76 -5 94 -24 91 -102c-3 -76 -20 -95 -96 -100z" />
    <glyph glyph-name="tbar" unicode="&#x167;" horiz-adv-x="574" 
d="M422 545l-9 -149h33c53 0 66 -13 62 -68c-3 -54 -17 -67 -71 -70l-31 -1l-11 -191c-5 -80 -26 -98 -106 -90l-10 1c-81 8 -99 29 -99 110l1 163h-18c-59 -3 -71 13 -74 72c-3 58 12 73 70 73h24l1 140l-71 -2c-74 -3 -94 15 -102 91c-8 75 7 93 82 98l388 24
c79 5 100 -15 100 -95s-19 -100 -99 -103z" />
    <glyph glyph-name="Utilde" unicode="&#x168;" horiz-adv-x="700" 
d="M333 850c-13 0 -21 -7 -25 -22c-8 -25 -12 -27 -37 -24l-19 3c-39 5 -47 17 -44 54c3 53 20 121 73 121c67 0 58 -66 109 -66c24 0 27 19 27 47c0 5 0 8 -1 11c0 6 3 9 9 8l99 -11c11 -3 15 -5 15 -17c1 -5 1 -10 1 -17c0 -61 -15 -149 -96 -149c-73 0 -76 62 -111 62z
M490 521c0 47 -3 92 -7 133c-8 71 7 91 81 96c69 8 88 -12 96 -80c4 -46 6 -94 6 -144c0 -275 -73 -567 -310 -567c-219 0 -322 267 -322 578c0 39 3 84 7 128c8 77 29 100 109 89l30 -4c84 -8 95 -26 87 -108c-3 -35 -5 -69 -5 -100c0 -184 34 -309 112 -309
c87 0 116 119 116 288z" />
    <glyph glyph-name="utilde" unicode="&#x169;" horiz-adv-x="704" 
d="M346 853c-13 0 -21 -7 -25 -22c-8 -25 -12 -27 -37 -24l-19 3c-39 5 -47 17 -44 54c3 53 20 121 73 121c67 0 58 -66 109 -66c24 0 27 19 27 47c0 5 0 8 -1 11c0 6 3 9 9 8l99 -11c11 -3 15 -5 15 -17c1 -5 1 -10 1 -17c0 -61 -15 -149 -96 -149c-73 0 -76 62 -111 62z
M500 496c0 49 -3 100 -10 151c-8 77 8 95 86 95h10c71 0 88 -21 93 -89c2 -29 3 -59 3 -90c0 -332 -82 -601 -314 -601c-211 0 -340 306 -340 640c0 24 1 47 2 71c3 55 18 66 73 62l117 -9c64 -5 75 -20 72 -83c-1 -25 -2 -52 -2 -79c0 -204 28 -338 103 -338
c77 0 107 105 107 270z" />
    <glyph glyph-name="Umacron" unicode="&#x16a;" horiz-adv-x="700" 
d="M586 889c-3 -56 -18 -69 -72 -72l-274 -11c-59 -3 -71 11 -74 69v2c-3 58 12 73 70 73l287 5c53 1 66 -13 63 -66zM490 521c0 47 -3 92 -7 133c-8 71 7 91 81 96c69 8 88 -12 96 -80c4 -46 6 -94 6 -144c0 -275 -73 -567 -310 -567c-219 0 -322 267 -322 578
c0 39 3 84 7 128c8 77 29 100 109 89l30 -4c84 -8 95 -26 87 -108c-3 -35 -5 -69 -5 -100c0 -184 34 -309 112 -309c87 0 116 119 116 288z" />
    <glyph glyph-name="umacron" unicode="&#x16b;" horiz-adv-x="704" 
d="M576 886c-5 -56 -17 -69 -72 -72l-274 -11c-59 -3 -71 11 -74 69v2c-3 58 12 73 70 73l287 5c53 1 66 -13 63 -66zM500 496c0 49 -3 100 -10 151c-8 77 8 95 86 95h10c71 0 88 -21 93 -89c2 -29 3 -59 3 -90c0 -332 -82 -601 -314 -601c-211 0 -340 306 -340 640
c0 24 1 47 2 71c3 55 18 66 73 62l117 -9c64 -5 75 -20 72 -83c-1 -25 -2 -52 -2 -79c0 -204 28 -338 103 -338c77 0 107 105 107 270z" />
    <glyph glyph-name="Ubreve" unicode="&#x16c;" horiz-adv-x="700" 
d="M389 954c0 7 -2 12 -2 19c0 6 4 9 11 9h88c43 0 65 -14 65 -43c0 -68 -55 -151 -180 -151c-112 0 -157 82 -157 150c0 24 12 32 43 32h9c34 0 37 0 53 -35c7 -15 20 -22 38 -22c27 0 32 18 32 41zM490 521c0 47 -3 92 -7 133c-8 71 7 91 81 96c69 8 88 -12 96 -80
c4 -46 6 -94 6 -144c0 -275 -73 -567 -310 -567c-219 0 -322 267 -322 578c0 39 3 84 7 128c8 77 29 100 109 89l30 -4c84 -8 95 -26 87 -108c-3 -35 -5 -69 -5 -100c0 -184 34 -309 112 -309c87 0 116 119 116 288z" />
    <glyph glyph-name="ubreve" unicode="&#x16d;" horiz-adv-x="704" 
d="M379 944c0 7 -2 12 -2 19c0 6 4 9 11 9h88c43 0 65 -14 65 -43c0 -68 -55 -151 -180 -151c-112 0 -157 82 -157 150c0 24 12 32 43 32h9c34 0 37 0 53 -35c7 -15 20 -22 38 -22c27 0 32 18 32 41zM500 496c0 49 -3 100 -10 151c-8 77 8 95 86 95h10c71 0 88 -21 93 -89
c2 -29 3 -59 3 -90c0 -332 -82 -601 -314 -601c-211 0 -340 306 -340 640c0 24 1 47 2 71c3 55 18 66 73 62l117 -9c64 -5 75 -20 72 -83c-1 -25 -2 -52 -2 -79c0 -204 28 -338 103 -338c77 0 107 105 107 270z" />
    <glyph glyph-name="Uring" unicode="&#x16e;" horiz-adv-x="700" 
d="M375 1030c73 0 133 -57 133 -126c0 -68 -60 -125 -133 -125s-133 57 -133 125c0 69 60 126 133 126zM346 901c0 -21 15 -37 34 -37s34 16 34 37c0 20 -15 37 -34 37s-34 -17 -34 -37zM490 521c0 47 -3 92 -7 133c-8 71 7 91 81 96c69 8 88 -12 96 -80c4 -46 6 -94 6 -144
c0 -275 -73 -567 -310 -567c-219 0 -322 267 -322 578c0 39 3 84 7 128c8 77 29 100 109 89l30 -4c84 -8 95 -26 87 -108c-3 -35 -5 -69 -5 -100c0 -184 34 -309 112 -309c87 0 116 119 116 288z" />
    <glyph glyph-name="uring" unicode="&#x16f;" horiz-adv-x="704" 
d="M359 1027c73 0 133 -57 133 -126c0 -68 -60 -125 -133 -125s-133 57 -133 125c0 69 60 126 133 126zM330 898c0 -21 15 -37 34 -37s34 16 34 37c0 20 -15 37 -34 37s-34 -17 -34 -37zM500 496c0 49 -3 100 -10 151c-8 77 8 95 86 95h10c71 0 88 -21 93 -89
c2 -29 3 -59 3 -90c0 -332 -82 -601 -314 -601c-211 0 -340 306 -340 640c0 24 1 47 2 71c3 55 18 66 73 62l117 -9c64 -5 75 -20 72 -83c-1 -25 -2 -52 -2 -79c0 -204 28 -338 103 -338c77 0 107 105 107 270z" />
    <glyph glyph-name="Uhungarumlaut" unicode="&#x170;" horiz-adv-x="700" 
d="M591 901l-81 -81c-25 -27 -37 -30 -72 -15l-2 1c-33 13 -36 25 -19 56l42 75c32 56 51 62 111 43h2c56 -19 60 -38 19 -79zM382 901l-81 -81c-25 -27 -37 -30 -72 -15l-2 1c-33 13 -36 25 -19 56l42 75c32 56 51 62 111 43h2c56 -19 60 -38 19 -79zM490 521
c0 47 -3 92 -7 133c-8 71 7 91 81 96c69 8 88 -12 96 -80c4 -46 6 -94 6 -144c0 -275 -73 -567 -310 -567c-219 0 -322 267 -322 578c0 39 3 84 7 128c8 77 29 100 109 89l30 -4c84 -8 95 -26 87 -108c-3 -35 -5 -69 -5 -100c0 -184 34 -309 112 -309c87 0 116 119 116 288z
" />
    <glyph glyph-name="uhungarumlaut" unicode="&#x171;" horiz-adv-x="704" 
d="M588 904l-81 -81c-25 -27 -37 -30 -72 -15l-2 1c-33 13 -36 25 -19 56l42 75c32 56 51 62 111 43h2c56 -19 60 -38 19 -79zM379 904l-81 -81c-25 -27 -37 -30 -72 -15l-2 1c-33 13 -36 25 -19 56l42 75c32 56 51 62 111 43h2c56 -19 60 -38 19 -79zM500 496
c0 49 -3 100 -10 151c-8 77 8 95 86 95h10c71 0 88 -21 93 -89c2 -29 3 -59 3 -90c0 -332 -82 -601 -314 -601c-211 0 -340 306 -340 640c0 24 1 47 2 71c3 55 18 66 73 62l117 -9c64 -5 75 -20 72 -83c-1 -25 -2 -52 -2 -79c0 -204 28 -338 103 -338c77 0 107 105 107 270z
" />
    <glyph glyph-name="Uogonek" unicode="&#x172;" horiz-adv-x="700" 
d="M491 -137c19 0 34 6 49 13c28 15 37 13 54 -18c15 -23 12 -36 -9 -55c-37 -31 -97 -63 -153 -63c-66 0 -136 57 -136 125c0 35 15 67 36 95c-203 19 -298 277 -298 577c0 39 3 84 7 128c8 77 29 100 109 89l30 -4c84 -8 95 -26 87 -108c-3 -35 -5 -69 -5 -100
c0 -184 34 -309 112 -309c87 0 116 119 116 288c0 47 -3 92 -7 133c-8 71 7 91 81 96c69 8 88 -12 96 -80c4 -46 6 -94 6 -144c0 -213 -46 -423 -166 -527c-22 -19 -56 -48 -56 -86c0 -27 19 -50 47 -50z" />
    <glyph glyph-name="uogonek" unicode="&#x173;" horiz-adv-x="704" 
d="M521 -125c19 0 34 6 49 13c28 15 37 13 54 -18c15 -23 12 -36 -9 -55c-37 -31 -97 -63 -153 -63c-66 0 -136 57 -136 125c0 31 12 59 29 86c-203 12 -327 313 -327 639c0 24 1 47 2 71c3 55 18 66 73 62l117 -9c64 -5 75 -20 72 -83c-1 -25 -2 -52 -2 -79
c0 -204 28 -338 103 -338c77 0 107 105 107 270c0 49 -3 100 -10 151c-8 77 8 95 86 95c81 0 98 -21 103 -89c2 -29 3 -59 3 -90c0 -240 -47 -439 -148 -543c-20 -20 -60 -53 -60 -95c0 -27 19 -50 47 -50z" />
    <glyph glyph-name="Wcircumflex" unicode="&#x174;" horiz-adv-x="914" 
d="M571 953l53 -82c27 -40 20 -55 -25 -71l-1 -1c-47 -16 -62 -10 -81 37l-25 63l-40 -72c-21 -39 -36 -45 -79 -34h-1c-41 11 -47 24 -24 60l65 103c21 35 36 44 79 41c41 -3 55 -10 79 -44zM898 602l-211 -557c-24 -67 -48 -78 -119 -62c-69 16 -89 35 -100 106l-39 244
l-76 -237c-24 -76 -48 -99 -128 -115c-77 -16 -101 0 -114 77l-104 579c-13 79 0 102 80 115l64 12c77 16 100 -3 108 -82l31 -306l73 225c16 52 31 66 85 66c56 0 68 -7 79 -59l47 -256l107 322c25 77 50 88 126 64l31 -11c77 -25 87 -51 60 -125z" />
    <glyph glyph-name="wcircumflex" unicode="&#x175;" horiz-adv-x="868" 
d="M526 942l53 -82c27 -40 20 -55 -25 -71l-1 -1c-47 -16 -62 -10 -81 37l-25 63l-40 -72c-21 -39 -36 -45 -79 -34h-1c-41 11 -47 24 -24 60l65 103c21 35 36 44 78 41h1c41 -3 55 -10 79 -44zM857 595l-201 -565c-22 -57 -38 -68 -101 -60c-61 8 -79 23 -95 82l-67 233
l-67 -221c-19 -61 -38 -76 -102 -87c-61 -11 -80 4 -91 65l-106 586c-13 77 2 100 82 108l11 1c82 8 102 -9 115 -89l42 -273l59 242c11 48 25 56 74 56s60 -12 71 -57l58 -287l95 321c24 77 47 91 125 72l35 -9c77 -19 90 -43 63 -118z" />
    <glyph glyph-name="Ycircumflex" unicode="&#x176;" horiz-adv-x="727" 
d="M491 970l53 -82c27 -40 20 -55 -25 -71l-1 -1c-47 -16 -62 -10 -81 37l-25 63l-40 -72c-21 -39 -36 -45 -79 -34h-1c-41 11 -47 24 -24 60l65 103c21 35 36 44 78 41h1c41 -3 55 -10 79 -44zM492 316l2 -234c0 -81 -18 -104 -99 -109l-46 -3c-79 -5 -101 12 -101 91
l-3 262l-218 285c-47 61 -39 86 34 111l84 29c77 27 104 16 144 -55l115 -205l116 206c37 67 64 78 139 49c71 -27 79 -52 38 -115z" />
    <glyph glyph-name="ycircumflex" unicode="&#x177;" horiz-adv-x="701" 
d="M446 966l53 -82c27 -40 20 -55 -25 -71l-1 -1c-47 -16 -62 -10 -81 37l-25 63l-40 -72c-21 -39 -36 -45 -79 -34h-1c-41 11 -47 24 -24 60l65 103c21 35 36 44 78 41h1c41 -3 55 -10 79 -44zM491 289l3 -208c0 -80 -18 -101 -99 -98l-61 1c-79 3 -100 21 -97 102l7 202
l-203 263c-48 64 -46 89 22 135l38 27c66 48 94 39 139 -27l137 -205l99 193c35 73 63 80 139 54l10 -3c76 -24 85 -52 45 -122z" />
    <glyph glyph-name="Ydieresis" unicode="&#x178;" horiz-adv-x="727" 
d="M572 869c0 -39 -31 -71 -68 -71c-39 0 -69 32 -69 71s30 71 69 71c37 0 68 -32 68 -71zM377 869c0 -39 -31 -71 -68 -71c-39 0 -69 32 -69 71s30 71 69 71c37 0 68 -32 68 -71zM492 316l2 -234c0 -81 -18 -104 -99 -109l-46 -3c-79 -5 -101 12 -101 91l-3 262l-218 285
c-47 61 -39 86 34 111l84 29c77 27 104 16 144 -55l115 -205l116 206c37 67 64 78 139 49c71 -27 79 -52 38 -115z" />
    <glyph glyph-name="Zacute" unicode="&#x179;" horiz-adv-x="773" 
d="M506 915l-81 -81c-25 -27 -37 -30 -72 -15l-2 1c-33 13 -36 25 -19 56l42 75c32 56 51 62 111 43h2c56 -19 60 -38 19 -79zM725 116v-57c0 -79 -22 -99 -102 -91l-505 45c-76 7 -86 29 -45 93l297 454l-211 -11c-74 -5 -95 14 -92 91c0 76 20 96 95 99l491 22
c73 3 86 -17 49 -81l-282 -475l207 7c80 3 98 -16 98 -96z" />
    <glyph glyph-name="zacute" unicode="&#x17a;" horiz-adv-x="705" 
d="M453 909l-81 -81c-25 -27 -37 -30 -72 -15l-2 1c-33 13 -36 25 -19 56l42 75c32 56 51 62 111 43h2c56 -19 60 -38 19 -79zM664 102c5 -87 -15 -107 -94 -107h-461c-59 0 -72 14 -72 74c0 55 9 85 46 127l294 348l-206 -13c-80 -5 -101 13 -98 93v16c3 82 21 100 102 103
l340 10c67 3 90 -11 119 -74c30 -63 26 -86 -14 -142l-266 -358l205 15c81 5 100 -11 105 -92z" />
    <glyph glyph-name="Zdotaccent" unicode="&#x17b;" horiz-adv-x="773" 
d="M455 876c0 -39 -31 -71 -68 -71c-39 0 -69 32 -69 71s30 71 69 71c37 0 68 -32 68 -71zM725 116v-57c0 -79 -22 -99 -102 -91l-505 45c-76 7 -86 29 -45 93l297 454l-211 -11c-74 -5 -95 14 -92 91c0 76 20 96 95 99l491 22c73 3 86 -17 49 -81l-282 -475l207 7
c80 3 98 -16 98 -96z" />
    <glyph glyph-name="zdotaccent" unicode="&#x17c;" horiz-adv-x="705" 
d="M421 876c0 -39 -31 -71 -68 -71c-39 0 -69 32 -69 71s30 71 69 71c37 0 68 -32 68 -71zM664 102c5 -87 -15 -107 -94 -107h-461c-59 0 -72 14 -72 74c0 55 9 85 46 127l294 348l-206 -13c-80 -5 -101 13 -98 93v16c3 82 21 100 102 103l340 10c67 3 90 -11 119 -74
c30 -63 26 -86 -14 -142l-266 -358l205 15c81 5 100 -11 105 -92z" />
    <glyph glyph-name="Zcaron" unicode="&#x17d;" horiz-adv-x="773" 
d="M549 954l-65 -103c-21 -35 -36 -44 -78 -41h-1c-41 1 -56 9 -79 44l-53 82c-27 40 -20 55 25 71l1 1c47 16 62 10 81 -37l25 -63l40 72c21 39 36 45 79 34h1c41 -11 47 -24 24 -60zM725 116v-57c0 -79 -22 -99 -102 -91l-505 45c-76 7 -86 29 -45 93l297 454l-211 -11
c-74 -5 -95 14 -92 91c0 76 20 96 95 99l491 22c73 3 86 -17 49 -81l-282 -475l207 7c80 3 98 -16 98 -96z" />
    <glyph glyph-name="zcaron" unicode="&#x17e;" horiz-adv-x="705" 
d="M492 946l-65 -103c-21 -35 -36 -44 -78 -41h-1c-41 1 -56 9 -79 44l-53 82c-27 40 -20 55 25 71l1 1c47 16 62 10 81 -37l25 -63l40 72c21 39 36 45 79 34h1c41 -11 47 -24 24 -60zM664 102c5 -87 -15 -107 -94 -107h-461c-59 0 -72 14 -72 74c0 55 9 85 46 127l294 348
l-206 -13c-80 -5 -101 13 -98 93v16c3 82 21 100 102 103l340 10c67 3 90 -11 119 -74c30 -63 26 -86 -14 -142l-266 -358l205 15c81 5 100 -11 105 -92z" />
    <glyph glyph-name="Ohorn" unicode="&#x1a0;" horiz-adv-x="812" 
d="M692 636c63 -72 95 -167 95 -267c0 -232 -186 -377 -394 -377c-200 0 -368 158 -368 370c0 219 141 399 381 399c84 0 154 -22 211 -59c55 29 68 67 68 106c0 11 -3 25 -3 38c0 9 3 13 10 13c4 0 8 -2 77 -23c35 -12 53 -31 53 -56c0 -68 -65 -125 -130 -144zM409 180
c88 0 146 73 146 180c0 78 -51 161 -147 161s-160 -71 -160 -175c0 -84 51 -166 161 -166z" />
    <glyph glyph-name="ohorn" unicode="&#x1a1;" horiz-adv-x="780" 
d="M755 368c0 -211 -161 -397 -369 -397c-205 0 -361 181 -361 394c0 216 157 403 364 403c84 0 156 -28 216 -75c48 31 60 64 60 101c0 11 -3 25 -3 38c0 9 3 13 10 13c4 0 8 -2 77 -23c35 -12 53 -31 53 -56c0 -66 -64 -124 -128 -143c51 -69 81 -158 81 -255zM391 180
c90 0 141 81 141 173s-55 172 -138 172c-91 0 -153 -83 -153 -175c0 -96 47 -170 150 -170z" />
    <glyph glyph-name="Uhorn" unicode="&#x1af;" horiz-adv-x="726" 
d="M490 521c0 69 -6 133 -14 189c-1 3 -1 7 -1 12c0 16 8 20 29 23l34 3c98 8 117 77 117 122c0 11 -3 25 -3 38c0 9 3 13 10 13c4 0 8 -2 77 -23c35 -12 53 -31 53 -56c0 -69 -67 -126 -135 -145c6 -54 9 -111 9 -171c0 -275 -73 -567 -310 -567c-219 0 -322 267 -322 578
c0 39 3 84 7 128c7 67 22 91 77 91c9 0 19 -1 62 -6c68 -8 89 -20 89 -71c0 -39 -7 -96 -7 -137c0 -184 34 -309 112 -309c87 0 116 119 116 288z" />
    <glyph glyph-name="uhorn" unicode="&#x1b0;" horiz-adv-x="736" 
d="M500 496c0 72 -7 146 -19 215c-1 3 -1 7 -1 12c0 13 10 20 29 20h34c99 0 128 77 128 123c0 11 -3 25 -3 38c0 9 3 13 10 13c4 0 8 -2 77 -23c35 -12 53 -31 53 -56c0 -69 -64 -125 -132 -144c4 -42 6 -86 6 -131c0 -332 -82 -601 -314 -601c-211 0 -340 306 -340 640
c0 99 0 134 58 134c6 0 11 -2 134 -10c63 -5 72 -20 72 -83c0 -25 -2 -52 -2 -79c0 -204 28 -338 103 -338c77 0 107 105 107 270z" />
    <glyph glyph-name="AEacute" unicode="&#x1fc;" horiz-adv-x="985" 
d="M683 926l-81 -81c-25 -27 -37 -30 -72 -15l-2 1c-33 13 -36 25 -19 56l42 75c32 56 51 62 111 43h2c56 -19 60 -38 19 -79zM334 321h127l-19 246zM959 141l2 -46c3 -81 -13 -99 -94 -99l-281 5c-80 0 -103 21 -108 101l-7 87l-190 -7l-47 -120c-30 -76 -55 -86 -132 -62
l-7 2c-76 24 -85 50 -51 121l262 541c35 75 63 92 144 97l364 23c68 3 93 -11 93 -81c0 -69 -11 -88 -79 -96l-190 -22l10 -102l136 10c64 5 87 -9 87 -74c0 -63 -7 -81 -71 -86l-129 -11l18 -108l165 17c79 8 102 -10 105 -90z" />
    <glyph glyph-name="aeacute" unicode="&#x1fd;" horiz-adv-x="973" 
d="M688 907l-81 -81c-25 -27 -37 -30 -72 -15l-2 1c-33 13 -36 25 -19 56l42 75c32 56 51 62 111 43h2c56 -19 60 -38 19 -79zM286 248l128 8l-71 235zM958 120c0 -69 -9 -87 -76 -98l-281 -44c-80 -13 -104 3 -128 80l-17 57l-198 -14l-12 -53c-16 -79 -41 -95 -119 -79
l-30 5c-78 16 -92 38 -68 114l179 576c24 77 48 95 130 92l93 -3c16 -1 21 -4 28 -20l387 27c80 5 102 -13 102 -93v-42c0 -79 -17 -101 -98 -104l-308 -14l37 -100l251 22c55 5 71 -8 74 -65c3 -56 -9 -70 -65 -75l-209 -20l37 -99l201 24c65 8 90 -7 90 -74z" />
    <glyph glyph-name="Oslashacute" unicode="&#x1fe;" horiz-adv-x="812" 
d="M530 913l-81 -81c-25 -27 -37 -30 -72 -15l-2 1c-33 13 -36 25 -19 56l42 75c32 56 51 62 111 43h2c56 -19 60 -38 19 -79zM248 346c0 -35 7 -69 26 -97l127 272c-93 -4 -153 -74 -153 -175zM555 360c0 31 -8 62 -23 89l-143 -268c7 -1 13 -1 20 -1c88 0 146 73 146 180z
M295 5l-32 -61c-21 -40 -37 -44 -74 -17c-39 29 -43 46 -24 89l19 40c-96 65 -159 174 -159 306c0 219 141 399 381 399c36 0 70 -4 101 -12l10 22c30 59 51 67 108 29c56 -38 63 -59 30 -119l-3 -6c88 -75 135 -187 135 -306c0 -232 -186 -377 -394 -377
c-35 0 -67 5 -98 13z" />
    <glyph glyph-name="oslashacute" unicode="&#x1ff;" horiz-adv-x="780" 
d="M503 913l-81 -81c-25 -27 -37 -30 -72 -15l-2 1c-33 13 -36 25 -19 56l42 75c32 56 51 62 111 43h2c56 -19 60 -38 19 -79zM241 350c0 -39 7 -74 23 -102l129 277c-89 0 -152 -83 -152 -175zM379 180h12c90 0 141 81 141 173c0 29 -5 56 -16 83zM277 -11l-27 -52
c-21 -40 -34 -38 -74 -17c-41 23 -43 46 -23 89l18 39c-91 72 -146 188 -146 317c0 216 157 403 364 403c37 0 74 -6 109 -17l6 13c30 60 51 67 108 29c56 -37 63 -58 30 -118l-5 -10c75 -73 118 -178 118 -297c0 -211 -161 -397 -369 -397c-39 0 -74 7 -109 18z" />
    <glyph glyph-name="Scommaaccent" unicode="&#x218;" horiz-adv-x="711" 
d="M307 -329c-52 -7 -65 6 -54 55l24 124c13 72 33 85 108 77c69 -8 81 -29 54 -92l-41 -95c-22 -50 -37 -61 -91 -69zM332 -21c-100 0 -199 25 -272 70c-56 35 -62 67 -23 118l3 5c48 61 62 68 137 36c47 -20 93 -29 133 -29c77 0 132 32 132 88c0 126 -413 29 -413 271
c0 186 180 234 350 234c32 0 63 -2 94 -5c71 -8 90 -27 87 -99c-3 -59 -11 -76 -49 -76c-12 0 -76 13 -132 13c-60 0 -111 -15 -111 -59c0 -102 428 43 428 -293c0 -190 -180 -274 -364 -274z" />
    <glyph glyph-name="scommaaccent" unicode="&#x219;" horiz-adv-x="700" 
d="M301 -332c-52 -7 -65 6 -54 55l24 124c13 72 33 85 108 77c69 -8 81 -29 54 -92l-41 -95c-22 -50 -37 -61 -91 -69zM71 144c43 51 58 56 122 24c32 -15 63 -22 94 -22c76 0 136 36 136 91c0 97 -380 10 -380 275c0 181 222 253 378 253c35 0 70 -3 105 -10
c69 -15 84 -40 59 -107l-8 -21c-24 -59 -34 -64 -97 -48c-25 7 -51 10 -75 10c-76 0 -138 -31 -138 -79c0 -101 398 4 398 -295c0 -145 -166 -245 -343 -245c-83 0 -165 21 -236 69c-49 33 -52 60 -15 105z" />
    <glyph glyph-name="dotlessj" unicode="&#x237;" horiz-adv-x="657" 
d="M335 -37c-109 0 -215 65 -288 173c-43 63 -33 93 39 120l46 17c63 22 62 23 105 -31c19 -24 41 -36 68 -36c44 0 87 41 87 144c0 84 -24 189 -45 268s-10 101 70 120l60 14c76 19 102 3 121 -73c23 -92 34 -182 34 -258c0 -272 -109 -458 -297 -458z" />
    <glyph glyph-name="circumflex" unicode="&#x2c6;" horiz-adv-x="438" 
d="M302 978l53 -82c27 -40 21 -55 -26 -72c-47 -16 -62 -10 -81 37l-25 63l-40 -72c-21 -39 -36 -45 -80 -34c-41 11 -47 24 -24 60l65 103c21 35 36 44 79 41c41 -3 55 -10 79 -44z" />
    <glyph glyph-name="caron" unicode="&#x2c7;" horiz-adv-x="438" 
d="M359 950l-65 -103c-21 -35 -36 -44 -79 -41c-41 1 -56 9 -79 44l-53 82c-27 40 -21 55 26 72c47 16 62 10 81 -37l25 -63l40 72c21 39 36 45 80 34c41 -11 47 -24 24 -60z" />
    <glyph glyph-name="uni02C9" unicode="&#x2c9;" horiz-adv-x="526" 
d="M471 884c-3 -54 -17 -67 -71 -70l-274 -11c-59 -3 -71 11 -74 71c-3 58 12 73 70 73l287 5c53 1 66 -13 62 -68z" />
    <glyph glyph-name="breve" unicode="&#x2d8;" horiz-adv-x="443" 
d="M227 966c0 7 -2 12 -2 19c0 6 4 9 11 9h88c43 0 64 -15 64 -44c0 -68 -55 -150 -179 -150c-112 0 -157 82 -157 150c0 24 12 32 43 32h9c34 0 37 0 53 -35c7 -15 20 -22 38 -22c27 0 32 18 32 41z" />
    <glyph glyph-name="dotaccent" unicode="&#x2d9;" horiz-adv-x="237" 
d="M187 876c0 -39 -31 -71 -68 -71c-39 0 -69 32 -69 71s30 71 69 71c37 0 68 -32 68 -71z" />
    <glyph glyph-name="ring" unicode="&#x2da;" horiz-adv-x="366" 
d="M183 1050c73 0 133 -57 133 -126c0 -68 -60 -125 -133 -125s-133 57 -133 125c0 69 60 126 133 126zM154 921c0 -21 15 -37 34 -37s34 16 34 37c0 20 -15 37 -34 37s-34 -17 -34 -37z" />
    <glyph glyph-name="ogonek" unicode="&#x2db;" horiz-adv-x="409" 
d="M355 -117c19 0 34 6 49 13c28 15 37 12 53 -15l1 -3c15 -23 12 -36 -9 -55c-37 -31 -97 -63 -153 -63c-66 0 -136 57 -136 125c0 63 53 122 95 156c25 21 38 23 67 8l3 -1c29 -15 31 -26 10 -51c-15 -19 -27 -39 -27 -64c0 -27 19 -50 47 -50z" />
    <glyph glyph-name="tilde" unicode="&#x2dc;" horiz-adv-x="434" 
d="M177 862c-29 0 -24 -47 -49 -47c-3 0 -8 0 -13 1l-19 3c-35 5 -45 14 -45 42c0 56 19 133 74 133c67 0 58 -66 109 -66c24 0 27 19 27 47c0 3 -1 7 -1 11c0 5 2 8 6 8c0 0 2 0 102 -11c15 -3 16 -9 16 -34c0 -61 -15 -149 -96 -149c-73 0 -76 62 -111 62z" />
    <glyph glyph-name="hungarumlaut" unicode="&#x2dd;" horiz-adv-x="559" 
d="M455 909l-81 -81c-25 -27 -37 -30 -72 -15l-2 1c-33 13 -36 25 -19 56l42 75c32 56 51 62 111 43h2c56 -19 60 -38 19 -79zM246 909l-81 -81c-25 -27 -37 -30 -72 -15l-2 1c-33 13 -36 25 -19 56l42 75c32 56 51 62 111 43h2c56 -19 60 -38 19 -79z" />
    <glyph glyph-name="hookabovecomb" unicode="&#x309;" horiz-adv-x="371" 
d="M123 946c-8 0 -17 -2 -27 -5c-20 -8 -25 -5 -29 15l-6 25c-9 37 -1 50 36 59c29 7 60 12 89 12c89 0 135 -55 135 -114c0 -68 -58 -138 -177 -138c-21 0 -42 2 -65 6c-15 3 -18 6 -18 21v5c0 13 3 15 15 14h17c61 0 88 29 88 56c0 23 -19 44 -58 44z" />
    <glyph glyph-name="tonos" unicode="&#x384;" horiz-adv-x="350" 
d="M246 909l-81 -81c-25 -27 -37 -30 -72 -15l-2 1c-33 13 -36 25 -19 56l42 75c32 56 51 62 111 43h2c56 -19 60 -38 19 -79z" />
    <glyph glyph-name="dieresistonos" unicode="&#x385;" horiz-adv-x="539" 
d="M342 943l-9 -102c-3 -37 -12 -42 -51 -39s-47 14 -52 53l-10 73c-8 53 5 70 60 75c53 7 67 -7 62 -60zM506 876c0 -39 -31 -71 -68 -71c-39 0 -69 32 -69 71s30 71 69 71c37 0 68 -32 68 -71zM191 876c0 -39 -31 -71 -68 -71c-39 0 -69 32 -69 71s30 71 69 71
c37 0 68 -32 68 -71z" />
    <glyph glyph-name="Alphatonos" unicode="&#x386;" 
d="M114 777l-81 -81c-25 -27 -37 -30 -72 -15l-2 1c-33 13 -36 25 -19 56l42 75c32 56 51 62 111 43h2c56 -19 60 -38 19 -79zM497 677l203 -583c27 -73 10 -95 -67 -98l-33 -2c-100 -5 -106 13 -125 93l-22 86l-193 -7l-11 -61c-13 -81 -18 -95 -119 -103l-29 -2
c-77 -4 -94 17 -74 92l153 561c21 80 44 99 184 110c82 5 106 -8 133 -86zM287 305h131l-74 236z" />
    <glyph glyph-name="Epsilontonos" unicode="&#x388;" horiz-adv-x="707" 
d="M101 761l-81 -81c-25 -27 -37 -30 -72 -15l-2 1c-33 13 -36 25 -19 56l42 75c32 56 51 62 111 43h2c56 -19 60 -38 19 -79zM682 141l2 -46c3 -81 -13 -99 -94 -99l-281 5c-80 0 -103 21 -108 101l-41 532c-5 81 10 101 91 112l287 34c68 8 87 -8 92 -77s-11 -88 -79 -96
l-190 -22l10 -102l136 10c63 5 82 -10 87 -74c5 -63 -8 -81 -71 -86l-132 -11l15 -108l170 17c80 8 101 -10 106 -90z" />
    <glyph glyph-name="Etatonos" unicode="&#x389;" horiz-adv-x="752" 
d="M97 766l-81 -81c-25 -27 -37 -30 -72 -15l-2 1c-33 13 -36 25 -19 56l42 75c32 56 51 62 111 43h2c56 -19 60 -38 19 -79zM694 637l19 -542c3 -80 -16 -97 -114 -97c-80 0 -101 21 -101 102l-2 163l-124 -12l-4 -173c-3 -81 -22 -97 -105 -92c-80 5 -102 28 -102 108
l-8 519c0 80 16 100 98 105l26 2c80 5 101 -14 98 -95l-5 -209l125 3l-2 201c0 78 17 101 97 106c80 8 101 -13 104 -89z" />
    <glyph glyph-name="Iotatonos" unicode="&#x38a;" horiz-adv-x="582" 
d="M108 783l-81 -81c-25 -27 -37 -30 -72 -15l-2 1c-33 13 -36 25 -19 56l42 75c32 56 51 62 111 43h2c56 -19 60 -38 19 -79zM512 100l-2 -27c-5 -78 -24 -95 -102 -87l-198 20c-72 8 -88 26 -83 99l1 9c5 68 21 81 90 78l15 371c-65 0 -80 15 -83 79v9c-3 69 15 88 83 91
l247 10c75 3 96 -16 93 -93s-21 -96 -101 -96l-27 -388c59 -3 70 -19 67 -75z" />
    <glyph glyph-name="Omicrontonos" unicode="&#x38c;" horiz-adv-x="832" 
d="M120 752l-81 -81c-25 -27 -37 -30 -72 -15l-2 1c-33 13 -36 25 -19 56l42 75c32 56 51 62 111 43h2c56 -19 60 -38 19 -79zM427 761c245 0 381 -188 381 -392c0 -232 -186 -377 -394 -377c-200 0 -368 158 -368 370c0 219 141 399 381 399zM430 180c88 0 146 73 146 180
c0 78 -51 161 -147 161s-160 -71 -160 -175c0 -84 51 -166 161 -166z" />
    <glyph glyph-name="Upsilontonos" unicode="&#x38e;" horiz-adv-x="870" 
d="M93 759l-81 -81c-25 -27 -37 -30 -72 -15l-2 1c-33 13 -36 25 -19 56l42 75c32 56 51 62 111 43h2c56 -19 60 -38 19 -79zM636 316l2 -234c0 -81 -18 -104 -99 -109l-46 -3c-79 -5 -101 12 -101 91l-3 262l-218 285c-47 61 -39 86 34 111l84 29c77 27 104 16 144 -55
l115 -205l116 206c37 67 64 78 139 49c71 -27 79 -52 38 -115z" />
    <glyph glyph-name="Omegatonos" unicode="&#x38f;" horiz-adv-x="813" 
d="M120 776l-81 -81c-25 -27 -37 -30 -72 -15l-2 1c-33 13 -36 25 -19 56l42 75c32 56 51 62 111 43h2c56 -19 60 -38 19 -79zM701 0l-158 -6c-56 -3 -75 10 -75 57v14c0 46 5 48 61 112c35 39 55 101 55 162c0 92 -46 182 -159 182s-159 -90 -159 -182
c0 -64 22 -123 58 -162c49 -52 58 -59 58 -101c0 -3 0 -5 -1 -25c-3 -44 -21 -54 -72 -54h-167c-63 0 -79 16 -76 80s19 77 81 72l86 -8c-125 40 -174 156 -174 269c0 168 113 351 366 351c248 0 364 -156 364 -319c0 -116 -59 -233 -172 -301l88 8c60 7 77 -8 74 -71
c-3 -61 -17 -75 -78 -78z" />
    <glyph glyph-name="iotadieresistonos" unicode="&#x390;" horiz-adv-x="324" 
d="M237 957l-9 -86c-3 -39 -11 -54 -51 -54c-37 0 -47 1 -52 38l-11 87c-5 53 4 70 61 75c53 7 67 -7 62 -60zM401 890c0 -39 -31 -71 -68 -71c-39 0 -69 32 -69 71s30 71 69 71c37 0 68 -32 68 -71zM86 890c0 -39 -31 -71 -68 -71c-39 0 -69 32 -69 71s30 71 69 71
c37 0 68 -32 68 -71zM287 650l-14 -575c-3 -81 -21 -101 -102 -104l-31 -1c-80 -3 -101 16 -98 96l12 580c3 81 21 102 102 102h33c80 0 101 -18 98 -98z" />
    <glyph glyph-name="Alpha" unicode="&#x391;" 
d="M496 677l203 -583c27 -73 10 -95 -67 -98l-33 -2c-100 -5 -106 13 -125 93l-22 86l-193 -7l-11 -61c-13 -81 -18 -95 -119 -103l-29 -2c-77 -4 -94 17 -74 92l153 561c21 80 44 99 184 110c82 5 106 -8 133 -86zM286 305h131l-74 236z" />
    <glyph glyph-name="Beta" unicode="&#x392;" horiz-adv-x="695" 
d="M202 -10c-25 0 -48 1 -70 3c-53 4 -69 20 -72 73l-33 547c-5 77 16 101 91 117c59 11 120 18 181 18c176 0 310 -55 310 -161c0 -68 -46 -117 -126 -172c121 -11 205 -63 205 -169c0 -173 -264 -256 -486 -256zM227 583l13 -146c83 3 151 42 151 94c0 45 -40 68 -96 68
c-23 0 -47 -5 -68 -16zM261 287l14 -133c90 3 170 36 170 92c0 43 -38 58 -93 58c-33 0 -67 -6 -91 -17z" />
    <glyph glyph-name="Gamma" unicode="&#x393;" horiz-adv-x="575" 
d="M445 535l-192 10l-4 -480c0 -78 -22 -98 -103 -88c-80 8 -99 31 -96 111l14 572c3 80 23 99 103 96l284 -12c79 -3 100 -24 97 -104v-10c-3 -79 -23 -100 -103 -95z" />
    <glyph glyph-name="uni0394" unicode="&#x394;" 
d="M496 677l203 -583c24 -71 11 -95 -67 -95l-532 -3c-76 0 -96 21 -74 96l153 561c21 80 43 97 126 105l58 5c81 8 107 -9 133 -86zM464 152l-121 389l-92 -385z" />
    <glyph glyph-name="Epsilon" unicode="&#x395;" horiz-adv-x="583" 
d="M557 141l2 -46c3 -81 -13 -99 -94 -99l-281 5c-80 0 -103 21 -108 101l-41 532c-5 81 10 101 91 112l287 34c68 8 87 -8 92 -77s-11 -88 -79 -96l-190 -22l10 -102l136 10c63 5 82 -10 87 -74c5 -63 -8 -81 -71 -86l-132 -11l15 -108l170 17c80 8 101 -10 106 -90z" />
    <glyph glyph-name="Zeta" unicode="&#x396;" horiz-adv-x="773" 
d="M725 116v-57c0 -79 -22 -99 -102 -91l-505 45c-76 7 -86 29 -45 93l297 454l-211 -11c-74 -5 -95 14 -92 91c0 76 20 96 95 99l491 22c73 3 86 -17 49 -81l-282 -475l207 7c80 3 98 -16 98 -96z" />
    <glyph glyph-name="Eta" unicode="&#x397;" horiz-adv-x="650" 
d="M591 637l19 -542c3 -80 -16 -97 -114 -97c-80 0 -101 21 -101 102l-2 163l-124 -12l-4 -173c-3 -81 -22 -97 -105 -92c-80 5 -102 28 -102 108l-8 519c0 80 16 100 98 105l26 2c80 5 101 -14 98 -95l-5 -209l125 3l-2 201c0 78 17 101 97 106c80 8 101 -13 104 -89z" />
    <glyph glyph-name="Theta" unicode="&#x398;" horiz-adv-x="812" 
d="M406 761c245 0 381 -188 381 -392c0 -232 -186 -377 -394 -377c-200 0 -368 158 -368 370c0 219 141 399 381 399zM409 180c95 0 155 78 155 191c0 83 -54 170 -156 170s-169 -76 -169 -185c0 -89 53 -176 170 -176zM433 305l-59 -3c-40 -3 -50 7 -53 48
c-3 40 6 49 45 56l60 9c45 7 60 -3 60 -50c0 -46 -8 -57 -53 -60z" />
    <glyph glyph-name="Iota" unicode="&#x399;" horiz-adv-x="498" 
d="M427 100l-2 -27c-5 -78 -24 -95 -102 -87l-198 20c-72 8 -88 26 -83 99l1 9c5 68 21 81 90 78l15 371c-65 0 -80 15 -83 79v9c-3 69 15 88 83 91l247 10c75 3 96 -16 93 -93s-21 -96 -101 -96l-27 -388c59 -3 70 -19 67 -75z" />
    <glyph glyph-name="Kappa" unicode="&#x39a;" horiz-adv-x="720" 
d="M446 360l188 -186c56 -55 54 -83 -9 -130l-18 -13c-65 -48 -94 -47 -150 12l-183 189l-19 -184c-7 -65 -26 -79 -91 -64c-67 16 -81 33 -84 100l-17 550c-3 80 18 101 97 98l47 -2c79 -3 99 -22 91 -102l-19 -197l146 203c48 67 77 79 158 76l29 -2c73 -4 83 -27 39 -84z
" />
    <glyph glyph-name="Lambda" unicode="&#x39b;" 
d="M632 -1c-104 -3 -127 15 -151 94l-138 448l-105 -448c-18 -79 -40 -97 -123 -97c-93 0 -110 21 -89 95l157 572c22 78 43 94 126 89l64 -4c81 -5 107 -25 133 -101l193 -553c24 -71 11 -95 -67 -95z" />
    <glyph glyph-name="Mu" unicode="&#x39c;" horiz-adv-x="1011" 
d="M919 633l52 -539c8 -79 -11 -100 -90 -97c-130 3 -151 15 -156 105l-23 350l-141 -382c-16 -42 -30 -50 -75 -47c-45 1 -58 12 -73 55l-125 365l-22 -342c-5 -80 -26 -96 -143 -77c-80 13 -95 35 -82 115l88 527c13 79 36 96 117 91l46 -3c83 -5 105 -25 134 -102
l94 -257l99 237c32 76 56 93 139 96l51 1c81 3 102 -15 110 -96z" />
    <glyph glyph-name="Nu" unicode="&#x39d;" horiz-adv-x="737" 
d="M700 650l-53 -602c-5 -46 -14 -57 -62 -68c-45 -8 -63 -3 -87 37l-242 376l14 -304c3 -79 -17 -98 -95 -90l-16 2c-81 8 -99 29 -102 110l-12 477c-3 80 15 106 95 119l37 6c80 13 106 3 144 -70l152 -288l-11 281c-3 80 16 103 96 106l51 2c78 3 99 -15 91 -94z" />
    <glyph glyph-name="Xi" unicode="&#x39e;" horiz-adv-x="681" 
d="M163 736l361 3c76 0 91 -18 86 -95c-5 -75 -26 -95 -102 -95l-348 -4c-75 0 -96 18 -93 95c0 76 20 96 96 96zM442 316l-194 -10c-59 -3 -71 10 -74 70c-3 58 12 73 70 73l207 5c53 1 66 -13 62 -68c-3 -53 -17 -67 -71 -70zM645 116l-1 -16c-3 -81 -21 -100 -102 -100
h-400c-73 0 -89 18 -84 94c5 75 25 92 99 97l390 20c80 3 101 -14 98 -95z" />
    <glyph glyph-name="Omicron" unicode="&#x39f;" horiz-adv-x="812" 
d="M406 761c245 0 381 -188 381 -392c0 -232 -186 -377 -394 -377c-200 0 -368 158 -368 370c0 219 141 399 381 399zM409 180c88 0 146 73 146 180c0 78 -51 161 -147 161s-160 -71 -160 -175c0 -84 51 -166 161 -166z" />
    <glyph glyph-name="Pi" unicode="&#x3a0;" horiz-adv-x="650" 
d="M591 635l19 -540c3 -80 -16 -101 -96 -98c-99 3 -118 23 -118 103v464l-131 -12l-2 -474c0 -81 -20 -97 -103 -92c-80 5 -102 28 -102 108l-8 519c0 81 16 101 98 104l339 14c80 3 101 -16 104 -96z" />
    <glyph glyph-name="Rho" unicode="&#x3a1;" horiz-adv-x="701" 
d="M292 202l17 -117c10 -78 -4 -101 -85 -106l-32 -2c-80 -5 -103 13 -108 93l-42 565c-5 77 15 103 89 119c49 10 98 15 147 15c267 0 409 -106 409 -295c0 -136 -130 -272 -395 -272zM238 575l28 -196c86 16 174 57 174 126c0 64 -49 89 -109 89c-31 0 -62 -6 -93 -19z
" />
    <glyph glyph-name="Sigma" unicode="&#x3a3;" horiz-adv-x="705" 
d="M51 98l203 282l-203 291c-41 60 -29 81 43 80l451 -7c76 0 93 -21 96 -98c0 -75 -18 -95 -93 -90l-201 11l110 -115c28 -29 42 -50 42 -73s-13 -43 -40 -74l-94 -105l197 7c80 3 98 -16 98 -96v-37c0 -79 -22 -99 -102 -94l-465 31c-75 5 -85 27 -42 87z" />
    <glyph glyph-name="Tau" unicode="&#x3a4;" horiz-adv-x="645" 
d="M400 517l16 -431c3 -81 -15 -101 -95 -112l-19 -2c-77 -11 -99 10 -96 88l12 444l-92 -6c-81 -5 -100 13 -100 93l1 67c0 79 21 99 100 94l406 -24c76 -5 94 -24 91 -102c-3 -76 -20 -95 -96 -100z" />
    <glyph glyph-name="Upsilon" unicode="&#x3a5;" horiz-adv-x="727" 
d="M492 316l2 -234c0 -81 -18 -104 -99 -109l-46 -3c-79 -5 -101 12 -101 91l-3 262l-218 285c-47 61 -39 86 34 111l84 29c77 27 104 16 144 -55l115 -205l116 206c37 67 64 78 139 49c71 -27 79 -52 38 -115z" />
    <glyph glyph-name="Phi" unicode="&#x3a6;" horiz-adv-x="923" 
d="M553 78c-3 -75 -19 -92 -92 -95l-13 -1c-77 -3 -99 15 -96 95c-205 24 -332 130 -332 274c0 149 111 269 343 296v11c3 81 21 99 103 102c83 3 103 -18 100 -98v-16c232 -29 337 -150 337 -290c0 -157 -139 -254 -350 -278zM562 464l-6 -244c83 19 115 65 115 129
c0 45 -29 94 -109 115zM355 222l5 242c-84 -20 -117 -66 -117 -126c0 -48 28 -95 112 -116z" />
    <glyph glyph-name="Chi" unicode="&#x3a7;" horiz-adv-x="710" 
d="M492 378l190 -233c48 -60 41 -86 -31 -113l-75 -27c-77 -29 -104 -20 -149 49l-83 126l-104 -145c-47 -63 -74 -72 -139 -23l-16 12c-64 45 -66 73 -10 129l166 167l-181 238c-49 65 -43 91 21 139l38 28c64 48 93 41 139 -23l134 -190l117 177c43 68 72 72 141 32
c77 -48 83 -73 29 -133z" />
    <glyph glyph-name="Psi" unicode="&#x3a8;" horiz-adv-x="949" 
d="M569 176l-2 -94c-3 -76 -20 -97 -98 -100c-76 -3 -95 15 -95 91l-1 104c-216 24 -351 132 -351 356c0 31 3 63 8 98c11 75 34 92 109 87l37 -3c67 -5 82 -23 74 -90c-4 -32 -6 -61 -6 -86c0 -123 43 -178 128 -198l-2 317c0 81 20 99 100 102h13c80 3 101 -18 98 -98
l-8 -324c87 16 134 62 134 175c0 27 -3 58 -9 93c-14 74 3 90 76 98l39 4c72 8 95 -11 106 -83c5 -33 7 -65 7 -96c0 -196 -103 -329 -357 -353z" />
    <glyph glyph-name="uni03A9" unicode="&#x3a9;" horiz-adv-x="780" 
d="M667 0l-158 -6c-56 -3 -75 10 -75 57v14c0 46 5 48 61 112c35 39 55 101 55 162c0 92 -46 182 -159 182s-159 -90 -159 -182c0 -64 22 -123 58 -162c49 -52 58 -59 58 -101c0 -3 0 -5 -1 -25c-3 -44 -21 -54 -72 -54h-167c-63 0 -79 16 -76 80s19 77 81 72l86 -8
c-125 40 -174 156 -174 269c0 168 113 351 366 351c248 0 364 -156 364 -319c0 -116 -59 -233 -172 -301l88 8c60 7 77 -8 74 -71c-3 -61 -17 -75 -78 -78z" />
    <glyph glyph-name="Iotadieresis" unicode="&#x3aa;" horiz-adv-x="498" 
d="M446 867c0 -39 -31 -71 -68 -71c-39 0 -69 32 -69 71s30 71 69 71c37 0 68 -32 68 -71zM251 867c0 -39 -31 -71 -68 -71c-39 0 -69 32 -69 71s30 71 69 71c37 0 68 -32 68 -71zM427 100l-2 -27c-5 -78 -24 -95 -102 -87l-198 20c-72 8 -88 26 -83 99l1 9
c5 68 21 81 90 78l15 371c-65 0 -80 15 -83 79v9c-3 69 15 88 83 91l247 10c75 3 96 -16 93 -93s-21 -96 -101 -96l-27 -388c59 -3 70 -19 67 -75z" />
    <glyph glyph-name="Upsilondieresis" unicode="&#x3ab;" horiz-adv-x="727" 
d="M572 869c0 -39 -31 -71 -68 -71c-39 0 -69 32 -69 71s30 71 69 71c37 0 68 -32 68 -71zM377 869c0 -39 -31 -71 -68 -71c-39 0 -69 32 -69 71s30 71 69 71c37 0 68 -32 68 -71zM492 316l2 -234c0 -81 -18 -104 -99 -109l-46 -3c-79 -5 -101 12 -101 91l-3 262l-218 285
c-47 61 -39 86 34 111l84 29c77 27 104 16 144 -55l115 -205l116 206c37 67 64 78 139 49c71 -27 79 -52 38 -115z" />
    <glyph glyph-name="alphatonos" unicode="&#x3ac;" horiz-adv-x="719" 
d="M458 919l-81 -81c-25 -27 -37 -30 -72 -15l-2 1c-33 13 -36 25 -19 56l42 75c32 56 51 62 111 43h2c56 -19 60 -38 19 -79zM286 255l128 8l-71 235zM486 665l200 -539c27 -75 16 -100 -61 -122c-105 -30 -128 -17 -152 61l-17 57l-198 -14l-12 -53
c-16 -79 -41 -95 -119 -79l-30 5c-78 16 -92 38 -68 114l179 576c24 77 48 95 130 92c96 -3 119 -21 148 -98z" />
    <glyph glyph-name="epsilontonos" unicode="&#x3ad;" horiz-adv-x="537" 
d="M385 909l-81 -81c-25 -27 -37 -30 -72 -15l-2 1c-33 13 -36 25 -19 56l42 75c32 56 51 62 111 43h2c56 -19 60 -38 19 -79zM518 119c3 -69 -8 -87 -76 -98l-281 -44c-78 -13 -101 5 -104 84l-29 558c-5 81 15 102 95 110l283 27c80 8 102 -10 102 -90v-42
c0 -80 -17 -103 -98 -108l-202 -15l4 -89l178 16c56 5 74 -8 74 -65c0 -55 -9 -71 -65 -76l-177 -19l4 -100l202 25c65 8 86 -7 90 -74z" />
    <glyph glyph-name="etatonos" unicode="&#x3ae;" horiz-adv-x="674" 
d="M441 909l-81 -81c-25 -27 -37 -30 -72 -15l-2 1c-33 13 -36 25 -19 56l42 75c32 56 51 62 111 43h2c56 -19 60 -38 19 -79zM635 642l-15 -550c-3 -80 -23 -101 -103 -96l-26 2c-79 5 -100 25 -95 104l10 194l-150 -33l5 -182c3 -75 -18 -93 -93 -90c-76 3 -96 22 -101 97
l-39 524c-5 82 10 99 91 112l26 4c80 11 98 -8 101 -88l5 -184l163 5l10 194c3 79 26 99 105 94l9 -1c80 -5 100 -25 97 -106z" />
    <glyph glyph-name="iotatonos" unicode="&#x3af;" horiz-adv-x="324" 
d="M276 919l-81 -81c-25 -27 -37 -30 -72 -15l-2 1c-33 13 -36 25 -19 56l42 75c32 56 51 62 111 43h2c56 -19 60 -38 19 -79zM287 650l-14 -575c-3 -81 -21 -101 -102 -104l-31 -1c-80 -3 -101 16 -98 96l12 580c3 81 21 102 102 102h33c80 0 101 -18 98 -98z" />
    <glyph glyph-name="upsilondieresistonos" unicode="&#x3b0;" horiz-adv-x="701" 
d="M412 943l-9 -102c-3 -37 -12 -43 -51 -39s-47 14 -52 53l-10 73c-8 53 5 70 60 75c53 7 67 -7 62 -60zM576 876c0 -39 -31 -71 -68 -71c-39 0 -69 32 -69 71s30 71 69 71c37 0 68 -32 68 -71zM261 876c0 -39 -31 -71 -68 -71c-39 0 -69 32 -69 71s30 71 69 71
c37 0 68 -32 68 -71zM491 289l3 -208c0 -80 -18 -101 -99 -98l-61 1c-79 3 -100 21 -97 102l7 202l-203 263c-48 64 -46 89 22 135l38 27c66 48 94 39 139 -27l137 -205l99 193c35 73 63 80 139 54l10 -3c76 -24 85 -52 45 -122z" />
    <glyph glyph-name="alpha" unicode="&#x3b1;" horiz-adv-x="719" 
d="M286 255l128 8l-71 235zM486 665l200 -539c27 -75 16 -100 -61 -122c-105 -30 -128 -17 -152 61l-17 57l-198 -14l-12 -53c-16 -79 -41 -95 -119 -79l-30 5c-78 16 -92 38 -68 114l179 576c24 77 48 95 130 92c96 -3 119 -21 148 -98z" />
    <glyph glyph-name="beta" unicode="&#x3b2;" horiz-adv-x="701" 
d="M266 -11c-31 0 -68 2 -103 5c-76 7 -101 32 -102 108l-15 532c-3 77 19 101 95 112c52 7 110 10 159 10c157 0 315 -41 315 -169c0 -68 -65 -124 -153 -172c119 -18 226 -78 226 -171c0 -184 -225 -255 -422 -255zM265 472c40 0 116 33 116 85c0 43 -40 59 -81 59
c-22 0 -42 -4 -60 -11l4 -131c7 -1 13 -2 21 -2zM313 154c63 0 137 17 137 82c0 57 -52 75 -108 75c-35 0 -69 -7 -93 -16l3 -135c16 -3 37 -6 61 -6z" />
    <glyph glyph-name="gamma" unicode="&#x3b3;" horiz-adv-x="521" 
d="M432 559l-175 6l-20 -486c-3 -80 -23 -103 -105 -108c-79 -5 -100 13 -97 93l14 587c3 79 23 100 103 97l273 -8c72 -3 93 -20 93 -94c0 -72 -15 -90 -86 -87z" />
    <glyph glyph-name="delta" unicode="&#x3b4;" 
d="M518 655l183 -565c24 -73 8 -95 -69 -94l-532 3c-78 0 -93 23 -72 97l173 579c24 77 45 96 128 88l58 -5c81 -8 107 -25 131 -103zM471 156l-112 385l-101 -389z" />
    <glyph glyph-name="epsilon" unicode="&#x3b5;" horiz-adv-x="537" 
d="M518 119c3 -69 -8 -87 -76 -98l-281 -44c-78 -13 -101 5 -104 84l-29 558c-5 81 15 102 95 110l283 27c80 8 102 -10 102 -90v-42c0 -80 -17 -103 -98 -108l-202 -15l4 -89l178 16c56 5 74 -8 74 -65c0 -55 -9 -71 -65 -76l-177 -19l4 -100l202 25c65 8 86 -7 90 -74z
" />
    <glyph glyph-name="zeta" unicode="&#x3b6;" horiz-adv-x="705" 
d="M664 102c5 -87 -15 -107 -94 -107h-461c-59 0 -72 14 -72 74c0 55 9 85 46 127l294 348l-206 -13c-80 -5 -101 13 -98 93v16c3 82 21 100 102 103l340 10c67 3 90 -11 119 -74c30 -63 26 -86 -14 -142l-266 -358l205 15c81 5 100 -11 105 -92z" />
    <glyph glyph-name="eta" unicode="&#x3b7;" horiz-adv-x="674" 
d="M635 642l-15 -550c-3 -80 -23 -101 -103 -96l-26 2c-79 5 -100 25 -95 104l10 194l-150 -33l5 -182c3 -75 -18 -93 -93 -90c-76 3 -96 22 -101 97l-39 524c-5 82 10 99 91 112l26 4c80 11 98 -8 101 -88l5 -184l163 5l10 194c3 79 26 99 105 94l9 -1
c80 -5 100 -25 97 -106z" />
    <glyph glyph-name="theta" unicode="&#x3b8;" horiz-adv-x="780" 
d="M755 368c0 -210 -161 -387 -369 -387c-205 0 -361 171 -361 384c0 216 157 393 364 393c211 0 366 -170 366 -390zM391 180c90 0 141 81 141 173s-55 172 -138 172c-91 0 -153 -83 -153 -175c0 -96 47 -170 150 -170zM423 306l-79 -4c-32 -3 -40 5 -43 38
c-3 32 4 40 35 45l80 11c37 5 50 -2 50 -41c0 -38 -6 -46 -43 -49z" />
    <glyph glyph-name="iota" unicode="&#x3b9;" horiz-adv-x="324" 
d="M287 650l-14 -575c-3 -81 -21 -101 -102 -104l-31 -1c-80 -3 -101 16 -98 96l12 580c3 81 21 102 102 102h33c80 0 101 -18 98 -98z" />
    <glyph glyph-name="kappa" unicode="&#x3ba;" horiz-adv-x="706" 
d="M430 372l221 -211c56 -56 55 -80 -3 -135l-18 -17c-61 -53 -87 -52 -143 7l-226 244l-3 -166c0 -79 -20 -102 -100 -113c-77 -11 -98 6 -101 84l-24 572c-3 80 16 101 96 106l50 3c80 5 98 -15 93 -94l-12 -164l164 216c49 65 76 68 144 25l6 -4c67 -45 71 -70 22 -135z
" />
    <glyph glyph-name="lambda" unicode="&#x3bb;" horiz-adv-x="719" 
d="M625 4c-105 -27 -128 -16 -152 61l-130 433l-97 -443c-16 -79 -41 -95 -119 -79l-30 5c-78 16 -92 38 -68 114l179 576c24 77 48 95 130 92c96 -3 119 -21 148 -98l200 -539c27 -75 16 -100 -61 -122z" />
    <glyph glyph-name="uni03BC" unicode="&#x3bc;" horiz-adv-x="903" 
d="M782 664l93 -560c13 -80 -5 -98 -84 -103l-46 -3c-81 -5 -101 16 -109 96l-26 307l-112 -286c-13 -35 -24 -41 -61 -49c-35 -7 -45 0 -56 35l-90 279l-57 -302c-16 -77 -37 -94 -116 -75l-13 3c-78 19 -92 41 -76 121l121 556c13 61 31 76 96 79s81 -11 103 -71l102 -297
l121 292c24 61 47 75 115 67c67 -5 84 -23 95 -89z" />
    <glyph glyph-name="nu" unicode="&#x3bd;" horiz-adv-x="693" 
d="M633 645l22 -597c3 -49 -10 -62 -61 -67c-50 -5 -67 3 -94 46l-230 356l44 -301c11 -79 -3 -102 -84 -110l-75 -9c-80 -8 -98 8 -101 89l-12 615c0 68 14 81 83 81c68 0 93 -17 133 -70l170 -232l-31 228c-11 77 8 96 85 88l48 -6c80 -8 100 -31 103 -111z" />
    <glyph glyph-name="xi" unicode="&#x3be;" horiz-adv-x="657" 
d="M43 624l1 16c3 81 21 100 102 100h390c73 0 89 -18 84 -94c-5 -74 -25 -94 -99 -97l-380 -20c-80 -5 -101 16 -98 95zM444 303l-247 -5c-53 -1 -66 13 -62 68c3 54 17 67 71 70l234 11c57 3 74 -11 74 -71c0 -58 -12 -73 -70 -73zM525 4l-401 -3c-75 0 -86 18 -86 95
c0 75 25 95 102 95l388 4c75 0 96 -18 93 -95c0 -76 -20 -96 -96 -96z" />
    <glyph glyph-name="omicron" unicode="&#x3bf;" horiz-adv-x="780" 
d="M755 368c0 -211 -161 -397 -369 -397c-205 0 -361 181 -361 394c0 216 157 403 364 403c211 0 366 -179 366 -400zM391 180c90 0 141 81 141 173s-55 172 -138 172c-91 0 -153 -83 -153 -175c0 -96 47 -170 150 -170z" />
    <glyph glyph-name="pi" unicode="&#x3c0;" horiz-adv-x="674" 
d="M635 642l-15 -550c-3 -80 -23 -101 -103 -96l-26 2c-79 5 -100 25 -95 104l23 476l-171 -31l12 -466c3 -75 -16 -93 -92 -90s-96 22 -101 97l-40 532c-5 80 11 101 92 104l419 14c79 3 100 -16 97 -96z" />
    <glyph glyph-name="rho" unicode="&#x3c1;" horiz-adv-x="602" 
d="M240 198l4 -123c3 -80 -17 -99 -100 -99c-82 0 -100 19 -103 100l-14 545c-3 76 22 103 94 116c47 9 95 12 146 12c197 0 343 -81 343 -236c0 -179 -126 -304 -370 -315zM261 362c109 0 171 59 171 112c0 43 -39 80 -124 80c-27 0 -55 -4 -78 -12l5 -179
c9 -1 18 -1 26 -1z" />
    <glyph glyph-name="sigma1" unicode="&#x3c2;" horiz-adv-x="714" 
d="M60 79l213 301l-219 284c-44 57 -33 79 39 80l460 7c76 0 94 -18 97 -95c0 -75 -18 -95 -93 -90l-221 11l136 -128c29 -28 44 -49 44 -70s-14 -42 -42 -70l-120 -119l217 14c80 5 101 -13 98 -93v-7c-3 -80 -21 -101 -102 -101l-465 -5c-72 -1 -85 21 -42 81z" />
    <glyph glyph-name="sigma" unicode="&#x3c3;" horiz-adv-x="714" 
d="M60 79l213 301l-219 284c-44 57 -33 79 39 80l460 7c76 0 94 -18 97 -95c0 -75 -18 -95 -93 -90l-221 11l136 -128c29 -28 44 -49 44 -70s-14 -42 -42 -70l-120 -119l217 14c80 5 101 -13 98 -93v-7c-3 -80 -21 -101 -102 -101l-465 -5c-72 -1 -85 21 -42 81z" />
    <glyph glyph-name="tau" unicode="&#x3c4;" horiz-adv-x="574" 
d="M422 545l-27 -479c-5 -80 -26 -98 -106 -90l-10 1c-81 8 -99 29 -99 110l4 448l-71 -2c-74 -3 -94 15 -102 91c-8 75 7 93 82 98l388 24c79 5 100 -15 100 -95s-19 -100 -99 -103z" />
    <glyph glyph-name="upsilon" unicode="&#x3c5;" horiz-adv-x="701" 
d="M491 289l3 -208c0 -80 -18 -101 -99 -98l-61 1c-79 3 -100 21 -97 102l7 202l-203 263c-48 64 -46 89 22 135l38 27c66 48 94 39 139 -27l137 -205l99 193c35 73 63 80 139 54l10 -3c76 -24 85 -52 45 -122z" />
    <glyph glyph-name="phi" unicode="&#x3c6;" horiz-adv-x="923" 
d="M360 642v20c0 81 22 98 103 95s99 -23 99 -104v-11c205 -24 341 -118 341 -270v-8c-5 -140 -114 -262 -346 -291c0 -75 -21 -96 -96 -93h-18c-73 3 -89 19 -89 93c-228 24 -334 140 -334 287c0 148 131 258 340 282zM560 500l-2 -253c85 24 113 83 113 130
c0 60 -31 104 -111 123zM356 247l3 250c-88 -23 -115 -70 -115 -121c0 -57 32 -106 112 -129z" />
    <glyph glyph-name="chi" unicode="&#x3c7;" horiz-adv-x="763" 
d="M526 379l174 -147c59 -51 61 -78 1 -130l-47 -43c-60 -55 -89 -53 -145 6l-122 125l-103 -154c-45 -67 -70 -74 -142 -34l-71 39c-68 37 -73 65 -18 121l180 189l-183 195c-53 56 -50 85 17 125l15 10c69 43 98 39 154 -20l131 -137l121 177c45 67 73 75 145 38l43 -21
c71 -36 74 -62 26 -123z" />
    <glyph glyph-name="psi" unicode="&#x3c8;" horiz-adv-x="909" 
d="M549 168l-2 -96c-3 -76 -21 -94 -98 -89c-77 3 -96 24 -96 100v84c-228 29 -330 177 -330 379c0 31 2 64 7 97c10 73 34 93 107 85l35 -3c76 -8 89 -26 78 -102c-5 -35 -8 -67 -8 -95c0 -117 46 -174 110 -197l-2 327c0 79 20 100 100 97h13c80 -3 101 -23 98 -103
l-8 -319c68 25 112 90 112 222c0 27 -2 56 -5 88c-8 70 6 87 76 92l33 3c75 5 99 -13 110 -88c5 -35 7 -68 7 -99c0 -232 -137 -356 -337 -383z" />
    <glyph glyph-name="omega" unicode="&#x3c9;" horiz-adv-x="760" 
d="M276 178c49 -65 60 -67 60 -116c0 -46 -8 -68 -75 -68l-148 5c-61 3 -78 18 -78 81c0 60 14 76 74 69l88 -8c-113 68 -172 185 -172 301c0 208 175 317 351 317c179 0 359 -112 359 -349c0 -113 -51 -229 -174 -269l86 8c63 7 81 -9 81 -73c0 -63 -13 -79 -76 -79h-157
c-56 0 -73 14 -73 67c0 48 4 54 57 115c32 39 49 97 49 160c0 124 -71 183 -144 183c-76 0 -154 -64 -154 -183c0 -60 15 -122 46 -161z" />
    <glyph glyph-name="iotadieresis" unicode="&#x3ca;" horiz-adv-x="324" 
d="M328 876c0 -39 -31 -71 -68 -71c-39 0 -69 32 -69 71s30 71 69 71c37 0 68 -32 68 -71zM133 876c0 -39 -31 -71 -68 -71c-39 0 -69 32 -69 71s30 71 69 71c37 0 68 -32 68 -71zM287 650l-14 -575c-3 -81 -21 -101 -102 -104l-31 -1c-80 -3 -101 16 -98 96l12 580
c3 81 21 102 102 102h33c80 0 101 -18 98 -98z" />
    <glyph glyph-name="upsilondieresis" unicode="&#x3cb;" horiz-adv-x="701" 
d="M516 876c0 -39 -31 -71 -68 -71c-39 0 -69 32 -69 71s30 71 69 71c37 0 68 -32 68 -71zM321 876c0 -39 -31 -71 -68 -71c-39 0 -69 32 -69 71s30 71 69 71c37 0 68 -32 68 -71zM491 289l3 -208c0 -80 -18 -101 -99 -98l-61 1c-79 3 -100 21 -97 102l7 202l-203 263
c-48 64 -46 89 22 135l38 27c66 48 94 39 139 -27l137 -205l99 193c35 73 63 80 139 54l10 -3c76 -24 85 -52 45 -122z" />
    <glyph glyph-name="omicrontonos" unicode="&#x3cc;" horiz-adv-x="780" 
d="M461 909l-81 -81c-25 -27 -37 -30 -72 -15l-2 1c-33 13 -36 25 -19 56l42 75c32 56 51 62 111 43h2c56 -19 60 -38 19 -79zM755 368c0 -211 -161 -397 -369 -397c-205 0 -361 181 -361 394c0 216 157 403 364 403c211 0 366 -179 366 -400zM391 180c90 0 141 81 141 173
s-55 172 -138 172c-91 0 -153 -83 -153 -175c0 -96 47 -170 150 -170z" />
    <glyph glyph-name="upsilontonos" unicode="&#x3cd;" horiz-adv-x="701" 
d="M485 897l-81 -81c-25 -27 -37 -30 -72 -15l-2 1c-33 13 -36 25 -19 56l42 75c32 56 51 62 111 43h2c56 -19 60 -38 19 -79zM491 289l3 -208c0 -80 -18 -101 -99 -98l-61 1c-79 3 -100 21 -97 102l7 202l-203 263c-48 64 -46 89 22 135l38 27c66 48 94 39 139 -27
l137 -205l99 193c35 73 63 80 139 54l10 -3c76 -24 85 -52 45 -122z" />
    <glyph glyph-name="omegatonos" unicode="&#x3ce;" horiz-adv-x="760" 
d="M483 911l-81 -81c-25 -27 -37 -30 -72 -15l-2 1c-33 13 -36 25 -19 56l42 75c32 56 51 62 111 43h2c56 -19 60 -38 19 -79zM276 178c49 -65 60 -67 60 -116c0 -46 -8 -68 -75 -68l-148 5c-61 3 -78 18 -78 81c0 60 14 76 74 69l88 -8c-113 68 -172 185 -172 301
c0 208 175 317 351 317c179 0 359 -112 359 -349c0 -113 -51 -229 -174 -269l86 8c63 7 81 -9 81 -73c0 -63 -13 -79 -76 -79h-157c-56 0 -73 14 -73 67c0 48 4 54 57 115c32 39 49 97 49 160c0 124 -71 183 -144 183c-76 0 -154 -64 -154 -183c0 -60 15 -122 46 -161z" />
    <glyph glyph-name="uni0401" unicode="&#x401;" horiz-adv-x="583" 
d="M434 878c0 -39 -31 -71 -68 -71c-39 0 -69 32 -69 71s30 71 69 71c37 0 68 -32 68 -71zM239 862c0 -39 -31 -71 -68 -71c-39 0 -69 32 -69 71s30 71 69 71c37 0 68 -32 68 -71zM557 141l2 -46c3 -81 -13 -99 -94 -99l-281 5c-80 0 -103 21 -108 101l-41 532
c-5 81 10 101 91 112l287 34c68 8 87 -8 92 -77s-11 -88 -79 -96l-190 -22l10 -102l136 10c63 5 82 -10 87 -74c5 -63 -8 -81 -71 -86l-132 -11l15 -108l170 17c80 8 101 -10 106 -90z" />
    <glyph glyph-name="uni0402" unicode="&#x402;" horiz-adv-x="897" 
d="M549 -55c-15 0 -29 1 -44 2c-32 3 -41 11 -38 44l9 106c3 17 6 22 23 19c9 -1 16 -1 23 -1c67 0 97 40 97 81s-31 82 -100 82c-29 0 -65 -7 -109 -24l6 -168c3 -81 -15 -101 -95 -112l-19 -2c-77 -11 -99 10 -96 88l12 444l-92 -6c-81 -5 -100 13 -100 93l1 67
c0 79 21 99 100 94l406 -24c76 -5 94 -24 91 -102c-3 -76 -20 -95 -96 -100l-128 -9l4 -120c63 32 128 48 189 48c151 0 279 -93 279 -248c0 -124 -100 -252 -323 -252z" />
    <glyph glyph-name="uni0403" unicode="&#x403;" horiz-adv-x="575" 
d="M407 909l-81 -81c-25 -27 -37 -30 -72 -15l-2 1c-33 13 -36 25 -19 56l42 75c32 56 51 62 111 43h2c56 -19 60 -38 19 -79zM445 535l-192 10l-4 -480c0 -78 -22 -98 -103 -88c-80 8 -99 31 -96 111l14 572c3 80 23 99 103 96l284 -12c79 -3 100 -24 97 -104v-10
c-3 -79 -23 -100 -103 -95z" />
    <glyph glyph-name="uni0404" unicode="&#x404;" horiz-adv-x="607" 
d="M402 191c21 0 44 3 67 8c54 11 64 5 78 -49l11 -45c16 -69 0 -97 -72 -110c-33 -6 -66 -9 -97 -9c-229 0 -377 161 -377 369c0 173 102 380 362 380c31 0 67 -2 104 -9c64 -11 80 -34 64 -97l-9 -36c-10 -44 -21 -50 -66 -42c-20 4 -39 6 -57 6c-87 0 -163 -42 -179 -121
l170 6c60 3 72 -13 75 -73c3 -59 -12 -73 -71 -70l-172 6c16 -82 91 -114 169 -114z" />
    <glyph glyph-name="uni0405" unicode="&#x405;" horiz-adv-x="711" 
d="M332 -21c-100 0 -199 25 -272 70c-56 35 -62 67 -23 118l3 5c48 61 62 68 137 36c47 -20 93 -29 133 -29c77 0 132 32 132 88c0 126 -413 29 -413 271c0 186 180 234 350 234c32 0 63 -2 94 -5c71 -8 90 -27 87 -99c-3 -59 -11 -76 -49 -76c-12 0 -76 13 -132 13
c-60 0 -111 -15 -111 -59c0 -102 428 43 428 -293c0 -190 -180 -274 -364 -274z" />
    <glyph glyph-name="uni0406" unicode="&#x406;" horiz-adv-x="498" 
d="M427 100l-2 -27c-5 -78 -24 -95 -102 -87l-198 20c-72 8 -88 26 -83 99l1 9c5 68 21 81 90 78l15 371c-65 0 -80 15 -83 79v9c-3 69 15 88 83 91l247 10c75 3 96 -16 93 -93s-21 -96 -101 -96l-27 -388c59 -3 70 -19 67 -75z" />
    <glyph glyph-name="uni0407" unicode="&#x407;" horiz-adv-x="498" 
d="M446 867c0 -39 -31 -71 -68 -71c-39 0 -69 32 -69 71s30 71 69 71c37 0 68 -32 68 -71zM251 867c0 -39 -31 -71 -68 -71c-39 0 -69 32 -69 71s30 71 69 71c37 0 68 -32 68 -71zM427 100l-2 -27c-5 -78 -24 -95 -102 -87l-198 20c-72 8 -88 26 -83 99l1 9
c5 68 21 81 90 78l15 371c-65 0 -80 15 -83 79v9c-3 69 15 88 83 91l247 10c75 3 96 -16 93 -93s-21 -96 -101 -96l-27 -388c59 -3 70 -19 67 -75z" />
    <glyph glyph-name="uni0408" unicode="&#x408;" horiz-adv-x="694" 
d="M688 671c0 -76 -13 -97 -89 -102c11 -51 17 -100 17 -147c0 -296 -144 -446 -301 -446c-93 0 -189 52 -264 159c-45 61 -36 96 27 136l23 15c75 49 92 44 142 -28c25 -35 57 -62 90 -62c55 0 74 74 74 158c0 73 -14 154 -31 199l-42 -3c-65 -5 -85 12 -93 78s3 84 71 92
l278 34c73 9 98 -8 98 -83z" />
    <glyph glyph-name="uni0409" unicode="&#x409;" horiz-adv-x="1069" 
d="M304 552l-1 -322c0 -144 -78 -254 -228 -254c-39 0 -49 15 -49 54v60c0 59 30 17 54 79c9 23 14 67 13 108l-5 336c0 81 18 101 99 104l349 14c79 3 100 -16 97 -96l-5 -162c52 11 102 16 145 16c226 0 282 -105 282 -200c0 -176 -160 -307 -457 -307c-28 0 -56 2 -84 5
c-61 8 -80 27 -80 91l1 486zM717 310c-35 0 -71 -6 -95 -17l-4 -118c22 -6 46 -9 71 -9c64 0 123 26 123 90c0 40 -46 54 -95 54z" />
    <glyph glyph-name="uni040A" unicode="&#x40a;" horiz-adv-x="1048" 
d="M401 429l-5 191c-3 80 18 100 97 100h32c81 0 97 -20 92 -100l-11 -148c55 12 103 17 146 17c226 0 282 -105 282 -200c0 -176 -160 -307 -457 -307c-28 0 -56 2 -84 5c-62 8 -79 27 -82 91l-6 194l-136 -21l-4 -173c-3 -81 -22 -97 -105 -92c-80 5 -102 28 -102 108
l-8 519c0 80 16 103 98 106l26 1c80 3 101 -15 98 -95l-5 -209zM668 166c64 0 123 26 123 90c0 40 -46 54 -95 54c-35 0 -71 -6 -95 -17l-4 -118c22 -6 46 -9 71 -9z" />
    <glyph glyph-name="uni040B" unicode="&#x40b;" horiz-adv-x="837" 
d="M812 196c0 -35 -3 -69 -10 -105c-14 -78 -35 -99 -115 -107l-49 -5c-67 -7 -82 10 -71 77c4 31 8 61 8 89c0 55 -21 100 -93 100c-27 0 -49 -5 -72 -13l6 -146c3 -81 -15 -101 -95 -112l-19 -2c-77 -11 -99 10 -96 88l12 444l-92 -6c-81 -5 -100 13 -100 93l1 67
c0 79 21 99 100 94l406 -24c76 -5 94 -24 91 -102c-3 -76 -20 -95 -96 -100l-128 -9l4 -112c40 11 85 19 144 19c211 0 264 -103 264 -228z" />
    <glyph glyph-name="uni040C" unicode="&#x40c;" horiz-adv-x="720" 
d="M505 886l-81 -81c-25 -27 -37 -30 -72 -15l-2 1c-33 13 -36 25 -19 56l42 75c32 56 51 62 111 43h2c56 -19 60 -38 19 -79zM446 360l188 -186c56 -55 54 -83 -9 -130l-18 -13c-65 -48 -94 -47 -150 12l-183 189l-19 -184c-7 -65 -26 -79 -91 -64c-67 16 -81 33 -84 100
l-17 550c-3 80 18 101 97 98l47 -2c79 -3 99 -22 91 -102l-19 -197l146 203c48 67 77 79 158 76l29 -2c73 -4 83 -27 39 -84z" />
    <glyph glyph-name="uni040E" unicode="&#x40e;" horiz-adv-x="860" 
d="M444 920c0 7 -2 12 -2 19c0 6 4 9 11 9h88c43 0 64 -15 64 -44c0 -68 -55 -150 -179 -150c-112 0 -157 82 -157 150c0 24 12 32 43 32h9c34 0 37 0 53 -35c7 -15 20 -22 38 -22c27 0 32 18 32 41zM728 739l43 -21c69 -37 77 -61 31 -126l-400 -558
c-48 -66 -75 -73 -148 -38l-65 31c-71 33 -75 60 -23 117l149 165l-248 283c-53 58 -47 87 19 127l15 10c69 42 97 39 151 -23l197 -224l137 217c43 70 70 75 142 40z" />
    <glyph glyph-name="uni040F" unicode="&#x40f;" horiz-adv-x="650" 
d="M396 167v464c0 81 20 99 100 102l18 1c80 3 99 -18 96 -98l-19 -540c-3 -81 -23 -99 -104 -99l-82 1l7 -73c5 -67 -11 -86 -80 -81c-70 3 -84 21 -76 90l9 65l-117 1c-80 0 -98 20 -98 100l8 519c3 80 20 103 104 108c80 5 101 -11 101 -92l2 -474z" />
    <glyph glyph-name="uni0410" unicode="&#x410;" 
d="M496 677l203 -583c27 -73 10 -95 -67 -98l-33 -2c-100 -5 -106 13 -125 93l-22 86l-193 -7l-11 -61c-13 -81 -18 -95 -119 -103l-29 -2c-77 -4 -94 17 -74 92l153 561c21 80 44 99 184 110c82 5 106 -8 133 -86zM286 305h131l-74 236z" />
    <glyph glyph-name="uni0411" unicode="&#x411;" horiz-adv-x="700" 
d="M62 78l-23 562c-3 81 16 99 96 99l396 -2c69 0 83 -19 78 -87c-5 -70 -24 -84 -92 -84l-256 5l-3 -99c55 12 103 17 146 17c226 0 282 -105 282 -200c0 -176 -160 -307 -457 -307c-28 0 -56 2 -84 5c-62 8 -80 27 -83 91zM320 166c64 0 123 26 123 90c0 40 -46 54 -95 54
c-35 0 -71 -6 -95 -17l-4 -118c22 -6 46 -9 71 -9z" />
    <glyph glyph-name="uni0412" unicode="&#x412;" horiz-adv-x="695" 
d="M202 -10c-25 0 -48 1 -70 3c-53 4 -69 20 -72 73l-33 547c-5 77 16 101 91 117c59 11 120 18 181 18c176 0 310 -55 310 -161c0 -68 -46 -117 -126 -172c121 -11 205 -63 205 -169c0 -173 -264 -256 -486 -256zM227 583l13 -146c83 3 151 42 151 94c0 45 -40 68 -96 68
c-23 0 -47 -5 -68 -16zM261 287l14 -133c90 3 170 36 170 92c0 43 -38 58 -93 58c-33 0 -67 -6 -91 -17z" />
    <glyph glyph-name="uni0413" unicode="&#x413;" horiz-adv-x="575" 
d="M445 535l-192 10l-4 -480c0 -78 -22 -98 -103 -88c-80 8 -99 31 -96 111l14 572c3 80 23 99 103 96l284 -12c79 -3 100 -24 97 -104v-10c-3 -79 -23 -100 -103 -95z" />
    <glyph glyph-name="uni0414" unicode="&#x414;" horiz-adv-x="886" 
d="M536 188l-115 360l-89 -365zM867 97l-2 -99c-3 -80 -21 -103 -101 -111c-88 -8 -111 9 -106 89l2 43l-421 -17l1 -22c3 -80 -18 -100 -98 -100h-11c-81 0 -101 19 -104 100l-3 95c-3 81 16 99 101 102l160 494c24 78 49 94 144 91c83 -3 106 -20 136 -96l183 -472l21 1
c80 3 101 -18 98 -98z" />
    <glyph glyph-name="uni0415" unicode="&#x415;" horiz-adv-x="583" 
d="M557 141l2 -46c3 -81 -13 -99 -94 -99l-281 5c-80 0 -103 21 -108 101l-41 532c-5 81 10 101 91 112l287 34c68 8 87 -8 92 -77s-11 -88 -79 -96l-190 -22l10 -102l136 10c63 5 82 -10 87 -74c5 -63 -8 -81 -71 -86l-132 -11l15 -108l170 17c80 8 101 -10 106 -90z" />
    <glyph glyph-name="uni0416" unicode="&#x416;" horiz-adv-x="1100" 
d="M276 340l-188 186c-56 55 -54 83 9 130l18 13c65 48 94 47 150 -12l178 -184l-2 161c0 80 18 101 99 98l47 -2c79 -3 99 -22 91 -102l-19 -197l146 203c48 67 77 79 158 76l29 -2c73 -4 83 -27 39 -84l-205 -264l188 -186c56 -55 54 -83 -9 -130l-18 -13
c-64 -48 -94 -48 -150 11l-192 194l-5 -160c-3 -74 -21 -94 -98 -89c-75 3 -95 24 -95 99l-2 185l-148 -205c-47 -66 -78 -81 -158 -76l-29 2c-73 4 -83 27 -39 84z" />
    <glyph glyph-name="uni0417" unicode="&#x417;" horiz-adv-x="669" 
d="M293 -26c-68 0 -123 5 -179 21c-72 21 -89 50 -62 122l2 7c30 81 44 87 123 53c39 -17 82 -28 117 -28c45 0 79 16 79 59c0 35 -45 68 -125 91c-44 13 -53 24 -53 68c0 42 8 52 52 57c67 8 125 34 125 81c0 35 -38 47 -89 47c-37 0 -81 -7 -120 -16
c-79 -18 -96 -6 -96 77l-1 82c-1 55 13 70 68 73c24 1 48 2 71 2c260 0 451 -90 451 -223c0 -94 -88 -153 -212 -185c93 -48 155 -125 155 -202c0 -134 -181 -186 -306 -186z" />
    <glyph glyph-name="uni0418" unicode="&#x418;" horiz-adv-x="737" 
d="M485 383l-227 -349c-29 -45 -47 -53 -103 -48c-53 5 -67 19 -70 72l-37 582c-5 80 15 101 94 106l51 4c79 5 99 -15 94 -94l-19 -311l162 308c37 72 64 87 146 87h33c80 0 99 -22 96 -102l-20 -547c-3 -80 -25 -99 -108 -96c-80 3 -101 24 -98 104z" />
    <glyph glyph-name="uni0419" unicode="&#x419;" horiz-adv-x="737" 
d="M403 915c0 7 -2 12 -2 19c0 6 4 9 11 9h88c43 0 64 -15 64 -44c0 -68 -55 -150 -179 -150c-112 0 -157 82 -157 150c0 24 12 32 43 32h9c34 0 37 0 53 -35c7 -15 20 -22 38 -22c27 0 32 18 32 41zM485 383l-227 -349c-29 -45 -47 -53 -103 -48c-53 5 -67 19 -70 72
l-37 582c-5 80 15 101 94 106l51 4c79 5 99 -15 94 -94l-19 -311l162 308c37 72 64 87 146 87h33c80 0 99 -22 96 -102l-20 -547c-3 -80 -25 -99 -108 -96c-80 3 -101 24 -98 104z" />
    <glyph glyph-name="uni041A" unicode="&#x41a;" horiz-adv-x="720" 
d="M446 360l188 -186c56 -55 54 -83 -9 -130l-18 -13c-65 -48 -94 -47 -150 12l-183 189l-19 -184c-7 -65 -26 -79 -91 -64c-67 16 -81 33 -84 100l-17 550c-3 80 18 101 97 98l47 -2c79 -3 99 -22 91 -102l-19 -197l146 203c48 67 77 79 158 76l29 -2c73 -4 83 -27 39 -84z
" />
    <glyph glyph-name="uni041B" unicode="&#x41b;" horiz-adv-x="685" 
d="M111 -21c-56 -9 -80 2 -85 51l-7 75c-5 50 38 15 62 76c9 23 13 55 12 96l-5 336c0 81 18 101 99 104l339 14c81 3 99 -16 102 -96l13 -536c3 -81 -18 -99 -98 -102l-18 -1c-80 -3 -98 18 -98 98l8 470l-131 -12l-1 -322c0 -130 -45 -224 -192 -251z" />
    <glyph glyph-name="uni041C" unicode="&#x41c;" horiz-adv-x="1011" 
d="M919 633l52 -539c8 -79 -11 -100 -90 -97c-130 3 -151 15 -156 105l-23 350l-141 -382c-16 -42 -30 -50 -75 -47c-45 1 -58 12 -73 55l-125 365l-22 -342c-5 -80 -26 -96 -143 -77c-80 13 -95 35 -82 115l88 527c13 79 36 96 117 91l46 -3c83 -5 105 -25 134 -102
l94 -257l99 237c32 76 56 93 139 96l51 1c81 3 102 -15 110 -96z" />
    <glyph glyph-name="uni041D" unicode="&#x41d;" horiz-adv-x="650" 
d="M591 637l19 -542c3 -80 -16 -97 -114 -97c-80 0 -101 21 -101 102l-2 163l-124 -12l-4 -173c-3 -81 -22 -97 -105 -92c-80 5 -102 28 -102 108l-8 519c0 80 16 100 98 105l26 2c80 5 101 -14 98 -95l-5 -209l125 3l-2 201c0 78 17 101 97 106c80 8 101 -13 104 -89z" />
    <glyph glyph-name="uni041E" unicode="&#x41e;" horiz-adv-x="812" 
d="M406 761c245 0 381 -188 381 -392c0 -232 -186 -377 -394 -377c-200 0 -368 158 -368 370c0 219 141 399 381 399zM409 180c88 0 146 73 146 180c0 78 -51 161 -147 161s-160 -71 -160 -175c0 -84 51 -166 161 -166z" />
    <glyph glyph-name="uni041F" unicode="&#x41f;" horiz-adv-x="650" 
d="M591 635l19 -540c3 -80 -16 -101 -96 -98c-99 3 -118 23 -118 103v464l-131 -12l-2 -474c0 -81 -20 -97 -103 -92c-80 5 -102 28 -102 108l-8 519c0 81 16 101 98 104l339 14c80 3 101 -16 104 -96z" />
    <glyph glyph-name="uni0420" unicode="&#x420;" horiz-adv-x="701" 
d="M292 202l17 -117c10 -78 -4 -101 -85 -106l-32 -2c-80 -5 -103 13 -108 93l-42 565c-5 77 15 103 89 119c49 10 98 15 147 15c267 0 409 -106 409 -295c0 -136 -130 -272 -395 -272zM238 575l28 -196c86 16 174 57 174 126c0 64 -49 89 -109 89c-31 0 -62 -6 -93 -19z
" />
    <glyph glyph-name="uni0421" unicode="&#x421;" horiz-adv-x="607" 
d="M406 221c19 0 40 3 61 8c50 14 58 6 74 -41l27 -85c21 -68 6 -95 -65 -108c-34 -6 -66 -9 -97 -9c-229 0 -388 163 -388 363c0 184 130 386 398 386c23 0 49 -3 78 -8c57 -12 69 -33 50 -88l-26 -74c-11 -29 -16 -34 -48 -26c-11 3 -24 4 -39 4
c-125 0 -183 -77 -183 -156c0 -115 73 -166 158 -166z" />
    <glyph glyph-name="uni0422" unicode="&#x422;" horiz-adv-x="645" 
d="M400 517l16 -431c3 -81 -15 -101 -95 -112l-19 -2c-77 -11 -99 10 -96 88l12 444l-92 -6c-81 -5 -100 13 -100 93l1 67c0 79 21 99 100 94l406 -24c76 -5 94 -24 91 -102c-3 -76 -20 -95 -96 -100z" />
    <glyph glyph-name="uni0423" unicode="&#x423;" horiz-adv-x="860" 
d="M728 739l43 -21c69 -37 77 -61 31 -126l-400 -558c-48 -66 -75 -73 -148 -38l-65 31c-71 33 -75 60 -23 117l149 165l-248 283c-53 58 -47 87 19 127l15 10c69 42 97 39 151 -23l197 -224l137 217c43 70 70 75 142 40z" />
    <glyph glyph-name="uni0424" unicode="&#x424;" horiz-adv-x="923" 
d="M553 78c-3 -75 -19 -92 -92 -95l-13 -1c-77 -3 -99 15 -96 95c-205 24 -332 130 -332 274c0 149 111 269 343 296v11c3 81 21 99 103 102c83 3 103 -18 100 -98v-16c232 -29 337 -150 337 -290c0 -157 -139 -254 -350 -278zM562 464l-6 -244c83 19 115 65 115 129
c0 45 -29 94 -109 115zM355 222l5 242c-84 -20 -117 -66 -117 -126c0 -48 28 -95 112 -116z" />
    <glyph glyph-name="uni0425" unicode="&#x425;" horiz-adv-x="710" 
d="M492 378l190 -233c48 -60 41 -86 -31 -113l-75 -27c-77 -29 -104 -20 -149 49l-83 126l-104 -145c-47 -63 -74 -72 -139 -23l-16 12c-64 45 -66 73 -10 129l166 167l-181 238c-49 65 -43 91 21 139l38 28c64 48 93 41 139 -23l134 -190l117 177c43 68 72 72 141 32
c77 -48 83 -73 29 -133z" />
    <glyph glyph-name="uni0426" unicode="&#x426;" horiz-adv-x="711" 
d="M396 167v464c0 81 20 99 100 102l18 1c80 3 99 -18 96 -98l-18 -499c88 3 108 -18 103 -98l-7 -120c-5 -60 -18 -76 -82 -76c-60 0 -74 15 -71 75l5 79l-392 2c-80 0 -98 22 -98 101l8 519c0 82 22 103 104 108c80 3 103 -11 103 -92v-474z" />
    <glyph glyph-name="uni0427" unicode="&#x427;" horiz-adv-x="724" 
d="M685 640l-24 -565c-3 -81 -23 -101 -104 -104l-17 -1c-80 -3 -99 16 -96 96l11 246c-40 -55 -96 -81 -153 -81c-147 0 -273 131 -273 391c0 21 1 42 3 64c3 49 17 63 66 60l86 -3c64 -3 80 -19 72 -83c-3 -31 -5 -56 -5 -83c0 -85 21 -143 92 -143c77 0 116 46 129 213
c5 82 25 99 117 96c80 -3 99 -23 96 -103z" />
    <glyph glyph-name="uni0428" unicode="&#x428;" horiz-adv-x="993" 
d="M744 166l-4 447c0 81 18 99 99 102l18 1c80 3 99 -18 96 -98l-19 -520c-3 -81 -23 -100 -104 -100l-677 2c-80 0 -100 20 -100 100l2 509c0 82 19 103 100 108c88 3 106 -11 106 -92l-6 -456l152 -2l-9 446c-3 82 17 101 107 106c81 3 99 -13 99 -94l-6 -457z" />
    <glyph glyph-name="uni0429" unicode="&#x429;" horiz-adv-x="1064" 
d="M744 166l-4 447c0 80 18 100 117 103c80 3 99 -18 96 -98l-18 -481c99 3 118 -18 113 -98l-7 -120c-5 -60 -18 -76 -82 -76c-60 0 -74 15 -70 75l5 80l-741 2c-80 0 -100 20 -100 100l2 509c0 81 19 103 107 108c81 5 99 -12 99 -92l-6 -456l152 -2l-9 446
c-3 81 18 101 98 106h9c81 5 99 -15 99 -94l-6 -457z" />
    <glyph glyph-name="uni042A" unicode="&#x42a;" horiz-adv-x="935" 
d="M28 640c-3 72 16 93 88 93l286 5c81 3 100 -18 97 -98l-6 -168c55 12 103 17 146 17c226 0 282 -105 282 -200c0 -176 -160 -307 -457 -307c-28 0 -56 2 -84 5c-61 8 -80 27 -83 91l-20 481l-158 -6c-72 -3 -88 15 -91 87zM555 166c64 0 123 26 123 90
c0 40 -46 54 -95 54c-35 0 -71 -6 -95 -17l-4 -118c22 -6 46 -9 71 -9z" />
    <glyph glyph-name="uni042B" unicode="&#x42b;" horiz-adv-x="1024" 
d="M987 655l-14 -560c-3 -81 -21 -101 -102 -104l-31 -1c-80 -3 -101 16 -98 96l12 565c3 81 21 102 102 102h33c80 0 101 -18 98 -98zM62 78l-23 562c-3 80 16 100 96 100h32c81 0 100 -20 97 -100l-6 -168c55 12 103 17 146 17c226 0 282 -105 282 -200
c0 -176 -160 -307 -457 -307c-28 0 -56 2 -84 5c-62 8 -80 27 -83 91zM348 310c-35 0 -71 -6 -95 -17l-4 -118c22 -6 46 -9 71 -9c64 0 123 26 123 90c0 40 -46 54 -95 54z" />
    <glyph glyph-name="uni042C" unicode="&#x42c;" horiz-adv-x="700" 
d="M62 78l-23 562c-3 80 16 100 96 100h32c81 0 100 -20 97 -100l-6 -168c55 12 103 17 146 17c226 0 282 -105 282 -200c0 -176 -160 -307 -457 -307c-28 0 -56 2 -84 5c-62 8 -80 27 -83 91zM348 310c-35 0 -71 -6 -95 -17l-4 -118c22 -6 46 -9 71 -9c64 0 123 26 123 90
c0 40 -46 54 -95 54z" />
    <glyph glyph-name="uni042D" unicode="&#x42d;" horiz-adv-x="607" 
d="M201 -14c-32 0 -64 3 -97 9c-72 13 -88 41 -72 110l11 45c14 54 24 60 78 49c23 -5 46 -8 67 -8c78 0 153 32 169 114l-172 -6c-58 -3 -74 13 -71 72c3 58 15 74 75 71l170 -6c-16 79 -92 121 -179 121c-18 0 -37 -2 -57 -6c-45 -8 -56 -2 -66 42l-9 36
c-16 63 0 86 64 97c37 7 73 9 104 9c260 0 362 -207 362 -380c0 -208 -148 -369 -377 -369z" />
    <glyph glyph-name="uni042E" unicode="&#x42e;" horiz-adv-x="1161" 
d="M597 346c0 -84 51 -166 161 -166c88 0 146 73 146 180c0 78 -51 161 -147 161s-160 -71 -160 -175zM277 264l-4 -189c-3 -81 -21 -101 -102 -104l-31 -1c-80 -3 -101 16 -98 96l12 580c3 81 21 102 102 102h33c79 0 100 -18 97 -98l-5 -215l101 14
c32 176 165 312 373 312c245 0 381 -188 381 -392c0 -232 -186 -377 -394 -377c-170 0 -317 113 -357 277z" />
    <glyph glyph-name="uni042F" unicode="&#x42f;" horiz-adv-x="637" 
d="M341 253l-76 -179c-32 -75 -57 -90 -138 -77l-11 2c-76 11 -89 35 -50 102l110 193c-107 51 -159 133 -159 216c0 125 125 247 377 247c31 0 67 -2 103 -5c75 -7 99 -34 99 -109l2 -563c0 -80 -20 -100 -100 -100h-11c-79 0 -100 20 -95 100l9 165zM253 486
c0 -50 52 -102 154 -102l10 189c-11 3 -23 2 -34 2c-87 0 -130 -44 -130 -89z" />
    <glyph glyph-name="uni0430" unicode="&#x430;" horiz-adv-x="719" 
d="M286 255l128 8l-71 235zM486 665l200 -539c27 -75 16 -100 -61 -122c-105 -30 -128 -17 -152 61l-17 57l-198 -14l-12 -53c-16 -79 -41 -95 -119 -79l-30 5c-78 16 -92 38 -68 114l179 576c24 77 48 95 130 92c96 -3 119 -21 148 -98z" />
    <glyph glyph-name="uni0431" unicode="&#x431;" horiz-adv-x="700" 
d="M62 78l-23 572c-3 81 16 99 96 99l356 -2c69 0 88 -18 88 -87c0 -67 -15 -86 -82 -83l-236 4l-3 -109c55 12 103 17 146 17c226 0 282 -105 282 -200c0 -176 -160 -307 -457 -307c-28 0 -56 2 -84 5c-62 8 -80 27 -83 91zM320 166c64 0 123 26 123 90c0 40 -46 54 -95 54
c-35 0 -71 -6 -95 -17l-4 -118c22 -6 46 -9 71 -9z" />
    <glyph glyph-name="uni0432" unicode="&#x432;" horiz-adv-x="701" 
d="M266 -11c-31 0 -68 2 -103 5c-76 7 -101 32 -102 108l-15 532c-3 77 19 101 95 112c52 7 110 10 159 10c157 0 315 -41 315 -169c0 -68 -65 -124 -153 -172c119 -18 226 -78 226 -171c0 -184 -225 -255 -422 -255zM265 472c40 0 116 33 116 85c0 43 -40 59 -81 59
c-22 0 -42 -4 -60 -11l4 -131c7 -1 13 -2 21 -2zM313 154c63 0 137 17 137 82c0 57 -52 75 -108 75c-35 0 -69 -7 -93 -16l3 -135c16 -3 37 -6 61 -6z" />
    <glyph glyph-name="uni0433" unicode="&#x433;" horiz-adv-x="521" 
d="M432 559l-175 6l-20 -486c-3 -80 -23 -103 -105 -108c-79 -5 -100 13 -97 93l14 587c3 79 23 100 103 97l273 -8c72 -3 93 -20 93 -94c0 -72 -15 -90 -86 -87z" />
    <glyph glyph-name="uni0434" unicode="&#x434;" horiz-adv-x="886" 
d="M545 176l-100 372l-110 -373zM867 77l-2 -99c-3 -80 -21 -99 -102 -96h-8c-80 3 -99 24 -96 104l1 13l-421 13l1 -32c3 -80 -18 -100 -98 -100h-11c-81 0 -101 19 -104 100l-3 95c-3 80 16 100 97 100l181 490c29 76 52 95 148 92c81 0 107 -19 133 -95l168 -486h18
c80 0 101 -18 98 -99z" />
    <glyph glyph-name="uni0435" unicode="&#x435;" horiz-adv-x="537" 
d="M518 119c3 -69 -8 -87 -76 -98l-281 -44c-78 -13 -101 5 -104 84l-29 558c-5 81 15 102 95 110l283 27c80 8 102 -10 102 -90v-42c0 -80 -17 -103 -98 -108l-202 -15l4 -89l178 16c56 5 74 -8 74 -65c0 -55 -9 -71 -65 -76l-177 -19l4 -100l202 25c65 8 86 -7 90 -74z
" />
    <glyph glyph-name="uni0436" unicode="&#x436;" horiz-adv-x="1100" 
d="M826 375l188 -186c56 -55 54 -83 -9 -130l-18 -13c-65 -48 -94 -47 -150 12l-178 184l2 -161c0 -80 -18 -101 -99 -98l-47 2c-79 3 -99 22 -91 102l19 197l-146 -203c-47 -66 -78 -81 -158 -76l-29 2c-73 4 -83 27 -39 84l205 264l-188 186c-56 55 -54 83 9 130l18 13
c64 48 94 48 150 -11l192 -194l5 190c3 75 21 89 98 89c75 0 95 -23 95 -99l2 -215l148 205c48 67 77 79 158 76c102 -5 111 -30 68 -86z" />
    <glyph glyph-name="uni0437" unicode="&#x437;" horiz-adv-x="629" 
d="M286 562c-39 0 -86 -9 -131 -24c-77 -24 -94 -16 -102 66l-1 11c-8 76 11 103 87 116c46 8 93 12 141 12c171 0 329 -59 329 -215c0 -83 -75 -151 -182 -188c112 -21 173 -89 173 -165c0 -96 -103 -197 -331 -197c-52 0 -101 2 -153 14c-72 16 -92 47 -73 119l6 25
c21 85 34 94 119 70c33 -9 70 -16 106 -16c39 0 63 12 63 45c0 43 -43 66 -112 75c-43 5 -52 16 -45 60l3 21c4 25 11 28 36 28c12 0 22 -2 33 -2c99 0 126 45 126 85s-41 60 -92 60z" />
    <glyph glyph-name="uni0438" unicode="&#x438;" horiz-adv-x="693" 
d="M412 383l-193 -336c-30 -51 -47 -61 -106 -61h-2c-58 0 -70 16 -70 72l10 607c3 81 21 100 102 95l26 -2c81 -5 97 -25 92 -105l-17 -207l160 245c40 59 64 72 139 67c72 -5 89 -24 89 -96l-1 -570c0 -81 -19 -101 -100 -104l-53 -1c-79 -3 -99 17 -94 96z" />
    <glyph glyph-name="uni0439" unicode="&#x439;" horiz-adv-x="693" 
d="M366 949c0 7 -2 12 -2 19c0 6 4 9 11 9h88c43 0 64 -15 64 -44c0 -68 -55 -150 -179 -150c-112 0 -157 82 -157 150c0 24 12 32 43 32h9c34 0 37 0 53 -35c7 -15 20 -22 38 -22c27 0 32 18 32 41zM412 383l-193 -336c-30 -51 -47 -61 -106 -61h-2c-58 0 -70 16 -70 72
l10 607c3 81 21 100 102 95l26 -2c81 -5 97 -25 92 -105l-17 -207l160 245c40 59 64 72 139 67c72 -5 89 -24 89 -96l-1 -570c0 -81 -19 -101 -100 -104l-53 -1c-79 -3 -99 17 -94 96z" />
    <glyph glyph-name="uni043A" unicode="&#x43a;" horiz-adv-x="706" 
d="M430 372l221 -211c56 -56 55 -80 -3 -135l-18 -17c-61 -53 -87 -52 -143 7l-226 244l-3 -166c0 -79 -20 -102 -100 -113c-77 -11 -98 6 -101 84l-24 572c-3 80 16 101 96 106l50 3c80 5 98 -15 93 -94l-12 -164l164 216c49 65 76 68 144 25l6 -4c67 -45 71 -70 22 -135z
" />
    <glyph glyph-name="uni043B" unicode="&#x43b;" horiz-adv-x="724" 
d="M177 726l411 13c80 3 101 -18 98 -97l-14 -554c-3 -80 -21 -97 -102 -97h-29c-79 0 -100 23 -95 103l24 485l-176 -17l9 -332c3 -129 -43 -227 -192 -251c-72 -13 -80 -5 -85 51l-6 60c-8 88 40 43 61 91c11 23 13 55 12 96l-12 346c-3 80 16 100 96 103z" />
    <glyph glyph-name="uni043C" unicode="&#x43c;" horiz-adv-x="903" 
d="M782 664l93 -560c13 -80 -5 -98 -84 -103l-46 -3c-81 -5 -101 16 -109 96l-26 307l-112 -286c-13 -35 -24 -41 -61 -49c-35 -7 -45 0 -56 35l-90 279l-57 -302c-16 -77 -37 -94 -116 -75l-13 3c-78 19 -92 41 -76 121l121 556c13 61 31 76 96 79s81 -11 103 -71l102 -297
l121 292c24 61 47 75 115 67c67 -5 84 -23 95 -89z" />
    <glyph glyph-name="uni043D" unicode="&#x43d;" horiz-adv-x="674" 
d="M635 642l-15 -550c-3 -80 -23 -101 -103 -96l-26 2c-79 5 -100 25 -95 104l10 194l-150 -33l5 -182c3 -75 -18 -93 -93 -90c-76 3 -96 22 -101 97l-39 524c-5 82 10 99 91 112l26 4c80 11 98 -8 101 -88l5 -184l163 5l10 194c3 79 26 99 105 94l9 -1
c80 -5 100 -25 97 -106z" />
    <glyph glyph-name="uni043E" unicode="&#x43e;" horiz-adv-x="780" 
d="M755 368c0 -211 -161 -397 -369 -397c-205 0 -361 181 -361 394c0 216 157 403 364 403c211 0 366 -179 366 -400zM391 180c90 0 141 81 141 173s-55 172 -138 172c-91 0 -153 -83 -153 -175c0 -96 47 -170 150 -170z" />
    <glyph glyph-name="uni043F" unicode="&#x43f;" horiz-adv-x="674" 
d="M635 642l-15 -550c-3 -80 -23 -101 -103 -96l-26 2c-79 5 -100 25 -95 104l23 476l-171 -31l12 -466c3 -75 -16 -93 -92 -90s-96 22 -101 97l-40 532c-5 80 11 101 92 104l419 14c79 3 100 -16 97 -96z" />
    <glyph glyph-name="uni0440" unicode="&#x440;" horiz-adv-x="602" 
d="M240 198l4 -123c3 -80 -17 -99 -100 -99c-82 0 -100 19 -103 100l-14 545c-3 76 22 103 94 116c47 9 95 12 146 12c197 0 343 -81 343 -236c0 -179 -126 -304 -370 -315zM261 362c109 0 171 59 171 112c0 43 -39 80 -124 80c-27 0 -55 -4 -78 -12l5 -179
c9 -1 18 -1 26 -1z" />
    <glyph glyph-name="uni0441" unicode="&#x441;" horiz-adv-x="517" 
d="M406 244c17 0 32 1 45 4c35 7 41 1 41 -34l-1 -200c0 -32 -9 -40 -40 -43c-15 -1 -28 -1 -43 -1c-264 0 -382 176 -382 361c0 204 143 419 391 419c9 0 19 0 28 -1c21 -1 25 -7 28 -27l9 -113c8 -91 -3 -104 -90 -130c-83 -24 -126 -79 -126 -140c0 -68 72 -95 140 -95z
" />
    <glyph glyph-name="uni0442" unicode="&#x442;" horiz-adv-x="574" 
d="M422 545l-27 -479c-5 -80 -26 -98 -106 -90l-10 1c-81 8 -99 29 -99 110l4 448l-71 -2c-74 -3 -94 15 -102 91c-8 75 7 93 82 98l388 24c79 5 100 -15 100 -95s-19 -100 -99 -103z" />
    <glyph glyph-name="uni0443" unicode="&#x443;" horiz-adv-x="798" 
d="M719 721l10 -7c65 -46 73 -66 24 -129l-440 -553c-50 -63 -79 -68 -143 -20l-16 12c-64 46 -66 73 -13 131l163 174l-225 237c-56 56 -51 84 12 131l38 28c65 48 92 42 140 -22l160 -220l146 207c47 66 77 79 144 31z" />
    <glyph glyph-name="uni0444" unicode="&#x444;" horiz-adv-x="923" 
d="M360 642v20c0 81 22 98 103 95s99 -23 99 -104v-11c205 -24 341 -118 341 -270v-8c-5 -140 -114 -262 -346 -291c0 -75 -21 -96 -96 -93h-18c-73 3 -89 19 -89 93c-228 24 -334 140 -334 287c0 148 131 258 340 282zM560 500l-2 -253c85 24 113 83 113 130
c0 60 -31 104 -111 123zM356 247l3 250c-88 -23 -115 -70 -115 -121c0 -57 32 -106 112 -129z" />
    <glyph glyph-name="uni0445" unicode="&#x445;" horiz-adv-x="763" 
d="M526 379l174 -147c59 -51 61 -78 1 -130l-47 -43c-60 -55 -89 -53 -145 6l-122 125l-103 -154c-45 -67 -70 -74 -142 -34l-71 39c-68 37 -73 65 -18 121l180 189l-183 195c-53 56 -50 85 17 125l15 10c69 43 98 39 154 -20l131 -137l121 177c45 67 73 75 145 38l43 -21
c71 -36 74 -62 26 -123z" />
    <glyph glyph-name="uni0446" unicode="&#x446;" horiz-adv-x="741" 
d="M436 160l-8 471c-3 80 18 101 98 98l18 -1c80 -3 99 -21 96 -102l-18 -489h9c79 3 99 -18 94 -98l-7 -120c-5 -60 -18 -76 -82 -76c-60 0 -74 15 -71 75l5 79l-422 2c-80 0 -101 22 -98 101l8 539c3 80 21 94 102 94h12c80 0 100 -25 97 -106l-14 -466z" />
    <glyph glyph-name="uni0447" unicode="&#x447;" horiz-adv-x="724" 
d="M685 650l-24 -575c-3 -81 -23 -101 -104 -104l-17 -1c-79 -3 -100 16 -95 96l10 216c-40 -55 -96 -81 -153 -81c-147 0 -273 131 -273 391c0 20 1 48 2 79c3 61 22 78 82 78h51c81 0 97 -18 92 -98c-3 -40 -5 -79 -5 -104c0 -85 21 -143 92 -143c77 0 116 68 129 243
c5 82 25 102 117 102c80 0 99 -19 96 -99z" />
    <glyph glyph-name="uni0448" unicode="&#x448;" horiz-adv-x="993" 
d="M59 98l-5 520c0 80 18 101 99 98l18 -1c81 -3 98 -21 95 -102l-20 -447l146 2l11 457c3 79 21 99 102 94h9c79 -5 99 -26 94 -106l-25 -446l152 2l11 456c3 81 21 97 102 92h7c80 0 100 -27 97 -108l-12 -509c-3 -81 -21 -100 -103 -100l-677 -2c-79 0 -101 20 -101 100z
" />
    <glyph glyph-name="uni0449" unicode="&#x449;" horiz-adv-x="1069" 
d="M59 98l-5 520c0 80 18 101 99 98l18 -1c81 -3 98 -21 95 -102l-20 -447l146 2l11 457c3 79 21 99 102 94h9c79 -5 99 -26 94 -106l-25 -446l152 2l11 456c3 80 22 92 109 92c80 0 100 -27 97 -108l-13 -472h20c79 3 99 -18 94 -98l-7 -120c-5 -60 -18 -76 -82 -76
c-60 0 -74 15 -70 75l5 82l-739 -2c-79 0 -101 20 -101 100z" />
    <glyph glyph-name="uni044A" unicode="&#x44a;" horiz-adv-x="935" 
d="M28 640c-3 72 16 93 88 93l286 5c81 3 100 -18 97 -98l-6 -168c55 12 103 17 146 17c226 0 282 -105 282 -200c0 -176 -160 -307 -457 -307c-28 0 -56 2 -84 5c-61 8 -80 27 -83 91l-20 481l-158 -6c-72 -3 -88 15 -91 87zM555 166c64 0 123 26 123 90
c0 40 -46 54 -95 54c-35 0 -71 -6 -95 -17l-4 -118c22 -6 46 -9 71 -9z" />
    <glyph glyph-name="uni044B" unicode="&#x44b;" horiz-adv-x="1024" 
d="M987 655l-14 -560c-3 -81 -21 -101 -102 -104l-31 -1c-80 -3 -101 16 -98 96l12 565c3 81 21 102 102 102h33c80 0 101 -18 98 -98zM62 78l-23 562c-3 80 16 100 96 100h32c81 0 100 -20 97 -100l-6 -168c55 12 103 17 146 17c226 0 282 -105 282 -200
c0 -176 -160 -307 -457 -307c-28 0 -56 2 -84 5c-62 8 -80 27 -83 91zM348 310c-35 0 -71 -6 -95 -17l-4 -118c22 -6 46 -9 71 -9c64 0 123 26 123 90c0 40 -46 54 -95 54z" />
    <glyph glyph-name="uni044C" unicode="&#x44c;" horiz-adv-x="700" 
d="M62 78l-23 562c-3 80 16 100 96 100h32c81 0 100 -20 97 -100l-6 -168c55 12 103 17 146 17c226 0 282 -105 282 -200c0 -176 -160 -307 -457 -307c-28 0 -56 2 -84 5c-62 8 -80 27 -83 91zM348 310c-35 0 -71 -6 -95 -17l-4 -118c22 -6 46 -9 71 -9c64 0 123 26 123 90
c0 40 -46 54 -95 54z" />
    <glyph glyph-name="uni044D" unicode="&#x44d;" horiz-adv-x="607" 
d="M201 -14c-32 0 -64 3 -97 9c-72 13 -88 41 -72 110l11 45c14 54 24 60 78 49c23 -5 46 -8 67 -8c78 0 153 32 169 114l-172 -6c-58 -3 -74 13 -71 72c3 58 15 74 75 71l170 -6c-16 79 -92 121 -179 121c-18 0 -37 -2 -57 -6c-45 -8 -56 -2 -66 42l-9 36
c-16 63 0 86 64 97c37 7 73 9 104 9c260 0 362 -207 362 -380c0 -208 -148 -369 -377 -369z" />
    <glyph glyph-name="uni044E" unicode="&#x44e;" horiz-adv-x="1129" 
d="M590 350c0 -96 47 -170 150 -170c90 0 141 81 141 173s-55 172 -138 172c-91 0 -153 -83 -153 -175zM1104 368c0 -211 -161 -397 -369 -397c-173 0 -310 128 -350 295l-99 1l2 -196c0 -80 -18 -98 -99 -101h-33c-79 -3 -101 21 -101 100l-4 580c0 80 18 98 99 98h31
c80 0 101 -21 101 -102l2 -220l94 -1c27 189 172 343 360 343c211 0 366 -179 366 -400z" />
    <glyph glyph-name="uni044F" unicode="&#x44f;" horiz-adv-x="638" 
d="M313 244l-70 -162c-32 -74 -56 -85 -137 -72l-19 3c-76 12 -86 40 -45 105l125 203c-88 60 -139 129 -139 213c0 160 173 220 363 220c39 0 80 -2 119 -7c76 -8 100 -35 97 -111l-14 -525c-3 -81 -21 -99 -102 -112l-18 -3c-76 -13 -98 10 -90 88l12 125
c-24 8 -55 20 -82 35zM417 384l22 182c-29 9 -72 19 -111 19c-51 0 -94 -18 -94 -75c0 -63 82 -110 183 -126z" />
    <glyph glyph-name="uni0451" unicode="&#x451;" horiz-adv-x="537" 
d="M424 870c0 -39 -31 -71 -68 -71c-39 0 -69 32 -69 71s30 71 69 71c37 0 68 -32 68 -71zM229 854c0 -39 -31 -71 -68 -71c-39 0 -69 32 -69 71s30 71 69 71c37 0 68 -32 68 -71zM518 119c3 -69 -8 -87 -76 -98l-281 -44c-78 -13 -101 5 -104 84l-29 558
c-5 81 15 102 95 110l283 27c80 8 102 -10 102 -90v-42c0 -80 -17 -103 -98 -108l-202 -15l4 -89l178 16c56 5 74 -8 74 -65c0 -55 -9 -71 -65 -76l-177 -19l4 -100l202 25c65 8 86 -7 90 -74z" />
    <glyph glyph-name="uni0452" unicode="&#x452;" horiz-adv-x="897" 
d="M405 252l-10 -186c-5 -80 -26 -98 -106 -90l-10 1c-81 8 -99 29 -99 110l4 448l-71 -2c-74 -3 -94 15 -102 91c-8 75 7 93 82 98l388 24c79 5 100 -15 100 -95s-19 -100 -99 -103l-60 -3l-8 -143c60 29 120 43 179 43c151 0 279 -93 279 -248c0 -124 -100 -252 -323 -252
c-15 0 -29 1 -44 2c-32 3 -41 11 -38 44l9 106c3 17 6 22 23 19c9 -1 16 -1 23 -1c67 0 97 40 97 81s-31 82 -100 82c-29 0 -67 -7 -114 -26z" />
    <glyph glyph-name="uni0453" unicode="&#x453;" horiz-adv-x="521" 
d="M389 920l-81 -81c-25 -27 -37 -30 -72 -15l-2 1c-33 13 -36 25 -19 56l42 75c32 56 51 62 111 43h2c56 -19 60 -38 19 -79zM432 559l-175 6l-20 -486c-3 -80 -23 -103 -105 -108c-79 -5 -100 13 -97 93l14 587c3 79 23 100 103 97l273 -8c72 -3 93 -20 93 -94
c0 -72 -15 -90 -86 -87z" />
    <glyph glyph-name="uni0454" unicode="&#x454;" horiz-adv-x="607" 
d="M402 191c21 0 44 3 67 8c54 11 64 5 78 -49l11 -45c16 -69 0 -97 -72 -110c-33 -6 -66 -9 -97 -9c-229 0 -377 161 -377 369c0 173 102 380 362 380c31 0 67 -2 104 -9c64 -11 80 -34 64 -97l-9 -36c-10 -44 -21 -50 -66 -42c-20 4 -39 6 -57 6c-87 0 -163 -42 -179 -121
l170 6c59 3 75 -13 75 -73c0 -58 -13 -73 -71 -70l-172 6c16 -82 91 -114 169 -114z" />
    <glyph glyph-name="uni0455" unicode="&#x455;" horiz-adv-x="700" 
d="M71 144c43 51 58 56 122 24c32 -15 63 -22 94 -22c76 0 136 36 136 91c0 97 -380 10 -380 275c0 181 222 253 378 253c35 0 70 -3 105 -10c69 -15 84 -40 59 -107l-8 -21c-24 -59 -34 -64 -97 -48c-25 7 -51 10 -75 10c-76 0 -138 -31 -138 -79c0 -101 398 4 398 -295
c0 -145 -166 -245 -343 -245c-83 0 -165 21 -236 69c-49 33 -52 60 -15 105z" />
    <glyph glyph-name="uni0456" unicode="&#x456;" horiz-adv-x="324" 
d="M287 650l-14 -575c-3 -81 -21 -101 -102 -104l-31 -1c-80 -3 -101 16 -98 96l12 580c3 81 21 102 102 102h33c80 0 101 -18 98 -98z" />
    <glyph glyph-name="uni0457" unicode="&#x457;" horiz-adv-x="324" 
d="M339 876c0 -39 -31 -71 -68 -71c-39 0 -69 32 -69 71s30 71 69 71c37 0 68 -32 68 -71zM144 876c0 -39 -31 -71 -68 -71c-39 0 -69 32 -69 71s30 71 69 71c37 0 68 -32 68 -71zM287 650l-14 -575c-3 -81 -21 -101 -102 -104l-31 -1c-80 -3 -101 16 -98 96l12 580
c3 81 21 102 102 102h33c80 0 101 -18 98 -98z" />
    <glyph glyph-name="uni0458" unicode="&#x458;" horiz-adv-x="657" 
d="M335 -37c-109 0 -215 65 -288 173c-43 63 -33 93 39 120l46 17c63 22 62 23 105 -31c19 -24 41 -36 68 -36c44 0 87 41 87 144c0 84 -24 189 -45 268s-10 101 70 120l60 14c76 19 102 3 121 -73c23 -92 34 -182 34 -258c0 -272 -109 -458 -297 -458z" />
    <glyph glyph-name="uni0459" unicode="&#x459;" horiz-adv-x="1069" 
d="M111 -21c-57 -9 -85 1 -85 31v79c0 52 21 10 55 86c11 23 13 61 12 102l-5 336c0 81 18 101 99 104l349 14c79 3 100 -16 97 -96l-5 -162c52 11 102 16 145 16c226 0 282 -105 282 -200c0 -176 -160 -307 -457 -307c-28 0 -56 2 -84 5c-61 8 -80 27 -80 91l1 486
l-131 -12l-1 -322c0 -130 -45 -224 -192 -251zM717 310c-35 0 -71 -6 -95 -17l-4 -118c22 -6 46 -9 71 -9c64 0 123 26 123 90c0 40 -46 54 -95 54z" />
    <glyph glyph-name="uni045A" unicode="&#x45a;" horiz-adv-x="1048" 
d="M401 429l-5 191c-3 80 18 100 97 100h32c81 0 97 -20 92 -100l-11 -148c55 12 103 17 146 17c226 0 282 -105 282 -200c0 -176 -160 -307 -457 -307c-28 0 -56 2 -84 5c-62 8 -79 27 -82 91l-6 194l-136 -21l-4 -173c-3 -81 -23 -97 -103 -92c-82 5 -104 28 -104 108
l-8 519c0 80 16 100 98 105l26 2c80 5 101 -14 98 -95l-5 -209zM668 166c64 0 123 26 123 90c0 40 -46 54 -95 54c-35 0 -71 -6 -95 -17l-4 -118c22 -6 46 -9 71 -9z" />
    <glyph glyph-name="uni045B" unicode="&#x45b;" horiz-adv-x="837" 
d="M404 229l-9 -163c-5 -80 -26 -98 -106 -90l-10 1c-81 8 -99 29 -99 110l4 448l-71 -2c-74 -3 -94 15 -102 91c-8 75 7 93 82 98l388 24c79 5 100 -15 100 -95s-19 -100 -99 -103l-60 -3l-8 -137c39 9 79 16 134 16c211 0 264 -103 264 -228c0 -35 -3 -69 -10 -105
c-14 -78 -35 -99 -115 -107l-49 -5c-67 -7 -82 10 -71 77c4 31 8 61 8 89c0 55 -21 100 -93 100c-27 0 -53 -5 -78 -16z" />
    <glyph glyph-name="uni045C" unicode="&#x45c;" horiz-adv-x="706" 
d="M448 919l-81 -81c-25 -27 -37 -30 -72 -15l-2 1c-33 13 -36 25 -19 56l42 75c32 56 51 62 111 43h2c56 -19 60 -38 19 -79zM430 372l221 -211c56 -56 55 -80 -3 -135l-18 -17c-61 -53 -87 -52 -143 7l-226 244l-3 -166c0 -79 -20 -102 -100 -113c-77 -11 -98 6 -101 84
l-24 572c-3 80 16 101 96 106l50 3c80 5 98 -15 93 -94l-12 -164l164 216c49 65 76 68 144 25l6 -4c67 -45 71 -70 22 -135z" />
    <glyph glyph-name="uni045E" unicode="&#x45e;" horiz-adv-x="798" 
d="M444 902c0 7 -2 12 -2 19c0 6 4 9 11 9h88c43 0 64 -15 64 -44c0 -68 -55 -150 -179 -150c-112 0 -157 82 -157 150c0 24 12 32 43 32h9c34 0 37 0 53 -35c7 -15 20 -22 38 -22c27 0 32 18 32 41zM719 721l10 -7c65 -46 73 -66 24 -129l-440 -553
c-50 -63 -79 -68 -143 -20l-16 12c-64 46 -66 73 -13 131l163 174l-225 237c-56 56 -51 84 12 131l38 28c65 48 92 42 140 -22l160 -220l146 207c47 66 77 79 144 31z" />
    <glyph glyph-name="uni045F" unicode="&#x45f;" horiz-adv-x="679" 
d="M436 160l-8 471c0 80 18 101 98 98l18 -1c80 -3 99 -21 96 -102l-19 -530c-3 -81 -23 -99 -104 -99l-92 1l7 -73c5 -67 -11 -86 -80 -81c-70 3 -84 21 -76 90l9 65l-137 1c-80 0 -98 20 -98 100l8 539c3 80 21 94 102 94h12c80 0 100 -25 97 -106l-14 -466z" />
    <glyph glyph-name="uni0490" unicode="&#x490;" horiz-adv-x="575" 
d="M445 535l-192 10l-4 -480c0 -78 -22 -98 -103 -88c-80 8 -99 31 -96 111l14 572c3 80 23 99 103 96l236 -10l-5 45c-8 69 9 85 78 88s86 -16 83 -84l-9 -165c-5 -79 -24 -100 -105 -95z" />
    <glyph glyph-name="uni0491" unicode="&#x491;" horiz-adv-x="521" 
d="M421 559l-164 6l-20 -486c-3 -80 -23 -103 -105 -108c-79 -5 -100 13 -97 93l14 587c3 79 23 100 103 97l233 -7l-6 50c-8 69 9 85 78 88s86 -16 81 -84l-10 -139c-5 -81 -26 -100 -107 -97z" />
    <glyph glyph-name="uni1E02" unicode="&#x1e02;" horiz-adv-x="695" 
d="M356 872c0 -39 -31 -71 -68 -71c-39 0 -69 32 -69 71s30 71 69 71c37 0 68 -32 68 -71zM202 -10c-25 0 -48 1 -70 3c-53 4 -69 20 -72 73l-33 547c-5 77 16 101 91 117c59 11 120 18 181 18c176 0 310 -55 310 -161c0 -68 -46 -117 -126 -172c121 -11 205 -63 205 -169
c0 -173 -264 -256 -486 -256zM227 583l13 -146c83 3 151 42 151 94c0 45 -40 68 -96 68c-23 0 -47 -5 -68 -16zM261 287l14 -133c90 3 170 36 170 92c0 43 -38 58 -93 58c-33 0 -67 -6 -91 -17z" />
    <glyph glyph-name="uni1E03" unicode="&#x1e03;" horiz-adv-x="701" 
d="M375 881c0 -39 -31 -71 -68 -71c-39 0 -69 32 -69 71s30 71 69 71c37 0 68 -32 68 -71zM266 -11c-31 0 -68 2 -103 5c-76 7 -101 32 -102 108l-15 532c-3 77 19 101 95 112c52 7 110 10 159 10c157 0 315 -41 315 -169c0 -68 -65 -124 -153 -172
c119 -18 226 -78 226 -171c0 -184 -225 -255 -422 -255zM265 472c40 0 116 33 116 85c0 43 -40 59 -81 59c-22 0 -42 -4 -60 -11l4 -131c7 -1 13 -2 21 -2zM313 154c63 0 137 17 137 82c0 57 -52 75 -108 75c-35 0 -69 -7 -93 -16l3 -135c16 -3 37 -6 61 -6z" />
    </font>
</defs>
</svg>
