<?xml version="1.0" standalone="no"?>
<!DOCTYPE svg PUBLIC "-//W3C//DTD SVG 1.1//EN" "http://www.w3.org/Graphics/SVG/1.1/DTD/svg11.dtd" >
<svg xmlns="http://www.w3.org/2000/svg" xmlns:xlink="http://www.w3.org/1999/xlink" version="1.1">
<metadata>
Created by FontForge 20141024 at Sat May 30 15:22:47 2015
 By System Administrator
Copyright 2010-2012 \251 Canada Type. All rights reserved. Marvin is a trade mark of Canada Type.
</metadata>
<defs>
<font id="Marvin-Shadow" horiz-adv-x="775" >
  <font-face 
    font-family="Marvin"
    font-weight="700"
    font-stretch="normal"
    units-per-em="1000"
    panose-1="2 0 0 0 0 0 0 0 0 0"
    ascent="800"
    descent="-200"
    x-height="765"
    cap-height="757"
    bbox="-159.565 -364.433 1717 1335"
    underline-thickness="50"
    underline-position="-50"
    unicode-range="U+000D-FB04"
  />
<missing-glyph horiz-adv-x="754" 
d="M694 1l-644 -1l-13 767l670 1zM572 108l9 551h-418l9 -552zM401 357l4 -45c-29 -17 -57 -25 -85 -25c-44 0 -78 20 -78 51c0 68 149 63 149 112c0 40 -37 51 -74 51c-24 0 -47 -4 -62 -8l-6 113c27 5 53 7 82 7c112 0 206 -40 206 -115c0 -131 -165 -94 -165 -141
c0 -5 3 -7 10 -7s15 2 19 7zM320 135c-32 0 -64 27 -64 64c0 35 28 65 64 65c33 0 63 -25 63 -64c0 -33 -24 -65 -63 -65z" />
    <glyph glyph-name="ff" unicode="FF" horiz-adv-x="1130" 
d="M257 -43l-201 -15c-13 -1 -24 10 -24 23l20 787c0 12 11 21 23 21l463 -14c11 0 21 -10 21 -21l6 -181c0 -13 -10 -23 -23 -23l-242 8l-4 -91l181 -7c12 0 21 -11 21 -23l-7 -163c0 -12 -11 -22 -23 -21l-181 11l-10 -270c0 -11 -9 -20 -20 -21zM247 -13l10 292l204 -12
l7 163l-203 7l6 136l264 -9l-6 181l-463 14l-20 -787zM822 -43l-201 -15c-13 -1 -24 10 -24 23l20 787c0 12 11 21 23 21l463 -14c11 0 21 -10 21 -21l6 -181c0 -13 -10 -23 -23 -23l-242 8l-4 -91l181 -7c12 0 21 -11 21 -23l-7 -163c0 -12 -11 -22 -23 -21l-181 11
l-10 -270c0 -11 -9 -20 -20 -21zM812 -13l10 292l204 -12l7 163l-203 7l6 136l264 -9l-6 181l-463 14l-20 -787z" />
    <glyph glyph-name="fi" unicode="FI" horiz-adv-x="889" 
d="M257 -43l-201 -15c-13 -1 -24 10 -24 23l20 787c0 12 11 21 23 21l463 -14c11 0 21 -10 21 -21l6 -181c0 -13 -10 -23 -23 -23l-242 8l-4 -91l181 -7c12 0 21 -11 21 -23l-7 -163c0 -12 -11 -22 -23 -21l-181 11l-10 -270c0 -11 -9 -20 -20 -21zM247 -13l10 292l204 -12
l7 163l-203 7l6 136l264 -9l-6 181l-463 14l-20 -787zM815 -47l-231 -9c-13 -1 -23 9 -23 22l16 780c0 12 10 22 22 22l233 4c13 0 22 -10 22 -23l-18 -775c0 -11 -10 -21 -21 -21zM806 -17l18 775l-233 -4l-16 -780z" />
    <glyph glyph-name="fl" unicode="FL" horiz-adv-x="1119" 
d="M257 -43l-201 -15c-13 -1 -24 10 -24 23l20 787c0 12 11 21 23 21l463 -14c11 0 21 -10 21 -21l6 -181c0 -13 -10 -23 -23 -23l-242 8l-4 -91l181 -7c12 0 21 -11 21 -23l-7 -163c0 -12 -11 -22 -23 -21l-181 11l-10 -270c0 -11 -9 -20 -20 -21zM1088 -19l-467 -33
c-12 -1 -23 9 -24 21l-37 779c-1 12 9 23 21 23l228 8c13 0 23 -9 23 -22l-6 -522l251 32c13 3 25 -8 25 -21l6 -242c0 -12 -8 -22 -20 -23zM247 -13l10 292l204 -12l7 163l-203 7l6 136l264 -9l-6 181l-463 14l-20 -787zM1078 11l-6 242l-276 -35l6 547l-228 -8l37 -779z
" />
    <glyph glyph-name="ffi" unicode="FFI" horiz-adv-x="1498" 
d="M257 -43l-201 -15c-13 -1 -24 10 -24 23l20 787c0 12 11 21 23 21l463 -14c11 0 21 -10 21 -21l6 -181c0 -13 -10 -23 -23 -23l-242 8l-4 -91l181 -7c12 0 21 -11 21 -23l-7 -163c0 -12 -11 -22 -23 -21l-181 11l-10 -270c0 -11 -9 -20 -20 -21zM247 -13l10 292l204 -12
l7 163l-203 7l6 136l264 -9l-6 181l-463 14l-20 -787zM822 -43l-201 -15c-13 -1 -24 10 -24 23l20 787c0 12 11 21 23 21l463 -14c11 0 21 -10 21 -21l6 -181c0 -13 -10 -23 -23 -23l-242 8l-4 -91l181 -7c12 0 21 -11 21 -23l-7 -163c0 -12 -11 -22 -23 -21l-181 11
l-10 -270c0 -11 -9 -20 -20 -21zM812 -13l10 292l204 -12l7 163l-203 7l6 136l264 -9l-6 181l-463 14l-20 -787zM1424 -47l-231 -9c-13 -1 -23 9 -23 22l16 780c0 12 10 22 22 22l233 4c13 0 22 -10 22 -23l-18 -775c0 -11 -10 -21 -21 -21zM1415 -17l18 775l-233 -4
l-16 -780z" />
    <glyph glyph-name="ffl" unicode="FFL" horiz-adv-x="1728" 
d="M257 -43l-201 -15c-13 -1 -24 10 -24 23l20 787c0 12 11 21 23 21l463 -14c11 0 21 -10 21 -21l6 -181c0 -13 -10 -23 -23 -23l-242 8l-4 -91l181 -7c12 0 21 -11 21 -23l-7 -163c0 -12 -11 -22 -23 -21l-181 11l-10 -270c0 -11 -9 -20 -20 -21zM247 -13l10 292l204 -12
l7 163l-203 7l6 136l264 -9l-6 181l-463 14l-20 -787zM822 -43l-201 -15c-13 -1 -24 10 -24 23l20 787c0 12 11 21 23 21l463 -14c11 0 21 -10 21 -21l6 -181c0 -13 -10 -23 -23 -23l-242 8l-4 -91l181 -7c12 0 21 -11 21 -23l-7 -163c0 -12 -11 -22 -23 -21l-181 11
l-10 -270c0 -11 -9 -20 -20 -21zM812 -13l10 292l204 -12l7 163l-203 7l6 136l264 -9l-6 181l-463 14l-20 -787zM1697 -19l-467 -33c-12 -1 -23 9 -24 21l-37 779c-1 12 9 23 21 23l228 8c13 0 23 -9 23 -22l-6 -522l251 32c13 3 25 -8 25 -21l6 -242c0 -12 -8 -22 -20 -23z
M1687 11l-6 242l-276 -35l6 547l-228 -8l37 -779z" />
    <glyph glyph-name="f_t" unicode="FT" horiz-adv-x="976" 
d="M764 -40l-210 21c-11 1 -20 11 -20 22l5 527l-239 12l-4 -91l161 -7c12 0 21 -11 21 -23l-7 -163c0 -12 -11 -22 -23 -21l-161 11l-10 -270c0 -11 -9 -20 -20 -21l-201 -15c-13 -1 -24 10 -24 23l20 787c0 12 10 21 22 21l883 -3c12 0 22 -10 22 -22l1 -180
c0 -12 -9 -22 -21 -22l-139 -7l-32 -558c-1 -13 -11 -22 -24 -21zM758 -10l33 579l159 7l-1 180l-883 3l-20 -787l201 15l10 292l184 -12l7 163l-183 7l6 136l282 -14l-5 -548z" />
    <glyph glyph-name="T_T" unicode="TT" horiz-adv-x="1034" 
d="M825 -59l-210 21c-11 1 -20 11 -20 22l5 535c-48 -3 -85 -1 -137 -4l-30 -550c-1 -13 -11 -22 -24 -21l-210 21c-11 1 -20 11 -20 22l3 517l-141 -4c-11 0 -21 9 -22 20l-18 174c-1 13 8 23 21 24l995 53c13 1 23 -9 23 -22l1 -200c0 -12 -10 -22 -22 -22l-138 -5
l-32 -560c-1 -13 -11 -22 -24 -21zM819 -29l33 581l159 5l-1 200l-995 -53l18 -174l163 4l-3 -539l210 -21l31 570l180 6l-5 -558z" />
    <glyph glyph-name=".notdef" horiz-adv-x="754" 
d="M694 1l-644 -1l-13 767l670 1zM572 108l9 551h-418l9 -552zM401 357l4 -45c-29 -17 -57 -25 -85 -25c-44 0 -78 20 -78 51c0 68 149 63 149 112c0 40 -37 51 -74 51c-24 0 -47 -4 -62 -8l-6 113c27 5 53 7 82 7c112 0 206 -40 206 -115c0 -131 -165 -94 -165 -141
c0 -5 3 -7 10 -7s15 2 19 7zM320 135c-32 0 -64 27 -64 64c0 35 28 65 64 65c33 0 63 -25 63 -64c0 -33 -24 -65 -63 -65z" />
    <glyph glyph-name="_1" horiz-adv-x="0" 
 />
    <glyph glyph-name="CR" unicode="&#xd;" horiz-adv-x="400" 
 />
    <glyph glyph-name="NULL" horiz-adv-x="0" 
 />
    <glyph glyph-name="NULL" horiz-adv-x="0" 
 />
    <glyph glyph-name="space" unicode=" " horiz-adv-x="400" 
 />
    <glyph glyph-name="exclam" unicode="!" horiz-adv-x="445" 
d="M284 220l-185 37c-11 3 -19 12 -18 23l29 486c1 13 12 24 25 21l272 -42c13 -3 21 -14 18 -27l-116 -481c-3 -11 -14 -20 -25 -17zM280 250l116 481l-272 42l-29 -486zM168 -39c-67 0 -131 56 -131 132c0 71 57 134 130 134c67 0 131 -56 131 -133
c0 -68 -53 -133 -130 -133zM160 -9c64 0 108 55 108 111c0 64 -53 111 -109 111c-60 0 -108 -52 -108 -112c0 -64 53 -110 109 -110z" />
    <glyph glyph-name="quotedbl" unicode="&#x22;" horiz-adv-x="462" 
d="M397 470l-118 18c-9 1 -18 10 -19 19l-28 206l-20 -223c-1 -13 -12 -23 -25 -20l-118 18c-9 1 -18 10 -19 19l-32 237c-3 12 7 24 19 25l175 21c15 3 26 -9 25 -24v-1c3 1 6 3 10 4l175 21c15 3 26 -9 25 -24l-25 -276c-1 -13 -12 -23 -25 -20zM392 500l25 276l-175 -21
l32 -237zM182 500l25 276l-175 -21l32 -237z" />
    <glyph glyph-name="numbersign" unicode="#" horiz-adv-x="1192" 
d="M668 -30l-113 -23c-7 -1 -18 3 -22 10l-229 356l14 -323c1 -15 -9 -24 -24 -23l-214 22c-11 1 -20 10 -20 21l-18 677c0 11 7 20 18 23l233 44c8 3 19 -5 23 -12l153 -292l-11 285c0 12 9 22 21 23l251 14c15 1 24 -9 23 -24l-67 -758c-1 -11 -7 -17 -18 -20zM656 0
l67 758l-251 -14l15 -381l-198 377l-233 -44l18 -677l214 -22l-18 404l273 -424zM948 263c-132 0 -209 98 -209 218c0 117 93 204 203 204c115 0 216 -80 216 -208c0 -111 -75 -214 -210 -214zM940 293c120 0 188 92 188 192c0 115 -93 186 -194 186
c-99 0 -181 -78 -181 -182c0 -108 69 -196 187 -196zM1130 38l-327 -16c-12 -1 -22 8 -23 20l-14 159c-1 11 8 21 19 24l325 46c13 3 24 -7 25 -20l16 -189c1 -12 -9 -23 -21 -24zM1121 68l-16 189l-325 -46l14 -159zM941 429c-37 0 -62 28 -62 68c0 31 21 61 62 61
c35 0 56 -27 56 -67c0 -31 -20 -62 -56 -62zM949 443c23 0 34 21 34 40c0 27 -13 45 -34 45c-27 0 -40 -19 -40 -39c0 -27 16 -46 40 -46z" />
    <glyph glyph-name="dollar" unicode="$" horiz-adv-x="632" 
d="M318 -14l-70 16c-9 3 -17 10 -17 21l-1 27c-81 13 -157 45 -201 98c-7 7 -8 19 -1 27l82 110c7 9 20 12 31 5c51 -35 103 -51 146 -51c47 0 78 17 78 45c0 22 -47 29 -101 40c-96 19 -211 40 -211 164c0 112 74 166 169 187c0 15 -1 27 -1 42c0 11 8 19 19 22l101 17
c15 3 25 -7 25 -22l-2 -47c48 -1 82 -6 119 -13c11 -3 18 -11 18 -22l-5 -138c0 -17 -16 -27 -31 -20c-24 9 -78 23 -125 23c-35 0 -62 -6 -62 -23c0 -7 30 -10 73 -14c103 -11 250 -23 250 -207c0 -145 -118 -216 -254 -227c-1 -13 -2 -26 -2 -39c0 -15 -12 -24 -27 -21z
M315 15l2 59c131 5 254 71 254 207c0 254 -323 144 -323 221c0 35 37 45 84 45c51 0 107 -14 134 -25l5 138c-40 7 -88 13 -137 13l2 69l-101 -17l1 -60c-92 -16 -169 -65 -169 -169c0 -182 312 -109 312 -204c0 -43 -40 -67 -100 -67c-47 0 -104 16 -159 55l-82 -110
c44 -52 122 -84 206 -93l1 -46z" />
    <glyph glyph-name="percent" unicode="%" horiz-adv-x="1054" 
d="M230 269c-132 0 -213 125 -213 280c0 141 85 259 217 259c134 0 214 -122 214 -271c0 -127 -61 -268 -218 -268zM813 -66c-132 0 -213 125 -213 280c0 141 85 259 217 259c134 0 214 -122 214 -271c0 -127 -61 -268 -218 -268zM352 -70l-123 91c-9 7 -13 20 -6 29
l444 753c7 11 20 15 31 8l128 -79c11 -7 14 -19 7 -30l-449 -765c-7 -12 -21 -15 -32 -7zM222 299c140 0 196 129 196 246c0 138 -72 249 -192 249s-195 -107 -195 -237c0 -144 73 -258 191 -258zM805 -36c140 0 196 129 196 246c0 138 -72 249 -192 249
s-195 -107 -195 -237c0 -144 73 -258 191 -258zM357 -44l449 765l-128 79l-444 -753zM807 101c-54 0 -69 52 -69 96c0 64 30 107 85 107c35 0 62 -27 62 -83c0 -52 -19 -120 -78 -120zM224 436c-54 0 -69 52 -69 96c0 64 30 107 85 107c35 0 62 -27 62 -83
c0 -52 -19 -120 -78 -120zM815 115c42 0 56 55 56 98c0 40 -17 61 -40 61c-40 0 -63 -34 -63 -85c0 -34 10 -74 47 -74zM232 450c42 0 56 55 56 98c0 40 -17 61 -40 61c-40 0 -63 -34 -63 -85c0 -34 10 -74 47 -74z" />
    <glyph glyph-name="ampersand" unicode="&#x26;" horiz-adv-x="810" 
d="M779 252l-6 -165c0 -5 -5 -14 -9 -17c-113 -80 -242 -111 -361 -111c-205 0 -374 97 -374 222c0 116 80 157 173 181c-88 47 -128 102 -128 158c0 100 142 192 394 192c59 0 118 -4 176 -12c8 -1 16 -10 19 -18l31 -162c3 -16 -11 -29 -27 -26c-91 19 -175 34 -236 34
c-51 0 -86 -9 -86 -33c0 -23 48 -31 113 -31c60 0 129 8 185 16c13 3 25 -8 25 -21l7 -169c0 -8 -3 -14 -9 -19l90 4c13 1 23 -10 23 -23zM749 261l-293 -12l-5 -106l21 -11c-25 -7 -49 -11 -72 -11c-52 0 -89 19 -89 70c0 83 123 107 272 107c20 0 41 0 62 -1l-7 169
c-56 -8 -127 -16 -188 -16c-79 0 -135 13 -135 53s44 55 108 55c65 0 150 -15 241 -34l-31 162c-58 8 -116 12 -173 12c-238 0 -372 -81 -372 -170c0 -57 54 -117 174 -164c-110 -24 -219 -50 -219 -175c0 -112 160 -200 352 -200c115 0 239 31 348 107zM437 137l5 105
c0 6 2 11 7 16c-65 -12 -108 -35 -108 -75c0 -35 28 -48 67 -48c9 0 18 -1 29 2zM499 264l86 4c-31 0 -59 -1 -86 -4z" />
    <glyph glyph-name="quotesingle" unicode="'" horiz-adv-x="252" 
d="M187 470l-118 18c-9 1 -18 10 -19 19l-32 237c-3 12 7 24 19 25l175 21c15 3 26 -9 25 -24l-25 -276c-1 -13 -12 -23 -25 -20zM182 500l25 276l-175 -21l32 -237z" />
    <glyph glyph-name="parenleft" unicode="(" horiz-adv-x="494" 
d="M469 73l-86 -148c-5 -9 -17 -13 -26 -10c-173 61 -326 268 -326 476c0 168 89 333 286 437c11 5 22 1 29 -8l106 -169c7 -11 3 -24 -8 -31c-123 -68 -180 -158 -180 -250c0 -100 68 -199 196 -267c11 -7 16 -19 9 -30zM356 -56l86 148c-136 72 -208 178 -208 286
c0 100 62 197 191 269l-106 169c-190 -99 -274 -258 -274 -417c0 -198 146 -396 311 -455z" />
    <glyph glyph-name="parenright" unicode=")" horiz-adv-x="494" 
d="M111 -75l-86 148c-7 11 -2 23 9 30c128 68 196 167 196 267c0 92 -57 182 -180 250c-11 7 -15 20 -8 31l106 169c7 9 18 13 29 8c197 -104 286 -269 286 -437c0 -208 -153 -415 -326 -476c-9 -3 -21 1 -26 10zM36 92l86 -148c165 59 311 257 311 455
c0 159 -84 318 -274 417l-106 -169c129 -72 191 -169 191 -269c0 -108 -72 -214 -208 -286z" />
    <glyph glyph-name="asterisk" unicode="*" horiz-adv-x="616" 
d="M566 361l-121 -98c-9 -7 -23 -6 -31 3l-86 105l-49 -122c-5 -12 -18 -17 -30 -12l-181 83c-15 7 -19 22 -8 34l70 84c-35 15 -71 28 -106 41c-12 5 -19 18 -12 30l75 159c7 12 20 17 32 10l83 -51l-21 99c-3 15 5 26 20 27l178 13c15 1 26 -10 23 -25l-14 -103
c33 19 70 36 102 55c11 7 24 2 31 -9l82 -156c7 -13 1 -27 -14 -31l-103 -28l81 -75c11 -9 10 -24 -1 -33zM544 386l-110 101l141 39l-82 156l-140 -76l19 146l-178 -13l33 -150l-128 78l-75 -159l135 -52l-90 -108l181 -83l62 157l111 -134z" />
    <glyph glyph-name="plus" unicode="+" horiz-adv-x="507" 
d="M365 108l-182 -1c-11 0 -21 9 -22 20l-7 105c-36 -1 -72 -4 -108 -5c-12 0 -23 10 -23 22l-4 133c0 12 10 22 22 22l103 2l-6 103c-1 12 8 22 20 23l201 15c13 1 24 -9 24 -22l1 -115c28 0 55 1 83 1c13 0 23 -11 22 -24l-9 -123c-1 -11 -10 -20 -21 -20l-73 -4
c0 -37 1 -73 1 -110c0 -12 -10 -22 -22 -22zM357 138l-1 132l94 4l9 123l-105 -1l-1 137l-201 -15l7 -126l-126 -2l4 -133l129 5l9 -125z" />
    <glyph glyph-name="comma" unicode="," horiz-adv-x="336" 
d="M191 -109l-132 -18c-16 -3 -28 10 -25 26l54 276c3 11 14 19 25 18l180 -21c16 -3 24 -16 17 -31l-102 -237c-3 -5 -10 -12 -17 -13zM180 -79l102 237l-180 21l-54 -276z" />
    <glyph glyph-name="hyphen" unicode="-" horiz-adv-x="448" 
d="M392 224l-327 -16c-12 -1 -22 8 -23 20l-14 159c-1 11 8 21 19 24l325 46c13 3 24 -7 25 -20l16 -189c1 -12 -9 -23 -21 -24zM383 254l-16 189l-325 -46l14 -159z" />
    <glyph glyph-name="period" unicode="." horiz-adv-x="361" 
d="M181 -47c-67 0 -131 56 -131 132c0 71 57 134 130 134c67 0 131 -56 131 -133c0 -68 -53 -133 -130 -133zM173 -17c64 0 108 55 108 111c0 64 -53 111 -109 111c-60 0 -108 -52 -108 -112c0 -64 53 -110 109 -110z" />
    <glyph glyph-name="slash" unicode="/" horiz-adv-x="609" 
d="M144 -69l-144 114c-8 7 -10 18 -5 27l408 766c7 11 20 16 31 9l185 -115c11 -7 14 -19 7 -30l-449 -765c-7 -12 -22 -15 -33 -6zM150 -44l449 765l-185 115l-408 -766z" />
    <glyph glyph-name="zero" unicode="0" horiz-adv-x="712" 
d="M362 -52c-203 0 -327 193 -327 434c0 220 130 400 333 400c205 0 329 -188 329 -420c0 -197 -93 -414 -335 -414zM354 -22c227 0 313 205 313 392c0 219 -115 398 -307 398c-189 0 -311 -171 -311 -378c0 -229 116 -412 305 -412zM357 197c-86 0 -110 83 -110 152
c0 103 49 171 136 171c56 0 99 -44 99 -132c0 -84 -32 -191 -125 -191zM365 211c76 0 103 94 103 169c0 73 -34 110 -77 110c-72 0 -114 -60 -114 -149c0 -59 19 -130 88 -130z" />
    <glyph glyph-name="one" unicode="1" horiz-adv-x="497" 
d="M404 -52l-204 6c-11 0 -20 9 -21 20l-42 397l-81 -32c-15 -7 -29 4 -30 20l-8 183l128 210c4 7 15 12 22 11l265 -42c11 -3 19 -12 19 -23l-25 -729c0 -12 -11 -21 -23 -21zM397 -22l25 729l-265 42l-125 -205l8 -176l108 43l45 -427z" />
    <glyph glyph-name="two" unicode="2" horiz-adv-x="682" 
d="M592 -62l-474 33c-9 1 -16 9 -19 17l-42 183c-3 11 3 23 14 26c107 35 247 118 247 190c0 45 -46 59 -96 59c-40 0 -82 -9 -109 -18c-15 -5 -28 4 -29 19l-24 318c-1 13 9 24 22 24h24c8 0 16 1 25 1c279 0 517 -78 517 -258c0 -168 -105 -233 -254 -297l209 -16
c12 -1 20 -11 20 -23l-7 -237c0 -13 -11 -22 -24 -21zM586 -32l7 237l-301 23c184 75 326 130 326 312c0 166 -228 236 -495 236c-17 0 -33 -1 -49 -1l24 -318c28 9 73 19 116 19c60 0 118 -20 118 -81c0 -80 -148 -177 -262 -211l42 -183z" />
    <glyph glyph-name="three" unicode="3" horiz-adv-x="713" 
d="M22 17l72 201c7 16 25 20 37 8c42 -45 126 -76 185 -76c32 0 57 10 57 37c0 31 -59 62 -159 82c-11 3 -18 11 -18 22l-2 109c0 12 10 22 22 22c75 0 156 18 156 62c0 19 -28 25 -67 25c-77 0 -179 -29 -204 -43c-16 -9 -33 0 -33 19l-3 256c0 11 8 21 19 22
c47 7 95 8 143 8c273 0 473 -98 473 -245c0 -91 -76 -154 -180 -191c75 -51 123 -124 123 -196c0 -149 -195 -208 -328 -208c-108 0 -187 13 -282 59c-11 5 -15 16 -11 27zM107 218l-72 -200c89 -45 169 -57 272 -57c125 0 306 52 306 186c0 77 -62 154 -155 202
c124 32 212 91 212 185c0 133 -191 223 -451 223c-47 0 -93 -1 -140 -8l3 -256c26 15 136 46 215 46c51 0 89 -12 89 -47c0 -59 -92 -84 -178 -84l2 -109c111 -23 177 -61 177 -104s-34 -59 -79 -59c-65 0 -153 34 -201 82z" />
    <glyph glyph-name="four" unicode="4" horiz-adv-x="733" 
d="M657 -22l-232 -30c-13 -3 -24 7 -25 20l-13 144l-278 10l-81 80c-7 7 -8 18 -5 25l219 501c3 5 11 12 16 13l253 52c12 3 23 -6 26 -18l82 -478c27 -1 52 -4 79 -5c13 0 24 -12 21 -25l-19 -146c-1 -12 -11 -20 -23 -19l-27 2c8 -35 17 -66 25 -99c3 -13 -5 -24 -18 -27z
M646 8l-32 128l56 -4l19 146l-97 5l-85 496l-253 -52l-219 -501l75 -74l289 -10l15 -164zM387 295l-175 10l160 230zM372 310l-10 153l-101 -146c36 -3 68 -4 111 -7z" />
    <glyph glyph-name="five" unicode="5" horiz-adv-x="715" 
d="M132 -28l-33 165c-3 16 10 29 26 26c19 -3 35 -4 54 -4c91 0 202 24 202 77c0 36 -29 49 -68 49c-63 0 -144 -30 -187 -63c-15 -11 -33 -5 -36 14l-68 443c-3 12 6 22 18 25l489 91c12 3 23 -7 26 -19l29 -184c3 -13 -7 -24 -20 -25l-296 -27l12 -60c45 17 91 25 136 25
c152 0 278 -96 278 -269c0 -179 -142 -296 -387 -296c-51 0 -101 5 -157 14c-8 1 -15 10 -18 18zM113 149l33 -165c56 -9 106 -14 153 -14c231 0 365 109 365 274c0 160 -116 247 -256 247c-49 0 -102 -11 -153 -34l-22 111l321 29l-29 184l-489 -91l68 -443
c46 35 133 68 201 68c51 0 90 -19 90 -71c0 -68 -124 -99 -224 -99c-21 0 -39 1 -58 4z" />
    <glyph glyph-name="six" unicode="6" horiz-adv-x="697" 
d="M478 772l105 -222c7 -16 -3 -31 -20 -31c-60 0 -125 -11 -174 -47c14 2 28 3 41 3c122 0 246 -88 246 -250c0 -172 -151 -287 -319 -287c-212 0 -329 159 -329 376c0 298 160 447 428 471c8 1 19 -6 22 -13zM555 549l-105 222c-255 -21 -408 -166 -408 -449
c0 -204 109 -354 307 -354c156 0 297 106 297 265c0 148 -113 228 -224 228c-36 0 -71 -7 -105 -20c51 85 153 108 238 108zM498 221c0 -47 -43 -83 -90 -83c-56 0 -101 37 -101 88c0 49 43 82 88 82c57 0 103 -36 103 -87zM484 213c0 37 -36 65 -81 65
c-35 0 -66 -24 -66 -60c0 -39 35 -66 79 -66c36 0 68 26 68 61z" />
    <glyph glyph-name="seven" unicode="7" horiz-adv-x="653" 
d="M295 -66l-202 69c-13 5 -19 20 -12 32l253 459l-269 -12c-13 -1 -23 9 -23 22l5 257c0 13 10 23 23 22l528 -28c9 0 18 -9 21 -18l35 -202l-333 -591c-5 -9 -17 -13 -26 -10zM294 -37l329 583l-34 195l-528 28l-5 -257l308 13l-272 -493z" />
    <glyph glyph-name="eight" unicode="8" horiz-adv-x="757" 
d="M690 545c0 -56 -21 -111 -76 -155c76 -39 116 -112 116 -192c0 -179 -173 -270 -356 -270c-171 0 -342 83 -342 248c0 103 62 175 144 215c-51 35 -85 89 -85 153c0 160 142 246 297 246c148 0 302 -80 302 -245zM560 393c73 43 100 100 100 160c0 151 -143 223 -280 223
c-143 0 -275 -77 -275 -224c0 -71 56 -135 118 -157c-101 -29 -177 -97 -177 -211c0 -151 160 -226 320 -226c172 0 334 84 334 248c0 84 -48 158 -140 187zM461 211c0 -45 -46 -81 -113 -81c-63 0 -99 25 -99 69c0 54 66 84 110 84c67 0 102 -27 102 -72zM499 548
c0 -44 -44 -71 -89 -71c-39 0 -74 19 -74 60c0 48 43 74 85 74c39 0 78 -20 78 -63zM447 203c0 31 -28 50 -80 50c-34 0 -88 -22 -88 -62c0 -31 29 -47 77 -47c53 0 91 26 91 59zM485 540c0 27 -28 41 -56 41c-31 0 -63 -17 -63 -52c0 -27 25 -38 52 -38c35 0 67 18 67 49z
" />
    <glyph glyph-name="nine" unicode="9" horiz-adv-x="695" 
d="M118 -42l-55 238c-4 16 7 30 23 27c28 -3 52 -5 73 -5c93 0 140 29 164 76c-17 -3 -32 -5 -47 -5c-168 0 -248 110 -248 227c0 131 102 270 293 270c187 0 346 -161 346 -350c0 -326 -182 -502 -437 -502c-31 0 -64 2 -95 7c-7 1 -14 10 -17 17zM76 209l55 -238
c31 -5 62 -7 91 -7c242 0 415 168 415 480c0 179 -149 328 -324 328c-177 0 -271 -128 -271 -248c0 -107 74 -205 226 -205c28 0 56 5 83 17c-19 -78 -69 -132 -200 -132c-23 0 -47 2 -75 5zM395 544c0 -51 -32 -81 -88 -81c-66 0 -100 44 -100 87c0 40 30 79 91 79
c48 0 97 -29 97 -85zM381 536c0 43 -38 63 -75 63c-47 0 -69 -28 -69 -57c0 -32 27 -65 78 -65c43 0 66 23 66 59z" />
    <glyph glyph-name="colon" unicode=":" horiz-adv-x="361" 
d="M181 -47c-67 0 -131 56 -131 132c0 71 57 134 130 134c67 0 131 -56 131 -133c0 -68 -53 -133 -130 -133zM181 313c-67 0 -131 56 -131 132c0 71 57 134 130 134c67 0 131 -56 131 -133c0 -68 -53 -133 -130 -133zM173 -17c64 0 108 55 108 111c0 64 -53 111 -109 111
c-60 0 -108 -52 -108 -112c0 -64 53 -110 109 -110zM173 343c64 0 108 55 108 111c0 64 -53 111 -109 111c-60 0 -108 -52 -108 -112c0 -64 53 -110 109 -110z" />
    <glyph glyph-name="semicolon" unicode=";" horiz-adv-x="361" 
d="M185 -109l-132 -18c-16 -3 -28 10 -25 26l54 276c3 11 14 19 25 18l180 -21c16 -3 24 -16 17 -31l-102 -237c-3 -5 -10 -12 -17 -13zM181 313c-67 0 -131 56 -131 132c0 71 57 134 130 134c67 0 131 -56 131 -133c0 -68 -53 -133 -130 -133zM174 -79l102 237l-180 21
l-54 -276zM173 343c64 0 108 55 108 111c0 64 -53 111 -109 111c-60 0 -108 -52 -108 -112c0 -64 53 -110 109 -110z" />
    <glyph glyph-name="less" unicode="&#x3c;" horiz-adv-x="605" 
d="M576 62l-232 -102c-8 -4 -19 0 -26 7l-296 385c-7 8 -6 21 1 28l384 402c11 11 26 10 34 -3l139 -215c7 -11 4 -23 -5 -30l-258 -184l265 -252c12 -12 9 -29 -6 -36zM559 90l-285 271l280 199l-139 215l-384 -402l296 -385z" />
    <glyph glyph-name="equal" unicode="=" horiz-adv-x="490" 
d="M454 120l-390 -12c-11 0 -22 9 -23 20l-15 152c-1 12 8 23 20 24l412 42c15 1 24 -8 24 -23l-7 -182c0 -11 -10 -21 -21 -21zM445 394l-385 -30c-12 -1 -23 8 -24 20l-14 157c-1 12 7 23 19 24l394 47c13 3 25 -9 25 -22l5 -174c0 -11 -9 -21 -20 -22zM445 150l7 182
l-412 -42l15 -152zM435 424l-5 174l-394 -47l14 -157z" />
    <glyph glyph-name="greater" unicode="&#x3e;" horiz-adv-x="605" 
d="M262 -40l-232 102c-15 7 -18 24 -6 36l265 252c-85 60 -173 124 -258 184c-9 7 -12 19 -5 30l139 215c8 13 23 14 34 3l384 -402c7 -7 8 -20 1 -28l-296 -385c-7 -7 -18 -11 -26 -7zM263 -12l296 385l-384 402l-139 -215l280 -199l-285 -271z" />
    <glyph glyph-name="question" unicode="?" horiz-adv-x="616" 
d="M197 -60c-67 0 -131 56 -131 132c0 60 40 113 96 129c-71 11 -121 52 -121 108c0 90 82 113 156 131c49 14 98 24 98 59c0 33 -40 63 -119 63c-27 0 -55 -3 -86 -10c-15 -3 -26 5 -27 20l-10 192c0 11 7 20 18 23c44 8 92 12 143 12c203 0 374 -74 374 -220
c0 -132 -118 -174 -206 -203l-41 -14c9 -3 14 -10 15 -19l7 -77c1 -7 -3 -18 -10 -21c-41 -25 -83 -39 -123 -44c53 -16 97 -64 97 -128c0 -68 -53 -133 -130 -133zM333 272l-7 77c-7 -8 -22 -14 -33 -14s-17 4 -17 13c0 68 282 54 282 239c0 131 -160 198 -352 198
c-49 0 -95 -4 -139 -12l10 -192c35 8 64 11 91 11c93 0 141 -41 141 -85c0 -108 -254 -50 -254 -190c0 -51 57 -88 134 -88c45 0 96 12 144 43zM189 -30c64 0 108 55 108 111c0 64 -53 111 -109 111c-60 0 -108 -52 -108 -112c0 -64 53 -110 109 -110z" />
    <glyph glyph-name="at" unicode="@" horiz-adv-x="856" 
d="M428 -30c-254 0 -403 192 -403 421c0 225 178 392 390 392c220 0 416 -154 416 -399c0 -214 -144 -414 -403 -414zM420 0c245 0 381 188 381 392c0 232 -186 377 -394 377c-200 0 -368 -158 -368 -370c0 -219 141 -399 381 -399zM426 88c-168 0 -278 124 -278 304
c0 148 89 290 280 290c155 0 254 -129 254 -314c0 -136 -89 -280 -256 -280zM621 213l-149 426l-143 -11l-113 -418l127 7l16 88l107 4l26 -102zM434 102c76 0 133 32 172 80l-105 -5c-11 0 -19 6 -22 17l-22 85c-27 -1 -40 -3 -71 -4l-13 -70c-3 -9 -10 -18 -21 -18
l-105 -6c45 -51 108 -79 187 -79zM668 360c0 145 -65 254 -171 283l4 -5l140 -401c17 39 27 80 27 123zM178 384c0 -56 11 -105 32 -148l106 390v1c-93 -45 -138 -143 -138 -243zM447 382h-73l32 130zM436 652c-23 0 -46 -3 -69 -8l88 7c-7 0 -12 1 -19 1z" />
    <glyph glyph-name="A" unicode="A" 
d="M755 -22l-233 -10c-11 0 -19 8 -22 17l-43 166c-56 -3 -100 -4 -157 -7l-27 -141c-3 -9 -12 -18 -21 -18l-229 -12c-16 -1 -26 13 -22 28l205 755c3 8 11 15 19 16l258 21c9 1 20 -6 23 -15l269 -771c5 -15 -4 -28 -20 -29zM746 8l-269 771l-258 -21l-205 -755l229 12
l30 159l193 7l47 -183zM431 313h-131l57 236zM410 327l-43 133c-11 -45 -18 -81 -31 -133h74z" />
    <glyph glyph-name="B" unicode="B" horiz-adv-x="739" 
d="M64 1l-43 704c-1 9 6 19 15 22c85 27 185 43 285 43c188 0 332 -63 332 -183c0 -63 -33 -111 -92 -158c104 -23 171 -79 171 -183c0 -188 -276 -278 -508 -278c-53 0 -100 4 -142 12c-9 3 -17 12 -18 21zM35 714l43 -704c42 -8 88 -12 138 -12c222 0 486 83 486 256
c0 106 -84 158 -205 169c80 55 126 104 126 172c0 106 -134 161 -310 161c-96 0 -194 -15 -278 -42zM289 162l-14 133c24 11 58 17 91 17c55 0 93 -15 93 -58c0 -56 -80 -89 -170 -92zM254 445l-13 146c21 11 45 16 68 16c56 0 96 -23 96 -68c0 -52 -68 -91 -151 -94z
M306 273l11 -96c70 5 128 29 128 69c0 27 -30 36 -71 36c-25 0 -48 -2 -68 -9zM272 570l10 -110c56 8 109 36 109 71c0 31 -31 46 -74 46c-17 0 -32 -2 -45 -7z" />
    <glyph glyph-name="C" unicode="C" horiz-adv-x="651" 
d="M565 257l72 -230c4 -11 -3 -24 -14 -28c-68 -24 -134 -35 -195 -35c-243 0 -410 174 -410 385c0 194 138 408 420 408c49 0 103 -8 159 -31c11 -4 17 -17 13 -28l-62 -179c-4 -13 -19 -20 -31 -13c-21 11 -44 15 -64 15c-111 0 -161 -66 -161 -134
c0 -100 63 -144 136 -144c35 0 71 9 106 27c13 7 27 2 31 -13zM608 28l-72 230c-37 -19 -77 -29 -116 -29c-85 0 -158 51 -158 166c0 79 58 156 183 156c24 0 50 -5 74 -17l62 179c-55 21 -104 30 -151 30c-268 0 -398 -202 -398 -386c0 -200 159 -363 388 -363
c59 0 121 11 188 34z" />
    <glyph glyph-name="D" unicode="D" 
d="M47 -22l7 737c0 11 9 21 20 22c43 3 85 5 128 5c314 0 545 -126 545 -374c0 -246 -290 -417 -594 -417c-31 0 -58 2 -86 5c-11 1 -20 11 -20 22zM68 723l-7 -737c28 -3 56 -5 84 -5c293 0 572 162 572 395s-222 352 -523 352c-43 0 -83 -2 -126 -5zM252 210l15 324
c7 0 12 1 17 1c128 0 193 -76 193 -154c0 -84 -75 -171 -225 -171zM463 373c0 67 -57 129 -167 132l-13 -280c119 8 180 80 180 148z" />
    <glyph glyph-name="E" unicode="E" horiz-adv-x="627" 
d="M587 -27l-481 7c-11 0 -21 9 -22 20l-57 732c-1 12 7 23 19 24l471 56c13 1 24 -7 25 -20l13 -173c1 -12 -8 -23 -20 -24l-253 -30c3 -20 3 -32 6 -59l193 15c12 1 23 -8 24 -20l16 -159c1 -12 -8 -23 -20 -24l-187 -16c3 -21 4 -37 8 -64l249 25c13 1 23 -8 24 -21
l14 -246c1 -13 -9 -23 -22 -23zM579 3l-14 246l-270 -27l-15 108l211 18l-16 159l-215 -16l-10 102l275 32l-13 173l-471 -56l57 -732z" />
    <glyph glyph-name="F" unicode="F" horiz-adv-x="619" 
d="M267 -57l-200 23c-11 1 -20 12 -20 23l20 772c0 12 11 21 23 21l484 -20c12 0 21 -11 21 -23l-6 -210c0 -12 -11 -22 -23 -21l-269 14v-73c69 -3 138 -8 207 -11c11 0 21 -11 21 -22l4 -188c0 -13 -10 -23 -23 -22l-212 11c0 -88 -2 -164 -2 -252c0 -15 -12 -25 -25 -22z
M262 -27l2 274l235 -11l-4 188l-228 11v118l292 -15l6 210l-484 20l-20 -772z" />
    <glyph glyph-name="G" unicode="G" horiz-adv-x="862" 
d="M546 233l-97 2c-12 0 -22 10 -22 22l-3 146c0 12 9 22 21 22l369 17c11 0 22 -8 23 -19c3 -15 2 -31 2 -46c0 -305 -204 -437 -392 -437c-207 0 -420 162 -420 430c0 260 204 416 442 416c88 0 176 -20 263 -63c11 -5 15 -19 10 -30l-91 -184c-5 -11 -19 -15 -30 -10
c-52 27 -111 45 -167 45c-81 0 -151 -44 -151 -174c0 -114 83 -195 155 -195c36 0 69 17 88 58zM441 265l127 -2c-19 -72 -65 -102 -118 -102c-80 0 -177 90 -177 217c0 147 80 196 173 196c60 0 122 -20 177 -47l91 184c-84 43 -169 61 -253 61c-226 0 -420 -147 -420 -394
c0 -255 202 -408 398 -408c177 0 370 124 370 415c0 15 1 28 -2 43l-369 -17z" />
    <glyph glyph-name="H" unicode="H" horiz-adv-x="694" 
d="M635 -27l-217 5c-12 0 -22 10 -22 22l-2 238c-27 -3 -49 -4 -81 -7l-7 -253c0 -13 -11 -23 -24 -22l-202 16c-11 1 -20 11 -20 22l-12 719c0 12 9 21 21 22l226 12c13 1 23 -9 23 -22l-7 -286c27 1 49 0 81 1l-3 278c0 11 9 21 20 22l198 17c13 1 24 -8 24 -21l27 -740
c0 -13 -10 -23 -23 -23zM628 3l-27 740l-198 -17l3 -299l-125 -3l7 309l-226 -12l12 -719l202 -16l7 273l124 12l3 -263z" />
    <glyph glyph-name="I" unicode="I" horiz-adv-x="542" 
d="M439 -46l-384 39c-12 1 -21 11 -20 23l14 182c1 12 11 22 23 21l62 -4l13 326h-57c-12 0 -22 9 -22 21l-6 175c0 12 9 22 21 23l428 18c13 1 23 -9 23 -22l-4 -193c0 -12 -10 -22 -22 -22h-79l-23 -345l49 -3c12 -1 22 -11 21 -23l-13 -195c-1 -13 -11 -22 -24 -21z
M433 -16l13 195l-72 4l27 388h99l4 193l-428 -18l6 -175h80l-15 -371l-84 5l-14 -182z" />
    <glyph glyph-name="J" unicode="J" horiz-adv-x="738" 
d="M717 554l-69 -6c8 -43 12 -85 12 -126c0 -310 -155 -468 -323 -468c-122 0 -253 85 -334 259c-4 11 -1 21 8 28l199 126c13 9 29 2 33 -13c13 -55 62 -136 112 -136c40 0 52 64 52 136c0 63 -10 132 -25 177l-107 -8c-11 -1 -22 8 -23 19l-22 165c-3 12 7 24 19 25
l453 55c13 3 24 -8 25 -21l10 -189c1 -12 -8 -22 -20 -23zM707 584l-10 189l-453 -55l22 -165l124 8c17 -45 31 -126 31 -199c0 -84 -19 -158 -74 -158c-61 0 -117 91 -133 152l-199 -126c77 -165 199 -246 314 -246c157 0 301 150 301 446c0 47 -6 96 -17 147z" />
    <glyph glyph-name="K" unicode="K" horiz-adv-x="764" 
d="M740 86l-178 -133c-8 -7 -22 -5 -29 3l-220 226c-8 -73 -16 -146 -23 -218c-1 -13 -14 -22 -27 -19l-163 36c-9 3 -17 11 -17 20l-23 732c0 13 10 23 23 23l247 -6c13 0 22 -11 21 -24l-21 -218c52 73 105 148 157 220c3 4 12 9 19 9l229 -12c19 -1 28 -20 16 -35
l-254 -327l245 -243c11 -11 9 -26 -2 -34zM719 112l-259 256l266 343l-229 12l-204 -284l28 297l-247 6l23 -732l163 -36l28 266l253 -261z" />
    <glyph glyph-name="L" unicode="L" horiz-adv-x="610" 
d="M579 -18l-471 -34c-12 -1 -23 9 -24 21l-45 777c-1 12 8 22 20 23l253 20c13 1 24 -9 24 -22l-7 -557l239 19c13 1 24 -8 24 -21l7 -203c0 -12 -8 -22 -20 -23zM569 12l-7 203l-263 -21l7 581l-253 -20l45 -777z" />
    <glyph glyph-name="M" unicode="M" horiz-adv-x="1055" 
d="M1002 -28l-250 8c-11 0 -20 10 -21 21l-23 344l-123 -334c-3 -8 -13 -14 -22 -14l-111 7c-8 0 -17 8 -20 15l-107 311l-22 -330c-1 -13 -13 -24 -26 -21l-235 39c-12 3 -21 14 -18 26l122 725c3 11 13 19 24 18l246 -19c7 -1 16 -8 19 -15l109 -298c39 92 77 186 116 278
c3 7 12 13 19 13l251 9c11 0 22 -9 23 -20l72 -739c1 -15 -8 -24 -23 -24zM995 2l-72 739l-251 -9l-138 -329l-128 351l-246 19l-122 -725l235 -39l29 442l143 -417l111 -7l160 433l29 -450z" />
    <glyph glyph-name="N" unicode="N" horiz-adv-x="781" 
d="M668 -30l-113 -23c-7 -1 -18 3 -22 10l-229 356l14 -323c1 -15 -9 -24 -24 -23l-214 22c-11 1 -20 10 -20 21l-18 677c0 11 7 20 18 23l233 44c8 3 19 -5 23 -12l153 -292l-11 285c0 12 9 22 21 23l251 14c15 1 24 -9 23 -24l-67 -758c-1 -11 -7 -17 -18 -20zM656 0
l67 758l-251 -14l15 -381l-198 377l-233 -44l18 -677l214 -22l-18 404l273 -424z" />
    <glyph glyph-name="O" unicode="O" horiz-adv-x="856" 
d="M831 369c0 -246 -196 -399 -416 -399c-212 0 -390 167 -390 392c0 229 149 421 403 421c259 0 403 -200 403 -414zM801 377c0 204 -136 392 -381 392c-240 0 -381 -180 -381 -399c0 -212 168 -370 368 -370c208 0 394 145 394 377zM423 188c-110 0 -161 82 -161 166
c0 104 64 175 160 175s147 -83 147 -161c0 -107 -58 -180 -146 -180zM431 202c76 0 124 65 124 158c0 67 -43 139 -125 139c-85 0 -138 -62 -138 -153c0 -73 44 -144 139 -144z" />
    <glyph glyph-name="P" unicode="P" horiz-adv-x="745" 
d="M348 -36l-233 -16c-12 -1 -22 8 -23 20l-57 756c-1 9 6 20 14 23c77 31 167 44 251 44c281 0 431 -114 431 -317c0 -143 -128 -286 -392 -294c9 -64 20 -127 29 -191c3 -13 -7 -24 -20 -25zM338 -6l-32 216c265 0 395 136 395 272c0 189 -142 295 -409 295
c-81 0 -167 -14 -243 -43l57 -756zM280 387l-28 196c31 13 62 19 93 19c60 0 109 -25 109 -89c0 -69 -88 -110 -174 -126zM284 561l23 -155c69 16 133 49 133 99c0 48 -40 67 -87 67c-24 0 -47 -4 -69 -11z" />
    <glyph glyph-name="Q" unicode="Q" horiz-adv-x="864" 
d="M695 -8l-81 66c-67 -72 -149 -114 -248 -114c-231 0 -339 182 -339 378c0 220 139 455 397 455c241 0 339 -161 339 -341c0 -59 -10 -118 -30 -177l118 -72c12 -7 14 -22 5 -33l-130 -159c-8 -11 -22 -11 -31 -3zM701 17l130 159l-133 81c23 60 35 124 35 187
c0 169 -92 319 -317 319c-244 0 -375 -225 -375 -433c0 -185 101 -356 317 -356c99 0 182 48 246 123zM394 273l73 -61c-25 -18 -52 -27 -80 -27c-99 0 -144 72 -144 153c0 101 71 216 200 216c88 0 124 -61 124 -134c0 -25 -5 -51 -12 -76l-89 54zM436 207l-48 41
c-8 7 -10 19 -5 28l72 125c7 11 20 15 31 8l63 -38c3 13 4 28 4 41c0 61 -30 112 -102 112c-114 0 -178 -103 -178 -194c0 -68 37 -131 122 -131c13 0 27 3 41 8z" />
    <glyph glyph-name="R" unicode="R" horiz-adv-x="682" 
d="M689 55l-212 -110c-11 -7 -25 -1 -30 11l-111 258l-47 -21l21 -190c1 -11 -8 -21 -19 -24l-218 -34c-15 -3 -25 6 -25 21l-19 763c0 11 8 19 17 22c72 17 150 25 223 25c202 0 385 -66 385 -242c0 -87 -46 -154 -130 -217l173 -229c9 -11 5 -26 -8 -33zM671 83l-186 246
c88 60 139 129 139 213c0 160 -174 220 -363 220c-73 0 -149 -8 -218 -24l19 -763l218 34l-23 208c24 8 55 20 82 35l120 -279zM235 392l-22 182c29 9 72 19 111 19c51 0 94 -16 94 -75c0 -63 -82 -110 -183 -126zM245 550l17 -140c80 16 142 53 142 100c0 41 -33 53 -72 53
c-28 0 -62 -6 -87 -13z" />
    <glyph glyph-name="S" unicode="S" horiz-adv-x="755" 
d="M-4 119l108 145c7 9 20 12 31 5c68 -47 138 -68 198 -68c64 0 110 25 110 66c0 32 -72 47 -139 60c-120 24 -274 59 -274 211c0 203 191 256 372 256c71 0 136 -8 188 -17c11 -3 18 -12 18 -23l-6 -183c-1 -17 -16 -26 -31 -19c-32 13 -105 31 -169 31
c-48 0 -89 -9 -89 -37c0 -15 48 -21 104 -26c132 -12 324 -43 324 -267c0 -205 -191 -296 -386 -296c-141 0 -284 48 -358 135c-7 7 -8 19 -1 27zM114 259l-108 -145c69 -82 207 -127 341 -127c184 0 364 84 364 274c0 336 -428 191 -428 293c0 44 51 59 111 59
c66 0 144 -17 178 -33l6 183c-52 9 -116 17 -184 17c-170 0 -350 -48 -350 -234c0 -242 413 -145 413 -271c0 -56 -55 -88 -132 -88c-64 0 -139 21 -211 72z" />
    <glyph glyph-name="T" unicode="T" horiz-adv-x="689" 
d="M445 -36l-218 -26c-15 -3 -24 8 -24 23l14 520c-56 -4 -112 -9 -168 -12c-13 -1 -23 9 -23 22l1 267c0 13 10 23 23 22l600 -36c12 -1 21 -10 21 -22l-5 -190c0 -11 -10 -21 -21 -22l-201 -13l20 -510c0 -11 -8 -22 -19 -23zM434 -6l-20 531l222 15l5 190l-600 36
l-1 -267l192 13l-15 -544z" />
    <glyph glyph-name="U" unicode="U" horiz-adv-x="744" 
d="M491 764l178 16c11 1 21 -8 24 -19c11 -71 17 -151 17 -235c0 -285 -78 -589 -332 -589c-234 0 -344 277 -344 600c0 72 8 167 19 230c3 11 13 20 24 19l232 -25c15 -1 23 -13 19 -28c-16 -50 -22 -133 -22 -191c0 -172 26 -287 90 -287c72 0 94 110 94 266
c0 80 -8 153 -19 217c-3 13 7 25 20 26zM663 766l-178 -16c11 -64 19 -137 19 -221c0 -169 -29 -288 -116 -288c-78 0 -112 125 -112 309c0 60 7 143 23 197l-232 25c-11 -64 -19 -155 -19 -227c0 -311 103 -578 322 -578c237 0 310 292 310 567c0 83 -6 161 -17 232z" />
    <glyph glyph-name="V" unicode="V" horiz-adv-x="681" 
d="M401 -43l-209 20c-8 1 -16 9 -19 17l-175 732c-3 13 5 24 18 27l232 32c11 1 22 -7 25 -18l64 -371l80 367c3 11 13 18 24 17l223 -19c15 -1 24 -14 19 -29l-259 -760c-3 -9 -14 -16 -23 -15zM395 -13l259 760l-223 19l-104 -480l-84 485l-232 -32l175 -732z" />
    <glyph glyph-name="W" unicode="W" horiz-adv-x="958" 
d="M673 -58l-174 39c-8 3 -16 10 -17 18l-38 237c-27 -80 -53 -161 -78 -241c-3 -7 -10 -14 -17 -15l-195 -41c-12 -3 -23 6 -26 18l-139 774c-3 12 6 23 18 26l260 46c13 3 25 -7 26 -20l31 -301l60 188c3 7 12 14 20 15l132 9c11 1 20 -7 23 -18l44 -235l110 335
c4 12 16 18 28 14l221 -73c12 -4 18 -17 14 -29l-277 -733c-4 -11 -15 -16 -26 -13zM670 -29l277 733l-221 73l-138 -417l-59 320l-132 -9l-93 -287l-41 405l-260 -46l139 -774l195 41l106 331l53 -331z" />
    <glyph glyph-name="X" unicode="X" horiz-adv-x="754" 
d="M775 46l-263 -97c-9 -3 -21 1 -26 9l-120 183l-144 -200c-7 -11 -20 -12 -31 -5l-178 128c-12 8 -14 23 -3 34l223 224l-229 303c-7 11 -6 24 5 31l200 146c11 7 24 6 31 -5l174 -247c52 79 103 155 154 234c7 11 18 14 29 7l182 -109c12 -7 16 -23 5 -34l-241 -270
c83 -101 158 -197 241 -297c11 -12 6 -28 -9 -35zM759 75l-253 311l254 285l-182 109l-172 -260l-192 272l-200 -146l241 -318l-237 -238l178 -128l162 226l138 -210z" />
    <glyph glyph-name="Y" unicode="Y" horiz-adv-x="771" 
d="M520 -40l-246 -21c-13 -1 -24 9 -24 22l-4 355c-92 119 -182 239 -274 358c-11 13 -5 29 10 34l274 93c9 3 21 -1 26 -10l145 -258c48 85 96 172 144 256c5 9 16 14 27 10l183 -69c15 -5 18 -21 10 -33l-254 -386l3 -329c0 -11 -9 -21 -20 -22zM510 -10l-3 334l258 393
l-183 69l-163 -290l-164 292l-274 -93l279 -364l4 -362z" />
    <glyph glyph-name="Z" unicode="Z" horiz-adv-x="817" 
d="M743 -63l-705 63c-19 3 -27 19 -16 34l329 502c-88 -5 -175 -10 -263 -14c-13 -1 -23 9 -23 22l3 191c0 11 10 21 21 22l685 31c19 1 31 -17 20 -33l-313 -527l267 10c13 0 23 -9 23 -22l-4 -257c0 -13 -11 -23 -24 -22zM737 -33l4 257l-307 -11l333 561l-685 -31
l-3 -191l305 16l-352 -538z" />
    <glyph glyph-name="bracketleft" unicode="[" horiz-adv-x="514" 
d="M449 -169l-387 1c-12 0 -22 10 -22 22l-16 912c0 12 10 22 22 22l399 4c12 0 22 -10 22 -22v-186c0 -11 -10 -21 -21 -22l-154 -10l10 -507c49 0 108 1 156 1c13 0 23 -10 22 -23l-9 -171c-1 -12 -10 -21 -22 -21zM441 -139l9 171l-178 -1l-10 550l175 11v186l-399 -4
l16 -912z" />
    <glyph glyph-name="backslash" unicode="\" horiz-adv-x="609" 
d="M609 45l-144 -114c-11 -8 -25 -7 -32 4l-437 621c-7 11 -5 25 6 32l185 115c11 7 24 4 31 -7l396 -622c7 -9 4 -22 -5 -29zM587 70l-396 622l-185 -115l437 -621z" />
    <glyph glyph-name="bracketright" unicode="]" horiz-adv-x="514" 
d="M442 -168l-387 -1c-12 0 -21 10 -22 21l-9 171c-1 13 9 23 22 23l156 -1l10 507l-154 10c-12 1 -21 10 -21 22v186c0 12 10 22 22 22l399 -4c12 0 22 -10 22 -22l-16 -912c0 -12 -10 -22 -22 -22zM434 -138l16 912l-399 4v-186l175 -11l-10 -550l-178 1l9 -171z" />
    <glyph glyph-name="asciicircum" unicode="^" horiz-adv-x="511" 
d="M493 442l-157 -132c-11 -8 -23 -7 -31 4l-77 98c-27 -33 -49 -66 -76 -98c-7 -9 -21 -11 -30 -4l-102 75c-9 7 -13 19 -6 30l133 213c3 4 12 9 16 10l154 24c7 1 15 -3 19 -7l159 -181c8 -9 9 -24 -2 -32zM471 467l-159 181l-154 -24l-133 -213l102 -75l93 119l94 -120z
" />
    <glyph glyph-name="underscore" unicode="_" horiz-adv-x="467" 
d="M438 -79l-410 -19c-12 -1 -23 10 -23 22l-5 133c0 12 10 22 22 22l424 8c13 0 23 -11 22 -24l-9 -122c-1 -11 -10 -20 -21 -20zM429 -49l9 122l-424 -8l5 -133z" />
    <glyph glyph-name="grave" unicode="`" horiz-adv-x="386" 
d="M330 840l-61 -61c-7 -7 -18 -7 -26 -3l-181 96c-13 7 -18 22 -7 33l100 114c9 11 24 12 33 1l142 -149c8 -9 8 -23 0 -31zM306 864l-142 149l-100 -114l181 -96z" />
    <glyph glyph-name="a" unicode="a" horiz-adv-x="763" 
d="M749 11l-219 -63c-12 -3 -24 3 -27 15l-41 136l-165 -12l-29 -135c-3 -11 -13 -20 -25 -17l-226 43c-13 3 -21 16 -17 29l239 766c3 8 13 15 22 15l213 -7c8 0 17 -7 20 -14l270 -727c5 -12 -2 -25 -15 -29zM735 40l-270 727l-213 7l-239 -766l226 -43l33 151l198 14
l46 -153zM428 271l-128 -8l57 243zM407 284l-40 130l-31 -136c23 3 40 5 71 6z" />
    <glyph glyph-name="b" unicode="b" horiz-adv-x="745" 
d="M64 8l-21 719c0 9 7 19 16 22c60 16 177 29 263 29c168 0 337 -45 337 -191c0 -65 -47 -117 -115 -162c102 -30 188 -92 188 -181c0 -201 -237 -277 -444 -277c-63 0 -157 8 -208 21c-8 3 -16 11 -16 20zM57 736l21 -719c48 -13 139 -20 202 -20c197 0 422 71 422 255
c0 93 -107 153 -226 171c88 48 153 104 153 172c0 128 -158 169 -315 169c-86 0 -198 -12 -257 -28zM266 168l-3 135c24 9 58 16 93 16c56 0 108 -18 108 -75c0 -65 -74 -82 -137 -82c-24 0 -45 3 -61 6zM258 482l-4 131c18 7 38 11 60 11c41 0 81 -16 81 -59
c0 -52 -76 -85 -116 -85c-8 0 -14 1 -21 2zM293 279l3 -100c12 -2 25 -3 39 -3c53 0 115 12 115 60c0 40 -42 53 -86 53c-25 0 -51 -3 -71 -10zM284 590l5 -96c33 0 92 26 92 63c0 27 -28 37 -59 37c-15 0 -27 -1 -38 -4z" />
    <glyph glyph-name="c" unicode="c" horiz-adv-x="561" 
d="M536 260l-1 -285c0 -11 -8 -21 -19 -22c-29 -4 -58 -5 -86 -5c-279 0 -404 187 -404 383c0 216 151 441 413 441c19 0 38 -1 56 -3c11 -1 19 -9 20 -20l20 -255c1 -13 -9 -24 -22 -24c-132 0 -203 -61 -203 -131c0 -52 61 -73 118 -73c31 0 56 5 77 14c16 7 31 -3 31 -20
zM505 -17l1 285c-25 -11 -53 -16 -86 -16c-68 0 -140 27 -140 95c0 82 78 153 225 153l-20 255c-18 2 -36 3 -54 3c-248 0 -391 -215 -391 -419c0 -185 118 -361 382 -361c27 0 54 1 83 5z" />
    <glyph glyph-name="d" unicode="d" horiz-adv-x="794" 
d="M73 -12l-36 730c-1 11 7 20 18 23c52 11 110 16 171 16c355 0 549 -170 549 -403c0 -197 -186 -393 -588 -393c-33 0 -65 2 -95 6c-11 1 -19 10 -19 21zM51 727l36 -730c30 -4 61 -6 92 -6c387 0 566 185 566 371c0 220 -186 381 -527 381c-59 0 -115 -5 -167 -16z
M291 229l6 294c147 -3 237 -61 237 -154c0 -95 -83 -142 -208 -142c-11 0 -23 1 -35 2zM327 492l-6 -251h13c113 0 186 40 186 120c0 75 -73 124 -193 131z" />
    <glyph glyph-name="e" unicode="e" horiz-adv-x="581" 
d="M550 12l-463 -73c-13 -3 -24 8 -25 21l-39 758c-1 12 8 22 20 23l483 47c13 1 24 -9 24 -22l4 -242c0 -11 -9 -21 -20 -22l-282 -22l3 -44l224 20c12 1 23 -9 24 -21l9 -140c1 -12 -8 -22 -20 -23l-225 -24l3 -55l260 32c13 1 24 -7 25 -20l14 -169c1 -11 -8 -21 -19 -24
zM539 42l-14 169l-285 -35l-4 100l246 26l-9 140l-247 -22l-4 89l302 23l-4 242l-483 -47l39 -758z" />
    <glyph glyph-name="f" unicode="f" horiz-adv-x="565" 
d="M257 -43l-201 -15c-13 -1 -24 10 -24 23l20 787c0 12 11 21 23 21l463 -14c11 0 21 -10 21 -21l6 -181c0 -13 -10 -23 -23 -23l-242 8l-4 -91l181 -7c12 0 21 -11 21 -23l-7 -163c0 -12 -11 -22 -23 -21l-181 11l-10 -270c0 -11 -9 -20 -20 -21zM247 -13l10 292l204 -12
l7 163l-203 7l6 136l264 -9l-6 181l-463 14l-20 -787z" />
    <glyph glyph-name="g" unicode="g" horiz-adv-x="732" 
d="M452 205l-3 37l-68 4c-11 0 -21 10 -21 21l-5 130c0 12 10 23 22 23l312 6c12 0 22 -10 22 -22c0 -234 -44 -365 -143 -469c-3 -4 -14 -8 -19 -7c-305 37 -527 230 -527 470c0 193 198 376 481 376c56 0 96 -7 152 -22c11 -3 17 -13 16 -24l-35 -243
c-3 -17 -18 -24 -33 -16c-35 19 -85 30 -138 30c-96 0 -200 -36 -200 -123c0 -84 66 -140 187 -171zM463 271l4 -86c-145 33 -232 100 -232 199c0 101 114 145 222 145c57 0 112 -12 149 -33l35 243c-53 15 -93 21 -146 21c-269 0 -459 -172 -459 -354
c0 -228 214 -411 508 -448c96 99 137 228 137 454l-312 -6l5 -130z" />
    <glyph glyph-name="h" unicode="h" horiz-adv-x="718" 
d="M638 -30l-226 10c-12 0 -22 11 -21 23l14 266c-33 -7 -68 -16 -105 -24l7 -258c0 -13 -10 -22 -23 -22l-189 8c-11 0 -20 9 -21 20l-54 717c-1 12 7 23 19 24l224 28c13 3 25 -9 25 -22l7 -262c43 1 73 4 120 5l14 273c1 12 11 22 23 21l209 -13c12 -1 21 -11 21 -23
l-21 -750c0 -12 -11 -22 -23 -21zM631 0l21 750l-209 13l-15 -294l-163 -5l-7 284l-224 -28l54 -717l189 -8l-7 276l150 33l-15 -294z" />
    <glyph glyph-name="i" unicode="i" horiz-adv-x="368" 
d="M294 -47l-231 -9c-13 -1 -23 9 -23 22l16 780c0 12 10 22 22 22l233 4c13 0 22 -10 22 -23l-18 -775c0 -11 -10 -21 -21 -21zM285 -17l18 775l-233 -4l-16 -780z" />
    <glyph glyph-name="j" unicode="j" horiz-adv-x="701" 
d="M14 245l213 79c15 5 29 -4 30 -19c4 -47 38 -77 70 -77c33 0 65 35 65 122c0 126 -55 301 -74 355c-5 13 3 26 16 29l253 62c11 3 22 -3 26 -14c43 -124 63 -256 63 -361c0 -285 -116 -480 -319 -480c-144 0 -285 109 -355 275c-5 12 0 25 12 29zM227 311l-213 -79
c67 -158 198 -261 335 -261c188 0 297 186 297 458c0 104 -19 233 -62 354l-253 -62c19 -54 75 -234 75 -363c0 -103 -43 -144 -87 -144s-87 38 -92 97z" />
    <glyph glyph-name="k" unicode="k" horiz-adv-x="750" 
d="M760 76l-169 -150c-9 -8 -22 -7 -30 2l-256 277l-4 -209c0 -11 -8 -21 -19 -22l-196 -29c-13 -3 -24 8 -25 21l-32 770c0 12 9 22 21 23l250 15c15 1 24 -8 23 -23l-14 -193l181 239c7 9 20 12 29 5l172 -114c11 -7 14 -20 6 -31l-216 -283c95 -91 186 -175 279 -266
c9 -9 11 -23 0 -32zM737 100l-293 280l227 298l-172 114l-225 -296l19 264l-250 -15l32 -770l196 29l4 264l294 -317z" />
    <glyph glyph-name="l" unicode="l" horiz-adv-x="598" 
d="M567 -19l-467 -33c-12 -1 -23 9 -24 21l-37 779c-1 12 9 23 21 23l228 8c13 0 23 -9 23 -22l-6 -522l251 32c13 3 25 -8 25 -21l6 -242c0 -12 -8 -22 -20 -23zM557 11l-6 242l-276 -35l6 547l-228 -8l37 -779z" />
    <glyph glyph-name="m" unicode="m" horiz-adv-x="947" 
d="M914 -17l-246 -11c-12 0 -22 8 -23 20l-27 310l-93 -236c-3 -7 -10 -13 -17 -14l-88 -15c-11 -3 -22 4 -25 15l-76 237l-60 -313c-3 -12 -15 -20 -27 -17l-207 49c-12 3 -19 14 -16 26l159 730c3 9 12 17 21 17l157 5c8 0 18 -7 21 -15l108 -314l130 313c3 8 13 15 22 14
l166 -17c9 -1 19 -9 20 -18l122 -740c3 -13 -6 -25 -21 -26zM905 13l-122 740l-166 17l-152 -368l-127 370l-157 -5l-159 -730l207 -49l76 400l103 -321l88 15l128 327l35 -407z" />
    <glyph glyph-name="n" unicode="n" horiz-adv-x="737" 
d="M681 -35l-124 -12c-7 -1 -17 3 -21 10l-207 320l44 -297c3 -12 -8 -24 -20 -25l-273 -31c-13 -1 -24 9 -24 22l-16 799c0 13 10 22 23 22l169 -6c5 0 14 -5 17 -9l167 -229l-33 241c-3 15 9 28 24 25l246 -28c11 -1 20 -10 20 -21l28 -758c0 -11 -9 -22 -20 -23zM671 -5
l-28 758l-246 28l45 -327l-219 299l-169 6l16 -799l273 31l-59 400l263 -408z" />
    <glyph glyph-name="o" unicode="o" horiz-adv-x="824" 
d="M408 -51c-219 0 -383 192 -383 416c0 228 166 425 386 425c224 0 388 -189 388 -422c0 -222 -171 -419 -391 -419zM400 -21c208 0 369 186 369 397c0 221 -155 400 -366 400c-207 0 -364 -187 -364 -403c0 -213 156 -394 361 -394zM405 188c-103 0 -150 74 -150 170
c0 92 62 175 153 175c83 0 138 -80 138 -172s-51 -173 -141 -173zM413 202c76 0 119 71 119 151c0 81 -44 150 -116 150c-77 0 -131 -72 -131 -153c0 -83 40 -148 128 -148z" />
    <glyph glyph-name="p" unicode="p" horiz-adv-x="646" 
d="M269 -47l-203 1c-12 0 -22 9 -22 21l-19 734c0 8 7 18 14 21c77 31 162 41 250 41c211 0 365 -90 365 -258c0 -188 -124 -317 -370 -336l7 -201c0 -13 -9 -23 -22 -23zM261 -17l-7 223c244 11 370 136 370 315c0 155 -146 236 -343 236c-87 0 -169 -10 -242 -39l19 -734z
M249 371l-5 179c23 8 51 12 78 12c85 0 124 -37 124 -80c0 -53 -62 -112 -171 -112c-8 0 -17 0 -26 1zM274 525l5 -141h4c95 0 149 47 149 90c0 31 -31 58 -102 58c-21 0 -39 -2 -56 -7z" />
    <glyph glyph-name="q" unicode="q" horiz-adv-x="825" 
d="M701 -46l-75 82c-64 -53 -144 -86 -219 -86c-211 0 -366 198 -366 422c0 220 154 415 371 415c200 0 369 -199 369 -410c0 -53 -10 -109 -25 -154l107 -70c11 -7 13 -21 5 -32l-134 -166c-9 -11 -24 -12 -33 -1zM709 -23l134 166l-122 80c19 49 30 102 30 162
c0 200 -159 388 -347 388c-204 0 -349 -185 -349 -393c0 -213 147 -400 344 -400c77 0 157 35 221 95zM383 337l78 -87c-16 -6 -32 -9 -48 -9c-87 0 -162 75 -162 178c0 85 65 163 150 163s160 -79 160 -186c0 -22 -4 -42 -11 -60l-109 72zM428 255l-53 59c-7 8 -8 21 -1 29
l58 71c7 8 20 11 29 4l85 -56c1 8 1 17 1 26c0 93 -63 164 -138 164c-73 0 -128 -66 -128 -141c0 -91 65 -156 140 -156c3 0 4 0 5 -1c0 -1 1 0 2 1z" />
    <glyph glyph-name="r" unicode="r" horiz-adv-x="681" 
d="M645 -8l-209 -32c-9 -1 -19 5 -23 13l-109 256c-8 -1 -8 -3 -23 -4l13 -244c1 -13 -9 -23 -22 -23h-211c-12 0 -22 10 -22 22l2 755c0 9 8 18 16 21c55 16 145 23 208 23c267 0 399 -133 399 -269c0 -84 -50 -169 -150 -225l147 -260c8 -15 0 -30 -16 -33zM634 22
l-159 280c107 51 159 133 159 216c0 125 -125 247 -377 247c-60 0 -152 -6 -202 -22l-2 -755h211l-14 265l60 8l115 -271zM244 392l-10 189c11 3 23 2 34 2c87 0 130 -44 130 -89c0 -50 -52 -102 -154 -102zM265 553l8 -146c75 7 111 42 111 79c0 35 -36 67 -108 67
c-11 0 0 3 -11 0z" />
    <glyph glyph-name="s" unicode="s" horiz-adv-x="727" 
d="M24 104l102 121c8 9 22 11 31 3c49 -43 101 -60 145 -60c64 0 114 26 114 69c0 19 -46 27 -103 38c-119 24 -277 54 -277 237c0 198 235 275 400 275c67 0 135 -12 203 -39c11 -5 16 -17 12 -28l-69 -177c-5 -13 -19 -18 -31 -11c-43 25 -90 35 -131 35
c-64 0 -116 -22 -116 -57c0 -19 47 -25 104 -36c124 -20 294 -56 294 -259c0 -158 -177 -267 -365 -267c-112 0 -227 38 -312 127c-7 8 -8 21 -1 29zM135 219l-102 -121c80 -84 189 -120 296 -120c177 0 343 100 343 245c0 299 -398 194 -398 295c0 48 62 79 138 79
c45 0 95 -11 142 -38l69 177c-64 27 -131 37 -195 37c-156 0 -378 -72 -378 -253c0 -265 380 -178 380 -275c0 -55 -60 -91 -136 -91c-49 0 -106 18 -159 65z" />
    <glyph glyph-name="t" unicode="t" horiz-adv-x="618" 
d="M409 -56l-210 21c-11 1 -20 11 -20 22l5 526l-141 -4c-11 0 -21 9 -22 20l-20 185c-1 13 8 23 21 24l579 36c13 1 23 -9 23 -22l1 -200c0 -12 -9 -22 -21 -22l-139 -7l-32 -558c-1 -13 -11 -22 -24 -21zM403 -26l33 579l159 7l-1 200l-579 -36l20 -185l163 4l-5 -548z
" />
    <glyph glyph-name="u" unicode="u" horiz-adv-x="748" 
d="M498 765l196 -2c11 0 21 -9 22 -20c7 -56 10 -115 10 -180c0 -344 -87 -623 -336 -623c-224 0 -362 317 -362 662c0 48 3 94 8 141c1 12 12 21 24 20l263 -22c13 -1 23 -12 20 -25c-5 -33 -9 -92 -9 -152c0 -191 22 -316 81 -316c61 0 85 96 85 248c0 80 -9 166 -24 243
c-3 15 7 26 22 26zM686 749l-196 2c15 -77 24 -164 24 -247c0 -165 -30 -270 -107 -270c-75 0 -103 134 -103 338c0 61 4 122 9 155l-263 22c-5 -47 -8 -92 -8 -139c0 -334 129 -640 340 -640c232 0 314 269 314 601c0 64 -3 122 -10 178z" />
    <glyph glyph-name="v" unicode="v" horiz-adv-x="684" 
d="M421 -32l-192 -4c-11 0 -18 5 -21 16l-207 708c-3 12 3 24 15 27l237 68c13 4 25 -3 28 -18l62 -409l103 418c3 12 15 19 27 16l214 -58c13 -3 19 -16 15 -28l-260 -721c-3 -7 -13 -15 -21 -15zM413 -2l260 721l-214 58l-129 -525l-79 518l-237 -68l207 -708z" />
    <glyph glyph-name="w" unicode="w" horiz-adv-x="912" 
d="M650 -62l-150 20c-7 1 -15 9 -18 16l-68 234l-68 -225c-3 -7 -11 -15 -18 -16l-156 -24c-12 -3 -22 6 -25 18l-138 761c-3 13 7 25 20 26l211 21c11 1 21 -8 24 -19l40 -261c15 64 32 127 47 190c3 9 12 17 21 17l119 -1c11 0 19 -7 22 -18l53 -256l97 331
c3 11 15 18 26 15l229 -57c13 -3 20 -15 16 -28l-260 -729c-3 -9 -13 -16 -24 -15zM645 -32l260 729l-229 57l-123 -417l-70 344l-119 1l-73 -299l-57 372l-211 -21l138 -761l156 24l90 296l88 -305z" />
    <glyph glyph-name="x" unicode="x" horiz-adv-x="807" 
d="M814 152l-197 -175c-9 -8 -23 -7 -31 1l-173 178c-47 -69 -98 -146 -143 -215c-7 -9 -18 -12 -29 -7l-245 137c-13 7 -16 23 -5 34l235 246l-237 253c-11 11 -8 26 4 34l185 114c8 5 21 3 28 -4l182 -189l161 237c7 9 19 13 28 8l221 -111c13 -7 16 -23 7 -34l-225 -277
l233 -197c11 -9 12 -24 1 -33zM791 176l-250 211l239 294l-221 111l-177 -260l-200 209l-185 -114l251 -268l-249 -261l245 -137l158 237l192 -197z" />
    <glyph glyph-name="y" unicode="y" horiz-adv-x="745" 
d="M518 -41l-261 5c-12 0 -22 11 -22 23l10 294c-88 113 -171 223 -259 336c-8 11 -6 24 5 31l204 139c11 7 23 5 30 -6l172 -256l127 248c5 9 17 15 28 11l198 -73c13 -5 18 -20 11 -32l-225 -396l4 -302c0 -12 -10 -22 -22 -22zM510 -11l-4 308l228 401l-198 73l-144 -282
l-193 288l-204 -139l264 -342l-10 -302z" />
    <glyph glyph-name="z" unicode="z" horiz-adv-x="749" 
d="M692 -27h-633c-12 0 -22 10 -22 22v154l313 370c-87 -7 -169 -12 -256 -17c-13 -1 -23 9 -23 22l4 216c0 12 9 22 21 22l523 16c7 0 18 -5 21 -12l72 -152c3 -7 2 -18 -2 -23l-287 -387l256 20c12 1 23 -9 24 -21l11 -207c1 -13 -9 -23 -22 -23zM684 3l-11 207l-305 -23
l316 425l-72 152l-523 -16l-4 -216l306 20l-340 -403v-146h633z" />
    <glyph glyph-name="braceleft" unicode="{" horiz-adv-x="549" 
d="M543 62l8 -143c0 -7 -6 -18 -13 -21c-72 -35 -121 -44 -170 -44c-127 0 -219 79 -219 209c0 19 1 37 2 56c1 16 2 29 2 44c0 63 -52 102 -140 109c-12 1 -21 12 -20 24l15 139c1 13 13 23 26 20c17 -3 29 -5 37 -5c52 0 76 34 76 85c0 11 0 20 -1 31c-1 12 -2 24 -2 39
c0 129 90 228 226 228c31 0 82 -2 134 -31c7 -3 11 -13 11 -20l-8 -126c-1 -17 -16 -26 -31 -19c-8 3 -38 14 -47 14c-43 0 -60 -47 -60 -84c0 -16 1 -31 2 -46v1c1 -15 2 -29 2 -42c-1 -51 -22 -94 -62 -118c55 -32 75 -84 75 -155c0 -15 -1 -27 -1 -39v-32
c0 -39 18 -76 61 -76c15 0 39 2 62 19c15 11 34 2 35 -17zM521 -74l-8 143c-28 -21 -56 -23 -75 -23c-58 0 -83 49 -83 98c0 21 1 44 1 71c0 81 -29 133 -118 157c67 4 104 53 105 116c0 27 -4 56 -4 87c0 48 23 106 82 106c12 0 47 -13 56 -16l8 126c-47 27 -95 28 -123 28
c-123 0 -204 -89 -204 -206c0 -25 3 -47 3 -70c0 -64 -30 -107 -98 -107c-11 0 -24 2 -41 5l-15 -139c100 -8 160 -55 160 -131c0 -29 -4 -64 -4 -100c0 -116 82 -187 197 -187c47 0 92 9 161 42z" />
    <glyph glyph-name="bar" unicode="|" horiz-adv-x="338" 
d="M274 -75l-190 -17c-13 -1 -24 8 -24 21l-37 945c0 13 11 24 24 23l248 -19c11 -1 20 -10 20 -22l-21 -909c0 -11 -9 -21 -20 -22zM264 -45l21 909l-248 19l37 -945z" />
    <glyph glyph-name="braceright" unicode="}" horiz-adv-x="549" 
d="M-7 -91l8 143c1 19 20 28 35 17c23 -17 47 -19 62 -19c43 0 61 37 61 76v32c0 12 -1 24 -1 39c0 71 20 123 75 155c-40 24 -61 67 -62 118c0 13 1 27 2 42v-1c1 15 2 30 2 46c0 37 -17 84 -60 84c-10 0 -38 -11 -47 -14c-15 -7 -30 2 -31 19l-8 126c0 7 4 17 11 20
c52 29 103 31 134 31c136 0 226 -99 226 -228c0 -15 -1 -27 -2 -39c-1 -11 -1 -20 -1 -31c0 -51 24 -85 76 -85c8 0 20 2 37 5c13 3 25 -7 26 -20l15 -139c1 -12 -8 -23 -20 -24c-88 -7 -140 -46 -140 -109c0 -15 1 -28 2 -44c1 -19 2 -37 2 -56c0 -130 -92 -209 -219 -209
c-49 0 -98 9 -170 44c-7 3 -13 13 -13 21zM15 59l-8 -143c69 -33 114 -42 161 -42c114 0 197 71 197 187c0 36 -4 71 -4 100c0 76 60 123 160 131l-15 139c-17 -3 -30 -5 -41 -5c-68 0 -98 43 -98 107c0 23 3 45 3 70c0 117 -81 206 -204 206c-28 0 -76 -1 -123 -28l8 -126
c9 3 43 16 56 16c59 0 82 -58 82 -106c0 -31 -4 -60 -4 -87c1 -63 38 -112 105 -116c-89 -24 -118 -76 -118 -157c0 -27 1 -50 1 -71c0 -49 -25 -98 -83 -98c-19 0 -47 2 -75 23z" />
    <glyph glyph-name="asciitilde" unicode="~" horiz-adv-x="609" 
d="M449 629l128 -36c8 -3 16 -12 16 -21c0 -120 -48 -263 -176 -263c-51 0 -99 25 -142 46c-28 15 -54 27 -67 27c-19 0 -31 -19 -44 -47c-5 -11 -18 -16 -29 -11l-105 48c-7 3 -13 13 -13 20c0 99 88 211 188 211c44 0 75 -22 106 -45c20 -15 39 -28 56 -28
c29 0 45 31 54 82c3 13 15 21 28 17zM563 580l-128 36c-11 -61 -33 -100 -76 -100c-51 0 -92 73 -162 73c-90 0 -166 -101 -166 -189l105 -48c17 36 33 60 64 60c45 0 129 -73 209 -73c111 0 154 131 154 241z" />
    <glyph glyph-name="uni00A0" unicode="&#xa0;" horiz-adv-x="400" 
 />
    <glyph glyph-name="exclamdown" unicode="&#xa1;" horiz-adv-x="371" 
d="M316 -104h-275c-15 0 -25 10 -22 25l60 491c1 12 12 20 24 19l188 -16c11 -1 19 -10 20 -21l27 -475c1 -13 -9 -23 -22 -23zM308 -74l-27 475l-188 16l-60 -491h275zM207 436c-68 0 -133 55 -133 134c0 66 51 132 128 132c71 0 133 -60 133 -132
c0 -69 -53 -134 -128 -134zM199 466c61 0 106 54 106 112c0 61 -52 110 -111 110c-64 0 -106 -55 -106 -110c0 -67 55 -112 111 -112z" />
    <glyph glyph-name="cent" unicode="&#xa2;" horiz-adv-x="556" 
d="M338 -14l-70 16c-9 3 -17 10 -17 21l-1 42c-131 43 -214 162 -214 294c0 124 67 254 206 308c0 19 -1 31 -1 50c0 11 8 19 19 22l101 17c15 3 25 -7 25 -22l-2 -43c37 -1 78 -9 122 -26c11 -4 17 -16 13 -27l-50 -144c-4 -13 -19 -19 -31 -12c-14 7 -30 11 -49 11
c-85 0 -125 -51 -125 -103c0 -78 49 -112 105 -112c27 0 56 6 83 21c13 7 27 3 31 -12l58 -185c4 -11 -3 -24 -14 -28c-55 -19 -107 -28 -158 -28h-3c-1 -13 -1 -27 -1 -39c0 -15 -12 -24 -27 -21zM335 15l2 62c8 -1 16 -1 24 -1c47 0 98 9 151 27l-58 185
c-31 -16 -62 -24 -93 -24c-68 0 -127 42 -127 134c0 64 47 125 147 125c19 0 40 -3 59 -14l50 144c-43 17 -84 24 -121 24c-5 0 -10 -1 -15 -1l2 66l-101 -17l1 -66c-138 -45 -206 -173 -206 -292c0 -130 83 -241 214 -278l1 -58z" />
    <glyph glyph-name="sterling" unicode="&#xa3;" horiz-adv-x="642" 
d="M594 -15l-560 -21c-12 0 -22 9 -23 21l-10 179c-1 12 9 22 21 23l67 6l-8 43c-19 0 -30 -2 -49 -2c-11 0 -21 9 -22 20l-12 131c-1 12 8 23 20 24l56 6c16 232 132 372 327 372c75 0 151 -31 219 -95c8 -8 10 -22 2 -31l-150 -171c-9 -11 -25 -10 -34 1
c-17 19 -36 32 -55 32c-29 0 -43 -37 -50 -86l202 19c13 1 24 -9 24 -22l2 -164c0 -12 -9 -22 -21 -22l-195 -5c3 -15 6 -27 11 -42l244 13c13 1 23 -10 23 -23l-8 -185c0 -11 -10 -21 -21 -21zM585 15l8 185l-261 -14c-8 21 -14 51 -21 86l220 6l-2 164l-228 -21
c3 72 26 132 74 132c27 0 51 -16 72 -40l150 171c-64 60 -135 89 -204 89c-187 0 -295 -143 -306 -371l-75 -7l12 -131l68 2c4 -28 10 -57 17 -86l-94 -7l10 -179z" />
    <glyph glyph-name="currency" unicode="&#xa4;" horiz-adv-x="681" 
d="M595 257l72 -230c4 -11 -3 -24 -14 -28c-68 -24 -134 -35 -195 -35c-204 0 -356 121 -398 285l-36 -2c-11 -1 -20 7 -23 18l-14 62c-3 15 6 25 21 26h8c-7 3 -11 9 -13 17l-13 65c-3 13 7 25 20 26l55 4c43 156 177 292 403 292c49 0 103 -8 159 -31c11 -4 17 -17 13 -28
l-62 -179c-4 -13 -19 -20 -31 -13c-21 11 -44 15 -64 15c-43 0 -82 -13 -107 -29c55 5 105 10 160 14c15 1 25 -8 24 -23l-5 -72c0 -11 -9 -20 -20 -21h-2c5 -5 7 -11 7 -18l-6 -75c-1 -11 -10 -19 -21 -20l-141 -9c24 -19 54 -25 86 -25c35 0 71 9 106 27c13 7 27 2 31 -13
zM638 28l-72 230c-37 -19 -77 -29 -116 -29c-56 0 -105 21 -133 66l187 12l6 75l-216 -19c-3 11 -2 21 -2 32v7l233 18l5 72l-217 -19c27 45 78 78 162 78c24 0 50 -5 74 -17l62 179c-55 21 -104 30 -151 30c-221 0 -349 -138 -386 -290l-70 -6l13 -65l46 3
c-1 -9 -1 -19 -1 -28v-13l-61 -5l14 -62l55 3c35 -163 180 -286 380 -286c59 0 121 11 188 34z" />
    <glyph glyph-name="yen" unicode="&#xa5;" horiz-adv-x="745" 
d="M718 134l-180 -4c0 -49 2 -100 2 -149c0 -12 -10 -22 -22 -22l-261 5c-12 0 -22 10 -22 22l5 138l-188 -4c-12 0 -21 9 -22 21l-11 160c-1 12 9 23 21 23l166 7c-66 85 -153 200 -220 286c-8 11 -6 24 5 31l204 139c11 7 23 5 30 -6l172 -256l127 248c5 9 17 15 28 11
l198 -73c13 -5 18 -20 11 -32l-188 -331l143 7c13 1 23 -9 23 -22l1 -177c0 -12 -10 -22 -22 -22zM710 164l-1 177l-183 -9l208 366l-198 73l-144 -282l-193 288l-204 -139l246 -319l-208 -9l11 -160l210 4l-5 -160l261 -5l-2 171z" />
    <glyph glyph-name="brokenbar" unicode="&#xa6;" horiz-adv-x="338" 
d="M315 877l-14 -411c0 -12 -10 -21 -22 -21h-213c-12 0 -21 9 -22 21l-21 400c-1 12 9 23 21 23l248 11c13 0 23 -10 23 -23zM69 343l210 -17c11 -1 20 -11 20 -22l4 -363c0 -12 -9 -22 -21 -22l-216 -10c-13 -1 -23 9 -23 22l2 390c0 13 11 23 24 22zM285 886l-248 -11
l21 -400h213zM59 329l-2 -390l216 10l-4 363z" />
    <glyph glyph-name="dieresis" unicode="&#xa8;" horiz-adv-x="476" 
d="M141 783c-51 0 -91 42 -91 93s40 93 91 93c49 0 90 -42 90 -93s-41 -93 -90 -93zM336 783c-51 0 -91 42 -91 93s40 93 91 93c49 0 90 -42 90 -93s-41 -93 -90 -93zM133 813c37 0 68 32 68 71s-31 71 -68 71c-39 0 -69 -32 -69 -71s30 -71 69 -71zM328 813
c37 0 68 32 68 71s-31 71 -68 71c-39 0 -69 -32 -69 -71s30 -71 69 -71z" />
    <glyph glyph-name="copyright" unicode="&#xa9;" horiz-adv-x="856" 
d="M428 -30c-254 0 -403 192 -403 421c0 225 178 392 390 392c220 0 416 -154 416 -399c0 -214 -144 -414 -403 -414zM420 0c245 0 381 188 381 392c0 232 -186 377 -394 377c-200 0 -368 -158 -368 -370c0 -219 141 -399 381 -399zM426 88c-168 0 -278 124 -278 304
c0 148 89 290 280 290c155 0 254 -129 254 -314c0 -136 -89 -280 -256 -280zM565 181l-44 141c-23 -11 -48 -18 -72 -18c-52 0 -96 31 -96 102c0 49 35 96 112 96c15 0 30 -3 45 -11l38 110c-33 13 -64 18 -92 18c-164 0 -244 -123 -244 -236c0 -123 97 -223 237 -223
c36 0 75 7 116 21zM550 321l44 -142c1 -4 1 -8 0 -11c49 51 74 121 74 192c0 104 -32 190 -91 241c2 -5 2 -10 0 -15l-38 -110c-4 -13 -18 -19 -31 -12c-10 5 -22 8 -35 8c-63 0 -90 -35 -90 -74c0 -56 34 -80 74 -80c21 0 42 5 63 16c13 7 26 0 30 -13zM434 102
c57 0 104 17 141 48c-41 -15 -81 -20 -118 -20c-153 0 -259 112 -259 245c0 124 87 258 266 258c28 0 60 -6 95 -18c-36 25 -77 37 -123 37c-176 0 -258 -133 -258 -268c0 -167 100 -282 256 -282z" />
    <glyph glyph-name="ordfeminine" unicode="&#xaa;" horiz-adv-x="491" 
d="M453 260l-129 -6c-11 0 -19 6 -22 17l-22 85c-27 -1 -40 -3 -71 -4l-13 -70c-3 -9 -10 -18 -21 -18l-127 -7c-16 -1 -26 13 -22 28l113 418c3 8 12 15 20 16l143 11c9 1 19 -7 22 -15l149 -426c5 -15 -4 -28 -20 -29zM444 290l-149 426l-143 -11l-113 -418l127 7l16 88
l107 4l26 -102zM419 88l-337 -16c-12 -1 -22 8 -23 20l-14 129c-1 13 9 24 22 24l357 -1c13 0 23 -10 22 -23l-6 -112c-1 -13 -8 -20 -21 -21zM410 118l6 112l-357 1l14 -129zM270 459h-73l32 130zM248 473l-9 30l-7 -30h16z" />
    <glyph glyph-name="guillemotleft" unicode="&#xab;" horiz-adv-x="659" 
d="M422 202l-103 -101c-8 -8 -22 -8 -30 0l-267 257c-8 8 -9 22 -1 31l253 282c9 11 23 11 32 0l107 -111c8 -8 8 -22 0 -30l-143 -150c51 -48 101 -98 152 -146c9 -9 9 -23 0 -32zM638 261l-103 -101c-8 -8 -22 -8 -30 0l-204 198c-8 8 -9 22 -1 31l195 221
c9 11 23 11 32 0l107 -111c8 -8 8 -22 0 -30l-87 -89l91 -87c9 -9 9 -23 0 -32zM399 226l-169 161l159 166l-107 111l-253 -282l267 -257zM615 285l-106 102l101 105l-107 111l-195 -221l204 -198z" />
    <glyph glyph-name="logicalnot" unicode="&#xac;" horiz-adv-x="558" 
d="M42 409l466 7c13 0 23 -10 22 -23l-18 -295c-1 -11 -11 -21 -22 -21l-122 -1c-12 0 -22 10 -22 22l1 132l-300 -8c-12 0 -23 10 -23 22l-4 143c0 12 10 22 22 22zM34 395l4 -143l323 9l-1 -155l122 1l18 295z" />
    <glyph glyph-name="uni00AD" unicode="&#xad;" horiz-adv-x="448" 
d="M392 224l-327 -16c-12 -1 -22 8 -23 20l-14 159c-1 11 8 21 19 24l325 46c13 3 24 -7 25 -20l16 -189c1 -12 -9 -23 -21 -24zM383 254l-16 189l-325 -46l14 -159z" />
    <glyph glyph-name="registered" unicode="&#xae;" horiz-adv-x="856" 
d="M428 -30c-254 0 -403 192 -403 421c0 225 178 392 390 392c220 0 416 -154 416 -399c0 -214 -144 -414 -403 -414zM420 0c245 0 381 188 381 392c0 232 -186 377 -394 377c-200 0 -368 -158 -368 -370c0 -219 141 -399 381 -399zM426 88c-168 0 -278 124 -278 304
c0 148 89 290 280 290c155 0 254 -129 254 -314c0 -136 -89 -280 -256 -280zM627 230l-105 139c51 35 79 73 79 120c0 91 -98 124 -205 124c-43 0 -85 -4 -124 -13l11 -431l123 20l-13 117c15 5 31 11 47 20l68 -158zM178 384c0 -96 32 -174 91 -225v2l-11 426
c-55 -51 -80 -127 -80 -203zM436 652c-55 0 -100 -13 -136 -34c34 6 69 9 104 9c117 0 227 -40 227 -146c0 -48 -27 -89 -70 -124l84 -112c15 37 23 75 23 115c0 172 -91 292 -232 292zM434 102c76 0 133 32 173 80l-81 -42c-12 -7 -25 -1 -30 11l-59 136
c-5 -3 -9 -4 -12 -5c4 -33 8 -66 11 -99c1 -12 -8 -21 -19 -24l-121 -20c40 -25 86 -37 138 -37zM381 405l-13 102c17 5 40 11 63 11c29 0 53 -10 53 -42c0 -36 -46 -62 -103 -71zM400 483l9 -60c36 9 61 25 61 45c0 15 -14 20 -31 20c-13 0 -26 -2 -39 -5z" />
    <glyph glyph-name="overscore" unicode="&#xaf;" horiz-adv-x="570" 
d="M490 795l-413 -17c-12 0 -23 10 -23 22l-4 146c0 12 10 22 22 22l426 7c13 0 23 -10 22 -23l-9 -136c-1 -11 -10 -21 -21 -21zM481 825l9 136l-426 -7l4 -146z" />
    <glyph glyph-name="degree" unicode="&#xb0;" horiz-adv-x="469" 
d="M234 361c-132 0 -209 98 -209 218c0 117 93 204 203 204c115 0 216 -80 216 -208c0 -111 -75 -214 -210 -214zM226 391c120 0 188 92 188 192c0 115 -93 186 -194 186c-99 0 -181 -78 -181 -182c0 -108 69 -196 187 -196zM227 508c-47 0 -79 36 -79 87c0 41 25 81 80 81
c44 0 72 -36 72 -88c0 -39 -25 -80 -73 -80zM235 522c35 0 51 30 51 58c0 39 -19 66 -50 66c-39 0 -58 -28 -58 -59c0 -39 22 -65 57 -65z" />
    <glyph glyph-name="plusminus" unicode="&#xb1;" horiz-adv-x="507" 
d="M364 228l-182 -1c-11 0 -21 9 -22 20l-7 105c-36 -1 -72 -4 -108 -5c-12 0 -23 10 -23 22l-4 133c0 12 10 22 22 22l103 2l-6 103c-1 12 8 22 20 23l201 15c13 1 24 -9 24 -22l1 -115c28 0 55 1 83 1c13 0 23 -11 22 -24l-9 -123c-1 -11 -10 -20 -21 -20l-73 -4
c0 -37 1 -73 1 -110c0 -12 -10 -22 -22 -22zM356 258l-1 132l94 4l9 123l-105 -1l-1 137l-201 -15l7 -126l-126 -2l4 -133l129 5l9 -125zM463 56l-413 -17c-12 0 -23 10 -23 22l-4 133c0 12 10 22 22 22l426 7c13 0 23 -11 22 -24l-9 -123c-1 -11 -10 -20 -21 -20zM454 86
l9 123l-426 -7l4 -133z" />
    <glyph glyph-name="twosuperior" unicode="&#xb2;" horiz-adv-x="459" 
d="M389 238l-309 21c-9 1 -16 9 -19 17l-28 119c-3 11 3 23 14 26c68 22 156 75 156 117c0 23 -26 30 -55 30c-25 0 -52 -6 -68 -11c-15 -5 -28 4 -29 19l-16 207c-1 13 9 24 22 24h32c185 0 344 -51 344 -175c0 -104 -60 -148 -143 -188l106 -8c11 -1 20 -11 20 -22
l-4 -154c0 -13 -10 -23 -23 -22zM382 268l4 154l-195 15c119 48 212 83 212 203c0 108 -149 153 -322 153h-32l16 -207c19 7 47 12 75 12c40 0 77 -12 77 -52c0 -53 -97 -114 -171 -138l28 -119z" />
    <glyph glyph-name="threesuperior" unicode="&#xb3;" horiz-adv-x="479" 
d="M12 313l46 130c7 16 24 21 36 9c28 -27 79 -47 116 -47c16 0 29 5 29 17c0 16 -36 33 -97 45c-11 3 -18 11 -18 22l-1 71c0 12 10 22 22 22c44 0 94 10 94 33c0 7 -16 8 -36 8c-50 0 -112 -19 -129 -27c-16 -9 -33 0 -33 19l-2 167c0 11 8 21 19 22c31 4 62 5 94 5
c182 0 315 -67 315 -167c0 -60 -43 -102 -108 -127c47 -36 71 -78 71 -125c0 -103 -129 -143 -221 -143c-71 0 -122 8 -185 39c-11 5 -16 16 -12 27zM71 444l-46 -130c60 -28 108 -37 176 -37c83 0 199 33 199 121c0 51 -40 101 -100 132c80 21 137 59 137 120
c0 87 -124 145 -293 145c-31 0 -60 -1 -91 -5l2 -167c16 10 89 30 140 30c32 0 58 -7 58 -30c0 -39 -61 -55 -116 -55l1 -71c72 -15 115 -40 115 -67c0 -28 -22 -39 -51 -39c-43 0 -98 23 -131 53z" />
    <glyph glyph-name="acute" unicode="&#xb4;" horiz-adv-x="394" 
d="M148 776l-84 35c-13 5 -18 19 -11 31l102 181c5 8 17 13 26 10l148 -48c17 -5 21 -23 9 -36l-166 -168c-5 -5 -17 -8 -24 -5zM148 804l166 168l-148 48l-102 -181z" />
    <glyph glyph-name="paragraph" unicode="&#xb6;" horiz-adv-x="642" 
d="M393 -87l-133 -6c-13 -1 -23 9 -23 22l7 320c-141 35 -216 175 -216 306c0 139 82 271 250 271c41 0 88 -7 140 -26c8 -3 15 -13 15 -21l-19 -844c0 -11 -10 -21 -21 -22zM384 -57l19 844c-51 19 -94 25 -133 25c-154 0 -228 -121 -228 -249c0 -129 75 -261 216 -288
l-7 -338zM573 -81l-124 -6c-13 -1 -23 9 -23 22l15 828c0 16 14 26 29 21l120 -41c8 -3 15 -12 15 -21l-11 -781c0 -11 -10 -21 -21 -22zM564 -51l11 781l-120 41l-15 -828z" />
    <glyph glyph-name="middot" unicode="&#xb7;" horiz-adv-x="361" 
d="M181 241c-67 0 -131 56 -131 132c0 71 57 134 130 134c67 0 131 -56 131 -133c0 -68 -53 -133 -130 -133zM173 271c64 0 108 55 108 111c0 64 -53 111 -109 111c-60 0 -108 -52 -108 -112c0 -64 53 -110 109 -110z" />
    <glyph glyph-name="cedilla" unicode="&#xb8;" horiz-adv-x="588" 
d="M196 -251l23 97c3 13 16 21 29 16c11 -5 25 -7 44 -7c11 0 18 2 18 10c0 20 -46 30 -86 35c-13 3 -21 15 -17 28l28 96c3 9 12 17 23 16l105 -10c15 -1 24 -14 19 -29l-8 -25c51 -11 139 -41 139 -132c0 -96 -66 -151 -159 -151c-56 0 -114 19 -145 30
c-11 4 -16 15 -13 26zM232 -151l-23 -97c29 -11 85 -29 137 -29c80 0 137 46 137 129c0 91 -113 110 -146 115l16 49l-105 10l-28 -96c48 -8 104 -18 104 -57c0 -24 -17 -32 -40 -32c-24 0 -41 4 -52 8z" />
    <glyph glyph-name="onesuperior" unicode="&#xb9;" horiz-adv-x="338" 
d="M277 254l-132 4c-11 0 -21 9 -22 20l-27 249l-42 -17c-15 -7 -30 3 -30 19l-5 122l84 139c4 7 15 11 22 10l172 -28c11 -3 19 -12 19 -23l-16 -474c0 -12 -11 -21 -23 -21zM270 284l16 474l-172 28l-81 -134l5 -114l70 28l29 -278z" />
    <glyph glyph-name="ordmasculine" unicode="&#xba;" horiz-adv-x="496" 
d="M252 283c-132 0 -209 98 -209 218c0 117 93 204 203 204c115 0 216 -80 216 -208c0 -111 -75 -214 -210 -214zM244 313c120 0 188 92 188 192c0 115 -93 186 -194 186c-99 0 -181 -78 -181 -182c0 -108 69 -196 187 -196zM434 98l-327 -16c-11 -1 -22 9 -23 20l-14 119
c-1 12 7 21 19 24l325 46c12 3 24 -7 25 -20l16 -149c1 -13 -8 -23 -21 -24zM425 128l-16 149l-325 -46l14 -119zM245 449c-37 0 -62 28 -62 68c0 31 21 61 62 61c35 0 56 -27 56 -67c0 -31 -20 -62 -56 -62zM253 463c23 0 34 21 34 40c0 27 -13 45 -34 45
c-27 0 -40 -19 -40 -39c0 -27 16 -46 40 -46z" />
    <glyph glyph-name="guillemotright" unicode="&#xbb;" horiz-adv-x="659" 
d="M638 358l-267 -257c-8 -8 -22 -8 -30 0l-103 101c-9 9 -9 23 0 32l152 146l-143 150c-8 8 -8 22 0 30l107 111c9 11 23 11 32 0l253 -282c8 -9 7 -23 -1 -31zM359 358l-204 -198c-8 -8 -22 -8 -30 0l-103 101c-9 9 -9 23 0 32l91 87c-29 31 -59 58 -87 89
c-8 8 -8 22 0 30l107 111c9 11 23 11 32 0l195 -221c8 -9 7 -23 -1 -31zM615 382l-253 282l-107 -111l159 -166l-169 -161l103 -101zM336 382l-195 221l-107 -111l101 -105l-106 -102l103 -101z" />
    <glyph glyph-name="onequarter" unicode="&#xbc;" horiz-adv-x="1009" 
d="M307 -70l-123 91c-9 7 -13 20 -6 29l444 753c7 11 20 15 31 8l128 -79c11 -7 14 -19 7 -30l-449 -765c-7 -12 -21 -15 -32 -7zM951 -36l-151 -20c-13 -3 -24 7 -25 20l-9 87l-177 7l-54 54c-5 5 -7 18 -4 25l142 325c3 5 11 12 16 13l164 34c12 3 23 -6 26 -18l53 -305
l45 -3c13 -1 24 -12 21 -25l-13 -94c-1 -11 -11 -19 -22 -19h-7l13 -53c3 -13 -3 -25 -18 -28zM312 -44l449 765l-128 79l-444 -753zM940 -6l-21 83l36 -2l13 94l-63 4l-56 322l-164 -34l-142 -325l48 -48l188 -7l10 -107zM280 254l-132 4c-11 0 -21 9 -22 20l-27 249
l-42 -17c-15 -7 -30 3 -30 19l-5 122l84 139c4 7 15 11 22 10l172 -28c11 -3 19 -12 19 -23l-16 -474c0 -12 -11 -21 -23 -21zM273 284l16 474l-172 28l-81 -134l5 -114l70 28l29 -278zM771 181l-113 6l104 150zM756 197l-4 67c-15 -21 -25 -34 -46 -65z" />
    <glyph glyph-name="onehalf" unicode="&#xbd;" horiz-adv-x="1063" 
d="M994 -81l-309 21c-9 1 -16 9 -19 17l-28 119c-3 11 3 23 14 26c68 22 156 75 156 117c0 23 -26 30 -55 30c-25 0 -52 -6 -68 -11c-15 -5 -28 4 -29 19l-15 194l-302 -514c-7 -12 -21 -15 -32 -7l-123 91c-9 7 -13 20 -6 29l444 753c7 11 20 15 31 8l128 -79
c11 -7 14 -19 7 -30l-126 -214h32c185 0 344 -51 344 -175c0 -104 -60 -148 -143 -188l106 -8c11 -1 20 -11 20 -22l-4 -154c0 -13 -10 -23 -23 -22zM312 -44l449 765l-128 79l-444 -753zM987 -51l4 154l-195 15c119 48 212 83 212 203c0 108 -149 153 -322 153h-32l16 -207
c19 7 47 12 75 12c40 0 77 -12 77 -52c0 -53 -97 -114 -171 -138l28 -119zM280 254l-132 4c-11 0 -21 9 -22 20l-27 249l-42 -17c-15 -7 -30 3 -30 19l-5 122l84 139c4 7 15 11 22 10l172 -28c11 -3 19 -12 19 -23l-16 -474c0 -12 -11 -21 -23 -21zM273 284l16 474l-172 28
l-81 -134l5 -114l70 28l29 -278z" />
    <glyph glyph-name="threequarters" unicode="&#xbe;" horiz-adv-x="1089" 
d="M9 314l46 130c7 16 24 21 36 9c28 -27 79 -47 116 -47c16 0 29 5 29 17c0 16 -36 33 -97 45c-11 3 -18 11 -18 22l-1 71c0 12 10 22 22 22c44 0 94 10 94 33c0 7 -16 8 -36 8c-50 0 -112 -19 -129 -27c-16 -9 -33 0 -33 19l-2 167c0 11 8 21 19 22c31 4 62 5 94 5
c182 0 315 -67 315 -167c0 -60 -43 -102 -108 -127c47 -36 71 -78 71 -125c0 -103 -129 -143 -221 -143c-71 0 -122 8 -185 39c-11 5 -16 16 -12 27zM387 -70l-123 91c-9 7 -13 20 -6 29l444 753c7 11 20 15 31 8l128 -79c11 -7 14 -19 7 -30l-449 -765
c-7 -12 -21 -15 -32 -7zM1031 -36l-151 -20c-13 -3 -24 7 -25 20l-9 87l-177 7l-54 54c-5 5 -7 18 -4 25l142 325c3 5 11 12 16 13l164 34c12 3 23 -6 26 -18l53 -305l45 -3c13 -1 24 -12 21 -25l-13 -94c-1 -11 -11 -19 -22 -19h-7l13 -53c3 -13 -3 -25 -18 -28zM392 -44
l449 765l-128 79l-444 -753zM68 445l-46 -130c60 -28 108 -37 176 -37c83 0 199 33 199 121c0 51 -40 101 -100 132c80 21 137 59 137 120c0 87 -124 145 -293 145c-31 0 -60 -1 -91 -5l2 -167c16 10 89 30 140 30c32 0 58 -7 58 -30c0 -39 -61 -55 -116 -55l1 -71
c72 -15 115 -40 115 -67c0 -28 -22 -39 -51 -39c-43 0 -98 23 -131 53zM1020 -6l-21 83l36 -2l13 94l-63 4l-56 322l-164 -34l-142 -325l48 -48l188 -7l10 -107zM851 181l-113 6l104 150zM836 197l-4 67c-15 -21 -25 -34 -46 -65z" />
    <glyph glyph-name="questiondown" unicode="&#xbf;" horiz-adv-x="585" 
d="M542 67l10 -192c0 -11 -7 -20 -18 -23c-44 -8 -92 -12 -143 -12c-203 0 -374 74 -374 220c0 144 134 191 224 220c5 1 9 3 12 4c-3 4 -4 8 -4 12l-7 77c-1 7 3 18 10 21c40 25 82 39 122 44c-53 15 -96 64 -96 128c0 68 53 133 130 133c67 0 131 -56 131 -132
c0 -60 -41 -114 -97 -130c72 -11 122 -51 122 -107c0 -93 -83 -115 -160 -136c-48 -13 -94 -25 -94 -54c0 -33 40 -63 119 -63c27 0 55 3 86 10c15 3 26 -5 27 -20zM522 -118l-10 192c-35 -8 -64 -11 -91 -11c-93 0 -141 41 -141 85c0 97 254 50 254 190
c0 51 -59 88 -134 88c-45 0 -96 -12 -144 -43l7 -77c7 8 22 14 33 14s17 -4 17 -13c0 -49 -282 -42 -282 -239c0 -131 160 -198 352 -198c49 0 95 4 139 12zM401 463c60 0 108 52 108 112c0 64 -53 110 -109 110c-64 0 -108 -55 -108 -111c0 -64 53 -111 109 -111z" />
    <glyph glyph-name="Agrave" unicode="&#xc0;" 
d="M464 840l-53 -53l72 6c9 1 20 -6 23 -15l269 -771c5 -15 -4 -28 -20 -29l-233 -10c-11 0 -19 8 -22 17l-43 166c-56 -3 -100 -4 -157 -7l-27 -141c-3 -9 -12 -18 -21 -18l-229 -12c-16 -1 -26 13 -22 28l205 755c3 8 11 15 19 16l138 11l-167 89c-13 7 -18 22 -7 33
l100 114c9 11 24 12 33 1l142 -149c8 -9 8 -23 0 -31zM746 8l-269 771l-258 -21l-205 -755l229 12l30 159l193 7l47 -183zM440 864l-142 149l-100 -114l181 -96zM431 313h-131l57 236zM410 327l-43 133c-11 -45 -18 -81 -31 -133h74z" />
    <glyph glyph-name="Aacute" unicode="&#xc1;" 
d="M755 -22l-233 -10c-11 0 -19 8 -22 17l-43 166c-56 -3 -100 -4 -157 -7l-27 -141c-3 -9 -12 -18 -21 -18l-229 -12c-16 -1 -26 13 -22 28l205 755c3 8 11 15 19 16l127 10l-68 29c-13 5 -18 19 -11 31l102 181c5 8 17 13 26 10l148 -48c17 -5 21 -23 9 -36l-161 -163
l86 7c9 1 20 -6 23 -15l269 -771c5 -15 -4 -28 -20 -29zM746 8l-269 771l-258 -21l-205 -755l229 12l30 159l193 7l47 -183zM368 804l166 168l-148 48l-102 -181zM431 313h-131l57 236zM410 327l-43 133c-11 -45 -18 -81 -31 -133h74z" />
    <glyph glyph-name="Acircumflex" unicode="&#xc2;" 
d="M543 824l-98 -34l38 3c9 1 20 -6 23 -15l269 -771c5 -15 -4 -28 -20 -29l-233 -10c-11 0 -19 8 -22 17l-43 166c-56 -3 -100 -4 -157 -7l-27 -141c-3 -9 -12 -18 -21 -18l-229 -12c-16 -1 -26 13 -22 28l205 755c3 8 11 15 19 16l180 14c-3 3 -5 7 -6 10l-31 77l-44 -80
c-4 -8 -15 -13 -24 -10l-107 28c-15 4 -22 20 -14 33l121 192c3 5 13 10 20 10l103 -4c5 0 14 -6 17 -10l114 -175c8 -13 4 -28 -11 -33zM746 8l-269 771l-258 -21l-205 -755l229 12l30 159l193 7l47 -183zM528 853l-114 175l-103 4l-121 -192l107 -28l66 120l48 -120z
M431 313h-131l57 236zM410 327l-43 133c-11 -45 -18 -81 -31 -133h74z" />
    <glyph glyph-name="Atilde" unicode="&#xc3;" 
d="M288 790l-98 13c-11 1 -19 11 -19 22c0 50 4 191 97 191c45 0 64 -24 80 -45v1c9 -11 17 -22 29 -22c3 0 5 8 5 25v9c0 3 -1 7 -1 11c0 13 11 23 24 22l122 -14c11 -1 19 -9 20 -20c1 -9 2 -19 2 -34c0 -53 -11 -127 -61 -156c9 -2 15 -7 18 -15l269 -771
c5 -15 -4 -28 -20 -29l-233 -10c-11 0 -19 8 -22 17l-43 166c-56 -3 -100 -4 -157 -7l-27 -141c-3 -9 -12 -18 -21 -18l-229 -12c-16 -1 -26 13 -22 28l205 755c3 8 11 15 19 16l163 13c-24 9 -38 25 -50 40c-5 5 -15 15 -18 15c-5 0 -7 -9 -7 -28c0 -15 -10 -25 -25 -22z
M746 8l-269 771l-258 -21l-205 -755l229 12l30 159l193 7l47 -183zM185 833l98 -13c0 33 10 50 29 50c35 0 38 -62 111 -62c81 0 96 88 96 149c0 12 -1 23 -2 32l-122 14c0 -7 1 -13 1 -20c0 -28 -3 -47 -27 -47c-51 0 -42 66 -109 66c-72 0 -75 -125 -75 -169zM431 313
h-131l57 236zM410 327l-43 133c-11 -45 -18 -81 -31 -133h74z" />
    <glyph glyph-name="Adieresis" unicode="&#xc4;" 
d="M755 -22l-233 -10c-11 0 -19 8 -22 17l-43 166c-56 -3 -100 -4 -157 -7l-27 -141c-3 -9 -12 -18 -21 -18l-229 -12c-16 -1 -26 13 -22 28l205 755c3 8 11 15 19 16l206 17c-35 13 -59 47 -59 87c0 51 40 93 91 93c49 0 90 -42 90 -93c0 -39 -24 -71 -57 -86
c5 -3 7 -8 10 -12l269 -771c5 -15 -4 -28 -20 -29zM746 8l-269 771l-258 -21l-205 -755l229 12l30 159l193 7l47 -183zM268 783c-51 0 -91 42 -91 93s40 93 91 93c49 0 90 -42 90 -93s-41 -93 -90 -93zM431 313h-131l57 236zM455 813c37 0 68 32 68 71s-31 71 -68 71
c-39 0 -69 -32 -69 -71s30 -71 69 -71zM260 813c37 0 68 32 68 71s-31 71 -68 71c-39 0 -69 -32 -69 -71s30 -71 69 -71zM410 327l-43 133c-11 -45 -18 -81 -31 -133h74z" />
    <glyph glyph-name="Aring" unicode="&#xc5;" 
d="M520 924c0 -61 -40 -113 -96 -136l59 5c9 1 20 -6 23 -15l269 -771c5 -15 -4 -28 -20 -29l-233 -10c-11 0 -19 8 -22 17l-43 166c-56 -3 -100 -4 -157 -7l-27 -141c-3 -9 -12 -18 -21 -18l-229 -12c-16 -1 -26 13 -22 28l205 755c3 8 11 15 19 16l106 8
c-69 16 -121 73 -121 144c0 83 71 148 155 148s155 -65 155 -148zM746 8l-269 771l-258 -21l-205 -755l229 12l30 159l193 7l47 -183zM490 932c0 69 -60 126 -133 126s-133 -57 -133 -126c0 -68 60 -125 133 -125s133 57 133 125zM431 313h-131l57 236zM410 327l-43 133
c-11 -45 -18 -81 -31 -133h74zM362 892c-19 0 -34 16 -34 37c0 20 15 37 34 37s34 -17 34 -37c0 -21 -15 -37 -34 -37z" />
    <glyph glyph-name="AE" unicode="&#xc6;" horiz-adv-x="1029" 
d="M989 -27l-481 7c-11 0 -21 9 -22 20l-13 167l-155 -7l-79 -199c-4 -11 -16 -16 -27 -13l-197 64c-13 4 -20 19 -13 31l350 721c3 7 12 12 19 12l550 36c12 1 22 -8 23 -20l13 -173c1 -12 -8 -23 -20 -24l-253 -30c3 -20 3 -32 6 -59l193 15c12 1 23 -8 24 -20l16 -159
c1 -12 -8 -23 -20 -24l-184 -16c4 -21 7 -37 11 -64l243 25c13 1 23 -8 24 -21l14 -246c1 -13 -9 -23 -22 -23zM981 3l-14 246l-264 -27l-18 108l208 18l-16 159l-215 -16l-10 102l275 32l-13 173l-550 -36l-350 -721l197 -64l84 213l190 7l15 -187zM475 329h-127l108 246z
M460 343l-11 135l-59 -135h70z" />
    <glyph glyph-name="Ccedilla" unicode="&#xc7;" horiz-adv-x="639" 
d="M222 -259l23 97c3 13 16 21 29 16c11 -5 25 -7 44 -7c11 0 18 2 18 10c0 20 -46 30 -86 35c-15 3 -21 15 -17 28l21 72c-153 59 -248 197 -248 357c0 194 138 408 420 408c49 0 103 -8 159 -31c11 -4 17 -17 13 -28l-62 -179c-4 -13 -19 -20 -31 -13
c-21 11 -44 15 -64 15c-111 0 -161 -66 -161 -134c0 -100 63 -144 136 -144c35 0 71 9 106 27c13 7 27 2 31 -13l72 -230c4 -11 -3 -24 -14 -28c-67 -23 -132 -34 -192 -35c51 -13 120 -47 120 -128c0 -96 -66 -151 -159 -151c-56 0 -114 19 -145 30c-11 4 -16 15 -13 26z
M258 -159l-23 -97c29 -11 85 -29 137 -29c80 0 137 46 137 129c0 91 -113 110 -146 115l11 36c11 -1 22 -1 34 -1c59 0 121 11 188 34l-72 230c-37 -19 -77 -29 -116 -29c-85 0 -158 51 -158 166c0 79 58 156 183 156c24 0 50 -5 74 -17l62 179c-55 21 -104 30 -151 30
c-268 0 -398 -202 -398 -386c0 -158 98 -292 253 -343l-27 -92c48 -8 104 -18 104 -57c0 -24 -17 -32 -40 -32c-24 0 -41 4 -52 8z" />
    <glyph glyph-name="Egrave" unicode="&#xc8;" horiz-adv-x="627" 
d="M400 842l-50 -50l167 20c13 1 24 -7 25 -20l13 -173c1 -12 -8 -23 -20 -24l-253 -30c3 -20 3 -32 6 -59l193 15c12 1 23 -8 24 -20l16 -159c1 -12 -8 -23 -20 -24l-187 -16c3 -21 4 -37 8 -64l249 25c13 1 23 -8 24 -21l14 -246c1 -13 -9 -23 -22 -23l-481 7
c-11 0 -21 9 -22 20l-57 732c-1 12 7 23 19 24l252 30l-166 88c-13 7 -18 22 -7 33l100 114c9 11 24 12 33 1l142 -149c8 -9 8 -23 0 -31zM579 3l-14 246l-270 -27l-15 108l211 18l-16 159l-215 -16l-10 102l275 32l-13 173l-471 -56l57 -732zM376 866l-142 149l-100 -114
l181 -96z" />
    <glyph glyph-name="Eacute" unicode="&#xc9;" horiz-adv-x="627" 
d="M587 -27l-481 7c-11 0 -21 9 -22 20l-57 732c-1 12 7 23 19 24l207 24l-73 31c-13 5 -18 19 -11 31l102 181c5 8 17 13 26 10l148 -48c17 -5 21 -23 9 -36l-162 -164l225 27c13 1 24 -7 25 -20l13 -173c1 -12 -8 -23 -20 -24l-253 -30c3 -20 3 -32 6 -59l193 15
c12 1 23 -8 24 -20l16 -159c1 -12 -8 -23 -20 -24l-187 -16c3 -21 4 -37 8 -64l249 25c13 1 23 -8 24 -21l14 -246c1 -13 -9 -23 -22 -23zM579 3l-14 246l-270 -27l-15 108l211 18l-16 159l-215 -16l-10 102l275 32l-13 173l-471 -56l57 -732zM264 804l166 168l-148 48
l-102 -181z" />
    <glyph glyph-name="Ecircumflex" unicode="&#xca;" horiz-adv-x="627" 
d="M587 -27l-481 7c-11 0 -21 9 -22 20l-57 732c-1 12 7 23 19 24l171 20l-96 18c-16 3 -22 17 -15 32l105 201c3 7 11 12 18 12l103 4c5 0 15 -5 18 -9l128 -165c9 -12 7 -26 -8 -33l-91 -40l138 16c13 1 24 -7 25 -20l13 -173c1 -12 -8 -23 -20 -24l-253 -30
c3 -20 3 -32 6 -59l193 15c12 1 23 -8 24 -20l16 -159c1 -12 -8 -23 -20 -24l-187 -16c3 -21 4 -37 8 -64l249 25c13 1 23 -8 24 -21l14 -246c1 -13 -9 -23 -22 -23zM579 3l-14 246l-270 -27l-15 108l211 18l-16 159l-215 -16l-10 102l275 32l-13 173l-471 -56l57 -732z
M453 864l-128 165l-103 -4l-105 -201l109 -20l56 125l58 -115zM254 787c-1 -2 -2 -4 -5 -7l83 10c-1 1 -3 3 -4 6l-37 72c-13 -29 -25 -53 -37 -81z" />
    <glyph glyph-name="Edieresis" unicode="&#xcb;" horiz-adv-x="627" 
d="M587 -27l-481 7c-11 0 -21 9 -22 20l-57 732c-1 12 7 23 19 24l127 15c-41 9 -71 47 -71 91c0 51 40 93 91 93c49 0 90 -42 90 -93c0 -37 -21 -69 -52 -84l121 14c-32 15 -55 47 -55 86c0 51 40 93 91 93c49 0 90 -42 90 -93c0 -31 -14 -58 -37 -75l76 9
c13 1 24 -7 25 -20l13 -173c1 -12 -8 -23 -20 -24l-253 -30c3 -20 3 -32 6 -59l193 15c12 1 23 -8 24 -20l16 -159c1 -12 -8 -23 -20 -24l-187 -16c3 -21 4 -37 8 -64l249 25c13 1 23 -8 24 -21l14 -246c1 -13 -9 -23 -22 -23zM579 3l-14 246l-270 -27l-15 108l211 18
l-16 159l-215 -16l-10 102l275 32l-13 173l-471 -56l57 -732zM185 799c37 0 68 32 68 71s-31 71 -68 71c-39 0 -69 -32 -69 -71s30 -71 69 -71zM380 815c37 0 68 32 68 71s-31 71 -68 71c-39 0 -69 -32 -69 -71s30 -71 69 -71z" />
    <glyph glyph-name="Igrave" unicode="&#xcc;" horiz-adv-x="542" 
d="M439 -46l-384 39c-12 1 -21 11 -20 23l14 182c1 12 11 22 23 21l62 -4l13 326h-57c-12 0 -22 9 -22 21l-6 175c0 12 9 22 21 23l428 18c13 1 23 -9 23 -22l-4 -193c0 -12 -10 -22 -22 -22h-79l-23 -345l49 -3c12 -1 22 -11 21 -23l-13 -195c-1 -13 -11 -22 -24 -21z
M433 -16l13 195l-72 4l27 388h99l4 193l-428 -18l6 -175h80l-15 -371l-84 5l-14 -182zM408 840l-61 -61c-7 -7 -18 -7 -26 -3l-181 96c-13 7 -18 22 -7 33l100 114c9 11 24 12 33 1l142 -149c8 -9 8 -23 0 -31zM384 864l-142 149l-100 -114l181 -96z" />
    <glyph glyph-name="Iacute" unicode="&#xcd;" horiz-adv-x="542" 
d="M439 -46l-384 39c-12 1 -21 11 -20 23l14 182c1 12 11 22 23 21l62 -4l13 326h-57c-12 0 -22 9 -22 21l-6 175c0 12 9 22 21 23l428 18c13 1 23 -9 23 -22l-4 -193c0 -12 -10 -22 -22 -22h-79l-23 -345l49 -3c12 -1 22 -11 21 -23l-13 -195c-1 -13 -11 -22 -24 -21z
M433 -16l13 195l-72 4l27 388h99l4 193l-428 -18l6 -175h80l-15 -371l-84 5l-14 -182zM302 777l-84 35c-13 5 -18 19 -11 31l102 181c5 8 17 13 26 10l148 -48c17 -5 21 -23 9 -36l-166 -168c-5 -5 -17 -8 -24 -5zM302 805l166 168l-148 48l-102 -181z" />
    <glyph glyph-name="Icircumflex" unicode="&#xce;" horiz-adv-x="542" 
d="M439 -46l-384 39c-12 1 -21 11 -20 23l14 182c1 12 11 22 23 21l62 -4l13 326h-57c-12 0 -22 9 -22 21l-6 175c0 12 9 22 21 23l428 18c13 1 23 -9 23 -22l-4 -193c0 -12 -10 -22 -22 -22h-79l-23 -345l49 -3c12 -1 22 -11 21 -23l-13 -195c-1 -13 -11 -22 -24 -21z
M433 -16l13 195l-72 4l27 388h99l4 193l-428 -18l6 -175h80l-15 -371l-84 5l-14 -182zM488 821l-117 -41c-11 -4 -23 2 -27 13l-31 77l-44 -80c-4 -8 -15 -13 -24 -10l-107 28c-15 4 -22 20 -14 33l121 192c3 5 13 10 20 10l103 -4c5 0 14 -6 17 -10l114 -175
c8 -13 4 -28 -11 -33zM473 850l-114 175l-103 4l-121 -192l107 -28l66 120l48 -120z" />
    <glyph glyph-name="Idieresis" unicode="&#xcf;" horiz-adv-x="542" 
d="M439 -46l-384 39c-12 1 -21 11 -20 23l14 182c1 12 11 22 23 21l62 -4l13 326h-57c-12 0 -22 9 -22 21l-6 175c0 12 9 22 21 23l428 18c13 1 23 -9 23 -22l-4 -193c0 -12 -10 -22 -22 -22h-79l-23 -345l49 -3c12 -1 22 -11 21 -23l-13 -195c-1 -13 -11 -22 -24 -21z
M433 -16l13 195l-72 4l27 388h99l4 193l-428 -18l6 -175h80l-15 -371l-84 5l-14 -182zM205 774c-51 0 -91 42 -91 93s40 93 91 93c49 0 90 -42 90 -93s-41 -93 -90 -93zM400 774c-51 0 -91 42 -91 93s40 93 91 93c49 0 90 -42 90 -93s-41 -93 -90 -93zM197 804
c37 0 68 32 68 71s-31 71 -68 71c-39 0 -69 -32 -69 -71s30 -71 69 -71zM392 804c37 0 68 32 68 71s-31 71 -68 71c-39 0 -69 -32 -69 -71s30 -71 69 -71z" />
    <glyph glyph-name="Eth" unicode="&#xd0;" horiz-adv-x="769" 
d="M47 -22l2 254c-5 -1 -11 -1 -16 -1c-12 -1 -23 8 -24 20l-14 159c-1 12 9 23 21 24l35 3l3 278c0 11 9 21 20 22c43 3 85 5 128 5c314 0 545 -126 545 -374c0 -246 -290 -417 -594 -417c-31 0 -58 2 -86 5c-11 1 -20 11 -20 22zM63 265l-2 -279c28 -3 56 -5 84 -5
c293 0 572 162 572 395s-222 352 -523 352c-43 0 -83 -2 -126 -5l-3 -299l-56 -4l14 -159zM370 295l-16 149l-92 -7l5 97c7 0 12 1 17 1c128 0 193 -76 193 -154c0 -84 -75 -171 -225 -171l3 74zM380 265l-96 -10c0 -7 0 -15 -1 -30c119 8 180 80 180 148
c0 67 -57 129 -167 132l-3 -53c23 3 45 5 68 6c12 1 22 -8 23 -20l16 -149c1 -12 -8 -23 -20 -24z" />
    <glyph glyph-name="Ntilde" unicode="&#xd1;" horiz-adv-x="781" 
d="M668 -30l-113 -23c-7 -1 -18 3 -22 10l-229 356l14 -323c1 -15 -9 -24 -24 -23l-214 22c-11 1 -20 10 -20 21l-18 677c0 11 7 20 18 23l233 44c8 3 19 -5 23 -12l153 -292l-11 285c0 12 9 22 21 23l251 14c15 1 24 -9 23 -24l-67 -758c-1 -11 -7 -17 -18 -20zM656 0
l67 758l-251 -14l15 -381l-198 377l-233 -44l18 -677l214 -22l-18 404l273 -424zM303 780l-98 13c-11 1 -19 11 -19 22c0 50 4 191 97 191c45 0 64 -24 80 -45v1c9 -11 17 -22 29 -22c3 0 5 8 5 25v9c0 3 -1 7 -1 11c0 13 11 23 24 22l122 -14c11 -1 19 -9 20 -20
c1 -9 2 -19 2 -34c0 -69 -18 -171 -118 -171c-52 0 -74 24 -93 47c-5 5 -15 15 -18 15c-5 0 -7 -9 -7 -28c0 -15 -10 -25 -25 -22zM200 823l98 -13c0 33 10 50 29 50c35 0 38 -62 111 -62c81 0 96 88 96 149c0 12 -1 23 -2 32l-122 14c0 -7 1 -13 1 -20
c0 -28 -3 -47 -27 -47c-51 0 -42 66 -109 66c-72 0 -75 -125 -75 -169z" />
    <glyph glyph-name="Ograve" unicode="&#xd2;" horiz-adv-x="856" 
d="M531 846l-61 -61l-5 -4c236 -19 366 -208 366 -412c0 -246 -196 -399 -416 -399c-212 0 -390 167 -390 392c0 229 149 421 403 421c5 0 10 -1 15 -1l-180 96c-13 7 -18 22 -7 33l100 114c9 11 24 12 33 1l142 -149c8 -9 8 -23 0 -31zM801 377c0 204 -136 392 -381 392
c-240 0 -381 -180 -381 -399c0 -212 168 -370 368 -370c208 0 394 145 394 377zM423 188c-110 0 -161 82 -161 166c0 104 64 175 160 175s147 -83 147 -161c0 -107 -58 -180 -146 -180zM431 202c76 0 124 65 124 158c0 67 -43 139 -125 139c-85 0 -138 -62 -138 -153
c0 -73 44 -144 139 -144zM507 870l-142 149l-100 -114l181 -96z" />
    <glyph glyph-name="Oacute" unicode="&#xd3;" horiz-adv-x="856" 
d="M831 369c0 -246 -196 -399 -416 -399c-212 0 -390 167 -390 392c0 229 148 418 400 421l-77 32c-13 5 -18 19 -11 31l102 181c5 8 17 13 26 10l148 -48c17 -5 21 -23 9 -36l-166 -168l-4 -3c244 -13 379 -206 379 -413zM801 377c0 204 -136 392 -381 392
c-240 0 -381 -180 -381 -399c0 -212 168 -370 368 -370c208 0 394 145 394 377zM423 188c-110 0 -161 82 -161 166c0 104 64 175 160 175s147 -83 147 -161c0 -107 -58 -180 -146 -180zM431 202c76 0 124 65 124 158c0 67 -43 139 -125 139c-85 0 -138 -62 -138 -153
c0 -73 44 -144 139 -144zM432 808l166 168l-148 48l-102 -181z" />
    <glyph glyph-name="Ocircumflex" unicode="&#xd4;" horiz-adv-x="856" 
d="M603 819l-115 -40c221 -29 343 -214 343 -410c0 -246 -196 -399 -416 -399c-212 0 -390 167 -390 392c0 209 122 384 334 416l-106 28c-15 4 -22 20 -14 33l121 192c3 5 13 10 20 10l103 -4c5 0 14 -6 17 -10l114 -175c8 -13 4 -28 -11 -33zM801 377
c0 204 -136 392 -381 392c-240 0 -381 -180 -381 -399c0 -212 168 -370 368 -370c208 0 394 145 394 377zM423 188c-110 0 -161 82 -161 166c0 104 64 175 160 175s147 -83 147 -161c0 -107 -58 -180 -146 -180zM431 202c76 0 124 65 124 158c0 67 -43 139 -125 139
c-85 0 -138 -62 -138 -153c0 -73 44 -144 139 -144zM588 848l-114 175l-103 4l-121 -192l107 -28l66 120l48 -120zM428 783c13 0 25 -1 37 -2c-3 3 -5 7 -6 10l-31 77l-44 -80c-3 -4 -5 -7 -7 -8c16 2 33 3 51 3z" />
    <glyph glyph-name="Otilde" unicode="&#xd5;" horiz-adv-x="856" 
d="M356 790l-98 13c-11 1 -19 11 -19 22c0 50 4 191 97 191c45 0 64 -24 80 -45v1c9 -11 17 -22 29 -22c3 0 5 8 5 25v9c0 3 -1 7 -1 11c0 13 11 23 24 22l122 -14c11 -1 19 -9 20 -20c1 -9 2 -19 2 -34c0 -69 -18 -171 -118 -171h-4c216 -32 336 -214 336 -409
c0 -246 -196 -399 -416 -399c-212 0 -390 167 -390 392c0 229 149 421 403 421c15 0 28 -1 41 -2c-32 7 -48 25 -63 44c-5 5 -15 15 -18 15c-5 0 -7 -9 -7 -28c0 -15 -10 -25 -25 -22zM801 377c0 204 -136 392 -381 392c-240 0 -381 -180 -381 -399
c0 -212 168 -370 368 -370c208 0 394 145 394 377zM423 188c-110 0 -161 82 -161 166c0 104 64 175 160 175s147 -83 147 -161c0 -107 -58 -180 -146 -180zM431 202c76 0 124 65 124 158c0 67 -43 139 -125 139c-85 0 -138 -62 -138 -153c0 -73 44 -144 139 -144zM253 833
l98 -13c0 33 10 50 29 50c35 0 38 -62 111 -62c81 0 96 88 96 149c0 12 -1 23 -2 32l-122 14c0 -7 1 -13 1 -20c0 -28 -3 -47 -27 -47c-51 0 -42 66 -109 66c-72 0 -75 -125 -75 -169z" />
    <glyph glyph-name="Odieresis" unicode="&#xd6;" horiz-adv-x="856" 
d="M831 369c0 -246 -196 -399 -416 -399c-212 0 -390 167 -390 392c0 229 149 421 403 421c259 0 403 -200 403 -414zM801 377c0 204 -136 392 -381 392c-240 0 -381 -180 -381 -399c0 -212 168 -370 368 -370c208 0 394 145 394 377zM423 188c-110 0 -161 82 -161 166
c0 104 64 175 160 175s147 -83 147 -161c0 -107 -58 -180 -146 -180zM431 202c76 0 124 65 124 158c0 67 -43 139 -125 139c-85 0 -138 -62 -138 -153c0 -73 44 -144 139 -144zM526 779c-51 0 -91 42 -91 93s40 93 91 93c49 0 90 -42 90 -93s-41 -93 -90 -93zM331 779
c-51 0 -91 42 -91 93s40 93 91 93c49 0 90 -42 90 -93s-41 -93 -90 -93zM323 809c37 0 68 32 68 71s-31 71 -68 71c-39 0 -69 -32 -69 -71s30 -71 69 -71zM518 809c37 0 68 32 68 71s-31 71 -68 71c-39 0 -69 -32 -69 -71s30 -71 69 -71z" />
    <glyph glyph-name="multiply" unicode="&#xd7;" horiz-adv-x="471" 
d="M449 201l-93 -81c-8 -7 -21 -7 -29 1l-85 78l-92 -95c-9 -11 -24 -10 -33 1l-81 93c-7 8 -6 21 1 29l81 87c-32 31 -64 56 -95 87c-9 8 -9 22 -1 31l91 97c8 9 22 10 31 1l90 -89l83 90c8 9 22 9 31 1l97 -91c9 -8 9 -22 1 -31l-87 -89l91 -87c9 -9 10 -24 -1 -33z
M427 226l-106 102l101 105l-97 91l-97 -106l-107 104l-91 -97l110 -102l-95 -103l81 -93l107 111l101 -93z" />
    <glyph glyph-name="Oslash" unicode="&#xd8;" horiz-adv-x="856" 
d="M245 -125l-95 70c-8 7 -11 18 -7 27l36 77c-91 69 -154 184 -154 313c0 229 149 421 403 421c31 0 61 -3 89 -9l38 82c7 12 20 17 32 10l142 -92c9 -7 12 -18 7 -29l-34 -65c89 -79 129 -188 129 -311c0 -246 -196 -399 -416 -399c-29 0 -58 3 -86 10l-51 -97
c-7 -13 -22 -16 -33 -8zM250 -99l59 112c31 -8 63 -13 98 -13c208 0 394 145 394 377c0 119 -47 231 -135 306l43 80l-142 92l-46 -98c-31 8 -65 12 -101 12c-240 0 -381 -180 -381 -399c0 -132 63 -241 159 -306l-43 -93zM403 189l143 268c15 -27 23 -58 23 -89
c0 -107 -58 -180 -146 -180c-7 0 -13 0 -20 1zM415 529l-127 -272c-19 28 -26 62 -26 97c0 101 60 171 153 175zM551 396l-104 -193c67 8 108 70 108 157c0 13 -1 25 -4 36zM297 303l88 189c-60 -17 -93 -70 -93 -146c0 -14 2 -28 5 -43z" />
    <glyph glyph-name="Ugrave" unicode="&#xd9;" horiz-adv-x="744" 
d="M491 764l178 16c11 1 21 -8 24 -19c11 -71 17 -151 17 -235c0 -285 -78 -589 -332 -589c-234 0 -344 277 -344 600c0 72 8 167 19 230c3 11 13 20 24 19l232 -25c15 -1 23 -13 19 -28c-16 -50 -22 -133 -22 -191c0 -172 26 -287 90 -287c72 0 94 110 94 266
c0 80 -8 153 -19 217c-3 13 7 25 20 26zM663 766l-178 -16c11 -64 19 -137 19 -221c0 -169 -29 -288 -116 -288c-78 0 -112 125 -112 309c0 60 7 143 23 197l-232 25c-11 -64 -19 -155 -19 -227c0 -311 103 -578 322 -578c237 0 310 292 310 567c0 83 -6 161 -17 232z
M499 840l-61 -61c-7 -7 -18 -7 -26 -3l-181 96c-13 7 -18 22 -7 33l100 114c9 11 24 12 33 1l142 -149c8 -9 8 -23 0 -31zM475 864l-142 149l-100 -114l181 -96z" />
    <glyph glyph-name="Uacute" unicode="&#xda;" horiz-adv-x="744" 
d="M491 764l178 16c11 1 21 -8 24 -19c11 -71 17 -151 17 -235c0 -285 -78 -589 -332 -589c-234 0 -344 277 -344 600c0 72 8 167 19 230c3 11 13 20 24 19l232 -25c15 -1 23 -13 19 -28c-16 -50 -22 -133 -22 -191c0 -172 26 -287 90 -287c72 0 94 110 94 266
c0 80 -8 153 -19 217c-3 13 7 25 20 26zM663 766l-178 -16c11 -64 19 -137 19 -221c0 -169 -29 -288 -116 -288c-78 0 -112 125 -112 309c0 60 7 143 23 197l-232 25c-11 -64 -19 -155 -19 -227c0 -311 103 -578 322 -578c237 0 310 292 310 567c0 83 -6 161 -17 232z
M409 768l-84 35c-13 5 -18 19 -11 31l102 181c5 8 17 13 26 10l148 -48c17 -5 21 -23 9 -36l-166 -168c-5 -5 -17 -8 -24 -5zM409 796l166 168l-148 48l-102 -181z" />
    <glyph glyph-name="Ucircumflex" unicode="&#xdb;" horiz-adv-x="744" 
d="M491 764l178 16c11 1 21 -8 24 -19c11 -71 17 -151 17 -235c0 -285 -78 -589 -332 -589c-234 0 -344 277 -344 600c0 72 8 167 19 230c3 11 13 20 24 19l232 -25c15 -1 23 -13 19 -28c-16 -50 -22 -133 -22 -191c0 -172 26 -287 90 -287c72 0 94 110 94 266
c0 80 -8 153 -19 217c-3 13 7 25 20 26zM663 766l-178 -16c11 -64 19 -137 19 -221c0 -169 -29 -288 -116 -288c-78 0 -112 125 -112 309c0 60 7 143 23 197l-232 25c-11 -64 -19 -155 -19 -227c0 -311 103 -578 322 -578c237 0 310 292 310 567c0 83 -6 161 -17 232z
M577 818l-117 -41c-11 -4 -23 2 -27 13l-31 77l-44 -80c-4 -8 -15 -13 -24 -10l-107 28c-15 4 -22 20 -14 33l121 192c3 5 13 10 20 10l103 -4c5 0 14 -6 17 -10l114 -175c8 -13 4 -28 -11 -33zM562 847l-114 175l-103 4l-121 -192l107 -28l66 120l48 -120z" />
    <glyph glyph-name="Udieresis" unicode="&#xdc;" horiz-adv-x="744" 
d="M491 764l178 16c11 1 21 -8 24 -19c11 -71 17 -151 17 -235c0 -285 -78 -589 -332 -589c-234 0 -344 277 -344 600c0 72 8 167 19 230c3 11 13 20 24 19l232 -25c15 -1 23 -13 19 -28c-16 -50 -22 -133 -22 -191c0 -172 26 -287 90 -287c72 0 94 110 94 266
c0 80 -8 153 -19 217c-3 13 7 25 20 26zM663 766l-178 -16c11 -64 19 -137 19 -221c0 -169 -29 -288 -116 -288c-78 0 -112 125 -112 309c0 60 7 143 23 197l-232 25c-11 -64 -19 -155 -19 -227c0 -311 103 -578 322 -578c237 0 310 292 310 567c0 83 -6 161 -17 232z
M302 781c-51 0 -91 42 -91 93s40 93 91 93c49 0 90 -42 90 -93s-41 -93 -90 -93zM497 781c-51 0 -91 42 -91 93s40 93 91 93c49 0 90 -42 90 -93s-41 -93 -90 -93zM294 811c37 0 68 32 68 71s-31 71 -68 71c-39 0 -69 -32 -69 -71s30 -71 69 -71zM489 811c37 0 68 32 68 71
s-31 71 -68 71c-39 0 -69 -32 -69 -71s30 -71 69 -71z" />
    <glyph glyph-name="Yacute" unicode="&#xdd;" horiz-adv-x="771" 
d="M520 -40l-246 -21c-13 -1 -24 9 -24 22l-4 355c-92 119 -182 239 -274 358c-11 13 -5 29 10 34l274 93c9 3 21 -1 26 -10l145 -258c48 85 96 172 144 256c5 9 16 14 27 10l183 -69c15 -5 18 -21 10 -33l-254 -386l3 -329c0 -11 -9 -21 -20 -22zM510 -10l-3 334l258 393
l-183 69l-163 -290l-164 292l-274 -93l279 -364l4 -362zM431 771l-84 35c-13 5 -18 19 -11 31l102 181c5 8 17 13 26 10l148 -48c17 -5 21 -23 9 -36l-166 -168c-5 -5 -17 -8 -24 -5zM431 799l166 168l-148 48l-102 -181z" />
    <glyph glyph-name="Thorn" unicode="&#xde;" horiz-adv-x="707" 
d="M294 -47l-231 -9c-13 0 -23 9 -23 22l6 780c0 12 10 22 22 22l219 3c12 0 22 -10 22 -22l1 -78h11c256 0 371 -137 371 -278c0 -189 -139 -318 -380 -318h-3l6 -99c1 -12 -9 -23 -21 -23zM285 -17l-7 123c9 0 17 -1 26 -1c227 0 358 120 358 296c0 131 -108 256 -349 256
h-33l-1 100l-219 -3l-6 -780zM281 292l-5 158c23 8 51 12 78 12c85 0 124 -37 124 -80c0 -53 -62 -91 -171 -91c-8 0 -17 0 -26 1zM306 425l5 -120h4c96 0 149 29 149 69c0 31 -31 58 -102 58c-21 0 -39 -2 -56 -7z" />
    <glyph glyph-name="germandbls" unicode="&#xdf;" horiz-adv-x="1333" 
d="M-3 104l102 121c8 9 22 11 31 3c49 -43 101 -60 145 -60c64 0 114 26 114 69c0 19 -46 27 -103 38c-119 24 -277 54 -277 237c0 198 235 275 400 275c67 0 135 -12 203 -39c11 -5 16 -17 12 -28l-69 -177c-5 -13 -19 -18 -31 -11c-43 25 -90 35 -131 35
c-64 0 -116 -22 -116 -57c0 -19 47 -25 104 -36c124 -20 294 -56 294 -259c0 -37 -9 -72 -28 -104l96 114c8 9 22 11 31 3c49 -43 101 -60 145 -60c64 0 114 26 114 69c0 19 -46 27 -103 38c-119 24 -277 54 -277 237c0 198 235 275 400 275c67 0 135 -12 203 -39
c11 -5 16 -17 12 -28l-69 -177c-5 -13 -19 -18 -31 -11c-43 25 -90 35 -131 35c-64 0 -116 -22 -116 -57c0 -19 47 -25 104 -36c124 -20 294 -56 294 -259c0 -158 -177 -267 -365 -267c-112 0 -227 38 -312 127c-5 5 -7 12 -6 19c-61 -91 -191 -146 -326 -146
c-112 0 -227 38 -312 127c-7 8 -8 21 -1 29zM108 219l-102 -121c80 -84 189 -120 296 -120c177 0 343 100 343 245c0 299 -398 194 -398 295c0 48 62 79 138 79c45 0 95 -11 142 -38l69 177c-64 27 -131 37 -195 37c-156 0 -378 -72 -378 -253c0 -265 380 -178 380 -275
c0 -55 -60 -91 -136 -91c-49 0 -106 18 -159 65zM752 219l-102 -121c80 -84 189 -120 296 -120c177 0 343 100 343 245c0 299 -398 194 -398 295c0 48 62 79 138 79c45 0 95 -11 142 -38l69 177c-64 27 -131 37 -195 37c-156 0 -378 -72 -378 -253c0 -265 380 -178 380 -275
c0 -55 -60 -91 -136 -91c-49 0 -106 18 -159 65z" />
    <glyph glyph-name="agrave" unicode="&#xe0;" horiz-adv-x="763" 
d="M749 11l-219 -63c-12 -3 -24 3 -27 15l-41 136l-165 -12l-29 -135c-3 -11 -13 -20 -25 -17l-226 43c-13 3 -21 16 -17 29l239 766c3 8 13 15 22 15l213 -7c8 0 17 -7 20 -14l270 -727c5 -12 -2 -25 -15 -29zM735 40l-270 727l-213 7l-239 -766l226 -43l33 151l198 14
l46 -153zM478 856l-61 -61c-7 -7 -18 -7 -26 -3l-181 96c-13 7 -18 22 -7 33l100 114c9 11 24 12 33 1l142 -149c8 -9 8 -23 0 -31zM454 880l-142 149l-100 -114l181 -96zM428 271l-128 -8l57 243zM407 284l-40 130l-31 -136c23 3 40 5 71 6z" />
    <glyph glyph-name="aacute" unicode="&#xe1;" horiz-adv-x="763" 
d="M749 11l-219 -63c-12 -3 -24 3 -27 15l-41 136l-165 -12l-29 -135c-3 -11 -13 -20 -25 -17l-226 43c-13 3 -21 16 -17 29l239 766c3 8 13 15 22 15l117 -4l-71 30c-13 5 -18 19 -11 31l102 181c5 8 17 13 26 10l148 -48c17 -5 21 -23 9 -36l-166 -168l-1 -1l60 -2
c8 0 17 -7 20 -14l270 -727c5 -12 -2 -25 -15 -29zM735 40l-270 727l-213 7l-239 -766l226 -43l33 151l198 14l46 -153zM391 807l166 168l-148 48l-102 -181zM428 271l-128 -8l57 243zM407 284l-40 130l-31 -136c23 3 40 5 71 6z" />
    <glyph glyph-name="acircumflex" unicode="&#xe2;" horiz-adv-x="763" 
d="M559 824l-117 -41c-1 -1 -1 -1 -2 -1l34 -1c8 0 17 -7 20 -14l270 -727c5 -12 -2 -25 -15 -29l-219 -63c-12 -3 -24 3 -27 15l-41 136l-165 -12l-29 -135c-3 -11 -13 -20 -25 -17l-226 43c-13 3 -21 16 -17 29l239 766c3 8 13 15 22 15l41 -2l-93 25c-15 4 -22 20 -14 33
l121 192c3 5 13 10 20 10l103 -4c5 0 14 -6 17 -10l114 -175c8 -13 4 -28 -11 -33zM735 40l-270 727l-213 7l-239 -766l226 -43l33 151l198 14l46 -153zM544 853l-114 175l-103 4l-121 -192l107 -28l66 120l48 -120zM428 271l-128 -8l57 243zM407 284l-40 130l-31 -136
c23 3 40 5 71 6zM384 873l-44 -80c-3 -4 -5 -7 -7 -8l95 -3c-7 2 -11 7 -13 14z" />
    <glyph glyph-name="atilde" unicode="&#xe3;" horiz-adv-x="763" 
d="M309 790l-98 13c-11 1 -19 11 -19 22c0 50 4 191 97 191c45 0 64 -24 80 -45v1c9 -11 17 -22 29 -22c3 0 5 8 5 25v9c0 3 -1 7 -1 11c0 13 11 23 24 22l122 -14c11 -1 19 -9 20 -20c1 -9 2 -19 2 -34c0 -64 -15 -153 -92 -169c7 -2 13 -6 16 -13l270 -727
c5 -12 -2 -25 -15 -29l-219 -63c-12 -3 -24 3 -27 15l-41 136l-165 -12l-29 -135c-3 -11 -13 -20 -25 -17l-226 43c-13 3 -21 16 -17 29l239 766c3 8 13 15 22 15l154 -5c-28 8 -43 26 -56 42c-5 5 -15 15 -18 15c-5 0 -7 -9 -7 -28c0 -15 -10 -25 -25 -22zM735 40l-270 727
l-213 7l-239 -766l226 -43l33 151l198 14l46 -153zM206 833l98 -13c0 33 10 50 29 50c35 0 38 -62 111 -62c81 0 96 88 96 149c0 12 -1 23 -2 32l-122 14c0 -7 1 -13 1 -20c0 -28 -3 -47 -27 -47c-51 0 -42 66 -109 66c-72 0 -75 -125 -75 -169zM428 271l-128 -8l57 243z
M407 284l-40 130l-31 -136c23 3 40 5 71 6z" />
    <glyph glyph-name="adieresis" unicode="&#xe4;" horiz-adv-x="763" 
d="M749 11l-219 -63c-12 -3 -24 3 -27 15l-41 136l-165 -12l-29 -135c-3 -11 -13 -20 -25 -17l-226 43c-13 3 -21 16 -17 29l239 766c2 6 6 10 12 12c-39 11 -68 48 -68 91c0 51 40 93 91 93c49 0 90 -42 90 -93c0 -43 -28 -78 -65 -90l175 -5c8 0 17 -7 20 -14l270 -727
c5 -12 -2 -25 -15 -29zM735 40l-270 727l-213 7l-239 -766l226 -43l33 151l198 14l46 -153zM469 783c-51 0 -91 42 -91 93s40 93 91 93c49 0 90 -42 90 -93s-41 -93 -90 -93zM428 271l-128 -8l57 243zM461 813c37 0 68 32 68 71s-31 71 -68 71c-39 0 -69 -32 -69 -71
s30 -71 69 -71zM266 813c37 0 68 32 68 71s-31 71 -68 71c-39 0 -69 -32 -69 -71s30 -71 69 -71zM407 284l-40 130l-31 -136c23 3 40 5 71 6z" />
    <glyph glyph-name="aring" unicode="&#xe5;" horiz-adv-x="763" 
d="M528 916c0 -60 -37 -111 -92 -134l38 -1c8 0 17 -7 20 -14l270 -727c5 -12 -2 -25 -15 -29l-219 -63c-12 -3 -24 3 -27 15l-41 136l-165 -12l-29 -135c-3 -11 -13 -20 -25 -17l-226 43c-13 3 -21 16 -17 29l239 766c3 8 13 15 22 15l38 -2c-48 25 -81 74 -81 130
c0 83 71 148 155 148s155 -65 155 -148zM735 40l-270 727l-213 7l-239 -766l226 -43l33 151l198 14l46 -153zM498 924c0 69 -60 126 -133 126s-133 -57 -133 -126c0 -68 60 -125 133 -125s133 57 133 125zM428 271l-128 -8l57 243zM407 284l-40 130l-31 -136c23 3 40 5 71 6
zM370 884c-19 0 -34 16 -34 37c0 20 15 37 34 37s34 -17 34 -37c0 -21 -15 -37 -34 -37z" />
    <glyph glyph-name="ae" unicode="&#xe6;" horiz-adv-x="1017" 
d="M990 13l-463 -73c-11 -3 -21 5 -24 16l-41 136l-165 -12l-29 -135c-3 -11 -13 -20 -25 -17l-226 43c-13 3 -21 16 -17 29l239 766c3 8 13 15 22 15l213 -7c12 0 20 -3 20 -15l2 -3l471 33c13 1 23 -9 23 -22l4 -242c0 -12 -9 -21 -21 -22l-378 -17c7 -19 14 -33 22 -56
l302 27c12 1 23 -9 24 -21l9 -140c1 -12 -8 -22 -20 -23l-249 -24c7 -19 14 -32 22 -55l265 32c13 1 24 -7 25 -20l14 -169c1 -11 -8 -21 -19 -24zM979 43l-14 169l-284 -34l-37 99l278 26l-9 140l-320 -28l-37 100l408 18l-4 242l-487 -34l-8 19l-213 7l-239 -766l226 -43
l33 151l198 14l46 -153zM428 264l-128 -8l57 243zM407 277l-40 130l-31 -136c23 3 40 5 71 6z" />
    <glyph glyph-name="ccedilla" unicode="&#xe7;" horiz-adv-x="561" 
d="M185 -261l23 97c3 13 16 21 29 16c11 -5 25 -7 44 -7c11 0 18 2 18 10c0 20 -46 30 -86 35c-13 3 -21 15 -17 28l21 76c-131 67 -191 202 -191 337c0 216 151 441 413 441c19 0 38 -1 56 -3c11 -1 19 -9 20 -20l20 -255c1 -13 -9 -24 -22 -24c-132 0 -203 -61 -203 -131
c0 -52 61 -73 118 -73c31 0 56 5 77 14c16 7 31 -3 31 -20l-1 -285c0 -11 -8 -21 -19 -22c-29 -4 -58 -5 -86 -5h-8c41 -19 80 -53 80 -114c0 -96 -66 -151 -159 -151c-56 0 -114 19 -145 30c-11 4 -16 15 -13 26zM221 -161l-23 -97c29 -11 85 -29 137 -29
c80 0 137 46 137 129c0 91 -113 110 -146 115l9 28c27 -4 56 -7 87 -7c27 0 54 1 83 5l1 285c-25 -11 -53 -16 -86 -16c-68 0 -140 27 -140 95c0 82 78 153 225 153l-20 255c-18 2 -36 3 -54 3c-248 0 -391 -215 -391 -419c0 -134 63 -264 196 -325l-27 -94
c48 -8 104 -18 104 -57c0 -24 -17 -32 -40 -32c-24 0 -41 4 -52 8z" />
    <glyph glyph-name="egrave" unicode="&#xe8;" horiz-adv-x="581" 
d="M550 12l-463 -73c-13 -3 -24 8 -25 21l-39 758c-1 12 8 22 20 23l483 47c13 1 24 -9 24 -22l4 -242c0 -11 -9 -21 -20 -22l-282 -22l3 -44l224 20c12 1 23 -9 24 -21l9 -140c1 -12 -8 -22 -20 -23l-225 -24l3 -55l260 32c13 1 24 -7 25 -20l14 -169c1 -11 -8 -21 -19 -24
zM539 42l-14 169l-285 -35l-4 100l246 26l-9 140l-247 -22l-4 89l302 23l-4 242l-483 -47l39 -758zM403 845l-61 -61c-7 -7 -18 -7 -26 -3l-181 96c-13 7 -18 22 -7 33l100 114c9 11 24 12 33 1l142 -149c8 -9 8 -23 0 -31zM379 869l-142 149l-100 -114l181 -96z" />
    <glyph glyph-name="eacute" unicode="&#xe9;" horiz-adv-x="581" 
d="M550 12l-463 -73c-13 -3 -24 8 -25 21l-39 758c-1 12 8 22 20 23l483 47c13 1 24 -9 24 -22l4 -242c0 -11 -9 -21 -20 -22l-282 -22l3 -44l224 20c12 1 23 -9 24 -21l9 -140c1 -12 -8 -22 -20 -23l-225 -24l3 -55l260 32c13 1 24 -7 25 -20l14 -169c1 -11 -8 -21 -19 -24
zM539 42l-14 169l-285 -35l-4 100l246 26l-9 140l-247 -22l-4 89l302 23l-4 242l-483 -47l39 -758zM284 780l-84 35c-13 5 -18 19 -11 31l102 181c5 8 17 13 26 10l148 -48c17 -5 21 -23 9 -36l-166 -168c-5 -5 -17 -8 -24 -5zM284 808l166 168l-148 48l-102 -181z" />
    <glyph glyph-name="ecircumflex" unicode="&#xea;" horiz-adv-x="581" 
d="M550 12l-463 -73c-13 -3 -24 8 -25 21l-39 758c-1 12 8 22 20 23l483 47c13 1 24 -9 24 -22l4 -242c0 -11 -9 -21 -20 -22l-282 -22l3 -44l224 20c12 1 23 -9 24 -21l9 -140c1 -12 -8 -22 -20 -23l-225 -24l3 -55l260 32c13 1 24 -7 25 -20l14 -169c1 -11 -8 -21 -19 -24
zM539 42l-14 169l-285 -35l-4 100l246 26l-9 140l-247 -22l-4 89l302 23l-4 242l-483 -47l39 -758zM460 836l-113 -50c-11 -5 -24 -1 -29 10l-37 72c-13 -29 -25 -53 -37 -81c-4 -8 -15 -16 -24 -13l-109 20c-16 3 -22 17 -15 32l105 201c3 7 11 12 18 12l103 4
c5 0 15 -5 18 -9l128 -165c9 -12 7 -26 -8 -33zM443 864l-128 165l-103 -4l-105 -201l109 -20l56 125l58 -115z" />
    <glyph glyph-name="edieresis" unicode="&#xeb;" horiz-adv-x="581" 
d="M550 12l-463 -73c-13 -3 -24 8 -25 21l-39 758c-1 12 8 22 20 23l483 47c13 1 24 -9 24 -22l4 -242c0 -11 -9 -21 -20 -22l-282 -22l3 -44l224 20c12 1 23 -9 24 -21l9 -140c1 -12 -8 -22 -20 -23l-225 -24l3 -55l260 32c13 1 24 -7 25 -20l14 -169c1 -11 -8 -21 -19 -24
zM539 42l-14 169l-285 -35l-4 100l246 26l-9 140l-247 -22l-4 89l302 23l-4 242l-483 -47l39 -758zM183 761c-51 0 -91 42 -91 93s40 93 91 93c49 0 90 -42 90 -93s-41 -93 -90 -93zM378 777c-51 0 -91 42 -91 93s40 93 91 93c49 0 90 -42 90 -93s-41 -93 -90 -93zM175 791
c37 0 68 32 68 71s-31 71 -68 71c-39 0 -69 -32 -69 -71s30 -71 69 -71zM370 807c37 0 68 32 68 71s-31 71 -68 71c-39 0 -69 -32 -69 -71s30 -71 69 -71z" />
    <glyph glyph-name="igrave" unicode="&#xec;" horiz-adv-x="368" 
d="M294 -47l-231 -9c-13 -1 -23 9 -23 22l16 780c0 12 10 22 22 22l233 4c13 0 22 -10 22 -23l-18 -775c0 -11 -10 -21 -21 -21zM285 -17l18 775l-233 -4l-16 -780zM300 840l-61 -61c-7 -7 -18 -7 -26 -3l-181 96c-13 7 -18 22 -7 33l100 114c9 11 24 12 33 1l142 -149
c8 -9 8 -23 0 -31zM276 864l-142 149l-100 -114l181 -96z" />
    <glyph glyph-name="iacute" unicode="&#xed;" horiz-adv-x="368" 
d="M294 -47l-231 -9c-13 -1 -23 9 -23 22l16 780c0 12 10 22 22 22l233 4c13 0 22 -10 22 -23l-18 -775c0 -11 -10 -21 -21 -21zM285 -17l18 775l-233 -4l-16 -780zM195 776l-84 35c-13 5 -18 19 -11 31l102 181c5 8 17 13 26 10l148 -48c17 -5 21 -23 9 -36l-166 -168
c-5 -5 -17 -8 -24 -5zM195 804l166 168l-148 48l-102 -181z" />
    <glyph glyph-name="icircumflex" unicode="&#xee;" horiz-adv-x="368" 
d="M294 -47l-231 -9c-13 -1 -23 9 -23 22l16 780c0 12 10 22 22 22l233 4c13 0 22 -10 22 -23l-18 -775c0 -11 -10 -21 -21 -21zM285 -17l18 775l-233 -4l-16 -780zM369 824l-117 -41c-11 -4 -23 2 -27 13l-31 77l-44 -80c-4 -8 -15 -13 -24 -10l-107 28
c-15 4 -22 20 -14 33l121 192c3 5 13 10 20 10l103 -4c5 0 14 -6 17 -10l114 -175c8 -13 4 -28 -11 -33zM354 853l-114 175l-103 4l-121 -192l107 -28l66 120l48 -120z" />
    <glyph glyph-name="idieresis" unicode="&#xef;" horiz-adv-x="368" 
d="M294 -47l-231 -9c-13 -1 -23 9 -23 22l16 780c0 12 10 22 22 22l233 4c13 0 22 -10 22 -23l-18 -775c0 -11 -10 -21 -21 -21zM285 -17l18 775l-233 -4l-16 -780zM98 783c-51 0 -91 42 -91 93s40 93 91 93c49 0 90 -42 90 -93s-41 -93 -90 -93zM293 783
c-51 0 -91 42 -91 93s40 93 91 93c49 0 90 -42 90 -93s-41 -93 -90 -93zM90 813c37 0 68 32 68 71s-31 71 -68 71c-39 0 -69 -32 -69 -71s30 -71 69 -71zM285 813c37 0 68 32 68 71s-31 71 -68 71c-39 0 -69 -32 -69 -71s30 -71 69 -71z" />
    <glyph glyph-name="eth" unicode="&#xf0;" 
d="M73 -12l-14 277c-11 0 -19 -1 -30 -1s-21 8 -22 19l-16 121c-3 13 8 24 21 25l39 3l-14 286c-1 11 7 20 18 23c52 11 110 16 171 16c355 0 549 -170 549 -403c0 -197 -186 -393 -588 -393c-33 0 -65 2 -95 6c-11 1 -19 10 -19 21zM72 295l15 -298c30 -4 61 -6 92 -6
c387 0 566 185 566 371c0 220 -186 381 -527 381c-59 0 -115 -5 -167 -16l15 -308l-61 -4l16 -121zM417 303l-19 142l-103 -8l2 86c147 -3 237 -61 237 -154c0 -95 -83 -142 -208 -142c-11 0 -23 1 -35 2l1 71zM426 273l-104 -2c0 -8 -1 -17 -1 -30h13c113 0 186 40 186 120
c0 75 -73 124 -193 131c-1 -13 -2 -21 -2 -40l80 7c11 1 22 -8 23 -19l19 -142c3 -13 -8 -25 -21 -25z" />
    <glyph glyph-name="ntilde" unicode="&#xf1;" horiz-adv-x="720" 
d="M263 791l-98 13c-11 1 -19 11 -19 22c0 50 4 191 97 191c45 0 64 -24 80 -45v1c9 -11 17 -22 29 -22c3 0 5 8 5 25v9c0 3 -1 7 -1 11c0 13 11 23 24 22l122 -14c11 -1 19 -9 20 -20c1 -9 2 -19 2 -34c0 -57 -12 -136 -70 -162l190 -21c11 -1 20 -10 20 -21l28 -758
c0 -11 -9 -22 -20 -23l-124 -12c-7 -1 -17 3 -21 10l-207 320l44 -297c3 -12 -8 -24 -20 -25l-273 -31c-13 -1 -24 9 -24 22l-16 799c0 13 10 22 23 22l169 -6c5 0 14 -5 17 -9l167 -229l-33 241c-1 3 0 7 1 12c-31 8 -47 27 -62 44c-5 5 -15 15 -18 15c-5 0 -7 -9 -7 -28
c0 -15 -10 -25 -25 -22zM662 -5l-28 758l-246 28l45 -327l-219 299l-169 6l16 -799l273 31l-59 400l263 -408zM160 834l98 -13c0 33 10 50 29 50c35 0 38 -62 111 -62c81 0 96 88 96 149c0 12 -1 23 -2 32l-122 14c0 -7 1 -13 1 -20c0 -28 -3 -47 -27 -47
c-51 0 -42 66 -109 66c-72 0 -75 -125 -75 -169z" />
    <glyph glyph-name="ograve" unicode="&#xf2;" horiz-adv-x="824" 
d="M500 852l-61 -61c-1 -1 -2 -2 -3 -2c211 -13 363 -197 363 -421c0 -222 -171 -419 -391 -419c-219 0 -383 192 -383 416c0 227 164 425 384 425l-177 94c-13 7 -18 22 -7 33l100 114c9 11 24 12 33 1l142 -149c8 -9 8 -23 0 -31zM400 -21c208 0 369 186 369 397
c0 221 -155 400 -366 400c-207 0 -364 -187 -364 -403c0 -213 156 -394 361 -394zM405 188c-103 0 -150 74 -150 170c0 92 62 175 153 175c83 0 138 -80 138 -172s-51 -173 -141 -173zM413 202c76 0 119 71 119 151c0 81 -44 150 -116 150c-77 0 -131 -72 -131 -153
c0 -83 40 -148 128 -148zM476 876l-142 149l-100 -114l181 -96z" />
    <glyph glyph-name="oacute" unicode="&#xf3;" horiz-adv-x="824" 
d="M408 -51c-219 0 -383 192 -383 416c0 218 152 408 359 424l-63 26c-13 5 -18 19 -11 31l102 181c5 8 17 13 26 10l148 -48c17 -5 21 -23 9 -36l-162 -164c212 -13 366 -195 366 -421c0 -222 -171 -419 -391 -419zM400 -21c208 0 369 186 369 397c0 221 -155 400 -366 400
c-207 0 -364 -187 -364 -403c0 -213 156 -394 361 -394zM405 188c-103 0 -150 74 -150 170c0 92 62 175 153 175c83 0 138 -80 138 -172s-51 -173 -141 -173zM413 202c76 0 119 71 119 151c0 81 -44 150 -116 150c-77 0 -131 -72 -131 -153c0 -83 40 -148 128 -148zM405 808
l166 168l-148 48l-102 -181z" />
    <glyph glyph-name="ocircumflex" unicode="&#xf4;" horiz-adv-x="824" 
d="M588 824l-113 -40c191 -32 324 -207 324 -416c0 -222 -171 -419 -391 -419c-219 0 -383 192 -383 416c0 205 132 380 317 418l-104 28c-15 4 -22 20 -14 33l121 192c3 5 13 10 20 10l103 -4c5 0 14 -6 17 -10l114 -175c8 -13 4 -28 -11 -33zM400 -21
c208 0 369 186 369 397c0 221 -155 400 -366 400c-207 0 -364 -187 -364 -403c0 -213 156 -394 361 -394zM405 188c-103 0 -150 74 -150 170c0 92 62 175 153 175c83 0 138 -80 138 -172s-51 -173 -141 -173zM413 202c76 0 119 71 119 151c0 81 -44 150 -116 150
c-77 0 -131 -72 -131 -153c0 -83 40 -148 128 -148zM573 853l-114 175l-103 4l-121 -192l107 -28l66 120l48 -120zM411 790c13 0 25 -1 38 -2c-3 2 -4 5 -5 8l-31 77l-44 -80l-6 -7c16 3 32 4 48 4z" />
    <glyph glyph-name="otilde" unicode="&#xf5;" horiz-adv-x="824" 
d="M340 790l-98 13c-11 1 -19 11 -19 22c0 50 4 191 97 191c45 0 64 -24 80 -45v1c9 -11 17 -22 29 -22c3 0 5 8 5 25v9c0 3 -1 7 -1 11c0 13 11 23 24 22l122 -14c11 -1 19 -9 20 -20c1 -9 2 -19 2 -34c0 -66 -16 -159 -100 -170c177 -43 298 -211 298 -411
c0 -222 -171 -419 -391 -419c-219 0 -383 192 -383 416c0 228 166 425 386 425c7 0 12 0 19 -1c-19 11 -29 23 -40 36c-5 5 -15 15 -18 15c-5 0 -7 -9 -7 -28c0 -15 -10 -25 -25 -22zM400 -21c208 0 369 186 369 397c0 221 -155 400 -366 400c-207 0 -364 -187 -364 -403
c0 -213 156 -394 361 -394zM405 188c-103 0 -150 74 -150 170c0 92 62 175 153 175c83 0 138 -80 138 -172s-51 -173 -141 -173zM413 202c76 0 119 71 119 151c0 81 -44 150 -116 150c-77 0 -131 -72 -131 -153c0 -83 40 -148 128 -148zM237 833l98 -13c0 33 10 50 29 50
c35 0 38 -62 111 -62c81 0 96 88 96 149c0 12 -1 23 -2 32l-122 14c0 -7 1 -13 1 -20c0 -28 -3 -47 -27 -47c-51 0 -42 66 -109 66c-72 0 -75 -125 -75 -169z" />
    <glyph glyph-name="odieresis" unicode="&#xf6;" horiz-adv-x="824" 
d="M408 -51c-219 0 -383 192 -383 416c0 228 166 425 386 425c224 0 388 -189 388 -422c0 -222 -171 -419 -391 -419zM400 -21c208 0 369 186 369 397c0 221 -155 400 -366 400c-207 0 -364 -187 -364 -403c0 -213 156 -394 361 -394zM405 188c-103 0 -150 74 -150 170
c0 92 62 175 153 175c83 0 138 -80 138 -172s-51 -173 -141 -173zM413 202c76 0 119 71 119 151c0 81 -44 150 -116 150c-77 0 -131 -72 -131 -153c0 -83 40 -148 128 -148zM510 783c-51 0 -91 42 -91 93s40 93 91 93c49 0 90 -42 90 -93s-41 -93 -90 -93zM315 783
c-51 0 -91 42 -91 93s40 93 91 93c49 0 90 -42 90 -93s-41 -93 -90 -93zM307 813c37 0 68 32 68 71s-31 71 -68 71c-39 0 -69 -32 -69 -71s30 -71 69 -71zM502 813c37 0 68 32 68 71s-31 71 -68 71c-39 0 -69 -32 -69 -71s30 -71 69 -71z" />
    <glyph glyph-name="divide" unicode="&#xf7;" horiz-adv-x="507" 
d="M459 244l-145 -6c41 -23 72 -65 72 -118c0 -68 -53 -133 -130 -133c-67 0 -131 56 -131 132c0 47 23 90 62 114l-141 -6c-12 0 -23 10 -23 22l-4 133c0 12 10 22 22 22l147 2c-37 23 -63 62 -63 113c0 71 57 134 130 134c67 0 131 -56 131 -133c0 -44 -22 -86 -58 -111
l139 2c13 0 23 -11 22 -24l-9 -123c-1 -11 -10 -20 -21 -20zM450 274l9 123l-426 -7l4 -133zM248 17c64 0 108 55 108 111c0 64 -53 111 -109 111c-60 0 -108 -52 -108 -112c0 -64 53 -110 109 -110zM248 417c64 0 108 55 108 111c0 64 -53 111 -109 111
c-60 0 -108 -52 -108 -112c0 -64 53 -110 109 -110z" />
    <glyph glyph-name="oslash" unicode="&#xf8;" horiz-adv-x="824" 
d="M232 -132l-95 70c-8 7 -11 18 -7 27l36 77c-88 77 -141 194 -141 323c0 228 166 425 386 425c36 0 65 -3 97 -12l34 72c7 12 21 16 32 9l142 -92c11 -7 12 -19 7 -30l-37 -68c68 -76 113 -185 113 -301c0 -222 -171 -419 -391 -419c-36 0 -69 4 -99 13l-45 -86
c-7 -12 -21 -16 -32 -8zM237 -106l54 103c35 -11 70 -18 109 -18c208 0 369 186 369 397c0 119 -43 224 -118 297l45 83l-142 92l-42 -89c-35 11 -72 17 -109 17c-207 0 -364 -187 -364 -403c0 -129 55 -245 146 -317l-43 -92zM407 533l-129 -277c-16 28 -23 63 -23 102
c0 92 63 175 152 175zM393 188l137 256c11 -27 16 -54 16 -83c0 -92 -51 -173 -141 -173h-12zM289 304l88 193c-56 -19 -92 -79 -92 -147c0 -16 1 -31 4 -46zM531 377c-31 -59 -62 -114 -93 -173c60 15 94 77 94 149c0 7 0 17 -1 24z" />
    <glyph glyph-name="ugrave" unicode="&#xf9;" horiz-adv-x="748" 
d="M498 765l196 -2c11 0 21 -9 22 -20c7 -56 10 -115 10 -180c0 -344 -87 -623 -336 -623c-224 0 -362 317 -362 662c0 48 3 94 8 141c1 12 12 21 24 20l263 -22c13 -1 23 -12 20 -25c-5 -33 -9 -92 -9 -152c0 -191 22 -316 81 -316c61 0 85 96 85 248c0 80 -9 166 -24 243
c-3 15 7 26 22 26zM686 749l-196 2c15 -77 24 -164 24 -247c0 -165 -30 -270 -107 -270c-75 0 -103 134 -103 338c0 61 4 122 9 155l-263 22c-5 -47 -8 -92 -8 -139c0 -334 129 -640 340 -640c232 0 314 269 314 601c0 64 -3 122 -10 178zM496 825l-61 -61
c-7 -7 -18 -7 -26 -3l-181 96c-13 7 -18 22 -7 33l100 114c9 11 24 12 33 1l142 -149c8 -9 8 -23 0 -31zM472 849l-142 149l-100 -114l181 -96z" />
    <glyph glyph-name="uacute" unicode="&#xfa;" horiz-adv-x="748" 
d="M498 765l196 -2c11 0 21 -9 22 -20c7 -56 10 -115 10 -180c0 -344 -87 -623 -336 -623c-224 0 -362 317 -362 662c0 48 3 94 8 141c1 12 12 21 24 20l263 -22c13 -1 23 -12 20 -25c-5 -33 -9 -92 -9 -152c0 -191 22 -316 81 -316c61 0 85 96 85 248c0 80 -9 166 -24 243
c-3 15 7 26 22 26zM686 749l-196 2c15 -77 24 -164 24 -247c0 -165 -30 -270 -107 -270c-75 0 -103 134 -103 338c0 61 4 122 9 155l-263 22c-5 -47 -8 -92 -8 -139c0 -334 129 -640 340 -640c232 0 314 269 314 601c0 64 -3 122 -10 178zM400 762l-84 35
c-13 5 -18 19 -11 31l102 181c5 8 17 13 26 10l148 -48c17 -5 21 -23 9 -36l-166 -168c-5 -5 -17 -8 -24 -5zM400 790l166 168l-148 48l-102 -181z" />
    <glyph glyph-name="ucircumflex" unicode="&#xfb;" horiz-adv-x="748" 
d="M498 765l196 -2c11 0 21 -9 22 -20c7 -56 10 -115 10 -180c0 -344 -87 -623 -336 -623c-224 0 -362 317 -362 662c0 48 3 94 8 141c1 12 12 21 24 20l263 -22c13 -1 23 -12 20 -25c-5 -33 -9 -92 -9 -152c0 -191 22 -316 81 -316c61 0 85 96 85 248c0 80 -9 166 -24 243
c-3 15 7 26 22 26zM686 749l-196 2c15 -77 24 -164 24 -247c0 -165 -30 -270 -107 -270c-75 0 -103 134 -103 338c0 61 4 122 9 155l-263 22c-5 -47 -8 -92 -8 -139c0 -334 129 -640 340 -640c232 0 314 269 314 601c0 64 -3 122 -10 178zM576 814l-117 -41
c-11 -4 -23 2 -27 13l-31 77l-44 -80c-4 -8 -15 -13 -24 -10l-107 28c-15 4 -22 20 -14 33l121 192c3 5 13 10 20 10l103 -4c5 0 14 -6 17 -10l114 -175c8 -13 4 -28 -11 -33zM561 843l-114 175l-103 4l-121 -192l107 -28l66 120l48 -120z" />
    <glyph glyph-name="udieresis" unicode="&#xfc;" horiz-adv-x="748" 
d="M498 765l196 -2c11 0 21 -9 22 -20c7 -56 10 -115 10 -180c0 -344 -87 -623 -336 -623c-224 0 -362 317 -362 662c0 48 3 94 8 141c1 12 12 21 24 20l263 -22c13 -1 23 -12 20 -25c-5 -33 -9 -92 -9 -152c0 -191 22 -316 81 -316c61 0 85 96 85 248c0 80 -9 166 -24 243
c-3 15 7 26 22 26zM686 749l-196 2c15 -77 24 -164 24 -247c0 -165 -30 -270 -107 -270c-75 0 -103 134 -103 338c0 61 4 122 9 155l-263 22c-5 -47 -8 -92 -8 -139c0 -334 129 -640 340 -640c232 0 314 269 314 601c0 64 -3 122 -10 178zM302 776c-51 0 -91 42 -91 93
s40 93 91 93c49 0 90 -42 90 -93s-41 -93 -90 -93zM497 776c-51 0 -91 42 -91 93s40 93 91 93c49 0 90 -42 90 -93s-41 -93 -90 -93zM294 806c37 0 68 32 68 71s-31 71 -68 71c-39 0 -69 -32 -69 -71s30 -71 69 -71zM489 806c37 0 68 32 68 71s-31 71 -68 71
c-39 0 -69 -32 -69 -71s30 -71 69 -71z" />
    <glyph glyph-name="yacute" unicode="&#xfd;" horiz-adv-x="745" 
d="M518 -41l-261 5c-12 0 -22 11 -22 23l10 294c-88 113 -171 223 -259 336c-8 11 -6 24 5 31l204 139c11 7 23 5 30 -6l172 -256l127 248c5 9 17 15 28 11l198 -73c13 -5 18 -20 11 -32l-225 -396l4 -302c0 -12 -10 -22 -22 -22zM510 -11l-4 308l228 401l-198 73l-144 -282
l-193 288l-204 -139l264 -342l-10 -302zM377 769l-84 35c-13 5 -18 19 -11 31l102 181c5 8 17 13 26 10l148 -48c17 -5 21 -23 9 -36l-166 -168c-5 -5 -17 -8 -24 -5zM377 797l166 168l-148 48l-102 -181z" />
    <glyph glyph-name="thorn" unicode="&#xfe;" horiz-adv-x="707" 
d="M294 -37l-231 -9c-13 0 -23 9 -23 22l6 780c0 12 10 22 22 22l208 3c12 0 22 -10 22 -22l1 -88h22c256 0 371 -137 371 -278c0 -157 -139 -318 -380 -318h-3l6 -89c1 -12 -9 -23 -21 -23zM285 -7l-7 113c9 0 17 -1 26 -1c227 0 358 152 358 296c0 131 -108 256 -349 256
h-44l-1 110l-208 -3l-6 -780zM281 271l-5 179c23 8 51 12 78 12c85 0 124 -37 124 -80c0 -53 -62 -112 -171 -112c-8 0 -17 0 -26 1zM306 425l5 -141h4c95 0 149 47 149 90c0 31 -31 58 -102 58c-21 0 -39 -2 -56 -7z" />
    <glyph glyph-name="ydieresis" unicode="&#xff;" horiz-adv-x="745" 
d="M518 -41l-261 5c-12 0 -22 11 -22 23l10 294c-88 113 -171 223 -259 336c-8 11 -6 24 5 31l204 139c11 7 23 5 30 -6l172 -256l127 248c5 9 17 15 28 11l198 -73c13 -5 18 -20 11 -32l-225 -396l4 -302c0 -12 -10 -22 -22 -22zM510 -11l-4 308l228 401l-198 73l-144 -282
l-193 288l-204 -139l264 -342l-10 -302zM275 776c-51 0 -91 42 -91 93s40 93 91 93c49 0 90 -42 90 -93s-41 -93 -90 -93zM470 776c-51 0 -91 42 -91 93s40 93 91 93c49 0 90 -42 90 -93s-41 -93 -90 -93zM267 806c37 0 68 32 68 71s-31 71 -68 71c-39 0 -69 -32 -69 -71
s30 -71 69 -71zM462 806c37 0 68 32 68 71s-31 71 -68 71c-39 0 -69 -32 -69 -71s30 -71 69 -71z" />
    <glyph glyph-name="Amacron" unicode="&#x100;" 
d="M559 793l-64 -3c5 -2 8 -6 11 -12l269 -771c5 -15 -4 -28 -20 -29l-233 -10c-11 0 -19 8 -22 17l-43 166c-56 -3 -100 -4 -157 -7l-27 -141c-3 -9 -12 -18 -21 -18l-229 -12c-16 -1 -26 13 -22 28l205 755c3 8 11 15 19 16l180 14l-259 -10c-12 0 -23 10 -23 22l-4 146
c0 12 10 22 22 22l426 7c13 0 23 -10 22 -23l-9 -136c-1 -11 -10 -21 -21 -21zM746 8l-269 771l-258 -21l-205 -755l229 12l30 159l193 7l47 -183zM550 823l9 136l-426 -7l4 -146zM431 313h-131l57 236zM410 327l-43 133c-11 -45 -18 -81 -31 -133h74z" />
    <glyph glyph-name="amacron" unicode="&#x101;" horiz-adv-x="763" 
d="M570 795l-231 -10l135 -4c8 0 17 -7 20 -14l270 -727c5 -12 -2 -25 -15 -29l-219 -63c-12 -3 -24 3 -27 15l-41 136l-165 -12l-29 -135c-3 -11 -13 -20 -25 -17l-226 43c-13 3 -21 16 -17 29l239 766c1 3 3 6 6 8l-88 -3c-12 0 -23 10 -23 22l-4 146c0 12 10 22 22 22
l426 7c13 0 23 -10 22 -23l-9 -136c-1 -11 -10 -21 -21 -21zM735 40l-270 727l-213 7l-239 -766l226 -43l33 151l198 14l46 -153zM561 825l9 136l-426 -7l4 -146zM428 271l-128 -8l57 243zM407 284l-40 130l-31 -136c23 3 40 5 71 6z" />
    <glyph glyph-name="Abreve" unicode="&#x102;" 
d="M358 1013h170c12 0 22 -10 22 -22c0 -67 -19 -167 -118 -202l51 4c9 1 20 -6 23 -15l269 -771c5 -15 -4 -28 -20 -29l-233 -10c-11 0 -19 8 -22 17l-43 166c-56 -3 -100 -4 -157 -7l-27 -141c-3 -9 -12 -18 -21 -18l-229 -12c-16 -1 -26 13 -22 28l205 755
c3 8 11 15 19 16l77 6c-118 22 -139 130 -139 201c0 12 10 22 22 22h100c12 0 22 -10 22 -22c0 -21 8 -35 23 -35c7 0 10 7 10 18c-1 1 -2 10 -3 17c-1 4 -1 9 -1 12c0 12 10 22 22 22zM746 8l-269 771l-258 -21l-205 -755l229 12l30 159l193 7l47 -183zM520 999h-170
c1 -7 4 -19 4 -28c0 -23 -5 -41 -32 -41c-31 0 -45 22 -45 57h-100c0 -70 23 -182 159 -182c158 0 184 119 184 194zM431 313h-131l57 236zM410 327l-43 133c-11 -45 -18 -81 -31 -133h74z" />
    <glyph glyph-name="abreve" unicode="&#x103;" horiz-adv-x="763" 
d="M366 1017h170c12 0 22 -10 22 -22c0 -76 -23 -188 -156 -212l72 -2c8 0 17 -7 20 -14l270 -727c5 -12 -2 -25 -15 -29l-219 -63c-12 -3 -24 3 -27 15l-41 136l-165 -12l-29 -135c-3 -11 -13 -20 -25 -17l-226 43c-13 3 -21 16 -17 29l239 766c3 8 13 15 22 15l29 -1
c-101 29 -119 128 -119 196c0 12 10 22 22 22h100c12 0 22 -10 22 -22c0 -21 8 -35 23 -35c7 0 10 7 10 18c-1 1 -2 10 -3 17c-1 4 -1 9 -1 12c0 12 10 22 22 22zM735 40l-270 727l-213 7l-239 -766l226 -43l33 151l198 14l46 -153zM528 1003h-170c1 -7 4 -19 4 -28
c0 -23 -5 -41 -32 -41c-31 0 -45 22 -45 57h-100c0 -70 23 -182 159 -182c158 0 184 119 184 194zM428 271l-128 -8l57 243zM407 284l-40 130l-31 -136c23 3 40 5 71 6z" />
    <glyph glyph-name="Aogonek" unicode="&#x104;" 
d="M741 -106l39 -66c3 -5 4 -16 1 -21c-30 -57 -118 -97 -199 -97c-83 0 -158 38 -158 142c0 57 36 109 73 146c-15 55 -27 97 -40 153c-56 -3 -100 -4 -157 -7l-27 -141c-3 -9 -12 -18 -21 -18l-229 -12c-16 -1 -26 13 -22 28l205 755c3 8 11 15 19 16l258 21
c9 1 20 -6 23 -15l269 -771c5 -15 -5 -29 -21 -29c-98 0 -138 -45 -138 -78c0 -15 10 -28 25 -28c25 0 49 16 69 29c11 7 24 4 31 -7zM753 -175l-39 66c-23 -15 -49 -33 -81 -33c-28 0 -47 23 -47 50c0 43 46 100 160 100l-269 771l-258 -21l-205 -755l229 12l30 159l193 7
l47 -182c-37 -35 -75 -83 -75 -139c0 -87 65 -120 136 -120c73 0 152 34 179 85zM431 313h-131l57 236zM410 327l-43 133c-11 -45 -18 -81 -31 -133h74z" />
    <glyph glyph-name="aogonek" unicode="&#x105;" horiz-adv-x="763" 
d="M675 -112l39 -66c3 -5 4 -16 1 -21c-30 -57 -118 -97 -199 -97c-83 0 -158 38 -158 142c0 86 58 158 122 193l-18 60l-165 -12l-29 -135c-3 -11 -13 -20 -25 -17l-226 43c-13 3 -21 16 -17 29l239 766c3 8 13 15 22 15l213 -7c8 0 17 -7 20 -14l270 -727
c5 -12 -3 -25 -15 -29c-179 -53 -199 -85 -199 -117c0 -15 10 -28 25 -28c25 0 49 16 69 29c11 7 24 4 31 -7zM687 -181l-39 66c-23 -15 -49 -33 -81 -33c-28 0 -47 23 -47 50c0 40 23 82 215 138l-270 727l-213 7l-239 -766l226 -43l33 151l198 14l28 -95
c-64 -27 -126 -96 -126 -181c0 -87 65 -120 136 -120c73 0 152 34 179 85zM428 271l-128 -8l57 243zM407 284l-40 130l-31 -136c23 3 40 5 71 6z" />
    <glyph glyph-name="Cacute" unicode="&#x106;" horiz-adv-x="639" 
d="M553 257l72 -230c4 -11 -3 -24 -14 -28c-68 -24 -134 -35 -195 -35c-243 0 -410 174 -410 385c0 194 138 408 420 408c49 0 103 -8 159 -31c11 -4 17 -17 13 -28l-62 -179c-4 -13 -19 -20 -31 -13c-21 11 -44 15 -64 15c-111 0 -161 -66 -161 -134
c0 -100 63 -144 136 -144c35 0 71 9 106 27c13 7 27 2 31 -13zM596 28l-72 230c-37 -19 -77 -29 -116 -29c-85 0 -158 51 -158 166c0 79 58 156 183 156c24 0 50 -5 74 -17l62 179c-55 21 -104 30 -151 30c-268 0 -398 -202 -398 -386c0 -200 159 -363 388 -363
c59 0 121 11 188 34zM343 757l-84 35c-13 5 -18 19 -11 31l102 181c5 8 17 13 26 10l148 -48c17 -5 21 -23 9 -36l-166 -168c-5 -5 -17 -8 -24 -5zM343 785l166 168l-148 48l-102 -181z" />
    <glyph glyph-name="cacute" unicode="&#x107;" horiz-adv-x="561" 
d="M536 260l-1 -285c0 -11 -8 -21 -19 -22c-29 -4 -58 -5 -86 -5c-279 0 -404 187 -404 383c0 216 151 441 413 441c19 0 38 -1 56 -3c11 -1 19 -9 20 -20l20 -255c1 -13 -9 -24 -22 -24c-132 0 -203 -61 -203 -131c0 -52 61 -73 118 -73c31 0 56 5 77 14c16 7 31 -3 31 -20
zM505 -17l1 285c-25 -11 -53 -16 -86 -16c-68 0 -140 27 -140 95c0 82 78 153 225 153l-20 255c-18 2 -36 3 -54 3c-248 0 -391 -215 -391 -419c0 -185 118 -361 382 -361c27 0 54 1 83 5zM308 763l-84 35c-13 5 -18 19 -11 31l102 181c5 8 17 13 26 10l148 -48
c17 -5 21 -23 9 -36l-166 -168c-5 -5 -17 -8 -24 -5zM308 791l166 168l-148 48l-102 -181z" />
    <glyph glyph-name="Ccircumflex" unicode="&#x108;" horiz-adv-x="639" 
d="M553 257l72 -230c4 -11 -3 -24 -14 -28c-68 -24 -134 -35 -195 -35c-243 0 -410 174 -410 385c0 194 138 408 420 408c49 0 103 -8 159 -31c11 -4 17 -17 13 -28l-62 -179c-4 -13 -19 -20 -31 -13c-21 11 -44 15 -64 15c-111 0 -161 -66 -161 -134
c0 -100 63 -144 136 -144c35 0 71 9 106 27c13 7 27 2 31 -13zM596 28l-72 230c-37 -19 -77 -29 -116 -29c-85 0 -158 51 -158 166c0 79 58 156 183 156c24 0 50 -5 74 -17l62 179c-55 21 -104 30 -151 30c-268 0 -398 -202 -398 -386c0 -200 159 -363 388 -363
c59 0 121 11 188 34zM534 807l-117 -41c-11 -4 -23 2 -27 13l-31 77l-44 -80c-4 -8 -15 -13 -24 -10l-107 28c-15 4 -22 20 -14 33l121 192c3 5 13 10 20 10l103 -4c5 0 14 -6 17 -10l114 -175c8 -13 4 -28 -11 -33zM519 836l-114 175l-103 4l-121 -192l107 -28l66 120
l48 -120z" />
    <glyph glyph-name="ccircumflex" unicode="&#x109;" horiz-adv-x="561" 
d="M536 260l-1 -285c0 -11 -8 -21 -19 -22c-29 -4 -58 -5 -86 -5c-279 0 -404 187 -404 383c0 216 151 441 413 441c19 0 38 -1 56 -3c11 -1 19 -9 20 -20l20 -255c1 -13 -9 -24 -22 -24c-132 0 -203 -61 -203 -131c0 -52 61 -73 118 -73c31 0 56 5 77 14c16 7 31 -3 31 -20
zM505 -17l1 285c-25 -11 -53 -16 -86 -16c-68 0 -140 27 -140 95c0 82 78 153 225 153l-20 255c-18 2 -36 3 -54 3c-248 0 -391 -215 -391 -419c0 -185 118 -361 382 -361c27 0 54 1 83 5zM509 814l-117 -41c-11 -4 -23 2 -27 13l-31 77l-44 -80c-4 -8 -15 -13 -24 -10
l-107 28c-15 4 -22 20 -14 33l121 192c3 5 13 10 20 10l103 -4c5 0 14 -6 17 -10l114 -175c8 -13 4 -28 -11 -33zM494 843l-114 175l-103 4l-121 -192l107 -28l66 120l48 -120z" />
    <glyph glyph-name="Cdotaccent" unicode="&#x10a;" horiz-adv-x="639" 
d="M553 257l72 -230c4 -11 -3 -24 -14 -28c-68 -24 -134 -35 -195 -35c-243 0 -410 174 -410 385c0 194 138 408 420 408c49 0 103 -8 159 -31c11 -4 17 -17 13 -28l-62 -179c-4 -13 -19 -20 -31 -13c-21 11 -44 15 -64 15c-111 0 -161 -66 -161 -134
c0 -100 63 -144 136 -144c35 0 71 9 106 27c13 7 27 2 31 -13zM596 28l-72 230c-37 -19 -77 -29 -116 -29c-85 0 -158 51 -158 166c0 79 58 156 183 156c24 0 50 -5 74 -17l62 179c-55 21 -104 30 -151 30c-268 0 -398 -202 -398 -386c0 -200 159 -363 388 -363
c59 0 121 11 188 34zM364 762c-51 0 -91 42 -91 93s40 93 91 93c49 0 90 -42 90 -93s-41 -93 -90 -93zM356 792c37 0 68 32 68 71s-31 71 -68 71c-39 0 -69 -32 -69 -71s30 -71 69 -71z" />
    <glyph glyph-name="cdotaccent" unicode="&#x10b;" horiz-adv-x="561" 
d="M536 260l-1 -285c0 -11 -8 -21 -19 -22c-29 -4 -58 -5 -86 -5c-279 0 -404 187 -404 383c0 216 151 441 413 441c19 0 38 -1 56 -3c11 -1 19 -9 20 -20l20 -255c1 -13 -9 -24 -22 -24c-132 0 -203 -61 -203 -131c0 -52 61 -73 118 -73c31 0 56 5 77 14c16 7 31 -3 31 -20
zM505 -17l1 285c-25 -11 -53 -16 -86 -16c-68 0 -140 27 -140 95c0 82 78 153 225 153l-20 255c-18 2 -36 3 -54 3c-248 0 -391 -215 -391 -419c0 -185 118 -361 382 -361c27 0 54 1 83 5zM321 775c-51 0 -91 42 -91 93s40 93 91 93c49 0 90 -42 90 -93s-41 -93 -90 -93z
M313 805c37 0 68 32 68 71s-31 71 -68 71c-39 0 -69 -32 -69 -71s30 -71 69 -71z" />
    <glyph glyph-name="Ccaron" unicode="&#x10c;" horiz-adv-x="639" 
d="M553 257l72 -230c4 -11 -3 -24 -14 -28c-68 -24 -134 -35 -195 -35c-243 0 -410 174 -410 385c0 184 125 391 384 407l-83 3c-5 0 -14 6 -17 10l-114 175c-8 13 -4 28 11 33l117 41c11 4 23 -2 27 -13l31 -77l44 80c4 8 15 13 24 10l107 -28c15 -4 22 -20 14 -33
l-121 -192c-2 -3 -6 -5 -12 -8h8c49 0 103 -8 159 -31c11 -4 17 -17 13 -28l-62 -179c-4 -13 -19 -20 -31 -13c-21 11 -44 15 -64 15c-111 0 -161 -66 -161 -134c0 -100 63 -144 136 -144c35 0 71 9 106 27c13 7 27 2 31 -13zM596 28l-72 230c-37 -19 -77 -29 -116 -29
c-85 0 -158 51 -158 166c0 79 58 156 183 156c24 0 50 -5 74 -17l62 179c-55 21 -104 30 -151 30c-268 0 -398 -202 -398 -386c0 -200 159 -363 388 -363c59 0 121 11 188 34zM403 785l121 192l-107 28l-66 -120l-48 120l-117 -41l114 -175z" />
    <glyph glyph-name="ccaron" unicode="&#x10d;" horiz-adv-x="561" 
d="M536 260l-1 -285c0 -11 -8 -21 -19 -22c-29 -4 -58 -5 -86 -5c-279 0 -404 187 -404 383c0 216 151 441 413 441c19 0 38 -1 56 -3c11 -1 19 -9 20 -20l20 -255c1 -13 -9 -24 -22 -24c-132 0 -203 -61 -203 -131c0 -52 61 -73 118 -73c31 0 56 5 77 14c16 7 31 -3 31 -20
zM505 -17l1 285c-25 -11 -53 -16 -86 -16c-68 0 -140 27 -140 95c0 82 78 153 225 153l-20 255c-18 2 -36 3 -54 3c-248 0 -391 -215 -391 -419c0 -185 118 -361 382 -361c27 0 54 1 83 5zM414 782l-103 -4c-5 0 -15 4 -18 8l-128 164c-9 12 -7 27 8 34l113 51
c11 5 24 1 29 -10l37 -72l36 81c4 8 15 16 24 13l109 -19c16 -3 23 -17 16 -32l-104 -202c-3 -7 -12 -12 -19 -12zM405 812l104 202l-109 19l-55 -125l-58 115l-113 -51l128 -164z" />
    <glyph glyph-name="Dcaron" unicode="&#x10e;" 
d="M47 -22l7 737c0 11 9 21 20 22c43 3 85 5 128 5c314 0 545 -126 545 -374c0 -246 -290 -417 -594 -417c-31 0 -58 2 -86 5c-11 1 -20 11 -20 22zM68 723l-7 -737c28 -3 56 -5 84 -5c293 0 572 162 572 395s-222 352 -523 352c-43 0 -83 -2 -126 -5zM424 734l-101 16
c-5 1 -14 7 -17 12l-94 186c-7 13 0 28 15 31l121 28c11 3 23 -4 26 -15l22 -79c19 25 35 48 52 73c5 8 17 11 26 8l103 -39c15 -7 20 -23 9 -35l-142 -178c-4 -5 -13 -9 -20 -8zM252 210l15 324c7 0 12 1 17 1c128 0 193 -76 193 -154c0 -84 -75 -171 -225 -171zM419 764
l142 178l-103 39l-79 -111l-34 124l-121 -28l94 -186zM463 373c0 67 -57 129 -167 132l-13 -280c119 8 180 80 180 148z" />
    <glyph glyph-name="dcaron" unicode="&#x10f;" 
d="M73 -12l-36 730c-1 11 7 20 18 23c52 11 110 16 171 16c355 0 549 -170 549 -403c0 -197 -186 -393 -588 -393c-33 0 -65 2 -95 6c-11 1 -19 10 -19 21zM51 727l36 -730c30 -4 61 -6 92 -6c387 0 566 185 566 371c0 220 -186 381 -527 381c-59 0 -115 -5 -167 -16z
M424 745l-101 16c-5 1 -14 7 -17 12l-94 186c-7 13 0 28 15 31l121 28c11 3 23 -4 26 -15l22 -79c19 25 35 48 52 73c5 8 17 11 26 8l103 -39c15 -7 20 -23 9 -35l-142 -178c-4 -5 -13 -9 -20 -8zM291 229l6 294c147 -3 237 -61 237 -154c0 -95 -83 -142 -208 -142
c-11 0 -23 1 -35 2zM419 775l142 178l-103 39l-79 -111l-34 124l-121 -28l94 -186zM327 492l-6 -251h13c113 0 186 40 186 120c0 75 -73 124 -193 131z" />
    <glyph glyph-name="Dcroat" unicode="&#x110;" horiz-adv-x="769" 
d="M47 -22l2 254c-5 -1 -11 -1 -16 -1c-12 -1 -23 8 -24 20l-14 159c-1 12 9 23 21 24l35 3l3 278c0 11 9 21 20 22c43 3 85 5 128 5c314 0 545 -126 545 -374c0 -246 -290 -417 -594 -417c-31 0 -58 2 -86 5c-11 1 -20 11 -20 22zM63 265l-2 -279c28 -3 56 -5 84 -5
c293 0 572 162 572 395s-222 352 -523 352c-43 0 -83 -2 -126 -5l-3 -299l-56 -4l14 -159zM370 295l-16 149l-92 -7l5 97c7 0 12 1 17 1c128 0 193 -76 193 -154c0 -84 -75 -171 -225 -171l3 74zM380 265l-96 -10c0 -7 0 -15 -1 -30c119 8 180 80 180 148
c0 67 -57 129 -167 132l-3 -53c23 3 45 5 68 6c12 1 22 -8 23 -20l16 -149c1 -12 -8 -23 -20 -24z" />
    <glyph glyph-name="dslash" unicode="&#x111;" 
d="M73 -12l-14 277c-11 0 -19 -1 -30 -1s-21 8 -22 19l-16 121c-3 13 8 24 21 25l39 3l-14 286c-1 11 7 20 18 23c52 11 110 16 171 16c355 0 549 -170 549 -403c0 -197 -186 -393 -588 -393c-33 0 -65 2 -95 6c-11 1 -19 10 -19 21zM72 295l15 -298c30 -4 61 -6 92 -6
c387 0 566 185 566 371c0 220 -186 381 -527 381c-59 0 -115 -5 -167 -16l15 -308l-61 -4l16 -121zM417 303l-19 142l-103 -8l2 86c147 -3 237 -61 237 -154c0 -95 -83 -142 -208 -142c-11 0 -23 1 -35 2l1 71zM426 273l-104 -2c0 -8 -1 -17 -1 -30h13c113 0 186 40 186 120
c0 75 -73 124 -193 131c-1 -13 -2 -21 -2 -40l80 7c11 1 22 -8 23 -19l19 -142c3 -13 -8 -25 -21 -25z" />
    <glyph glyph-name="Emacron" unicode="&#x112;" horiz-adv-x="627" 
d="M587 -27l-481 7c-11 0 -21 9 -22 20l-57 732c-1 12 7 23 19 24l471 56c13 1 24 -7 25 -20l13 -173c1 -12 -8 -23 -20 -24l-253 -30c3 -20 3 -32 6 -59l193 15c12 1 23 -8 24 -20l16 -159c1 -12 -8 -23 -20 -24l-187 -16c3 -21 4 -37 8 -64l249 25c13 1 23 -8 24 -21
l14 -246c1 -13 -9 -23 -22 -23zM579 3l-14 246l-270 -27l-15 108l211 18l-16 159l-215 -16l-10 102l275 32l-13 173l-471 -56l57 -732zM491 811l-411 -49c-12 -1 -24 8 -25 20l-15 146c-1 12 8 23 20 24l425 39c13 1 24 -9 24 -22l1 -136c0 -11 -8 -21 -19 -22zM480 841
l-1 136l-425 -39l15 -146z" />
    <glyph glyph-name="emacron" unicode="&#x113;" horiz-adv-x="581" 
d="M550 12l-463 -73c-13 -3 -24 8 -25 21l-39 758c-1 12 8 22 20 23l483 47c13 1 24 -9 24 -22l4 -242c0 -11 -9 -21 -20 -22l-282 -22l3 -44l224 20c12 1 23 -9 24 -21l9 -140c1 -12 -8 -22 -20 -23l-225 -24l3 -55l260 32c13 1 24 -7 25 -20l14 -169c1 -11 -8 -21 -19 -24
zM539 42l-14 169l-285 -35l-4 100l246 26l-9 140l-247 -22l-4 89l302 23l-4 242l-483 -47l39 -758zM491 811l-411 -49c-12 -1 -24 8 -25 20l-15 146c-1 12 8 23 20 24l425 39c13 1 24 -9 24 -22l1 -136c0 -11 -8 -21 -19 -22zM480 841l-1 136l-425 -39l15 -146z" />
    <glyph glyph-name="Ebreve" unicode="&#x114;" horiz-adv-x="627" 
d="M275 1016h170c12 0 22 -10 22 -22c0 -67 -19 -167 -118 -202l168 20c13 1 24 -7 25 -20l13 -173c1 -12 -8 -23 -20 -24l-253 -30c3 -20 3 -32 6 -59l193 15c12 1 23 -8 24 -20l16 -159c1 -12 -8 -23 -20 -24l-187 -16c3 -21 4 -37 8 -64l249 25c13 1 23 -8 24 -21
l14 -246c1 -13 -9 -23 -22 -23l-481 7c-11 0 -21 9 -22 20l-57 732c-1 12 7 23 19 24l193 23c-136 11 -159 129 -159 203c0 12 10 22 22 22h100c12 0 22 -10 22 -22c0 -21 8 -35 23 -35c7 0 10 7 10 18c-1 1 -2 10 -3 17c-1 4 -1 9 -1 12c0 12 10 22 22 22zM579 3l-14 246
l-270 -27l-15 108l211 18l-16 159l-215 -16l-10 102l275 32l-13 173l-471 -56l57 -732zM437 1002h-170c1 -7 4 -19 4 -28c0 -23 -5 -41 -32 -41c-31 0 -45 22 -45 57h-100c0 -70 23 -182 159 -182c158 0 184 119 184 194z" />
    <glyph glyph-name="ebreve" unicode="&#x115;" horiz-adv-x="581" 
d="M550 12l-463 -73c-13 -3 -24 8 -25 21l-39 758c-1 12 8 22 20 23l483 47c13 1 24 -9 24 -22l4 -242c0 -11 -9 -21 -20 -22l-282 -22l3 -44l224 20c12 1 23 -9 24 -21l9 -140c1 -12 -8 -22 -20 -23l-225 -24l3 -55l260 32c13 1 24 -7 25 -20l14 -169c1 -11 -8 -21 -19 -24
zM539 42l-14 169l-285 -35l-4 100l246 26l-9 140l-247 -22l-4 89l302 23l-4 242l-483 -47l39 -758zM282 1006h170c12 0 22 -10 22 -22c0 -84 -30 -216 -206 -216c-155 0 -181 127 -181 204c0 12 10 22 22 22h100c12 0 22 -10 22 -22c0 -21 8 -35 23 -35c7 0 10 7 10 18
c-1 1 -2 10 -3 17c-1 4 -1 9 -1 12c0 12 10 22 22 22zM444 992h-170c1 -7 4 -19 4 -28c0 -23 -5 -41 -32 -41c-31 0 -45 22 -45 57h-100c0 -70 23 -182 159 -182c158 0 184 119 184 194z" />
    <glyph glyph-name="Edotaccent" unicode="&#x116;" horiz-adv-x="627" 
d="M587 -27l-481 7c-11 0 -21 9 -22 20l-57 732c-1 12 7 23 19 24l235 28c-49 0 -89 42 -89 93s40 93 91 93c49 0 90 -42 90 -93c0 -43 -28 -79 -67 -90l211 25c13 1 24 -7 25 -20l13 -173c1 -12 -8 -23 -20 -24l-253 -30c3 -20 3 -32 6 -59l193 15c12 1 23 -8 24 -20
l16 -159c1 -12 -8 -23 -20 -24l-187 -16c3 -21 4 -37 8 -64l249 25c13 1 23 -8 24 -21l14 -246c1 -13 -9 -23 -22 -23zM579 3l-14 246l-270 -27l-15 108l211 18l-16 159l-215 -16l-10 102l275 32l-13 173l-471 -56l57 -732zM275 814c37 0 68 32 68 71s-31 71 -68 71
c-39 0 -69 -32 -69 -71s30 -71 69 -71z" />
    <glyph glyph-name="edotaccent" unicode="&#x117;" horiz-adv-x="581" 
d="M550 12l-463 -73c-13 -3 -24 8 -25 21l-39 758c-1 12 8 22 20 23l483 47c13 1 24 -9 24 -22l4 -242c0 -11 -9 -21 -20 -22l-282 -22l3 -44l224 20c12 1 23 -9 24 -21l9 -140c1 -12 -8 -22 -20 -23l-225 -24l3 -55l260 32c13 1 24 -7 25 -20l14 -169c1 -11 -8 -21 -19 -24
zM539 42l-14 169l-285 -35l-4 100l246 26l-9 140l-247 -22l-4 89l302 23l-4 242l-483 -47l39 -758zM281 778c-51 0 -91 42 -91 93s40 93 91 93c49 0 90 -42 90 -93s-41 -93 -90 -93zM273 808c37 0 68 32 68 71s-31 71 -68 71c-39 0 -69 -32 -69 -71s30 -71 69 -71z" />
    <glyph glyph-name="Eogonek" unicode="&#x118;" horiz-adv-x="627" 
d="M638 -103l39 -66c4 -7 3 -17 -1 -24c-24 -35 -119 -99 -195 -99c-78 0 -160 63 -160 149c0 45 22 84 50 119l-265 4c-11 0 -21 9 -22 20l-57 732c-1 12 7 23 19 24l471 56c13 1 24 -7 25 -20l13 -173c1 -12 -8 -23 -20 -24l-253 -30c3 -20 3 -32 6 -59l193 15
c12 1 23 -8 24 -20l16 -159c1 -12 -8 -23 -20 -24l-187 -16c3 -21 4 -37 8 -64l249 25c13 1 23 -8 24 -21l14 -246c0 -11 -7 -19 -16 -22c-55 -15 -80 -41 -80 -69c0 -17 8 -30 27 -30c23 0 47 16 67 29c11 7 24 4 31 -7zM650 -172l-39 66c-23 -15 -50 -33 -79 -33
c-32 0 -49 23 -49 52c0 39 31 73 96 90l-14 246l-270 -27l-15 108l211 18l-16 159l-215 -16l-10 102l275 32l-13 173l-471 -56l57 -732l316 -4c-38 -36 -79 -85 -79 -141c0 -73 70 -127 138 -127c69 0 153 58 177 90z" />
    <glyph glyph-name="eogonek" unicode="&#x119;" horiz-adv-x="581" 
d="M606 -71l39 -66c4 -7 3 -17 -1 -24c-24 -35 -119 -99 -195 -99c-79 0 -160 65 -160 148c0 31 12 62 27 87c-77 -12 -152 -25 -229 -36c-13 -3 -24 8 -25 21l-39 758c-1 12 8 22 20 23l483 47c13 1 24 -9 24 -22l4 -242c0 -11 -9 -21 -20 -22l-282 -22l3 -44l224 20
c12 1 23 -9 24 -21l9 -140c1 -12 -8 -22 -20 -23l-225 -24l3 -55l260 32c13 1 24 -7 25 -20l14 -169c1 -9 -7 -20 -16 -23c-49 -15 -72 -47 -72 -76c0 -17 8 -30 27 -30c23 0 47 16 67 29c11 7 24 4 31 -7zM618 -140l-39 66c-23 -15 -50 -33 -79 -33c-32 0 -49 23 -49 52
c0 39 28 78 88 97l-14 169l-285 -35l-4 100l246 26l-9 140l-247 -22l-4 89l302 23l-4 242l-483 -47l39 -758l282 44c-29 -32 -55 -73 -55 -117c0 -72 70 -126 138 -126c69 0 153 58 177 90z" />
    <glyph glyph-name="Ecaron" unicode="&#x11a;" horiz-adv-x="627" 
d="M587 -27l-481 7c-11 0 -21 9 -22 20l-57 732c-1 12 7 23 19 24l218 26l-20 -1c-5 0 -15 4 -18 8l-128 164c-9 12 -7 27 8 34l113 51c11 5 24 1 29 -10l37 -72l36 81c4 8 15 16 24 13l109 -19c16 -3 23 -17 16 -32l-104 -201l-4 -5l155 19c13 1 24 -7 25 -20l13 -173
c1 -12 -8 -23 -20 -24l-253 -30c3 -20 3 -32 6 -59l193 15c12 1 23 -8 24 -20l16 -159c1 -12 -8 -23 -20 -24l-187 -16c3 -21 4 -37 8 -64l249 25c13 1 23 -8 24 -21l14 -246c1 -13 -9 -23 -22 -23zM579 3l-14 246l-270 -27l-15 108l211 18l-16 159l-215 -16l-10 102l275 32
l-13 173l-471 -56l57 -732zM338 816l104 201l-109 19l-55 -125l-58 115l-113 -51l128 -164z" />
    <glyph glyph-name="ecaron" unicode="&#x11b;" horiz-adv-x="581" 
d="M550 12l-463 -73c-13 -3 -24 8 -25 21l-39 758c-1 12 8 22 20 23l483 47c13 1 24 -9 24 -22l4 -242c0 -11 -9 -21 -20 -22l-282 -22l3 -44l224 20c12 1 23 -9 24 -21l9 -140c1 -12 -8 -22 -20 -23l-225 -24l3 -55l260 32c13 1 24 -7 25 -20l14 -169c1 -11 -8 -21 -19 -24
zM539 42l-14 169l-285 -35l-4 100l246 26l-9 140l-247 -22l-4 89l302 23l-4 242l-483 -47l39 -758zM347 776l-103 -5c-5 0 -15 4 -18 8l-128 164c-9 12 -7 27 8 34l113 51c11 5 24 1 29 -10l37 -72l36 81c4 8 15 16 24 13l109 -19c16 -3 23 -17 16 -32l-104 -201
c-3 -5 -12 -12 -19 -12zM338 806l104 201l-109 19l-55 -125l-58 115l-113 -51l128 -164z" />
    <glyph glyph-name="Gcircumflex" unicode="&#x11c;" horiz-adv-x="862" 
d="M583 822l-103 -36c84 -3 169 -22 252 -63c11 -5 15 -19 10 -30l-91 -184c-5 -11 -19 -15 -30 -10c-52 27 -111 45 -167 45c-81 0 -151 -44 -151 -174c0 -114 83 -195 155 -195c36 0 69 17 88 58l-97 2c-12 0 -22 10 -22 22l-3 146c0 12 9 22 21 22l369 17
c11 0 22 -8 23 -19c3 -15 2 -31 2 -46c0 -305 -204 -437 -392 -437c-207 0 -420 162 -420 430c0 252 189 404 417 415c-3 3 -4 5 -5 9l-31 77l-44 -80c-4 -8 -15 -13 -24 -10l-107 28c-15 4 -22 20 -14 33l121 192c3 5 13 10 20 10l103 -4c5 0 14 -6 17 -10l114 -175
c8 -13 4 -28 -11 -33zM441 265l127 -2c-19 -72 -65 -102 -118 -102c-80 0 -177 90 -177 217c0 147 80 196 173 196c60 0 122 -20 177 -47l91 184c-84 43 -169 61 -253 61c-226 0 -420 -147 -420 -394c0 -255 202 -408 398 -408c177 0 370 124 370 415c0 15 1 28 -2 43
l-369 -17zM568 851l-114 175l-103 4l-121 -192l107 -28l66 120l48 -120z" />
    <glyph glyph-name="gcircumflex" unicode="&#x11d;" horiz-adv-x="732" 
d="M574 812l-113 -40c15 1 27 2 42 2c56 0 96 -7 152 -22c11 -3 17 -13 16 -24l-35 -243c-3 -17 -18 -24 -33 -16c-35 19 -85 30 -138 30c-96 0 -200 -36 -200 -123c0 -84 66 -140 187 -171l-3 37l-68 4c-11 0 -21 10 -21 21l-5 130c0 12 10 23 22 23l312 6
c12 0 22 -10 22 -22c0 -234 -44 -365 -143 -469c-3 -4 -14 -8 -19 -7c-305 37 -527 230 -527 470c0 180 171 349 420 373c-6 3 -10 7 -12 13l-31 77l-44 -80c-4 -8 -15 -13 -24 -10l-107 28c-15 4 -22 20 -14 33l121 192c3 5 13 10 20 10l103 -4c5 0 14 -6 17 -10l114 -175
c8 -13 4 -28 -11 -33zM463 271l4 -86c-145 33 -232 100 -232 199c0 101 114 145 222 145c57 0 112 -12 149 -33l35 243c-53 15 -93 21 -146 21c-269 0 -459 -172 -459 -354c0 -228 214 -411 508 -448c96 99 137 228 137 454l-312 -6l5 -130zM559 841l-114 175l-103 4
l-121 -192l107 -28l66 120l48 -120z" />
    <glyph glyph-name="Gbreve" unicode="&#x11e;" horiz-adv-x="862" 
d="M432 1016h170c12 0 22 -10 22 -22c0 -73 -23 -179 -139 -208c83 -3 166 -23 247 -63c11 -5 15 -19 10 -30l-91 -184c-5 -11 -19 -15 -30 -10c-52 27 -111 45 -167 45c-81 0 -151 -44 -151 -174c0 -114 83 -195 155 -195c36 0 69 17 88 58l-97 2c-12 0 -22 10 -22 22
l-3 146c0 12 9 22 21 22l369 17c11 0 22 -8 23 -19c3 -15 2 -31 2 -46c0 -305 -204 -437 -392 -437c-207 0 -420 162 -420 430c0 230 159 378 360 410c-128 16 -150 129 -150 202c0 12 10 22 22 22h100c12 0 22 -10 22 -22c0 -21 8 -35 23 -35c7 0 10 7 10 18
c-1 1 -2 10 -3 17c-1 4 -1 9 -1 12c0 12 10 22 22 22zM441 265l127 -2c-19 -72 -65 -102 -118 -102c-80 0 -177 90 -177 217c0 147 80 196 173 196c60 0 122 -20 177 -47l91 184c-84 43 -169 61 -253 61c-226 0 -420 -147 -420 -394c0 -255 202 -408 398 -408
c177 0 370 124 370 415c0 15 1 28 -2 43l-369 -17zM594 1002h-170c1 -7 4 -19 4 -28c0 -23 -5 -41 -32 -41c-31 0 -45 22 -45 57h-100c0 -70 23 -182 159 -182c158 0 184 119 184 194z" />
    <glyph glyph-name="gbreve" unicode="&#x11f;" horiz-adv-x="732" 
d="M452 205l-3 37l-68 4c-11 0 -21 10 -21 21l-5 130c0 12 10 23 22 23l312 6c12 0 22 -10 22 -22c0 -234 -44 -365 -143 -469c-3 -4 -14 -8 -19 -7c-305 37 -527 230 -527 470c0 193 198 376 481 376c56 0 96 -7 152 -22c11 -3 17 -13 16 -24l-35 -243
c-3 -17 -18 -24 -33 -16c-35 19 -85 30 -138 30c-96 0 -200 -36 -200 -123c0 -84 66 -140 187 -171zM463 271l4 -86c-145 33 -232 100 -232 199c0 101 114 145 222 145c57 0 112 -12 149 -33l35 243c-53 15 -93 21 -146 21c-269 0 -459 -172 -459 -354
c0 -228 214 -411 508 -448c96 99 137 228 137 454l-312 -6l5 -130zM417 1010h170c12 0 22 -10 22 -22c0 -84 -30 -216 -206 -216c-155 0 -181 127 -181 204c0 12 10 22 22 22h100c12 0 22 -10 22 -22c0 -21 8 -35 23 -35c7 0 10 7 10 18c-1 1 -2 10 -3 17c-1 4 -1 9 -1 12
c0 12 10 22 22 22zM579 996h-170c1 -7 4 -19 4 -28c0 -23 -5 -41 -32 -41c-31 0 -45 22 -45 57h-100c0 -70 23 -182 159 -182c158 0 184 119 184 194z" />
    <glyph glyph-name="Gdotaccent" unicode="&#x120;" horiz-adv-x="862" 
d="M546 233l-97 2c-12 0 -22 10 -22 22l-3 146c0 12 9 22 21 22l369 17c11 0 22 -8 23 -19c3 -15 2 -31 2 -46c0 -305 -204 -437 -392 -437c-207 0 -420 162 -420 430c0 243 176 392 391 413c-44 7 -78 46 -78 93c0 51 40 93 91 93c49 0 90 -42 90 -93
c0 -44 -30 -80 -69 -91c7 0 10 1 17 1c88 0 176 -20 263 -63c11 -5 15 -19 10 -30l-91 -184c-5 -11 -19 -15 -30 -10c-52 27 -111 45 -167 45c-81 0 -151 -44 -151 -174c0 -114 83 -195 155 -195c36 0 69 17 88 58zM441 265l127 -2c-19 -72 -65 -102 -118 -102
c-80 0 -177 90 -177 217c0 147 80 196 173 196c60 0 122 -20 177 -47l91 184c-84 43 -169 61 -253 61c-226 0 -420 -147 -420 -394c0 -255 202 -408 398 -408c177 0 370 124 370 415c0 15 1 28 -2 43l-369 -17zM423 813c37 0 68 32 68 71s-31 71 -68 71
c-39 0 -69 -32 -69 -71s30 -71 69 -71z" />
    <glyph glyph-name="gdotaccent" unicode="&#x121;" horiz-adv-x="732" 
d="M452 205l-3 37l-68 4c-11 0 -21 10 -21 21l-5 130c0 12 10 23 22 23l312 6c12 0 22 -10 22 -22c0 -234 -44 -365 -143 -469c-3 -4 -14 -8 -19 -7c-305 37 -527 230 -527 470c0 193 198 376 481 376c56 0 96 -7 152 -22c11 -3 17 -13 16 -24l-35 -243
c-3 -17 -18 -24 -33 -16c-35 19 -85 30 -138 30c-96 0 -200 -36 -200 -123c0 -84 66 -140 187 -171zM463 271l4 -86c-145 33 -232 100 -232 199c0 101 114 145 222 145c57 0 112 -12 149 -33l35 243c-53 15 -93 21 -146 21c-269 0 -459 -172 -459 -354
c0 -228 214 -411 508 -448c96 99 137 228 137 454l-312 -6l5 -130zM366 783c-51 0 -91 42 -91 93s40 93 91 93c49 0 90 -42 90 -93s-41 -93 -90 -93zM358 813c37 0 68 32 68 71s-31 71 -68 71c-39 0 -69 -32 -69 -71s30 -71 69 -71z" />
    <glyph glyph-name="Gcommaaccent" unicode="&#x122;" horiz-adv-x="862" 
d="M449 -345l-132 -18c-16 -3 -28 10 -25 26l54 276c1 5 4 9 7 12c-173 40 -326 192 -326 419c0 260 204 416 442 416c88 0 176 -20 263 -63c11 -5 15 -19 10 -30l-91 -184c-5 -11 -19 -15 -30 -10c-52 27 -111 45 -167 45c-81 0 -151 -44 -151 -174
c0 -114 83 -195 155 -195c36 0 69 17 88 58l-97 2c-12 0 -22 10 -22 22l-3 146c0 12 9 22 21 22l369 17c11 0 22 -8 23 -19c3 -15 2 -31 2 -46c0 -279 -172 -415 -345 -434l57 -7c16 -3 24 -16 17 -31l-102 -237c-3 -5 -10 -12 -17 -13zM441 265l127 -2
c-19 -72 -65 -102 -118 -102c-80 0 -177 90 -177 217c0 147 80 196 173 196c60 0 122 -20 177 -47l91 184c-84 43 -169 61 -253 61c-226 0 -420 -147 -420 -394c0 -255 202 -408 398 -408c177 0 370 124 370 415c0 15 1 28 -2 43l-369 -17zM438 -315l102 237l-180 21
l-54 -276z" />
    <glyph glyph-name="gcommaaccent" unicode="&#x123;" horiz-adv-x="732" 
d="M403 -345l-132 -18c-16 -3 -28 10 -25 26l54 276c3 11 14 19 25 18l162 -19c-272 56 -465 236 -465 460c0 193 198 376 481 376c56 0 96 -7 152 -22c11 -3 17 -13 16 -24l-35 -243c-3 -17 -18 -24 -33 -16c-35 19 -85 30 -138 30c-96 0 -200 -36 -200 -123
c0 -84 66 -140 187 -171l-3 37l-68 4c-11 0 -21 10 -21 21l-5 130c0 12 10 23 22 23l312 6c12 0 22 -10 22 -22c0 -234 -44 -365 -143 -469c-3 -4 -14 -8 -19 -7l-35 5c9 -5 12 -17 8 -28l-102 -237c-3 -5 -10 -12 -17 -13zM463 271l4 -86c-145 33 -232 100 -232 199
c0 101 114 145 222 145c57 0 112 -12 149 -33l35 243c-53 15 -93 21 -146 21c-269 0 -459 -172 -459 -354c0 -228 214 -411 508 -448c96 99 137 228 137 454l-312 -6l5 -130zM392 -315l102 237l-180 21l-54 -276z" />
    <glyph glyph-name="Hcircumflex" unicode="&#x124;" horiz-adv-x="713" 
d="M635 -27l-217 5c-12 0 -22 10 -22 22l-2 238c-27 -3 -49 -4 -81 -7l-7 -253c0 -13 -11 -23 -24 -22l-202 16c-11 1 -20 11 -20 22l-12 719c0 12 9 21 21 22l226 12c13 1 23 -9 23 -22l-7 -286c27 1 49 0 81 1l-3 278c0 11 9 21 20 22l198 17c13 1 24 -8 24 -21l27 -740
c0 -13 -10 -23 -23 -23zM628 3l-27 740l-198 -17l3 -299l-125 -3l7 309l-226 -12l12 -719l202 -16l7 273l124 12l3 -263zM535 792l-117 -41c-11 -4 -23 2 -27 13l-31 77l-44 -80c-4 -8 -15 -13 -24 -10l-107 28c-15 4 -22 20 -14 33l121 192c3 5 13 10 20 10l103 -4
c5 0 14 -6 17 -10l114 -175c8 -13 4 -28 -11 -33zM520 821l-114 175l-103 4l-121 -192l107 -28l66 120l48 -120z" />
    <glyph glyph-name="hcircumflex" unicode="&#x125;" horiz-adv-x="746" 
d="M666 -30l-226 10c-12 0 -22 11 -21 23l14 266c-33 -7 -68 -16 -105 -24l7 -258c0 -13 -10 -22 -23 -22l-189 8c-11 0 -20 9 -21 20l-54 717c-1 12 7 23 19 24l224 28c13 3 25 -9 25 -22l7 -262c43 1 73 4 120 5l14 273c1 12 11 22 23 21l209 -13c12 -1 21 -11 21 -23
l-21 -750c0 -12 -11 -22 -23 -21zM659 0l21 750l-209 13l-15 -294l-163 -5l-7 284l-224 -28l54 -717l189 -8l-7 276l150 33l-15 -294zM559 808l-117 -41c-11 -4 -23 2 -27 13l-31 77l-44 -80c-4 -8 -15 -13 -24 -10l-107 28c-15 4 -22 20 -14 33l121 192c3 5 13 10 20 10
l103 -4c5 0 14 -6 17 -10l114 -175c8 -13 4 -28 -11 -33zM544 837l-114 175l-103 4l-121 -192l107 -28l66 120l48 -120z" />
    <glyph glyph-name="Hbar" unicode="&#x126;" horiz-adv-x="713" 
d="M635 -27l-217 5c-12 0 -22 10 -22 22l-2 238c-27 -3 -49 -4 -81 -7l-7 -253c0 -13 -11 -23 -24 -22l-202 16c-11 1 -20 11 -20 22l-8 459h-14c-12 0 -21 9 -22 21l-6 129c-1 13 9 23 22 23h18c0 31 -2 58 -2 87c0 11 10 21 21 22l226 12c13 1 23 -10 23 -23l-2 -96
c25 0 43 1 74 1c0 29 -1 60 -1 89c0 11 9 21 20 22l198 17c13 1 24 -8 24 -21l4 -105c15 0 28 1 43 1c13 0 23 -11 22 -24l-14 -120c-1 -11 -11 -20 -22 -20h-23l17 -472c0 -13 -10 -23 -23 -23zM628 3l-18 494l46 1l14 120l-65 -1l-4 126l-198 -17l1 -111l-119 -1l3 119
l-226 -12l2 -109h-40l6 -129l36 1l8 -482l202 -16l7 273l124 12l3 -263zM406 427l-125 -3l1 65l123 3zM392 440l-1 21c-27 -1 -47 0 -79 -1c0 -5 -1 -10 -1 -21c27 1 49 0 81 1z" />
    <glyph glyph-name="hbar" unicode="&#x127;" horiz-adv-x="746" 
d="M666 -30l-226 10c-12 0 -22 11 -21 23l14 266c-33 -7 -68 -16 -105 -24l7 -258c0 -13 -10 -22 -23 -22l-189 8c-11 0 -20 9 -21 20l-38 501c-9 0 -17 -1 -26 -1c-12 0 -21 9 -22 21l-6 129c-1 13 9 23 22 23h20l-4 45c-1 11 8 22 19 23l224 28c15 3 25 -7 25 -22l2 -72
c47 0 84 2 135 2c3 29 1 57 4 86c1 12 11 22 23 21l209 -13c12 -1 22 -11 21 -23l-2 -70c11 0 21 1 30 1c13 0 23 -11 22 -24l-14 -120c-1 -11 -11 -20 -22 -20h-21l-14 -517c0 -12 -11 -22 -23 -21zM659 0l15 537l42 1l14 120l-53 -1l3 93l-209 13l-6 -107l-177 -2l-2 94
l-224 -28l5 -68h-43l6 -129l46 1l40 -521l189 -8l-7 276l150 33l-15 -294zM456 469l-163 -5l-2 64l168 4zM443 483l1 19c-43 -1 -74 -3 -122 -4c1 -3 1 -10 1 -20c43 1 73 4 120 5z" />
    <glyph glyph-name="Itilde" unicode="&#x128;" horiz-adv-x="542" 
d="M439 -46l-384 39c-12 1 -21 11 -20 23l14 182c1 12 11 22 23 21l62 -4l13 326h-57c-12 0 -22 9 -22 21l-6 175c0 12 9 22 21 23l428 18c13 1 23 -9 23 -22l-4 -193c0 -12 -10 -22 -22 -22h-79l-23 -345l49 -3c12 -1 22 -11 21 -23l-13 -195c-1 -13 -11 -22 -24 -21z
M433 -16l13 195l-72 4l27 388h99l4 193l-428 -18l6 -175h80l-15 -371l-84 5l-14 -182zM229 794l-98 13c-11 1 -19 11 -19 22c0 50 4 191 97 191c45 0 64 -24 80 -45v1c9 -11 17 -22 29 -22c3 0 5 8 5 25v9c0 3 -1 7 -1 11c0 13 11 23 24 22l122 -14c11 -1 19 -9 20 -20
c1 -9 2 -19 2 -34c0 -69 -18 -171 -118 -171c-52 0 -74 24 -93 47c-5 5 -15 15 -18 15c-5 0 -7 -9 -7 -28c0 -15 -10 -25 -25 -22zM126 837l98 -13c0 33 10 50 29 50c35 0 38 -62 111 -62c81 0 96 88 96 149c0 12 -1 23 -2 32l-122 14c0 -7 1 -13 1 -20
c0 -28 -3 -47 -27 -47c-51 0 -42 66 -109 66c-72 0 -75 -125 -75 -169z" />
    <glyph glyph-name="itilde" unicode="&#x129;" horiz-adv-x="368" 
d="M294 -47l-231 -9c-13 -1 -23 9 -23 22l16 780c0 12 10 22 22 22l233 4c13 0 22 -10 22 -23l-18 -775c0 -11 -10 -21 -21 -21zM285 -17l18 775l-233 -4l-16 -780zM123 790l-98 13c-11 1 -19 11 -19 22c0 50 4 191 97 191c45 0 64 -24 80 -45v1c9 -11 17 -22 29 -22
c3 0 5 8 5 25v9c0 3 -1 7 -1 11c0 13 11 23 24 22l122 -14c11 -1 19 -9 20 -20c1 -9 2 -19 2 -34c0 -69 -18 -171 -118 -171c-52 0 -74 24 -93 47c-5 5 -15 15 -18 15c-5 0 -7 -9 -7 -28c0 -15 -10 -25 -25 -22zM20 833l98 -13c0 33 10 50 29 50c35 0 38 -62 111 -62
c81 0 96 88 96 149c0 12 -1 23 -2 32l-122 14c0 -7 1 -13 1 -20c0 -28 -3 -47 -27 -47c-51 0 -42 66 -109 66c-72 0 -75 -125 -75 -169z" />
    <glyph glyph-name="Imacron" unicode="&#x12a;" horiz-adv-x="542" 
d="M439 -46l-384 39c-12 1 -21 11 -20 23l14 182c1 12 11 22 23 21l62 -4l13 326h-57c-12 0 -22 9 -22 21l-6 175c0 12 9 22 21 23l428 18c13 1 23 -9 23 -22l-4 -193c0 -12 -10 -22 -22 -22h-79l-23 -345l49 -3c12 -1 22 -11 21 -23l-13 -195c-1 -13 -11 -22 -24 -21z
M433 -16l13 195l-72 4l27 388h99l4 193l-428 -18l6 -175h80l-15 -371l-84 5l-14 -182zM500 795l-413 -17c-12 0 -23 10 -23 22l-4 146c0 12 10 22 22 22l426 7c13 0 23 -10 22 -23l-9 -136c-1 -11 -10 -21 -21 -21zM491 825l9 136l-426 -7l4 -146z" />
    <glyph glyph-name="imacron" unicode="&#x12b;" horiz-adv-x="368" 
d="M294 -47l-231 -9c-13 -1 -23 9 -23 22l16 780c0 12 10 22 22 22l233 4c13 0 22 -10 22 -23l-18 -775c0 -11 -10 -21 -21 -21zM285 -17l18 775l-233 -4l-16 -780zM389 795l-413 -17c-12 0 -23 10 -23 22l-4 146c0 12 10 22 22 22l426 7c13 0 23 -10 22 -23l-9 -136
c-1 -11 -10 -21 -21 -21zM380 825l9 136l-426 -7l4 -146z" />
    <glyph glyph-name="Ibreve" unicode="&#x12c;" horiz-adv-x="542" 
d="M300 1006h170c12 0 22 -10 22 -22c0 -77 -24 -198 -168 -214l187 8c13 1 23 -9 23 -22l-4 -193c0 -12 -10 -22 -22 -22h-79l-23 -345l49 -3c12 -1 22 -11 21 -23l-13 -195c-1 -13 -11 -22 -24 -21l-384 39c-12 1 -21 11 -20 23l14 182c1 12 11 22 23 21l62 -4l13 326h-57
c-12 0 -22 9 -22 21l-6 175c0 12 9 22 21 23l191 8c-145 5 -169 128 -169 204c0 12 10 22 22 22h100c12 0 22 -10 22 -22c0 -21 8 -35 23 -35c7 0 10 7 10 18c-1 1 -2 10 -3 17c-1 4 -1 9 -1 12c0 12 10 22 22 22zM433 -16l13 195l-72 4l27 388h99l4 193l-428 -18l6 -175h80
l-15 -371l-84 5l-14 -182zM462 992h-170c1 -7 4 -19 4 -28c0 -23 -5 -41 -32 -41c-31 0 -45 22 -45 57h-100c0 -70 23 -182 159 -182c158 0 184 119 184 194z" />
    <glyph glyph-name="ibreve" unicode="&#x12d;" horiz-adv-x="368" 
d="M294 -47l-231 -9c-13 -1 -23 9 -23 22l16 780c0 12 10 22 22 22l233 4c13 0 22 -10 22 -23l-18 -775c0 -11 -10 -21 -21 -21zM285 -17l18 775l-233 -4l-16 -780zM190 1016h170c12 0 22 -10 22 -22c0 -84 -30 -216 -206 -216c-155 0 -181 127 -181 204c0 12 10 22 22 22
h100c12 0 22 -10 22 -22c0 -21 8 -35 23 -35c7 0 10 7 10 18c-1 1 -2 10 -3 17c-1 4 -1 9 -1 12c0 12 10 22 22 22zM352 1002h-170c1 -7 4 -19 4 -28c0 -23 -5 -41 -32 -41c-31 0 -45 22 -45 57h-100c0 -70 23 -182 159 -182c158 0 184 119 184 194z" />
    <glyph glyph-name="Iogonek" unicode="&#x12e;" horiz-adv-x="542" 
d="M469 -103l39 -66c3 -7 3 -16 0 -23c-40 -61 -119 -96 -192 -96c-87 0 -164 44 -164 143c0 48 23 88 52 123l-149 15c-12 1 -21 11 -20 23l14 182c1 12 11 22 23 21l62 -4l13 326h-57c-12 0 -22 9 -22 21l-6 175c0 12 9 22 21 23l428 18c13 1 23 -9 23 -22l-4 -193
c0 -12 -10 -22 -22 -22h-79l-23 -345l49 -3c12 -1 22 -11 21 -23l-13 -195c-1 -13 -12 -22 -24 -21l-66 7c-15 -16 -29 -35 -29 -58s9 -29 24 -29c23 0 50 12 67 28c11 11 27 8 34 -5zM481 -172l-39 66c-21 -19 -54 -34 -82 -34c-27 0 -46 12 -46 51c0 35 23 61 42 81l77 -8
l13 195l-72 4l27 388h99l4 193l-428 -18l6 -175h80l-15 -371l-84 5l-14 -182l194 -19c-39 -35 -77 -84 -77 -141c0 -84 66 -121 142 -121c66 0 138 30 173 86z" />
    <glyph glyph-name="iogonek" unicode="&#x12f;" horiz-adv-x="368" 
d="M357 -126l39 -66c4 -7 3 -17 -1 -24c-24 -35 -118 -99 -197 -99c-76 0 -158 66 -158 147c0 43 20 81 47 113c-8 0 -17 -1 -24 -1c-13 0 -23 9 -23 22l16 780c0 12 10 22 22 22l233 4c13 0 22 -10 22 -23l-18 -775c0 -7 -6 -16 -13 -19c-43 -19 -70 -44 -70 -75
c0 -15 10 -28 25 -28c25 0 49 16 69 29c11 7 24 4 31 -7zM369 -195l-39 66c-23 -15 -49 -33 -81 -33c-28 0 -47 23 -47 50c0 41 32 72 83 95l18 775l-233 -4l-16 -780l83 3c-47 -35 -83 -81 -83 -137c0 -68 70 -125 136 -125c73 0 155 58 179 90z" />
    <glyph glyph-name="Idot" unicode="&#x130;" horiz-adv-x="542" 
d="M439 -46l-384 39c-12 1 -21 11 -20 23l14 182c1 12 11 22 23 21l62 -4l13 326h-57c-12 0 -22 9 -22 21l-6 175c0 12 9 22 21 23l428 18c13 1 23 -9 23 -22l-4 -193c0 -12 -10 -22 -22 -22h-79l-23 -345l49 -3c12 -1 22 -11 21 -23l-13 -195c-1 -13 -11 -22 -24 -21z
M433 -16l13 195l-72 4l27 388h99l4 193l-428 -18l6 -175h80l-15 -371l-84 5l-14 -182zM305 781c-51 0 -91 42 -91 93s40 93 91 93c49 0 90 -42 90 -93s-41 -93 -90 -93zM297 811c37 0 68 32 68 71s-31 71 -68 71c-39 0 -69 -32 -69 -71s30 -71 69 -71z" />
    <glyph glyph-name="dotlessi" unicode="&#x131;" horiz-adv-x="368" 
d="M294 -47l-231 -9c-13 -1 -23 9 -23 22l16 780c0 12 10 22 22 22l233 4c13 0 22 -10 22 -23l-18 -775c0 -11 -10 -21 -21 -21zM285 -17l18 775l-233 -4l-16 -780z" />
    <glyph glyph-name="Jcircumflex" unicode="&#x134;" horiz-adv-x="738" 
d="M717 554l-69 -6c8 -43 12 -85 12 -126c0 -310 -155 -468 -323 -468c-122 0 -253 85 -334 259c-4 11 -1 21 8 28l199 126c13 9 29 2 33 -13c13 -55 62 -136 112 -136c40 0 52 64 52 136c0 63 -10 132 -25 177l-107 -8c-11 -1 -22 8 -23 19l-22 165c-3 12 7 24 19 25
l453 55c13 3 24 -8 25 -21l10 -189c1 -12 -8 -22 -20 -23zM707 584l-10 189l-453 -55l22 -165l124 8c17 -45 31 -126 31 -199c0 -84 -19 -158 -74 -158c-61 0 -117 91 -133 152l-199 -126c77 -165 199 -246 314 -246c157 0 301 150 301 446c0 47 -6 96 -17 147zM646 842
l-111 -55c-11 -5 -22 -1 -29 10l-40 73l-34 -85c-3 -9 -14 -15 -23 -14l-110 15c-16 3 -24 16 -17 31l97 205c3 5 11 12 18 13l103 9c5 0 16 -4 19 -8l134 -160c11 -11 6 -27 -7 -34zM628 870l-134 160l-103 -9l-97 -205l110 -15l51 127l62 -113z" />
    <glyph glyph-name="jcircumflex" unicode="&#x135;" horiz-adv-x="701" 
d="M14 245l213 79c15 5 29 -4 30 -19c4 -47 38 -77 70 -77c33 0 65 35 65 122c0 126 -55 301 -74 355c-5 13 3 26 16 29l253 62c11 3 22 -3 26 -14c43 -124 63 -256 63 -361c0 -285 -116 -480 -319 -480c-144 0 -285 109 -355 275c-5 12 0 25 12 29zM227 311l-213 -79
c67 -158 198 -261 335 -261c188 0 297 186 297 458c0 104 -19 233 -62 354l-253 -62c19 -54 75 -234 75 -363c0 -103 -43 -144 -87 -144s-87 38 -92 97zM592 867l-104 -68c-11 -7 -23 -4 -30 5l-49 67l-23 -87c-3 -9 -12 -17 -21 -17l-110 2c-16 0 -26 14 -21 29l71 215
c3 7 9 14 16 15l101 21c5 1 16 -3 20 -6l153 -142c11 -11 10 -26 -3 -34zM572 893l-153 142l-101 -21l-71 -215l110 -2l35 133l76 -105z" />
    <glyph glyph-name="Kcommaaccent" unicode="&#x136;" horiz-adv-x="764" 
d="M740 86l-178 -133c-8 -7 -22 -5 -29 3l-220 226c-8 -73 -16 -146 -23 -218c-1 -13 -14 -22 -27 -19l-163 36c-9 3 -17 11 -17 20l-23 732c0 13 10 23 23 23l247 -6c13 0 22 -11 21 -24l-21 -218c52 73 105 148 157 220c3 4 12 9 19 9l229 -12c19 -1 28 -20 16 -35
l-254 -327l245 -243c11 -11 9 -26 -2 -34zM719 112l-259 256l266 343l-229 12l-204 -284l28 297l-247 6l23 -732l163 -36l28 266l253 -261zM400 -345l-132 -18c-16 -3 -28 10 -25 26l54 276c3 11 14 19 25 18l180 -21c16 -3 24 -16 17 -31l-102 -237c-3 -5 -10 -12 -17 -13z
M389 -315l102 237l-180 21l-54 -276z" />
    <glyph glyph-name="kcommaaccent" unicode="&#x137;" horiz-adv-x="750" 
d="M760 76l-169 -150c-9 -8 -22 -7 -30 2l-256 277l-4 -209c0 -11 -8 -21 -19 -22l-196 -29c-13 -3 -24 8 -25 21l-32 770c0 12 9 22 21 23l250 15c15 1 24 -8 23 -23l-14 -193l181 239c7 9 20 12 29 5l172 -114c11 -7 14 -20 6 -31l-216 -283c95 -91 186 -175 279 -266
c9 -9 11 -23 0 -32zM737 100l-293 280l227 298l-172 114l-225 -296l19 264l-250 -15l32 -770l196 29l4 264l294 -317zM393 -345l-132 -18c-16 -3 -28 10 -25 26l54 276c3 11 14 19 25 18l180 -21c16 -3 24 -16 17 -31l-102 -237c-3 -5 -10 -12 -17 -13zM382 -315l102 237
l-180 21l-54 -276z" />
    <glyph glyph-name="kgreenlandic" unicode="&#x138;" horiz-adv-x="750" 
d="M760 76l-169 -150c-9 -8 -22 -7 -30 2l-256 277l-4 -209c0 -11 -8 -21 -19 -22l-196 -29c-13 -3 -24 8 -25 21l-32 770c0 12 9 22 21 23l250 15c15 1 24 -8 23 -23l-14 -193l181 239c7 9 20 12 29 5l172 -114c11 -7 14 -20 6 -31l-216 -283c95 -91 186 -175 279 -266
c9 -9 11 -23 0 -32zM737 100l-293 280l227 298l-172 114l-225 -296l19 264l-250 -15l32 -770l196 29l4 264l294 -317z" />
    <glyph glyph-name="Lacute" unicode="&#x139;" horiz-adv-x="610" 
d="M195 781l-84 35c-13 5 -18 19 -11 31l102 181c5 8 17 13 26 10l148 -48c17 -5 21 -23 9 -36l-166 -168c-2 -2 -5 -4 -9 -5l102 8c13 1 24 -9 24 -22l-7 -557l239 19c13 1 24 -8 24 -21l7 -203c0 -12 -8 -22 -20 -23l-471 -34c-12 -1 -23 9 -24 21l-45 777
c-1 12 8 22 20 23l137 11c-1 0 -1 0 -1 1zM569 12l-7 203l-263 -21l7 581l-253 -20l45 -777zM195 809l166 168l-148 48l-102 -181z" />
    <glyph glyph-name="lacute" unicode="&#x13a;" horiz-adv-x="598" 
d="M567 -19l-467 -33c-12 -1 -23 9 -24 21l-37 779c-1 12 9 23 21 23l228 8c13 0 23 -9 23 -22l-6 -522l251 32c13 3 25 -8 25 -21l6 -242c0 -12 -8 -22 -20 -23zM557 11l-6 242l-276 -35l6 547l-228 -8l37 -779zM176 781l-84 35c-13 5 -18 19 -11 31l102 181
c5 8 17 13 26 10l148 -48c17 -5 21 -23 9 -36l-166 -168c-5 -5 -17 -8 -24 -5zM176 809l166 168l-148 48l-102 -181z" />
    <glyph glyph-name="Lcommaaccent" unicode="&#x13b;" horiz-adv-x="610" 
d="M579 -18l-471 -34c-12 -1 -23 9 -24 21l-45 777c-1 12 8 22 20 23l253 20c13 1 24 -9 24 -22l-7 -557l239 19c13 1 24 -8 24 -21l7 -203c0 -12 -8 -22 -20 -23zM569 12l-7 203l-263 -21l7 581l-253 -20l45 -777zM352 -346l-132 -18c-16 -3 -28 10 -25 26l54 276
c3 11 14 19 25 18l180 -21c16 -3 24 -16 17 -31l-102 -237c-3 -5 -10 -12 -17 -13zM341 -316l102 237l-180 21l-54 -276z" />
    <glyph glyph-name="lcommaaccent" unicode="&#x13c;" horiz-adv-x="598" 
d="M341 -342l-132 -18c-16 -3 -28 10 -25 26l54 276c1 9 6 15 15 17l-153 -11c-12 -1 -23 9 -24 21l-37 779c-1 12 9 23 21 23l228 8c13 0 23 -9 23 -22l-6 -522l251 32c13 3 25 -8 25 -21l6 -242c0 -12 -8 -22 -20 -23l-302 -21l178 -21c16 -3 24 -16 17 -31l-102 -237
c-3 -5 -10 -12 -17 -13zM557 11l-6 242l-276 -35l6 547l-228 -8l37 -779zM330 -312l102 237l-180 21l-54 -276z" />
    <glyph glyph-name="Lcaron" unicode="&#x13d;" horiz-adv-x="624" 
d="M579 -18l-471 -34c-12 -1 -23 9 -24 21l-45 777c-1 12 8 22 20 23l253 20c13 1 24 -9 24 -22l-7 -557l239 19c13 1 24 -8 24 -21l7 -203c0 -12 -8 -22 -20 -23zM569 12l-7 203l-263 -21l7 581l-253 -20l45 -777zM493 458l-122 -18c-16 -3 -28 11 -24 27l64 276
c3 11 13 18 24 17l170 -21c16 -3 24 -16 17 -31l-112 -237c-3 -5 -12 -12 -17 -13zM482 488l112 237l-170 21l-64 -276z" />
    <glyph glyph-name="lcaron" unicode="&#x13e;" horiz-adv-x="602" 
d="M567 -19l-467 -33c-12 -1 -23 9 -24 21l-37 779c-1 12 9 23 21 23l228 8c13 0 23 -9 23 -22l-6 -522l251 32c13 3 25 -8 25 -21l6 -242c0 -12 -8 -22 -20 -23zM557 11l-6 242l-276 -35l6 547l-228 -8l37 -779zM471 468l-122 -18c-16 -3 -28 11 -24 27l64 276
c3 11 13 18 24 17l170 -21c16 -3 24 -16 17 -31l-112 -237c-3 -5 -12 -12 -17 -13zM460 498l112 237l-170 21l-64 -276z" />
    <glyph glyph-name="Ldot" unicode="&#x13f;" horiz-adv-x="638" 
d="M579 -18l-471 -34c-12 -1 -23 9 -24 21l-45 777c-1 12 8 22 20 23l253 20c13 1 24 -9 24 -22l-7 -557l239 19c13 1 24 -8 24 -21l7 -203c0 -12 -8 -22 -20 -23zM569 12l-7 203l-263 -21l7 581l-253 -20l45 -777zM482 282c-67 0 -131 56 -131 132c0 71 57 134 130 134
c67 0 131 -56 131 -133c0 -68 -53 -133 -130 -133zM474 312c64 0 108 55 108 111c0 64 -53 111 -109 111c-60 0 -108 -52 -108 -112c0 -64 53 -110 109 -110z" />
    <glyph glyph-name="ldot" unicode="&#x140;" horiz-adv-x="626" 
d="M567 -19l-467 -33c-12 -1 -23 9 -24 21l-37 779c-1 12 9 23 21 23l228 8c13 0 23 -9 23 -22l-6 -522l251 32c13 3 25 -8 25 -21l6 -242c0 -12 -8 -22 -20 -23zM557 11l-6 242l-276 -35l6 547l-228 -8l37 -779zM467 316c-67 0 -131 56 -131 132c0 71 57 134 130 134
c67 0 131 -56 131 -133c0 -68 -53 -133 -130 -133zM459 346c64 0 108 55 108 111c0 64 -53 111 -109 111c-60 0 -108 -52 -108 -112c0 -64 53 -110 109 -110z" />
    <glyph glyph-name="Lslash" unicode="&#x141;" horiz-adv-x="610" 
d="M579 -18l-471 -34c-12 -1 -23 9 -24 21l-13 233l-44 -10c-15 -3 -26 4 -27 19l-14 159c-1 11 7 20 16 23l57 17l-20 336c-1 12 8 22 20 23l253 20c13 1 24 -9 24 -22l-4 -274c24 8 58 19 82 26c15 5 28 -5 28 -21l2 -198c0 -11 -8 -19 -17 -22l-97 -22
c0 -12 -1 -27 -1 -46l239 19c13 1 24 -8 24 -21l7 -203c0 -12 -8 -22 -20 -23zM569 12l-7 203l-263 -21l1 89l114 25l-2 198l-110 -34l4 303l-253 -20l20 -353l-73 -22l14 -159l69 15l15 -258z" />
    <glyph glyph-name="lslash" unicode="&#x142;" horiz-adv-x="598" 
d="M567 -19l-467 -33c-12 -1 -23 9 -24 21l-13 272l-47 -10c-13 -3 -25 5 -26 20l-14 159c-1 11 7 20 16 23l61 19l-14 296c-1 12 9 23 21 23l228 8c13 0 23 -9 23 -22l-2 -228l95 30c15 4 28 -5 28 -21l2 -198c0 -11 -6 -19 -17 -22l-111 -25c0 -19 -1 -31 -1 -58l251 32
c13 3 25 -8 25 -21l6 -242c0 -12 -8 -22 -20 -23zM557 11l-6 242l-276 -35l1 102l128 28l-2 198l-124 -38l3 257l-228 -8l15 -313l-78 -24l14 -159l72 15l14 -298z" />
    <glyph glyph-name="Nacute" unicode="&#x143;" horiz-adv-x="781" 
d="M668 -30l-113 -23c-7 -1 -18 3 -22 10l-229 356l14 -323c1 -15 -9 -24 -24 -23l-214 22c-11 1 -20 10 -20 21l-18 677c0 11 7 20 18 23l233 44c8 3 19 -5 23 -12l153 -292l-11 285c0 12 9 22 21 23l251 14c15 1 24 -9 23 -24l-67 -758c-1 -11 -7 -17 -18 -20zM656 0
l67 758l-251 -14l15 -381l-198 377l-233 -44l18 -677l214 -22l-18 404l273 -424zM392 763l-84 35c-13 5 -18 19 -11 31l102 181c5 8 17 13 26 10l148 -48c17 -5 21 -23 9 -36l-166 -168c-5 -5 -17 -8 -24 -5zM392 791l166 168l-148 48l-102 -181z" />
    <glyph glyph-name="nacute" unicode="&#x144;" horiz-adv-x="737" 
d="M681 -35l-124 -12c-7 -1 -17 3 -21 10l-207 320l44 -297c3 -12 -8 -24 -20 -25l-273 -31c-13 -1 -24 9 -24 22l-16 799c0 13 10 22 23 22l169 -6c5 0 14 -5 17 -9l167 -229l-33 241c-3 15 9 28 24 25l246 -28c11 -1 20 -10 20 -21l28 -758c0 -11 -9 -22 -20 -23zM671 -5
l-28 758l-246 28l45 -327l-219 299l-169 6l16 -799l273 31l-59 400l263 -408zM331 770l-84 35c-13 5 -18 19 -11 31l102 181c5 8 17 13 26 10l148 -48c17 -5 21 -23 9 -36l-166 -168c-5 -5 -17 -8 -24 -5zM331 798l166 168l-148 48l-102 -181z" />
    <glyph glyph-name="Ncommaaccent" unicode="&#x145;" horiz-adv-x="781" 
d="M668 -30l-113 -23c-7 -1 -18 3 -22 10l-229 356l14 -323c1 -15 -9 -24 -24 -23l-214 22c-11 1 -20 10 -20 21l-18 677c0 11 7 20 18 23l233 44c8 3 19 -5 23 -12l153 -292l-11 285c0 12 9 22 21 23l251 14c15 1 24 -9 23 -24l-67 -758c-1 -11 -7 -17 -18 -20zM656 0
l67 758l-251 -14l15 -381l-198 377l-233 -44l18 -677l214 -22l-18 404l273 -424zM408 -345l-132 -18c-16 -3 -28 10 -25 26l54 276c3 11 14 19 25 18l180 -21c16 -3 24 -16 17 -31l-102 -237c-3 -5 -10 -12 -17 -13zM397 -315l102 237l-180 21l-54 -276z" />
    <glyph glyph-name="ncommaaccent" unicode="&#x146;" horiz-adv-x="737" 
d="M681 -35l-124 -12c-7 -1 -17 3 -21 10l-207 320l44 -297c3 -12 -8 -24 -20 -25l-273 -31c-13 -1 -24 9 -24 22l-16 799c0 13 10 22 23 22l169 -6c5 0 14 -5 17 -9l167 -229l-33 241c-3 15 9 28 24 25l246 -28c11 -1 20 -10 20 -21l28 -758c0 -11 -9 -22 -20 -23zM671 -5
l-28 758l-246 28l45 -327l-219 299l-169 6l16 -799l273 31l-59 400l263 -408zM444 -341l-132 -18c-16 -3 -28 10 -25 26l54 276c3 11 14 19 25 18l180 -21c16 -3 24 -16 17 -31l-102 -237c-3 -5 -10 -12 -17 -13zM433 -311l102 237l-180 21l-54 -276z" />
    <glyph glyph-name="Ncaron" unicode="&#x147;" horiz-adv-x="781" 
d="M668 -30l-113 -23c-7 -1 -18 3 -22 10l-229 356l14 -323c1 -15 -9 -24 -24 -23l-214 22c-11 1 -20 10 -20 21l-18 677c0 11 7 20 18 23l233 44c8 3 19 -5 23 -12l153 -292l-11 285c0 12 9 22 21 23l251 14c15 1 24 -9 23 -24l-67 -758c-1 -11 -7 -17 -18 -20zM656 0
l67 758l-251 -14l15 -381l-198 377l-233 -44l18 -677l214 -22l-18 404l273 -424zM447 775l-103 -9c-5 0 -16 4 -19 8l-136 158c-11 12 -8 27 7 34l111 56c11 5 22 2 29 -9l40 -71l33 83c3 9 14 15 23 14l110 -14c16 -3 25 -16 18 -31l-95 -206c-3 -7 -11 -12 -18 -13z
M437 805l95 206l-110 14l-50 -127l-63 112l-111 -56l136 -158z" />
    <glyph glyph-name="ncaron" unicode="&#x148;" horiz-adv-x="737" 
d="M681 -35l-124 -12c-7 -1 -17 3 -21 10l-207 320l44 -297c3 -12 -8 -24 -20 -25l-273 -31c-13 -1 -24 9 -24 22l-16 799c0 13 10 22 23 22l169 -6c5 0 14 -5 17 -9l167 -229l-33 241c-1 3 0 7 1 12l-101 4c-5 0 -14 6 -17 10l-114 175c-8 13 -4 28 11 33l117 41
c11 4 23 -2 27 -13l31 -77l44 80c4 8 15 13 24 10l107 -28c15 -4 22 -20 14 -33l-119 -189l245 -28c11 -1 20 -10 20 -21l28 -758c0 -11 -9 -22 -20 -23zM671 -5l-28 758l-246 28l45 -327l-219 299l-169 6l16 -799l273 31l-59 400l263 -408zM379 812l121 192l-107 28
l-66 -120l-48 120l-117 -41l114 -175z" />
    <glyph glyph-name="Omacron" unicode="&#x14c;" horiz-adv-x="856" 
d="M831 369c0 -246 -196 -399 -416 -399c-212 0 -390 167 -390 392c0 229 149 421 403 421c259 0 403 -200 403 -414zM801 377c0 204 -136 392 -381 392c-240 0 -381 -180 -381 -399c0 -212 168 -370 368 -370c208 0 394 145 394 377zM633 795l-413 -17c-12 0 -23 10 -23 22
l-4 146c0 12 10 22 22 22l426 7c13 0 23 -10 22 -23l-9 -136c-1 -11 -10 -21 -21 -21zM423 188c-110 0 -161 82 -161 166c0 104 64 175 160 175s147 -83 147 -161c0 -107 -58 -180 -146 -180zM431 202c76 0 124 65 124 158c0 67 -43 139 -125 139c-85 0 -138 -62 -138 -153
c0 -73 44 -144 139 -144zM624 825l9 136l-426 -7l4 -146z" />
    <glyph glyph-name="omacron" unicode="&#x14d;" horiz-adv-x="824" 
d="M617 795l-168 -7c204 -21 350 -201 350 -420c0 -222 -171 -419 -391 -419c-219 0 -383 192 -383 416c0 203 131 383 318 418l-139 -5c-12 0 -23 10 -23 22l-4 146c0 12 10 22 22 22l426 7c13 0 23 -10 22 -23l-9 -136c-1 -11 -10 -21 -21 -21zM400 -21
c208 0 369 186 369 397c0 221 -155 400 -366 400c-207 0 -364 -187 -364 -403c0 -213 156 -394 361 -394zM405 188c-103 0 -150 74 -150 170c0 92 62 175 153 175c83 0 138 -80 138 -172s-51 -173 -141 -173zM413 202c76 0 119 71 119 151c0 81 -44 150 -116 150
c-77 0 -131 -72 -131 -153c0 -83 40 -148 128 -148zM608 825l9 136l-426 -7l4 -146z" />
    <glyph glyph-name="Obreve" unicode="&#x14e;" horiz-adv-x="856" 
d="M429 1016h170c12 0 22 -10 22 -22c0 -76 -24 -192 -159 -213c236 -16 369 -208 369 -412c0 -246 -196 -399 -416 -399c-212 0 -390 167 -390 392c0 216 130 394 354 418c-123 19 -145 129 -145 202c0 12 10 22 22 22h100c12 0 22 -10 22 -22c0 -21 8 -35 23 -35
c7 0 10 7 10 18c-1 1 -2 10 -3 17c-1 4 -1 9 -1 12c0 12 10 22 22 22zM801 377c0 204 -136 392 -381 392c-240 0 -381 -180 -381 -399c0 -212 168 -370 368 -370c208 0 394 145 394 377zM423 188c-110 0 -161 82 -161 166c0 104 64 175 160 175s147 -83 147 -161
c0 -107 -58 -180 -146 -180zM431 202c76 0 124 65 124 158c0 67 -43 139 -125 139c-85 0 -138 -62 -138 -153c0 -73 44 -144 139 -144zM591 1002h-170c1 -7 4 -19 4 -28c0 -23 -5 -41 -32 -41c-31 0 -45 22 -45 57h-100c0 -70 23 -182 159 -182c158 0 184 119 184 194z" />
    <glyph glyph-name="obreve" unicode="&#x14f;" horiz-adv-x="824" 
d="M413 1016h170c12 0 22 -10 22 -22c0 -73 -23 -179 -138 -208c195 -29 332 -205 332 -418c0 -222 -171 -419 -391 -419c-219 0 -383 192 -383 416c0 204 132 384 319 419c-108 27 -126 130 -126 198c0 12 10 22 22 22h100c12 0 22 -10 22 -22c0 -21 8 -35 23 -35
c7 0 10 7 10 18c-1 1 -2 10 -3 17c-1 4 -1 9 -1 12c0 12 10 22 22 22zM400 -21c208 0 369 186 369 397c0 221 -155 400 -366 400c-207 0 -364 -187 -364 -403c0 -213 156 -394 361 -394zM405 188c-103 0 -150 74 -150 170c0 92 62 175 153 175c83 0 138 -80 138 -172
s-51 -173 -141 -173zM413 202c76 0 119 71 119 151c0 81 -44 150 -116 150c-77 0 -131 -72 -131 -153c0 -83 40 -148 128 -148zM575 1002h-170c1 -7 4 -19 4 -28c0 -23 -5 -41 -32 -41c-31 0 -45 22 -45 57h-100c0 -70 23 -182 159 -182c158 0 184 119 184 194z" />
    <glyph glyph-name="Ohungarumlaut" unicode="&#x150;" horiz-adv-x="856" 
d="M309 770l-84 35c-13 5 -18 19 -11 31l102 181c5 8 17 13 26 10l148 -48l10 -6l25 44c5 8 17 13 26 10l148 -48c17 -5 21 -23 9 -36l-166 -168c-3 -3 -5 -4 -8 -5c192 -45 297 -219 297 -401c0 -246 -196 -399 -416 -399c-212 0 -390 167 -390 392c0 193 106 359 290 407
c-3 0 -5 0 -6 1zM801 377c0 204 -136 392 -381 392c-240 0 -381 -180 -381 -399c0 -212 168 -370 368 -370c208 0 394 145 394 377zM423 188c-110 0 -161 82 -161 166c0 104 64 175 160 175s147 -83 147 -161c0 -107 -58 -180 -146 -180zM431 202c76 0 124 65 124 158
c0 67 -43 139 -125 139c-85 0 -138 -62 -138 -153c0 -73 44 -144 139 -144zM518 798l166 168l-148 48l-102 -181zM309 798l166 168l-148 48l-102 -181zM428 783c25 0 49 -3 73 -6l-67 28c-13 5 -18 19 -11 31l39 70l-129 -131l-3 -3c31 7 63 11 98 11z" />
    <glyph glyph-name="ohungarumlaut" unicode="&#x151;" horiz-adv-x="824" 
d="M408 -51c-219 0 -383 192 -383 416c0 228 166 425 386 425c224 0 388 -189 388 -422c0 -222 -171 -419 -391 -419zM400 -21c208 0 369 186 369 397c0 221 -155 400 -366 400c-207 0 -364 -187 -364 -403c0 -213 156 -394 361 -394zM499 780l-84 35c-13 5 -18 19 -11 31
l39 70l-129 -131c-5 -5 -17 -8 -24 -5l-84 35c-13 5 -18 19 -11 31l102 181c5 8 17 13 26 10l148 -48l10 -6l25 44c5 8 17 13 26 10l148 -48c17 -5 21 -23 9 -36l-166 -168c-5 -5 -17 -8 -24 -5zM405 188c-103 0 -150 74 -150 170c0 92 62 175 153 175
c83 0 138 -80 138 -172s-51 -173 -141 -173zM413 202c76 0 119 71 119 151c0 81 -44 150 -116 150c-77 0 -131 -72 -131 -153c0 -83 40 -148 128 -148zM499 808l166 168l-148 48l-102 -181zM290 808l166 168l-148 48l-102 -181z" />
    <glyph glyph-name="OE" unicode="&#x152;" horiz-adv-x="1112" 
d="M1072 -29l-452 7c-12 0 -22 9 -22 21l-1 15c-61 -29 -126 -44 -196 -44c-212 0 -390 167 -390 392c0 229 149 421 403 421c58 0 110 -9 156 -28l432 55c13 3 24 -7 25 -20l13 -173c1 -12 -8 -23 -20 -24l-253 -30c3 -20 3 -32 6 -59l193 15c12 1 23 -8 24 -20l16 -159
c1 -12 -8 -23 -20 -24l-187 -16c3 -21 4 -37 8 -64l249 25c13 1 23 -8 24 -21l14 -246c1 -13 -9 -23 -22 -23zM1064 1l-14 246l-270 -27l-15 108l211 18l-16 159l-215 -16l-10 102l275 32l-13 173l-438 -56c-46 19 -97 29 -153 29c-240 0 -381 -180 -381 -399
c0 -212 168 -370 368 -370c77 0 151 20 215 57l4 -49zM409 188c-110 0 -161 82 -161 166c0 104 64 175 160 175s147 -83 147 -161c0 -107 -58 -180 -146 -180zM417 202c76 0 124 65 124 158c0 67 -43 139 -125 139c-85 0 -138 -62 -138 -153c0 -73 44 -144 139 -144z" />
    <glyph glyph-name="oe" unicode="&#x153;" horiz-adv-x="1074" 
d="M1033 -27l-475 18c-52 -28 -108 -42 -169 -42c-219 0 -383 192 -383 416c0 228 166 425 386 425c53 0 98 -10 145 -29l427 51c13 1 24 -7 25 -20l13 -173c1 -12 -8 -23 -20 -24l-253 -30c3 -20 3 -32 6 -59l193 15c12 1 23 -8 24 -20l16 -159c1 -12 -8 -23 -20 -24
l-187 -16c3 -21 4 -37 8 -64l249 25c13 1 23 -8 24 -21l14 -246c1 -13 -10 -23 -23 -23zM1026 3l-14 246l-270 -27l-15 108l211 18l-16 159l-215 -16l-10 102l275 32l-13 173l-433 -52c-44 19 -91 30 -142 30c-207 0 -364 -187 -364 -403c0 -213 156 -394 361 -394
c60 0 115 15 164 42zM386 186c-101 0 -149 76 -149 172c0 93 63 177 151 177c85 0 138 -81 138 -174c0 -92 -52 -175 -140 -175zM394 200c75 0 118 72 118 153c0 83 -44 152 -116 152c-75 0 -129 -72 -129 -155c0 -84 40 -150 127 -150z" />
    <glyph glyph-name="Racute" unicode="&#x154;" horiz-adv-x="682" 
d="M292 776l-84 35c-13 5 -18 19 -11 31l102 181c5 8 17 13 26 10l148 -48c17 -5 21 -23 9 -36l-166 -168c-3 -3 -7 -5 -12 -6c187 -8 350 -77 350 -241c0 -87 -46 -154 -130 -217l173 -229c9 -11 5 -26 -8 -33l-212 -110c-11 -7 -25 -1 -30 11l-111 258l-47 -21l21 -190
c1 -11 -8 -21 -19 -24l-218 -34c-15 -3 -25 6 -25 21l-19 763c0 11 8 19 17 22c72 17 150 25 223 25c8 0 15 -1 23 -1v1zM671 83l-186 246c88 60 139 129 139 213c0 160 -174 220 -363 220c-73 0 -149 -8 -218 -24l19 -763l218 34l-23 208c24 8 55 20 82 35l120 -279z
M235 392l-22 182c29 9 72 19 111 19c51 0 94 -16 94 -75c0 -63 -82 -110 -183 -126zM292 804l166 168l-148 48l-102 -181zM245 550l17 -140c80 16 142 53 142 100c0 41 -33 53 -72 53c-28 0 -62 -6 -87 -13z" />
    <glyph glyph-name="racute" unicode="&#x155;" horiz-adv-x="690" 
d="M645 -8l-209 -32c-9 -1 -19 5 -23 13l-109 256c-8 -1 -8 -3 -23 -4l13 -244c1 -13 -9 -23 -22 -23h-211c-12 0 -22 10 -22 22l2 755c0 9 8 18 16 21c55 16 145 23 208 23h24l-77 32c-13 5 -18 19 -11 31l102 181c5 8 17 13 26 10l148 -48c17 -5 21 -23 9 -36l-166 -168
l-5 -4c232 -16 349 -139 349 -267c0 -84 -50 -169 -150 -225l147 -260c8 -15 0 -30 -16 -33zM634 22l-159 280c107 51 159 133 159 216c0 125 -125 247 -377 247c-60 0 -152 -6 -202 -22l-2 -755h211l-14 265l60 8l115 -271zM296 804l166 168l-148 48l-102 -181zM244 392
l-10 189c11 3 23 2 34 2c87 0 130 -44 130 -89c0 -50 -52 -102 -154 -102zM265 553l8 -146c75 7 111 42 111 79c0 35 -36 67 -108 67c-11 0 0 3 -11 0z" />
    <glyph glyph-name="Rcommaaccent" unicode="&#x156;" horiz-adv-x="682" 
d="M689 55l-212 -110c-11 -7 -25 -1 -30 11l-111 258l-47 -21l21 -190c1 -11 -8 -21 -19 -24l-218 -34c-15 -3 -25 6 -25 21l-19 763c0 11 8 19 17 22c72 17 150 25 223 25c202 0 385 -66 385 -242c0 -87 -46 -154 -130 -217l173 -229c9 -11 5 -26 -8 -33zM671 83l-186 246
c88 60 139 129 139 213c0 160 -174 220 -363 220c-73 0 -149 -8 -218 -24l19 -763l218 34l-23 208c24 8 55 20 82 35l120 -279zM359 -345l-132 -18c-16 -3 -28 10 -25 26l54 276c3 11 14 19 25 18l180 -21c16 -3 24 -16 17 -31l-102 -237c-3 -5 -10 -12 -17 -13zM348 -315
l102 237l-180 21l-54 -276zM235 392l-22 182c29 9 72 19 111 19c51 0 94 -16 94 -75c0 -63 -82 -110 -183 -126zM245 550l17 -140c80 16 142 53 142 100c0 41 -33 53 -72 53c-28 0 -62 -6 -87 -13z" />
    <glyph glyph-name="rcommaaccent" unicode="&#x157;" horiz-adv-x="690" 
d="M645 -8l-209 -32c-9 -1 -19 5 -23 13l-109 256c-8 -1 -8 -3 -23 -4l13 -244c1 -13 -9 -23 -22 -23h-211c-12 0 -22 10 -22 22l2 755c0 9 8 18 16 21c55 16 145 23 208 23c267 0 399 -133 399 -269c0 -84 -50 -169 -150 -225l147 -260c8 -15 0 -30 -16 -33zM634 22
l-159 280c107 51 159 133 159 216c0 125 -125 247 -377 247c-60 0 -152 -6 -202 -22l-2 -755h211l-14 265l60 8l115 -271zM363 -345l-132 -18c-16 -3 -28 10 -25 26l54 276c3 11 14 19 25 18l180 -21c16 -3 24 -16 17 -31l-102 -237c-3 -5 -10 -12 -17 -13zM352 -315
l102 237l-180 21l-54 -276zM244 392l-10 189c11 3 23 2 34 2c87 0 130 -44 130 -89c0 -50 -52 -102 -154 -102zM265 553l8 -146c75 7 111 42 111 79c0 35 -36 67 -108 67c-11 0 0 3 -11 0z" />
    <glyph glyph-name="Rcaron" unicode="&#x158;" horiz-adv-x="682" 
d="M689 55l-212 -110c-11 -7 -25 -1 -30 11l-111 258l-47 -21l21 -190c1 -11 -8 -21 -19 -24l-218 -34c-15 -3 -25 6 -25 21l-19 763c0 11 8 19 17 22c72 17 150 25 223 25c202 0 385 -66 385 -242c0 -87 -46 -154 -130 -217l173 -229c9 -11 5 -26 -8 -33zM671 83l-186 246
c88 60 139 129 139 213c0 160 -174 220 -363 220c-73 0 -149 -8 -218 -24l19 -763l218 34l-23 208c24 8 55 20 82 35l120 -279zM352 779l-103 4c-5 0 -14 6 -17 10l-114 175c-8 13 -4 28 11 33l117 41c11 4 23 -2 27 -13l31 -77l44 80c4 8 15 13 24 10l107 -28
c15 -4 22 -20 14 -33l-121 -192c-3 -5 -13 -10 -20 -10zM345 809l121 192l-107 28l-66 -120l-48 120l-117 -41l114 -175zM235 392l-22 182c29 9 72 19 111 19c51 0 94 -16 94 -75c0 -63 -82 -110 -183 -126zM245 550l17 -140c80 16 142 53 142 100c0 41 -33 53 -72 53
c-28 0 -62 -6 -87 -13z" />
    <glyph glyph-name="rcaron" unicode="&#x159;" horiz-adv-x="690" 
d="M645 -8l-209 -32c-9 -1 -19 5 -23 13l-109 256c-8 -1 -8 -3 -23 -4l13 -244c1 -13 -9 -23 -22 -23h-211c-12 0 -22 10 -22 22l2 755c0 9 8 18 16 21c55 16 145 23 208 23c267 0 399 -133 399 -269c0 -84 -50 -169 -150 -225l147 -260c8 -15 0 -30 -16 -33zM634 22
l-159 280c107 51 159 133 159 216c0 125 -125 247 -377 247c-60 0 -152 -6 -202 -22l-2 -755h211l-14 265l60 8l115 -271zM366 783l-103 4c-5 0 -14 6 -17 10l-114 175c-8 13 -4 28 11 33l117 41c11 4 23 -2 27 -13l31 -77l44 80c4 8 15 13 24 10l107 -28
c15 -4 22 -20 14 -33l-121 -192c-3 -5 -13 -10 -20 -10zM359 813l121 192l-107 28l-66 -120l-48 120l-117 -41l114 -175zM244 392l-10 189c11 3 23 2 34 2c87 0 130 -44 130 -89c0 -50 -52 -102 -154 -102zM265 553l8 -146c75 7 111 42 111 79c0 35 -36 67 -108 67
c-11 0 0 3 -11 0z" />
    <glyph glyph-name="Sacute" unicode="&#x15a;" horiz-adv-x="755" 
d="M-4 119l108 145c7 9 20 12 31 5c68 -47 138 -68 198 -68c64 0 110 25 110 66c0 32 -72 47 -139 60c-120 24 -274 59 -274 211c0 164 126 231 270 250l-55 23c-13 5 -18 19 -11 31l102 181c5 8 17 13 26 10l148 -48c17 -5 21 -23 9 -36l-154 -156c12 0 24 1 37 1
c71 0 136 -8 188 -17c11 -3 18 -12 18 -23l-6 -183c-1 -17 -16 -26 -31 -19c-32 13 -105 31 -169 31c-48 0 -89 -9 -89 -37c0 -15 48 -21 104 -26c132 -12 324 -43 324 -267c0 -205 -191 -296 -386 -296c-141 0 -284 48 -358 135c-7 7 -8 19 -1 27zM114 259l-108 -145
c69 -82 207 -127 341 -127c184 0 364 84 364 274c0 336 -428 191 -428 293c0 44 51 59 111 59c66 0 144 -17 178 -33l6 183c-52 9 -116 17 -184 17c-170 0 -350 -48 -350 -234c0 -242 413 -145 413 -271c0 -56 -55 -88 -132 -88c-64 0 -139 21 -211 72zM329 804l166 168
l-148 48l-102 -181z" />
    <glyph glyph-name="sacute" unicode="&#x15b;" horiz-adv-x="744" 
d="M323 776l-84 35c-13 5 -18 19 -11 31l102 181c5 8 17 13 26 10l148 -48c17 -5 21 -23 9 -36l-166 -168l-4 -3c35 6 68 9 100 9c67 0 135 -12 203 -39c11 -5 16 -17 12 -28l-69 -177c-5 -13 -19 -18 -31 -11c-43 25 -90 35 -131 35c-64 0 -116 -22 -116 -57
c0 -19 47 -25 104 -36c124 -20 294 -56 294 -259c0 -158 -177 -267 -365 -267c-112 0 -227 38 -312 127c-7 8 -8 21 -1 29l102 121c8 9 22 11 31 3c49 -43 101 -60 145 -60c64 0 114 26 114 69c0 19 -46 27 -103 38c-119 24 -277 54 -277 237c0 153 141 234 281 263
c-1 0 -1 0 -1 1zM142 219l-102 -121c80 -84 189 -120 296 -120c177 0 343 100 343 245c0 299 -398 194 -398 295c0 48 62 79 138 79c45 0 95 -11 142 -38l69 177c-64 27 -131 37 -195 37c-156 0 -378 -72 -378 -253c0 -265 380 -178 380 -275c0 -55 -60 -91 -136 -91
c-49 0 -106 18 -159 65zM323 804l166 168l-148 48l-102 -181z" />
    <glyph glyph-name="Scircumflex" unicode="&#x15c;" horiz-adv-x="755" 
d="M520 821l-79 -28c56 -3 106 -9 149 -16c11 -3 18 -12 18 -23l-6 -183c-1 -17 -16 -26 -31 -19c-32 13 -105 31 -169 31c-48 0 -89 -9 -89 -37c0 -15 48 -21 104 -26c132 -12 324 -43 324 -267c0 -205 -191 -296 -386 -296c-141 0 -284 48 -358 135c-7 7 -8 19 -1 27
l108 145c7 9 20 12 31 5c68 -47 138 -68 198 -68c64 0 110 25 110 66c0 32 -72 47 -139 60c-120 24 -274 59 -274 211s106 220 237 244l-97 26c-15 4 -22 20 -14 33l121 192c3 5 13 10 20 10l103 -4c5 0 14 -6 17 -10l114 -175c8 -13 4 -28 -11 -33zM114 259l-108 -145
c69 -82 207 -127 341 -127c184 0 364 84 364 274c0 336 -428 191 -428 293c0 44 51 59 111 59c66 0 144 -17 178 -33l6 183c-52 9 -116 17 -184 17c-170 0 -350 -48 -350 -234c0 -242 413 -145 413 -271c0 -56 -55 -88 -132 -88c-64 0 -139 21 -211 72zM505 850l-114 175
l-103 4l-121 -192l107 -28l66 120l48 -120zM301 790l-2 -3c25 4 50 6 77 6l-31 77z" />
    <glyph glyph-name="scircumflex" unicode="&#x15d;" horiz-adv-x="744" 
d="M557 821l-98 -34c61 -3 123 -14 187 -39c11 -5 16 -17 12 -28l-69 -177c-5 -13 -19 -18 -31 -11c-43 25 -90 35 -131 35c-64 0 -116 -22 -116 -57c0 -19 47 -25 104 -36c124 -20 294 -56 294 -259c0 -158 -177 -267 -365 -267c-112 0 -227 38 -312 127c-7 8 -8 21 -1 29
l102 121c8 9 22 11 31 3c49 -43 101 -60 145 -60c64 0 114 26 114 69c0 19 -46 27 -103 38c-119 24 -277 54 -277 237c0 187 211 266 373 274l-3 7l-31 77l-44 -80c-4 -8 -15 -13 -24 -10l-107 28c-15 4 -22 20 -14 33l121 192c3 5 13 10 20 10l103 -4c5 0 14 -6 17 -10
l114 -175c8 -13 4 -28 -11 -33zM142 219l-102 -121c80 -84 189 -120 296 -120c177 0 343 100 343 245c0 299 -398 194 -398 295c0 48 62 79 138 79c45 0 95 -11 142 -38l69 177c-64 27 -131 37 -195 37c-156 0 -378 -72 -378 -253c0 -265 380 -178 380 -275
c0 -55 -60 -91 -136 -91c-49 0 -106 18 -159 65zM542 850l-114 175l-103 4l-121 -192l107 -28l66 120l48 -120z" />
    <glyph glyph-name="Scedilla" unicode="&#x15e;" horiz-adv-x="755" 
d="M256 -269l23 97c3 13 16 21 29 16c11 -5 25 -7 44 -7c11 0 18 2 18 10c0 20 -46 30 -86 35c-13 3 -20 15 -17 28l15 51c-117 12 -222 58 -285 131c-7 7 -8 19 -1 27l108 145c7 9 20 12 31 5c68 -47 138 -68 198 -68c64 0 110 25 110 66c0 32 -72 47 -139 60
c-120 24 -274 59 -274 211c0 203 191 256 372 256c71 0 136 -8 188 -17c11 -3 18 -11 18 -22c0 -45 -3 -139 -6 -184c-1 -17 -16 -26 -31 -19c-32 13 -105 31 -169 31c-48 0 -89 -9 -89 -37c0 -15 48 -21 104 -26c132 -12 324 -43 324 -267c0 -177 -140 -270 -305 -291
c0 0 -1 -1 -2 -4c51 -11 139 -41 139 -132c0 -96 -66 -151 -159 -151c-56 0 -114 19 -145 30c-11 4 -16 15 -13 26zM292 -169l-23 -97c29 -11 85 -29 137 -29c80 0 137 46 137 129c0 91 -113 110 -146 115l13 42c160 16 301 103 301 270c0 336 -428 191 -428 293
c0 44 51 59 111 59c66 0 144 -17 178 -33c3 44 6 138 6 183c-52 9 -116 17 -184 17c-170 0 -350 -48 -350 -234c0 -242 413 -145 413 -271c0 -56 -55 -88 -132 -88c-64 0 -139 21 -211 72l-108 -145c63 -73 176 -117 296 -125l-22 -77c48 -8 104 -18 104 -57
c0 -24 -17 -32 -40 -32c-24 0 -41 4 -52 8z" />
    <glyph glyph-name="scedilla" unicode="&#x15f;" horiz-adv-x="744" 
d="M244 -266l23 97c3 13 16 21 29 16c11 -5 25 -7 44 -7c11 0 18 2 18 10c0 20 -46 30 -86 35c-13 3 -21 15 -17 28l12 42c-88 13 -168 51 -235 120c-8 8 -8 21 -1 29l102 121c8 9 22 11 31 3c49 -43 101 -60 145 -60c64 0 114 26 114 69c0 19 -46 27 -103 38
c-119 24 -277 54 -277 237c0 198 235 275 400 275c67 0 135 -12 203 -39c11 -5 16 -17 12 -28l-69 -177c-5 -13 -19 -18 -31 -11c-43 25 -90 35 -131 35c-64 0 -116 -22 -116 -57c0 -19 47 -25 104 -36c124 -20 294 -56 294 -259c0 -130 -121 -228 -270 -257
c51 -13 122 -45 122 -129c0 -96 -66 -151 -159 -151c-56 0 -114 19 -145 30c-11 4 -16 15 -13 26zM280 -166l-23 -97c29 -11 85 -29 137 -29c80 0 137 46 137 129c0 91 -113 110 -146 115l9 30c154 19 285 113 285 241c0 299 -398 194 -398 295c0 48 62 79 138 79
c45 0 95 -11 142 -38l69 177c-64 27 -131 37 -195 37c-156 0 -378 -72 -378 -253c0 -265 380 -178 380 -275c0 -55 -60 -91 -136 -91c-49 0 -106 18 -159 65l-102 -121c68 -72 156 -108 247 -117l-19 -66c48 -8 104 -18 104 -57c0 -24 -17 -32 -40 -32c-24 0 -41 4 -52 8z
" />
    <glyph glyph-name="Scaron" unicode="&#x160;" horiz-adv-x="755" 
d="M-4 119l108 145c7 9 20 12 31 5c68 -47 138 -68 198 -68c64 0 110 25 110 66c0 32 -72 47 -139 60c-120 24 -274 59 -274 211c0 157 112 222 247 246l-7 6l-126 167c-9 12 -7 26 8 33l113 49c11 5 24 1 29 -10l37 -76c12 25 25 58 37 83c4 8 15 14 24 13l109 -20
c16 -3 22 -17 15 -32l-107 -200l-2 -3c68 -1 132 -8 183 -17c11 -3 18 -11 18 -22c0 -45 -3 -139 -6 -184c-1 -17 -16 -26 -31 -19c-32 13 -105 31 -169 31c-48 0 -89 -9 -89 -37c0 -15 48 -21 104 -26c132 -12 324 -43 324 -267c0 -205 -191 -296 -386 -296
c-141 0 -284 48 -358 135c-7 7 -8 19 -1 27zM114 259l-108 -145c69 -82 207 -127 341 -127c184 0 364 84 364 274c0 336 -428 191 -428 293c0 44 51 59 111 59c66 0 144 -17 178 -33c3 44 6 138 6 183c-52 9 -116 17 -184 17c-170 0 -350 -48 -350 -234
c0 -242 413 -145 413 -271c0 -56 -55 -88 -132 -88c-64 0 -139 21 -211 72zM382 815l107 200l-109 20l-57 -124l-57 116l-113 -49l126 -167z" />
    <glyph glyph-name="scaron" unicode="&#x161;" horiz-adv-x="744" 
d="M31 104l102 121c8 9 22 11 31 3c49 -43 101 -60 145 -60c64 0 114 26 114 69c0 19 -46 27 -103 38c-119 24 -277 54 -277 237c0 198 235 275 400 275c67 0 135 -12 203 -39c11 -5 16 -17 12 -28l-69 -177c-5 -13 -19 -18 -31 -11c-43 25 -90 35 -131 35
c-64 0 -116 -22 -116 -57c0 -19 47 -25 104 -36c124 -20 294 -56 294 -259c0 -158 -177 -267 -365 -267c-112 0 -227 38 -312 127c-7 8 -8 21 -1 29zM142 219l-102 -121c80 -84 189 -120 296 -120c177 0 343 100 343 245c0 299 -398 194 -398 295c0 48 62 79 138 79
c45 0 95 -11 142 -38l69 177c-64 27 -131 37 -195 37c-156 0 -378 -72 -378 -253c0 -265 380 -178 380 -275c0 -55 -60 -91 -136 -91c-49 0 -106 18 -159 65zM415 787l-103 -7c-5 0 -15 4 -18 8l-133 161c-11 12 -8 27 7 34l112 54c11 5 24 1 29 -10l40 -73l35 83
c3 9 14 15 23 14l109 -16c16 -3 24 -17 17 -32l-99 -204c-3 -5 -12 -12 -19 -12zM406 817l99 204l-109 16l-53 -126l-61 114l-112 -54l133 -161z" />
    <glyph glyph-name="Tcommaaccent" unicode="&#x162;" horiz-adv-x="689" 
d="M362 -345l-132 -18c-16 -3 -28 10 -25 26l54 276v3l-32 -4c-15 -3 -24 8 -24 23l14 520c-56 -4 -112 -9 -168 -12c-13 -1 -23 9 -23 22l1 267c0 13 10 23 23 22l600 -36c12 -1 21 -10 21 -22l-5 -190c0 -11 -10 -21 -21 -22l-201 -13l20 -510c0 -11 -8 -22 -19 -23
l-110 -13l129 -15c16 -3 24 -16 17 -31l-102 -237c-3 -5 -10 -12 -17 -13zM434 -6l-20 531l222 15l5 190l-600 36l-1 -267l192 13l-15 -544zM351 -315l102 237l-180 21l-54 -276z" />
    <glyph glyph-name="tcommaaccent" unicode="&#x163;" horiz-adv-x="618" 
d="M409 -56l-210 21c-11 1 -20 11 -20 22l5 526l-141 -4c-11 0 -21 9 -22 20l-20 185c-1 13 8 23 21 24l579 36c13 1 23 -9 23 -22l1 -200c0 -12 -9 -22 -21 -22l-139 -7l-32 -558c-1 -13 -11 -22 -24 -21zM403 -26l33 579l159 7l-1 200l-579 -36l20 -185l163 4l-5 -548z
M327 -345l-132 -18c-16 -3 -28 10 -25 26l54 276c3 11 14 19 25 18l180 -21c16 -3 24 -16 17 -31l-102 -237c-3 -5 -10 -12 -17 -13zM316 -315l102 237l-180 21l-54 -276z" />
    <glyph glyph-name="Tcaron" unicode="&#x164;" horiz-adv-x="689" 
d="M445 -36l-218 -26c-15 -3 -24 8 -24 23l14 520c-56 -4 -112 -9 -168 -12c-13 -1 -23 9 -23 22l1 267c0 13 10 23 23 22l600 -36c12 -1 21 -10 21 -22l-5 -190c0 -11 -10 -21 -21 -22l-201 -13l20 -510c0 -11 -8 -22 -19 -23zM434 -6l-20 531l222 15l5 190l-600 36
l-1 -267l192 13l-15 -544zM406 772l-103 4c-5 0 -14 6 -17 10l-114 175c-8 13 -4 28 11 33l117 41c11 4 23 -2 27 -13l31 -77l44 80c4 8 15 13 24 10l107 -28c15 -4 22 -20 14 -33l-121 -192c-3 -5 -13 -10 -20 -10zM399 802l121 192l-107 28l-66 -120l-48 120l-117 -41
l114 -175z" />
    <glyph glyph-name="tcaron" unicode="&#x165;" horiz-adv-x="618" 
d="M409 -56l-210 21c-11 1 -20 11 -20 22l5 526l-141 -4c-11 0 -21 9 -22 20l-20 185c-1 13 8 23 21 24l579 36c13 1 23 -9 23 -22l1 -200c0 -12 -9 -22 -21 -22l-139 -7l-32 -558c-1 -13 -11 -22 -24 -21zM403 -26l33 579l159 7l-1 200l-579 -36l20 -185l163 4l-5 -548z
M372 760l-103 -2c-5 0 -15 5 -18 9l-125 167c-9 12 -6 26 9 33l114 49c11 5 24 0 29 -11l36 -74l38 81c4 8 15 16 24 13l109 -22c16 -3 23 -18 15 -33l-109 -199c-3 -5 -12 -11 -19 -11zM364 790l109 199l-109 22l-58 -124l-56 117l-114 -49l125 -167z" />
    <glyph glyph-name="Tbar" unicode="&#x166;" horiz-adv-x="689" 
d="M445 -36l-218 -26c-15 -3 -24 7 -24 22l8 277l-81 -4c-12 0 -23 10 -23 22l-4 146c0 12 10 22 22 22l91 2c0 19 0 31 1 56c-56 -4 -112 -9 -168 -12c-13 -1 -23 9 -23 22l1 267c0 13 10 23 23 22l600 -36c12 -1 21 -10 21 -22l-5 -190c0 -11 -10 -21 -21 -22l-201 -13
c1 -24 3 -40 4 -69c35 0 68 2 103 2c13 0 23 -10 22 -23l-9 -136c-1 -11 -10 -21 -21 -21l-90 -5c3 -87 8 -173 11 -258c0 -11 -8 -22 -19 -23zM434 -6l-11 281l111 5l9 136l-125 -2l-4 111l222 15l5 190l-600 36l-1 -267l192 13l-3 -101l-112 -2l4 -146l104 4l-8 -299z" />
    <glyph glyph-name="tbar" unicode="&#x167;" horiz-adv-x="618" 
d="M409 -56l-210 21c-11 1 -20 11 -20 22l2 241l-67 -2c-12 0 -23 10 -23 22l-4 146c0 12 10 22 22 22l74 1c0 35 1 57 1 96l-141 -4c-11 0 -21 9 -22 20l-20 185c-1 13 8 23 21 24l579 36c13 1 23 -9 23 -22l1 -200c0 -12 -9 -22 -21 -22l-139 -7l-6 -102c27 1 49 2 76 2
c13 0 23 -10 22 -23l-9 -136c-1 -11 -10 -21 -21 -21l-78 -4l-16 -274c-1 -13 -11 -22 -24 -21zM403 -26l17 295l98 4l9 136l-99 -2l8 146l159 7l-1 200l-579 -36l20 -185l163 4l-1 -140l-96 -1l4 -146l90 3l-2 -264z" />
    <glyph glyph-name="Utilde" unicode="&#x168;" horiz-adv-x="744" 
d="M491 764l178 16c11 1 21 -8 24 -19c11 -71 17 -151 17 -235c0 -285 -78 -589 -332 -589c-234 0 -344 277 -344 600c0 72 8 167 19 230c3 11 13 20 24 19l232 -25c15 -1 23 -13 19 -28c-16 -50 -22 -133 -22 -191c0 -172 26 -287 90 -287c72 0 94 110 94 266
c0 80 -8 153 -19 217c-3 13 7 25 20 26zM663 766l-178 -16c11 -64 19 -137 19 -221c0 -169 -29 -288 -116 -288c-78 0 -112 125 -112 309c0 60 7 143 23 197l-232 25c-11 -64 -19 -155 -19 -227c0 -311 103 -578 322 -578c237 0 310 292 310 567c0 83 -6 161 -17 232z
M323 778l-98 13c-11 1 -19 11 -19 22c0 50 4 191 97 191c45 0 64 -24 80 -45v1c9 -11 17 -22 29 -22c3 0 5 8 5 25v9c0 3 -1 7 -1 11c0 13 11 23 24 22l122 -14c11 -1 19 -9 20 -20c1 -9 2 -19 2 -34c0 -69 -18 -171 -118 -171c-52 0 -74 24 -93 47c-5 5 -15 15 -18 15
c-5 0 -7 -9 -7 -28c0 -15 -10 -25 -25 -22zM220 821l98 -13c0 33 10 50 29 50c35 0 38 -62 111 -62c81 0 96 88 96 149c0 12 -1 23 -2 32l-122 14c0 -7 1 -13 1 -20c0 -28 -3 -47 -27 -47c-51 0 -42 66 -109 66c-72 0 -75 -125 -75 -169z" />
    <glyph glyph-name="utilde" unicode="&#x169;" horiz-adv-x="748" 
d="M498 765l196 -2c11 0 21 -9 22 -20c7 -56 10 -115 10 -180c0 -344 -87 -623 -336 -623c-224 0 -362 317 -362 662c0 48 3 94 8 141c1 12 12 21 24 20l263 -22c13 -1 23 -12 20 -25c-5 -33 -9 -92 -9 -152c0 -191 22 -316 81 -316c61 0 85 96 85 248c0 80 -9 166 -24 243
c-3 15 7 26 22 26zM686 749l-196 2c15 -77 24 -164 24 -247c0 -165 -30 -270 -107 -270c-75 0 -103 134 -103 338c0 61 4 122 9 155l-263 22c-5 -47 -8 -92 -8 -139c0 -334 129 -640 340 -640c232 0 314 269 314 601c0 64 -3 122 -10 178zM336 781l-98 13
c-11 1 -19 11 -19 22c0 50 4 191 97 191c45 0 64 -24 80 -45v1c9 -11 17 -22 29 -22c3 0 5 8 5 25v9c0 3 -1 7 -1 11c0 13 11 23 24 22l122 -14c11 -1 19 -9 20 -20c1 -9 2 -19 2 -34c0 -69 -18 -171 -118 -171c-52 0 -74 24 -93 47c-5 5 -15 15 -18 15c-5 0 -7 -9 -7 -28
c0 -15 -10 -25 -25 -22zM233 824l98 -13c0 33 10 50 29 50c35 0 38 -62 111 -62c81 0 96 88 96 149c0 12 -1 23 -2 32l-122 14c0 -7 1 -13 1 -20c0 -28 -3 -47 -27 -47c-51 0 -42 66 -109 66c-72 0 -75 -125 -75 -169z" />
    <glyph glyph-name="Umacron" unicode="&#x16a;" horiz-adv-x="744" 
d="M491 764l178 16c11 1 21 -8 24 -19c11 -71 17 -151 17 -235c0 -285 -78 -589 -332 -589c-234 0 -344 277 -344 600c0 72 8 167 19 230c3 11 13 20 24 19l232 -25c15 -1 23 -13 19 -28c-16 -50 -22 -133 -22 -191c0 -172 26 -287 90 -287c72 0 94 110 94 266
c0 80 -8 153 -19 217c-3 13 7 25 20 26zM663 766l-178 -16c11 -64 19 -137 19 -221c0 -169 -29 -288 -116 -288c-78 0 -112 125 -112 309c0 60 7 143 23 197l-232 25c-11 -64 -19 -155 -19 -227c0 -311 103 -578 322 -578c237 0 310 292 310 567c0 83 -6 161 -17 232z
M604 798l-413 -17c-12 0 -23 10 -23 22l-4 146c0 12 10 22 22 22l426 7c13 0 23 -10 22 -23l-9 -136c-1 -11 -10 -21 -21 -21zM595 828l9 136l-426 -7l4 -146z" />
    <glyph glyph-name="umacron" unicode="&#x16b;" horiz-adv-x="748" 
d="M498 765l196 -2c11 0 21 -9 22 -20c7 -56 10 -115 10 -180c0 -344 -87 -623 -336 -623c-224 0 -362 317 -362 662c0 48 3 94 8 141c1 12 12 21 24 20l263 -22c13 -1 23 -12 20 -25c-5 -33 -9 -92 -9 -152c0 -191 22 -316 81 -316c61 0 85 96 85 248c0 80 -9 166 -24 243
c-3 15 7 26 22 26zM686 749l-196 2c15 -77 24 -164 24 -247c0 -165 -30 -270 -107 -270c-75 0 -103 134 -103 338c0 61 4 122 9 155l-263 22c-5 -47 -8 -92 -8 -139c0 -334 129 -640 340 -640c232 0 314 269 314 601c0 64 -3 122 -10 178zM594 795l-413 -17
c-12 0 -23 10 -23 22l-4 146c0 12 10 22 22 22l426 7c13 0 23 -10 22 -23l-9 -136c-1 -11 -10 -21 -21 -21zM585 825l9 136l-426 -7l4 -146z" />
    <glyph glyph-name="Ubreve" unicode="&#x16c;" horiz-adv-x="744" 
d="M491 764l178 16c11 1 21 -8 24 -19c11 -71 17 -151 17 -235c0 -285 -78 -589 -332 -589c-234 0 -344 277 -344 600c0 72 8 167 19 230c3 11 13 20 24 19l232 -25c15 -1 23 -13 19 -28c-16 -50 -22 -133 -22 -191c0 -172 26 -287 90 -287c72 0 94 110 94 266
c0 80 -8 153 -19 217c-3 13 7 25 20 26zM663 766l-178 -16c11 -64 19 -137 19 -221c0 -169 -29 -288 -116 -288c-78 0 -112 125 -112 309c0 60 7 143 23 197l-232 25c-11 -64 -19 -155 -19 -227c0 -311 103 -578 322 -578c237 0 310 292 310 567c0 83 -6 161 -17 232z
M407 1004h170c12 0 22 -10 22 -22c0 -84 -30 -216 -206 -216c-155 0 -181 127 -181 204c0 12 10 22 22 22h100c12 0 22 -10 22 -22c0 -21 8 -35 23 -35c7 0 10 7 10 18c-1 1 -2 10 -3 17c-1 4 -1 9 -1 12c0 12 10 22 22 22zM569 990h-170c1 -7 4 -19 4 -28
c0 -23 -5 -41 -32 -41c-31 0 -45 22 -45 57h-100c0 -70 23 -182 159 -182c158 0 184 119 184 194z" />
    <glyph glyph-name="ubreve" unicode="&#x16d;" horiz-adv-x="748" 
d="M498 765l196 -2c11 0 21 -9 22 -20c7 -56 10 -115 10 -180c0 -344 -87 -623 -336 -623c-224 0 -362 317 -362 662c0 48 3 94 8 141c1 12 12 21 24 20l263 -22c13 -1 23 -12 20 -25c-5 -33 -9 -92 -9 -152c0 -191 22 -316 81 -316c61 0 85 96 85 248c0 80 -9 166 -24 243
c-3 15 7 26 22 26zM686 749l-196 2c15 -77 24 -164 24 -247c0 -165 -30 -270 -107 -270c-75 0 -103 134 -103 338c0 61 4 122 9 155l-263 22c-5 -47 -8 -92 -8 -139c0 -334 129 -640 340 -640c232 0 314 269 314 601c0 64 -3 122 -10 178zM397 994h170c12 0 22 -10 22 -22
c0 -84 -30 -216 -206 -216c-155 0 -181 127 -181 204c0 12 10 22 22 22h100c12 0 22 -10 22 -22c0 -21 8 -35 23 -35c7 0 10 7 10 18c-1 1 -2 10 -3 17c-1 4 -1 9 -1 12c0 12 10 22 22 22zM559 980h-170c1 -7 4 -19 4 -28c0 -23 -5 -41 -32 -41c-31 0 -45 22 -45 57h-100
c0 -70 23 -182 159 -182c158 0 184 119 184 194z" />
    <glyph glyph-name="Uring" unicode="&#x16e;" horiz-adv-x="744" 
d="M491 764l178 16c11 1 21 -8 24 -19c11 -71 17 -151 17 -235c0 -285 -78 -589 -332 -589c-234 0 -344 277 -344 600c0 72 8 167 19 230c3 11 13 20 24 19l232 -25c15 -1 23 -13 19 -28c-16 -50 -22 -133 -22 -191c0 -172 26 -287 90 -287c72 0 94 110 94 266
c0 80 -8 153 -19 217c-3 13 7 25 20 26zM663 766l-178 -16c11 -64 19 -137 19 -221c0 -169 -29 -288 -116 -288c-78 0 -112 125 -112 309c0 60 7 143 23 197l-232 25c-11 -64 -19 -155 -19 -227c0 -311 103 -578 322 -578c237 0 310 292 310 567c0 83 -6 161 -17 232z
M552 904c0 -81 -71 -147 -155 -147s-155 66 -155 147c0 83 71 148 155 148s155 -65 155 -148zM522 912c0 69 -60 126 -133 126s-133 -57 -133 -126c0 -68 60 -125 133 -125s133 57 133 125zM394 872c-19 0 -34 16 -34 37c0 20 15 37 34 37s34 -17 34 -37
c0 -21 -15 -37 -34 -37zM402 886c8 0 12 5 12 15c0 8 -5 15 -12 15s-12 -7 -12 -15c0 -9 5 -15 12 -15z" />
    <glyph glyph-name="uring" unicode="&#x16f;" horiz-adv-x="748" 
d="M498 765l196 -2c11 0 21 -9 22 -20c7 -56 10 -115 10 -180c0 -344 -87 -623 -336 -623c-224 0 -362 317 -362 662c0 48 3 94 8 141c1 12 12 21 24 20l263 -22c13 -1 23 -12 20 -25c-5 -33 -9 -92 -9 -152c0 -191 22 -316 81 -316c61 0 85 96 85 248c0 80 -9 166 -24 243
c-3 15 7 26 22 26zM686 749l-196 2c15 -77 24 -164 24 -247c0 -165 -30 -270 -107 -270c-75 0 -103 134 -103 338c0 61 4 122 9 155l-263 22c-5 -47 -8 -92 -8 -139c0 -334 129 -640 340 -640c232 0 314 269 314 601c0 64 -3 122 -10 178zM536 901c0 -81 -71 -147 -155 -147
s-155 66 -155 147c0 83 71 148 155 148s155 -65 155 -148zM506 909c0 69 -60 126 -133 126s-133 -57 -133 -126c0 -68 60 -125 133 -125s133 57 133 125zM378 869c-19 0 -34 16 -34 37c0 20 15 37 34 37s34 -17 34 -37c0 -21 -15 -37 -34 -37zM386 883c8 0 12 5 12 15
c0 8 -5 15 -12 15s-12 -7 -12 -15c0 -9 5 -15 12 -15z" />
    <glyph glyph-name="Uhungarumlaut" unicode="&#x170;" horiz-adv-x="744" 
d="M491 764l178 16c11 1 21 -8 24 -19c11 -71 17 -151 17 -235c0 -285 -78 -589 -332 -589c-234 0 -344 277 -344 600c0 72 8 167 19 230c3 11 13 20 24 19l232 -25c15 -1 23 -13 19 -28c-16 -50 -22 -133 -22 -191c0 -172 26 -287 90 -287c72 0 94 110 94 266
c0 80 -8 153 -19 217c-3 13 7 25 20 26zM663 766l-178 -16c11 -64 19 -137 19 -221c0 -169 -29 -288 -116 -288c-78 0 -112 125 -112 309c0 60 7 143 23 197l-232 25c-11 -64 -19 -155 -19 -227c0 -311 103 -578 322 -578c237 0 310 292 310 567c0 83 -6 161 -17 232z
M493 768l-84 35c-13 5 -18 19 -11 31l39 70l-129 -131c-5 -5 -17 -8 -24 -5l-84 35c-13 5 -18 19 -11 31l102 181c5 8 17 13 26 10l148 -48l10 -6l25 44c5 8 17 13 26 10l148 -48c17 -5 21 -23 9 -36l-166 -168c-5 -5 -17 -8 -24 -5zM284 796l166 168l-148 48l-102 -181z
M493 796l166 168l-148 48l-102 -181z" />
    <glyph glyph-name="uhungarumlaut" unicode="&#x171;" horiz-adv-x="748" 
d="M498 765l196 -2c11 0 21 -9 22 -20c7 -56 10 -115 10 -180c0 -344 -87 -623 -336 -623c-224 0 -362 317 -362 662c0 48 3 94 8 141c1 12 12 21 24 20l263 -22c13 -1 23 -12 20 -25c-5 -33 -9 -92 -9 -152c0 -191 22 -316 81 -316c61 0 85 96 85 248c0 80 -9 166 -24 243
c-3 15 7 26 22 26zM686 749l-196 2c15 -77 24 -164 24 -247c0 -165 -30 -270 -107 -270c-75 0 -103 134 -103 338c0 61 4 122 9 155l-263 22c-5 -47 -8 -92 -8 -139c0 -334 129 -640 340 -640c232 0 314 269 314 601c0 64 -3 122 -10 178zM490 771l-84 35
c-13 5 -18 19 -11 31l39 70l-129 -131c-5 -5 -17 -8 -24 -5l-84 35c-13 5 -18 19 -11 31l102 181c5 8 17 13 26 10l148 -48l10 -6l25 44c5 8 17 13 26 10l148 -48c17 -5 21 -23 9 -36l-166 -168c-5 -5 -17 -8 -24 -5zM281 799l166 168l-148 48l-102 -181zM490 799l166 168
l-148 48l-102 -181z" />
    <glyph glyph-name="Uogonek" unicode="&#x172;" horiz-adv-x="744" 
d="M613 -93l39 -66c4 -7 3 -17 -1 -24c-24 -35 -118 -99 -197 -99c-76 0 -158 66 -158 147c0 27 9 56 21 79c-194 42 -283 300 -283 593c0 72 8 167 19 230c3 11 13 20 24 19l232 -25c15 -1 23 -13 19 -28c-16 -50 -22 -133 -22 -191c0 -172 26 -287 90 -287
c72 0 94 110 94 266c0 80 -8 153 -19 217c-3 13 7 25 20 26l178 16c11 1 21 -8 24 -19c11 -71 17 -151 17 -235c0 -218 -49 -437 -173 -544l1 1l-5 -4c-19 -17 -45 -39 -45 -66c0 -15 10 -28 25 -28c25 0 49 16 69 29c11 7 24 4 31 -7zM625 -162l-39 66
c-23 -15 -49 -33 -81 -33c-28 0 -47 23 -47 50c0 37 35 68 56 86c118 104 166 314 166 527c0 83 -6 161 -17 232l-178 -16c11 -64 19 -137 19 -221c0 -169 -29 -288 -116 -288c-78 0 -112 125 -112 309c0 60 7 143 23 197l-232 25c-11 -64 -19 -155 -19 -227
c0 -300 95 -558 298 -577c-21 -28 -36 -60 -36 -95c0 -68 70 -125 136 -125c73 0 155 58 179 90z" />
    <glyph glyph-name="uogonek" unicode="&#x173;" horiz-adv-x="748" 
d="M643 -81l39 -66c4 -7 3 -17 -1 -24c-24 -35 -118 -99 -197 -99c-76 0 -158 66 -158 147c0 23 5 46 16 69c-196 43 -314 336 -314 656c0 48 3 94 8 141c1 12 12 21 24 20l263 -22c13 -1 23 -12 20 -25c-5 -33 -9 -92 -9 -152c0 -191 22 -316 81 -316c61 0 85 96 85 248
c0 80 -9 166 -24 243c-3 15 7 26 22 26l196 -2c11 0 21 -9 22 -20c7 -56 10 -115 10 -180c0 -245 -47 -450 -154 -559l-8 -7c-18 -18 -46 -45 -46 -72c0 -15 10 -28 25 -28c25 0 49 16 69 29c11 7 24 4 31 -7zM655 -150l-39 66c-23 -15 -49 -33 -81 -33c-28 0 -47 23 -47 50
c0 42 40 75 60 95c101 104 148 303 148 543c0 64 -3 122 -10 178l-196 2c15 -77 24 -164 24 -247c0 -165 -30 -270 -107 -270c-75 0 -103 134 -103 338c0 61 4 122 9 155l-263 22c-5 -47 -8 -92 -8 -139c0 -326 124 -627 327 -639c-17 -27 -29 -55 -29 -86
c0 -68 70 -125 136 -125c73 0 155 58 179 90z" />
    <glyph glyph-name="Wcircumflex" unicode="&#x174;" horiz-adv-x="958" 
d="M673 -58l-174 39c-8 3 -16 10 -17 18l-38 237c-27 -80 -53 -161 -78 -241c-3 -7 -10 -14 -17 -15l-195 -41c-12 -3 -23 6 -26 18l-139 774c-3 12 6 23 18 26l260 46c13 3 25 -7 26 -20l31 -301l60 188c3 7 12 14 20 15l132 9c11 1 20 -7 23 -18l44 -235l110 335
c4 12 16 18 28 14l221 -73c12 -4 18 -17 14 -29l-277 -733c-4 -11 -15 -16 -26 -13zM670 -29l277 733l-221 73l-138 -417l-59 320l-132 -9l-93 -287l-41 405l-260 -46l139 -774l195 41l106 331l53 -331zM686 799l-117 -41c-11 -4 -23 2 -27 13l-31 77l-44 -80
c-4 -8 -15 -13 -24 -10l-107 28c-15 4 -22 20 -14 33l121 192c3 5 13 10 20 10l103 -4c5 0 14 -6 17 -10l114 -175c8 -13 4 -28 -11 -33zM671 828l-114 175l-103 4l-121 -192l107 -28l66 120l48 -120z" />
    <glyph glyph-name="wcircumflex" unicode="&#x175;" horiz-adv-x="912" 
d="M650 -62l-150 20c-7 1 -15 9 -18 16l-68 234l-68 -225c-3 -7 -11 -15 -18 -16l-156 -24c-12 -3 -22 6 -25 18l-138 761c-3 13 7 25 20 26l211 21c11 1 21 -8 24 -19l40 -261c15 64 32 127 47 190c3 9 12 17 21 17l119 -1c11 0 19 -7 22 -18l53 -256l97 331
c3 11 15 18 26 15l229 -57c13 -3 20 -15 16 -28l-260 -729c-3 -9 -13 -16 -24 -15zM645 -32l260 729l-229 57l-123 -417l-70 344l-119 1l-73 -299l-57 372l-211 -21l138 -761l156 24l90 296l88 -305zM641 788l-117 -41c-11 -4 -23 2 -27 13l-31 77l-44 -80
c-4 -8 -15 -13 -24 -10l-107 28c-15 4 -22 20 -14 33l121 192c3 5 13 10 20 10l103 -4c5 0 14 -6 17 -10l114 -175c8 -13 4 -28 -11 -33zM626 817l-114 175l-103 4l-121 -192l107 -28l66 120l48 -120z" />
    <glyph glyph-name="Ycircumflex" unicode="&#x176;" horiz-adv-x="771" 
d="M607 816l-117 -41c-11 -4 -23 2 -27 13l-31 77l-44 -80c-4 -8 -15 -13 -24 -10l-90 23c4 -3 7 -5 8 -7l145 -258c48 85 96 172 144 256c5 9 16 14 27 10l183 -69c15 -5 18 -21 10 -33l-254 -386l3 -329c0 -11 -9 -21 -20 -22l-246 -21c-13 -1 -24 9 -24 22l-4 355
c-92 119 -182 239 -274 358c-11 13 -5 29 10 34l274 93c1 0 2 1 5 1l-4 1c-15 4 -22 20 -14 33l121 192c3 5 13 10 20 10l103 -4c5 0 14 -6 17 -10l114 -175c8 -13 4 -28 -11 -33zM510 -10l-3 334l258 393l-183 69l-163 -290l-164 292l-274 -93l279 -364l4 -362zM592 845
l-114 175l-103 4l-121 -192l107 -28l66 120l48 -120z" />
    <glyph glyph-name="ycircumflex" unicode="&#x177;" horiz-adv-x="745" 
d="M518 -41l-261 5c-12 0 -22 11 -22 23l10 294c-88 113 -171 223 -259 336c-8 11 -6 24 5 31l204 139c11 7 23 5 30 -6l172 -256l127 248c5 9 17 15 28 11l198 -73c13 -5 18 -20 11 -32l-225 -396l4 -302c0 -12 -10 -22 -22 -22zM510 -11l-4 308l228 401l-198 73l-144 -282
l-193 288l-204 -139l264 -342l-10 -302zM562 812l-117 -41c-11 -4 -23 2 -27 13l-31 77l-44 -80c-4 -8 -15 -13 -24 -10l-107 28c-15 4 -22 20 -14 33l121 192c3 5 13 10 20 10l103 -4c5 0 14 -6 17 -10l114 -175c8 -13 4 -28 -11 -33zM547 841l-114 175l-103 4l-121 -192
l107 -28l66 120l48 -120z" />
    <glyph glyph-name="Ydieresis" unicode="&#x178;" horiz-adv-x="771" 
d="M527 776c-51 0 -91 42 -91 93s40 93 91 93c49 0 90 -42 90 -93c0 -27 -11 -52 -30 -69c4 1 7 0 11 -1l183 -69c15 -5 18 -21 10 -33l-254 -386l3 -329c0 -11 -9 -21 -20 -22l-246 -21c-13 -1 -24 9 -24 22l-4 355c-92 119 -182 239 -274 358c-11 13 -5 29 10 34l274 93
c5 1 10 1 15 -1c-19 17 -30 41 -30 69c0 51 40 93 91 93c49 0 90 -42 90 -93s-41 -93 -90 -93c-19 0 -36 5 -50 14l145 -257c47 84 95 170 143 254c-13 -7 -28 -11 -43 -11zM510 -10l-3 334l258 393l-183 69l-163 -290l-164 292l-274 -93l279 -364l4 -362zM519 806
c37 0 68 32 68 71s-31 71 -68 71c-39 0 -69 -32 -69 -71s30 -71 69 -71zM324 806c37 0 68 32 68 71s-31 71 -68 71c-39 0 -69 -32 -69 -71s30 -71 69 -71z" />
    <glyph glyph-name="Zacute" unicode="&#x179;" horiz-adv-x="817" 
d="M743 -63l-705 63c-19 3 -27 19 -16 34l329 502c-88 -5 -175 -10 -263 -14c-13 -1 -23 9 -23 22l3 191c0 11 10 21 21 22l685 31c19 1 29 -17 20 -33l-304 -527l258 10c13 0 23 -9 23 -22l-4 -257c0 -13 -11 -23 -24 -22zM737 -33l4 257l-297 -11l323 561l-685 -31
l-3 -191l305 16l-352 -538zM408 782l-84 35c-13 5 -18 19 -11 31l102 181c5 8 17 13 26 10l148 -48c17 -5 21 -23 9 -36l-166 -168c-5 -5 -17 -8 -24 -5zM408 810l166 168l-148 48l-102 -181z" />
    <glyph glyph-name="zacute" unicode="&#x17a;" horiz-adv-x="749" 
d="M692 -27h-633c-12 0 -22 10 -22 22v154l313 370c-87 -7 -169 -12 -256 -17c-13 -1 -23 9 -23 22l4 216c0 12 9 22 21 22l523 16c7 0 18 -5 21 -12l72 -152c3 -7 2 -18 -2 -23l-287 -387l256 20c12 1 23 -9 24 -21l11 -207c1 -13 -9 -23 -22 -23zM684 3l-11 207l-305 -23
l316 425l-72 152l-523 -16l-4 -216l306 20l-340 -403v-146h633zM355 776l-84 35c-13 5 -18 19 -11 31l102 181c5 8 17 13 26 10l148 -48c17 -5 21 -23 9 -36l-166 -168c-5 -5 -17 -8 -24 -5zM355 804l166 168l-148 48l-102 -181z" />
    <glyph glyph-name="Zdotaccent" unicode="&#x17b;" horiz-adv-x="817" 
d="M743 -63l-705 63c-19 3 -27 19 -16 34l329 502c-88 -5 -175 -10 -263 -14c-13 -1 -23 9 -23 22l3 191c0 11 10 21 21 22l685 31c19 1 29 -17 20 -33l-304 -527l258 10c13 0 23 -9 23 -22l-4 -257c0 -13 -11 -23 -24 -22zM737 -33l4 257l-297 -11l323 561l-685 -31
l-3 -191l305 16l-352 -538zM409 783c-51 0 -91 42 -91 93s40 93 91 93c49 0 90 -42 90 -93s-41 -93 -90 -93zM401 813c37 0 68 32 68 71s-31 71 -68 71c-39 0 -69 -32 -69 -71s30 -71 69 -71z" />
    <glyph glyph-name="zdotaccent" unicode="&#x17c;" horiz-adv-x="749" 
d="M692 -27h-633c-12 0 -22 10 -22 22v154l313 370c-87 -7 -169 -12 -256 -17c-13 -1 -23 9 -23 22l4 216c0 12 9 22 21 22l523 16c7 0 18 -5 21 -12l72 -152c3 -7 2 -18 -2 -23l-287 -387l256 20c12 1 23 -9 24 -21l11 -207c1 -13 -9 -23 -22 -23zM684 3l-11 207l-305 -23
l316 425l-72 152l-523 -16l-4 -216l306 20l-340 -403v-146h633zM375 783c-51 0 -91 42 -91 93s40 93 91 93c49 0 90 -42 90 -93s-41 -93 -90 -93zM367 813c37 0 68 32 68 71s-31 71 -68 71c-39 0 -69 -32 -69 -71s30 -71 69 -71z" />
    <glyph glyph-name="Zcaron" unicode="&#x17d;" horiz-adv-x="817" 
d="M743 -63l-705 63c-19 3 -27 19 -16 34l329 502c-88 -5 -175 -10 -263 -14c-13 -1 -23 9 -23 22l3 191c0 11 10 21 21 22l685 31c19 1 29 -17 20 -33l-304 -527l258 10c13 0 23 -9 23 -22l-4 -257c0 -13 -11 -23 -24 -22zM737 -33l4 257l-297 -11l323 561l-685 -31
l-3 -191l305 16l-352 -538zM478 786l-103 4c-5 0 -14 6 -17 10l-114 175c-8 13 -4 28 11 33l117 41c11 4 23 -2 27 -13l31 -77l44 80c4 8 15 13 24 10l107 -28c15 -4 22 -20 14 -33l-121 -192c-3 -5 -13 -10 -20 -10zM471 816l121 192l-107 28l-66 -120l-48 120l-117 -41
l114 -175z" />
    <glyph glyph-name="zcaron" unicode="&#x17e;" horiz-adv-x="749" 
d="M692 -27h-633c-12 0 -22 10 -22 22v154l313 370c-87 -7 -169 -12 -256 -17c-13 -1 -23 9 -23 22l4 216c0 12 9 22 21 22l523 16c7 0 18 -5 21 -12l72 -152c3 -7 2 -18 -2 -23l-287 -387l256 20c12 1 23 -9 24 -21l11 -207c1 -13 -9 -23 -22 -23zM684 3l-11 207l-305 -23
l316 425l-72 152l-523 -16l-4 -216l306 20l-340 -403v-146h633zM421 778l-103 4c-5 0 -14 6 -17 10l-114 175c-8 13 -4 28 11 33l117 41c11 4 23 -2 27 -13l31 -77l44 80c4 8 15 13 24 10l107 -28c15 -4 22 -20 14 -33l-121 -192c-3 -5 -13 -10 -20 -10zM414 808l121 192
l-107 28l-66 -120l-48 120l-117 -41l114 -175z" />
    <glyph glyph-name="Ohorn" unicode="&#x1a0;" horiz-adv-x="856" 
d="M831 369c0 -246 -196 -399 -416 -399c-212 0 -390 167 -390 392c0 229 149 421 403 421c81 0 151 -20 211 -55c39 24 46 49 46 80c0 15 -3 35 -6 54c-3 17 12 29 29 24l148 -48c8 -3 15 -13 15 -21c0 -93 -48 -158 -121 -191c48 -72 81 -168 81 -257zM801 377
c0 100 -32 195 -95 267c81 25 135 86 135 181l-148 48c3 -19 6 -38 6 -57c0 -39 -13 -77 -68 -106c-57 37 -127 59 -211 59c-240 0 -381 -180 -381 -399c0 -212 168 -370 368 -370c208 0 394 145 394 377zM423 188c-110 0 -161 82 -161 166c0 104 64 175 160 175
s147 -83 147 -161c0 -107 -58 -180 -146 -180zM431 202c76 0 124 65 124 158c0 67 -43 139 -125 139c-85 0 -138 -62 -138 -153c0 -73 44 -144 139 -144z" />
    <glyph glyph-name="ohorn" unicode="&#x1a1;" horiz-adv-x="824" 
d="M408 -51c-219 0 -383 192 -383 416c0 228 166 425 386 425c83 0 156 -23 217 -69c28 23 37 48 37 73c0 15 -3 35 -6 54c-3 17 12 29 29 24l148 -48c8 -3 15 -13 15 -21c0 -92 -48 -158 -121 -191c43 -68 69 -152 69 -244c0 -222 -171 -419 -391 -419zM400 -21
c208 0 369 186 369 397c0 97 -30 186 -81 255c80 25 133 87 133 180l-148 48c3 -19 6 -38 6 -57c0 -37 -12 -70 -60 -101c-60 47 -132 75 -216 75c-207 0 -364 -187 -364 -403c0 -213 156 -394 361 -394zM405 188c-103 0 -150 74 -150 170c0 92 62 175 153 175
c83 0 138 -80 138 -172s-51 -173 -141 -173zM413 202c76 0 119 71 119 151c0 81 -44 150 -116 150c-77 0 -131 -72 -131 -153c0 -83 40 -148 128 -148z" />
    <glyph glyph-name="Uhorn" unicode="&#x1af;" horiz-adv-x="770" 
d="M491 764l67 6c76 11 97 62 97 100c0 15 -3 35 -6 54c-3 17 12 29 29 24l148 -48c8 -3 15 -13 15 -21c0 -100 -54 -166 -138 -197c4 -48 7 -104 7 -156c0 -285 -78 -589 -332 -589c-234 0 -344 277 -344 600c0 72 8 167 19 230c3 11 13 20 24 19l232 -25
c15 -1 23 -13 19 -28c-16 -50 -22 -133 -22 -191c0 -172 26 -287 90 -287c72 0 94 110 94 266c0 80 -8 153 -19 217c-3 13 7 25 20 26zM552 756l-67 -6c11 -64 19 -137 19 -221c0 -169 -29 -288 -116 -288c-78 0 -112 125 -112 309c0 60 7 143 23 197l-232 25
c-11 -64 -19 -155 -19 -227c0 -311 103 -578 322 -578c237 0 310 292 310 567c0 60 -3 117 -9 171c84 24 140 86 140 182l-148 48c3 -19 6 -38 6 -57c0 -45 -19 -114 -117 -122z" />
    <glyph glyph-name="uhorn" unicode="&#x1b0;" horiz-adv-x="780" 
d="M498 765l67 -1c79 0 106 62 106 102c0 15 -3 35 -6 54c-3 17 12 29 29 24l148 -48c8 -3 15 -13 15 -21c0 -99 -52 -166 -135 -197c3 -39 4 -72 4 -115c0 -344 -87 -623 -336 -623c-224 0 -362 317 -362 662c0 48 3 94 8 141c1 12 12 21 24 20l263 -22
c13 -1 23 -12 20 -25c-5 -33 -9 -92 -9 -152c0 -191 22 -316 81 -316c61 0 85 96 85 248c0 80 -9 166 -24 243c-3 15 7 26 22 26zM557 750l-67 1c15 -77 24 -164 24 -247c0 -165 -30 -270 -107 -270c-75 0 -103 134 -103 338c0 61 4 122 9 155l-263 22
c-5 -47 -8 -92 -8 -139c0 -334 129 -640 340 -640c232 0 314 269 314 601c0 45 -2 89 -6 131c83 24 137 86 137 181l-148 48c3 -19 6 -38 6 -57c0 -48 -32 -124 -128 -124z" />
    </font>
</defs>
</svg>
