<?xml version="1.0" standalone="no"?>
<!DOCTYPE svg PUBLIC "-//W3C//DTD SVG 1.1//EN" "http://www.w3.org/Graphics/SVG/1.1/DTD/svg11.dtd" >
<svg xmlns="http://www.w3.org/2000/svg" xmlns:xlink="http://www.w3.org/1999/xlink" version="1.1">
<metadata>
Created by FontForge 20141024 at Sat May 30 15:21:25 2015
 By System Administrator
Copyright (c) 2014 by Mariya Pigoulevskaya. All rights reserved.
</metadata>
<defs>
<font id="Qiber" horiz-adv-x="293" >
  <font-face 
    font-family="Qiber"
    font-weight="400"
    font-stretch="normal"
    units-per-em="1000"
    panose-1="0 0 5 0 0 0 0 0 0 0"
    ascent="739"
    descent="-261"
    x-height="461"
    cap-height="718"
    bbox="0 -364.084 2543 992.125"
    underline-thickness="50"
    underline-position="-50"
    unicode-range="U+0020-25CA"
  />
<missing-glyph horiz-adv-x="500" 
d="M500 0h-500v700h500v-700zM80 650l170 -255l170 255h-340zM450 605l-170 -255l170 -255v510zM250 305l-170 -255h340zM220 350l-170 255v-510z" />
    <glyph glyph-name=".notdef" horiz-adv-x="500" 
d="M500 0h-500v700h500v-700zM80 650l170 -255l170 255h-340zM450 605l-170 -255l170 -255v510zM250 305l-170 -255h340zM220 350l-170 255v-510z" />
    <glyph glyph-name="NULL" horiz-adv-x="0" 
 />
    <glyph glyph-name="CR" horiz-adv-x="333" 
 />
    <glyph glyph-name="space" unicode=" " horiz-adv-x="250" 
 />
    <glyph glyph-name="exclam" unicode="!" horiz-adv-x="145" 
d="M39 603c-4 8 -3 9 2 16l-1 2c-1 -2 -3 -2 -4 0c-1 1 -2 8 -1 19c1 12 3 18 6 17c-1 1 -2 1 -3 0v47c1 15 6 34 15 45h27c7 -8 11 -19 12 -34c2 -14 2 -33 1 -58c-1 -24 -2 -41 -2 -50c1 -12 0 -30 -2 -54c-1 -23 -1 -40 0 -51c0 -1 -2 -4 -5 -8c6 -10 7 -28 2 -54
c3 -17 4 -39 4 -65c1 -26 0 -47 -3 -62c5 -9 5 -21 0 -38c5 -12 6 -41 -3 -44c4 2 7 0 5 -12c-6 6 2 -7 -9 -5c0 -7 6 1 9 -2c-5 -10 -5 -25 -21 -29c-19 23 -26 74 -23 152c-3 8 -3 40 -4 49c3 -2 5 -2 8 0c0 3 -5 -1 -8 2v14c3 1 5 2 8 2c-5 2 -8 6 -8 13h6
c-5 5 -7 14 -5 26s2 20 -1 24c1 8 2 21 1 40c0 19 0 33 1 41c-8 6 -1 46 -4 57zM116 58c6 -18 5 -37 -3 -56c-7 -19 -20 -28 -39 -25c-15 2 -22 20 -35 31c0 3 1 4 4 4c-9 11 -9 24 0 40s19 25 31 27c13 0 27 -7 42 -21z" />
    <glyph glyph-name="quotedbl" unicode="&#x22;" horiz-adv-x="239" 
d="M210 724c10 -15 4 -39 4 -65c-1 -46 -8 -75 -20 -88c-1 -1 -2 -2 -1 -3s1 -2 1 -3c-15 -15 -35 -6 -38 19c-1 1 0 2 1 3l3 1c0 5 -6 27 -6 35c0 2 1 3 4 3l-6 54c0 13 -1 34 2 46l4 -2c5 19 10 29 13 31c3 4 23 -2 31 -2c0 -3 7 -6 4 -9c0 -4 3 1 6 -2
c-5 -5 3 -14 -2 -18zM37 640c1 3 3 4 6 4c-1 1 -5 2 -6 2c3 5 1 21 6 26c0 5 -7 0 -4 -3c-2 0 -3 1 -2 3c1 4 3 5 6 4c-9 7 -9 18 0 31c-7 7 0 13 0 23h5c9 17 26 14 41 2c4 -18 5 -44 3 -79s-1 -61 3 -78c-5 -5 -12 -16 -20 -18c-1 4 -12 9 -13 6c-9 7 -15 23 -18 32
c-1 11 -6 38 -7 45z" />
    <glyph glyph-name="numbersign" unicode="#" horiz-adv-x="379" 
d="M267 357c16 -10 59 17 67 -8c0 -4 -7 -7 -6 -11c-25 0 -47 -3 -67 -8c-1 -16 -11 -52 -12 -71c-1 0 -2 -1 -2 -4h-3c5 -8 -5 -32 -2 -40c-3 0 -4 1 -4 3l-6 -40c-5 -37 -10 -63 -21 -84c5 -15 1 -35 -8 -43c3 -1 5 -3 4 -5c-1 -4 -4 -16 -8 -37c-4 -3 -7 -5 -3 -11v-2
c-1 -3 -3 -5 -4 -7c-1 -1 -1 -4 -2 -7c-4 -11 -9 -15 -21 -21c-7 -1 -15 8 -16 8c-2 77 3 133 16 169c-4 2 -2 4 2 13c2 14 4 43 7 48l2 -4c3 13 6 45 10 62c3 0 5 1 6 2c-1 1 -4 1 -4 0c1 9 3 22 7 37c4 16 6 27 6 32c-1 2 -9 2 -24 1s-26 -1 -33 -1c-4 -2 -7 -11 -9 -27
s-6 -25 -11 -27c0 -3 2 -4 6 -4c-6 -25 -13 -62 -21 -110c-7 -48 -13 -81 -17 -99s-8 -28 -12 -29c4 -13 2 -28 -7 -46c-10 -22 -23 -24 -38 -6c-4 16 -4 41 0 74c5 33 11 59 18 78c4 51 14 113 31 188c-5 4 -32 -5 -40 2c-4 23 18 24 30 16v5c5 -3 15 4 20 4
c-4 2 -5 9 -2 22s4 23 4 28c1 1 3 2 5 2c-3 7 -2 18 1 33c4 15 6 24 5 28c-6 0 -18 -1 -36 -4c-17 -3 -28 -2 -31 1c-5 9 -2 15 9 18s20 2 29 -1c-7 9 30 6 37 11c5 30 8 55 9 75h6c-7 15 -1 45 10 54c0 1 -4 1 -4 4c7 19 6 50 15 56c4 31 8 84 39 111c13 1 25 -20 28 -21
c-5 -17 -10 -46 -15 -85s-11 -68 -17 -86c-3 -7 -5 -24 -7 -49s-5 -43 -10 -55c14 0 34 1 61 4c7 12 9 41 12 56c1 0 2 -2 1 -6c1 -1 2 -1 2 -2c0 20 6 52 10 72l10 40c5 17 8 28 9 34c1 0 2 -1 2 -4c2 9 -3 25 8 29c-2 7 -1 17 3 31c4 15 9 24 16 28c0 1 -6 7 -2 8l1 1
c8 14 14 11 39 -3l-53 -278c21 -3 58 14 63 -12c-5 -5 -15 -7 -32 -7s-28 -1 -33 -2c-6 -17 -14 -57 -23 -121zM224 432h4c-1 7 -2 11 -2 13c0 5 6 23 6 27c-17 0 -51 -6 -63 -6c-4 -29 -16 -92 -21 -115c1 -3 10 -4 25 -3s26 2 32 1c5 8 8 22 11 42c3 21 5 34 8 41zM39 -20
l1 -2c0 1 0 1 -1 2z" />
    <glyph glyph-name="dollar" unicode="$" horiz-adv-x="266" 
d="M177 831c14 0 21 -9 21 -27c0 -3 -6 -5 -6 -6c-1 -3 2 -10 2 -11l-6 -31c-3 -16 -5 -28 -4 -35c13 0 38 33 54 14c-4 -12 -31 -23 -35 -27c-5 -8 -13 -17 -25 -27c-1 -16 -4 -47 -9 -93c-4 -46 -7 -83 -8 -112c0 -7 -2 -19 -5 -36c-3 -16 -4 -27 -3 -33
c1 -5 9 -16 10 -20c5 -11 11 -38 12 -42l19 -61c11 -34 19 -60 23 -77c0 -7 -1 -13 -4 -16c0 -4 6 3 6 -1c-1 -3 -2 -13 -1 -31c1 -17 1 -29 1 -35c-1 -16 -4 -25 -8 -27c0 -4 6 -8 2 -9c-4 -9 -14 -38 -18 -49s-13 -29 -24 -41c-10 -3 -24 -14 -41 -31
c-1 -16 -4 -57 -11 -123c-3 -4 -9 -4 -10 -8l-17 6c-7 15 -3 32 -6 48c8 5 2 28 10 25c-5 5 -1 37 -2 54c-15 7 -26 12 -33 17c-13 8 -31 32 -28 63c6 10 11 14 15 12c4 1 3 -5 8 -4c-1 -38 12 -60 40 -65c6 21 10 63 11 125c2 41 3 62 4 63c1 3 3 4 6 4c0 1 -6 1 -6 4
c-1 3 4 4 4 5c-2 3 -3 8 -4 15c0 15 2 49 2 58c0 7 2 20 5 41s4 36 1 46c-4 11 -18 33 -21 42c-3 7 -3 24 -4 29c-13 45 -19 71 -19 80c-4 72 22 134 78 187c2 13 3 33 4 61c1 29 3 50 6 65c4 0 10 9 15 6c1 4 -5 5 -1 8zM142 631c-4 -8 -9 -41 -17 -46c2 -7 2 -22 0 -45
s-3 -38 -2 -47c0 -14 3 -25 8 -32l3 -1c0 12 2 40 6 83c4 44 5 73 2 88zM146 291v-58c0 -12 -1 -28 -6 -40c8 -14 -1 -30 -2 -44c0 -5 0 -29 1 -73s-1 -67 -5 -69c17 4 22 24 33 35c22 60 17 142 -15 247c-1 0 -2 0 -3 1s-2 2 -3 1z" />
    <glyph glyph-name="percent" unicode="%" horiz-adv-x="511" 
d="M151 737c7 -1 29 -15 37 -18c2 -5 7 -14 16 -29c9 -14 14 -26 16 -36c4 -16 7 -40 8 -73c2 -32 2 -51 0 -56c-1 -3 -6 -48 -8 -67c-7 -63 -18 -106 -34 -130c-8 -13 -31 -28 -42 -31c-17 -3 -33 4 -50 19c-25 21 -40 41 -46 58c-12 35 -17 80 -14 136c1 18 8 47 19 88
c-1 30 12 71 39 123c17 15 37 20 59 16zM435 727c5 -8 -1 -31 -4 -39c-1 -7 -10 -29 -13 -36c-5 -15 -13 -37 -24 -65c-21 -56 -38 -105 -49 -152c-7 -14 -16 -36 -29 -65l-31 -69c-15 -33 -41 -88 -65 -131c-7 -35 -24 -76 -51 -123c-3 -4 -18 -35 -29 -52
c-9 -17 -26 -38 -41 -42c-12 -3 -17 7 -24 12c4 3 0 17 0 21c1 8 4 19 11 32s11 23 12 29l2 3c1 1 2 0 3 -1c3 23 11 41 25 52c2 19 8 32 18 39c6 27 15 44 28 51c0 6 -6 10 4 10c-1 5 1 14 8 29s11 25 11 30c9 13 22 39 39 76s31 64 42 80v12c3 0 4 -2 4 -6c4 1 4 4 0 7
c0 12 14 34 21 50c10 24 22 75 36 85c-1 5 2 13 2 17c3 1 5 -2 6 -2c-3 7 6 21 6 29c4 -1 4 6 8 6c5 18 15 38 28 61c2 3 4 4 6 2c10 33 23 50 40 50zM134 710c-16 -1 -35 -29 -40 -33c-15 -92 -22 -158 -20 -198c1 -19 3 -38 6 -57c9 -51 34 -94 71 -85c7 9 26 28 29 31
c16 79 15 174 10 246c-2 3 -6 14 -11 31c-9 36 -24 65 -45 65zM324 491c0 -3 -5 -11 -2 -14c0 7 9 9 2 14zM407 337c22 -3 39 -18 52 -46c13 -27 21 -58 24 -92c5 -53 3 -102 -5 -148c-3 -11 -13 -36 -14 -44c-5 -31 -15 -53 -32 -67c-8 -1 -24 -10 -31 -10
c-5 0 -18 9 -27 8c-24 27 -39 50 -44 69c-9 30 -14 48 -14 54c0 5 3 8 0 13c-2 18 -3 30 -3 37c-3 36 -1 65 5 88c-8 27 13 79 18 106c21 20 26 37 71 32zM384 314c-7 -3 -16 -13 -23 -11c-12 -23 -19 -51 -21 -84c-1 -33 0 -60 3 -83c3 -22 9 -50 16 -83c0 1 1 2 2 2
c7 -26 21 -94 57 -86c17 3 30 24 38 62s10 70 6 97c-2 18 -2 31 0 38c-10 55 -19 90 -28 104c-15 12 -23 22 -22 31c-5 -1 -19 12 -28 13z" />
    <glyph glyph-name="ampersand" unicode="&#x26;" horiz-adv-x="335" 
d="M244 733c19 -26 21 -78 7 -156c-11 -37 -31 -84 -59 -140c-1 -3 -7 -11 -17 -24c-9 -13 -15 -23 -16 -30c-1 -10 2 -25 11 -44s15 -33 16 -40c1 -17 7 -41 20 -70s20 -48 22 -57c9 -16 18 -38 27 -65c6 3 14 12 23 29c1 -1 2 -2 2 -4c3 3 5 26 14 30h9
c6 -20 -5 -44 -34 -73c-1 -11 4 -27 16 -46c13 -19 17 -35 14 -48c-4 -1 -12 2 -13 2c-7 21 -24 51 -31 66l-33 -36c-16 -16 -54 -40 -86 -37c-19 1 -39 9 -61 26c-15 13 -27 35 -35 66c-7 27 -8 50 -4 69c0 3 -6 2 -6 6c3 9 3 16 0 21c3 9 6 46 10 55c1 2 2 3 4 2
c0 5 -1 7 -4 8c0 3 7 3 8 6c-1 1 -1 2 -2 1c-2 -1 -3 -1 -4 -1c4 4 7 33 15 34c-4 8 2 13 2 20c1 -1 2 -3 2 -6c1 3 4 26 16 31c0 2 -1 3 -4 3c5 14 14 31 27 51s22 33 25 40c-2 13 -16 70 -14 86c-7 11 -6 37 -2 46c-13 57 3 114 46 169c43 27 73 30 89 10zM209 712
c-32 6 -53 -29 -67 -39c-28 -72 -23 -157 -2 -226c17 16 36 43 45 60c11 19 31 57 39 72c5 20 7 45 6 74s-8 49 -21 59zM167 285l-21 67c-35 -37 -63 -108 -85 -213c-1 -16 1 -35 4 -56c4 -21 10 -36 19 -45l9 -6c6 -4 9 -8 10 -12c27 -15 54 -15 80 1s46 39 61 68
c-5 11 -8 18 -8 22c-9 13 -13 25 -12 36c-10 14 -20 32 -29 55s-18 51 -28 83z" />
    <glyph glyph-name="quotesingle" unicode="'" horiz-adv-x="125" 
d="M89 724c10 -15 4 -39 4 -65c-1 -46 -8 -75 -20 -88c-1 -1 -2 -2 -1 -3s1 -2 1 -3c-15 -15 -35 -6 -38 19c-1 1 0 2 1 3l3 1c0 5 -6 27 -6 35c0 2 1 3 4 3l-6 54c0 13 -1 34 2 46l4 -2c5 19 10 29 13 31c3 4 23 -2 31 -2c0 -3 7 -6 4 -9c0 -4 3 1 6 -2c-5 -5 3 -14 -2 -18
z" />
    <glyph glyph-name="parenleft" unicode="(" horiz-adv-x="234" 
d="M96 523c0 -7 -5 -14 -2 -21c-3 0 -6 2 -7 2c0 -3 6 -2 5 -6c-3 -21 -6 -50 -7 -85s-1 -57 -2 -66c3 -39 9 -75 17 -120l10 -51c5 -11 12 -31 21 -60c10 -29 17 -48 21 -57c5 -10 13 -26 26 -47s21 -38 26 -51l-3 -2c-2 -1 -3 -1 -3 -2c-15 3 -20 8 -32 28
c-5 10 -9 17 -12 20c-27 36 -49 73 -67 111c-7 13 -10 24 -10 33c-14 14 -13 36 -21 55c-1 5 -9 18 -10 25c0 3 -2 11 -5 25v2c2 1 3 2 3 2c0 3 -5 12 -5 16c0 3 -1 17 -3 42c-2 26 -2 45 -1 56c0 -1 0 -1 -1 -2s-1 -2 -2 -2c-3 1 -2 7 3 7c1 4 -4 5 -4 6c0 9 1 24 3 46
s3 37 3 46l12 41l13 44c0 5 -4 21 7 21c-4 4 -2 7 -2 15c1 0 3 -2 4 -2c1 15 8 40 23 73c4 8 5 14 4 18c3 5 12 20 26 47c15 27 28 46 39 58c1 0 6 -3 16 -9c-28 -45 -45 -94 -62 -169c-9 -37 -16 -65 -23 -85h-4c-1 -1 -1 -2 -1 -2l1 -1c2 1 4 1 6 1z" />
    <glyph glyph-name="parenright" unicode=")" horiz-adv-x="233" 
d="M138 523l6 -1v3h-4c-7 20 -14 48 -23 85s-18 69 -27 95c-9 27 -21 51 -35 74c10 6 15 9 16 9c11 -12 24 -31 38 -58l27 -47c-1 -4 0 -10 4 -18c15 -33 22 -58 23 -73c1 0 3 2 4 2c0 -8 2 -11 -2 -15c11 0 7 -16 7 -21l13 -44l12 -41c0 -9 1 -24 3 -46s3 -37 3 -46
c0 -1 -5 -2 -4 -6c1 0 2 0 3 -1c3 -2 3 -4 0 -5l-3 3c1 -11 1 -30 -1 -56c-2 -25 -3 -39 -3 -42c0 -4 -5 -13 -5 -16c2 -1 3 -2 3 -4c-3 -14 -5 -22 -5 -25c-1 -7 -9 -20 -10 -25l-5 -18c-4 -19 -8 -29 -16 -37c0 -9 -3 -20 -10 -33c-18 -38 -40 -75 -67 -111
c-5 -7 -19 -33 -27 -40c-4 -4 -10 -7 -17 -8c0 1 -1 1 -3 2l-3 2c5 13 13 30 26 51s21 37 26 47c4 9 11 28 20 57c10 29 17 49 22 60l9 51c5 23 8 43 11 62s6 39 7 58c-1 9 -2 31 -3 66s-3 64 -6 85c-1 4 5 3 5 6c-1 0 -2 0 -3 -1s-3 -1 -4 -1c3 7 -2 14 -2 21z" />
    <glyph glyph-name="asterisk" unicode="*" horiz-adv-x="287" 
d="M39 656c3 1 5 1 7 -2c2 -2 3 -1 3 2c18 -11 67 -41 88 -60c4 32 1 94 9 134c3 -1 7 -1 10 0c2 -12 2 -33 1 -63c-1 -29 -2 -50 -1 -63c7 3 18 11 33 24l29 24c3 3 14 6 15 7c7 7 8 20 27 18c4 -4 0 -15 0 -20c-49 -34 -82 -62 -98 -84c17 -27 31 -47 44 -60l25 -30
c9 -9 21 -22 -2 -27c-26 35 -52 65 -79 92c-3 -7 -11 -22 -24 -46c-13 -23 -20 -43 -22 -58c-7 -7 -18 -11 -23 2c0 8 7 15 12 23c27 59 41 91 44 96c-9 14 -27 28 -52 43s-40 26 -46 32c-1 0 -1 0 -2 1c-4 4 -3 9 2 15z" />
    <glyph glyph-name="plus" unicode="+" horiz-adv-x="308" 
d="M130 456c1 3 7 3 17 2c4 -32 6 -66 6 -102c6 0 25 2 56 5s54 4 69 3c1 -8 -6 -16 -6 -19c-11 -1 -29 -3 -55 -4s-46 -4 -60 -8c1 -42 3 -78 6 -109c-3 -5 -7 -8 -12 -10c-1 3 -3 4 -8 4l-3 58c-1 27 -2 46 -4 59c-9 3 -26 1 -51 -4c-24 -5 -42 -5 -55 0v14
c66 7 101 11 104 11c-1 55 -3 88 -4 100z" />
    <glyph glyph-name="comma" unicode="," horiz-adv-x="158" 
d="M128 101c3 -15 7 -13 0 -38c-3 -12 -5 -21 -7 -26c-1 -5 -4 -13 -9 -26l-7 -24c-17 -49 -31 -84 -42 -103c-4 0 -13 -4 -18 -4c-12 9 -18 29 -7 44c-2 22 14 60 21 84c6 28 10 44 13 48c2 -1 3 -2 4 -2c5 12 5 33 15 41c1 0 1 -6 4 -6c3 1 -1 10 2 13c13 2 24 2 31 -1z
" />
    <glyph glyph-name="hyphen" unicode="-" horiz-adv-x="187" 
d="M158 306c-3 -1 -6 -3 -8 -5c-16 4 -38 4 -66 -1s-46 -7 -53 -7c1 7 -1 10 0 19c9 -1 34 8 42 8c1 -1 2 -2 4 -2c5 3 11 4 17 4c13 -3 56 9 64 -4v-12z" />
    <glyph glyph-name="period" unicode="." horiz-adv-x="155" 
d="M62 73c0 0 1 0 2 1l12 6c-1 0 1 0 5 0c13 1 21 1 25 0c21 -5 31 -19 29 -44c-1 -12 -13 -36 -21 -44c-15 -13 -33 -14 -52 -4s-26 23 -19 40c-9 12 3 38 19 45z" />
    <glyph glyph-name="slash" unicode="/" horiz-adv-x="388" 
d="M359 743c-40 -135 -77 -244 -110 -325c-3 0 -4 2 -5 2c2 -5 3 -9 2 -12c-1 -4 -13 -23 -16 -28c0 -1 -1 -13 -2 -16c-1 -2 -2 -3 -3 -3c4 -11 -15 -40 -20 -52c-1 -7 -2 -26 -5 -33s-13 -18 -14 -23c-1 -4 -1 -17 -4 -21c-1 -5 -10 -14 -11 -15c-1 1 -1 0 0 -4
c-7 -2 5 -2 2 -8c-8 -9 -18 -46 -27 -58c2 -3 2 -6 0 -11c-3 -9 -16 -34 -17 -37c-1 -1 -1 -2 0 -3s0 -2 -1 -1c-1 0 -2 0 -3 1c0 -3 4 -3 4 -4c-5 -11 -14 -40 -27 -87c-1 0 -3 -1 -8 -2c0 -1 1 -1 2 0s3 1 4 0c1 -5 -4 -9 -4 -13c-3 1 -5 1 -5 1c0 -3 0 -4 -1 -5
c5 -4 -4 -30 -15 -34c3 -13 -15 -18 -16 -22c-17 0 -19 5 -28 14c-1 31 12 59 15 79c2 -5 4 -3 5 5c2 11 4 17 6 20l3 1c1 2 1 4 -1 6c1 0 3 -2 4 -2c-1 3 -2 5 -2 8c4 1 5 -4 6 -4c-3 6 -8 7 -2 16c1 0 3 -4 4 -4v3l-2 6v4c1 3 5 3 10 2c-1 3 -3 5 -6 6l12 30
c7 17 13 30 19 37c0 1 -1 1 -2 1l-2 1c13 25 20 45 23 61c1 0 1 -1 1 -3l1 -4c1 1 3 2 6 2c-4 1 -5 5 -4 13c1 1 3 1 5 0c4 21 14 53 30 96s27 77 32 100c3 2 5 2 8 0c-6 4 -2 7 -2 15c3 3 4 1 7 2c-7 7 4 9 4 19c4 -2 -3 -9 8 -7c-7 9 -8 17 -4 23c4 -4 6 -3 7 2
c1 4 0 7 -3 9c4 1 5 -4 8 -4l-6 8c1 1 3 7 6 18s8 18 13 20c0 1 -1 2 -4 2l56 144l1 5c1 8 3 13 8 13c-4 1 -3 4 2 9c2 3 3 3 4 2c-4 5 -1 14 6 14c-2 2 -1 7 3 16s8 13 12 12c-6 4 0 6 0 12c4 0 7 -6 10 -6c1 2 0 3 -3 4l-3 2c0 3 8 3 8 4c7 -3 11 -6 11 -10
c-5 1 -6 1 -1 -2c7 -5 11 -7 11 -7z" />
    <glyph glyph-name="zero" unicode="0" horiz-adv-x="349" 
d="M315 314c1 0 1 -2 2 -5c1 -9 0 -39 -4 -88c-1 -7 -8 -20 -8 -25c0 0 0 -8 1 -23c-1 -3 -2 -5 -5 -4c3 -9 -4 -25 -4 -36h-5c1 -22 -5 -43 -18 -64c1 -18 -6 -38 -22 -59c-15 -21 -33 -33 -54 -37c-9 -1 -21 -1 -35 2c-13 2 -20 5 -21 10c-3 0 -5 -3 -8 -2
c-42 37 -66 76 -73 115c0 1 -2 2 -6 2c-8 33 -14 58 -16 86c-1 17 -3 21 -4 42c0 11 0 18 -1 22c0 4 0 13 -1 26s-1 23 -1 28c0 3 0 13 -1 28c-1 16 -1 27 -1 33c0 13 3 38 8 54c-3 38 -2 71 4 100c1 7 2 12 2 15h4c-1 32 2 61 11 88l4 -2l6 33l8 39c5 19 20 48 40 63
c1 0 1 -1 1 -2l1 -2c9 11 30 13 42 4c9 -2 6 4 8 6c7 0 9 -3 6 -6c4 3 12 1 23 -4c1 -1 1 -5 1 -6c1 -1 7 1 8 0c7 -4 16 -20 17 -21c5 -5 20 -11 18 -23c8 4 11 -18 19 -29c0 -1 -1 -1 -3 -1l-3 -1c0 -1 6 -2 8 -2c0 -1 4 -15 0 -15c1 -1 1 -2 2 -1s1 1 4 1
c27 -92 41 -157 44 -196c-3 3 -7 2 -10 -4c1 -2 2 -2 3 1s3 4 5 3c-1 -2 -2 -3 -1 -3c3 1 4 1 5 1c-5 -13 3 -33 -4 -38c5 -9 7 -25 6 -48s0 -41 2 -52c-1 -2 -3 -3 -4 -3zM288 170c-1 -1 0 -2 1 -2c3 0 6 1 8 3c-6 0 -9 1 -9 4c7 13 9 45 8 96s-2 80 -1 88
c-7 7 -9 22 -8 45c1 5 2 7 3 7c-8 15 -12 37 -12 65c-4 6 -7 18 -9 35c-2 18 -3 28 -4 31c-6 2 -2 12 -4 19c-1 5 -5 14 -12 27s-10 22 -11 27c0 1 1 2 4 2l-2 1c-2 0 -3 1 -4 2c-1 8 -12 25 -13 33c-9 35 -37 57 -83 67c-26 -19 -43 -51 -52 -98l-7 -47
c-4 -27 -8 -47 -12 -62c4 -9 0 -29 0 -39c0 -7 -1 -22 -3 -45c-1 -22 -2 -39 -1 -51c1 -10 8 -42 0 -42l6 -43l6 -39c0 -1 -5 -9 -4 -12c0 -2 3 -14 9 -35s7 -34 4 -40h6c-1 -1 0 -3 2 -4c2 -11 7 -25 15 -42s13 -27 14 -31c2 -1 5 -3 9 -7c25 -45 58 -61 100 -46l3 5
c2 3 4 3 7 -1c-1 8 2 18 9 31c8 13 12 23 12 28c9 9 15 22 18 40c4 18 6 28 7 30zM290 474c1 4 9 7 9 10c-9 0 -13 -1 -13 -4c3 0 3 -6 4 -6zM288 170v1v-1zM205 12h-11c-1 -3 0 -5 3 -6c5 0 7 2 8 6z" />
    <glyph glyph-name="one" unicode="1" horiz-adv-x="262" 
d="M159 29c7 -2 20 -1 39 2c19 4 31 2 36 -5c0 -7 -9 -11 -10 -14c-13 0 -41 -3 -84 -8s-70 -4 -81 1c1 3 -2 13 2 17c18 -1 35 -1 52 2c2 9 2 22 -1 41s-2 30 3 34c-9 9 -3 33 -6 40c0 1 2 2 6 2c-7 3 -9 16 -4 21l-5 98c-1 49 -3 81 -5 98c0 4 6 8 6 11c-1 1 -3 0 -4 -2
c1 2 0 12 -2 31c-1 19 -1 32 0 40c0 1 0 5 -1 12c-1 5 3 20 3 25c0 9 -6 34 -5 46c5 -1 6 3 5 8l-1 1l-1 -1c-4 4 0 33 -3 44c3 5 3 15 1 30c-1 16 0 26 4 29c-7 4 -2 14 -5 18c-8 -14 -41 -52 -45 -77c-3 -1 -7 -5 -11 -4c-25 4 7 34 10 44c1 1 4 0 7 -2c-10 11 3 13 10 23
c1 1 1 2 1 4c0 5 1 5 5 2c-1 5 -1 9 0 10c1 -3 3 -5 5 -4c-5 7 3 26 14 31c-4 4 8 18 13 26c1 3 3 15 8 18c6 1 10 1 12 0c4 0 20 -11 24 -14c1 -205 5 -407 12 -605c1 -2 0 -3 -3 -4l-3 -1c0 -3 1 -3 4 0c1 1 2 1 2 2c1 -2 2 -14 2 -22c-3 -1 -5 -2 -8 -1
c12 -6 3 -30 2 -47zM111 18l2 5c-1 -1 -2 -3 -2 -5z" />
    <glyph glyph-name="two" unicode="2" horiz-adv-x="233" 
d="M130 682c1 -3 2 -3 3 -1c2 1 3 1 4 1c10 -11 19 -27 27 -48h-4c5 -10 22 -26 16 -41l6 -5c9 -73 5 -130 -12 -173l-4 -16l-8 -40c-1 -9 -12 -34 -13 -42c-2 -14 -8 -36 -18 -67c-9 -30 -15 -49 -17 -58c-1 -1 -3 -1 -5 0c1 -3 1 -8 0 -14c-2 -5 -4 -7 -6 -5
c-2 -31 -7 -55 -15 -73c-3 -5 -4 -9 -4 -12c-1 -9 -4 -22 -11 -39s-11 -30 -12 -37c4 -4 22 1 30 -2c-3 1 -3 3 1 4c7 1 11 0 11 -4c4 4 19 8 23 0c44 11 71 12 81 3c-1 -6 -2 -11 -4 -15c-63 -2 -115 -6 -158 -13c-1 1 -7 10 -11 11c11 27 21 65 29 113c9 49 14 78 17 87
c0 24 4 38 11 42c-4 9 5 29 4 42c3 -1 6 -2 10 -2c-1 3 -3 5 -8 4c7 15 5 48 17 54c-5 9 -1 29 8 33c-1 1 -1 2 -2 1s-3 -1 -4 -1c2 8 5 14 8 17c-5 3 1 8 -4 8c-1 2 1 3 6 3c-4 4 -5 27 2 25c-3 8 1 15 0 22c3 1 5 -4 6 -4c-8 7 -8 19 0 34c-6 3 -6 5 0 6c-3 5 -3 16 -2 32
c1 17 1 29 -2 37c0 4 9 3 8 8c-3 -1 -5 -3 -6 -4c-1 8 -10 38 -13 47c-1 5 0 13 1 22c-2 -2 -4 -2 -7 0c-1 4 -9 34 -16 42h-2c-2 -1 -3 -1 -4 0s-6 13 -9 16l-8 6c-11 8 -11 10 -18 18s-8 15 -7 24c12 1 26 -4 31 -4c1 -1 2 -5 2 -10c1 4 3 6 6 5c5 -1 8 -4 7 -9
c16 1 28 -7 29 -19c3 5 6 4 11 -1s4 -8 -1 -8z" />
    <glyph glyph-name="three" unicode="3" horiz-adv-x="245" 
d="M98 753c14 11 25 1 37 -11l23 -26c5 -5 21 -29 30 -36c1 -5 3 -14 7 -26l7 -21c15 -57 13 -121 -6 -190c-1 -3 -7 -13 -8 -21c-3 -1 -8 -1 -13 -2c1 -1 3 -2 8 -2c-5 -17 -18 -34 -37 -51c36 -24 63 -83 60 -127c8 -5 11 -26 6 -35c3 -13 5 -23 5 -29c1 -6 0 -20 -3 -41
s-4 -32 -4 -35c-1 -1 -4 -2 -8 -2c6 -1 6 -4 1 -10h1l2 2c1 -13 -12 -50 -25 -65c-4 -4 -19 -14 -23 -19c-15 -17 -29 -28 -42 -31c-28 -5 -57 11 -70 34c-9 19 -28 59 4 56c3 -5 8 -16 13 -35c6 -18 14 -29 24 -32c9 -1 15 -1 18 0c7 0 28 14 32 15c1 9 8 20 19 33
c20 79 20 170 0 271c-4 4 -6 6 -6 7s1 1 2 2c-13 18 -26 31 -38 39c0 14 16 18 23 25c8 24 28 52 27 84c1 1 2 1 2 2s0 2 3 2c-4 0 -2 27 -2 31c1 0 3 -4 4 -4c0 8 -3 47 0 57l-6 6c4 16 -6 52 -5 69c-5 6 -7 11 -4 14c-9 15 -22 54 -33 69l-13 11c-8 7 -12 15 -12 22z" />
    <glyph glyph-name="four" unicode="4" horiz-adv-x="292" 
d="M71 309c7 1 21 1 41 1c20 1 35 3 46 6c-3 22 -3 37 2 46c-3 4 -2 9 -6 12c4 24 5 61 2 111c-2 51 -2 87 0 110c0 2 1 3 4 4c-4 59 -4 97 1 115c14 7 26 12 33 -4c0 -3 -6 -1 -6 -4c1 -1 7 -3 8 -6c-1 -13 0 -32 2 -57c3 -25 4 -43 4 -52c0 -17 -6 -57 -6 -69
c0 -1 1 -5 3 -12l1 -7c-1 -19 0 -54 3 -106l5 -94l-4 2c1 -10 10 -40 2 -48c7 -53 8 -99 2 -137c2 -9 2 -37 1 -82c0 -6 -7 -12 2 -15c22 10 39 10 52 0c-1 -3 -1 -7 0 -10c-11 -4 -30 -7 -59 -9c-28 -1 -47 -4 -56 -8c-3 0 -8 3 -12 4c-4 9 -1 15 8 19c10 4 18 3 23 -2
c3 11 3 28 -1 51c-4 24 -5 40 -3 49c2 -1 3 -2 4 -2c-9 26 -10 45 -2 57c-5 3 -7 11 -2 12c-5 5 -4 15 0 19c-1 3 -3 12 -4 29s-2 29 -1 36c0 3 -1 12 -2 27c-17 -1 -55 -4 -114 -7c-18 11 -8 57 -11 74v25h8c-1 3 -8 3 -8 4c3 3 0 9 0 12c1 -1 3 -2 6 -2c-4 6 -5 20 -3 43
s2 39 1 47h5c0 1 -2 2 -5 2c0 16 3 52 3 67c1 7 0 16 -1 25c5 10 7 29 7 57s2 47 6 58c1 1 3 2 6 2c0 1 -1 2 -4 2c13 9 28 12 44 8c3 -10 9 -23 4 -25c1 -1 3 -3 6 -4c-2 -6 -3 -20 -3 -41s-2 -36 -5 -45c8 -4 1 -21 2 -25l-6 5c3 -7 5 -22 5 -43s-2 -38 -5 -53l-9 -68
c-4 -38 -9 -64 -14 -79c3 -8 -5 -18 0 -25z" />
    <glyph glyph-name="five" unicode="5" horiz-adv-x="206" 
d="M55 -112c-8 2 -13 4 -15 6c1 8 6 17 16 28c10 10 15 19 15 26c9 8 18 25 26 50s14 40 18 46c-4 1 0 10 0 13c0 0 1 1 4 2c-1 9 1 22 4 41c4 19 5 32 3 41c2 2 2 8 6 6c-3 9 -3 20 2 33c-1 1 -3 2 -4 4c-2 9 0 14 6 13c0 1 -2 2 -6 2c0 8 0 21 1 39c1 19 1 31 1 38
c0 1 -4 1 -4 4c1 4 0 13 -4 26c-3 14 -5 23 -5 27c0 1 1 2 4 2c-2 9 -9 27 -20 52c-11 27 -20 45 -27 56c-12 18 -28 26 -44 42c-1 48 -1 79 2 94c-3 5 -3 17 -1 37c2 21 1 34 -3 40c15 19 37 21 76 21c20 0 37 1 51 4c3 -1 10 -7 14 -10c-3 -1 -3 -5 -2 -11
c-10 -3 -26 -4 -48 -5c-21 0 -37 -1 -46 -3c3 -11 4 -39 3 -84s-1 -75 0 -89c52 -36 95 -102 91 -171c8 -21 9 -52 2 -94c1 -12 0 -33 -5 -63c-4 -30 -9 -52 -15 -65l-11 -34c-5 -19 -10 -33 -14 -43c-1 -3 -8 -10 -9 -13c-7 -17 -17 -52 -27 -66c-5 -7 -28 -29 -35 -42z
" />
    <glyph glyph-name="six" unicode="6" horiz-adv-x="257" 
d="M192 317c8 -8 14 -18 18 -35l4 -20c3 -11 6 -38 7 -45c9 -64 7 -118 -8 -161c-5 -15 -10 -22 -17 -23v-10c-12 -9 -28 -36 -44 -27c-1 -1 -3 -3 -4 -6c-40 0 -77 29 -94 66l1 1l2 1c-1 1 -2 2 -5 3c0 1 2 2 5 2c0 4 -2 5 -7 4c-5 16 -9 31 -12 51l-2 24l-3 58
c1 0 2 1 3 3c1 1 2 1 3 1c-6 9 -7 15 -4 19c1 1 2 1 3 0c-4 11 -3 17 4 17c0 1 -2 2 -6 2l3 36l3 39c1 0 2 -1 3 -2l3 -2c0 4 -2 6 -6 6c5 8 3 31 6 38l6 6c0 6 -9 19 3 19c-5 9 5 28 2 36c3 0 4 -4 8 -3c-3 1 -5 6 -6 7l14 51c7 28 13 49 17 63c3 1 5 2 6 2
c1 12 6 28 15 49s15 36 17 43c3 0 4 5 8 4c-2 5 3 22 10 17c-5 10 5 17 9 25l27 52c8 15 21 31 33 34c-1 1 -1 3 0 6c1 -1 3 -3 4 -8c3 1 3 4 0 4c1 3 4 2 8 -3v-1h1c-35 -69 -62 -125 -82 -169c-6 -33 -13 -61 -21 -82c-7 -17 -8 -66 -18 -64c1 -11 0 -26 -3 -46
s-4 -31 -4 -32c8 -2 47 -6 42 -16c23 -5 35 -14 36 -25c3 -4 9 1 10 -2c-1 -1 0 -4 2 -7zM205 117c5 48 -5 102 -30 161c-7 5 -12 11 -14 18c3 0 3 1 0 2c-4 2 -13 9 -26 21s-24 18 -35 19c-17 -81 -17 -167 2 -257c3 -3 8 -10 15 -23c8 -13 16 -19 25 -20c7 0 15 3 23 8
c14 11 30 54 40 71z" />
    <glyph glyph-name="seven" unicode="7" horiz-adv-x="282" 
d="M180 398c26 -4 52 7 65 -13c-17 -17 -49 -6 -69 -10c-11 -53 -20 -96 -29 -129c-5 -16 -1 -45 -15 -59c3 -16 0 -31 -8 -54c-3 -11 -5 -18 -6 -19c-9 -37 -19 -70 -29 -98c-1 -3 -8 -30 -12 -38c-2 -4 -4 -5 -7 -4c-4 -21 -32 -19 -40 -2c5 36 16 89 33 159l9 31
c6 16 9 29 8 38c3 1 4 11 8 12c-1 23 3 52 12 87s15 59 16 72c-5 0 -36 -5 -52 -4c3 3 -6 7 -3 16c7 4 17 6 32 6c15 1 26 4 33 9c0 20 3 53 13 60c-2 15 3 36 14 61c-4 3 -1 28 7 40c2 24 5 36 10 37c-3 17 0 28 10 32c-3 17 4 42 21 75c-11 1 -35 0 -71 -4
c-35 -3 -59 -3 -71 2c-1 1 -2 7 -2 16c22 3 40 4 55 2c1 0 1 0 2 -1c2 -2 2 -3 0 -3c11 0 44 10 56 11c19 3 46 -4 60 8c24 -4 26 -26 17 -50c-11 -39 -24 -92 -39 -157z" />
    <glyph glyph-name="eight" unicode="8" 
d="M263 127c-3 0 -5 -1 -6 -2c1 -1 3 -2 6 -2c-4 -14 -5 -30 -2 -48c-1 0 -3 -6 -6 -2c7 -8 1 -27 -7 -32c0 -18 -5 -28 -16 -29c1 -7 -4 -15 -14 -24s-19 -14 -28 -13c1 -5 -5 -9 -17 -11s-19 0 -21 6c-3 0 -4 -1 -4 -4c-8 3 -33 10 -33 15c-19 11 -29 20 -29 25
c-12 0 -19 14 -23 25c-4 15 -27 30 -21 48c-1 -1 -2 0 -3 3c-4 11 -4 20 -1 26c-18 12 -1 51 -1 65c0 5 -5 22 -4 29c0 4 3 26 9 67c3 13 9 29 6 33c39 109 69 182 92 220c-34 48 -52 160 0 192c-5 8 10 18 16 12c1 1 2 3 2 8c7 -1 18 1 34 7c16 -5 45 -9 48 -28
c16 -27 13 -67 0 -102h-6c-5 -17 -15 -42 -30 -77c-7 -14 -17 -25 -12 -40c8 -26 20 -70 35 -131c3 -11 2 -18 -2 -21c1 -1 1 -2 2 -1s2 1 3 1c3 -18 6 -29 8 -33c-7 -1 -6 -3 4 -7c-2 -1 -2 -5 1 -11c1 -2 1 -3 0 -3h-3c7 -5 10 -19 6 -23c3 -3 6 -6 6 -7c-1 -3 -4 -3 -8 0
c0 -1 3 -3 8 -6c-1 -4 -3 -5 -6 -3c9 -8 10 -31 11 -32c-1 -1 0 -13 3 -34s1 -33 -6 -35c0 -2 1 -2 3 -1c2 2 4 2 6 1c-5 -4 -5 -11 0 -21zM175 711c-19 -10 -25 -46 -16 -108c3 -11 3 -31 10 -38c5 4 10 13 17 27s13 22 20 25c-1 8 3 19 11 34s11 28 10 39
c-4 20 -35 30 -52 21zM240 117c3 4 3 12 2 24c-1 13 1 20 6 22h-4c-1 -1 -1 -1 -2 0c-1 12 -3 49 -6 62c-1 6 -3 16 -4 29c-3 -3 -5 -3 -7 -1c0 2 2 3 7 3l-3 23c0 1 -6 8 -6 9l-20 77c-11 47 -22 83 -32 106l-25 -55c-13 -29 -23 -50 -31 -64v-12c-8 -14 -15 -38 -21 -73
l-11 -59l-11 1l1 -1c6 -1 10 -3 12 -4c-2 -14 -2 -33 1 -58c3 -24 4 -37 4 -38s-1 -6 -2 -14c0 -20 7 -40 20 -61c3 -5 15 -14 15 -17c4 -17 26 -15 36 -18c3 0 9 -7 12 -7c16 -4 39 12 48 25c16 23 24 69 21 101z" />
    <glyph glyph-name="nine" unicode="9" horiz-adv-x="306" 
d="M128 734c17 0 53 17 62 -1h11c5 -7 29 -9 33 -24c6 -1 11 -7 16 -18s7 -17 5 -20c9 -11 18 -40 11 -48c18 -33 7 -83 10 -121c-6 -3 0 -13 -8 -13c0 -1 4 -6 4 -10l-2 -2c-1 -1 -3 -2 -4 -2c5 -9 2 -24 -9 -46c-2 -21 -9 -50 -21 -87c-12 -36 -19 -59 -21 -68
c-3 -1 -5 -2 -6 -2c5 -15 -14 -37 -17 -46v-6c-1 -4 -1 -7 -2 -8c-2 -3 -14 -28 -35 -75c-5 -27 -14 -48 -27 -63c-7 -33 -20 -55 -38 -67c-10 -17 -21 -36 -44 -41c-1 3 -5 7 -6 10c31 43 53 85 65 127c3 9 18 29 19 36v1c-1 3 -2 6 -2 7c1 7 13 22 14 29c4 15 12 53 19 73
c0 1 1 2 3 4c3 5 4 7 3 7c0 1 3 10 8 28c6 18 12 31 17 39c-3 8 4 37 13 48c-1 1 -3 0 -4 -3c2 18 6 40 11 66l11 55c-25 -21 -54 -31 -85 -32c-31 0 -53 13 -67 39c-11 7 -20 21 -26 42s-9 41 -9 60c1 3 3 4 6 2l-2 7c-1 9 -1 17 6 18c-7 14 14 39 11 40c20 28 46 50 77 65
zM155 700c-15 0 -28 8 -42 -2l-10 -10c-26 -27 -37 -65 -34 -113c3 -14 19 -45 21 -52c-3 0 -4 -1 -4 -2c4 -1 7 3 10 2c7 -15 28 -26 61 -34c4 4 18 4 19 5c25 5 38 23 41 55s-1 61 -12 86c-11 30 -23 51 -36 63c-8 6 -10 2 -14 2z" />
    <glyph glyph-name="colon" unicode=":" horiz-adv-x="155" 
d="M62 384c0 0 1 0 2 1l12 6c-1 0 1 0 5 0c13 1 21 1 25 0c21 -5 31 -19 29 -44c-1 -12 -13 -36 -21 -44c-15 -13 -33 -14 -52 -4s-26 23 -19 40c-9 12 3 38 19 45zM62 73c0 0 1 0 2 1l12 6c-1 0 1 0 5 0c13 1 21 1 25 0c21 -5 31 -19 29 -44c-1 -12 -13 -36 -21 -44
c-15 -13 -33 -14 -52 -4s-26 23 -19 40c-9 12 3 38 19 45z" />
    <glyph glyph-name="semicolon" unicode=";" horiz-adv-x="173" 
d="M73 384l2 1l12 6c-1 0 1 0 5 0c13 1 21 1 25 0c21 -5 31 -19 29 -44c-1 -12 -13 -36 -21 -44c-15 -13 -33 -14 -52 -4s-26 23 -19 40c-9 12 3 38 19 45zM128 101c3 -15 7 -13 0 -38c-3 -12 -5 -21 -7 -26c-1 -5 -4 -13 -9 -26l-7 -24c-17 -49 -31 -84 -42 -103
c-4 0 -13 -4 -18 -4c-12 9 -18 29 -7 44c-2 22 14 60 21 84c6 28 10 44 13 48c2 -1 3 -2 4 -2c5 12 5 33 15 41c1 0 1 -6 4 -6c3 1 -1 10 2 13c13 2 24 2 31 -1z" />
    <glyph glyph-name="less" unicode="&#x3c;" horiz-adv-x="265" 
d="M241 208c-1 -3 -7 -5 -8 -9l-39 15l-45 18c-7 3 -19 9 -36 16c-33 15 -55 28 -76 43c-4 9 3 19 21 31c18 23 34 39 48 46c17 19 53 64 77 77c9 -6 11 -14 6 -25c-3 0 -7 -2 -8 -2l-115 -117c0 -1 1 -3 4 -4c4 -2 5 -3 4 -4c59 -31 112 -54 161 -69c4 -9 6 -15 6 -16z" />
    <glyph glyph-name="equal" unicode="=" horiz-adv-x="328" 
d="M96 364c1 4 8 6 21 6c-1 -1 -2 -2 -2 -3c1 -1 4 0 9 1c3 1 5 2 6 2c4 0 14 -1 30 -4c17 -2 28 -2 35 0c0 -3 2 -7 2 -8c3 1 3 6 0 6c7 2 21 3 42 2c21 0 38 1 49 4c3 -7 7 -9 11 -8c-1 -16 -13 -24 -25 -15c-29 -1 -69 -1 -120 0s-91 1 -122 -2c-4 3 0 14 0 19
c7 0 20 1 39 4c0 -1 -4 -1 -4 -4c1 -3 14 8 15 0c3 0 4 7 8 6l-2 -3h2c4 3 6 2 6 -3zM291 258c0 -4 -7 -7 -7 -11c-21 -2 -61 -2 -121 -1s-101 2 -123 1c-4 0 0 14 0 17c30 4 70 5 121 3s90 -1 119 3c1 -3 10 -8 11 -12z" />
    <glyph glyph-name="greater" unicode="&#x3e;" horiz-adv-x="265" 
d="M30 208c0 1 2 7 6 16c49 15 102 38 161 69c-1 1 -1 2 2 3c4 2 6 4 6 5l-115 117c-1 0 -5 2 -8 2c-5 11 -3 19 6 25c24 -13 60 -58 77 -77c14 -7 30 -23 48 -46c18 -12 25 -22 21 -31c-21 -15 -43 -28 -76 -43c-17 -7 -29 -13 -36 -16l-45 -18l-39 -15c-1 4 -7 6 -8 9z
" />
    <glyph glyph-name="question" unicode="?" horiz-adv-x="260" 
d="M172 507c1 1 3 0 6 4c-1 1 -1 1 -2 0h-4c1 8 3 43 8 51c-1 1 -3 2 -6 2c4 4 -5 19 2 19c-5 21 -16 48 -35 81c-12 21 -23 34 -46 50c-11 9 -19 15 -23 19c-5 4 -27 10 -31 18c-1 4 2 10 2 13h16c15 -13 40 -25 73 -35c1 0 1 -1 2 -3l1 -2c4 -1 12 -1 16 -4
c4 -4 28 -20 32 -27c4 -4 7 -17 10 -21l2 -2c5 -3 10 -7 15 -15c11 -19 19 -49 14 -60c7 -3 11 -16 4 -23c11 -19 2 -53 -2 -79c-3 1 -6 9 -10 4c1 -3 9 -5 10 -6c-5 -25 -13 -48 -25 -69c-1 -1 -2 -1 -3 -1s-2 -1 -3 -3v-3c-1 -4 -3 -7 -8 -4c1 -3 3 -4 4 -4
c-14 -25 -33 -51 -57 -77c-13 -3 -22 -16 -25 -37s-5 -33 -8 -36c0 -1 2 -2 6 -2c-2 -7 -4 -25 -5 -55s-7 -51 -18 -62c-13 5 -21 19 -24 42s-2 42 1 56c0 15 2 26 7 33c-3 1 -3 7 -2 18c2 11 5 19 8 24c7 9 36 30 44 42c11 15 26 48 35 60l9 31c6 17 8 29 6 36
c3 11 5 20 4 27zM53 69c24 14 43 17 57 8c1 -1 2 -3 1 -4l-1 -2c1 -1 7 -1 8 -2c29 -36 2 -128 -56 -102c-17 7 -26 23 -29 48c-2 25 5 43 20 54z" />
    <glyph glyph-name="at" unicode="@" horiz-adv-x="613" 
d="M574 493c11 -39 15 -89 11 -148s-12 -109 -25 -150c-12 -37 -43 -70 -84 -59c-20 5 -38 16 -53 34s-23 36 -22 54c-5 2 -4 6 -8 10v19c-8 1 -23 -14 -27 -17c-11 -7 -39 -14 -82 -21c-7 2 -16 4 -29 5c-9 8 -20 14 -35 18c-36 36 -53 63 -49 111c5 101 151 195 238 94
c1 5 6 30 9 38c4 8 15 17 31 16c1 -3 3 -4 6 -4c4 -12 5 -29 4 -53c0 -11 0 -21 -1 -30c-1 -17 -5 -50 -5 -59c-1 -11 -3 -29 -7 -52s-6 -39 -7 -49s1 -26 4 -47c5 -17 30 -47 46 -48c18 -2 28 16 41 21c27 70 40 146 40 227c0 24 -1 43 -4 57c-1 2 -3 11 -6 26l-6 31l-8 27
c-9 35 -19 52 -38 76l-25 23c-15 15 -36 25 -62 30c-52 11 -89 4 -153 -9c-39 -20 -70 -40 -92 -60c-15 -13 -25 -25 -37 -48c-6 -11 -10 -18 -13 -22l-15 -31l-12 -27c1 -1 1 -6 -1 -14c-7 -21 -13 -50 -16 -86s-1 -69 4 -100c1 -5 5 -15 11 -30c7 -14 10 -25 10 -33
c23 -50 59 -96 110 -139c13 -4 31 -12 36 -27c1 0 3 7 8 4c0 -1 2 -4 2 -7c7 -1 19 -6 35 -13c17 -7 30 -11 40 -10c3 -4 10 -7 21 -10c11 -2 18 -4 21 -6c-6 -22 -41 -11 -56 -7c-90 20 -162 58 -215 113c-2 5 -8 14 -17 27c-9 14 -16 25 -19 34c-1 3 0 9 0 12l-10 17
l-17 60c-10 32 -14 66 -12 101c2 29 3 45 4 50c1 4 7 9 8 12c1 4 1 18 4 25c1 5 8 18 9 23c8 32 18 52 29 59l-2 2c-1 1 -2 3 -2 4c11 11 35 45 50 60l17 19c1 1 6 -1 7 -1c-1 1 0 7 3 8c9 9 28 22 56 37c27 16 48 26 63 29c12 3 40 1 52 2c40 7 94 9 134 -12
c3 -1 13 -10 16 -11c3 -3 12 -7 13 -8c3 -3 16 -22 25 -23c23 -29 42 -75 58 -138c0 -4 -1 -6 -4 -6zM159 616l-1 -1zM399 374c0 5 7 26 6 33c-2 12 -10 23 -25 34c-24 17 -66 29 -94 21c-18 -5 -35 -17 -50 -37c-15 -19 -24 -39 -25 -59c-5 -69 44 -118 119 -115
c25 1 46 15 63 42c1 20 3 62 6 81z" />
    <glyph glyph-name="A" unicode="A" horiz-adv-x="407" 
d="M366 35c8 -2 12 -12 11 -31c-1 -15 -5 -23 -13 -22l-9 4c-3 -4 -7 -5 -8 -6c-11 1 -19 8 -24 20c-4 14 -10 40 -13 53c-4 15 -11 39 -21 71l-18 67c-1 4 3 8 3 9c-5 3 -14 22 -6 29l-2 -1c-2 -1 -4 -1 -5 -1c0 15 -8 30 -9 37c-13 1 -39 0 -77 -1c-37 -1 -65 -1 -84 1
c-8 -4 -7 -33 -15 -37c0 -1 2 -1 6 -1c-5 -24 -12 -63 -20 -116s-15 -95 -21 -124c-4 0 -8 3 -11 3c1 24 6 62 15 114s14 90 15 113h7c-4 11 0 33 11 68c0 13 3 33 8 61s7 48 6 60c2 -2 4 -3 6 -3c-1 10 -1 17 -1 22l8 52c0 5 1 5 3 1c-1 25 3 42 12 53c-4 -1 -5 1 -3 5
c0 1 1 2 2 4c1 3 2 4 2 5c1 1 -2 14 -1 19c1 6 1 14 1 25l10 42c4 15 3 47 16 55c-1 1 -4 -2 -7 -7c-6 30 20 57 42 29c6 -8 16 -34 29 -77c3 -11 9 -28 16 -49c8 -21 13 -36 15 -45c0 -2 -1 -3 -3 -3c-3 -4 -8 2 -9 -2c1 -2 3 -2 6 -1s4 1 7 1l19 -77l22 -87
c11 -33 16 -52 16 -57c0 -2 -1 -4 -3 -6c5 -5 14 -29 6 -38c4 -3 6 -3 6 0c7 -23 16 -55 25 -96c10 -41 19 -73 27 -96c1 -3 0 -4 -3 -4c8 -7 13 -24 8 -35zM222 277c0 12 20 7 24 8c-4 19 -17 70 -39 153l-2 6c-3 8 -3 15 2 14c-6 2 -6 9 -9 14h3c4 0 6 1 6 2
c-1 0 -4 1 -10 3c4 3 3 6 0 9l-2 2v20c-4 10 -11 24 -11 28c0 1 1 1 2 0h1c-1 5 -5 15 -10 30c-9 31 -13 52 -12 73c-8 4 -4 24 -12 27c-5 -8 0 -30 -7 -30c0 -33 -5 -59 -15 -80c8 0 -1 -7 5 -13c-5 -19 -14 -65 -25 -138c-1 -11 -4 -30 -9 -58c-5 -27 -8 -49 -7 -65
c3 3 19 2 23 -5c0 8 3 4 6 7c9 -4 26 -5 52 -4c26 2 41 3 46 2c-1 0 -2 -1 -2 -3c0 -1 1 -1 2 -2zM290 149c3 0 6 -9 10 -2c-1 0 -2 1 -4 2c-3 3 -5 3 -6 0z" />
    <glyph glyph-name="B" unicode="B" horiz-adv-x="281" 
d="M252 133c-1 1 -3 1 -4 -2c8 -20 -4 -38 -9 -48c-3 -6 2 -21 -10 -21c0 -1 1 -1 2 -2h2c-10 -25 -22 -43 -36 -54c-9 -5 -7 -8 -16 -4c-3 -23 -35 -21 -50 -26c-13 -9 -22 -11 -27 -6c-10 -13 -27 4 -40 7c-3 4 -18 25 -2 25c1 2 0 5 -2 8c-3 1 -3 0 -4 -4
c-9 34 -10 53 -2 56c-7 9 -8 19 -3 29c-5 15 -7 40 -6 73c-3 7 -5 25 -6 53s-3 47 -6 58c1 3 3 4 6 4c0 1 -2 2 -6 2c1 23 1 66 -1 130c-1 64 0 104 3 121c-5 8 -6 25 2 29c-5 11 -7 28 -2 33c-4 1 0 13 -4 21c1 1 3 1 4 -2c1 4 1 13 -2 28c-2 15 -2 25 0 30c1 3 6 1 2 9
c-1 7 7 31 12 40l9 10c5 3 13 3 23 0c17 -3 57 5 68 -13c11 3 28 -17 36 -20c1 -3 -2 -4 -2 -5c21 -13 31 -29 31 -48c7 -8 12 -31 14 -69s1 -62 -4 -71h-6c0 -1 2 -2 6 -2c-9 -67 -45 -130 -96 -162c18 -10 45 -13 51 -30c17 -1 35 -26 43 -45c6 -5 10 -15 11 -28
c11 -19 18 -54 21 -104zM95 577c-5 -91 -7 -168 -6 -233c19 5 38 19 47 28s32 36 36 41c29 49 32 115 9 198c-8 0 -9 10 -11 15l-1 -2c0 -1 0 -1 -1 -1c-13 32 -44 59 -73 71c-5 -20 -5 -43 0 -68c1 -11 1 -27 0 -49zM223 114h-1c4 18 -10 54 -12 77c-9 15 -11 25 -8 28
c-8 4 -19 18 -34 43c-5 1 -23 16 -23 21c-11 1 -17 5 -18 11c-8 -4 -24 3 -36 2c-1 -43 1 -102 4 -177l6 -132c35 1 80 24 101 52c0 3 6 14 18 34c-5 17 3 33 3 41z" />
    <glyph glyph-name="C" unicode="C" horiz-adv-x="325" 
d="M302 26c1 -2 2 -9 2 -21c-23 -11 -42 -17 -57 -18c-14 -1 -33 2 -57 10c-29 11 -56 30 -80 56c-17 17 -33 49 -48 96c-20 58 -27 112 -20 163l7 57c5 49 11 86 20 121c3 10 8 24 15 42l14 37c9 26 19 49 29 69c21 45 46 85 75 121c4 1 18 13 30 10v-16c-1 1 -3 0 -4 -1
l-3 -1v-9c-9 -7 -19 -21 -30 -41c-11 -19 -21 -33 -30 -40c-16 -37 -27 -66 -34 -86c-3 0 -5 -2 -6 -2c1 -1 1 -2 2 -2c-2 -16 -10 -47 -25 -94c-1 -41 -5 -77 -12 -110c2 -2 2 -10 0 -25c-5 -73 12 -153 50 -238c0 -5 -1 -7 -2 -7c5 -5 11 -13 19 -26c17 -25 33 -41 58 -45
c1 -3 -2 -5 -2 -6c12 0 34 -10 43 -10c1 0 22 11 23 4c7 1 16 11 23 12zM127 571v2v-2z" />
    <glyph glyph-name="D" unicode="D" horiz-adv-x="388" 
d="M85 723l39 -3c11 -1 24 -6 28 -14c9 0 27 -15 42 -16v-5c27 -5 57 -30 69 -50c15 -13 28 -36 35 -52c8 -16 21 -49 25 -58h-6l9 -5c15 -43 25 -89 29 -137l-2 -3c-1 1 -1 1 -2 1c0 -1 2 -3 6 -4c0 -22 9 -62 -2 -74c8 -22 5 -42 -9 -60c3 -6 3 -16 -1 -30
c-4 -13 -6 -23 -5 -29h-6c8 -9 0 -30 -11 -33c7 0 -1 -10 0 -15c-1 0 -3 1 -4 1c0 -1 1 -2 2 -3c-11 -25 -28 -52 -50 -79h-8c0 -7 -14 -20 -21 -19c-13 -13 -38 -29 -58 -37c-19 -8 -56 -23 -71 -30c-5 -1 -12 0 -21 1c-1 4 -3 7 -7 8l-4 60c-2 31 -3 50 -3 59s0 27 1 54
c0 1 -5 5 -6 8c2 9 1 22 -3 41c-3 19 -4 32 -1 39l-11 67c-6 40 -9 68 -8 83c0 0 0 1 1 4h3c-8 35 -10 59 -6 73c-12 65 -17 141 -15 230c2 -2 3 -1 3 3c1 7 1 12 1 13c7 19 27 16 48 11zM86 681c-1 -26 1 -65 5 -118s5 -92 3 -118c12 -30 6 -60 8 -89c1 -23 5 -57 10 -102
c6 -44 10 -72 11 -84s2 -38 3 -79s2 -72 5 -94c15 3 34 11 56 23c23 13 38 20 45 23c5 5 24 24 31 32c12 14 30 35 39 53c5 11 12 34 19 69c1 6 3 17 8 33s7 28 7 36c0 9 -1 24 -3 45s-2 38 -1 49c-1 0 -2 0 -3 -1s-2 0 -3 1c-1 17 -4 35 -9 53c-5 19 -11 40 -19 63l-16 51
l-17 29l-17 31l-31 28c-16 15 -29 26 -38 33c-13 3 -25 10 -35 23c-3 1 -20 7 -27 8c-7 3 -24 6 -31 2z" />
    <glyph glyph-name="E" unicode="E" horiz-adv-x="307" 
d="M36 512c2 -1 3 -2 3 -1c0 0 -1 4 -2 12c-1 3 0 3 3 2c-7 16 -7 27 0 33l-2 1c-1 -1 -3 -1 -4 -1c1 5 1 15 -1 30c-1 15 -2 26 -2 33c3 1 4 -2 5 -2c-8 25 -6 77 6 98c3 3 1 13 2 14c13 19 31 23 54 11c16 5 41 9 74 11c34 2 60 5 79 10c9 -5 12 -12 8 -21l-72 -6
c-37 -2 -66 -5 -87 -9c-2 -151 0 -286 7 -403c1 -3 9 -3 10 -6c1 0 2 2 2 6c29 -6 78 9 81 -23c-7 -1 -22 0 -47 3c-24 3 -39 2 -46 -3c1 -20 2 -53 5 -99c3 -45 4 -79 4 -100s-2 -53 -5 -97c11 -4 34 -7 39 -4c41 -4 77 -3 107 4c13 0 26 -6 19 -19c-14 -4 -48 -6 -103 -5
c-54 0 -86 0 -96 -1c-1 4 -13 22 -14 33c-1 27 -1 30 3 55c2 13 3 21 3 23c-11 4 -2 27 -2 33c0 3 -10 26 -2 29c-3 15 -6 40 -7 76c-1 37 -1 59 -2 68l-4 4c-2 1 -3 8 -2 19s2 18 2 21c-1 17 -5 54 -12 113c-1 8 0 42 -4 58z" />
    <glyph glyph-name="F" unicode="F" horiz-adv-x="262" 
d="M159 723c3 0 23 5 31 5c18 3 36 2 42 -17c-3 -8 -26 2 -29 2c-1 0 -6 -5 -7 -5c-5 -3 -22 1 -27 1c-4 0 -10 -1 -19 -2c-17 -3 -22 -4 -41 -1c-3 -24 -6 -52 -8 -85l-4 -106l-3 -78c2 -2 -1 -6 6 -6c-5 -3 -7 -15 -4 -38c3 -22 4 -36 2 -43c-1 -2 -2 -3 -3 -3
c-1 1 -2 1 -3 0c5 -4 8 -14 8 -29c7 -4 23 0 27 -3c0 3 4 4 11 4c3 0 4 -1 2 -3c15 5 21 7 36 10c16 3 24 -3 23 -18l-97 -13c-1 -15 -1 -50 0 -105c1 -54 2 -91 1 -112c0 -5 1 -17 2 -36c2 -19 2 -29 0 -31c-4 -23 -15 -39 -34 -31c-9 11 -12 21 -14 33v38
c-3 -2 -4 2 -3 11c1 4 1 6 1 6l-4 32c-4 31 -6 41 -3 66c-2 4 -4 15 -5 32c-1 18 -2 32 -5 41c2 6 -1 14 2 17c-3 7 -5 20 -6 37s1 26 6 27l-6 2c-1 17 2 53 -2 61c2 3 5 4 8 4c-5 15 -8 37 -7 66s0 50 -3 63c3 13 5 30 5 51s2 37 5 46c-7 21 -3 47 10 80s32 43 55 30
c4 0 7 5 12 4l17 -2c1 0 2 0 4 -1c11 0 18 0 21 -1z" />
    <glyph glyph-name="G" unicode="G" horiz-adv-x="316" 
d="M281 159c12 -78 10 -141 -7 -188c4 -6 -8 -15 -14 -23h-36c-11 2 -29 12 -56 31c-3 1 -26 18 -33 23s-20 18 -25 30c-1 4 -10 9 -11 12c-17 25 -31 53 -42 84s-15 58 -14 79c-8 5 -13 36 -6 44c-7 8 -7 32 0 41c-5 1 -6 6 -5 15c2 3 4 4 5 4c-5 35 1 71 18 107
c-1 1 -2 2 -3 2l-1 2c0 3 1 4 3 2c1 -1 2 -2 3 -2c1 4 -7 4 -4 8c5 4 2 24 13 29c-5 10 6 19 0 21c5 3 7 16 14 15c-2 7 0 18 7 31s10 21 10 23c6 9 17 29 32 60c16 31 30 53 41 67l-3 2c1 1 3 1 7 0c0 2 -1 3 -4 3c0 1 0 2 1 3c3 5 6 7 10 5c-4 15 10 31 27 39
c-3 3 -4 4 -4 5c1 0 5 3 13 9c9 6 17 8 24 5c2 -11 -3 -23 -16 -34c-12 -11 -18 -20 -19 -28c-1 -1 -4 -2 -7 -2c8 -3 -23 -40 -29 -53l-21 -46l-15 -42c-7 -20 -14 -36 -22 -47c-7 -29 -17 -88 -25 -125c1 -6 2 -18 2 -35c1 -17 2 -32 4 -43c8 -39 12 -61 12 -66
c5 -9 8 -23 3 -26c1 -1 3 -2 6 -2c7 -26 13 -48 19 -65c12 -33 38 -78 73 -97c0 -1 3 -4 2 -7c7 -1 13 -7 18 -8c3 11 5 28 5 52s2 44 6 59c0 1 -4 3 -4 4c0 35 19 64 48 48c-1 -3 9 -20 0 -25z" />
    <glyph glyph-name="H" unicode="H" horiz-adv-x="356" 
d="M312 190c3 -4 8 -7 15 -8c-1 -5 -2 -35 -4 -90c1 -4 -1 -6 -6 -6c4 -4 5 -12 4 -23c0 -3 -1 -5 -4 -6c0 -3 2 -30 2 -46s-5 -39 -17 -48c0 1 -1 2 -2 4c-3 0 -18 -17 -27 -8c-9 15 -13 24 -13 27c-1 5 4 17 4 21c0 3 -6 7 -6 10c-3 4 2 29 2 30c-1 13 -3 31 -7 54
c-3 24 -5 41 -5 52c-1 21 0 64 1 130c2 67 1 114 -3 141c-15 -3 -39 -6 -72 -9s-57 -5 -72 -8c0 -6 1 -21 4 -44s4 -38 2 -47l-1 -3v-2c1 -1 1 -3 1 -4c3 -23 4 -41 2 -54c-1 -3 1 -37 6 -102c5 -83 7 -134 7 -153c1 -26 1 -42 0 -48c-5 -9 -14 -13 -27 -10s-18 10 -17 23
c1 2 1 3 2 3l2 1c0 5 -11 27 -6 42c-3 5 -7 34 -11 86c-2 23 -4 58 -5 103l-3 99l-6 65c-3 28 -4 48 -5 60c-2 22 -1 35 2 38c-8 25 -10 68 -2 89c-11 7 -8 20 0 28c-3 0 -4 0 -4 -1l-4 33l-5 38c-1 19 -4 60 1 76c3 16 20 43 31 44c28 7 16 -22 31 -32
c-2 -35 -2 -88 1 -160c3 -71 5 -119 4 -144c33 -1 81 3 144 14c3 27 3 73 0 138c0 26 1 42 4 48c-1 13 -3 31 -4 54s3 44 11 63c9 20 21 28 37 25c2 -1 3 -3 2 -4l18 -28c-1 -2 0 -9 1 -20c0 -3 -1 -4 -3 -3c-1 -2 0 -3 2 -4c0 0 1 -1 1 -2c-3 -43 -1 -96 4 -158
c-4 -2 2 -11 -5 -9c0 -1 2 -2 5 -2c-1 -14 -1 -44 -1 -89s-1 -81 -3 -109c5 -3 7 -31 0 -46c10 -19 12 -42 6 -67c9 -9 2 -31 6 -46c-7 -3 -11 4 -15 4zM43 576v-6c-1 3 -1 5 0 6z" />
    <glyph glyph-name="I" unicode="I" horiz-adv-x="132" 
d="M69 -24c0 5 -4 6 -10 9c0 5 1 8 2 8c-11 13 -13 42 -14 78c0 19 0 30 -1 35h5c-6 5 -6 8 -1 10c-3 3 -6 14 -7 32c-1 19 0 31 3 37c-9 31 -11 80 -6 148c-3 3 -4 13 -4 28c1 15 0 26 -2 33h6c-5 5 -1 20 -6 23c1 6 1 23 0 50s1 44 6 50c-9 3 -3 23 -8 23c1 3 3 4 6 4
c-8 8 -10 35 -2 35c-5 12 -6 31 -3 56c2 13 3 20 3 22c4 3 7 8 8 16c2 -1 3 -2 4 -4c-3 4 3 14 11 15v-5c5 -1 7 2 6 7c1 -2 3 -3 4 -2c1 2 2 3 4 4c16 1 31 -25 30 -40c-2 -58 -4 -95 -7 -110c1 -17 2 -45 1 -86c0 -41 0 -69 1 -84c-3 -1 -5 -2 -6 -2c5 -7 5 -17 2 -29
c7 -5 5 -25 -2 -33c13 -8 2 -49 2 -54c-1 -39 -1 -75 2 -107c1 -11 0 -36 -3 -73c-2 -37 -3 -57 -3 -60c0 -14 1 -34 -21 -34z" />
    <glyph glyph-name="J" unicode="J" horiz-adv-x="322" 
d="M281 723l3 2c9 -13 11 -56 5 -131c-10 -131 -28 -266 -53 -407c-3 -9 -1 -33 -4 -42c-1 -3 -7 -12 -8 -13l-8 -35c-4 -18 -8 -31 -11 -40c-9 -29 -32 -75 -69 -75c-17 -3 -31 0 -42 8c-3 -5 -6 -6 -10 -2l1 1c-1 1 -13 5 -16 8c-6 5 -11 12 -15 21s-8 21 -12 36l-8 30
c1 1 3 6 6 7c-1 1 -3 1 -6 4c2 23 -10 62 2 87c9 0 17 4 17 -6c-3 -1 -4 2 -5 2c1 -5 7 -2 11 -6c0 -9 13 -36 2 -50c4 -5 6 -17 2 -21c8 -13 8 -41 11 -46c0 -3 -2 -4 -5 -4c18 -27 33 -42 45 -45c11 -2 21 1 30 10c15 33 28 93 37 178c10 86 15 131 16 135c0 12 0 26 1 41
c1 32 4 80 5 101l4 64l4 55v40c0 25 2 43 5 55c-3 1 -2 4 -3 5c1 1 0 14 5 14c-5 4 -19 7 -43 8s-37 8 -39 19c3 7 20 8 23 0c15 6 38 4 69 -6c9 4 27 5 54 2c-3 -3 -4 -5 -1 -4z" />
    <glyph glyph-name="K" unicode="K" horiz-adv-x="394" 
d="M363 -37c9 -8 7 -15 -6 -21c-9 -5 -18 -5 -25 -2l-36 54c0 1 2 2 6 2l-4 2c-5 3 -3 3 -2 7c-13 7 -23 21 -31 43c-1 -3 -2 -4 -3 -1c-1 1 -3 6 -6 6c0 1 1 2 4 2c-6 6 -23 19 -18 29c-9 3 -18 12 -27 28l-13 24c-4 4 -8 13 -10 17c-18 32 -38 62 -59 89
c-2 7 -9 21 -22 40c-12 19 -19 35 -20 46c-14 -14 -2 -74 -6 -106c-3 -19 -2 -52 2 -97c-2 2 -5 2 -8 1c7 -5 -1 -7 8 -7c-1 -9 0 -18 2 -27c-11 -37 19 -105 -23 -127c-7 0 -16 6 -20 6c-1 1 -1 4 -1 7c-1 2 -1 3 -2 3c-3 7 -2 29 -6 36c-3 79 -3 151 0 215
c-5 15 -5 36 0 63c-3 -3 -5 -1 -4 5c1 17 1 25 0 26c0 3 1 4 4 1c-3 17 0 64 0 80c1 -1 3 -2 6 -2c-7 3 -7 6 -4 13l2 6c1 9 1 31 -1 65c-1 34 0 57 3 68c0 1 -2 1 -6 1c3 47 3 78 0 91c8 39 16 62 23 70c9 11 21 8 36 -9c-7 -40 -9 -110 -5 -209c0 -1 -6 -5 -6 -8
c3 -3 3 -13 2 -32s-1 -30 0 -35c7 10 17 28 30 53c13 26 24 45 33 58c3 16 19 39 23 52h6c3 7 9 31 13 40l10 6c1 1 2 7 4 16s6 14 11 15c-1 11 3 18 12 21c-9 1 4 20 4 25c3 1 8 1 17 -2c-3 -11 -7 -23 -13 -36c-11 -24 -30 -59 -37 -75c-1 0 -2 1 -2 4c-4 0 1 -8 0 -12
c-47 -81 -83 -148 -106 -203c19 -38 51 -88 95 -151c44 -62 75 -109 92 -141c-3 -1 -4 -1 -4 2c0 2 -1 3 -2 3c-2 0 2 -9 -2 -11l5 1l-1 1c11 2 17 -17 23 -27c8 -10 23 -26 25 -36l2 -3c2 -3 4 -4 6 -3c0 -1 -2 -5 -2 -6c20 -19 30 -35 30 -50c1 0 2 1 2 4c2 0 7 -8 2 -8z
" />
    <glyph glyph-name="L" unicode="L" horiz-adv-x="277" 
d="M110 24c15 -7 39 -8 71 -3s55 3 69 -4c0 -3 -2 -8 -7 -16c-28 1 -72 -1 -131 -4c-5 5 -12 3 -19 0l-4 -2c-3 0 -13 2 -21 2c-10 7 -10 39 -10 50c0 2 -3 17 -9 44c-5 28 -7 49 -4 62c-7 4 -2 33 -6 44h4c-4 16 -4 26 0 29c-8 7 -1 12 -6 19c1 0 3 1 8 2c-9 3 -10 9 -2 19
c-7 -5 -9 5 -2 6c-7 3 -5 20 0 27c-3 -3 -4 -2 -4 2c0 7 1 11 4 13c-2 9 -3 15 -3 20c0 9 5 34 5 38c0 0 -1 2 -4 5c-1 2 1 3 6 2c-5 2 -7 7 -6 16c2 -3 3 -2 4 1c0 4 -1 7 -4 8c0 4 3 8 8 8c-3 3 -6 1 -10 2c3 2 3 8 2 19s0 17 2 18c-3 5 -4 16 -3 32s0 29 -1 39
c3 0 9 3 12 0c-1 4 -8 4 -8 7v2c-1 0 -1 -1 -1 -2c-5 4 -4 20 3 29c-1 3 -3 4 -6 4c1 4 -1 14 2 15c0 2 -1 2 -2 1c-3 -1 -2 0 -2 3c2 3 2 13 -1 30c-2 17 0 28 7 32c-3 -1 -4 0 -5 2c0 1 0 1 -1 1c1 5 -1 40 6 52l4 2c0 15 11 13 25 15c0 -5 14 -6 17 -9
c-1 -9 -2 -28 -2 -57c1 -29 -1 -44 -4 -47c2 -25 3 -69 4 -131c1 -61 3 -105 4 -132c2 -27 4 -69 6 -128c0 -3 3 -3 4 -6v-4c1 -1 5 -68 7 -79c1 -7 3 -40 4 -98z" />
    <glyph glyph-name="M" unicode="M" horiz-adv-x="452" 
d="M424 204l-6 -3c2 -17 2 -43 1 -78s0 -59 1 -72c-5 -21 1 -60 -17 -67c-46 7 -24 83 -33 121c3 14 4 33 4 58s1 42 2 51c-4 15 -6 38 -5 70c1 33 0 55 -3 66c0 3 8 5 8 8c-5 9 -6 23 -2 42c-10 12 -1 37 -4 50l-5 33c-2 17 -3 27 -3 31l4 26c0 8 -5 21 4 25
c-5 18 -4 29 2 33c-12 3 -11 -32 -23 -29c4 -4 -1 -10 -6 -11c-11 -27 -29 -64 -54 -109s-41 -76 -49 -93c-5 0 -8 -1 -8 -2c-7 5 -11 10 -12 14c-1 -1 -2 -5 -2 -6c-15 15 -29 35 -43 60c-14 26 -23 42 -28 49h4c-8 15 -34 59 -36 75c-19 25 -32 47 -39 67
c-3 -5 -4 -14 -2 -29s1 -23 -4 -24c3 1 5 -1 6 -8l-2 -21c2 -7 3 -13 2 -20c0 -7 -1 -18 -2 -33s-1 -27 -1 -34c0 -5 2 -17 1 -21c-2 -7 -2 -11 0 -13c-6 -4 -3 -54 -3 -67c-1 -13 -3 -23 -6 -29c0 -1 1 -2 4 -2c-3 -17 -4 -45 -5 -84c-1 -38 -2 -62 -3 -72l-4 -13
c3 -8 1 -22 -2 -35l-2 -9c1 -43 1 -72 0 -87c1 -3 9 -5 10 -9c0 -4 -4 -6 -4 -10c-15 -3 -24 1 -26 13c-2 13 -1 23 3 30c0 1 -4 2 -4 3l3 59l3 53c0 7 5 35 4 48c-1 17 1 33 7 50c-3 12 -3 29 2 50c0 4 -1 15 -3 33c-1 19 -1 29 1 32c0 3 6 5 6 8c-11 0 0 18 0 32v12
c0 2 -1 11 -2 26c-1 16 -1 26 0 29c3 13 4 34 4 62c0 4 -2 31 -2 38c0 1 8 1 8 4c-1 4 -2 5 -4 3l-2 -3c-5 19 -5 31 0 37c-6 26 -7 57 -2 92c3 5 12 2 18 5c1 -4 12 -12 9 -19c3 0 4 1 4 2c14 -17 23 -29 28 -36c11 -12 30 -46 39 -79c1 0 4 -3 8 -4c0 -15 15 -33 11 -42
c3 5 4 5 5 -1c1 -3 0 -5 -1 -7c1 0 2 1 2 4c26 -52 46 -94 60 -125c7 9 16 24 27 46c12 23 22 39 30 48c0 1 -1 2 -4 2c3 6 5 7 8 4c-4 9 11 25 12 29c1 0 3 -7 7 -6c-3 5 -5 7 -5 8c1 8 4 12 9 13c1 16 10 31 25 46c1 7 10 27 27 60c-3 8 8 29 8 40c5 0 8 3 9 8
c8 0 21 -1 23 0c1 -1 3 -3 4 -6c-8 -3 -10 -18 -7 -46c4 -28 4 -45 1 -50c7 -21 7 -37 2 -48c5 -41 8 -104 8 -189c1 -85 1 -138 2 -157z" />
    <glyph glyph-name="N" unicode="N" horiz-adv-x="402" 
d="M353 331c1 -13 0 -36 -1 -68s-1 -53 -1 -62c0 -30 -1 -47 -2 -52l-4 2c0 -12 9 -29 -2 -35c4 -10 4 -26 1 -49s-2 -42 3 -57c-3 -3 -8 -9 -13 -17c-8 0 -13 5 -21 2c-5 6 -30 24 -21 37c-1 -3 -2 -4 -3 -3c-5 3 -8 11 -11 26c-2 7 -7 21 -16 42c-8 21 -12 37 -13 46
c-5 3 -18 26 -15 33c-8 8 -15 28 -15 30c-7 7 -9 14 -6 21c-7 7 -13 36 -21 43c10 11 -16 23 -2 32c-4 8 -14 10 -8 23c-11 9 -17 24 -17 45c0 3 -3 -2 -6 1c3 13 -6 26 -6 37c-3 1 -6 7 -9 20c-2 13 -6 21 -12 22c2 16 -4 13 -7 29h5c-2 6 -4 7 -5 4c-7 13 -14 34 -21 62
c-7 29 -13 48 -16 57c-5 -6 -9 -18 -10 -35c0 -17 1 -66 0 -99c-1 -17 -2 -32 -5 -47c3 -75 -2 -161 -14 -259l1 -14c1 -9 2 -15 1 -18c-5 -39 -7 -80 -6 -123l-9 -8c-3 1 -8 4 -16 11c1 3 5 15 8 18c-2 2 -4 -1 -6 6c3 2 4 9 3 21c-1 13 2 22 7 28c-2 6 -3 18 -2 35
s2 29 2 35c0 1 3 0 4 0c-3 15 -3 29 2 42c-3 4 -3 13 -2 28c2 15 3 26 2 31h7c-2 3 -2 5 0 6c-1 1 -1 2 -2 1c-1 0 -3 0 -5 1c5 7 3 18 6 21c-1 1 -1 2 -2 1c-2 -1 -3 -1 -4 -1c3 3 2 13 7 17c-4 3 -4 17 -1 43c1 8 1 22 1 41c1 19 1 33 2 41h4c0 8 -5 31 -4 42
c3 29 4 49 2 58c3 0 6 -3 10 -2c-1 3 -2 4 -4 3s-4 0 -6 1c8 10 0 20 0 36c5 1 7 3 8 4c-1 -1 -2 -1 -3 -1c-4 1 -4 6 1 17c-3 4 -3 14 -2 31c2 17 2 29 0 34c1 -1 4 -2 8 -2c-5 1 -6 10 -5 25s2 25 1 29c1 -1 3 -2 4 -2c-4 9 -2 17 6 25c4 0 12 -3 17 -2
c8 -12 16 -50 27 -62c-2 -2 -3 -3 -4 -3c12 -16 23 -43 33 -81c6 -10 12 -28 19 -53s12 -39 13 -43c2 -5 5 -13 8 -25c4 -8 10 -13 6 -25c7 -8 9 -32 17 -40c7 -35 23 -85 48 -149c26 -63 43 -110 50 -139c4 0 10 -15 13 -21c8 2 -2 11 4 17c1 0 1 -4 4 -4c4 7 -13 16 0 25
c-7 19 -3 33 10 42c-4 4 -3 -5 -12 -2c0 4 0 15 1 32s1 28 -1 32l1 4c1 4 3 11 3 15c0 21 -7 76 2 100l4 -2c0 4 -4 20 -4 25c0 29 2 50 7 63c-3 2 -4 6 -3 12c3 0 6 -2 7 -2c-1 4 -4 5 -7 4c-1 37 3 74 11 109c4 1 3 3 -4 6l6 15h-2c-2 9 -2 25 0 48s1 42 -2 56h6
c-7 10 -7 22 0 36c-5 3 -6 8 -3 13c1 3 1 5 1 6c5 0 8 5 13 4c4 -4 6 -13 6 -27c0 -95 -2 -164 -7 -207c-4 -4 -6 -13 -6 -27c-1 -12 -1 -30 -2 -53v-43c-1 -22 -1 -38 0 -48c-3 0 -4 1 -4 2z" />
    <glyph glyph-name="O" unicode="O" horiz-adv-x="359" 
d="M327 410v-13c3 -23 2 -42 -2 -56l-2 -17c-1 -32 -9 -76 -23 -131c-1 0 -2 -6 -5 -2c2 -2 2 -6 1 -11c-5 -9 -11 -26 -18 -53s-14 -45 -22 -55c-9 -28 -30 -57 -65 -88c-7 1 -20 -8 -27 -8c-13 -1 -40 9 -48 10c-1 4 -12 8 -12 15c-15 3 -24 16 -28 40c-4 0 -10 7 -6 12
c-4 5 -17 15 -10 23c-1 -1 -3 -2 -5 -2c-1 3 0 4 3 4c-13 20 -17 33 -11 40c-7 15 -10 29 -13 49c-1 10 -1 18 -2 23c0 12 -2 44 -2 51l5 6c0 1 -2 2 -5 2l1 3c1 3 2 4 4 3c-4 3 -4 9 0 9c0 0 0 1 -1 3l-2 1c-1 13 -1 32 0 56s2 42 1 53c3 1 5 -1 8 -1c1 2 1 3 -2 3
s-4 1 -4 2c1 2 2 10 2 23c1 13 3 23 8 29c10 87 35 167 75 240c21 20 51 31 88 33c35 -17 59 -35 73 -54c-2 -6 -3 -9 -4 -10c0 -4 5 2 10 0l5 -17c7 -17 8 -23 12 -39c7 -20 10 -38 8 -55c7 -8 12 -27 9 -38c0 -1 0 -2 -1 -3l-2 1c0 -8 7 -31 7 -42c0 -2 2 -28 2 -39z
M296 268c0 3 -2 7 -5 12c11 57 9 109 -8 157l2 3c3 3 3 4 0 7c-3 19 -7 38 -12 55c-11 35 -29 81 -36 102c-5 3 -11 11 -20 22c-17 23 -32 33 -53 28c-4 -1 -18 -14 -23 -13c-3 -7 -10 -18 -22 -33c-11 -15 -18 -27 -20 -37c1 1 2 0 4 -3c-1 -6 -5 -17 -12 -33
c-7 -15 -12 -28 -15 -37c-6 -21 -11 -52 -14 -91l-6 -72l4 -4c3 -71 10 -129 21 -172c-1 -4 -5 1 -5 -2h7c-1 -6 1 -10 4 -12c0 -1 -5 -2 -4 -6c5 -4 11 -14 17 -29c7 -15 13 -23 18 -26c13 -6 43 -39 65 -35v2c34 0 56 14 67 42c6 14 12 37 17 69c6 32 11 53 14 62
c1 0 3 -2 4 -2c0 16 3 33 8 50c0 -3 1 -5 3 -4z" />
    <glyph glyph-name="P" unicode="P" horiz-adv-x="299" 
d="M258 588c16 -57 12 -124 -12 -202c-1 -4 -7 -32 -11 -40c-6 -13 -22 -36 -48 -70c-29 -33 -58 -53 -89 -61c-5 -38 -10 -93 -15 -165c-1 0 -2 0 -3 -1l-1 -1c1 -1 2 -3 2 -6c1 -9 -13 -33 -13 -40c-42 -21 -37 41 -37 54c5 26 7 62 7 107c1 45 2 77 5 96c0 5 6 24 6 31
c0 4 -5 29 -4 40c1 3 2 3 4 2c0 8 -5 27 -4 35v40c0 3 5 5 5 8c1 1 -5 6 -5 7c-3 11 2 43 2 50h5c-5 9 -4 32 2 68c0 8 1 43 2 105c4 -1 4 5 8 4c1 3 -5 4 -6 1c-3 27 8 62 27 74c14 -1 43 -4 88 -10c5 -7 28 -19 35 -34c17 -11 31 -40 44 -89c2 -2 4 -3 6 -3zM235 461
c1 0 1 -4 4 -4c0 7 -6 2 -6 6c1 7 0 21 -4 42l-4 35c0 1 -6 15 -19 44c-23 55 -46 89 -90 98c1 -35 1 -62 0 -82c0 -19 -1 -46 -2 -79s-2 -54 -2 -64c-1 -58 -6 -131 -14 -219c10 0 20 3 29 8c19 11 43 34 48 38c0 7 14 23 21 27c29 57 42 107 39 150zM58 650v-3
c-1 1 -1 2 0 3z" />
    <glyph glyph-name="Q" unicode="Q" horiz-adv-x="418" 
d="M222 752c34 -9 64 -32 89 -68c25 -35 40 -72 44 -111c20 -55 29 -118 28 -190c7 -62 8 -109 2 -142c0 -1 5 -3 4 -8c0 0 0 -1 -1 -3l-5 2c5 0 6 -6 2 -18l-2 -2c0 -32 -1 -54 -3 -65c-5 -23 -9 -39 -12 -46c-1 -3 -7 -7 -8 -10c0 -1 0 -3 1 -6c1 -5 0 -7 -1 -8
c-1 0 -2 0 -3 1c1 -9 -4 -20 -13 -33s-13 -22 -14 -27c-3 0 -12 -5 -26 -16c-14 -10 -25 -16 -34 -18c-8 -3 -33 -3 -38 -4c-17 -38 -12 -123 32 -121c39 3 12 73 48 58c-4 -43 -12 -66 -44 -83c-34 -1 -64 17 -90 54c1 1 1 12 4 13c-5 0 -5 5 -8 12c1 2 1 2 2 0l4 -2
c-6 9 -8 19 -7 32c1 3 2 4 3 4c-3 9 -3 36 -4 43c-23 8 -53 28 -90 61c0 3 -3 8 -2 12c-19 16 -31 54 -35 81l-7 56l-6 49c3 1 5 -4 6 -4c4 0 -1 7 -6 6c1 8 1 21 0 40s1 30 4 33c-1 -1 -2 -1 -3 2c-1 5 0 9 3 11c-4 27 -2 56 6 85c-3 21 2 66 15 136c1 4 1 26 4 31l4 3
c3 3 4 5 5 8l6 21c7 23 12 36 21 41c8 26 22 49 43 70s45 27 71 16c3 4 6 3 11 4zM153 712c0 -5 -10 -13 -17 -12l-20 -36c-10 -19 -19 -32 -26 -41h5c-1 -1 -2 -2 -1 -3s1 -3 1 -4c-1 -8 -10 -31 -13 -43c-1 -2 -3 -14 -6 -36s-6 -37 -11 -46c3 -1 4 -3 4 -8
c-8 -65 -7 -133 3 -202c6 -39 9 -60 10 -63c10 -39 29 -78 56 -119c8 -1 14 -14 17 -17h-4c12 -5 24 -21 33 -25c-3 -1 -5 -3 -2 -4c1 3 3 4 6 4c-6 -8 19 -4 19 -16c0 3 1 4 4 3c2 -1 4 -2 5 -1c1 -2 1 -4 -2 -5c23 -6 48 -5 73 2c1 4 25 11 29 15c24 21 40 84 44 136
c3 -2 6 -1 8 2c-1 0 -3 -1 -6 -2c1 4 -1 21 4 21c-9 0 -2 9 -2 14l-6 36c-5 35 -7 47 -3 62c-6 3 -6 8 0 15c-1 0 -3 0 -4 -1s-1 0 -2 1c1 13 -4 41 -4 46c5 5 5 9 2 12c1 -5 0 -8 -4 -8c3 11 -5 33 -4 40c-7 7 -10 48 -15 64c-5 15 -13 34 -25 59l-19 42c0 1 5 3 4 6
c-13 0 -22 28 -25 37c-35 59 -70 84 -106 75z" />
    <glyph glyph-name="R" unicode="R" horiz-adv-x="302" 
d="M63 734c3 0 10 -1 23 -2l29 -3c12 -1 31 -9 36 -22c10 -3 18 -9 25 -20c13 -7 25 -24 29 -35c3 -5 6 -15 10 -28l9 -23c10 -29 12 -68 6 -117c-5 -41 -24 -86 -56 -134c-3 -6 -4 -21 -11 -16c-3 -1 -5 -10 -6 -11c-3 -1 -5 2 -8 2c7 -13 -24 -28 -36 -39
c22 -39 52 -97 91 -173l68 -132c-14 -32 -44 -2 -52 17c-7 19 -38 51 -34 65c-1 1 -18 24 -22 28c-6 10 -20 34 -21 47c-4 7 -11 25 -22 52s-20 46 -27 56c-5 -12 -6 -47 -4 -104c3 -57 2 -96 -2 -119c-3 -14 -12 -21 -25 -20c-11 1 -17 6 -18 17c0 3 0 6 1 9
c-3 -1 -5 -2 -6 -2c4 4 -7 18 2 29c-4 -3 -6 -2 -6 3c-1 10 -1 15 -2 16c0 1 2 2 6 2c-9 32 -3 80 -6 117h6c-7 4 -9 17 0 21c-1 1 -3 3 -6 4c7 -3 -3 24 4 27c-3 15 -4 41 -5 78l-3 75c3 -1 5 -2 6 -1c-4 4 -6 6 -6 7c1 7 2 23 1 48s1 41 5 46c-6 6 -6 27 2 27
c0 1 -2 2 -6 2c5 23 -1 62 4 77c-1 0 -2 -1 -2 -4c-3 7 -3 19 -2 37c2 19 3 30 2 34c-4 23 8 50 29 62zM95 695c0 -180 0 -311 -1 -393c41 17 71 51 88 100c17 50 22 97 15 141c1 7 0 17 -3 32l-6 28c-4 5 -20 31 -29 42c-14 19 -37 42 -64 50z" />
    <glyph glyph-name="S" unicode="S" horiz-adv-x="252" 
d="M211 143c0 -9 1 -25 -6 -27c0 -4 2 -6 6 -6c-5 -5 -2 -14 -2 -25c-3 3 -5 4 -5 1s1 -6 3 -9l-6 -5l3 -2c1 -1 2 -3 1 -4c-17 -45 -39 -75 -67 -90s-50 -15 -65 0c-2 -1 -2 -1 -1 -2c3 -1 3 -2 2 -4c-18 8 -27 18 -26 29c-7 -1 -11 1 -14 12s-3 13 -4 28l18 6
c9 -32 26 -51 51 -56c11 0 28 9 35 8c13 5 24 18 33 39c9 22 14 42 13 61c0 1 0 2 -1 5c-1 4 -1 6 0 5c1 0 2 0 3 -1c-6 12 -7 18 -2 19c-4 11 -9 29 -15 54s-11 44 -16 56h4c-11 6 -14 12 -9 17c-3 0 -4 -1 -4 -2c-29 67 -47 122 -56 163c3 1 5 0 5 -2c1 -1 0 -2 -1 -3
c4 1 5 2 2 5c-1 1 -3 2 -8 2c-4 15 -6 38 -6 67c0 3 3 -1 6 2c-5 4 1 13 -4 18c1 0 4 5 8 4c-7 4 5 25 2 30c1 1 3 0 4 -2c3 29 13 60 29 93s33 60 51 80c7 11 31 57 50 33c-12 -13 -26 -33 -41 -60c-15 -26 -25 -43 -32 -52c4 -7 -1 -22 -9 -23c3 -14 1 -22 -8 -25l-4 -30
c-2 1 -3 3 -4 4v-96c3 -9 7 -24 12 -46l9 -39c5 -5 8 -13 11 -25c1 -13 9 -18 13 -27c1 -5 1 -18 1 -23c1 -5 12 -14 4 -17c2 -2 6 -9 12 -21c1 -4 -4 -3 -4 -2c0 -9 17 -14 8 -27c9 -11 13 -37 17 -48c-1 -1 -1 -2 -1 -3c-2 -2 -4 -3 -5 -3c11 -4 6 -24 10 -29
c-1 -3 -8 -2 -8 -3c1 -1 3 -2 8 -2zM121 371c4 -3 9 -16 13 -20c-3 11 -3 17 -2 20c-8 5 -9 22 -13 25c2 -6 -4 -5 -4 -8c7 0 8 -13 6 -17zM138 335c1 1 1 1 2 -2c1 -5 3 -7 4 -8c-1 7 -3 13 -6 17c1 -1 0 -3 -1 -5c1 -1 1 -2 1 -2z" />
    <glyph glyph-name="T" unicode="T" horiz-adv-x="298" 
d="M156 367c7 -39 5 -86 -4 -141c3 -3 4 -22 3 -58c-1 -35 -2 -57 -1 -64c-1 -1 -2 -3 -2 -4c0 -3 -1 -3 -4 0c8 -22 7 -42 -2 -60c8 -16 1 -47 -15 -63c-21 4 -25 7 -33 38v3c0 1 1 1 2 0s2 0 2 1c-8 13 -9 33 -4 61c-4 39 -5 71 -2 96v16l4 -2c0 4 -7 21 2 23
c0 1 -4 1 -4 4c1 16 5 118 10 307c0 1 -3 -1 -4 2c-1 4 4 13 4 17c0 1 -1 25 -4 72c-2 47 -1 71 2 74c-4 2 -15 3 -34 2s-32 0 -39 2c-1 5 0 11 4 19c11 0 31 -2 40 -2c9 1 33 0 71 -2c3 0 4 2 4 6c8 -2 20 -3 36 -2c17 1 28 1 33 -2c13 9 43 10 48 -2c3 -6 1 -11 -7 -15
c-11 -6 -19 -4 -25 6c-9 -5 -25 -8 -34 -9c-8 0 -34 1 -41 1c0 -2 1 -8 2 -19c-5 -7 -4 -13 2 -19c-1 -1 -2 -2 -4 -2c8 -51 7 -133 -4 -248c5 -4 0 -26 4 -35c0 -1 -2 -1 -6 -1z" />
    <glyph glyph-name="U" unicode="U" horiz-adv-x="380" 
d="M342 617c7 -5 1 -24 4 -33c-3 0 -3 -6 -6 -2c3 -8 3 -14 -2 -17c0 -3 1 -4 4 -1c1 1 2 2 2 3c-1 -13 -3 -35 -4 -64s-2 -51 -4 -65l3 -26c-1 -15 -4 -21 -9 -20c0 -2 1 -3 3 -4c2 1 3 0 3 -1c-1 -10 -3 -23 -4 -39c-1 -31 -5 -50 -13 -75c5 -10 -2 -21 -2 -36h-6
c5 -4 -1 -10 4 -10l-21 -80c-5 -21 -16 -54 -27 -79l3 -2c1 -1 2 -3 1 -4c-10 -14 -26 -58 -42 -59c-1 -8 -18 -20 -29 -16c0 -9 -10 -12 -29 -9c3 -2 2 -4 -4 -5l-23 -1c-33 4 -62 33 -75 61c-22 51 -32 108 -30 171c1 17 0 39 -2 68l-4 59c-1 22 1 35 6 38c-1 1 -3 2 -6 2
c5 17 -2 39 2 54h5c-9 0 -4 19 -5 21c0 1 2 2 7 2c-1 3 -2 4 -3 3s-3 0 -4 1c4 9 0 39 4 54c3 -1 5 -1 5 0c-5 3 -6 6 -5 9c1 2 3 3 7 2c-5 3 -7 15 -5 36c2 22 2 36 1 41l6 6c-6 29 -3 64 10 105c10 8 20 7 31 -4c1 -16 -1 -68 -6 -157v-123c0 -4 -5 -3 -6 -8
c7 -33 8 -65 4 -96c8 -18 9 -36 2 -53c4 -20 7 -51 10 -94c3 -42 7 -70 11 -83c20 -47 66 -78 109 -58c3 1 4 0 4 -3c2 3 10 10 23 21c47 110 76 261 85 453v64c1 38 2 68 5 91c-2 7 -3 16 -3 25c1 4 10 13 11 18c4 -1 11 -6 14 -6c0 -17 -8 -57 -10 -75z" />
    <glyph glyph-name="V" unicode="V" horiz-adv-x="436" 
d="M389 688c-7 3 -8 10 -3 21s12 13 20 4c0 -12 -5 -28 -14 -47s-14 -30 -15 -35c-11 -40 -23 -75 -34 -104h-6c1 -9 -3 -22 -10 -39s-10 -30 -11 -40c-7 -15 -28 -68 -61 -157c-1 0 -2 1 -2 4c-3 -20 -22 -63 -25 -87c-3 -2 -5 -2 -8 0c3 -7 -4 -30 -4 -34
c-9 -15 -18 -37 -26 -67s-14 -49 -18 -58c-8 -15 -23 -35 -23 -54c-12 -5 -19 -6 -20 -1c0 1 0 2 1 3c-19 -1 -26 33 -25 52c-6 15 -12 49 -17 104c-3 20 -3 33 0 38c-4 4 -9 12 -2 16c-1 1 -5 0 -6 3c5 0 -5 18 2 18c-15 8 4 24 -8 28h6c-4 2 -4 11 -4 14l-7 32
c-8 32 -10 41 -6 62c-5 10 -9 28 -12 53c-2 26 -3 41 -4 45c1 -1 7 -4 8 0c-1 3 -5 -1 -8 2c0 8 -4 31 0 38c-11 19 -13 42 -7 67c-7 7 -6 52 -8 68c3 1 5 2 8 2c-9 3 -5 17 -10 17c1 1 3 3 6 4c-4 9 -6 19 -5 28c1 5 1 9 1 11c1 5 7 23 8 26c11 7 20 11 28 11
c0 -1 0 -1 -1 -2v-2l5 3c8 -7 24 -25 29 -29c-3 -13 -3 -35 0 -64s3 -47 2 -55c4 -3 6 -10 6 -21s1 -17 2 -20c-4 -3 -7 -3 -10 -2l2 -4c3 -4 3 -4 6 -1c2 -9 1 -15 -2 -18c3 -17 5 -35 7 -54l6 -65l4 -51c7 -81 14 -174 21 -281c-1 0 -1 4 -4 4c4 -12 5 -21 4 -27
c13 11 19 43 27 54c-2 10 -1 21 6 21c1 15 6 32 15 53l15 35c1 3 0 9 0 12v-1c3 1 5 5 8 11c0 0 0 1 -1 2c-3 3 -3 4 -1 5l4 -2c4 8 0 28 12 31c-1 1 -2 2 -4 2c4 6 8 16 13 31s9 25 12 30c0 4 6 14 5 23c17 30 35 77 52 141c3 8 18 39 21 48c3 6 2 24 10 19
c1 13 12 36 13 40c1 -1 2 -2 2 -3c-1 0 0 0 2 0c1 1 1 1 2 1c1 3 -1 4 -6 4c9 12 11 44 18 44c-3 8 1 20 9 21c-3 3 1 13 0 16c1 3 4 4 10 3z" />
    <glyph glyph-name="W" unicode="W" horiz-adv-x="595" 
d="M562 700c5 -9 3 -24 -4 -44s-10 -31 -10 -34c0 -4 -2 -5 -7 -4c0 -1 3 -1 3 -4c-5 -11 -10 -32 -17 -63c-7 -30 -13 -52 -19 -67c-4 -10 -11 -38 -21 -85c-4 -18 -9 -27 -14 -27c3 -3 4 -5 4 -6l-9 -3c1 -2 3 -2 7 1c-3 -19 -9 -45 -20 -78s-17 -56 -20 -69h-8
c7 -11 0 -34 -11 -41c2 -10 0 -25 -7 -45c-6 -20 -9 -34 -10 -41c-2 -1 -5 0 -8 2c2 -28 -18 -77 -27 -108c-9 2 -8 -3 -12 -5c-7 -1 -11 10 -19 9c-29 95 -45 148 -50 160h4c-5 7 -9 18 -13 33s-5 26 -4 32c-10 8 -11 34 -19 54l-18 -50l-19 -56c-13 -42 -35 -115 -36 -159
c-3 -5 -12 -9 -29 -12c-4 4 -9 11 -14 15c-1 11 -6 32 -16 63c-9 32 -13 55 -12 68c-8 12 -11 42 -6 54c0 1 -6 2 -8 2h1l3 3c-2 1 -3 3 -4 4c-3 7 -5 21 -7 40c-1 19 -3 32 -4 39c5 0 10 8 15 8c-4 3 -14 -6 -19 -2c-1 8 6 14 6 21c-3 -1 -5 -3 -6 -6
c-13 51 -19 91 -17 121c-1 -1 -2 0 -3 3c-4 10 -4 15 1 16c-9 30 -11 53 -8 68c-7 10 -10 48 -12 67h8c0 3 -9 1 -9 4c1 19 -6 53 -6 61l4 -2c0 1 -1 5 -4 12c-4 15 -5 18 2 25c-7 10 0 19 0 38c3 1 4 5 5 12c11 7 21 10 29 9c7 -4 15 -18 19 -21c-1 -15 0 -33 3 -55
c3 -21 5 -35 5 -41c1 -21 3 -35 6 -44c1 -4 -2 -9 -2 -12c7 -53 23 -155 48 -305c0 -1 -2 -2 -6 -2c5 -1 4 -7 8 -8c-1 -7 1 -21 4 -40c4 -19 5 -34 2 -44c3 -3 5 -10 6 -21s2 -16 3 -17c0 -1 -2 -2 -5 -2c0 -1 2 -2 7 -2c-3 -8 2 -24 2 -35c6 0 4 8 10 6c-8 3 5 22 4 29
c1 0 1 -1 1 -2c1 8 5 21 11 40c7 19 10 33 11 42h5c1 23 7 39 16 48c-4 9 8 26 5 37c1 1 3 1 6 0c-3 3 -3 8 2 14c1 2 3 2 4 1c-3 13 2 34 15 65c7 1 14 1 21 0c8 -6 13 -18 16 -36c8 -51 28 -139 61 -263c0 -3 -4 1 -5 -2c1 -5 4 -7 7 -6c-5 -4 3 -8 -2 -15c7 2 12 9 14 20
c2 12 3 19 4 20l3 -2l-1 3c-1 2 -2 4 -1 5l3 2h3c3 3 2 20 2 21h4c0 1 -3 7 -2 10l3 1c1 0 2 0 3 1l-2 5l2 -1c1 -1 2 -1 2 -1c3 7 1 23 2 27c1 3 5 5 5 8c3 5 1 20 2 25l4 2l2 2c1 3 0 14 0 15c1 5 15 30 14 42c3 0 6 2 7 2c0 3 -4 3 -4 0c0 7 3 17 9 30c7 13 10 24 9 32
c3 0 3 4 7 5c0 2 -1 2 -3 1c-1 -1 -2 -1 -2 1c0 7 5 1 7 6c-6 5 -3 12 8 21c0 1 -6 1 -6 4c3 13 8 35 17 68s15 59 18 78c1 -1 3 -2 6 -2c-1 9 -1 15 -1 18c1 7 11 36 14 45c3 -3 4 -2 4 3c1 3 2 5 2 5c-3 5 -1 17 7 34c8 18 12 28 12 30c1 7 3 18 8 34c5 17 7 28 7 33
c7 -1 10 5 14 5z" />
    <glyph glyph-name="X" unicode="X" horiz-adv-x="397" 
d="M369 683c-65 -125 -115 -225 -149 -299l30 -125c27 -109 47 -188 71 -261c-3 -11 -9 -18 -19 -21c-30 -10 -39 55 -46 77c-7 14 -15 34 -22 59s-12 43 -16 52c-1 3 1 4 4 4c-6 6 -11 16 -15 31c-3 15 -7 25 -12 30c1 3 -1 12 2 16c-1 0 -2 -1 -2 -4c-7 12 -13 30 -18 42
c-37 -61 -79 -160 -126 -296c-1 0 -11 -2 -14 -1c-9 4 -4 20 -1 27c3 8 14 25 17 32c4 12 10 39 13 46c3 5 11 13 12 17c-3 12 4 32 13 37c4 27 16 52 35 75c-5 12 12 23 13 27c4 4 -5 10 3 10l3 1c0 1 -1 9 0 12l11 20c7 13 10 23 10 30c0 3 -11 22 -6 30
c-1 -1 -3 -2 -6 -2c-3 14 -9 31 -18 51c-8 21 -13 36 -16 47c0 2 1 3 4 2c0 5 -9 9 -10 12c1 5 -2 17 -9 35c-6 19 -7 34 -3 45c-1 -1 -3 -2 -5 -2c0 5 -3 19 -8 40s-6 34 -4 39c-9 21 -9 43 0 67h-6c1 11 10 21 10 25c7 -2 16 10 21 12c4 -4 15 -4 19 -6c1 -8 7 -14 18 -19
l21 -95l19 -89l-3 -4c2 -2 6 -12 13 -29l5 -29c3 -15 5 -26 8 -32c7 9 17 27 30 53l22 44c6 14 11 21 15 22c0 1 -1 1 -4 1c7 13 20 38 37 74c18 36 32 62 42 78h5c6 -1 10 -3 12 -8z" />
    <glyph glyph-name="Y" unicode="Y" horiz-adv-x="315" 
d="M274 704c2 -1 6 -4 11 -11c-7 -9 -16 -24 -25 -47s-16 -38 -21 -46c-3 -9 -8 -41 -19 -42l2 -11c-29 -72 -49 -134 -60 -185c0 -5 -14 -31 -17 -40l1 -2c0 -1 1 -3 1 -6c-4 -15 -22 -61 -29 -86l-29 -110c-1 -4 -1 -21 -4 -26c0 -1 -5 -5 -5 -6c-3 -11 -6 -47 -10 -62
c-6 -25 -12 -38 -17 -40l2 -2c1 -1 2 -3 2 -4c-1 3 -3 3 -4 1l-2 -3c3 -5 0 -23 -8 -53c-17 -1 -16 22 -9 34l6 32c3 17 5 28 7 33c1 3 3 4 4 5c0 0 1 0 2 3s2 29 6 40c5 20 8 32 7 37h6c-2 8 0 20 5 37c6 17 9 29 8 38c3 0 4 7 8 6c-5 3 -1 20 6 23c1 22 7 48 16 78
c9 31 15 52 16 64c2 -1 3 -1 4 1s3 3 5 3c-7 0 -6 17 3 17c-3 3 -11 15 -23 34c0 8 -3 20 -10 37c-6 17 -8 30 -5 38c-1 1 -3 1 -4 0l-23 82c-9 37 -18 66 -25 87c-1 3 -1 4 0 4c3 -1 4 -1 4 -1v3c-9 1 -11 17 -6 48c7 3 19 1 36 -6c4 -26 15 -66 32 -119
c18 -53 30 -95 36 -125c5 -2 7 -6 6 -12c15 41 36 96 65 166c3 8 11 34 15 43c9 18 19 41 33 51z" />
    <glyph glyph-name="Z" unicode="Z" horiz-adv-x="319" 
d="M264 532c0 -5 -2 -7 -7 -6c3 -13 -10 -50 -10 -63c-1 -1 -3 -1 -6 0c-3 -29 -12 -66 -28 -112s-26 -76 -29 -90h-6c-2 -29 -8 -48 -19 -58c1 -3 -4 -25 -17 -65c-12 -31 -20 -51 -25 -61c-1 -19 -19 -55 -20 -66c21 3 36 1 43 6c9 -1 26 1 49 4c23 4 40 5 49 4
c2 -1 2 -3 1 -4c13 0 49 15 43 -17c-25 3 -61 1 -109 -4c-48 -6 -83 -9 -104 -8c-19 8 -20 32 -4 73c0 1 4 16 13 46s16 51 23 62c11 49 22 80 31 92c0 3 -4 6 -4 9c4 2 6 9 6 20c4 5 7 15 10 29s7 23 13 26c0 1 -4 3 -4 4c3 7 6 19 10 38c5 19 10 32 15 39c-1 2 -1 3 -2 3
c-1 -1 -2 -1 -2 1c0 6 5 15 10 13c3 30 12 60 27 91l5 1c4 12 5 33 10 45c3 0 3 -2 6 -2c-5 8 -2 24 6 25c-2 7 0 16 5 27s7 17 6 19c7 3 14 29 21 44c-4 7 -24 -3 -27 4l-5 -6c-12 0 -32 -2 -59 -6s-46 -5 -59 -2c-1 3 1 9 4 16c4 -3 15 3 19 3c2 0 3 -1 4 -3
c25 3 38 5 39 5c8 0 23 2 45 5c23 3 40 4 51 3c4 0 10 4 13 4c15 -4 21 -15 16 -35l-6 -23c-2 -6 -6 -15 -12 -27c-5 -12 -8 -18 -9 -19c4 -11 -5 -21 -8 -32c-4 -11 -9 -44 -12 -52z" />
    <glyph glyph-name="bracketleft" unicode="[" horiz-adv-x="204" 
d="M96 30c-1 -1 7 -16 4 -25c6 -1 17 -1 32 2s27 3 35 1s11 -9 8 -20c-18 3 -41 -5 -44 1c-32 -8 -53 -10 -62 -5c-18 8 -12 41 -19 61h6c0 4 -6 3 -6 6c-5 37 -8 85 -9 145c-1 61 -2 106 -5 135v8c-1 5 -1 14 -1 29c0 14 1 20 3 17c-4 15 -6 24 -5 27c3 0 5 -3 9 -2
c0 5 -8 2 -9 6c3 17 -1 54 0 63c-1 14 -1 37 1 69s3 51 2 56c-1 15 2 35 2 50l4 -2c-1 4 -3 5 -4 4c2 11 -1 61 16 82c7 1 20 3 38 7c19 5 33 6 43 4c11 -1 19 -7 26 -18c-9 -3 -23 -4 -41 -5c-17 0 -30 -2 -39 -5c2 -17 4 -69 5 -157c1 -5 -1 -7 -5 -6c0 -1 2 -2 7 -2
c-1 -12 -1 -35 1 -69c3 -34 2 -55 -1 -62c6 -4 7 -24 7 -46c0 -12 -1 -35 -1 -44c0 -35 1 -70 2 -106c-3 1 -5 1 -6 -1h6c1 -5 0 -24 -2 -56s-1 -51 2 -58c1 -3 2 -31 4 -84c-3 -1 -4 -1 -4 0z" />
    <glyph glyph-name="backslash" unicode="\" horiz-adv-x="388" 
d="M343 23c3 -20 16 -48 15 -79c-9 -9 -11 -14 -28 -14c-1 4 -19 9 -16 22c-11 4 -20 30 -15 34c-1 1 -1 3 -1 4h-4h-1c0 4 -5 8 -4 13c1 1 3 1 4 0s2 -1 2 0c-5 1 -7 2 -8 2c-13 47 -22 76 -27 87c0 1 4 1 4 4l-5 -1l1 1c1 1 1 2 0 3l-8 16c-9 19 -13 27 -9 32
c-9 12 -19 49 -27 58c-1 3 1 4 2 5c2 1 2 2 0 3c-1 -1 -1 -2 -2 -2c1 4 2 6 2 6c-1 1 -10 10 -11 15c-3 4 -3 17 -4 21c-1 5 -11 16 -14 23s-4 26 -5 33c-5 12 -24 41 -20 52c-1 0 -2 1 -3 3c-1 3 -2 15 -2 16c-1 3 -4 7 -9 14c-8 15 -9 15 -5 26c-1 0 -2 -2 -5 -2
c-33 82 -70 190 -110 325l7 5l7 5c-1 0 -2 0 -4 -1c0 4 4 7 11 10c0 -1 8 -1 8 -4c-1 -1 -2 -1 -3 -1c-2 -2 -3 -4 -3 -5c3 0 6 6 10 6c0 -6 6 -8 0 -12c4 1 8 -3 12 -12s5 -14 3 -16c7 0 10 -9 6 -14c1 2 4 0 7 -5c2 -3 2 -5 -1 -6c5 0 7 -5 8 -13l1 -5l56 -144
c-3 0 -4 -1 -4 -2c5 -2 9 -9 12 -20s6 -17 7 -18l-6 -8c3 0 4 5 8 4c-3 -3 -4 -6 -3 -11c2 -3 4 -3 7 0c4 -6 3 -14 -4 -23c11 -2 4 5 8 7c0 -10 11 -12 4 -19c3 -1 4 1 7 -2c0 -7 5 -12 -2 -15c3 2 5 2 8 0c5 -23 16 -57 32 -100s26 -75 30 -96c2 1 4 1 5 0
c1 -8 0 -12 -4 -13c3 0 5 -1 6 -2c0 1 0 2 1 4c0 2 0 3 1 3c3 -16 10 -36 23 -61l-2 -1c-1 0 -2 0 -2 -1c6 -7 12 -20 19 -37l12 -30c-3 -1 -5 -3 -6 -6c5 1 9 1 10 -2v-4l-2 -6v-3c1 0 3 4 4 4c6 -8 1 -10 -2 -16c1 0 2 5 6 4c0 -3 -1 -5 -2 -8c1 0 3 2 4 2
c-2 -3 -1 -6 2 -7c1 -1 4 -9 7 -24c1 -5 2 -5 4 -1z" />
    <glyph glyph-name="bracketright" unicode="]" horiz-adv-x="204" 
d="M112 30c0 -1 -1 -1 -4 0c2 53 3 81 4 84c3 7 4 26 2 58s-3 51 -2 56h6c-1 2 -3 2 -6 1c1 36 2 71 2 106c0 18 -1 49 -1 64c1 15 3 23 7 26c-3 7 -4 28 -2 62c3 34 3 57 2 69c5 0 7 1 7 2c-4 -1 -6 1 -5 6c1 88 3 140 5 157c-9 3 -22 5 -40 5c-17 1 -31 2 -40 5
c13 21 32 23 68 14c19 -4 32 -6 39 -7c17 -21 14 -71 16 -82c-1 0 -2 -1 -3 -2s-1 -2 -1 -2l4 2c0 -15 3 -35 2 -50c-1 -5 0 -24 2 -56s2 -55 1 -69c1 -9 -3 -46 0 -63c-3 -4 -8 -1 -9 -6c4 -1 6 2 9 2c1 -3 -1 -12 -5 -27c1 0 1 -1 2 -3c3 -15 3 -30 0 -43
c0 -1 -1 -1 -2 -2s0 -3 2 -6c-3 -29 -4 -74 -5 -135c-1 -60 -4 -108 -9 -145c0 -3 -6 -2 -6 -6h6c-7 -20 -1 -53 -19 -61c-9 -5 -30 -3 -62 5c-3 -6 -26 2 -44 -1c-7 39 46 13 75 17c-3 9 5 24 4 25z" />
    <glyph glyph-name="asciicircum" unicode="^" horiz-adv-x="282" 
d="M174 734c13 -13 23 -38 29 -73c21 -55 38 -104 49 -147c-5 -9 -10 -14 -15 -16c-9 9 -13 25 -11 48c-5 7 -11 21 -6 25c-15 21 -22 44 -33 81c-5 19 -10 33 -13 42c-7 -17 -23 -43 -47 -80c-24 -36 -40 -65 -49 -87c-3 -3 -15 -18 -22 -23c-5 -4 -17 -5 -26 4
c4 30 12 48 23 54c-5 3 -1 6 -2 11c10 16 24 40 41 73s31 58 41 73c5 1 26 16 41 15z" />
    <glyph glyph-name="underscore" unicode="_" horiz-adv-x="423" 
d="M140 -48c1 0 1 -1 0 -2l67 6c32 3 54 4 65 4s32 -1 63 -2c13 7 24 7 33 2c13 11 36 -4 25 -17c-141 -5 -260 -12 -359 -21c3 1 -5 8 -2 15c12 7 19 7 21 2c9 6 25 9 48 10c23 0 36 1 39 3z" />
    <glyph glyph-name="grave" unicode="`" horiz-adv-x="136" 
d="M30 808c16 8 36 -8 48 -29c5 -8 9 -20 14 -37s10 -27 13 -32c-3 -12 9 -35 -8 -39c-5 -1 -13 6 -23 21s-18 30 -25 45c-12 27 -18 51 -19 71z" />
    <glyph glyph-name="a" unicode="a" horiz-adv-x="312" 
d="M264 102c10 -15 32 -79 4 -90c0 -1 -1 -4 -2 -7c-27 3 -41 33 -34 53c-7 3 -2 17 -10 18c7 7 -3 8 0 15c-20 63 -31 111 -34 142c0 3 -7 2 -6 6c-8 -1 -23 -2 -45 -2c-21 0 -37 -3 -47 -8c-2 -7 -5 -21 -8 -44c-3 -22 -8 -38 -15 -48c5 -3 -4 -23 0 -31c-1 0 -2 1 -4 2
c-2 -7 -7 -40 -14 -98c-3 -1 -6 -7 -7 -7c-4 0 -9 5 -12 5c7 38 13 98 27 131c0 3 -5 4 -4 8c5 6 8 17 10 34c3 17 6 29 9 35c0 12 9 40 8 53c1 1 3 1 6 0c-4 21 11 56 7 68c1 1 5 2 6 2c-3 9 3 22 2 30c9 3 5 9 8 21c-7 -7 -2 6 -2 6c3 5 7 5 10 2c-1 3 -2 4 -4 3
c-1 -1 -3 -1 -4 -1c0 3 3 12 2 19l2 -1c3 -2 5 -2 5 1c-14 4 4 22 2 37c3 -5 5 1 6 2l-1 1l-1 -1c0 7 9 22 8 30c9 9 19 9 29 1c10 -7 14 -17 13 -28c9 -20 18 -49 27 -86l15 -63c5 -14 16 -38 18 -52c1 -5 2 -34 5 -46l1 -2l1 2c4 -7 7 -21 10 -40l6 -33c1 -3 2 -9 5 -16
c7 -15 6 -15 2 -23zM99 254c44 3 70 4 79 4c-2 11 -6 27 -11 48c-11 43 -19 77 -20 109c-8 4 -6 19 -9 23c-2 1 -4 0 -5 -3c0 -1 -1 -1 -3 0c2 -5 1 -14 -2 -26c-3 -11 -7 -18 -10 -19c8 -11 -8 -24 -7 -28l3 2c-1 3 -1 4 1 4c1 0 2 0 3 -1c-4 -9 -5 -36 -13 -48
c5 -5 3 -13 -6 -26c3 -3 2 -10 -1 -19s-2 -15 1 -20z" />
    <glyph glyph-name="b" unicode="b" horiz-adv-x="220" 
d="M60 503c17 -5 50 -6 75 -14c2 -3 18 -14 23 -19c1 -8 5 -15 10 -21c25 -69 -6 -145 -61 -190c29 -5 51 -22 67 -51c17 -29 21 -56 13 -82c5 -5 4 -13 -1 -24c-2 -4 -4 -5 -5 -4c-1 -15 -7 -29 -20 -42s-25 -21 -37 -22c-1 -1 -1 -1 -1 -2s-1 -2 -3 -3c-4 -1 -6 -1 -6 1
c-3 -5 -11 -9 -25 -11c-5 -1 -18 -10 -23 -10c-33 4 -22 61 -25 94c0 8 0 20 -1 37c-1 35 -1 54 3 69c-4 11 -6 32 -6 64s-2 56 -5 72c5 34 -11 83 11 116c-5 1 -5 2 -2 5c3 2 8 6 6 10c-2 1 -3 0 -4 -2l-2 -4c-1 13 5 24 19 33zM91 457c-3 -81 -5 -144 -4 -187
c25 15 43 41 52 79s6 68 -9 89c-3 1 -26 18 -39 19zM89 224c-2 -6 -3 -9 -4 -9c0 3 -1 3 -2 0c5 -15 5 -53 2 -112c0 -16 1 -34 0 -40c0 -1 -5 1 -5 -2c0 -2 5 -2 5 -6c1 -4 -6 -17 -3 -21c33 9 58 28 73 58c-1 -1 -1 -1 -1 0c-1 6 1 10 4 11c-4 3 -3 24 0 25
c-15 55 -33 89 -69 96z" />
    <glyph glyph-name="c" unicode="c" horiz-adv-x="265" 
d="M186 490c-5 -9 -14 -20 -29 -35c-14 -15 -24 -27 -29 -38c-1 -1 -4 0 -7 2c-1 -4 1 -4 5 -4c-9 -9 -13 -18 -13 -27c-39 -65 -45 -160 -17 -286c1 0 2 1 3 2c-1 1 -2 3 -1 4c5 -21 18 -42 39 -61s42 -27 62 -22c5 1 23 21 39 17c1 -1 1 -10 4 -11c-5 -8 -32 -22 -37 -33
c-35 -1 -55 -1 -61 0c-29 8 -55 31 -76 68c-21 38 -29 73 -26 105c-5 9 -5 32 0 69c1 14 13 56 35 127c29 56 60 99 94 129c3 -1 14 -2 15 -6z" />
    <glyph glyph-name="d" unicode="d" horiz-adv-x="335" 
d="M257 712c7 5 18 5 33 -2c6 -78 9 -166 9 -263c1 -19 0 -49 -3 -89c0 -1 1 -10 4 -26s3 -26 -2 -29c0 -3 0 -4 1 -3l2 -1c-3 -35 -5 -67 -5 -96c0 -4 5 -49 5 -58c3 -24 2 -41 -2 -52c0 -1 1 -2 3 -1l3 -3c-1 -7 -1 -19 0 -35c3 -32 0 -53 -15 -70c-8 -3 -15 2 -22 14
s-11 19 -13 20c-3 33 -4 76 -4 129c-3 -7 -7 -23 -13 -48c-5 -24 -10 -43 -15 -58c-9 -28 -34 -62 -66 -63c-20 -1 -41 11 -63 37c-1 -1 -5 -1 -10 0c-30 33 -48 92 -53 178c-1 4 5 3 5 6c-4 31 3 88 20 171c3 3 7 10 11 23c6 5 15 15 27 31c31 27 81 31 108 -2h7
c5 -11 25 -27 29 -31c5 -10 4 -21 13 -25c1 4 3 14 4 29s3 26 6 32c-3 7 -4 20 -5 39c0 19 -1 30 -3 34c1 1 2 9 6 10l-6 6c4 10 -2 11 -2 21c0 9 1 22 3 39s3 31 3 40c0 26 -9 68 0 96zM173 416c-21 12 -55 4 -71 -16c-3 -3 -7 -11 -13 -22c-5 -11 -9 -18 -12 -20
c-3 -17 -4 -59 -4 -125c0 -47 1 -78 4 -92c9 -52 34 -106 67 -117c12 -4 22 -4 29 -1c8 3 16 11 25 23l15 20c15 47 23 99 24 156c2 57 -4 109 -18 154c-8 7 -31 33 -46 40z" />
    <glyph glyph-name="e" unicode="e" horiz-adv-x="261" 
d="M156 489c9 -1 17 -7 24 -18s17 -34 23 -49c1 -4 9 -10 9 -13c3 -7 4 -19 5 -36s2 -28 3 -33c-9 -13 -15 -20 -16 -23c-57 0 -101 -2 -134 -6c-3 -35 -1 -76 6 -123c0 -4 -2 -6 -6 -6c1 -1 7 -2 8 -5c0 -31 4 -60 11 -85c12 -37 24 -60 35 -69c9 3 30 2 38 6
c21 8 32 33 37 61l4 26c3 13 5 45 5 49c1 4 13 5 14 8c3 -4 7 -21 11 -25c-1 -2 -2 -4 -5 -7c0 -1 -2 -2 -2 -3c-4 -44 -14 -80 -31 -108s-42 -38 -75 -30c-13 3 -39 23 -46 27c-32 57 -37 108 -37 188c-1 5 8 7 8 8c0 3 -3 4 -9 3c-8 72 -8 154 17 214c3 0 6 10 13 9
c12 33 53 49 90 40zM137 474c-31 -4 -50 -22 -58 -51s-9 -50 -9 -83c18 -1 31 -1 39 -1c9 0 23 1 43 3s33 3 39 3c3 8 1 31 0 35c0 -1 -1 -2 -2 -2c0 10 -7 19 2 19c-9 5 -11 21 -11 33c-8 11 -25 43 -43 44z" />
    <glyph glyph-name="f" unicode="f" horiz-adv-x="218" 
d="M159 227c1 -7 -4 -12 -4 -17c-3 2 -14 2 -33 1s-31 -1 -36 -1c-8 -4 -5 -29 -10 -33c3 2 4 -1 4 -8c0 -5 -1 -13 -2 -25c-1 -14 -2 -23 -2 -28c0 -3 5 -7 4 -10c0 -4 -3 -6 -2 -11c2 -9 1 -22 -2 -39s-8 -26 -15 -28c-11 -4 -32 8 -21 23c-3 1 -6 3 -8 7c1 1 3 2 6 2
c-3 62 -3 104 0 125l-4 41l-4 38s2 39 2 50c0 41 -1 67 -2 80c1 0 4 6 8 6c-5 3 -6 15 -5 35c1 21 2 35 1 42h6c-12 18 5 34 6 46c7 3 19 4 38 4c-1 0 -2 -1 -3 -2c8 2 22 3 43 2s37 1 48 4c11 -6 16 -12 16 -18c-10 -5 -29 -8 -56 -7s-43 -1 -50 -6c1 -30 0 -75 -2 -134
c-1 -59 -1 -104 0 -135c5 -1 18 -1 38 0s34 0 41 -4z" />
    <glyph glyph-name="g" unicode="g" horiz-adv-x="329" 
d="M241 506c11 2 21 1 31 -4c1 -32 2 -54 1 -67s-4 -36 -9 -71l-9 -67c-1 -12 -3 -47 -6 -62c-1 0 -2 1 -2 2c-1 -16 -4 -40 -8 -73c19 5 36 55 66 44c-6 -3 -7 -9 -4 -17c-10 -7 -22 -17 -37 -32c-14 -15 -24 -24 -29 -29l-15 -88c-6 -42 -11 -74 -15 -95
c-7 -36 -19 -68 -35 -96c-13 -22 -33 -38 -62 -47c-28 -10 -55 -6 -80 11c-4 37 -3 64 4 82c5 14 29 42 36 54c9 12 10 29 23 25c1 3 -1 5 -1 8c7 1 20 30 32 31v9c7 4 14 12 23 25s18 21 25 25c5 16 14 26 25 31c9 57 14 101 14 130c-32 -38 -66 -55 -102 -52
c-13 1 -25 11 -30 18l-22 34c1 9 -1 24 -5 45c-3 21 -5 35 -5 42l4 -2v44c1 8 4 20 9 37s9 29 10 36c5 -1 6 6 10 6c-6 50 125 90 152 32c0 2 4 12 11 31zM205 473c-76 23 -118 -25 -125 -101c-3 -33 -1 -64 6 -95s19 -49 36 -55c16 -5 33 -1 50 14c18 15 30 30 37 47
c6 17 10 40 11 69c3 56 -2 96 -15 121zM189 70c-11 -11 -45 -44 -53 -57c-5 -9 -10 -13 -14 -12c2 -5 -1 -11 -8 -18c-3 -2 -5 -2 -7 -1c-11 -24 -59 -75 -65 -127c4 0 2 -27 9 -31c85 -37 99 92 123 143c-3 0 -4 2 -4 5c13 46 19 79 19 98z" />
    <glyph glyph-name="h" unicode="h" horiz-adv-x="282" 
d="M200 313c2 4 -3 10 4 8c-7 1 -3 30 -4 35c1 -1 4 -2 8 -2c0 3 -8 3 -8 4c3 36 -4 72 8 103c-3 -1 -5 -2 -6 -2c1 1 2 7 2 16c1 0 1 -4 4 -4c2 2 -1 5 2 10c-1 -1 -1 -1 -2 -1c-3 0 -3 4 0 11c5 15 12 21 21 20c3 -4 7 -5 10 -4c-5 -5 11 -9 13 -19c1 -7 -4 -26 -4 -31
c0 -11 5 -43 4 -51c0 -2 -4 -8 0 -14c-1 -13 -2 -42 -3 -89c-1 -46 -3 -80 -8 -103c1 0 1 1 2 4c3 -1 3 -12 1 -31c-1 -19 -2 -30 -1 -32c3 -13 3 -22 -2 -25c3 0 3 -2 1 -7l-3 -5c4 -4 7 -18 0 -29c3 -1 2 -6 -2 -13c2 2 4 2 5 -1c3 -7 2 -12 -3 -16c0 -1 2 -3 2 -4l2 4
c1 -13 -1 -29 -6 -48c-4 0 -11 -10 -23 -6c-3 1 -3 14 -10 11c2 9 -5 14 2 16c-2 1 -4 15 -6 44c0 19 2 31 6 36c-8 5 -5 29 -6 33c1 9 2 30 2 63l-3 6c-1 3 -2 6 -1 8c0 0 9 -4 5 3c-2 -3 -4 -4 -5 -1c-1 4 -1 14 1 30s1 29 -3 39c1 1 3 2 6 2c-3 2 -5 6 -6 11
c-55 -3 -91 -4 -107 -3c-1 -9 -2 -23 -2 -44c0 -20 -2 -34 -6 -43c4 -9 4 -19 0 -29c4 -51 2 -88 -7 -113c5 -3 -2 -23 2 -31c0 -4 -9 0 -10 0c-1 -5 3 -6 8 -5c-3 -15 -7 -28 -14 -39c-3 5 -4 6 -5 3l3 -3c-15 -4 -23 3 -23 21c3 0 6 -6 10 -5c-1 1 -5 8 -12 7
c0 6 -7 25 2 27c-4 3 -5 12 -4 27c2 15 3 24 2 27h6c-7 7 -7 18 0 32h-6c2 11 3 27 4 50s2 38 4 46c-2 0 -2 4 0 13c1 3 1 4 2 1c0 3 -6 7 -6 10c-3 9 0 41 4 46l-6 9c0 1 0 1 1 2s3 1 7 -2c-9 9 -9 35 -2 48c-7 7 -8 16 -2 25c-3 15 -3 34 -2 46l6 54l2 -1c1 -1 1 -1 2 -1
c0 3 -3 8 -2 12c1 -4 4 0 7 0c-12 5 8 14 2 23c3 0 7 -2 8 -2c-3 3 -3 6 0 7c1 0 2 -2 2 -5c7 17 18 13 31 -12c-1 -97 -3 -156 -4 -177c3 -4 12 -5 28 -4s25 2 26 1c3 1 11 2 25 2s24 0 30 1z" />
    <glyph glyph-name="i" unicode="i" horiz-adv-x="182" 
d="M124 470c13 -19 15 -39 4 -58c-10 -19 -26 -26 -49 -21c-1 1 -6 6 -15 13c-8 8 -12 16 -13 24c-3 21 15 39 26 54c14 3 30 -1 47 -12zM37 44c13 -1 22 0 27 2l-6 17c5 2 2 8 -2 17c-3 14 -3 35 -2 62l3 78c1 35 2 57 3 66c1 8 7 41 8 52c-4 1 -33 2 -37 9c-2 6 4 9 4 16
c1 -3 13 -4 34 -3c22 1 34 1 37 1c7 -1 13 0 18 2c4 3 17 -2 21 -2c9 -23 -13 -21 -29 -22c2 -46 1 -73 -4 -80c3 -2 5 -4 6 -6l-3 -36c-1 -17 -3 -28 -7 -33c1 -3 3 -4 6 -4c-3 -11 -5 -32 -4 -62c1 -29 0 -53 -2 -70c7 -3 19 -3 37 0c5 -5 7 -11 7 -18
c-12 -7 -93 -5 -105 -7c-11 -1 -19 5 -10 21z" />
    <glyph glyph-name="j" unicode="j" horiz-adv-x="255" 
d="M128 569c-12 1 -24 16 -27 31c-3 17 3 29 17 37c25 7 40 1 46 -18c5 -17 2 -31 -10 -42c-7 -7 -16 -9 -26 -8zM226 316c-7 -14 -9 -29 -23 -36c3 -11 -3 -8 -6 -14c-10 -24 -22 -48 -37 -73c-5 -10 -10 -14 -13 -11l2 -2c1 -1 2 -3 2 -4c-1 0 -3 2 -4 2l-5 -68
c-3 -59 -7 -106 -16 -145c-2 -2 -3 -4 -4 -7c-1 -2 -3 -3 -6 -3c4 -1 4 -6 0 -15s-6 -14 -6 -16c-2 0 -3 1 -3 4c-4 -23 -16 -35 -37 -36c-21 -2 -36 5 -46 21c-2 26 -3 41 -2 46c3 25 8 37 14 38c-5 9 -1 20 7 25c-6 6 4 9 4 21c1 0 2 -1 2 -3c5 21 20 51 46 92
c9 12 14 21 15 27c4 11 0 42 6 44c-5 9 -3 25 2 30c-5 0 -5 3 0 10c-2 -1 -3 1 -3 6l3 12v-1c0 8 -6 31 4 43c-9 1 -3 26 -6 26c0 5 9 -5 12 0c-1 1 -6 8 -10 8c1 5 -3 25 4 25c-3 4 -5 7 -4 10c1 0 1 -4 4 -4c-2 13 -3 28 -3 44c0 17 2 24 7 23c-6 25 -5 45 4 58
c-4 0 -6 8 -2 11c-1 1 -9 3 -23 4s-21 7 -20 17c7 2 26 6 23 -4c1 1 2 3 2 6c12 -3 37 4 48 4c0 -8 11 -23 0 -23c2 -37 0 -68 -5 -93c1 1 2 1 3 1c-2 -34 -4 -53 -5 -58c2 -9 3 -19 2 -30c-1 -21 -6 -68 -6 -85v-27c7 7 10 23 21 23c0 9 4 21 13 34c9 14 15 24 16 31
c1 1 3 1 4 0l3 -1c-3 5 -2 10 2 17c7 1 14 -1 20 -4zM152 412l-1 -4c1 0 1 1 1 4zM102 58l-1 3c3 0 8 5 9 5c-3 1 -6 0 -9 -3c3 19 3 30 2 34c-6 -10 -14 -26 -25 -48l-18 -36c0 2 0 3 -1 3c-1 -5 -3 -15 -7 -29c-8 -28 -10 -36 -1 -67c4 1 6 -1 9 -1c7 3 12 7 15 12
c7 9 13 38 16 43c3 -4 5 -6 8 -7c-5 6 -9 10 -10 13c3 7 7 34 12 38c-4 11 -2 36 6 37c-3 -1 -4 0 -5 3zM126 26c0 -1 1 -2 2 -2c-2 3 2 12 -4 10c4 -4 -3 -9 0 -12c0 3 1 4 2 4z" />
    <glyph glyph-name="k" unicode="k" horiz-adv-x="273" 
d="M95 301c2 16 8 26 19 31c7 19 29 53 38 77c1 -1 4 -2 8 -2c-1 21 12 43 31 55c0 -3 7 -3 8 -4c-1 -3 -1 -5 1 -5l-50 -89c-25 -44 -45 -78 -61 -103c60 -84 105 -156 136 -215c-1 1 -3 2 -5 2c1 -3 4 -5 9 -4c-1 -3 -3 -4 -4 -4c21 -21 29 -37 23 -48c-5 0 -7 -1 -7 -2
c-16 9 -32 30 -41 42c-8 13 -27 47 -34 56c-9 6 -13 11 -10 15c-17 16 -30 36 -50 71l-21 37c-1 -5 -1 -20 0 -47c1 -26 0 -43 -4 -51c7 -2 4 -30 4 -33c5 -12 5 -22 -2 -29c4 -22 -1 -41 -15 -57c-15 7 -22 17 -23 31c1 -1 3 -2 4 -2c0 19 -5 43 0 53c-5 35 -5 56 0 64
c-7 17 -9 40 -6 71c-3 3 -5 11 -4 26l2 12c-5 29 -4 49 2 62c-7 3 -8 18 0 25c-9 21 -9 38 0 51h-6c0 10 0 44 3 61c3 16 8 24 16 24c2 -3 4 -4 5 -3c0 1 0 2 -1 5c15 -7 18 -14 15 -33c-1 -9 -1 -16 -1 -19c0 -11 1 -28 3 -51c3 -23 4 -39 3 -49c-6 -12 -2 -16 1 -34
c4 0 6 14 14 9c-1 3 -3 4 -4 4c1 1 4 1 4 0z" />
    <glyph glyph-name="l" unicode="l" horiz-adv-x="256" 
d="M233 649c-7 -31 -25 -75 -34 -94c-4 -9 -13 -24 -26 -47s-19 -34 -19 -35c-1 -1 -8 -3 -9 -4c7 0 3 -8 -11 -24l-7 -9c-3 -9 -5 -30 -6 -65c0 -35 -3 -58 -9 -69c3 -32 -1 -64 -10 -96c1 -1 3 -3 6 -4c-1 -10 -2 -56 -4 -138c0 -47 2 -74 6 -81c4 -8 16 -14 23 -13
c9 2 17 11 22 26s10 24 13 27c-4 8 -6 22 -5 41s4 31 11 36l11 -4c0 -3 0 -12 -1 -25c0 -27 0 -31 -4 -55c-3 -28 -12 -53 -31 -68c-51 -19 -80 10 -85 66c-5 57 -3 93 2 134c1 4 -5 4 -4 8c3 0 4 2 3 5s0 2 3 1c-4 3 -7 20 0 23c-5 36 -1 80 10 132c0 1 -4 -1 -4 2
c0 4 1 6 2 7l3 -1c5 2 -7 6 -3 15c-23 -27 -38 -49 -45 -65c-18 5 -9 20 -5 36c1 0 7 3 11 2c-4 8 3 16 12 16c-4 8 8 19 9 23c4 1 5 -4 8 -4l-2 2c-2 2 -3 4 -2 7c19 24 28 54 27 91c1 3 3 6 8 9c-1 1 -3 2 -6 2c8 60 12 105 13 136c8 11 14 26 18 45c3 0 6 -4 7 0
c-10 10 10 29 10 40l1 1l1 -1l12 16c16 21 26 26 45 26c40 0 46 -40 35 -73zM145 492c3 5 4 10 5 13c5 8 13 29 22 31c-6 1 -6 4 0 10c2 2 4 3 5 3c1 -1 0 -3 -1 -6c-1 -1 0 -1 3 -1c1 8 1 12 0 13s5 11 8 15c3 -7 5 1 0 2c3 5 8 17 13 35c6 19 13 32 20 40c-5 0 -6 7 -3 20
c3 14 4 23 3 26c-13 7 -24 7 -35 0c-13 -9 -24 -28 -31 -58s-10 -57 -11 -82c-9 -17 -9 -63 -12 -78c1 8 12 12 12 13c-2 1 -3 1 -3 1c2 -1 4 0 5 3z" />
    <glyph glyph-name="m" unicode="m" horiz-adv-x="422" 
d="M89 407l4 5c1 5 2 5 3 1c2 1 2 2 1 4c-1 3 -2 5 -1 6c3 0 6 -3 10 -2c0 1 -1 2 -2 3c-1 -1 -3 -2 -4 -1c1 9 6 15 14 17c-1 1 -1 2 -2 1c-2 -1 -3 -1 -4 -1c11 15 33 28 48 21c-1 1 0 1 1 2c5 4 14 5 28 4c5 -1 14 -5 25 -12c7 -3 9 -3 15 -13c9 -17 13 -29 13 -35
c4 3 9 1 12 2c-7 13 10 30 23 35c-1 1 -2 2 -3 1s-2 -1 -3 -1c10 12 19 17 27 15c23 15 44 15 63 0c19 -14 30 -35 33 -63c0 -2 -1 -3 -2 -4h-2c0 -4 6 -17 6 -21c2 -11 2 -38 1 -81c-1 -42 -1 -66 -1 -73c1 -53 1 -101 -2 -142c0 -2 -1 -3 -4 -4c5 -16 0 -56 -13 -73
c-17 -1 -33 12 -37 31c7 20 4 68 4 94l6 73l6 67c1 17 -2 56 -2 68c0 7 1 20 3 38c2 19 2 34 1 46s-5 23 -12 33c-8 3 -29 -1 -33 0c-3 -4 -10 -7 -19 -10c-4 -3 -13 -17 -21 -21c-24 -37 -26 -103 -22 -151c2 -23 0 -49 -5 -76c3 -43 2 -73 -2 -90c3 -11 3 -27 0 -48
s-9 -37 -17 -48c-3 1 -6 1 -8 -2c-8 -1 -14 4 -18 15c-3 10 -2 15 3 14c-1 3 -2 4 -4 5l-2 1c-1 4 4 6 4 7c-3 1 -4 12 -4 34s1 36 2 43l4 -2c0 2 -1 5 -2 8c-3 3 -1 4 4 4c-7 19 -5 27 -1 51c2 13 3 22 3 29c-1 31 -1 51 2 60c-3 3 -4 21 -4 52c0 -1 1 -1 4 -2
c0 24 1 78 -4 98c-11 23 -28 32 -50 27c-20 -5 -34 -21 -42 -48v4c-4 0 -3 -10 -8 -8c6 -12 -5 -23 -8 -35c0 -3 1 -12 0 -15l-3 2c-2 -7 -3 -19 -4 -37c0 -17 -1 -30 -2 -38c-1 -4 -3 -7 -6 -8l6 -2c-5 -116 -8 -175 -8 -178c-3 -49 -11 -76 -23 -81c-28 3 -15 42 -15 56
c0 20 -7 67 0 96c-1 3 -3 10 -4 19c-3 27 -1 39 4 37c-5 14 -6 27 -4 40c1 3 0 12 -1 27s-2 27 -1 34c1 8 1 13 0 16c1 -1 3 -2 4 -2c-8 7 1 16 2 27c0 2 -1 10 -3 25c-1 15 -1 25 1 28l4 -2c0 1 -1 3 -4 4c0 32 6 51 19 56l-3 3c-1 3 4 5 15 6c3 1 4 1 3 1
c19 -4 21 -22 18 -66z" />
    <glyph glyph-name="n" unicode="n" horiz-adv-x="279" 
d="M249 475c0 -1 -6 -2 -8 -2c0 -1 7 -2 6 -5c-2 -32 -2 -75 -7 -87c-1 -2 0 -4 2 -5l3 -1c-1 -1 -1 -3 -1 -6c0 -5 -1 -8 -4 -7c4 -3 4 -11 0 -25c-1 -4 -3 -6 -4 -6c3 -7 4 -14 5 -21c-1 0 -2 -2 -2 -5l-3 -4c-5 -72 -9 -114 -12 -127c-2 -11 -3 -18 -2 -23
c2 -9 2 -31 0 -66c-1 -34 -2 -56 -2 -65c4 -16 4 -33 -15 -34l3 4c-3 -1 -4 -3 -5 -6c-10 4 -18 10 -23 17c-11 16 -16 45 -19 52c-1 1 1 3 4 4c-1 1 -4 1 -4 0c-51 153 -85 257 -100 311c-1 -2 -2 -10 -1 -23s0 -20 -5 -21c3 -30 3 -70 2 -121s-4 -90 -8 -118
c8 -23 0 -57 2 -86c-7 -2 -12 -3 -15 -2c-3 5 -5 8 -6 8c1 23 3 72 4 145s4 125 8 156c-7 2 -4 8 -2 12l2 2c0 1 -4 6 -4 7c0 21 1 37 2 48c1 3 2 3 4 2c0 8 -6 33 -6 44s1 27 3 50s3 41 3 54h4c3 1 5 1 5 2c8 -5 14 -15 18 -29c8 -27 14 -69 19 -84l25 -82l23 -74
c2 -7 8 -25 19 -54s18 -52 21 -69c5 -5 9 -20 14 -25c0 -2 -1 -3 -4 -3c5 -3 6 -16 11 -20c3 1 4 5 4 12c2 6 2 18 1 36c-1 19 0 31 1 37c1 1 2 2 4 2c-7 9 -6 16 2 19c-3 33 1 69 11 108c-4 1 -5 10 -2 29s4 31 4 34c0 1 1 1 4 0c1 -1 3 -1 4 0s0 2 -2 3c-3 0 -4 2 -4 3
c-3 6 -2 13 1 22c1 3 2 4 3 3c-1 3 -3 4 -4 2c-3 13 -1 34 4 65c1 0 6 -4 10 -4c-3 3 -7 5 -12 6c1 7 -3 35 0 50c25 16 19 -28 21 -39z" />
    <glyph glyph-name="o" unicode="o" horiz-adv-x="302" 
d="M200 515c3 -1 9 -7 12 -8c14 -4 24 -9 29 -16c8 -11 14 -22 19 -34c9 -24 10 -32 15 -71c8 -48 10 -107 5 -176c-4 -69 -14 -125 -30 -168c-5 -5 -22 -26 -29 -33c-14 -11 -31 -23 -55 -21c-117 12 -134 154 -123 240c-8 88 11 169 56 244h-6c29 37 65 52 107 43z
M143 484c-37 -29 -66 -92 -67 -156c-3 -63 2 -122 13 -179c11 -56 30 -97 56 -122l38 -14c52 34 76 103 71 208c-5 111 -21 193 -46 244c-18 15 -40 21 -65 19z" />
    <glyph glyph-name="p" unicode="p" horiz-adv-x="327" 
d="M102 -253c-7 -1 -12 -2 -15 -2c-4 0 -21 5 -25 5l-17 54c-3 11 -4 31 3 48c-11 6 -5 38 -5 48c0 7 -1 17 -3 30c-4 25 -4 29 1 49c-5 16 -5 42 2 78c-8 10 0 24 0 36c0 13 -2 39 -6 78s-5 70 -4 93c1 11 2 32 5 63s4 53 4 66c1 13 0 30 -1 52c-3 11 -2 18 3 23
c1 -3 3 -4 6 -4c-1 3 -7 6 -7 7c5 13 15 18 30 16c8 -10 12 -28 12 -55c0 -26 1 -43 4 -51c21 55 64 100 111 100c11 -5 24 -10 40 -13c11 -7 20 -17 27 -31c7 -13 13 -32 19 -57l10 -41c4 -58 3 -104 -2 -138c-9 -56 -16 -89 -19 -98c-12 -35 -39 -73 -63 -81
c-26 -9 -61 5 -104 41c-1 -12 -1 -20 -1 -24s1 -13 3 -26l4 -26c1 -20 2 -47 1 -82c0 -35 0 -63 1 -82c0 -35 -5 -60 -14 -76zM190 49c23 8 38 23 47 44c5 11 8 21 11 30c5 19 11 52 15 64h6c-5 5 -5 13 2 12l-6 6c11 51 9 116 -5 197c-9 5 -19 28 -22 31
c-18 11 -38 11 -61 2c1 -3 2 -5 2 -6c-24 -15 -41 -37 -53 -70l-12 -43c-3 -11 -6 -28 -10 -51c-3 -23 -6 -38 -8 -47l6 -41l6 -41c6 -28 20 -72 50 -87c3 0 27 3 32 0z" />
    <glyph glyph-name="q" unicode="q" horiz-adv-x="332" 
d="M317 -88c-5 -5 -17 -39 -30 -44c0 -3 1 -4 4 -1c-5 -24 -14 -44 -27 -61c-4 2 -6 2 -6 0c-9 6 -16 14 -20 25c-8 20 -9 60 -13 75c1 1 3 3 6 4c0 3 -1 4 -3 3s-3 0 -3 1c3 17 -4 56 -4 61s4 15 4 19s-1 23 -3 56c-1 34 -1 53 1 58c3 14 3 26 2 36
c-25 -45 -55 -67 -90 -67c-15 -1 -36 10 -63 31c-4 8 -5 15 -12 15c-17 64 -21 131 -11 201c4 39 12 70 23 91c1 3 8 6 9 9v10c13 19 22 31 27 36c11 9 28 17 35 10c4 0 -1 8 6 8c53 5 82 -5 105 -37c4 19 7 62 42 50c10 -17 2 -55 4 -73c1 -5 1 -12 0 -19
c-1 -4 -2 -16 -4 -36l-5 -41c-3 -9 -3 -39 -4 -50c-3 1 -4 3 -4 6c-4 -4 4 -6 4 -12c-15 -145 -21 -282 -18 -412c5 5 11 16 18 31s13 25 19 30c5 -1 7 -12 11 -13zM229 240c0 12 1 35 4 70s3 59 2 72c-5 51 -34 91 -77 83c-36 -8 -64 -40 -73 -77c-7 -30 -12 -63 -14 -100
s1 -72 9 -106c9 -33 23 -54 44 -61c13 -1 17 -6 28 1l10 8l19 20c3 1 14 7 17 11c8 9 16 22 23 41c5 12 8 25 8 38z" />
    <glyph glyph-name="r" unicode="r" horiz-adv-x="256" 
d="M59 486c45 4 90 -19 110 -59c13 -27 19 -54 19 -81c-1 -59 -38 -119 -85 -148c3 -6 12 -18 25 -37c13 -18 22 -32 25 -42c12 -5 24 -22 25 -34c7 -5 15 -16 24 -33s17 -27 24 -32c2 -12 1 -21 -2 -27c-9 -1 -10 4 -15 4l2 2c-10 2 -22 13 -37 34c-14 21 -23 34 -28 37
c-1 5 -1 8 0 9h-8c-10 15 -23 33 -40 54c-3 -9 -5 -29 -6 -62c-1 -32 -7 -53 -16 -63c-44 -3 -34 53 -30 71c-12 30 -6 65 -8 106c0 4 -1 13 -3 26c-3 27 -2 44 3 52c-4 9 -4 17 0 22c-5 21 -6 41 -2 61c4 2 -4 4 -4 8c1 7 1 23 1 46c1 47 6 67 26 86zM98 440h-4
c0 -19 1 -53 3 -103c2 -49 3 -88 2 -116c7 2 13 5 18 10c11 11 20 22 25 31c34 50 20 162 -44 178z" />
    <glyph glyph-name="s" unicode="s" horiz-adv-x="202" 
d="M183 507c-2 -3 -2 -6 0 -8c-3 -5 -22 -16 -23 -27c-22 -15 -35 -42 -40 -82s-2 -73 7 -98c24 -46 39 -93 46 -140c8 -61 3 -106 -15 -136c-8 -4 -20 -19 -25 -20l-4 4c-3 0 -16 -11 -19 2c-18 -5 -35 4 -52 26c-17 23 -21 45 -14 68c5 -1 10 2 14 2c3 -3 5 -11 6 -24
s4 -21 7 -24h-4l18 -23c63 -25 60 61 59 104c-11 15 -15 26 -13 34c-15 27 -28 56 -39 89c-6 1 -8 7 -5 19c0 -1 0 -1 -1 -1l-1 -2c-3 11 -6 21 -10 28c0 1 1 1 3 1c1 1 2 1 3 1c0 3 -8 0 -8 4c2 9 4 14 4 24c-1 0 -2 -2 -2 -7c-3 4 -4 24 0 29c-3 39 6 72 27 98
c3 4 16 11 19 15c5 5 19 25 27 33s22 15 35 11z" />
    <glyph glyph-name="t" unicode="t" horiz-adv-x="246" 
d="M197 140c3 1 9 1 19 0c0 -1 3 -29 0 -40c-1 -5 -3 -9 -6 -12c10 -17 3 -44 -21 -83c-3 -3 -13 -6 -30 -11c-4 -2 -8 -6 -10 -6c-34 3 -50 16 -61 51l-8 29l-6 31c1 6 3 9 4 10c-8 6 -6 61 -6 71c-2 42 -2 96 0 163c-8 3 -35 3 -40 10c-1 7 6 13 6 17c4 -1 14 -2 30 -2
c3 19 6 47 7 84c2 37 4 65 7 85c13 11 20 18 23 19l15 -3c8 -11 9 -41 4 -90s-6 -80 -4 -91c18 -9 87 14 83 -15c-2 -20 -58 -5 -81 -10c-4 -28 -5 -56 -2 -84c0 -1 -2 -2 -6 -2c5 -7 7 -18 8 -33s1 -25 -2 -29c1 -10 3 -33 5 -69c3 -35 6 -62 11 -79c8 -29 33 -40 48 -15
c7 15 11 49 13 104z" />
    <glyph glyph-name="u" unicode="u" 
d="M111 25c8 -4 25 -22 38 -25c33 -7 49 12 62 55c7 22 11 35 13 39c0 1 -4 1 -4 4c14 41 20 93 19 157c0 4 0 6 -1 6c1 5 3 6 5 4c-2 16 -2 40 -1 73s1 58 -1 76c1 1 3 1 6 0c-6 5 -8 13 -6 25c2 13 8 18 18 16c8 -8 2 -18 2 -27c-1 -19 -1 -52 -2 -99
c0 -47 -1 -82 -2 -105c-1 -8 2 -43 -6 -48c2 -14 0 -35 -7 -63s-10 -46 -10 -54l-2 -2c-1 -1 -3 -2 -4 -2c1 -25 -10 -46 -33 -64c-23 -19 -48 -21 -75 -7c-1 0 -1 -1 -1 -4c-5 2 -6 4 -4 6c-24 0 -41 14 -56 42l-12 20c0 3 1 5 4 5c-6 6 -11 20 -14 43s-3 40 -1 53
c-3 24 -5 48 -4 71c0 4 1 5 4 2c1 5 -4 22 -4 27c1 17 2 41 5 72s4 55 5 70c1 31 4 54 9 69c6 3 14 5 25 8c20 -17 20 -49 13 -93c-3 -21 -4 -37 -3 -47c1 -20 -2 -40 -8 -60c4 -9 5 -35 3 -79c-1 -43 0 -73 3 -90c1 -5 7 -19 8 -23c0 -4 -3 -19 3 -17c2 -8 9 -19 20 -34h-4
z" />
    <glyph glyph-name="v" unicode="v" horiz-adv-x="378" 
d="M168 51c11 4 7 16 11 23c7 15 25 54 37 82c6 15 11 29 15 44c4 3 8 14 13 31c5 18 13 28 22 31c-1 4 -5 -2 -8 2c7 23 18 55 34 96c17 41 28 69 33 86c11 5 19 4 23 -4c-11 -25 -19 -41 -25 -50c-2 -11 -10 -33 -23 -67l-28 -76c-12 -35 -24 -67 -35 -94s-22 -52 -34 -74
c-2 -13 -12 -45 -29 -96c-21 -3 -37 17 -41 29l-7 27c-1 8 -16 34 -19 46c-3 8 -6 22 -11 41s-8 33 -11 40c0 17 -2 27 -5 30c-1 13 -4 30 -11 53s-10 38 -9 47c-1 0 -3 3 -5 9c-4 16 -4 23 0 22c-15 35 -22 64 -20 88c0 1 -2 2 -5 2c3 6 0 16 9 16c-3 4 -4 7 -4 9h6
c-1 2 -1 4 0 5c1 10 8 14 21 12c15 -1 23 -8 25 -21c3 -26 9 -55 20 -88c0 -5 -1 -7 -4 -8c0 -1 1 -1 2 -1c1 -1 2 -1 3 -1c3 -24 10 -60 20 -107c11 -47 18 -80 21 -100l6 -25c5 -4 1 -22 1 -25c4 -11 14 -27 12 -34z" />
    <glyph glyph-name="w" unicode="w" horiz-adv-x="403" 
d="M386 454c1 -11 -11 -30 -14 -41c-2 -12 -1 -41 -9 -49c-1 -1 -4 2 -4 3c0 -1 -1 -20 -4 -28l-17 -75c-3 -13 -11 -37 -14 -52c-3 -19 -7 -37 -11 -52c-1 -5 -14 -35 -18 -48c-3 -12 -8 -46 -11 -58c-5 -25 -7 -42 -6 -51c-3 -1 -5 -3 -6 -6c-12 -1 -23 12 -30 13
c-1 9 -5 21 -14 37c-8 17 -11 30 -9 40c-12 -5 -9 19 -12 25c-6 14 -21 40 -19 56c-9 -20 -18 -49 -26 -88c-7 -39 -15 -67 -24 -85c-15 -1 -25 3 -30 15c-8 12 -9 39 -12 52c-15 74 -26 132 -33 175l2 2c1 1 3 2 4 2c0 3 -8 3 -8 4c0 6 -2 24 -5 55s-4 52 -2 62
c-1 -3 -3 -2 -6 5c-4 13 -3 20 2 22c-10 31 -9 57 2 78c9 3 20 0 34 -7c1 -11 4 -30 9 -57s8 -48 10 -64c5 -31 9 -79 8 -108c7 -7 10 -34 6 -50c1 -1 3 -3 6 -4c1 -13 3 -31 7 -55c5 -24 7 -42 6 -54c7 0 5 18 12 19c-5 9 4 34 3 46c4 1 5 -4 6 -4c-2 9 -2 15 -1 19
c3 8 14 32 17 45l4 -3c-1 1 -3 5 -3 10c1 0 3 5 7 16c5 11 12 16 22 15c5 -1 10 -7 14 -10c4 -21 12 -50 23 -87c12 -37 20 -66 23 -87c2 0 4 2 5 6c1 3 0 5 -3 5c1 1 2 13 9 12c-3 6 -4 17 -1 32s8 24 13 27c-5 7 0 29 9 27c0 1 -1 2 -2 1c-1 0 -2 0 -3 1l2 12
c1 8 4 12 9 13c-5 3 -5 9 -1 20s6 18 5 22c3 0 7 2 8 2c-1 2 -2 2 -3 1c-2 -1 -4 -2 -5 -1c5 9 4 33 12 33c1 25 6 41 15 50c0 1 -6 1 -6 4c3 15 13 48 17 65c3 0 4 -1 4 -2c0 7 6 27 6 40c3 1 4 1 4 -2c-1 8 2 22 8 43c6 2 12 1 19 -4z" />
    <glyph glyph-name="x" unicode="x" horiz-adv-x="313" 
d="M218 171c1 -1 1 -1 2 0h4c1 -8 6 -19 13 -32s11 -22 12 -29c2 4 4 3 6 -4c1 -8 0 -4 12 -27c13 -23 18 -38 15 -57c-27 -13 -48 16 -71 63c-11 23 -18 38 -23 44c0 5 0 7 1 8c-6 8 -13 21 -22 40s-15 31 -20 37l-32 -73c-17 -39 -32 -69 -45 -89c-1 -17 -6 -27 -15 -30
c1 -1 2 -3 2 -6c2 -11 -2 -21 -12 -30c-9 -9 -14 -5 -15 13c3 3 5 10 8 23c1 -3 3 -3 6 0l3 4c0 1 -2 1 -5 1c8 13 12 37 25 45c1 11 6 26 17 45s16 34 17 45c5 7 14 27 17 31c1 1 4 8 9 23l9 26c0 13 -17 32 -14 45c-12 12 -26 39 -23 44c-25 38 -36 71 -32 98
c-2 0 -3 -1 -4 -2l-10 25c-5 14 -7 24 -6 30c-1 1 -4 1 -5 4c3 6 0 13 5 16c1 -1 2 -3 2 -6c1 14 3 24 6 29c14 2 17 -1 29 -4c0 -1 14 -22 17 -33c6 -21 23 -68 52 -140c5 -1 5 -22 12 -25c23 55 46 112 67 169c5 3 16 -4 19 -4c-4 -15 -17 -43 -21 -59h-6
c-4 -18 -13 -43 -26 -74s-21 -54 -24 -68c4 -6 10 -22 19 -47s16 -41 23 -49c-5 -1 7 -15 2 -20z" />
    <glyph glyph-name="y" unicode="y" horiz-adv-x="354" 
d="M92 502c4 -6 6 -16 6 -29s-1 -28 -3 -47s-3 -30 -3 -34l-4 -67c0 -15 9 -26 0 -38c1 -1 1 -2 2 -1s3 1 4 1c-3 -35 4 -69 21 -104c33 -9 65 8 96 50c1 24 6 59 15 106s14 84 15 109c5 16 8 41 21 52c7 1 13 -1 20 -4c2 -18 1 -41 -2 -68s-8 -59 -15 -98
c-7 -38 -11 -63 -12 -74c-2 -16 -10 -50 -12 -56c-4 -8 0 -26 -9 -30c4 -1 5 -8 2 -20s-4 -21 -4 -26c7 7 16 17 28 32c24 31 44 53 64 65c1 4 5 6 13 6c1 -1 2 -7 2 -17c-20 -16 -46 -44 -61 -61c-7 -8 -17 -21 -30 -38l-28 -35c4 -13 -1 -35 -9 -43c5 -9 2 -32 -6 -48
c2 -4 -2 -13 2 -13c-4 -7 -7 -17 -8 -31s-3 -22 -7 -25c7 -8 -9 -28 -8 -40l-15 -23c-16 -25 -28 -36 -45 -39v-7c-8 -8 -25 -2 -36 -2c-4 0 -16 -5 -19 -2c-18 8 -23 30 -14 67c3 -1 5 -2 6 -2l-2 2c-1 1 -2 3 -2 4c4 13 12 35 23 35c0 15 5 25 16 32c15 29 29 49 42 60
c-6 -1 -3 7 9 22l2 3c5 5 9 9 10 11c3 5 18 18 21 25c4 10 6 27 6 50c1 3 3 2 7 -2c-4 20 10 48 10 79c-7 -3 -16 -19 -27 -19c-6 -11 -19 -17 -38 -20c-19 -2 -36 1 -50 8c-22 21 -35 41 -40 62c1 10 -2 36 -7 78s-6 71 -3 87l6 46c3 27 7 48 11 63c16 3 19 12 39 8z
M163 14c-4 -4 -17 -26 -25 -31c-5 -13 -14 -29 -27 -47c-25 -37 -44 -70 -41 -110c38 -2 63 20 75 65c4 16 8 38 12 67l9 54c0 1 -1 2 -3 2z" />
    <glyph glyph-name="z" unicode="z" horiz-adv-x="303" 
d="M71 40c34 -3 58 -3 73 0c1 0 2 -1 3 -2l1 -2c3 0 6 5 7 5c8 3 24 3 31 2h2l2 -3c8 0 10 10 17 1c6 5 13 7 20 5c19 -4 21 -23 -8 -22c-12 1 -34 -1 -65 -4s-51 -5 -60 -5c-6 0 -17 0 -33 -1c-16 0 -26 0 -30 -1c-7 12 -10 21 -8 28c3 3 5 3 8 0l-2 3c-1 2 -1 3 -2 3
c4 4 1 9 7 6c3 13 12 32 27 57s25 46 29 62h6c-4 6 3 19 9 15c1 13 8 29 19 50c12 21 19 35 22 44l3 1c1 1 3 2 4 1c0 11 4 20 12 25c-3 3 2 10 -2 10c3 3 7 10 12 23s10 20 15 21c-2 10 5 16 8 25l2 -4c1 9 6 21 14 38c9 17 14 30 16 37c-11 2 -33 2 -64 -1
c-31 -2 -50 -1 -55 3c0 5 4 14 4 17c17 0 44 1 79 3c36 3 63 4 80 3c3 -7 7 -13 12 -17c0 -4 -6 -23 -17 -56c-4 -9 -1 -21 -12 -21c6 -10 -15 -39 -15 -44c-1 -3 -6 -20 -10 -27c-1 0 -5 -2 -6 -2c-1 -4 -6 -20 -9 -27c-5 -10 -16 -27 -31 -52l-33 -55
c-11 -20 -23 -53 -30 -62c-1 -1 -2 -1 -5 0h-1c-3 -4 -8 -20 -12 -25c-1 -1 -2 -1 -4 0h-1c1 -8 -4 -18 -14 -23c-4 -7 -10 -27 -15 -32z" />
    <glyph glyph-name="braceleft" unicode="{" horiz-adv-x="240" 
d="M145 35c3 -22 25 -60 65 -113l-9 -12c-13 5 -43 37 -54 48c-41 39 -68 79 -81 122c-12 43 -11 99 4 170c-5 5 -11 24 -4 29c-9 12 -27 46 -36 58c15 15 22 35 23 60s-1 53 -6 82c-4 29 -5 51 -2 65c-4 24 -5 38 -1 59l4 17c1 8 9 35 10 43c3 3 8 -1 8 4l-1 1l-1 -1
c-1 8 14 28 14 29c4 4 16 36 25 44c1 1 3 -1 3 -2c1 1 1 2 0 3c-1 0 -1 0 -1 1c1 9 11 21 29 36s34 24 47 27c6 -9 -3 -23 -9 -21c-9 -11 -19 -27 -29 -49l-17 -38c-2 -9 -6 -23 -12 -42c-6 -18 -10 -32 -11 -42h-6c2 -11 0 -30 -5 -58s-8 -46 -7 -53c2 -1 2 -2 -1 -4
c-1 -1 -2 -1 -2 -2h1c0 -1 1 -12 2 -32c2 -19 3 -32 2 -39c0 -7 -1 -17 -2 -32c-3 -28 -12 -44 -28 -56c20 -29 33 -58 40 -89c1 -4 7 -30 8 -38c0 -3 -4 -3 -4 -6c1 1 2 1 4 0c-1 -3 -2 -3 -4 -2c-1 -4 5 -8 5 -9v-16c5 -30 23 -105 29 -130c4 -1 9 -10 4 -14c3 1 5 2 6 2z
" />
    <glyph glyph-name="bar" unicode="|" horiz-adv-x="122" 
d="M81 738c22 -14 9 -35 9 -68c0 -8 4 -38 3 -53c0 -7 -1 -14 -3 -20c-3 -5 -5 -25 -5 -59c1 -33 1 -53 0 -58c0 -3 -2 -35 -6 -46c1 -22 2 -57 1 -106c0 -48 0 -81 1 -99c0 -11 -2 -36 -2 -44c0 -49 2 -117 6 -204c0 -4 -2 -6 -6 -6c8 -15 4 -45 -8 -53c-8 -3 -20 5 -21 1
c-7 4 -11 14 -11 29v6c-3 101 -3 272 0 511c-4 -1 -6 26 -6 46c-1 49 0 97 4 144c1 12 5 43 5 54c3 0 6 -3 10 -2c0 1 -6 1 -6 4c10 14 13 22 35 23z" />
    <glyph glyph-name="braceright" unicode="}" horiz-adv-x="240" 
d="M174 279c7 -5 1 -24 -4 -29c15 -71 16 -127 3 -170c-12 -43 -39 -83 -80 -122c-11 -11 -41 -43 -54 -48c-3 3 -9 6 -9 12c40 53 62 91 65 113c1 0 3 -1 6 -2c-5 4 0 13 4 14c6 25 24 100 29 130v16c0 1 6 5 5 9h-1c-1 -1 -2 -2 -2 -1l-1 3c1 1 3 1 4 0c0 3 -4 3 -4 6
c1 8 7 34 8 38c7 31 20 60 40 89c-16 12 -25 28 -28 56l-3 32c0 7 1 20 2 39c2 20 3 31 3 32h1c0 1 -1 1 -2 2c-3 2 -4 3 -1 4c1 7 -2 25 -7 53s-7 47 -5 58h-6c-1 10 -5 24 -11 42c-6 19 -10 33 -12 42l-18 38c-9 22 -19 38 -28 49c-6 -2 -15 12 -9 21c13 -3 29 -12 47 -27
s28 -27 29 -36c0 -1 -4 -1 -1 -4c0 1 2 3 3 2c9 -8 21 -40 25 -44c0 -1 15 -21 14 -29h-2c1 -5 4 -1 8 -4l5 -22c5 -20 5 -22 8 -38c5 -21 4 -35 0 -59c3 -14 2 -36 -3 -65c-8 -59 -11 -113 18 -142c-9 -12 -27 -46 -36 -58z" />
    <glyph glyph-name="asciitilde" unicode="~" horiz-adv-x="446" 
d="M411 312c0 -1 3 -9 6 -10c-52 -76 -105 -101 -159 -76c-13 -1 -28 3 -45 11c-17 9 -28 14 -34 15c-4 1 -7 10 -10 10c-33 12 -72 4 -101 -15c-9 -6 -19 -21 -33 -21c-11 14 3 22 9 28c3 3 5 9 6 10c1 0 7 1 8 2c13 10 36 37 50 42c2 -1 2 -2 -1 -3c22 13 45 18 68 15
c15 -3 25 -7 29 -14c9 -4 23 -9 42 -16s33 -12 42 -16c9 2 57 2 77 9c9 3 30 28 46 29z" />
    <glyph glyph-name="exclamdown" unicode="&#xa1;" horiz-adv-x="145" 
d="M74 579c19 3 32 -6 39 -25c8 -19 9 -38 3 -56c-15 -14 -29 -21 -42 -21c-12 2 -22 11 -31 27s-9 29 0 40c-3 0 -4 1 -4 4c13 11 20 29 35 31zM91 -51c0 -9 1 -26 2 -50c3 -49 0 -76 -13 -92h-27c-9 11 -14 30 -15 45v47c1 -1 2 -1 3 0c-3 -1 -5 5 -6 17c-1 11 0 18 1 19
c1 2 3 2 4 0c1 1 1 2 1 2c-5 7 -6 8 -2 16c3 11 -4 51 4 57c-1 7 -1 20 -1 40c1 21 0 34 -1 41c3 3 3 11 1 24s0 21 5 26h-6c0 7 3 11 8 13c-3 0 -5 1 -8 2v14c3 3 8 -1 8 2c-3 2 -5 2 -8 0c1 9 1 41 4 49c-3 78 4 129 23 152c14 -4 18 -19 21 -29c-3 -3 -9 5 -9 -2
c11 2 3 -11 9 -5c1 -8 1 -12 -2 -12h-3c9 -3 8 -32 3 -44c5 -17 5 -29 0 -38c3 -15 4 -36 3 -62c0 -26 -1 -48 -4 -65c5 -26 4 -44 -2 -54c3 -4 5 -7 5 -8c-1 -11 -1 -28 0 -52c2 -23 3 -41 2 -53z" />
    <glyph glyph-name="cent" unicode="&#xa2;" horiz-adv-x="252" 
d="M207 45c13 -9 13 -21 -2 -34s-29 -20 -42 -20c0 -7 -4 -33 0 -42c-3 1 -5 2 -6 2c1 -1 3 -12 4 -33c0 -1 -1 -1 -2 -2h-2c0 -24 -1 -38 -4 -42c-3 -1 -6 3 -13 0c-2 4 -5 17 -10 38c1 0 2 0 4 1l4 1l-3 3c0 6 -5 11 -1 15c-4 3 -5 12 -4 29c2 17 1 26 -2 28
c-1 1 -3 1 -6 0c-3 0 -5 0 -5 1s1 2 2 3c-39 7 -59 20 -60 39c0 1 -1 2 -2 1s-2 -2 -6 -1c-1 11 -16 41 -13 57c-6 6 -4 16 -6 23c6 1 9 4 10 10c-1 3 -7 -11 -12 -4c3 5 3 9 0 11c3 52 11 98 23 137c3 16 13 47 20 48c-3 12 12 35 11 42c1 0 5 2 8 2c1 13 7 27 20 44
s19 35 18 52c1 1 5 1 6 4c-1 1 -1 2 -2 1c-2 -1 -3 -1 -4 -1c1 7 1 20 0 39s1 30 4 32c0 4 -5 6 -6 7c7 11 -2 58 25 47c1 -4 -4 -5 -4 -8c1 -4 3 -3 6 4c6 -8 8 -26 5 -55s-3 -47 -1 -55c5 2 11 8 19 17c17 19 23 25 44 18c0 -1 0 -1 -1 -2c-11 -21 -19 -30 -24 -25
c-2 -1 -2 -2 -1 -3c1 -2 2 -4 1 -5c-15 -16 -28 -34 -38 -53c1 -32 2 -57 1 -76l-3 -76c-1 -32 -2 -54 -2 -67c7 -5 -1 -21 4 -29c-1 -1 -2 -2 -3 -1s-2 1 -3 1c1 -3 3 -4 6 -4c-1 -13 -1 -33 2 -59c3 -25 2 -41 -2 -47l2 -1l2 -1c0 -1 -1 -1 -4 -1c2 -3 3 -10 3 -22
c1 -12 2 -19 3 -21c15 0 34 25 42 33zM140 74v11c-3 0 -6 -3 -10 -2c3 1 3 6 2 9c0 4 0 4 4 3c-1 1 -2 6 -4 15c3 -2 5 -1 6 2c-6 3 -9 11 -10 24c0 14 3 21 8 22c-5 1 -7 3 -8 4c4 7 -4 30 8 37c-3 3 -6 -2 -6 1c1 5 2 15 1 31c-1 17 -1 28 -1 35c5 -5 7 -5 8 0
c-5 0 -7 1 -8 4c-4 27 -3 69 -4 84c-3 -4 -7 -13 -12 -28c-4 -14 -8 -23 -13 -28c1 -7 -2 -20 -7 -37s-7 -28 -8 -34h-2c-2 -9 -6 -48 -11 -117c0 1 1 2 3 4c1 -31 1 -48 0 -52c3 -1 8 1 8 -2c15 -29 31 -45 46 -46c1 7 2 20 1 39c0 19 2 29 7 30c1 -3 -1 -8 2 -9zM134 -84
l1 1z" />
    <glyph glyph-name="sterling" unicode="&#xa3;" horiz-adv-x="362" 
d="M233 34l22 -7c13 -3 21 -6 25 -8c17 -5 47 -19 53 -34c-1 -15 -26 -14 -29 -2c-6 1 -29 4 -68 11s-68 9 -88 8c-8 -4 -22 -7 -41 -9c-19 -3 -32 -6 -41 -10c-7 3 -7 7 -16 3c-1 1 -2 9 -5 12c23 21 40 64 45 89c3 13 5 31 8 54l6 43c-1 -1 -2 0 -3 2c-2 7 0 10 5 10
c-1 1 -2 2 -3 1s-2 -1 -3 -1c2 4 -2 11 4 9c-4 7 -7 33 0 46c0 3 -3 -1 -6 2c3 8 -2 15 6 18l-6 2c5 3 -1 24 0 28c2 4 -5 24 -5 33c-2 12 2 12 -4 25c-16 3 -61 -14 -58 13c1 2 4 3 7 2s4 -1 3 4c2 -1 16 1 42 4c-5 12 -9 32 -14 61c-4 29 -6 45 -7 47l-6 21c0 5 1 7 2 7
c-2 3 -3 11 -2 23s3 19 6 20c-5 3 -1 20 -2 28c1 1 3 1 6 0c-3 6 -2 15 4 27c-3 -1 -5 -2 -6 -2c1 10 4 17 11 21c0 1 -2 2 -5 2c43 88 113 132 209 133c-1 -5 4 -10 4 -14c4 1 3 5 -2 10c1 3 3 2 4 -3l1 -7c-3 -3 -12 -6 -25 -7s-21 -3 -24 -4c-27 -9 -52 -38 -75 -56
c-6 -16 -19 -37 -39 -63c1 -1 1 -1 2 -1c-36 -101 -41 -178 -15 -230c0 -1 -2 -1 -6 -1c6 -2 9 -6 10 -12c17 4 52 5 63 8c0 -1 -2 -3 -2 -4c8 3 13 5 14 6c2 -10 19 7 34 -8c0 -5 -9 -9 -9 -14c-28 2 -70 -6 -95 -9c0 -8 10 -28 6 -37c8 -15 14 -37 17 -67
c3 -17 1 -49 -5 -98c-3 -23 -6 -40 -8 -51c-4 -20 -17 -62 -36 -81l2 -1c1 -1 2 -3 1 -4c1 4 10 7 26 9c17 3 28 2 33 -1v2c-1 1 -2 2 -3 2c8 0 60 9 77 -3c3 -1 4 0 4 3z" />
    <glyph glyph-name="currency" unicode="&#xa4;" horiz-adv-x="363" 
d="M348 460c1 -4 1 -8 0 -13c-37 -24 -59 -37 -64 -40c26 -52 35 -91 27 -116c0 -1 0 -2 1 -4c1 -5 0 -8 -3 -9c1 -13 1 -23 0 -30c-1 -6 -4 -17 -10 -32s-10 -26 -11 -32c5 -11 31 -31 35 -39c1 -1 4 0 5 -3c0 -1 -2 -2 -7 -2c13 -1 18 -18 7 -23c-23 -3 -44 11 -63 40
c-6 -6 -18 -12 -29 -19c-15 -7 -35 -15 -55 -10c-8 1 -19 6 -32 14c-13 9 -21 14 -24 15c-14 0 -12 -26 -21 -23c-1 -15 -8 -28 -19 -39s-21 -11 -31 2c0 15 6 30 11 42c3 7 11 20 14 24l17 25l-13 22c-15 27 -19 41 -18 58c1 2 3 3 4 4c-1 10 -12 37 0 46c-4 7 -3 16 4 29
s10 21 10 25c0 15 -20 25 -29 37c0 1 1 1 4 1c-15 13 -16 22 -5 29s21 6 31 -1c5 -4 7 -9 8 -16c6 0 10 -9 16 -15c11 10 26 24 37 32c16 12 29 17 49 19c27 -3 50 -13 69 -28c11 5 31 21 40 26c11 7 33 13 45 4zM292 332c-2 3 -11 20 -27 52c-7 2 -18 10 -33 25
c0 -1 1 -3 2 -4l2 -2c-10 1 -18 4 -25 11c-7 -4 -6 3 -15 6c-21 5 -46 -8 -75 -38h-2c-2 -5 -11 -25 -13 -23c-15 -81 23 -158 92 -175c-2 -3 -2 -5 0 -8c8 5 27 6 32 2c38 21 60 52 66 92c1 -1 2 -2 5 -3l4 -1l-11 12c4 15 -5 45 -2 54zM296 274v-4c-1 1 -1 3 0 4z" />
    <glyph glyph-name="yen" unicode="&#xa5;" horiz-adv-x="446" 
d="M401 683c-2 -3 -3 -4 -4 -4c-2 -5 -7 -14 -16 -27c-8 -13 -14 -22 -17 -28l-16 -37c-6 -17 -10 -28 -13 -34c-10 -25 -16 -40 -19 -43h-2h-4c-1 -16 -11 -42 -30 -77s-26 -65 -23 -88c7 -2 18 -2 31 1s22 4 26 3l-2 -4c5 1 38 14 37 -9c-4 -4 -7 -7 -8 -10
c-6 1 -20 1 -43 0s-36 -2 -39 -2c-7 -14 -2 -49 -2 -61h30c19 0 34 2 46 5c4 -4 14 -7 14 -15c-6 -15 -15 -3 -27 -6l-2 -4l-8 1c-12 0 -25 1 -30 1c-3 0 -14 -6 -21 -3c-4 -35 -5 -68 -3 -97s3 -61 2 -95s-5 -61 -13 -81c-17 -8 -27 -1 -30 20s-2 39 3 55c-3 -1 -4 1 -4 4
c0 2 0 6 1 12l1 13c1 29 0 79 -2 149c0 8 0 15 -1 20l-32 -6c-15 -3 -24 -4 -29 -4s-14 1 -28 4c3 10 5 16 6 17c10 0 36 3 79 8c1 9 1 29 0 59c-10 0 -22 -1 -36 -2c-13 -1 -22 -1 -27 -2c-5 0 -13 1 -26 2c1 3 0 7 -3 12c0 9 12 4 15 4c30 5 45 6 44 1c4 9 29 5 37 8
c1 18 3 30 5 35c-5 10 -17 26 -36 49s-30 38 -33 47c-12 8 -30 31 -31 46c-10 0 -18 15 -23 26c-4 12 -13 16 -9 24c-7 7 -16 24 -21 31c1 1 4 0 5 3c-12 4 -17 30 -26 35c-1 4 5 7 5 10c-3 2 -4 2 -4 -1c0 -2 -1 -3 -3 -3c0 1 -1 4 -2 7s0 5 2 6c-7 8 -11 22 -12 42
c16 12 41 6 52 -7c10 -14 24 -39 41 -74s27 -54 30 -59l45 -76c13 -20 30 -54 39 -79c3 1 4 1 4 0c5 0 9 15 14 11c5 17 15 42 30 75c16 33 26 58 31 75c1 1 3 1 6 0c-4 9 11 24 10 33c11 7 14 35 26 42c4 24 16 38 29 52c-6 4 -1 15 8 15c1 4 -1 6 -4 6c5 12 20 16 25 4
c0 -11 -15 -24 -15 -35z" />
    <glyph glyph-name="brokenbar" unicode="&#xa6;" horiz-adv-x="141" 
d="M76 767c3 -3 8 -18 15 -21l5 -82c3 -43 4 -71 4 -86c0 -14 -2 -41 -5 -80c-5 -26 -8 -54 -10 -84c-5 -1 -9 -10 -13 -10c-25 6 -32 28 -34 48c-1 12 -1 37 -1 44s-1 24 -3 51c-1 27 -2 48 -2 63c0 25 -3 69 0 84c1 7 8 9 4 21c0 11 0 23 5 31c4 1 8 5 13 12l8 9h14z
M39 176c-4 28 -5 55 -2 88c4 33 23 50 52 38c11 -15 18 -48 19 -99c0 -5 0 -18 1 -39s2 -36 2 -45c0 -17 -2 -54 -7 -82c-2 -9 -5 -49 -13 -57c-4 -4 -9 -51 -33 -42c-10 3 -16 24 -19 63v175z" />
    <glyph glyph-name="section" unicode="&#xa7;" horiz-adv-x="268" 
d="M153 710c9 3 24 1 46 -5c9 -3 13 -7 12 -10c2 -4 3 4 9 0c-1 -1 -3 -3 -6 -4c0 -4 5 2 8 0l7 -21c8 -23 10 -31 5 -52c-13 6 -20 23 -20 52c0 1 0 2 -1 1c-2 -1 -3 -1 -4 -1c1 5 -6 10 -2 11c-23 10 -42 8 -58 -5c-31 -27 -32 -80 -21 -125c3 -9 22 -32 25 -41
c4 -11 2 -23 11 -26c0 -5 0 -8 -1 -8c1 -1 2 -3 5 -4c8 -33 14 -60 17 -81c4 -21 5 -45 3 -74s-9 -53 -22 -73c0 -1 3 -11 10 -29s10 -32 10 -41l-4 -3c0 -3 6 -9 6 -12s-5 -15 -4 -19c0 -4 9 -23 -2 -25c0 -1 2 -2 6 -2c-11 -99 -48 -149 -110 -150c3 2 1 4 -5 6h-6
c-1 0 -1 2 0 6c-15 -1 -24 22 -29 25c0 1 4 1 4 4c-3 2 -6 6 -8 12c-3 12 -4 38 -4 41c9 3 16 3 21 0c-2 -5 5 -23 -4 -23c3 -4 5 -26 14 -34c-3 0 -7 3 -8 4c7 -7 23 -18 27 -22c39 6 59 31 66 60c3 11 5 21 6 29c3 16 4 46 5 55c-7 17 -9 30 -4 37c-3 -1 -5 -2 -6 -2
c-1 13 -10 33 -11 48c-5 8 -13 22 -24 43c-10 21 -17 35 -22 43c4 7 -10 24 -2 43c0 1 -1 1 -2 0h-4c3 8 -4 29 -4 38v29c1 16 1 28 2 36s4 19 11 33l12 25c-23 35 -28 99 -8 150c13 27 42 57 58 61zM115 482c-19 -37 -23 -91 -4 -140c-3 2 -5 1 -6 -2c11 1 20 -15 13 -20
c6 -4 12 -13 19 -26s13 -21 18 -25c7 12 11 34 11 65s1 51 2 59c-5 7 -13 21 -23 43c-10 23 -20 38 -30 46z" />
    <glyph glyph-name="dieresis" unicode="&#xa8;" horiz-adv-x="145" 
d="M45 813c13 1 25 -5 25 -16c1 -12 -12 -27 -23 -26c-7 1 -11 8 -13 20c-2 13 2 20 11 22zM85 794l2 7c4 9 11 11 21 6c11 -6 14 -15 7 -26c-13 -11 -27 -4 -30 13z" />
    <glyph glyph-name="copyright" unicode="&#xa9;" horiz-adv-x="414" 
d="M272 706c1 -3 2 -5 2 -6c34 -7 59 -30 76 -69s27 -81 29 -127c0 -1 1 -1 2 -2s2 -1 1 -1l-3 -1c-1 -2 -1 -3 0 -3c3 0 5 -1 6 -3c-4 -13 -3 -38 -6 -51c-4 -3 -2 -11 -9 -10c0 -1 6 -4 3 -8c-3 0 -4 2 -5 2c0 -12 -3 -18 -8 -19c-19 -71 -128 -118 -211 -84
c-35 14 -65 34 -90 61c-3 1 -4 4 -3 7c0 1 1 0 3 -1c-15 15 -27 44 -20 61c-9 7 -11 35 -2 44c-13 0 3 29 -2 37c3 0 5 -2 6 -2c0 16 4 35 7 44l18 46l13 15c13 17 16 20 28 33c13 13 21 17 34 25c15 8 30 12 46 12c20 0 60 2 85 0zM216 685c-4 -4 -7 -7 -10 -8l-3 3
c-1 1 -3 2 -6 1c-17 -7 -31 -11 -41 -12c-17 -11 -33 -29 -48 -54c-3 -5 -8 -19 -11 -23c0 0 -1 0 -2 1l-2 1c0 -1 1 -8 0 -11c-1 -5 -10 -22 -11 -29c-7 -32 -8 -72 -2 -119c35 -63 68 -97 123 -96c12 0 37 9 42 10c1 0 4 -3 7 -2c33 4 58 24 73 59c3 0 5 -1 6 -2
c-3 13 4 25 12 25c-4 1 -7 4 -8 4c2 2 4 8 6 19c5 0 7 1 7 4c-2 0 -4 -1 -5 -2c6 13 7 32 4 59s-5 44 -4 51l-6 3c-6 28 -19 57 -40 87c-5 1 -17 7 -34 16c-17 10 -32 15 -47 15zM226 660c0 -14 -15 -21 -20 -29c-15 -25 -27 -57 -34 -96c-2 -15 -4 -25 -6 -29
c3 0 3 -15 0 -46l3 -4c4 -9 11 -26 9 -33h2c7 -1 8 -4 5 -9c5 1 17 -4 18 -12c12 4 35 4 44 16v-1c1 -2 2 -3 2 -3l7 4c1 -2 1 -3 2 -3l4 -1c-9 -23 -26 -36 -52 -39c-25 -2 -45 7 -59 27c-11 15 -19 43 -8 56c-1 3 -2 4 -4 3c-1 -1 -3 -1 -4 -1c1 5 2 17 2 34
c1 18 2 29 4 33c1 3 6 0 2 8c4 3 7 11 10 24s8 22 13 26c1 17 22 58 35 75c2 4 19 0 25 0z" />
    <glyph glyph-name="guillemotleft" unicode="&#xab;" horiz-adv-x="396" 
d="M217 220c-1 0 -5 -2 -12 -5l-83 44c-42 23 -73 41 -92 52c2 11 3 16 3 17c12 3 30 12 55 25c25 14 43 22 56 25c17 17 56 33 69 42c3 -1 6 -5 11 -11c-17 -15 -45 -32 -83 -50s-64 -32 -77 -41l111 -63c14 -10 39 -14 42 -35zM359 214c-2 0 -6 -2 -11 -5l-175 96
c0 7 1 13 2 17c12 4 30 13 55 26s43 21 56 24c17 17 56 33 69 42c6 -2 9 -9 11 -11c-17 -15 -45 -32 -83 -50s-64 -32 -77 -41l56 -32c26 -14 44 -24 55 -31l15 -7c20 -9 26 -15 27 -28z" />
    <glyph glyph-name="logicalnot" unicode="&#xac;" horiz-adv-x="292" 
d="M260 361c-1 -13 -1 -30 0 -51s2 -36 2 -45c-4 0 -13 -5 -17 -6c-4 25 -1 59 -8 84c-39 3 -82 -1 -143 -6l-60 -5c-1 1 -1 4 2 9c-10 -7 -3 5 -6 10c85 11 155 16 211 13c1 5 7 4 19 -3z" />
    <glyph glyph-name="registered" unicode="&#xae;" horiz-adv-x="372" 
d="M211 731c39 1 72 -13 98 -44c27 -30 41 -65 44 -105c2 -27 2 -51 -1 -73c-8 -48 -20 -85 -37 -110c-4 -5 -14 -14 -29 -27c-35 -29 -87 -42 -134 -27c-34 13 -61 31 -81 54c-21 27 -34 77 -25 110c-8 29 2 71 31 126c25 48 50 76 75 85c23 7 43 11 59 11zM188 704
c-42 -8 -75 -39 -98 -92c-30 -111 11 -262 127 -251c22 3 42 10 60 23c9 7 17 16 22 28c12 25 13 38 20 75c7 45 1 90 -17 135c0 3 5 1 5 4c-1 1 -8 0 -9 4c-20 49 -63 85 -110 74zM152 672c38 5 64 -11 79 -46c3 -36 -10 -71 -41 -104c1 -7 13 -18 16 -23v-8
c3 -3 12 -10 13 -13c3 -5 11 -23 15 -31c8 -15 25 -32 6 -42c-12 4 -22 11 -29 21c-15 20 -28 57 -36 69c-11 -15 9 -90 -23 -90c-18 0 -16 27 -16 38c0 13 1 35 2 66c5 64 -4 119 14 163zM177 635c-3 -17 -4 -49 -4 -96c19 13 29 38 29 77c-10 11 -18 18 -25 19z" />
    <glyph glyph-name="overscore" unicode="&#xaf;" horiz-adv-x="186" 
d="M158 786c-2 1 -4 1 -5 2v-2c1 -2 0 -4 -1 -6c-61 0 -100 -1 -117 -3c-3 7 -3 12 -2 17c27 7 54 10 83 10c3 0 10 -5 13 -4c10 0 32 10 29 -14z" />
    <glyph glyph-name="degree" unicode="&#xb0;" horiz-adv-x="235" 
d="M119 718c43 4 71 -13 84 -52c11 -34 8 -68 -11 -102c-21 -38 -50 -53 -88 -46c-6 1 -12 3 -19 6c-4 7 -22 16 -29 25c-11 15 -18 36 -21 61s1 47 11 64c5 8 26 22 31 31c12 1 38 12 42 13zM138 697c-43 -12 -67 -34 -73 -67c-2 -13 1 -31 10 -54c19 -14 36 -22 50 -23
c23 -3 39 7 50 28c11 22 13 45 6 70s-22 41 -43 46z" />
    <glyph glyph-name="plusminus" unicode="&#xb1;" horiz-adv-x="318" 
d="M136 334c-28 3 -75 -10 -100 -10c-2 5 -6 9 -6 14c1 0 3 1 4 4l2 3c14 -4 28 8 33 -3c21 19 39 7 63 13c5 21 6 47 3 83c-1 18 -1 31 -1 38c1 -1 5 -1 2 0c4 3 10 0 13 4c0 -4 2 -7 2 -4c2 -11 3 -31 3 -58s0 -46 1 -59c12 -3 32 -2 61 3s46 4 52 -3
c-2 -9 -10 -14 -23 -15c-9 -2 -23 -4 -44 -6c-20 -1 -34 -3 -42 -4c2 -44 4 -76 6 -96c-8 3 -9 -8 -12 -8c-5 -1 -10 6 -11 6c1 31 -1 64 -6 98zM288 196c0 -3 -3 -6 -2 -10c-3 -3 -12 -4 -25 -3s-22 2 -27 1c-10 -1 -29 -3 -57 -8c-28 -4 -48 -6 -61 -7c-12 0 -32 2 -59 6
c1 4 -3 15 0 15c13 0 32 1 57 2c25 2 45 3 60 2c17 8 35 10 66 11c16 1 28 1 36 2c3 -4 9 -8 12 -11z" />
    <glyph glyph-name="acute" unicode="&#xb4;" horiz-adv-x="137" 
d="M108 808c-1 -20 -7 -44 -19 -71c-7 -15 -15 -30 -25 -45s-18 -22 -23 -21c-17 4 -5 27 -8 39c3 5 7 15 12 32s10 29 15 37c12 21 32 37 48 29z" />
    <glyph glyph-name="paragraph" unicode="&#xb6;" horiz-adv-x="459" 
d="M435 716c-5 -6 -21 -9 -48 -9c-13 -1 -50 -2 -65 -2c-2 -23 -2 -45 0 -64c0 -6 -2 -9 -6 -9c5 -13 7 -34 6 -64c-3 -60 -4 -102 -4 -126c0 -13 -1 -67 -3 -163c-1 -95 -1 -152 1 -171c1 -12 -5 -39 -5 -48c-1 -12 2 -47 -1 -66c-1 -10 -4 -19 -9 -27c-32 0 -34 20 -31 48
c1 25 0 62 -3 109s-4 79 -4 95c0 11 0 34 1 71s1 60 -1 69c3 51 4 86 1 104c5 95 6 168 2 221c3 4 7 18 8 21c-20 4 -54 5 -102 4c-3 -36 3 -73 -5 -98c5 -9 5 -60 0 -154c-4 -94 -6 -148 -6 -161c-1 -23 -1 -56 -1 -101c1 -45 1 -78 1 -99c-1 -55 -7 -92 -16 -111
c-7 -1 -12 1 -17 4c-9 7 -14 27 -17 61c-1 13 -2 33 -2 60v51c0 19 -4 57 -4 80c0 12 1 24 4 36c-5 7 -7 24 -4 51c3 28 3 47 0 56c-3 8 -25 24 -29 29c-13 19 -23 48 -32 88c-8 40 -10 73 -6 98c5 31 12 56 21 75c5 11 18 28 25 27c-1 3 7 9 8 13c36 19 97 19 165 14
c35 -2 59 -3 73 -2c13 0 48 1 61 2c16 0 38 9 44 -12z" />
    <glyph glyph-name="middot" unicode="&#xb7;" horiz-adv-x="155" 
d="M62 339c0 0 1 0 2 1l12 6c-1 0 1 0 5 0c13 1 21 1 25 0c21 -5 31 -19 29 -44c-1 -12 -13 -36 -21 -44c-15 -13 -33 -14 -52 -4s-26 23 -19 40c-9 12 3 38 19 45z" />
    <glyph glyph-name="cedilla" unicode="&#xb8;" horiz-adv-x="162" 
d="M101 0l-16 -58c10 -2 24 -7 42 -15c8 -14 10 -29 6 -46c-7 -14 -23 -32 -48 -54c-4 -4 -17 -19 -22 -22c-4 -4 -21 -14 -30 -7c15 30 84 65 64 115c-7 -3 -7 5 -10 6c-5 1 -15 -1 -31 -6c-7 1 -17 11 -21 12c-3 15 -2 34 5 59s16 38 28 39c15 1 26 -20 33 -23z" />
    <glyph glyph-name="guillemotright" unicode="&#xbb;" horiz-adv-x="396" 
d="M179 220c3 21 28 25 42 35l111 63c-13 9 -39 23 -77 41s-66 35 -83 50c5 6 8 10 11 11c13 -9 52 -25 69 -42c13 -3 31 -11 56 -25c25 -13 43 -22 55 -25c0 -1 1 -6 3 -17c-19 -11 -50 -29 -93 -52l-82 -44c-7 3 -11 5 -12 5zM37 214c1 13 7 19 27 28l15 7
c11 7 29 17 54 31c26 14 45 25 57 32c-13 9 -39 23 -77 41s-66 35 -83 50l11 11c13 -9 52 -25 69 -42c13 -3 31 -11 56 -24s43 -22 55 -26c1 -4 2 -10 2 -17l-175 -96c-5 3 -9 5 -11 5z" />
    <glyph glyph-name="onequarter" unicode="&#xbc;" horiz-adv-x="687" 
d="M462 743c-40 -135 -77 -244 -110 -325c-3 0 -4 2 -5 2c2 -5 3 -9 2 -12c-1 -4 -13 -23 -16 -28c0 -1 -1 -13 -2 -16c-1 -2 -2 -3 -3 -3c4 -11 -15 -40 -20 -52c-1 -7 -2 -26 -5 -33s-13 -18 -14 -23c-1 -4 -1 -17 -4 -21c-1 -5 -10 -14 -11 -15c-1 1 -1 0 0 -4
c-7 -2 5 -2 2 -8c-8 -9 -18 -46 -27 -58c2 -3 2 -6 0 -11c-3 -9 -16 -34 -17 -37c-1 -1 -1 -2 0 -3s0 -2 -1 -1l-3 1c0 -3 4 -3 4 -4c-5 -11 -14 -40 -27 -87c-1 0 -3 -1 -8 -2c0 -1 1 -1 2 0s3 1 4 0c1 -5 -4 -9 -4 -13c-3 1 -5 1 -5 1c0 -3 0 -4 -1 -5
c5 -4 -4 -30 -15 -34c3 -13 -15 -18 -16 -22c-17 0 -19 5 -28 14c-1 31 12 59 15 79c2 -5 4 -3 5 5c2 11 4 17 6 20l3 1c1 2 1 4 -1 6c1 0 3 -2 4 -2c-1 3 -2 5 -2 8c4 1 5 -4 6 -4c-3 6 -8 7 -2 16c1 0 3 -4 4 -4v3l-2 6v4c1 3 5 3 10 2c-1 3 -3 5 -6 6l12 30
c7 17 13 30 19 37c0 1 -1 1 -2 1l-2 1c13 25 20 45 23 61c1 0 1 -1 1 -3l1 -4c1 1 3 2 6 2c-4 1 -5 5 -4 13c1 1 3 1 5 0c4 21 14 53 30 96s27 77 32 100c3 2 5 2 8 0c-6 4 -2 7 -2 15c3 3 4 1 7 2c-7 7 4 9 4 19c4 -2 -3 -9 8 -7c-7 9 -8 17 -4 23c4 -4 6 -3 7 2
c1 4 0 7 -3 9c4 1 5 -4 8 -4l-6 8c1 1 3 7 6 18s8 18 13 20c0 1 -1 2 -4 2l56 144l1 5c1 8 3 13 8 13c-4 1 -3 4 2 9c2 3 3 3 4 2c-4 5 -1 14 6 14c-2 2 -1 7 3 16s8 13 12 12c-6 4 0 6 0 12c4 0 7 -6 10 -6c1 2 0 3 -3 4l-3 2c0 3 8 3 8 4c7 -3 11 -6 11 -10
c-5 1 -6 1 -1 -2c7 -5 11 -7 11 -7zM175 309v-10c-43 -9 -84 -13 -125 -13c-3 0 -6 6 -7 7c-3 14 15 15 27 15l5 -1c0 4 -6 36 -5 57c0 10 0 26 1 49s2 39 2 47c4 11 3 43 8 52c-2 1 -3 2 -4 4c3 15 5 33 5 55s1 37 3 45c-1 0 -2 -1 -2 -4c0 5 -2 30 -2 46
c-6 -6 -12 -16 -18 -31s-11 -25 -16 -30c-7 -3 -9 7 -14 6c-3 9 2 18 10 15c1 0 1 3 1 6c0 7 -1 8 6 5c1 4 0 4 -5 4c13 25 28 57 44 98c9 8 31 7 36 -2c-1 -14 -2 -38 -1 -72s0 -58 -3 -72c2 -37 3 -65 3 -82s-1 -49 -2 -95c-1 -45 -2 -76 -2 -92c4 -1 14 -2 29 -1
c16 1 25 -1 26 -6zM650 17c7 -6 10 -12 9 -19c-35 -11 -76 -11 -123 0l4 17c9 1 32 -3 37 0c-7 44 -9 112 -6 204c-19 3 -51 -1 -70 -4c-17 -3 -34 4 -38 27l2 70v1c1 3 -4 8 -4 4v79c4 1 7 -2 10 -2c-1 4 -10 4 -11 7c5 37 12 62 19 75c5 1 15 -2 30 -9
c2 -47 0 -124 -5 -231c22 3 44 5 65 6c2 10 3 30 2 61s1 49 6 54c-5 15 -4 46 0 58c-3 14 -2 21 4 21c-5 1 -7 11 0 11c1 0 0 0 -2 0c-5 6 -2 14 7 23c12 1 25 -3 29 -3c0 -10 -1 -37 -3 -82c-1 -45 -1 -69 1 -74l-2 -3c-1 1 -1 1 -2 1c0 -6 4 -11 6 -15
c-1 -21 0 -68 1 -139c2 -71 1 -118 -3 -141c10 -1 22 0 37 3z" />
    <glyph glyph-name="onehalf" unicode="&#xbd;" horiz-adv-x="645" 
d="M462 743c-40 -135 -77 -244 -110 -325c-3 0 -4 2 -5 2c2 -5 3 -9 2 -12c-1 -4 -13 -23 -16 -28c0 -1 -1 -13 -2 -16c-1 -2 -2 -3 -3 -3c4 -11 -15 -40 -20 -52c-1 -7 -2 -26 -5 -33s-13 -18 -14 -23c-1 -4 -1 -17 -4 -21c-1 -5 -10 -14 -11 -15c-1 1 -1 0 0 -4
c-7 -2 5 -2 2 -8c-8 -9 -18 -46 -27 -58c2 -3 2 -6 0 -11c-3 -9 -16 -34 -17 -37c-1 -1 -1 -2 0 -3s0 -2 -1 -1l-3 1c0 -3 4 -3 4 -4c-5 -11 -14 -40 -27 -87c-1 0 -3 -1 -8 -2c0 -1 1 -1 2 0s3 1 4 0c1 -5 -4 -9 -4 -13c-3 1 -5 1 -5 1c0 -3 0 -4 -1 -5
c5 -4 -4 -30 -15 -34c3 -13 -15 -18 -16 -22c-17 0 -19 5 -28 14c-1 31 12 59 15 79c2 -5 4 -3 5 5c2 11 4 17 6 20l3 1c1 2 1 4 -1 6c1 0 3 -2 4 -2c-1 3 -2 5 -2 8c4 1 5 -4 6 -4c-3 6 -8 7 -2 16c1 0 3 -4 4 -4v3l-2 6v4c1 3 5 3 10 2c-1 3 -3 5 -6 6l12 30
c7 17 13 30 19 37c0 1 -1 1 -2 1l-2 1c13 25 20 45 23 61c1 0 1 -1 1 -3l1 -4c1 1 3 2 6 2c-4 1 -5 5 -4 13c1 1 3 1 5 0c4 21 14 53 30 96s27 77 32 100c3 2 5 2 8 0c-6 4 -2 7 -2 15c3 3 4 1 7 2c-7 7 4 9 4 19c4 -2 -3 -9 8 -7c-7 9 -8 17 -4 23c4 -4 6 -3 7 2
c1 4 0 7 -3 9c4 1 5 -4 8 -4l-6 8c1 1 3 7 6 18s8 18 13 20c0 1 -1 2 -4 2l56 144l1 5c1 8 3 13 8 13c-4 1 -3 4 2 9c2 3 3 3 4 2c-4 5 -1 14 6 14c-2 2 -1 7 3 16s8 13 12 12c-6 4 0 6 0 12c4 0 7 -6 10 -6c1 2 0 3 -3 4l-3 2c0 3 8 3 8 4c7 -3 11 -6 11 -10
c-5 1 -6 1 -1 -2c7 -5 11 -7 11 -7zM175 309v-10c-43 -9 -84 -13 -125 -13c-3 0 -6 6 -7 7c-3 14 15 15 27 15l5 -1c0 4 -6 36 -5 57c0 10 0 26 1 49s2 39 2 47c4 11 3 43 8 52c-2 1 -3 2 -4 4c3 15 5 33 5 55s1 37 3 45c-1 0 -2 -1 -2 -4c0 5 -2 30 -2 46
c-6 -6 -12 -16 -18 -31s-11 -25 -16 -30c-7 -3 -9 7 -14 6c-3 9 2 18 10 15c1 0 1 3 1 6c0 7 -1 8 6 5c1 4 0 4 -5 4c13 25 28 57 44 98c9 8 31 7 36 -2c-1 -14 -2 -38 -1 -72s0 -58 -3 -72c2 -37 3 -65 3 -82s-1 -49 -2 -95c-1 -45 -2 -76 -2 -92c4 -1 14 -2 29 -1
c16 1 25 -1 26 -6zM615 -5c3 -9 3 -15 0 -20c-15 1 -38 0 -69 -3s-56 -3 -75 -1c-5 11 -3 26 6 47l13 27c7 15 13 26 16 34c3 7 6 19 11 38s9 33 14 43c5 34 5 93 0 176c-19 47 -37 76 -73 89c0 4 -4 11 -4 15c12 14 26 -2 42 -2c20 -17 60 -37 73 -59
c19 -38 24 -92 14 -162c-1 -4 -5 -18 -14 -42c-3 -8 -4 -30 -7 -38c-4 -8 -11 -17 -12 -23c-2 -8 -2 -11 -10 -14c7 -6 -12 -33 -21 -52c-17 -35 -25 -52 -25 -53c11 -3 30 -2 58 1s49 3 63 -1z" />
    <glyph glyph-name="threequarters" unicode="&#xbe;" horiz-adv-x="713" 
d="M493 743c-40 -135 -77 -243 -110 -325c-3 0 -4 2 -5 2c2 -5 3 -9 2 -12c-1 -4 -13 -23 -16 -28c0 -1 -1 -13 -2 -16c-1 -2 -2 -3 -3 -3c4 -11 -15 -40 -20 -52c-1 -7 -2 -26 -5 -33s-13 -18 -14 -23c-1 -4 -1 -17 -4 -21c-1 -5 -10 -14 -11 -15c-1 1 -1 0 0 -4
c-7 -2 5 -2 2 -8c-8 -9 -18 -46 -27 -58c2 -3 2 -6 0 -11c-3 -9 -16 -34 -17 -37c-1 -1 -1 -2 0 -3s0 -2 -1 -1l-3 1c0 -3 4 -3 4 -4c-5 -11 -14 -40 -27 -87c-1 0 -3 -1 -8 -2c0 -1 1 -1 2 0s3 1 4 0c1 -5 -4 -9 -4 -13c-3 1 -5 1 -5 1c0 -3 0 -4 -1 -5
c5 -4 -4 -30 -15 -34c3 -13 -15 -18 -16 -22c-17 0 -19 5 -28 14c-1 31 12 59 15 79c2 -5 4 -3 5 5c2 11 4 17 6 20l3 1c1 2 1 4 -1 6c1 0 3 -2 4 -2c-1 3 -2 5 -2 8c4 1 5 -4 6 -4c-3 6 -8 7 -2 16c1 0 3 -4 4 -4v3l-2 6v4c1 3 5 3 10 2c-1 3 -3 5 -6 6l12 30
c7 17 13 30 19 37c0 1 -1 1 -2 1l-2 1c13 25 20 45 23 61c1 0 1 -1 1 -3l1 -4c1 1 3 2 6 2c-4 1 -5 5 -4 13c1 1 3 1 5 0c4 21 14 53 30 96s27 77 32 100c3 2 5 2 8 0c-6 4 -2 7 -2 15c3 3 4 1 7 2c-7 7 4 9 4 19c4 -2 -3 -9 8 -7c-7 9 -8 17 -4 23c4 -4 6 -3 7 2
c1 4 0 7 -3 9c4 1 5 -4 8 -4l-6 8c1 1 3 7 6 18s8 18 13 20c0 1 -1 2 -4 2l56 144l1 5c1 8 3 13 8 13c-4 1 -3 4 2 9c2 3 3 3 4 2c-4 5 -1 14 6 14c-2 2 -1 7 3 16s8 13 12 12c-6 4 0 6 0 12c4 0 7 -6 10 -6c1 2 0 3 -3 4l-3 2c0 3 8 3 8 4c7 -3 11 -6 11 -10
c-5 1 -6 1 -1 -2c7 -5 11 -7 11 -7zM184 370c1 -1 1 -3 2 -5l3 -4c0 -4 -1 -25 -2 -30c0 -5 -1 -21 -2 -28c-4 -16 -9 -34 -21 -48c-4 -5 -12 -10 -24 -16l-20 -11c-5 3 -26 -1 -29 0c-31 13 -62 48 -53 69c7 -1 15 -7 23 -18c9 -11 17 -15 25 -14c6 -21 22 -20 48 2
c5 16 10 40 13 48c0 1 7 8 8 11c0 3 -1 5 -4 8c0 4 8 14 8 17c0 13 -5 31 -16 56c-1 3 -1 11 -4 15c-5 11 -23 18 -23 23c0 8 24 22 25 25c8 20 14 41 18 64c8 45 4 107 -25 140c-9 10 -40 26 -37 46c5 1 11 3 19 7c23 -21 69 -39 75 -67l1 -1l1 -3v2c20 -29 24 -65 12 -110
c-11 -44 -31 -76 -58 -97c4 -4 25 -29 29 -37c5 -8 13 -28 13 -48c-1 0 -4 4 -5 4zM193 658l-1 1v1c1 0 1 -1 1 -2zM681 17c7 -6 10 -12 9 -19c-35 -11 -76 -11 -123 0l4 17c9 1 32 -3 37 0c-7 44 -9 112 -6 204c-19 3 -51 -1 -70 -4c-17 -3 -34 4 -38 27l2 70v1
c1 3 -4 8 -4 4v79c4 1 7 -2 10 -2c-1 4 -10 4 -11 7c5 37 12 62 19 75c5 1 15 -2 30 -9c2 -47 0 -124 -5 -231c23 3 44 5 65 6c2 10 3 30 2 61s1 49 6 54c-5 15 -4 46 0 58c-3 14 -2 21 4 21c-5 1 -7 11 0 11c1 0 0 0 -2 0c-5 6 -2 14 7 23c12 1 25 -3 29 -3
c0 -10 -1 -37 -3 -82c-1 -45 -1 -69 1 -74l-2 -3c-1 1 -1 1 -2 1c0 -6 4 -11 6 -15c-1 -21 0 -68 1 -139c2 -71 1 -118 -3 -141c10 -1 22 0 37 3z" />
    <glyph glyph-name="questiondown" unicode="&#xbf;" horiz-adv-x="260" 
d="M210 494c-24 -14 -43 -17 -57 -8c-1 1 -2 3 -1 4l1 2c-1 1 -7 1 -8 2c-16 27 -16 70 9 95c13 13 29 15 47 7c17 -7 26 -23 28 -48c3 -25 -4 -43 -19 -54zM91 56c-1 -1 -3 0 -6 -4c0 -1 2 -1 2 0h4c-1 -8 -3 -43 -8 -51c1 -1 3 -2 6 -2c-4 -4 5 -19 -2 -19
c5 -21 16 -48 35 -81c12 -21 23 -34 46 -50c11 -9 19 -15 23 -19c5 -4 27 -10 31 -18c1 -4 -2 -10 -2 -13h-16c-15 13 -40 25 -73 35c-1 0 -1 1 -2 2l-1 3c-4 1 -12 1 -16 4c-4 4 -28 20 -32 27c-4 4 -7 17 -10 21l-2 2c-5 3 -10 7 -15 15c-11 19 -19 49 -14 60
c-7 3 -11 16 -4 23c-11 19 -2 53 2 79c3 -1 6 -9 10 -4c-1 3 -9 5 -10 6c5 25 13 48 25 69c1 1 2 1 3 1s2 1 3 3v3c1 4 3 7 8 4c-1 3 -3 4 -4 4c14 25 33 51 57 77c13 3 21 15 24 36s6 34 9 37c0 1 -2 2 -6 2c2 7 4 25 5 55s7 51 18 62c13 -5 21 -19 24 -42s2 -42 -1 -56
c0 -15 -2 -26 -7 -33c3 -1 3 -8 1 -19c-1 -11 -4 -18 -7 -23c-7 -9 -36 -30 -44 -42c-11 -15 -26 -48 -35 -60l-10 -31c-5 -17 -7 -29 -5 -36c-3 -11 -5 -20 -4 -27z" />
    <glyph glyph-name="Agrave" unicode="&#xc0;" horiz-adv-x="407" 
d="M190 795c-5 -1 -13 6 -23 21s-18 30 -25 45c-12 27 -18 51 -19 71c16 8 36 -8 48 -29c5 -8 9 -20 14 -37s10 -27 13 -32c-3 -12 9 -35 -8 -39zM366 35c8 -2 12 -12 11 -31c-1 -15 -5 -23 -13 -22l-9 4c-3 -4 -7 -5 -8 -6c-11 1 -19 8 -24 20c-4 14 -10 40 -13 53
c-4 15 -11 39 -21 71l-18 67c-1 4 3 8 3 9c-5 3 -14 22 -6 29l-2 -1c-2 -1 -4 -1 -5 -1c0 15 -8 30 -9 37c-13 1 -39 0 -77 -1c-37 -1 -65 -1 -84 1c-8 -4 -7 -33 -15 -37c0 -1 2 -1 6 -1c-5 -24 -12 -63 -20 -116s-15 -95 -21 -124c-4 0 -8 3 -11 3c1 24 6 62 15 114
s14 90 15 113h7c-4 11 0 33 11 68c0 13 3 33 8 61s7 48 6 60c2 -2 4 -3 6 -3c-1 10 -1 17 -1 22l8 52c0 5 1 5 3 1c-1 25 3 42 12 53c-4 -1 -5 1 -3 5c0 1 1 2 2 4c1 3 2 4 2 5c1 1 -2 14 -1 19c1 6 1 14 1 25l10 42c4 15 3 47 16 55c-1 1 -4 -2 -7 -7c-6 30 20 57 42 29
c6 -8 16 -34 29 -77c3 -11 9 -28 16 -49c8 -21 13 -36 15 -45c0 -2 -1 -3 -3 -3c-3 -4 -8 2 -9 -2c1 -2 3 -2 6 -1s4 1 7 1l19 -77l22 -87c11 -33 16 -52 16 -57c0 -2 -1 -4 -3 -6c5 -5 14 -29 6 -38c4 -3 6 -3 6 0c7 -23 16 -55 25 -96c10 -41 19 -73 27 -96
c1 -3 0 -4 -3 -4c8 -7 13 -24 8 -35zM222 277c0 12 20 7 24 8c-4 19 -17 70 -39 153l-2 6c-3 8 -3 15 2 14c-6 2 -6 9 -9 14h3c4 0 6 1 6 2c-1 0 -4 1 -10 3c4 3 3 6 0 9l-2 2v20c-4 10 -11 24 -11 28c0 1 1 1 2 0h1c-1 5 -5 15 -10 30c-9 31 -13 52 -12 73
c-8 4 -4 24 -12 27c-5 -8 0 -30 -7 -30c0 -33 -5 -59 -15 -80c8 0 -1 -7 5 -13c-5 -19 -14 -65 -25 -138c-1 -11 -4 -30 -9 -58c-5 -27 -8 -49 -7 -65c3 3 19 2 23 -5c0 8 3 4 6 7c9 -4 26 -5 52 -4c26 2 41 3 46 2c-1 0 -2 -1 -2 -3c0 -1 1 -1 2 -2zM290 149
c3 0 6 -9 10 -2c-1 0 -2 1 -4 2c-3 3 -5 3 -6 0z" />
    <glyph glyph-name="Aacute" unicode="&#xc1;" horiz-adv-x="407" 
d="M138 800c-17 4 -5 27 -8 39c3 5 7 15 12 32s10 29 15 37c12 21 32 37 48 29c-1 -20 -7 -44 -19 -71c-7 -15 -15 -30 -25 -45s-18 -22 -23 -21zM366 35c8 -2 12 -12 11 -31c-1 -15 -5 -23 -13 -22l-9 4c-3 -4 -7 -5 -8 -6c-11 1 -19 8 -24 20c-4 14 -10 40 -13 53
c-4 15 -11 39 -21 71l-18 67c-1 4 3 8 3 9c-5 3 -14 22 -6 29l-2 -1c-2 -1 -4 -1 -5 -1c0 15 -8 30 -9 37c-13 1 -39 0 -77 -1c-37 -1 -65 -1 -84 1c-8 -4 -7 -33 -15 -37c0 -1 2 -1 6 -1c-5 -24 -12 -63 -20 -116s-15 -95 -21 -124c-4 0 -8 3 -11 3c1 24 6 62 15 114
s14 90 15 113h7c-4 11 0 33 11 68c0 13 3 33 8 61s7 48 6 60c2 -2 4 -3 6 -3c-1 10 -1 17 -1 22l8 52c0 5 1 5 3 1c-1 25 3 42 12 53c-4 -1 -5 1 -3 5c0 1 1 2 2 4c1 3 2 4 2 5c1 1 -2 14 -1 19c1 6 1 14 1 25l10 42c4 15 3 47 16 55c-1 1 -4 -2 -7 -7c-6 30 20 57 42 29
c6 -8 16 -34 29 -77c3 -11 9 -28 16 -49c8 -21 13 -36 15 -45c0 -2 -1 -3 -3 -3c-3 -4 -8 2 -9 -2c1 -2 3 -2 6 -1s4 1 7 1l19 -77l22 -87c11 -33 16 -52 16 -57c0 -2 -1 -4 -3 -6c5 -5 14 -29 6 -38c4 -3 6 -3 6 0c7 -23 16 -55 25 -96c10 -41 19 -73 27 -96
c1 -3 0 -4 -3 -4c8 -7 13 -24 8 -35zM222 277c0 12 20 7 24 8c-4 19 -17 70 -39 153l-2 6c-3 8 -3 15 2 14c-6 2 -6 9 -9 14h3c4 0 6 1 6 2c-1 0 -4 1 -10 3c4 3 3 6 0 9l-2 2v20c-4 10 -11 24 -11 28c0 1 1 1 2 0h1c-1 5 -5 15 -10 30c-9 31 -13 52 -12 73
c-8 4 -4 24 -12 27c-5 -8 0 -30 -7 -30c0 -33 -5 -59 -15 -80c8 0 -1 -7 5 -13c-5 -19 -14 -65 -25 -138c-1 -11 -4 -30 -9 -58c-5 -27 -8 -49 -7 -65c3 3 19 2 23 -5c0 8 3 4 6 7c9 -4 26 -5 52 -4c26 2 41 3 46 2c-1 0 -2 -1 -2 -3c0 -1 1 -1 2 -2zM290 149
c3 0 6 -9 10 -2c-1 0 -2 1 -4 2c-3 3 -5 3 -6 0z" />
    <glyph glyph-name="Acircumflex" unicode="&#xc2;" horiz-adv-x="407" 
d="M170 860c-3 -2 -10 -12 -22 -30s-25 -28 -40 -29c-7 9 -5 24 7 47s23 37 32 43c32 22 36 -16 46 -37c2 -5 8 -13 18 -26s15 -22 14 -29c-25 -16 -37 46 -55 61zM366 35c8 -2 12 -12 11 -31c-1 -15 -5 -23 -13 -22l-9 4c-3 -4 -7 -5 -8 -6c-11 1 -19 8 -24 20
c-4 14 -10 40 -13 53c-4 15 -11 39 -21 71l-18 67c-1 4 3 8 3 9c-5 3 -14 22 -6 29l-2 -1c-2 -1 -4 -1 -5 -1c0 15 -8 30 -9 37c-13 1 -39 0 -77 -1c-37 -1 -65 -1 -84 1c-8 -4 -7 -33 -15 -37c0 -1 2 -1 6 -1c-5 -24 -12 -63 -20 -116s-15 -95 -21 -124c-4 0 -8 3 -11 3
c1 24 6 62 15 114s14 90 15 113h7c-4 11 0 33 11 68c0 13 3 33 8 61s7 48 6 60c2 -2 4 -3 6 -3c-1 10 -1 17 -1 22l8 52c0 5 1 5 3 1c-1 25 3 42 12 53c-4 -1 -5 1 -3 5c0 1 1 2 2 4c1 3 2 4 2 5c1 1 -2 14 -1 19c1 6 1 14 1 25l10 42c4 15 3 47 16 55c-1 1 -4 -2 -7 -7
c-6 30 20 57 42 29c6 -8 16 -34 29 -77c3 -11 9 -28 16 -49c8 -21 13 -36 15 -45c0 -2 -1 -3 -3 -3c-3 -4 -8 2 -9 -2c1 -2 3 -2 6 -1s4 1 7 1l19 -77l22 -87c11 -33 16 -52 16 -57c0 -2 -1 -4 -3 -6c5 -5 14 -29 6 -38c4 -3 6 -3 6 0c7 -23 16 -55 25 -96
c10 -41 19 -73 27 -96c1 -3 0 -4 -3 -4c8 -7 13 -24 8 -35zM222 277c0 12 20 7 24 8c-4 19 -17 70 -39 153l-2 6c-3 8 -3 15 2 14c-6 2 -6 9 -9 14h3c4 0 6 1 6 2c-1 0 -4 1 -10 3c4 3 3 6 0 9l-2 2v20c-4 10 -11 24 -11 28c0 1 1 1 2 0h1c-1 5 -5 15 -10 30
c-9 31 -13 52 -12 73c-8 4 -4 24 -12 27c-5 -8 0 -30 -7 -30c0 -33 -5 -59 -15 -80c8 0 -1 -7 5 -13c-5 -19 -14 -65 -25 -138c-1 -11 -4 -30 -9 -58c-5 -27 -8 -49 -7 -65c3 3 19 2 23 -5c0 8 3 4 6 7c9 -4 26 -5 52 -4c26 2 41 3 46 2c-1 0 -2 -1 -2 -3c0 -1 1 -1 2 -2z
M290 149c3 0 6 -9 10 -2c-1 0 -2 1 -4 2c-3 3 -5 3 -6 0z" />
    <glyph glyph-name="Atilde" unicode="&#xc3;" horiz-adv-x="407" 
d="M68 809c-5 3 2 11 1 14l26 23l15 9c15 8 20 4 40 3c1 0 4 -1 8 -4c1 0 2 0 2 -1c13 -8 27 -25 42 -21c12 3 29 25 46 25c10 -10 -14 -23 -18 -26c-11 -13 -25 -23 -42 -30c-10 -1 -21 5 -33 18s-20 19 -24 20c-9 2 -21 -2 -34 -13c-13 -10 -23 -16 -29 -17zM366 35
c8 -2 12 -12 11 -31c-1 -15 -5 -23 -13 -22l-9 4c-3 -4 -7 -5 -8 -6c-11 1 -19 8 -24 20c-4 14 -10 40 -13 53c-4 15 -11 39 -21 71l-18 67c-1 4 3 8 3 9c-5 3 -14 22 -6 29l-2 -1c-2 -1 -4 -1 -5 -1c0 15 -8 30 -9 37c-13 1 -39 0 -77 -1c-37 -1 -65 -1 -84 1
c-8 -4 -7 -33 -15 -37c0 -1 2 -1 6 -1c-5 -24 -12 -63 -20 -116s-15 -95 -21 -124c-4 0 -8 3 -11 3c1 24 6 62 15 114s14 90 15 113h7c-4 11 0 33 11 68c0 13 3 33 8 61s7 48 6 60c2 -2 4 -3 6 -3c-1 10 -1 17 -1 22l8 52c0 5 1 5 3 1c-1 25 3 42 12 53c-4 -1 -5 1 -3 5
c0 1 1 2 2 4c1 3 2 4 2 5c1 1 -2 14 -1 19c1 6 1 14 1 25l10 42c4 15 3 47 16 55c-1 1 -4 -2 -7 -7c-6 30 20 57 42 29c6 -8 16 -34 29 -77c3 -11 9 -28 16 -49c8 -21 13 -36 15 -45c0 -2 -1 -3 -3 -3c-3 -4 -8 2 -9 -2c1 -2 3 -2 6 -1s4 1 7 1l19 -77l22 -87
c11 -33 16 -52 16 -57c0 -2 -1 -4 -3 -6c5 -5 14 -29 6 -38c4 -3 6 -3 6 0c7 -23 16 -55 25 -96c10 -41 19 -73 27 -96c1 -3 0 -4 -3 -4c8 -7 13 -24 8 -35zM222 277c0 12 20 7 24 8c-4 19 -17 70 -39 153l-2 6c-3 8 -3 15 2 14c-6 2 -6 9 -9 14h3c4 0 6 1 6 2
c-1 0 -4 1 -10 3c4 3 3 6 0 9l-2 2v20c-4 10 -11 24 -11 28c0 1 1 1 2 0h1c-1 5 -5 15 -10 30c-9 31 -13 52 -12 73c-8 4 -4 24 -12 27c-5 -8 0 -30 -7 -30c0 -33 -5 -59 -15 -80c8 0 -1 -7 5 -13c-5 -19 -14 -65 -25 -138c-1 -11 -4 -30 -9 -58c-5 -27 -8 -49 -7 -65
c3 3 19 2 23 -5c0 8 3 4 6 7c9 -4 26 -5 52 -4c26 2 41 3 46 2c-1 0 -2 -1 -2 -3c0 -1 1 -1 2 -2zM290 149c3 0 6 -9 10 -2c-1 0 -2 1 -4 2c-3 3 -5 3 -6 0z" />
    <glyph glyph-name="Adieresis" unicode="&#xc4;" horiz-adv-x="407" 
d="M127 800c-7 1 -11 8 -13 20c-2 13 2 20 11 22c13 1 25 -5 25 -16c1 -12 -12 -27 -23 -26zM195 810c-13 -11 -27 -4 -30 13c1 12 7 17 18 15c10 -2 15 -8 15 -18c0 -3 -1 -7 -3 -10zM366 35c8 -2 12 -12 11 -31c-1 -15 -5 -23 -13 -22l-9 4c-3 -4 -7 -5 -8 -6
c-11 1 -19 8 -24 20c-4 14 -10 40 -13 53c-4 15 -11 39 -21 71l-18 67c-1 4 3 8 3 9c-5 3 -14 22 -6 29l-2 -1c-2 -1 -4 -1 -5 -1c0 15 -8 30 -9 37c-13 1 -39 0 -77 -1c-37 -1 -65 -1 -84 1c-8 -4 -7 -33 -15 -37c0 -1 2 -1 6 -1c-5 -24 -12 -63 -20 -116s-15 -95 -21 -124
c-4 0 -8 3 -11 3c1 24 6 62 15 114s14 90 15 113h7c-4 11 0 33 11 68c0 13 3 33 8 61s7 48 6 60c2 -2 4 -3 6 -3c-1 10 -1 17 -1 22l8 52c0 5 1 5 3 1c-1 25 3 42 12 53c-4 -1 -5 1 -3 5c0 1 1 2 2 4c1 3 2 4 2 5c1 1 -2 14 -1 19c1 6 1 14 1 25l10 42c4 15 3 47 16 55
c-1 1 -4 -2 -7 -7c-6 30 20 57 42 29c6 -8 16 -34 29 -77c3 -11 9 -28 16 -49c8 -21 13 -36 15 -45c0 -2 -1 -3 -3 -3c-3 -4 -8 2 -9 -2c1 -2 3 -2 6 -1s4 1 7 1l19 -77l22 -87c11 -33 16 -52 16 -57c0 -2 -1 -4 -3 -6c5 -5 14 -29 6 -38c4 -3 6 -3 6 0c7 -23 16 -55 25 -96
c10 -41 19 -73 27 -96c1 -3 0 -4 -3 -4c8 -7 13 -24 8 -35zM222 277c0 12 20 7 24 8c-4 19 -17 70 -39 153l-2 6c-3 8 -3 15 2 14c-6 2 -6 9 -9 14h3c4 0 6 1 6 2c-1 0 -4 1 -10 3c4 3 3 6 0 9l-2 2v20c-4 10 -11 24 -11 28c0 1 1 1 2 0h1c-1 5 -5 15 -10 30
c-9 31 -13 52 -12 73c-8 4 -4 24 -12 27c-5 -8 0 -30 -7 -30c0 -33 -5 -59 -15 -80c8 0 -1 -7 5 -13c-5 -19 -14 -65 -25 -138c-1 -11 -4 -30 -9 -58c-5 -27 -8 -49 -7 -65c3 3 19 2 23 -5c0 8 3 4 6 7c9 -4 26 -5 52 -4c26 2 41 3 46 2c-1 0 -2 -1 -2 -3c0 -1 1 -1 2 -2z
M290 149c3 0 6 -9 10 -2c-1 0 -2 1 -4 2c-3 3 -5 3 -6 0z" />
    <glyph glyph-name="Aring" unicode="&#xc5;" horiz-adv-x="407" 
d="M143 800c-15 5 -27 17 -37 36s-11 38 -3 55c7 14 20 25 40 34c25 7 44 1 59 -16s21 -39 16 -65c-20 -40 -45 -55 -75 -44zM174 904c-45 11 -45 -63 -14 -77c6 1 14 4 25 8c9 9 12 22 9 39c-2 17 -9 27 -20 30zM366 35c8 -2 12 -12 11 -31c-1 -15 -5 -23 -13 -22l-9 4
c-3 -4 -7 -5 -8 -6c-11 1 -19 8 -24 20c-4 14 -10 40 -13 53c-4 15 -11 39 -21 71l-18 67c-1 4 3 8 3 9c-5 3 -14 22 -6 29l-2 -1c-2 -1 -4 -1 -5 -1c0 15 -8 30 -9 37c-13 1 -39 0 -77 -1c-37 -1 -65 -1 -84 1c-8 -4 -7 -33 -15 -37c0 -1 2 -1 6 -1
c-5 -24 -12 -63 -20 -116s-15 -95 -21 -124c-4 0 -8 3 -11 3c1 24 6 62 15 114s14 90 15 113h7c-4 11 0 33 11 68c0 13 3 33 8 61s7 48 6 60c2 -2 4 -3 6 -3c-1 10 -1 17 -1 22l8 52c0 5 1 5 3 1c-1 25 3 42 12 53c-4 -1 -5 1 -3 5c0 1 1 2 2 4c1 3 2 4 2 5c1 1 -2 14 -1 19
c1 6 1 14 1 25l10 42c4 15 3 47 16 55c-1 1 -4 -2 -7 -7c-6 30 20 57 42 29c6 -8 16 -34 29 -77c3 -11 9 -28 16 -49c8 -21 13 -36 15 -45c0 -2 -1 -3 -3 -3c-3 -4 -8 2 -9 -2c1 -2 3 -2 6 -1s4 1 7 1l19 -77l22 -87c11 -33 16 -52 16 -57c0 -2 -1 -4 -3 -6
c5 -5 14 -29 6 -38c4 -3 6 -3 6 0c7 -23 16 -55 25 -96c10 -41 19 -73 27 -96c1 -3 0 -4 -3 -4c8 -7 13 -24 8 -35zM222 277c0 12 20 7 24 8c-4 19 -17 70 -39 153l-2 6c-3 8 -3 15 2 14c-6 2 -6 9 -9 14h3c4 0 6 1 6 2c-1 0 -4 1 -10 3c4 3 3 6 0 9l-2 2v20
c-4 10 -11 24 -11 28c0 1 1 1 2 0h1c-1 5 -5 15 -10 30c-9 31 -13 52 -12 73c-8 4 -4 24 -12 27c-5 -8 0 -30 -7 -30c0 -33 -5 -59 -15 -80c8 0 -1 -7 5 -13c-5 -19 -14 -65 -25 -138c-1 -11 -4 -30 -9 -58c-5 -27 -8 -49 -7 -65c3 3 19 2 23 -5c0 8 3 4 6 7
c9 -4 26 -5 52 -4c26 2 41 3 46 2c-1 0 -2 -1 -2 -3c0 -1 1 -1 2 -2zM290 149c3 0 6 -9 10 -2c-1 0 -2 1 -4 2c-3 3 -5 3 -6 0z" />
    <glyph glyph-name="AE" unicode="&#xc6;" horiz-adv-x="437" 
d="M386 5c13 0 26 -6 19 -19c-21 -4 -56 -6 -103 -5c-47 0 -79 0 -96 -1c-1 4 -13 22 -14 33c-1 13 -1 23 -1 28l4 27c2 13 3 21 3 23c-7 3 -7 12 -4 23c1 5 2 9 2 10c0 3 -10 26 -2 29c-3 13 -6 50 -7 111c-43 -1 -75 -1 -96 0c-8 -4 -7 -33 -15 -37c0 -1 2 -1 6 -1
c-5 -24 -12 -63 -20 -116s-15 -95 -21 -124c-4 0 -8 3 -11 3c1 24 6 62 15 114s14 90 15 113h7c-4 11 0 33 11 68c0 13 3 33 8 61s7 48 6 60c2 -2 4 -3 6 -3c-1 10 -1 17 -1 22l8 52c0 5 1 5 3 1c-1 25 3 42 12 53c-4 -1 -5 1 -3 5c0 1 1 2 2 4c1 3 2 4 2 5c1 1 -2 14 -1 19
c1 6 1 14 1 25l10 42c4 15 3 47 16 55c-1 1 -4 -2 -7 -7c-7 24 14 49 31 40c3 3 1 12 2 13c13 19 31 23 54 11c16 5 41 9 74 11c34 2 60 5 79 10c9 -5 12 -12 8 -21l-72 -6c-37 -2 -66 -5 -87 -9c-2 -151 0 -286 7 -403c1 -3 9 -3 10 -6c1 0 2 2 2 6c29 -6 78 9 81 -23
c-7 -1 -22 0 -47 3c-24 3 -39 2 -46 -3c1 -20 2 -53 5 -99c3 -45 4 -79 4 -100s-2 -53 -5 -97c11 -4 34 -7 39 -4c41 -4 77 -3 107 4zM124 284c11 -3 32 -4 62 -3l-1 16l-4 4v40c-1 17 -5 54 -12 113c-1 8 0 42 -4 58c2 -1 3 -1 4 0c0 1 -1 3 -2 6c0 5 1 7 2 7
c-7 16 -7 27 0 33c-1 1 -1 2 -2 1s-3 -1 -4 -1c1 5 1 15 -1 30c-1 15 -2 26 -2 33c3 1 4 -2 5 -2c-1 5 -3 12 -4 23c-3 4 0 21 -8 24c-5 -8 0 -30 -7 -30c0 -33 -5 -59 -15 -80c8 0 -1 -7 5 -13c-5 -19 -14 -65 -25 -138c-1 -11 -4 -30 -9 -58c-5 -27 -8 -49 -7 -65
c3 3 19 2 23 -5c0 8 3 4 6 7z" />
    <glyph glyph-name="Ccedilla" unicode="&#xc7;" horiz-adv-x="325" 
d="M304 5c-33 -15 -60 -21 -81 -18l-12 -45c10 -2 24 -7 42 -15c8 -14 10 -29 6 -46c-7 -14 -23 -32 -48 -54c-4 -4 -17 -19 -22 -22c-4 -4 -21 -14 -30 -7c15 30 84 65 64 115c-3 -1 -6 -1 -7 2c0 3 -2 3 -3 4c-5 1 -15 -1 -31 -6c-7 1 -17 11 -21 12c-3 19 2 58 13 79
c-26 14 -47 30 -64 49c-17 17 -33 49 -48 96c-20 58 -27 112 -20 163l7 57c5 49 11 86 20 121c3 10 8 24 15 42l14 37c9 26 19 49 29 69c21 45 46 85 75 121c4 1 18 13 30 10v-16c-1 1 -3 0 -4 -1l-3 -1v-9c-9 -7 -19 -21 -30 -41c-11 -19 -21 -33 -30 -40
c-16 -37 -27 -66 -34 -86c-3 0 -5 -2 -6 -2c1 -1 1 -2 2 -2c-2 -16 -10 -47 -25 -94c-1 -41 -5 -77 -12 -110c2 -2 2 -10 0 -25c-5 -73 12 -153 50 -238c0 -5 -1 -7 -2 -7c5 -5 11 -13 19 -26c17 -25 33 -41 58 -45c1 -3 -2 -5 -2 -6c12 0 34 -10 43 -10c1 0 22 11 23 4
c7 1 16 11 23 12c1 -2 2 -9 2 -21zM127 571v2v-2z" />
    <glyph glyph-name="Egrave" unicode="&#xc8;" horiz-adv-x="307" 
d="M36 512c2 -1 3 -2 3 -1c0 0 -1 4 -2 12c-1 3 0 3 3 2c-7 16 -7 27 0 33l-2 1c-1 -1 -3 -1 -4 -1c1 5 1 15 -1 30c-1 15 -2 26 -2 33c3 1 4 -2 5 -2c-8 25 -6 77 6 98c3 3 1 13 2 14c13 19 31 23 54 11c16 5 41 9 74 11c34 2 60 5 79 10c9 -5 12 -12 8 -21l-72 -6
c-37 -2 -66 -5 -87 -9c-2 -151 0 -286 7 -403c1 -3 9 -3 10 -6c1 0 2 2 2 6c29 -6 78 9 81 -23c-7 -1 -22 0 -47 3c-24 3 -39 2 -46 -3c1 -20 2 -53 5 -99c3 -45 4 -79 4 -100s-2 -53 -5 -97c11 -4 34 -7 39 -4c41 -4 77 -3 107 4c13 0 26 -6 19 -19c-14 -4 -48 -6 -103 -5
c-54 0 -86 0 -96 -1c-1 4 -13 22 -14 33c-1 27 -1 30 3 55c2 13 3 21 3 23c-11 4 -2 27 -2 33c0 3 -10 26 -2 29c-3 15 -6 40 -7 76c-1 37 -1 59 -2 68l-4 4c-2 1 -3 8 -2 19s2 18 2 21c-1 17 -5 54 -12 113c-1 8 0 42 -4 58zM106 934c16 8 36 -8 48 -29c5 -8 9 -20 14 -37
s10 -27 13 -32c-3 -12 9 -35 -8 -39c-5 -1 -13 6 -23 21s-18 30 -25 45c-12 27 -18 51 -19 71z" />
    <glyph glyph-name="Eacute" unicode="&#xc9;" horiz-adv-x="307" 
d="M36 512c2 -1 3 -2 3 -1c0 0 -1 4 -2 12c-1 3 0 3 3 2c-7 16 -7 27 0 33l-2 1c-1 -1 -3 -1 -4 -1c1 5 1 15 -1 30c-1 15 -2 26 -2 33c3 1 4 -2 5 -2c-8 25 -6 77 6 98c3 3 1 13 2 14c13 19 31 23 54 11c16 5 41 9 74 11c34 2 60 5 79 10c9 -5 12 -12 8 -21l-72 -6
c-37 -2 -66 -5 -87 -9c-2 -151 0 -286 7 -403c1 -3 9 -3 10 -6c1 0 2 2 2 6c29 -6 78 9 81 -23c-7 -1 -22 0 -47 3c-24 3 -39 2 -46 -3c1 -20 2 -53 5 -99c3 -45 4 -79 4 -100s-2 -53 -5 -97c11 -4 34 -7 39 -4c41 -4 77 -3 107 4c13 0 26 -6 19 -19c-14 -4 -48 -6 -103 -5
c-54 0 -86 0 -96 -1c-1 4 -13 22 -14 33c-1 27 -1 30 3 55c2 13 3 21 3 23c-11 4 -2 27 -2 33c0 3 -10 26 -2 29c-3 15 -6 40 -7 76c-1 37 -1 59 -2 68l-4 4c-2 1 -3 8 -2 19s2 18 2 21c-1 17 -5 54 -12 113c-1 8 0 42 -4 58zM202 937c-1 -20 -7 -44 -19 -71
c-7 -15 -15 -30 -25 -45s-18 -22 -23 -21c-17 4 -5 27 -8 39c3 5 7 15 12 32s10 29 15 37c12 21 32 37 48 29z" />
    <glyph glyph-name="Ecircumflex" unicode="&#xca;" horiz-adv-x="307" 
d="M36 512c2 -1 3 -2 3 -1c0 0 -1 4 -2 12c-1 3 0 3 3 2c-7 16 -7 27 0 33l-2 1c-1 -1 -3 -1 -4 -1c1 5 1 15 -1 30c-1 15 -2 26 -2 33c3 1 4 -2 5 -2c-8 25 -6 77 6 98c3 3 1 13 2 14c13 19 31 23 54 11c16 5 41 9 74 11c34 2 60 5 79 10c9 -5 12 -12 8 -21l-72 -6
c-37 -2 -66 -5 -87 -9c-2 -151 0 -286 7 -403c1 -3 9 -3 10 -6c1 0 2 2 2 6c29 -6 78 9 81 -23c-7 -1 -22 0 -47 3c-24 3 -39 2 -46 -3c1 -20 2 -53 5 -99c3 -45 4 -79 4 -100s-2 -53 -5 -97c11 -4 34 -7 39 -4c41 -4 77 -3 107 4c13 0 26 -6 19 -19c-14 -4 -48 -6 -103 -5
c-54 0 -86 0 -96 -1c-1 4 -13 22 -14 33c-1 27 -1 30 3 55c2 13 3 21 3 23c-11 4 -2 27 -2 33c0 3 -10 26 -2 29c-3 15 -6 40 -7 76c-1 37 -1 59 -2 68l-4 4c-2 1 -3 8 -2 19s2 18 2 21c-1 17 -5 54 -12 113c-1 8 0 42 -4 58zM214 798c-25 -16 -37 46 -55 61
c-3 -2 -10 -12 -22 -30s-25 -28 -40 -29c-7 9 -5 24 7 47s23 37 32 43c32 22 36 -16 46 -37c2 -5 8 -13 18 -26s15 -22 14 -29z" />
    <glyph glyph-name="Edieresis" unicode="&#xcb;" horiz-adv-x="307" 
d="M106 844c13 1 25 -5 25 -16c1 -12 -12 -27 -23 -26c-7 1 -11 8 -13 20c-2 13 2 20 11 22zM146 825c0 3 1 5 2 7c4 9 11 11 21 6c11 -6 14 -15 7 -26c-13 -11 -27 -4 -30 13zM36 512c2 -1 3 -2 3 -1c0 0 -1 4 -2 12c-1 3 0 3 3 2c-7 16 -7 27 0 33l-2 1c-1 -1 -3 -1 -4 -1
c1 5 1 15 -1 30c-1 15 -2 26 -2 33c3 1 4 -2 5 -2c-8 25 -6 77 6 98c3 3 1 13 2 14c13 19 31 23 54 11c16 5 41 9 74 11c34 2 60 5 79 10c9 -5 12 -12 8 -21l-72 -6c-37 -2 -66 -5 -87 -9c-2 -151 0 -286 7 -403c1 -3 9 -3 10 -6c1 0 2 2 2 6c29 -6 78 9 81 -23
c-7 -1 -22 0 -47 3c-24 3 -39 2 -46 -3c1 -20 2 -53 5 -99c3 -45 4 -79 4 -100s-2 -53 -5 -97c11 -4 34 -7 39 -4c41 -4 77 -3 107 4c13 0 26 -6 19 -19c-14 -4 -48 -6 -103 -5c-54 0 -86 0 -96 -1c-1 4 -13 22 -14 33c-1 27 -1 30 3 55c2 13 3 21 3 23c-11 4 -2 27 -2 33
c0 3 -10 26 -2 29c-3 15 -6 40 -7 76c-1 37 -1 59 -2 68l-4 4c-2 1 -3 8 -2 19s2 18 2 21c-1 17 -5 54 -12 113c-1 8 0 42 -4 58z" />
    <glyph glyph-name="Igrave" unicode="&#xcc;" horiz-adv-x="140" 
d="M76 -24c0 5 -4 6 -10 9c0 5 1 8 2 8c-11 13 -13 42 -14 78c0 19 0 30 -1 35h5c-6 5 -6 8 -1 10c-3 3 -6 14 -7 32c-1 19 0 31 3 37c-9 31 -11 80 -6 148c-3 3 -4 13 -4 28c1 15 0 26 -2 33h6c-5 5 -1 20 -6 23c1 6 1 23 0 50s1 44 6 50c-9 3 -3 23 -8 23c1 3 3 4 6 4
c-8 8 -10 35 -2 35c-5 12 -6 31 -3 56c2 13 3 20 3 22c4 3 7 8 8 16c2 -1 3 -2 4 -4c-3 4 3 14 11 15v-5c5 -1 7 2 6 7c1 -2 3 -3 4 -2c1 2 2 3 4 4c16 1 31 -25 30 -40c-2 -58 -4 -95 -7 -110c1 -17 2 -45 1 -86c0 -41 0 -69 1 -84c-3 -1 -5 -2 -6 -2c5 -7 5 -17 2 -29
c7 -5 5 -25 -2 -33c13 -8 2 -49 2 -54c-1 -39 -1 -75 2 -107c1 -11 0 -36 -3 -73c-2 -37 -3 -57 -3 -60c0 -14 1 -34 -21 -34zM30 937c16 8 36 -8 48 -29c5 -8 9 -20 14 -37s10 -27 13 -32c-3 -12 9 -35 -8 -39c-5 -1 -13 6 -23 21s-18 30 -25 45c-12 27 -18 51 -19 71z" />
    <glyph glyph-name="Iacute" unicode="&#xcd;" horiz-adv-x="137" 
d="M69 -24c0 5 -4 6 -10 9c0 5 1 8 2 8c-11 13 -13 42 -14 78c0 19 0 30 -1 35h5c-6 5 -6 8 -1 10c-3 3 -6 14 -7 32c-1 19 0 31 3 37c-9 31 -11 80 -6 148c-3 3 -4 13 -4 28c1 15 0 26 -2 33h6c-5 5 -1 20 -6 23c1 6 1 23 0 50s1 44 6 50c-9 3 -3 23 -8 23c1 3 3 4 6 4
c-8 8 -10 35 -2 35c-5 12 -6 31 -3 56c2 13 3 20 3 22c4 3 7 8 8 16c2 -1 3 -2 4 -4c-3 4 3 14 11 15v-5c5 -1 7 2 6 7c1 -2 3 -3 4 -2c1 2 2 3 4 4c16 1 31 -25 30 -40c-2 -58 -4 -95 -7 -110c1 -17 2 -45 1 -86c0 -41 0 -69 1 -84c-3 -1 -5 -2 -6 -2c5 -7 5 -17 2 -29
c7 -5 5 -25 -2 -33c13 -8 2 -49 2 -54c-1 -39 -1 -75 2 -107c1 -11 0 -36 -3 -73c-2 -37 -3 -57 -3 -60c0 -14 1 -34 -21 -34zM108 937c-1 -20 -7 -44 -19 -71c-7 -15 -15 -30 -25 -45s-18 -22 -23 -21c-17 4 -5 27 -8 39c3 5 7 15 12 32s10 29 15 37c12 21 32 37 48 29z
" />
    <glyph glyph-name="Icircumflex" unicode="&#xce;" horiz-adv-x="181" 
d="M96 -24c0 5 -4 6 -10 9c0 5 1 8 2 8c-11 13 -13 42 -14 78c0 19 0 30 -1 35h5c-6 5 -6 8 -1 10c-3 3 -6 14 -7 32c-1 19 0 31 3 37c-9 31 -11 80 -6 148c-3 3 -4 13 -4 28c1 15 0 26 -2 33h6c-5 5 -1 20 -6 23c1 6 1 23 0 50s1 44 6 50c-9 3 -3 23 -8 23c1 3 3 4 6 4
c-8 8 -10 35 -2 35c-5 12 -6 31 -3 56c2 13 3 20 3 22c4 3 7 8 8 16c2 -1 3 -2 4 -4c-3 4 3 14 11 15v-5c5 -1 7 2 6 7c1 -2 3 -3 4 -2c1 2 2 3 4 4c16 1 31 -25 30 -40c-2 -58 -4 -95 -7 -110c1 -17 2 -45 1 -86c0 -41 0 -69 1 -84c-3 -1 -5 -2 -6 -2c5 -7 5 -17 2 -29
c7 -5 5 -25 -2 -33c13 -8 2 -49 2 -54c-1 -39 -1 -75 2 -107c1 -11 0 -36 -3 -73c-2 -37 -3 -57 -3 -60c0 -14 1 -34 -21 -34zM162 798c-25 -16 -37 46 -55 61c-3 -2 -10 -12 -22 -30s-25 -28 -40 -29c-7 9 -5 24 7 47s23 37 32 43c32 22 36 -16 46 -37c2 -5 8 -13 18 -26
s15 -22 14 -29z" />
    <glyph glyph-name="Idieresis" unicode="&#xcf;" horiz-adv-x="145" 
d="M72 -24c0 5 -4 6 -10 9c0 5 1 8 2 8c-11 13 -13 42 -14 78c0 19 0 30 -1 35h5c-6 5 -6 8 -1 10c-3 3 -6 14 -7 32c-1 19 0 31 3 37c-9 31 -11 80 -6 148c-3 3 -4 13 -4 28c1 15 0 26 -2 33h6c-5 5 -1 20 -6 23c1 6 1 23 0 50s1 44 6 50c-9 3 -3 23 -8 23c1 3 3 4 6 4
c-8 8 -10 35 -2 35c-5 12 -6 31 -3 56c2 13 3 20 3 22c4 3 7 8 8 16c2 -1 3 -2 4 -4c-3 4 3 14 11 15v-5c5 -1 7 2 6 7c1 -2 3 -3 4 -2c1 2 2 3 4 4c16 1 31 -25 30 -40c-2 -58 -4 -95 -7 -110c1 -17 2 -45 1 -86c0 -41 0 -69 1 -84c-3 -1 -5 -2 -6 -2c5 -7 5 -17 2 -29
c7 -5 5 -25 -2 -33c13 -8 2 -49 2 -54c-1 -39 -1 -75 2 -107c1 -11 0 -36 -3 -73c-2 -37 -3 -57 -3 -60c0 -14 1 -34 -21 -34zM45 842c13 1 25 -5 25 -16c1 -12 -12 -27 -23 -26c-7 1 -11 8 -13 20c-2 13 2 20 11 22zM85 823l2 7c4 9 11 11 21 6c11 -6 14 -15 7 -26
c-13 -11 -27 -4 -30 13z" />
    <glyph glyph-name="Eth" unicode="&#xd0;" horiz-adv-x="398" 
d="M363 303c8 -22 5 -42 -9 -60c3 -6 3 -16 -1 -30c-4 -13 -6 -23 -5 -29h-6c8 -9 0 -30 -11 -33c7 0 -1 -10 0 -15c-1 0 -3 1 -4 1c0 -1 1 -2 2 -3c-11 -25 -28 -52 -50 -79h-8c0 -7 -14 -20 -21 -19c-13 -13 -38 -29 -58 -37c-19 -8 -56 -23 -71 -30c-5 -1 -12 0 -21 1
c-1 4 -3 7 -7 8l-4 60c-2 31 -3 50 -3 59s0 27 1 54c0 1 -5 5 -6 8c2 9 1 22 -3 41c-3 19 -4 32 -1 39c-3 23 -7 50 -13 82c-11 -2 -22 -3 -33 -3c1 7 -1 10 0 19c5 -1 15 1 30 6c-2 17 -3 32 -3 46c0 0 0 1 1 4h3c-8 35 -10 59 -6 73c-12 65 -17 141 -15 230c2 -2 3 -1 3 3
c1 7 1 12 1 13c7 19 27 16 48 11l39 -3c11 -1 24 -6 28 -14c9 0 27 -15 42 -16v-5c27 -5 57 -30 69 -50c15 -13 28 -36 35 -52c8 -16 21 -49 25 -58h-6l9 -5c15 -44 25 -90 29 -137l-2 -3c-1 1 -1 1 -2 1c0 -1 2 -3 6 -4c0 -22 9 -62 -2 -74zM344 266c0 9 -1 24 -3 45
s-2 38 -1 49c-1 0 -2 0 -3 -1s-2 0 -3 1c-1 17 -4 35 -9 53c-5 19 -11 40 -19 63l-16 51l-17 29l-17 31l-31 28c-16 15 -29 26 -38 33c-13 3 -25 10 -35 23c-3 1 -20 7 -27 8c-7 3 -24 6 -31 2c-1 -26 1 -65 5 -118s5 -92 3 -118c12 -30 6 -60 8 -89l1 -8c27 1 43 0 47 -5
v-12c-3 -1 -6 -2 -8 -5c-13 3 -25 4 -38 3c2 -19 5 -48 10 -85s8 -61 9 -74c1 -12 2 -38 3 -79s2 -72 5 -94c15 3 34 11 56 23c23 13 38 20 45 23c5 5 24 24 31 32c12 14 30 35 39 53c5 11 12 34 19 69c1 6 3 17 8 33s7 28 7 36z" />
    <glyph glyph-name="Ntilde" unicode="&#xd1;" horiz-adv-x="402" 
d="M353 331c1 -13 0 -36 -1 -68s-1 -53 -1 -62c0 -30 -1 -47 -2 -52l-4 2c0 -12 9 -29 -2 -35c4 -10 4 -26 1 -49s-2 -42 3 -57c-3 -3 -8 -9 -13 -17c-8 0 -13 5 -21 2c-5 6 -30 24 -21 37c-1 -3 -2 -4 -3 -3c-5 3 -8 11 -11 26c-2 7 -7 21 -16 42c-8 21 -12 37 -13 46
c-5 3 -18 26 -15 33c-8 8 -15 28 -15 30c-7 7 -9 14 -6 21c-7 7 -13 36 -21 43c10 11 -16 23 -2 32c-4 8 -14 10 -8 23c-11 9 -17 24 -17 45c0 3 -3 -2 -6 1c3 13 -6 26 -6 37c-3 1 -6 7 -9 20c-2 13 -6 21 -12 22c2 16 -4 13 -7 29h5c-2 6 -4 7 -5 4c-7 13 -14 34 -21 62
c-7 29 -13 48 -16 57c-5 -6 -9 -18 -10 -35c0 -17 1 -66 0 -99c-1 -17 -2 -32 -5 -47c3 -75 -2 -161 -14 -259l1 -14c1 -9 2 -15 1 -18c-5 -39 -7 -80 -6 -123l-9 -8c-3 1 -8 4 -16 11c1 3 5 15 8 18c-2 2 -4 -1 -6 6c3 2 4 9 3 21c-1 13 2 22 7 28c-2 6 -3 18 -2 35
s2 29 2 35c0 1 3 0 4 0c-3 15 -3 29 2 42c-3 4 -3 13 -2 28c2 15 3 26 2 31h7c-2 3 -2 5 0 6c-1 1 -1 2 -2 1c-1 0 -3 0 -5 1c5 7 3 18 6 21c-1 1 -1 2 -2 1c-2 -1 -3 -1 -4 -1c3 3 2 13 7 17c-4 3 -4 17 -1 43c1 8 1 22 1 41c1 19 1 33 2 41h4c0 8 -5 31 -4 42
c3 29 4 49 2 58c3 0 6 -3 10 -2c-1 3 -2 4 -4 3s-4 0 -6 1c8 10 0 20 0 36c5 1 7 3 8 4c-1 -1 -2 -1 -3 -1c-4 1 -4 6 1 17c-3 4 -3 14 -2 31c2 17 2 29 0 34c1 -1 4 -2 8 -2c-5 1 -6 10 -5 25s2 25 1 29c1 -1 3 -2 4 -2c-4 9 -2 17 6 25c4 0 12 -3 17 -2
c8 -12 16 -50 27 -62c-2 -2 -3 -3 -4 -3c12 -16 23 -43 33 -81c6 -10 12 -28 19 -53s12 -39 13 -43c2 -5 5 -13 8 -25c4 -8 10 -13 6 -25c7 -8 9 -32 17 -40c7 -35 23 -85 48 -149c26 -63 43 -110 50 -139c4 0 10 -15 13 -21c8 2 -2 11 4 17c1 0 1 -4 4 -4c4 7 -13 16 0 25
c-7 19 -3 33 10 42c-4 4 -3 -5 -12 -2c0 4 0 15 1 32s1 28 -1 32l1 4c1 4 3 11 3 15c0 21 -7 76 2 100l4 -2c0 4 -4 20 -4 25c0 29 2 50 7 63c-3 2 -4 6 -3 12c3 0 6 -2 7 -2c-1 4 -4 5 -7 4c-1 37 3 74 11 109c4 1 3 3 -4 6l6 15h-2c-2 9 -2 25 0 48s1 42 -2 56h6
c-7 10 -7 22 0 36c-5 3 -6 8 -3 13c1 3 1 5 1 6c5 0 8 5 13 4c4 -4 6 -13 6 -27c0 -95 -2 -164 -7 -207c-4 -4 -6 -13 -6 -27c-1 -12 -1 -30 -2 -53v-43c-1 -22 -1 -38 0 -48c-3 0 -4 1 -4 2zM308 856c10 -10 -14 -23 -18 -26c-11 -13 -25 -23 -42 -30c-10 -1 -21 5 -33 18
s-20 19 -24 20c-9 2 -21 -2 -34 -13c-13 -10 -23 -16 -29 -17c-5 3 2 11 1 14l26 23l15 9c15 8 20 4 40 3c1 0 4 -1 8 -4l2 -1c13 -8 27 -25 42 -21c12 3 29 25 46 25z" />
    <glyph glyph-name="Ograve" unicode="&#xd2;" horiz-adv-x="359" 
d="M206 800c-5 -1 -13 6 -23 21s-18 30 -25 45c-12 27 -18 51 -19 71c16 8 36 -8 48 -29c5 -8 9 -20 14 -37s10 -27 13 -32c-3 -12 9 -35 -8 -39zM327 410v-13c3 -23 2 -42 -2 -56l-2 -17c-1 -32 -9 -76 -23 -131c-1 0 -2 -6 -5 -2c2 -2 2 -6 1 -11c-5 -9 -11 -26 -18 -53
s-14 -45 -22 -55c-9 -28 -30 -57 -65 -88c-7 1 -20 -8 -27 -8c-13 -1 -40 9 -48 10c-1 4 -12 8 -12 15c-15 3 -24 16 -28 40c-4 0 -10 7 -6 12c-4 5 -17 15 -10 23c-1 -1 -3 -2 -5 -2c-1 3 0 4 3 4c-13 20 -17 33 -11 40c-7 15 -10 29 -13 49c-1 10 -1 18 -2 23
c0 12 -2 44 -2 51l5 6c0 1 -2 2 -5 2l1 3c1 3 2 4 4 3c-4 3 -4 9 0 9c0 0 0 1 -1 3l-2 1c-1 13 -1 32 0 56s2 42 1 53c3 1 5 -1 8 -1c1 2 1 3 -2 3s-4 1 -4 2c1 2 2 10 2 23c1 13 3 23 8 29c10 87 35 167 75 240c21 20 51 31 88 33c35 -17 59 -35 73 -54c-2 -6 -3 -9 -4 -10
c0 -4 5 2 10 0l5 -17c7 -17 8 -23 12 -39c7 -20 10 -38 8 -55c7 -8 12 -27 9 -38c0 -1 0 -2 -1 -3l-2 1c0 -8 7 -31 7 -42c0 -2 2 -28 2 -39zM296 268c0 3 -2 7 -5 12c11 57 9 109 -8 157l2 3c3 3 3 4 0 7c-3 19 -7 38 -12 55c-11 35 -29 81 -36 102c-5 3 -11 11 -20 22
c-17 23 -32 33 -53 28c-4 -1 -18 -14 -23 -13c-3 -7 -10 -18 -22 -33c-11 -15 -18 -27 -20 -37c1 1 2 0 4 -3c-1 -6 -5 -17 -12 -33c-7 -15 -12 -28 -15 -37c-6 -21 -11 -52 -14 -91l-6 -72l4 -4c3 -71 10 -129 21 -172c-1 -4 -5 1 -5 -2h7c-1 -6 1 -10 4 -12
c0 -1 -5 -2 -4 -6c5 -4 11 -14 17 -29c7 -15 13 -23 18 -26c13 -6 43 -39 65 -35v2c34 0 56 14 67 42c6 14 12 37 17 69c6 32 11 53 14 62c1 0 3 -2 4 -2c0 16 3 33 8 50c0 -3 1 -5 3 -4z" />
    <glyph glyph-name="Oacute" unicode="&#xd3;" horiz-adv-x="359" 
d="M159 800c-17 4 -5 27 -8 39c3 5 7 15 12 32s10 29 15 37c12 21 32 37 48 29c-1 -20 -7 -44 -19 -71c-7 -15 -15 -30 -25 -45s-18 -22 -23 -21zM327 410v-13c3 -23 2 -42 -2 -56l-2 -17c-1 -32 -9 -76 -23 -131c-1 0 -2 -6 -5 -2c2 -2 2 -6 1 -11c-5 -9 -11 -26 -18 -53
s-14 -45 -22 -55c-9 -28 -30 -57 -65 -88c-7 1 -20 -8 -27 -8c-13 -1 -40 9 -48 10c-1 4 -12 8 -12 15c-15 3 -24 16 -28 40c-4 0 -10 7 -6 12c-4 5 -17 15 -10 23c-1 -1 -3 -2 -5 -2c-1 3 0 4 3 4c-13 20 -17 33 -11 40c-7 15 -10 29 -13 49c-1 10 -1 18 -2 23
c0 12 -2 44 -2 51l5 6c0 1 -2 2 -5 2l1 3c1 3 2 4 4 3c-4 3 -4 9 0 9c0 0 0 1 -1 3l-2 1c-1 13 -1 32 0 56s2 42 1 53c3 1 5 -1 8 -1c1 2 1 3 -2 3s-4 1 -4 2c1 2 2 10 2 23c1 13 3 23 8 29c10 87 35 167 75 240c21 20 51 31 88 33c35 -17 59 -35 73 -54c-2 -6 -3 -9 -4 -10
c0 -4 5 2 10 0l5 -17c7 -17 8 -23 12 -39c7 -20 10 -38 8 -55c7 -8 12 -27 9 -38c0 -1 0 -2 -1 -3l-2 1c0 -8 7 -31 7 -42c0 -2 2 -28 2 -39zM296 268c0 3 -2 7 -5 12c11 57 9 109 -8 157l2 3c3 3 3 4 0 7c-3 19 -7 38 -12 55c-11 35 -29 81 -36 102c-5 3 -11 11 -20 22
c-17 23 -32 33 -53 28c-4 -1 -18 -14 -23 -13c-3 -7 -10 -18 -22 -33c-11 -15 -18 -27 -20 -37c1 1 2 0 4 -3c-1 -6 -5 -17 -12 -33c-7 -15 -12 -28 -15 -37c-6 -21 -11 -52 -14 -91l-6 -72l4 -4c3 -71 10 -129 21 -172c-1 -4 -5 1 -5 -2h7c-1 -6 1 -10 4 -12
c0 -1 -5 -2 -4 -6c5 -4 11 -14 17 -29c7 -15 13 -23 18 -26c13 -6 43 -39 65 -35v2c34 0 56 14 67 42c6 14 12 37 17 69c6 32 11 53 14 62c1 0 3 -2 4 -2c0 16 3 33 8 50c0 -3 1 -5 3 -4z" />
    <glyph glyph-name="Ocircumflex" unicode="&#xd4;" horiz-adv-x="359" 
d="M200 859c-3 -2 -10 -12 -22 -30s-25 -28 -40 -29c-7 9 -5 24 7 47s23 37 32 43c32 22 36 -16 46 -37c2 -5 8 -13 18 -26s15 -22 14 -29c-25 -16 -37 46 -55 61zM327 410v-13c3 -23 2 -42 -2 -56l-2 -17c-1 -32 -9 -76 -23 -131c-1 0 -2 -6 -5 -2c2 -2 2 -6 1 -11
c-5 -9 -11 -26 -18 -53s-14 -45 -22 -55c-9 -28 -30 -57 -65 -88c-7 1 -20 -8 -27 -8c-13 -1 -40 9 -48 10c-1 4 -12 8 -12 15c-15 3 -24 16 -28 40c-4 0 -10 7 -6 12c-4 5 -17 15 -10 23c-1 -1 -3 -2 -5 -2c-1 3 0 4 3 4c-13 20 -17 33 -11 40c-7 15 -10 29 -13 49
c-1 10 -1 18 -2 23c0 12 -2 44 -2 51l5 6c0 1 -2 2 -5 2l1 3c1 3 2 4 4 3c-4 3 -4 9 0 9c0 0 0 1 -1 3l-2 1c-1 13 -1 32 0 56s2 42 1 53c3 1 5 -1 8 -1c1 2 1 3 -2 3s-4 1 -4 2c1 2 2 10 2 23c1 13 3 23 8 29c10 87 35 167 75 240c21 20 51 31 88 33c35 -17 59 -35 73 -54
c-2 -6 -3 -9 -4 -10c0 -4 5 2 10 0l5 -17c7 -17 8 -23 12 -39c7 -20 10 -38 8 -55c7 -8 12 -27 9 -38c0 -1 0 -2 -1 -3l-2 1c0 -8 7 -31 7 -42c0 -2 2 -28 2 -39zM296 268c0 3 -2 7 -5 12c11 57 9 109 -8 157l2 3c3 3 3 4 0 7c-3 19 -7 38 -12 55c-11 35 -29 81 -36 102
c-5 3 -11 11 -20 22c-17 23 -32 33 -53 28c-4 -1 -18 -14 -23 -13c-3 -7 -10 -18 -22 -33c-11 -15 -18 -27 -20 -37c1 1 2 0 4 -3c-1 -6 -5 -17 -12 -33c-7 -15 -12 -28 -15 -37c-6 -21 -11 -52 -14 -91l-6 -72l4 -4c3 -71 10 -129 21 -172c-1 -4 -5 1 -5 -2h7
c-1 -6 1 -10 4 -12c0 -1 -5 -2 -4 -6c5 -4 11 -14 17 -29c7 -15 13 -23 18 -26c13 -6 43 -39 65 -35v2c34 0 56 14 67 42c6 14 12 37 17 69c6 32 11 53 14 62c1 0 3 -2 4 -2c0 16 3 33 8 50c0 -3 1 -5 3 -4z" />
    <glyph glyph-name="Otilde" unicode="&#xd5;" horiz-adv-x="359" 
d="M87 796c-5 3 2 11 1 14l26 23l15 9c15 8 20 4 40 3c1 0 4 -1 8 -4c1 0 2 0 2 -1c13 -8 27 -25 42 -21c12 3 29 25 46 25c10 -10 -14 -23 -18 -26c-11 -13 -25 -23 -42 -30c-10 -1 -21 5 -33 18s-20 19 -24 20c-9 2 -21 -2 -34 -13c-13 -10 -23 -16 -29 -17zM327 410v-13
c3 -23 2 -42 -2 -56l-2 -17c-1 -32 -9 -76 -23 -131c-1 0 -2 -6 -5 -2c2 -2 2 -6 1 -11c-5 -9 -11 -26 -18 -53s-14 -45 -22 -55c-9 -28 -30 -57 -65 -88c-7 1 -20 -8 -27 -8c-13 -1 -40 9 -48 10c-1 4 -12 8 -12 15c-15 3 -24 16 -28 40c-4 0 -10 7 -6 12
c-4 5 -17 15 -10 23c-1 -1 -3 -2 -5 -2c-1 3 0 4 3 4c-13 20 -17 33 -11 40c-7 15 -10 29 -13 49c-1 10 -1 18 -2 23c0 12 -2 44 -2 51l5 6c0 1 -2 2 -5 2l1 3c1 3 2 4 4 3c-4 3 -4 9 0 9c0 0 0 1 -1 3l-2 1c-1 13 -1 32 0 56s2 42 1 53c3 1 5 -1 8 -1c1 2 1 3 -2 3
s-4 1 -4 2c1 2 2 10 2 23c1 13 3 23 8 29c10 87 35 167 75 240c21 20 51 31 88 33c35 -17 59 -35 73 -54c-2 -6 -3 -9 -4 -10c0 -4 5 2 10 0l5 -17c7 -17 8 -23 12 -39c7 -20 10 -38 8 -55c7 -8 12 -27 9 -38c0 -1 0 -2 -1 -3l-2 1c0 -8 7 -31 7 -42c0 -2 2 -28 2 -39z
M296 268c0 3 -2 7 -5 12c11 57 9 109 -8 157l2 3c3 3 3 4 0 7c-3 19 -7 38 -12 55c-11 35 -29 81 -36 102c-5 3 -11 11 -20 22c-17 23 -32 33 -53 28c-4 -1 -18 -14 -23 -13c-3 -7 -10 -18 -22 -33c-11 -15 -18 -27 -20 -37c1 1 2 0 4 -3c-1 -6 -5 -17 -12 -33
c-7 -15 -12 -28 -15 -37c-6 -21 -11 -52 -14 -91l-6 -72l4 -4c3 -71 10 -129 21 -172c-1 -4 -5 1 -5 -2h7c-1 -6 1 -10 4 -12c0 -1 -5 -2 -4 -6c5 -4 11 -14 17 -29c7 -15 13 -23 18 -26c13 -6 43 -39 65 -35v2c34 0 56 14 67 42c6 14 12 37 17 69c6 32 11 53 14 62
c1 0 3 -2 4 -2c0 16 3 33 8 50c0 -3 1 -5 3 -4z" />
    <glyph glyph-name="Odieresis" unicode="&#xd6;" horiz-adv-x="359" 
d="M150 800c-7 1 -11 8 -13 20c-2 13 2 20 11 22c13 1 25 -5 25 -16c1 -12 -12 -27 -23 -26zM218 810c-13 -11 -27 -4 -30 13c1 12 7 17 18 15c10 -2 15 -8 15 -18c0 -3 -1 -7 -3 -10zM327 410v-13c3 -23 2 -42 -2 -56l-2 -17c-1 -32 -9 -76 -23 -131c-1 0 -2 -6 -5 -2
c2 -2 2 -6 1 -11c-5 -9 -11 -26 -18 -53s-14 -45 -22 -55c-9 -28 -30 -57 -65 -88c-7 1 -20 -8 -27 -8c-13 -1 -40 9 -48 10c-1 4 -12 8 -12 15c-15 3 -24 16 -28 40c-4 0 -10 7 -6 12c-4 5 -17 15 -10 23c-1 -1 -3 -2 -5 -2c-1 3 0 4 3 4c-13 20 -17 33 -11 40
c-7 15 -10 29 -13 49c-1 10 -1 18 -2 23c0 12 -2 44 -2 51l5 6c0 1 -2 2 -5 2l1 3c1 3 2 4 4 3c-4 3 -4 9 0 9c0 0 0 1 -1 3l-2 1c-1 13 -1 32 0 56s2 42 1 53c3 1 5 -1 8 -1c1 2 1 3 -2 3s-4 1 -4 2c1 2 2 10 2 23c1 13 3 23 8 29c10 87 35 167 75 240c21 20 51 31 88 33
c35 -17 59 -35 73 -54c-2 -6 -3 -9 -4 -10c0 -4 5 2 10 0l5 -17c7 -17 8 -23 12 -39c7 -20 10 -38 8 -55c7 -8 12 -27 9 -38c0 -1 0 -2 -1 -3l-2 1c0 -8 7 -31 7 -42c0 -2 2 -28 2 -39zM296 268c0 3 -2 7 -5 12c11 57 9 109 -8 157l2 3c3 3 3 4 0 7c-3 19 -7 38 -12 55
c-11 35 -29 81 -36 102c-5 3 -11 11 -20 22c-17 23 -32 33 -53 28c-4 -1 -18 -14 -23 -13c-3 -7 -10 -18 -22 -33c-11 -15 -18 -27 -20 -37c1 1 2 0 4 -3c-1 -6 -5 -17 -12 -33c-7 -15 -12 -28 -15 -37c-6 -21 -11 -52 -14 -91l-6 -72l4 -4c3 -71 10 -129 21 -172
c-1 -4 -5 1 -5 -2h7c-1 -6 1 -10 4 -12c0 -1 -5 -2 -4 -6c5 -4 11 -14 17 -29c7 -15 13 -23 18 -26c13 -6 43 -39 65 -35v2c34 0 56 14 67 42c6 14 12 37 17 69c6 32 11 53 14 62c1 0 3 -2 4 -2c0 16 3 33 8 50c0 -3 1 -5 3 -4z" />
    <glyph glyph-name="multiply" unicode="&#xd7;" horiz-adv-x="296" 
d="M161 321c7 -11 21 -25 41 -42c21 -17 35 -31 42 -43c16 -1 29 -18 17 -29c-8 1 -13 2 -14 2l-3 12c-1 -1 -4 -2 -8 -2c-12 15 -29 31 -41 40c-11 11 -33 29 -44 38c-11 -9 -24 -26 -40 -51c-15 -24 -28 -41 -38 -50c-2 0 -3 1 -2 4c-3 -9 -12 -14 -27 -14c1 3 -1 4 -4 4
c3 4 3 6 0 7c-2 1 -3 1 -4 1c1 20 -5 23 6 40c5 9 9 14 11 17l25 29c3 13 9 21 18 23c-10 7 15 20 15 27c0 5 -9 11 -14 14l-3 3c-1 1 -11 16 -18 21c-4 4 -16 9 -17 12c-3 4 -26 24 -29 33c6 0 9 6 12 9c1 0 4 -1 7 -3c9 -5 11 -7 6 -8c16 -11 29 -23 48 -43l18 -19
c5 1 8 7 11 16c3 0 4 -1 4 -4c17 34 44 59 81 76c5 -1 9 -4 13 -9c11 -34 -60 -80 -69 -111z" />
    <glyph glyph-name="Oslash" unicode="&#xd8;" horiz-adv-x="388" 
d="M328 410v-13c3 -23 2 -42 -2 -56l-2 -17c-1 -32 -9 -76 -23 -131c-1 0 -2 -6 -5 -2c2 -2 2 -6 1 -11c-5 -9 -11 -26 -18 -53s-14 -45 -22 -55c-9 -28 -30 -57 -65 -88c-7 1 -20 -8 -27 -8c-13 -1 -40 9 -48 10c-1 4 -12 8 -12 15l-5 1c1 -4 -4 -8 -4 -12c-3 1 -5 1 -5 1
c0 -3 0 -4 -1 -5c5 -4 -4 -30 -15 -34c3 -13 -15 -18 -16 -22c-17 0 -19 5 -28 14c-1 31 12 59 15 79c2 -5 4 -3 5 5c2 11 4 17 6 20l3 1c1 2 1 4 -1 6c1 0 3 -2 4 -2c-1 3 -2 5 -2 8c4 1 5 -4 6 -4l-1 1c-7 7 -8 13 -5 18c-1 -1 -3 -2 -5 -2c-1 3 0 4 3 4
c-13 20 -17 33 -11 40c-7 15 -10 29 -13 49c-1 10 -1 18 -2 23c0 12 -2 44 -2 51l5 6c0 1 -2 2 -5 2l1 3c1 3 2 4 4 3c-4 3 -4 9 0 9c0 0 0 1 -1 3l-2 1c-1 13 -1 32 0 56s2 42 1 53c3 1 5 -1 8 -1c1 2 1 3 -2 3s-4 1 -4 2c1 2 2 10 2 23c1 13 3 23 8 29
c10 87 35 167 75 240c21 20 51 31 88 33c33 -16 57 -34 72 -53l9 22l1 5c1 8 3 13 8 13c-4 1 -3 4 2 9c2 3 3 3 4 2c-4 5 -1 14 6 14c-2 2 -1 7 3 16s8 13 12 12c-6 4 0 6 0 12c4 0 7 -6 10 -6c1 2 0 3 -3 4l-3 2c0 3 8 3 8 4c7 -3 11 -6 11 -10c-5 1 -6 1 -1 -2
c7 -5 11 -7 11 -7c-17 -58 -34 -113 -51 -165c4 -18 6 -34 5 -47c7 -8 12 -27 9 -38c0 -1 0 -2 -1 -3l-2 1c0 -8 7 -31 7 -42c0 -2 2 -28 2 -39zM63 407l-6 -72l4 -4c3 -71 10 -129 21 -172c-1 -4 -5 1 -5 -2h7c-1 -6 1 -10 4 -12c0 -1 -5 -2 -4 -6l5 -5c3 8 7 16 13 23
c0 1 -1 1 -2 1l-2 1c13 25 20 45 23 61c1 0 1 -1 1 -3l1 -4c1 1 3 2 6 2c-4 1 -5 5 -4 13c1 1 3 1 5 0c4 21 14 53 30 96s27 77 32 100c3 2 5 2 8 0c-6 4 -2 7 -2 15c3 3 4 1 7 2c-7 7 4 9 4 19c4 -2 -3 -9 8 -7c-7 9 -8 17 -4 23c4 -4 6 -3 7 2c1 4 0 7 -3 9c4 1 5 -4 8 -4
l-6 8c1 1 3 7 6 18s8 18 13 20c0 1 -1 2 -4 2l15 40c-3 7 -8 25 -11 33c-5 3 -11 11 -20 22c-17 23 -32 33 -53 28c-4 -1 -18 -14 -23 -13c-3 -7 -10 -18 -22 -33c-11 -15 -18 -27 -20 -37c1 1 2 0 4 -3c-1 -6 -5 -17 -12 -33c-7 -15 -12 -28 -15 -37
c-6 -21 -11 -52 -14 -91zM297 268c0 3 -2 7 -5 12c11 57 9 109 -8 157l2 3c3 3 3 4 0 7c-2 15 -5 30 -9 43c-12 -32 -21 -56 -28 -72c-3 0 -4 2 -5 2c2 -5 3 -9 2 -12c-1 -4 -13 -23 -16 -28c0 -1 -1 -13 -2 -16c-1 -2 -2 -3 -3 -3c4 -11 -15 -40 -20 -52
c-1 -7 -2 -26 -5 -33s-13 -18 -14 -23c-1 -4 -1 -17 -4 -21c-1 -5 -10 -14 -11 -15c-1 1 -1 0 0 -4c-7 -2 5 -2 2 -8c-8 -9 -18 -46 -27 -58c2 -3 2 -6 0 -11c-3 -9 -16 -34 -17 -37c-1 -1 -1 -2 0 -3s0 -2 -1 -1c-1 0 -2 0 -3 1c0 -3 4 -3 4 -4l-4 -12
c27 -23 46 -33 59 -31v2c34 0 56 14 67 42c6 14 12 37 17 69c6 32 11 53 14 62c1 0 3 -2 4 -2c0 16 3 33 8 50c0 -3 1 -5 3 -4zM94 3h4l-2 1c-1 -1 -1 -1 -2 -1z" />
    <glyph glyph-name="Ugrave" unicode="&#xd9;" horiz-adv-x="380" 
d="M227 788c-5 -1 -13 6 -23 21s-18 30 -25 45c-12 27 -18 51 -19 71c16 8 36 -8 48 -29c5 -8 9 -20 14 -37s10 -27 13 -32c-3 -12 9 -35 -8 -39zM342 617c7 -5 1 -24 4 -33c-3 0 -3 -6 -6 -2c3 -8 3 -14 -2 -17c0 -3 1 -4 4 -1c1 1 2 2 2 3c-1 -13 -3 -35 -4 -64
s-2 -51 -4 -65l3 -26c-1 -15 -4 -21 -9 -20c0 -2 1 -3 3 -4c2 1 3 0 3 -1c-1 -10 -3 -23 -4 -39c-1 -31 -5 -50 -13 -75c5 -10 -2 -21 -2 -36h-6c5 -4 -1 -10 4 -10l-21 -80c-5 -21 -16 -54 -27 -79l3 -2c1 -1 2 -3 1 -4c-10 -14 -26 -58 -42 -59c-1 -8 -18 -20 -29 -16
c0 -9 -10 -12 -29 -9c3 -2 2 -4 -4 -5l-23 -1c-33 4 -62 33 -75 61c-22 51 -32 108 -30 171c1 17 0 39 -2 68l-4 59c-1 22 1 35 6 38c-1 1 -3 2 -6 2c5 17 -2 39 2 54h5c-9 0 -4 19 -5 21c0 1 2 2 7 2c-1 3 -2 4 -3 3s-3 0 -4 1c4 9 0 39 4 54c3 -1 5 -1 5 0c-5 3 -6 6 -5 9
c1 2 3 3 7 2c-5 3 -7 15 -5 36c2 22 2 36 1 41l6 6c-6 29 -3 64 10 105c10 8 20 7 31 -4c1 -16 -1 -68 -6 -157v-123c0 -4 -5 -3 -6 -8c7 -33 8 -65 4 -96c8 -18 9 -36 2 -53c4 -20 7 -51 10 -94c3 -42 7 -70 11 -83c20 -47 66 -78 109 -58c3 1 4 0 4 -3c2 3 10 10 23 21
c47 110 76 261 85 453v64c1 38 2 68 5 91c-2 7 -3 16 -3 25c1 4 10 13 11 18c4 -1 11 -6 14 -6c0 -17 -8 -57 -10 -75z" />
    <glyph glyph-name="Uacute" unicode="&#xda;" horiz-adv-x="380" 
d="M188 795c-17 4 -5 27 -8 39c3 5 7 15 12 32s10 29 15 37c12 21 32 37 48 29c-1 -20 -7 -44 -19 -71c-7 -15 -15 -30 -25 -45s-18 -22 -23 -21zM342 617c7 -5 1 -24 4 -33c-3 0 -3 -6 -6 -2c3 -8 3 -14 -2 -17c0 -3 1 -4 4 -1c1 1 2 2 2 3c-1 -13 -3 -35 -4 -64
s-2 -51 -4 -65l3 -26c-1 -15 -4 -21 -9 -20c0 -2 1 -3 3 -4c2 1 3 0 3 -1c-1 -10 -3 -23 -4 -39c-1 -31 -5 -50 -13 -75c5 -10 -2 -21 -2 -36h-6c5 -4 -1 -10 4 -10l-21 -80c-5 -21 -16 -54 -27 -79l3 -2c1 -1 2 -3 1 -4c-10 -14 -26 -58 -42 -59c-1 -8 -18 -20 -29 -16
c0 -9 -10 -12 -29 -9c3 -2 2 -4 -4 -5l-23 -1c-33 4 -62 33 -75 61c-22 51 -32 108 -30 171c1 17 0 39 -2 68l-4 59c-1 22 1 35 6 38c-1 1 -3 2 -6 2c5 17 -2 39 2 54h5c-9 0 -4 19 -5 21c0 1 2 2 7 2c-1 3 -2 4 -3 3s-3 0 -4 1c4 9 0 39 4 54c3 -1 5 -1 5 0c-5 3 -6 6 -5 9
c1 2 3 3 7 2c-5 3 -7 15 -5 36c2 22 2 36 1 41l6 6c-6 29 -3 64 10 105c10 8 20 7 31 -4c1 -16 -1 -68 -6 -157v-123c0 -4 -5 -3 -6 -8c7 -33 8 -65 4 -96c8 -18 9 -36 2 -53c4 -20 7 -51 10 -94c3 -42 7 -70 11 -83c20 -47 66 -78 109 -58c3 1 4 0 4 -3c2 3 10 10 23 21
c47 110 76 261 85 453v64c1 38 2 68 5 91c-2 7 -3 16 -3 25c1 4 10 13 11 18c4 -1 11 -6 14 -6c0 -17 -8 -57 -10 -75z" />
    <glyph glyph-name="Ucircumflex" unicode="&#xdb;" horiz-adv-x="380" 
d="M210 852c-3 -2 -10 -12 -22 -30s-25 -28 -40 -29c-7 9 -5 24 7 47s23 37 32 43c32 22 36 -16 46 -37c2 -5 8 -13 18 -26s15 -22 14 -29c-25 -16 -37 46 -55 61zM342 617c7 -5 1 -24 4 -33c-3 0 -3 -6 -6 -2c3 -8 3 -14 -2 -17c0 -3 1 -4 4 -1c1 1 2 2 2 3
c-1 -13 -3 -35 -4 -64s-2 -51 -4 -65l3 -26c-1 -15 -4 -21 -9 -20c0 -2 1 -3 3 -4c2 1 3 0 3 -1c-1 -10 -3 -23 -4 -39c-1 -31 -5 -50 -13 -75c5 -10 -2 -21 -2 -36h-6c5 -4 -1 -10 4 -10l-21 -80c-5 -21 -16 -54 -27 -79l3 -2c1 -1 2 -3 1 -4c-10 -14 -26 -58 -42 -59
c-1 -8 -18 -20 -29 -16c0 -9 -10 -12 -29 -9c3 -2 2 -4 -4 -5l-23 -1c-33 4 -62 33 -75 61c-22 51 -32 108 -30 171c1 17 0 39 -2 68l-4 59c-1 22 1 35 6 38c-1 1 -3 2 -6 2c5 17 -2 39 2 54h5c-9 0 -4 19 -5 21c0 1 2 2 7 2c-1 3 -2 4 -3 3s-3 0 -4 1c4 9 0 39 4 54
c3 -1 5 -1 5 0c-5 3 -6 6 -5 9c1 2 3 3 7 2c-5 3 -7 15 -5 36c2 22 2 36 1 41l6 6c-6 29 -3 64 10 105c10 8 20 7 31 -4c1 -16 -1 -68 -6 -157v-123c0 -4 -5 -3 -6 -8c7 -33 8 -65 4 -96c8 -18 9 -36 2 -53c4 -20 7 -51 10 -94c3 -42 7 -70 11 -83c20 -47 66 -78 109 -58
c3 1 4 0 4 -3c2 3 10 10 23 21c47 110 76 261 85 453v64c1 38 2 68 5 91c-2 7 -3 16 -3 25c1 4 10 13 11 18c4 -1 11 -6 14 -6c0 -17 -8 -57 -10 -75z" />
    <glyph glyph-name="Udieresis" unicode="&#xdc;" horiz-adv-x="380" 
d="M176 798c-7 1 -11 8 -13 20c-2 13 2 20 11 22c13 1 25 -5 25 -16c1 -12 -12 -27 -23 -26zM244 808c-13 -11 -27 -4 -30 13c1 12 7 17 18 15c10 -2 15 -8 15 -18c0 -3 -1 -7 -3 -10zM342 617c7 -5 1 -24 4 -33c-3 0 -3 -6 -6 -2c3 -8 3 -14 -2 -17c0 -3 1 -4 4 -1
c1 1 2 2 2 3c-1 -13 -3 -35 -4 -64s-2 -51 -4 -65l3 -26c-1 -15 -4 -21 -9 -20c0 -2 1 -3 3 -4c2 1 3 0 3 -1c-1 -10 -3 -23 -4 -39c-1 -31 -5 -50 -13 -75c5 -10 -2 -21 -2 -36h-6c5 -4 -1 -10 4 -10l-21 -80c-5 -21 -16 -54 -27 -79l3 -2c1 -1 2 -3 1 -4
c-10 -14 -26 -58 -42 -59c-1 -8 -18 -20 -29 -16c0 -9 -10 -12 -29 -9c3 -2 2 -4 -4 -5l-23 -1c-33 4 -62 33 -75 61c-22 51 -32 108 -30 171c1 17 0 39 -2 68l-4 59c-1 22 1 35 6 38c-1 1 -3 2 -6 2c5 17 -2 39 2 54h5c-9 0 -4 19 -5 21c0 1 2 2 7 2c-1 3 -2 4 -3 3
s-3 0 -4 1c4 9 0 39 4 54c3 -1 5 -1 5 0c-5 3 -6 6 -5 9c1 2 3 3 7 2c-5 3 -7 15 -5 36c2 22 2 36 1 41l6 6c-6 29 -3 64 10 105c10 8 20 7 31 -4c1 -16 -1 -68 -6 -157v-123c0 -4 -5 -3 -6 -8c7 -33 8 -65 4 -96c8 -18 9 -36 2 -53c4 -20 7 -51 10 -94c3 -42 7 -70 11 -83
c20 -47 66 -78 109 -58c3 1 4 0 4 -3c2 3 10 10 23 21c47 110 76 261 85 453v64c1 38 2 68 5 91c-2 7 -3 16 -3 25c1 4 10 13 11 18c4 -1 11 -6 14 -6c0 -17 -8 -57 -10 -75z" />
    <glyph glyph-name="Yacute" unicode="&#xdd;" horiz-adv-x="315" 
d="M146 793c-17 4 -5 27 -8 39c3 5 7 15 12 32s10 29 15 37c12 21 32 37 48 29c-1 -20 -7 -44 -19 -71c-7 -15 -15 -30 -25 -45s-18 -22 -23 -21zM274 704c2 -1 6 -4 11 -11c-7 -9 -16 -24 -25 -47s-16 -38 -21 -46c-3 -9 -8 -41 -19 -42l2 -11c-29 -72 -49 -134 -60 -185
c0 -5 -14 -31 -17 -40l1 -2c0 -1 1 -3 1 -6c-4 -15 -22 -61 -29 -86l-29 -110c-1 -4 -1 -21 -4 -26c0 -1 -5 -5 -5 -6c-3 -11 -6 -47 -10 -62c-6 -25 -12 -38 -17 -40l2 -2c1 -1 2 -3 2 -4c-1 3 -3 3 -4 1l-2 -3c3 -5 0 -23 -8 -53c-17 -1 -16 22 -9 34l6 32c3 17 5 28 7 33
c1 3 3 4 4 5c0 0 1 0 2 3s2 29 6 40c5 20 8 32 7 37h6c-2 8 0 20 5 37c6 17 9 29 8 38c3 0 4 7 8 6c-5 3 -1 20 6 23c1 22 7 48 16 78c9 31 15 52 16 64c2 -1 3 -1 4 1s3 3 5 3c-7 0 -6 17 3 17c-3 3 -11 15 -23 34c0 8 -3 20 -10 37c-6 17 -8 30 -5 38c-1 1 -3 1 -4 0
l-23 82c-9 37 -18 66 -25 87c-1 3 -1 4 0 4c3 -1 4 -1 4 -1v3c-9 1 -11 17 -6 48c7 3 19 1 36 -6c4 -26 15 -66 32 -119c18 -53 30 -95 36 -125c5 -2 7 -6 6 -12c15 41 36 96 65 166c3 8 11 34 15 43c9 18 19 41 33 51z" />
    <glyph glyph-name="Thorn" unicode="&#xde;" horiz-adv-x="280" 
d="M62 722c14 2 26 -12 31 -14c-1 -18 -1 -38 0 -61c68 -21 115 -57 142 -108c11 -45 17 -93 17 -144c1 -51 -6 -94 -19 -128c-3 -35 -10 -54 -21 -58c-1 -3 -1 -5 2 -6l-13 -19c-7 -12 -13 -20 -18 -25c-1 -3 -8 -3 -9 -4c-3 -3 -7 -12 -8 -13c-7 -7 -12 -11 -17 -14
c-3 -1 -13 -1 -14 -2c-3 -1 -6 -9 -7 -9c-4 -3 -24 -6 -31 -14c0 -3 1 -17 2 -42c4 -51 0 -86 -23 -86c-12 0 -22 21 -25 38c-2 13 -4 28 -5 46s-1 43 -1 75v58c0 7 0 33 1 77c1 45 1 77 -1 97c0 11 -7 41 -7 54c-4 116 -6 176 -6 181c0 9 1 15 4 17c-4 12 -4 29 0 50
c0 1 1 4 4 8l3 7c3 8 1 41 19 39zM93 620v-94c0 -26 0 -86 1 -180c1 -93 1 -151 -1 -173c3 -4 4 -12 3 -24c-1 -11 2 -18 7 -21c59 49 98 129 115 242c0 3 7 4 6 8c-3 3 -3 6 -4 10c10 87 1 147 -27 182c-4 2 -13 8 -26 18s-23 16 -30 18c-2 0 -27 16 -44 14z" />
    <glyph glyph-name="germandbls" unicode="&#xdf;" horiz-adv-x="328" 
d="M265 695c5 5 18 -13 12 -21c3 -1 6 2 7 2c-1 -5 4 -8 4 -12c-3 -3 -4 1 -7 -2c5 -7 5 3 11 0c31 -92 7 -201 -73 -328c48 -36 74 -90 77 -161c3 -83 -20 -144 -69 -185c-22 -8 -45 -56 -77 -38c0 3 -2 6 -2 7c23 10 53 46 69 62l15 39c7 20 13 34 16 42c-3 29 -1 50 6 63
c-1 -1 -3 -3 -4 -6c-1 2 -1 5 -2 9c0 4 1 5 4 3c0 34 -18 83 -23 109c-1 3 -4 1 -4 -2c-4 19 -30 45 -35 54c11 12 23 32 35 61s19 45 21 48c-8 -1 1 15 2 23c3 0 5 -3 8 0c0 4 -2 6 -6 6c7 7 1 31 9 31c-3 5 -3 14 0 26s3 19 0 22c1 4 12 2 8 7c-1 1 -5 0 -8 1
c5 7 -1 29 8 32c-7 0 -8 23 0 23c0 1 -3 3 -8 6c3 9 2 21 -3 35c3 65 -96 77 -121 32c-6 -17 -11 -27 -14 -29c0 -11 -2 -21 -6 -32c-11 -36 -14 -92 -13 -132c1 -20 1 -41 0 -64v-29c0 -15 -1 -26 -2 -32l-4 1c7 -35 7 -69 -2 -101c4 -5 5 -15 4 -29c-1 -13 -1 -22 2 -27
c-1 -1 -3 -3 -6 -4c2 -23 3 -37 3 -44c1 -7 0 -21 -2 -44l-3 -54c-1 2 -2 3 -3 3s0 -3 1 -9c1 -7 2 -12 2 -15c1 -8 -1 -26 -1 -31c0 -14 5 -25 3 -34c-1 -3 -2 -4 -5 -4c7 -12 -5 -26 -20 -25c-15 0 -21 20 -21 33c4 -4 7 -2 6 5c-9 -2 -7 15 -10 21h4l-5 35l3 -2
c0 5 -6 33 -3 44c0 3 -3 21 1 29c-2 1 -3 8 -2 23s0 26 -1 31c1 -1 2 -2 3 -1l2 3l-2 1c-1 -1 -2 -1 -3 -1c3 9 -2 31 3 40c-5 29 -6 52 -1 69c-6 11 -7 30 -4 57s4 44 2 51c-6 16 -5 36 2 61c3 9 1 48 9 56c-6 0 1 47 6 71c0 1 -1 1 -2 2h-2c1 11 4 23 8 34c0 1 6 1 5 4
c-1 5 2 16 10 33l-2 3c-1 1 -1 2 0 3c3 3 9 5 12 9v4c-1 5 0 9 7 8c-3 3 2 9 2 13c7 1 17 16 25 17c-14 8 24 14 31 14c7 1 22 10 29 11h50v-5c19 0 34 -17 34 -29z" />
    <glyph glyph-name="agrave" unicode="&#xe0;" horiz-adv-x="312" 
d="M165 563c-5 -1 -13 6 -23 21s-18 30 -25 45c-12 27 -18 51 -19 71c16 8 36 -8 48 -29c5 -8 9 -20 14 -37s10 -27 13 -32c-3 -12 9 -35 -8 -39zM264 102c10 -15 32 -79 4 -90c0 -1 -1 -4 -2 -7c-27 3 -41 33 -34 53c-7 3 -2 17 -10 18c7 7 -3 8 0 15
c-20 63 -31 111 -34 142c0 3 -7 2 -6 6c-8 -1 -23 -2 -45 -2c-21 0 -37 -3 -47 -8c-2 -7 -5 -21 -8 -44c-3 -22 -8 -38 -15 -48c5 -3 -4 -23 0 -31c-1 0 -2 1 -4 2c-2 -7 -7 -40 -14 -98c-3 -1 -6 -7 -7 -7c-4 0 -9 5 -12 5c7 38 13 98 27 131c0 3 -5 4 -4 8c5 6 8 17 10 34
c3 17 6 29 9 35c0 12 9 40 8 53c1 1 3 1 6 0c-4 21 11 56 7 68c1 1 5 2 6 2c-3 9 3 22 2 30c9 3 5 9 8 21c-7 -7 -2 6 -2 6c3 5 7 5 10 2c-1 3 -2 4 -4 3c-1 -1 -3 -1 -4 -1c0 3 3 12 2 19l2 -1c3 -2 5 -2 5 1c-14 4 4 22 2 37c3 -5 5 1 6 2l-1 1l-1 -1c0 7 9 22 8 30
c9 9 19 9 29 1c10 -7 14 -17 13 -28c9 -20 18 -49 27 -86l15 -63c5 -14 16 -38 18 -52c1 -5 2 -34 5 -46l1 -2l1 2c4 -7 7 -21 10 -40l6 -33c1 -3 2 -9 5 -16c7 -15 6 -15 2 -23zM99 254c44 3 70 4 79 4c-2 11 -6 27 -11 48c-11 43 -19 77 -20 109c-8 4 -6 19 -9 23
c-2 1 -4 0 -5 -3c0 -1 -1 -1 -3 0c2 -5 1 -14 -2 -26c-3 -11 -7 -18 -10 -19c8 -11 -8 -24 -7 -28l3 2c-1 3 -1 4 1 4c1 0 2 0 3 -1c-4 -9 -5 -36 -13 -48c5 -5 3 -13 -6 -26c3 -3 2 -10 -1 -19s-2 -15 1 -20z" />
    <glyph glyph-name="aacute" unicode="&#xe1;" horiz-adv-x="312" 
d="M112 571c-17 4 -5 27 -8 39c3 5 7 15 12 32s10 29 15 37c12 21 32 37 48 29c-1 -20 -7 -44 -19 -71c-7 -15 -15 -30 -25 -45s-18 -22 -23 -21zM264 102c10 -15 32 -79 4 -90c0 -1 -1 -4 -2 -7c-27 3 -41 33 -34 53c-7 3 -2 17 -10 18c7 7 -3 8 0 15
c-20 63 -31 111 -34 142c0 3 -7 2 -6 6c-8 -1 -23 -2 -45 -2c-21 0 -37 -3 -47 -8c-2 -7 -5 -21 -8 -44c-3 -22 -8 -38 -15 -48c5 -3 -4 -23 0 -31c-1 0 -2 1 -4 2c-2 -7 -7 -40 -14 -98c-3 -1 -6 -7 -7 -7c-4 0 -9 5 -12 5c7 38 13 98 27 131c0 3 -5 4 -4 8c5 6 8 17 10 34
c3 17 6 29 9 35c0 12 9 40 8 53c1 1 3 1 6 0c-4 21 11 56 7 68c1 1 5 2 6 2c-3 9 3 22 2 30c9 3 5 9 8 21c-7 -7 -2 6 -2 6c3 5 7 5 10 2c-1 3 -2 4 -4 3c-1 -1 -3 -1 -4 -1c0 3 3 12 2 19l2 -1c3 -2 5 -2 5 1c-14 4 4 22 2 37c3 -5 5 1 6 2l-1 1l-1 -1c0 7 9 22 8 30
c9 9 19 9 29 1c10 -7 14 -17 13 -28c9 -20 18 -49 27 -86l15 -63c5 -14 16 -38 18 -52c1 -5 2 -34 5 -46l1 -2l1 2c4 -7 7 -21 10 -40l6 -33c1 -3 2 -9 5 -16c7 -15 6 -15 2 -23zM99 254c44 3 70 4 79 4c-2 11 -6 27 -11 48c-11 43 -19 77 -20 109c-8 4 -6 19 -9 23
c-2 1 -4 0 -5 -3c0 -1 -1 -1 -3 0c2 -5 1 -14 -2 -26c-3 -11 -7 -18 -10 -19c8 -11 -8 -24 -7 -28l3 2c-1 3 -1 4 1 4c1 0 2 0 3 -1c-4 -9 -5 -36 -13 -48c5 -5 3 -13 -6 -26c3 -3 2 -10 -1 -19s-2 -15 1 -20z" />
    <glyph glyph-name="acircumflex" unicode="&#xe2;" horiz-adv-x="312" 
d="M163 660c-3 -2 -10 -12 -22 -30s-25 -28 -40 -29c-7 9 -5 24 7 47s23 37 32 43c32 22 36 -16 46 -37c2 -5 8 -13 18 -26s15 -22 14 -29c-25 -16 -37 46 -55 61zM264 102c10 -15 32 -79 4 -90c0 -1 -1 -4 -2 -7c-27 3 -41 33 -34 53c-7 3 -2 17 -10 18c7 7 -3 8 0 15
c-20 63 -31 111 -34 142c0 3 -7 2 -6 6c-8 -1 -23 -2 -45 -2c-21 0 -37 -3 -47 -8c-2 -7 -5 -21 -8 -44c-3 -22 -8 -38 -15 -48c5 -3 -4 -23 0 -31c-1 0 -2 1 -4 2c-2 -7 -7 -40 -14 -98c-3 -1 -6 -7 -7 -7c-4 0 -9 5 -12 5c7 38 13 98 27 131c0 3 -5 4 -4 8c5 6 8 17 10 34
c3 17 6 29 9 35c0 12 9 40 8 53c1 1 3 1 6 0c-4 21 11 56 7 68c1 1 5 2 6 2c-3 9 3 22 2 30c9 3 5 9 8 21c-7 -7 -2 6 -2 6c3 5 7 5 10 2c-1 3 -2 4 -4 3c-1 -1 -3 -1 -4 -1c0 3 3 12 2 19l2 -1c3 -2 5 -2 5 1c-14 4 4 22 2 37c3 -5 5 1 6 2l-1 1l-1 -1c0 7 9 22 8 30
c9 9 19 9 29 1c10 -7 14 -17 13 -28c9 -20 18 -49 27 -86l15 -63c5 -14 16 -38 18 -52c1 -5 2 -34 5 -46l1 -2l1 2c4 -7 7 -21 10 -40l6 -33c1 -3 2 -9 5 -16c7 -15 6 -15 2 -23zM99 254c44 3 70 4 79 4c-2 11 -6 27 -11 48c-11 43 -19 77 -20 109c-8 4 -6 19 -9 23
c-2 1 -4 0 -5 -3c0 -1 -1 -1 -3 0c2 -5 1 -14 -2 -26c-3 -11 -7 -18 -10 -19c8 -11 -8 -24 -7 -28l3 2c-1 3 -1 4 1 4c1 0 2 0 3 -1c-4 -9 -5 -36 -13 -48c5 -5 3 -13 -6 -26c3 -3 2 -10 -1 -19s-2 -15 1 -20z" />
    <glyph glyph-name="atilde" unicode="&#xe3;" horiz-adv-x="312" 
d="M59 610c-5 3 2 11 1 14l26 23l15 9c15 8 20 4 40 3c1 0 4 -1 8 -4c1 0 2 0 2 -1c13 -8 27 -25 42 -21c12 3 29 25 46 25c10 -10 -14 -23 -18 -26c-11 -13 -25 -23 -42 -30c-10 -1 -21 5 -33 18s-20 19 -24 20c-9 2 -21 -2 -34 -13c-13 -10 -23 -16 -29 -17zM264 102
c10 -15 32 -79 4 -90c0 -1 -1 -4 -2 -7c-27 3 -41 33 -34 53c-7 3 -2 17 -10 18c7 7 -3 8 0 15c-20 63 -31 111 -34 142c0 3 -7 2 -6 6c-8 -1 -23 -2 -45 -2c-21 0 -37 -3 -47 -8c-2 -7 -5 -21 -8 -44c-3 -22 -8 -38 -15 -48c5 -3 -4 -23 0 -31c-1 0 -2 1 -4 2
c-2 -7 -7 -40 -14 -98c-3 -1 -6 -7 -7 -7c-4 0 -9 5 -12 5c7 38 13 98 27 131c0 3 -5 4 -4 8c5 6 8 17 10 34c3 17 6 29 9 35c0 12 9 40 8 53c1 1 3 1 6 0c-4 21 11 56 7 68c1 1 5 2 6 2c-3 9 3 22 2 30c9 3 5 9 8 21c-7 -7 -2 6 -2 6c3 5 7 5 10 2c-1 3 -2 4 -4 3
c-1 -1 -3 -1 -4 -1c0 3 3 12 2 19l2 -1c3 -2 5 -2 5 1c-14 4 4 22 2 37c3 -5 5 1 6 2l-1 1l-1 -1c0 7 9 22 8 30c9 9 19 9 29 1c10 -7 14 -17 13 -28c9 -20 18 -49 27 -86l15 -63c5 -14 16 -38 18 -52c1 -5 2 -34 5 -46l1 -2l1 2c4 -7 7 -21 10 -40l6 -33c1 -3 2 -9 5 -16
c7 -15 6 -15 2 -23zM99 254c44 3 70 4 79 4c-2 11 -6 27 -11 48c-11 43 -19 77 -20 109c-8 4 -6 19 -9 23c-2 1 -4 0 -5 -3c0 -1 -1 -1 -3 0c2 -5 1 -14 -2 -26c-3 -11 -7 -18 -10 -19c8 -11 -8 -24 -7 -28l3 2c-1 3 -1 4 1 4c1 0 2 0 3 -1c-4 -9 -5 -36 -13 -48
c5 -5 3 -13 -6 -26c3 -3 2 -10 -1 -19s-2 -15 1 -20z" />
    <glyph glyph-name="adieresis" unicode="&#xe4;" horiz-adv-x="312" 
d="M113 620c-7 1 -11 8 -13 20c-2 13 2 20 11 22c13 1 25 -5 25 -16c1 -12 -12 -27 -23 -26zM181 630c-13 -11 -27 -4 -30 13c1 12 7 17 18 15c10 -2 15 -8 15 -18c0 -3 -1 -7 -3 -10zM264 102c10 -15 32 -79 4 -90c0 -1 -1 -4 -2 -7c-27 3 -41 33 -34 53c-7 3 -2 17 -10 18
c7 7 -3 8 0 15c-20 63 -31 111 -34 142c0 3 -7 2 -6 6c-8 -1 -23 -2 -45 -2c-21 0 -37 -3 -47 -8c-2 -7 -5 -21 -8 -44c-3 -22 -8 -38 -15 -48c5 -3 -4 -23 0 -31c-1 0 -2 1 -4 2c-2 -7 -7 -40 -14 -98c-3 -1 -6 -7 -7 -7c-4 0 -9 5 -12 5c7 38 13 98 27 131c0 3 -5 4 -4 8
c5 6 8 17 10 34c3 17 6 29 9 35c0 12 9 40 8 53c1 1 3 1 6 0c-4 21 11 56 7 68c1 1 5 2 6 2c-3 9 3 22 2 30c9 3 5 9 8 21c-7 -7 -2 6 -2 6c3 5 7 5 10 2c-1 3 -2 4 -4 3c-1 -1 -3 -1 -4 -1c0 3 3 12 2 19l2 -1c3 -2 5 -2 5 1c-14 4 4 22 2 37c3 -5 5 1 6 2l-1 1l-1 -1
c0 7 9 22 8 30c9 9 19 9 29 1c10 -7 14 -17 13 -28c9 -20 18 -49 27 -86l15 -63c5 -14 16 -38 18 -52c1 -5 2 -34 5 -46l1 -2l1 2c4 -7 7 -21 10 -40l6 -33c1 -3 2 -9 5 -16c7 -15 6 -15 2 -23zM99 254c44 3 70 4 79 4c-2 11 -6 27 -11 48c-11 43 -19 77 -20 109
c-8 4 -6 19 -9 23c-2 1 -4 0 -5 -3c0 -1 -1 -1 -3 0c2 -5 1 -14 -2 -26c-3 -11 -7 -18 -10 -19c8 -11 -8 -24 -7 -28l3 2c-1 3 -1 4 1 4c1 0 2 0 3 -1c-4 -9 -5 -36 -13 -48c5 -5 3 -13 -6 -26c3 -3 2 -10 -1 -19s-2 -15 1 -20z" />
    <glyph glyph-name="aring" unicode="&#xe5;" horiz-adv-x="312" 
d="M133 581c-15 5 -27 17 -37 36s-11 38 -3 55c7 14 20 25 40 34c25 7 44 1 59 -16s21 -39 16 -65c-20 -40 -45 -55 -75 -44zM164 685c-45 11 -45 -63 -14 -77c6 1 14 4 25 8c9 9 12 22 9 39c-2 17 -9 27 -20 30zM264 102c10 -15 32 -79 4 -90c0 -1 -1 -4 -2 -7
c-27 3 -41 33 -34 53c-7 3 -2 17 -10 18c7 7 -3 8 0 15c-20 63 -31 111 -34 142c0 3 -7 2 -6 6c-8 -1 -23 -2 -45 -2c-21 0 -37 -3 -47 -8c-2 -7 -5 -21 -8 -44c-3 -22 -8 -38 -15 -48c5 -3 -4 -23 0 -31c-1 0 -2 1 -4 2c-2 -7 -7 -40 -14 -98c-3 -1 -6 -7 -7 -7
c-4 0 -9 5 -12 5c7 38 13 98 27 131c0 3 -5 4 -4 8c5 6 8 17 10 34c3 17 6 29 9 35c0 12 9 40 8 53c1 1 3 1 6 0c-4 21 11 56 7 68c1 1 5 2 6 2c-3 9 3 22 2 30c9 3 5 9 8 21c-7 -7 -2 6 -2 6c3 5 7 5 10 2c-1 3 -2 4 -4 3c-1 -1 -3 -1 -4 -1c0 3 3 12 2 19l2 -1
c3 -2 5 -2 5 1c-14 4 4 22 2 37c3 -5 5 1 6 2l-1 1l-1 -1c0 7 9 22 8 30c9 9 19 9 29 1c10 -7 14 -17 13 -28c9 -20 18 -49 27 -86l15 -63c5 -14 16 -38 18 -52c1 -5 2 -34 5 -46l1 -2l1 2c4 -7 7 -21 10 -40l6 -33c1 -3 2 -9 5 -16c7 -15 6 -15 2 -23zM99 254
c44 3 70 4 79 4c-2 11 -6 27 -11 48c-11 43 -19 77 -20 109c-8 4 -6 19 -9 23c-2 1 -4 0 -5 -3c0 -1 -1 -1 -3 0c2 -5 1 -14 -2 -26c-3 -11 -7 -18 -10 -19c8 -11 -8 -24 -7 -28l3 2c-1 3 -1 4 1 4c1 0 2 0 3 -1c-4 -9 -5 -36 -13 -48c5 -5 3 -13 -6 -26c3 -3 2 -10 -1 -19
s-2 -15 1 -20z" />
    <glyph glyph-name="ae" unicode="&#xe6;" horiz-adv-x="441" 
d="M400 173c3 -4 7 -21 11 -25c-1 -2 -2 -4 -5 -7c0 -1 -2 -2 -2 -3c-4 -44 -14 -80 -31 -108s-42 -38 -75 -30c-7 1 -15 6 -26 14l-4 -2c0 -1 -1 -4 -2 -7c-27 3 -41 33 -34 53c-7 3 -2 17 -10 18c7 7 -3 8 0 15c-20 63 -31 111 -34 142c0 3 -7 2 -6 6c-8 -1 -23 -2 -45 -2
c-21 0 -37 -3 -47 -8c-2 -7 -5 -21 -8 -44c-3 -22 -8 -38 -15 -48c5 -3 -4 -23 0 -31c-1 0 -2 1 -4 2c-2 -7 -7 -40 -14 -98c-3 -1 -6 -7 -7 -7c-4 0 -9 5 -12 5c7 38 13 98 27 131c0 3 -5 4 -4 8c5 6 8 17 10 34c3 17 6 29 9 35c0 12 9 40 8 53c1 1 3 1 6 0
c-4 21 11 56 7 68c1 1 5 2 6 2c-3 9 3 22 2 30c9 3 5 9 8 21c-7 -7 -2 6 -2 6c3 5 7 5 10 2c-1 3 -2 4 -4 3c-1 -1 -3 -1 -4 -1c0 3 3 12 2 19l2 -1c3 -2 5 -2 5 1c-14 4 4 22 2 37c3 -5 5 1 6 2l-1 1l-1 -1c0 7 9 22 8 30c9 9 19 9 29 1c10 -7 14 -17 13 -28
c9 -20 18 -46 22 -63l14 -62c1 39 8 74 21 104c3 0 6 10 13 9c12 33 53 49 90 40c9 -1 17 -7 24 -18s17 -34 23 -49c1 -4 9 -10 9 -13c3 -7 4 -19 5 -36s2 -28 3 -33c-9 -13 -15 -20 -16 -23c-57 0 -101 -2 -134 -6c-3 -35 -1 -76 6 -123c0 -3 -1 -5 -4 -6v-1
c3 -1 5 -3 6 -4c0 -13 1 -26 3 -41c1 -1 2 -6 5 -14c5 -15 3 -9 0 -20l1 -1c8 -14 13 -30 16 -49c5 -13 12 -22 21 -29c9 3 30 2 38 6c21 8 32 33 37 61l4 26c3 13 5 45 5 49c1 4 13 5 14 8zM315 474c-31 -4 -50 -22 -58 -51s-9 -50 -9 -83c18 -1 31 -1 39 -1c9 0 23 1 43 3
s33 3 39 3c3 8 1 31 0 35c0 -1 -1 -2 -2 -2c0 10 -7 19 2 19c-9 5 -11 21 -11 33c-8 11 -25 43 -43 44zM99 254c44 3 70 4 79 4c-2 11 -6 27 -11 48c-11 43 -19 77 -20 109c-8 4 -6 19 -9 23c-2 1 -4 0 -5 -3c0 -1 -1 -1 -3 0c2 -5 1 -14 -2 -26c-3 -11 -7 -18 -10 -19
c8 -11 -8 -24 -7 -28l3 2c-1 3 -1 4 1 4c1 0 2 0 3 -1c-4 -9 -5 -36 -13 -48c5 -5 3 -13 -6 -26c3 -3 2 -10 -1 -19s-2 -15 1 -20z" />
    <glyph glyph-name="ccedilla" unicode="&#xe7;" horiz-adv-x="265" 
d="M205 -2l-10 -1l-15 -55c10 -2 24 -7 42 -15c8 -14 10 -29 6 -46c-7 -14 -23 -32 -48 -54c-4 -4 -17 -19 -22 -22c-4 -4 -21 -14 -30 -7c15 30 84 65 64 115c-3 -1 -6 -1 -7 2c0 3 -2 3 -3 4c-5 1 -15 -1 -31 -6c-7 1 -17 11 -21 12c-5 23 -1 47 10 74
c-29 9 -53 32 -73 69s-28 72 -25 103c-5 9 -5 32 0 69c1 14 13 56 35 127c29 56 60 99 94 129c3 -1 14 -2 15 -6c-5 -9 -14 -20 -29 -35c-14 -15 -24 -27 -29 -38c-1 -1 -4 0 -7 2c-1 -4 1 -4 5 -4c-9 -9 -13 -18 -13 -27c-39 -65 -45 -160 -17 -286c2 1 3 1 3 2l-1 4
c5 -21 18 -42 39 -61s42 -27 62 -22c5 1 23 21 39 17c1 -1 1 -10 4 -11c-5 -8 -32 -22 -37 -33z" />
    <glyph glyph-name="egrave" unicode="&#xe8;" horiz-adv-x="261" 
d="M156 489c-37 9 -78 -7 -90 -40c-7 1 -10 -9 -13 -9c-25 -60 -25 -142 -17 -214c6 1 9 0 9 -3c0 -1 -9 -3 -8 -8c0 -80 5 -131 37 -188c7 -4 33 -24 46 -27c33 -8 58 2 75 30s27 64 31 108c0 1 2 2 2 3c3 3 4 5 5 7c-4 4 -8 21 -11 25c-1 -3 -13 -4 -14 -8
c0 -4 -2 -36 -5 -49l-4 -26c-5 -28 -16 -53 -37 -61c-8 -4 -29 -3 -38 -6c-11 9 -23 32 -35 69c-7 25 -11 54 -11 85c-1 3 -7 4 -8 5c4 0 6 2 6 6c-7 47 -9 88 -6 123c33 4 77 6 134 6c1 3 7 10 16 23c-1 5 -2 16 -3 33s-2 29 -5 36c0 3 -8 9 -9 13c-6 15 -16 38 -23 49
s-15 17 -24 18zM137 474c18 -1 35 -33 43 -44c0 -12 2 -28 11 -33c-9 0 -2 -9 -2 -19c1 0 2 1 2 2c1 -4 3 -27 0 -35c-6 0 -19 -1 -39 -3s-34 -3 -43 -3c-8 0 -21 0 -39 1c0 33 1 54 9 83s27 47 58 51zM69 704c16 8 36 -8 48 -29c5 -8 9 -20 14 -37s10 -27 13 -32
c-3 -12 9 -35 -8 -39c-5 -1 -13 6 -23 21s-18 30 -25 45c-12 27 -18 51 -19 71z" />
    <glyph glyph-name="eacute" unicode="&#xe9;" horiz-adv-x="261" 
d="M156 489c-37 9 -78 -7 -90 -40c-7 1 -10 -9 -13 -9c-25 -60 -25 -142 -17 -214c6 1 9 0 9 -3c0 -1 -9 -3 -8 -8c0 -80 5 -131 37 -188c7 -4 33 -24 46 -27c33 -8 58 2 75 30s27 64 31 108c0 1 2 2 2 3c3 3 4 5 5 7c-4 4 -8 21 -11 25c-1 -3 -13 -4 -14 -8
c0 -4 -2 -36 -5 -49l-4 -26c-5 -28 -16 -53 -37 -61c-8 -4 -29 -3 -38 -6c-11 9 -23 32 -35 69c-7 25 -11 54 -11 85c-1 3 -7 4 -8 5c4 0 6 2 6 6c-7 47 -9 88 -6 123c33 4 77 6 134 6c1 3 7 10 16 23c-1 5 -2 16 -3 33s-2 29 -5 36c0 3 -8 9 -9 13c-6 15 -16 38 -23 49
s-15 17 -24 18zM137 474c18 -1 35 -33 43 -44c0 -12 2 -28 11 -33c-9 0 -2 -9 -2 -19c1 0 2 1 2 2c1 -4 3 -27 0 -35c-6 0 -19 -1 -39 -3s-34 -3 -43 -3c-8 0 -21 0 -39 1c0 33 1 54 9 83s27 47 58 51zM151 701c-1 -20 -7 -44 -19 -71c-7 -15 -15 -30 -25 -45
s-18 -22 -23 -21c-17 4 -5 27 -8 39c3 5 7 15 12 32s10 29 15 37c12 21 32 37 48 29z" />
    <glyph glyph-name="ecircumflex" unicode="&#xea;" horiz-adv-x="261" 
d="M156 489c-37 9 -78 -7 -90 -40c-7 1 -10 -9 -13 -9c-25 -60 -25 -142 -17 -214c6 1 9 0 9 -3c0 -1 -9 -3 -8 -8c0 -80 5 -131 37 -188c7 -4 33 -24 46 -27c33 -8 58 2 75 30s27 64 31 108c0 1 2 2 2 3c3 3 4 5 5 7c-4 4 -8 21 -11 25c-1 -3 -13 -4 -14 -8
c0 -4 -2 -36 -5 -49l-4 -26c-5 -28 -16 -53 -37 -61c-8 -4 -29 -3 -38 -6c-11 9 -23 32 -35 69c-7 25 -11 54 -11 85c-1 3 -7 4 -8 5c4 0 6 2 6 6c-7 47 -9 88 -6 123c33 4 77 6 134 6c1 3 7 10 16 23c-1 5 -2 16 -3 33s-2 29 -5 36c0 3 -8 9 -9 13c-6 15 -16 38 -23 49
s-15 17 -24 18zM137 474c18 -1 35 -33 43 -44c0 -12 2 -28 11 -33c-9 0 -2 -9 -2 -19c1 0 2 1 2 2c1 -4 3 -27 0 -35c-6 0 -19 -1 -39 -3s-34 -3 -43 -3c-8 0 -21 0 -39 1c0 33 1 54 9 83s27 47 58 51zM184 606c-25 -16 -37 46 -55 61c-3 -2 -10 -12 -22 -30
s-25 -28 -40 -29c-7 9 -5 24 7 47s23 37 32 43c32 22 36 -16 46 -37c2 -5 8 -13 18 -26s15 -22 14 -29z" />
    <glyph glyph-name="edieresis" unicode="&#xeb;" horiz-adv-x="261" 
d="M93 631c13 1 25 -5 25 -16c1 -12 -12 -27 -23 -26c-7 1 -11 8 -13 20c-2 13 2 20 11 22zM133 612c0 3 1 5 2 7c4 9 11 11 21 6c11 -6 14 -15 7 -26c-13 -11 -27 -4 -30 13zM156 489c-37 9 -78 -7 -90 -40c-7 1 -10 -9 -13 -9c-25 -60 -25 -142 -17 -214c6 1 9 0 9 -3
c0 -1 -9 -3 -8 -8c0 -80 5 -131 37 -188c7 -4 33 -24 46 -27c33 -8 58 2 75 30s27 64 31 108c0 1 2 2 2 3c3 3 4 5 5 7c-4 4 -8 21 -11 25c-1 -3 -13 -4 -14 -8c0 -4 -2 -36 -5 -49l-4 -26c-5 -28 -16 -53 -37 -61c-8 -4 -29 -3 -38 -6c-11 9 -23 32 -35 69
c-7 25 -11 54 -11 85c-1 3 -7 4 -8 5c4 0 6 2 6 6c-7 47 -9 88 -6 123c33 4 77 6 134 6c1 3 7 10 16 23c-1 5 -2 16 -3 33s-2 29 -5 36c0 3 -8 9 -9 13c-6 15 -16 38 -23 49s-15 17 -24 18zM137 474c18 -1 35 -33 43 -44c0 -12 2 -28 11 -33c-9 0 -2 -9 -2 -19c1 0 2 1 2 2
c1 -4 3 -27 0 -35c-6 0 -19 -1 -39 -3s-34 -3 -43 -3c-8 0 -21 0 -39 1c0 33 1 54 9 83s27 47 58 51z" />
    <glyph glyph-name="igrave" unicode="&#xec;" horiz-adv-x="182" 
d="M37 44c13 -1 22 0 27 2l-6 17c5 2 2 8 -2 17c-3 14 -3 35 -2 62l3 78c1 35 2 57 3 66c1 8 7 41 8 52c-4 1 -33 2 -37 9c-2 6 4 9 4 16c1 -3 13 -4 34 -3c22 1 34 1 37 1c7 -1 13 0 18 2c4 3 17 -2 21 -2c9 -23 -13 -21 -29 -22c2 -46 1 -73 -4 -80c3 -2 5 -4 6 -6l-3 -36
c-1 -17 -3 -28 -7 -33c1 -3 3 -4 6 -4c-3 -11 -5 -32 -4 -62c1 -29 0 -53 -2 -70c7 -3 19 -3 37 0c5 -5 7 -11 7 -18c-12 -7 -93 -5 -105 -7c-11 -1 -19 5 -10 21zM43 626c16 8 36 -8 48 -29c5 -8 9 -20 14 -37s10 -27 13 -32c-3 -12 9 -35 -8 -39c-5 -1 -13 6 -23 21
s-18 30 -25 45c-12 27 -18 51 -19 71z" />
    <glyph glyph-name="iacute" unicode="&#xed;" horiz-adv-x="182" 
d="M37 44c13 -1 22 0 27 2l-6 17c5 2 2 8 -2 17c-3 14 -3 35 -2 62l3 78c1 35 2 57 3 66c1 8 7 41 8 52c-4 1 -33 2 -37 9c-2 6 4 9 4 16c1 -3 13 -4 34 -3c22 1 34 1 37 1c7 -1 13 0 18 2c4 3 17 -2 21 -2c9 -23 -13 -21 -29 -22c2 -46 1 -73 -4 -80c3 -2 5 -4 6 -6l-3 -36
c-1 -17 -3 -28 -7 -33c1 -3 3 -4 6 -4c-3 -11 -5 -32 -4 -62c1 -29 0 -53 -2 -70c7 -3 19 -3 37 0c5 -5 7 -11 7 -18c-12 -7 -93 -5 -105 -7c-11 -1 -19 5 -10 21zM142 635c-1 -20 -7 -44 -19 -71c-7 -15 -15 -30 -25 -45s-18 -22 -23 -21c-17 4 -5 27 -8 39c3 5 7 15 12 32
s10 29 15 37c12 21 32 37 48 29z" />
    <glyph glyph-name="icircumflex" unicode="&#xee;" horiz-adv-x="182" 
d="M44 44c13 -1 22 0 27 2l-6 17c5 2 2 8 -2 17c-3 14 -3 35 -2 62l3 78c1 35 2 57 3 66c1 8 7 41 8 52c-4 1 -33 2 -37 9c-2 6 4 9 4 16c1 -3 13 -4 34 -3c22 1 34 1 37 1c7 -1 13 0 18 2c4 3 17 -2 21 -2c9 -23 -13 -21 -29 -22c2 -46 1 -73 -4 -80c3 -2 5 -4 6 -6l-3 -36
c-1 -17 -3 -28 -7 -33c1 -3 3 -4 6 -4c-3 -11 -5 -32 -4 -62c1 -29 0 -53 -2 -70c7 -3 19 -3 37 0c5 -5 7 -11 7 -18c-12 -7 -93 -5 -105 -7c-11 -1 -19 5 -10 21zM158 499c-25 -16 -37 46 -55 61c-3 -2 -10 -12 -22 -30s-25 -28 -40 -29c-7 9 -5 24 7 47s23 37 32 43
c32 22 36 -16 46 -37c2 -5 8 -13 18 -26s15 -22 14 -29z" />
    <glyph glyph-name="idieresis" unicode="&#xef;" horiz-adv-x="182" 
d="M37 44c13 -1 22 0 27 2l-6 17c5 2 2 8 -2 17c-3 14 -3 35 -2 62l3 78c1 35 2 57 3 66c1 8 7 41 8 52c-4 1 -33 2 -37 9c-2 6 4 9 4 16c1 -3 13 -4 34 -3c22 1 34 1 37 1c7 -1 13 0 18 2c4 3 17 -2 21 -2c9 -23 -13 -21 -29 -22c2 -46 1 -73 -4 -80c3 -2 5 -4 6 -6l-3 -36
c-1 -17 -3 -28 -7 -33c1 -3 3 -4 6 -4c-3 -11 -5 -32 -4 -62c1 -29 0 -53 -2 -70c7 -3 19 -3 37 0c5 -5 7 -11 7 -18c-12 -7 -93 -5 -105 -7c-11 -1 -19 5 -10 21zM61 522c13 1 25 -5 25 -16c1 -12 -12 -27 -23 -26c-7 1 -11 8 -13 20c-2 13 2 20 11 22zM101 503l2 7
c4 9 11 11 21 6c11 -6 14 -15 7 -26c-13 -11 -27 -4 -30 13z" />
    <glyph glyph-name="eth" unicode="&#xf0;" horiz-adv-x="317" 
d="M290 108l-3 -3c-1 -1 -2 0 -3 1c-1 -3 1 -4 6 -4c0 -1 -1 -16 -4 -43s-8 -46 -15 -57c-13 -17 -34 -15 -41 12c0 4 2 6 6 6c0 1 -3 1 -8 1c2 14 -3 24 4 31c-6 0 -15 -5 -26 -16c-11 -10 -21 -15 -28 -15c-1 -5 -9 -9 -13 -5c1 -1 0 -2 -3 -3c-8 -5 -12 -6 -12 -1
c-1 0 -2 -2 -2 -6c-45 -9 -79 11 -102 60c1 3 1 4 2 5c-1 -1 -2 0 -4 2c-3 3 -5 13 -8 30s-3 27 0 30c-3 0 -4 13 -2 38c5 33 23 63 54 90c3 1 7 -1 8 -1c3 3 -1 8 2 9c2 0 8 3 17 8c9 6 16 7 19 4c1 0 2 2 2 5c9 -4 29 6 29 -3c29 9 58 -26 63 -31c3 -2 3 -5 2 -8
c5 3 7 9 4 19c-3 11 -2 17 2 18c-8 8 -4 24 -4 34l-2 -6c0 8 -1 17 -4 28c-5 21 -18 56 -21 65c0 1 1 8 0 9c-1 5 -16 27 -19 27c-8 1 -15 -11 -21 -36c-8 -9 -16 -9 -23 0c4 23 24 42 29 57c0 7 -16 16 -12 21c-4 0 -28 23 -29 27c-9 1 -36 21 -49 25c-5 1 -28 1 -37 6
c-1 3 -1 4 0 4c-3 3 -1 6 6 11c36 -5 54 -7 79 -23l20 -11c3 -2 11 -7 22 -16l21 -15c4 7 18 13 15 23c8 0 18 33 39 23c-1 -1 0 -3 2 -4c-10 -15 -34 -42 -41 -61c8 -6 14 -24 21 -33c1 -1 9 -3 10 -4c7 -7 17 -33 12 -36c0 -3 7 -3 7 -4c21 -67 28 -111 23 -134
c10 -29 12 -52 6 -69c-1 -4 4 -5 4 -6c2 -6 -4 -5 -4 -8c7 -11 1 -46 4 -67zM226 148c1 4 0 12 -2 23c-2 12 -2 18 1 19c-4 0 -7 6 -8 6c1 7 -5 15 -16 23s-17 14 -19 19c-7 -1 -11 0 -11 3c0 1 1 2 2 3c-43 7 -58 -10 -85 -32c-1 -12 -6 -23 -11 -22c-1 -8 -11 -40 -8 -57
c3 -13 9 -28 20 -46c11 -17 16 -27 17 -29c3 -1 4 4 5 4c18 -17 42 -18 71 -4c-3 0 -3 1 -2 2c29 20 44 49 46 88z" />
    <glyph glyph-name="ntilde" unicode="&#xf1;" horiz-adv-x="279" 
d="M51 604c-5 3 2 11 1 14l26 23l15 9c15 8 20 4 40 3c1 0 4 -1 8 -4c1 0 2 0 2 -1c13 -8 27 -25 42 -21c12 3 29 25 46 25c10 -10 -14 -23 -18 -26c-11 -13 -25 -23 -42 -30c-10 -1 -21 5 -33 18s-20 19 -24 20c-9 2 -21 -2 -34 -13c-13 -10 -23 -16 -29 -17zM249 475
c0 -1 -6 -2 -8 -2c0 -1 7 -2 6 -5c-2 -32 -2 -75 -7 -87c-1 -2 0 -4 2 -5l3 -1c-1 -1 -1 -3 -1 -6c0 -5 -1 -8 -4 -7c4 -3 4 -11 0 -25c-1 -4 -3 -6 -4 -6c3 -7 4 -14 5 -21c-1 0 -2 -2 -2 -5l-3 -4c-5 -72 -9 -114 -12 -127c-2 -11 -3 -18 -2 -23c2 -9 2 -31 0 -66
c-1 -34 -2 -56 -2 -65c4 -16 4 -33 -15 -34l3 4c-3 -1 -4 -3 -5 -6c-10 4 -18 10 -23 17c-11 16 -16 45 -19 52c-1 1 1 3 4 4c-1 1 -4 1 -4 0c-51 153 -85 257 -100 311c-1 -2 -2 -10 -1 -23s0 -20 -5 -21c3 -30 3 -70 2 -121s-4 -90 -8 -118c8 -23 0 -57 2 -86
c-7 -2 -12 -3 -15 -2c-3 5 -5 8 -6 8c1 23 3 72 4 145s4 125 8 156c-7 2 -4 8 -2 12l2 2c0 1 -4 6 -4 7c0 21 1 37 2 48c1 3 2 3 4 2c0 8 -6 33 -6 44s1 27 3 50s3 41 3 54h4c3 1 5 1 5 2c8 -5 14 -15 18 -29c8 -27 14 -69 19 -84l25 -82l23 -74c2 -7 8 -25 19 -54
s18 -52 21 -69c5 -5 9 -20 14 -25c0 -2 -1 -3 -4 -3c5 -3 6 -16 11 -20c3 1 4 5 4 12c2 6 2 18 1 36c-1 19 0 31 1 37c1 1 2 2 4 2c-7 9 -6 16 2 19c-3 33 1 69 11 108c-4 1 -5 10 -2 29s4 31 4 34c0 1 1 1 4 0c1 -1 3 -1 4 0s0 2 -2 3c-3 0 -4 2 -4 3c-3 6 -2 13 1 22
c1 3 2 4 3 3c-1 3 -3 4 -4 2c-3 13 -1 34 4 65c1 0 6 -4 10 -4c-3 3 -7 5 -12 6c1 7 -3 35 0 50c25 16 19 -28 21 -39z" />
    <glyph glyph-name="ograve" unicode="&#xf2;" horiz-adv-x="302" 
d="M126 699c16 8 36 -8 48 -29c5 -8 9 -20 14 -37s10 -27 13 -32c-3 -12 9 -35 -8 -39c-5 -1 -13 6 -23 21s-18 30 -25 45c-12 27 -18 51 -19 71zM200 515c-42 9 -78 -6 -107 -43h6c-45 -75 -64 -156 -56 -244c-11 -86 6 -228 123 -240c24 -2 41 10 55 21c7 7 24 28 29 33
c16 43 26 99 30 168c5 69 3 128 -5 176c-5 39 -6 47 -15 71c-5 12 -11 23 -19 34c-5 7 -15 12 -29 16c-3 1 -9 7 -12 8zM143 484c25 2 47 -4 65 -19c25 -51 41 -133 46 -244c5 -105 -19 -174 -71 -208l-38 14c-26 25 -45 66 -56 122c-11 57 -16 116 -13 179
c1 64 30 127 67 156z" />
    <glyph glyph-name="oacute" unicode="&#xf3;" horiz-adv-x="302" 
d="M200 515c-42 9 -78 -6 -107 -43h6c-45 -75 -64 -156 -56 -244c-11 -86 6 -228 123 -240c24 -2 41 10 55 21c7 7 24 28 29 33c16 43 26 99 30 168c5 69 3 128 -5 176c-5 39 -6 47 -15 71c-5 12 -11 23 -19 34c-5 7 -15 12 -29 16c-3 1 -9 7 -12 8zM143 484
c25 2 47 -4 65 -19c25 -51 41 -133 46 -244c5 -105 -19 -174 -71 -208l-38 14c-26 25 -45 66 -56 122c-11 57 -16 116 -13 179c1 64 30 127 67 156zM205 701c-1 -20 -7 -44 -19 -71c-7 -15 -15 -30 -25 -45s-18 -22 -23 -21c-17 4 -5 27 -8 39c3 5 7 15 12 32s10 29 15 37
c12 21 32 37 48 29z" />
    <glyph glyph-name="ocircumflex" unicode="&#xf4;" horiz-adv-x="302" 
d="M200 515c-42 9 -78 -6 -107 -43h6c-45 -75 -64 -156 -56 -244c-11 -86 6 -228 123 -240c24 -2 41 10 55 21c7 7 24 28 29 33c16 43 26 99 30 168c5 69 3 128 -5 176c-5 39 -6 47 -15 71c-5 12 -11 23 -19 34c-5 7 -15 12 -29 16c-3 1 -9 7 -12 8zM143 484
c25 2 47 -4 65 -19c25 -51 41 -133 46 -244c5 -105 -19 -174 -71 -208l-38 14c-26 25 -45 66 -56 122c-11 57 -16 116 -13 179c1 64 30 127 67 156zM240 603c-25 -16 -37 46 -55 61c-3 -2 -10 -12 -22 -30s-25 -28 -40 -29c-7 9 -5 24 7 47s23 37 32 43c32 22 36 -16 46 -37
c2 -5 8 -13 18 -26s15 -22 14 -29z" />
    <glyph glyph-name="otilde" unicode="&#xf5;" horiz-adv-x="302" 
d="M251 633c10 -10 -14 -23 -18 -26c-11 -13 -25 -23 -42 -30c-10 -1 -21 5 -33 18s-20 19 -24 20c-9 2 -21 -2 -34 -13c-13 -10 -23 -16 -29 -17c-5 3 2 11 1 14l26 23l15 9c15 8 20 4 40 3c1 0 4 -1 8 -4l2 -1c13 -8 27 -25 42 -21c12 3 29 25 46 25zM200 515
c-42 9 -78 -6 -107 -43h6c-45 -75 -64 -156 -56 -244c-11 -86 6 -228 123 -240c24 -2 41 10 55 21c7 7 24 28 29 33c16 43 26 99 30 168c5 69 3 128 -5 176c-5 39 -6 47 -15 71c-5 12 -11 23 -19 34c-5 7 -15 12 -29 16c-3 1 -9 7 -12 8zM143 484c25 2 47 -4 65 -19
c25 -51 41 -133 46 -244c5 -105 -19 -174 -71 -208l-38 14c-26 25 -45 66 -56 122c-11 57 -16 116 -13 179c1 64 30 127 67 156z" />
    <glyph glyph-name="odieresis" unicode="&#xf6;" horiz-adv-x="302" 
d="M135 627c13 1 25 -5 25 -16c1 -12 -12 -27 -23 -26c-7 1 -11 8 -13 20c-2 13 2 20 11 22zM175 608c0 3 1 5 2 7c4 9 11 11 21 6c11 -6 14 -15 7 -26c-13 -11 -27 -4 -30 13zM200 515c-42 9 -78 -6 -107 -43h6c-45 -75 -64 -156 -56 -244c-11 -86 6 -228 123 -240
c24 -2 41 10 55 21c7 7 24 28 29 33c16 43 26 99 30 168c5 69 3 128 -5 176c-5 39 -6 47 -15 71c-5 12 -11 23 -19 34c-5 7 -15 12 -29 16c-3 1 -9 7 -12 8zM143 484c25 2 47 -4 65 -19c25 -51 41 -133 46 -244c5 -105 -19 -174 -71 -208l-38 14c-26 25 -45 66 -56 122
c-11 57 -16 116 -13 179c1 64 30 127 67 156z" />
    <glyph glyph-name="divide" unicode="&#xf7;" horiz-adv-x="306" 
d="M142 398c-5 -1 -10 4 -14 4c-1 3 -2 8 -1 16l1 11c11 11 16 0 23 0c2 -7 -1 -17 -9 -31zM268 370c1 -3 4 -6 8 -10c-7 -11 -23 -16 -34 -17h-47c-9 0 -40 -5 -59 -6c-9 -1 -22 -1 -39 -1s-30 0 -38 -1c-8 0 -23 -10 -29 2c3 1 4 2 3 4c-1 1 -1 1 -1 2c3 7 12 11 25 11
c14 1 23 2 27 4c3 0 5 -2 8 -6l50 5c26 2 48 4 65 7c11 -3 44 6 61 6zM136 285c1 3 6 5 13 6c9 -11 13 -21 10 -31c-4 -1 -12 -8 -17 -8c-13 13 -15 23 -8 31l4 -1c3 1 3 2 -2 3z" />
    <glyph glyph-name="oslash" unicode="&#xf8;" horiz-adv-x="326" 
d="M305 454c-1 -8 -11 -28 -19 -29l-7 -16l3 -23c8 -48 10 -107 5 -176c-4 -69 -14 -125 -30 -168c-5 -5 -22 -26 -29 -33c-14 -11 -31 -23 -55 -21c-48 5 -83 32 -105 81c-9 -12 -17 -19 -22 -21c-17 13 2 33 17 29c-1 3 -3 3 -6 2s-5 -1 -6 0c2 2 6 10 10 10
c-15 44 -18 90 -11 139c-8 88 11 169 56 244h-6c29 37 65 52 107 43c3 -1 9 -7 12 -8c14 -4 24 -9 29 -16c13 -17 22 -36 27 -58l15 27c4 0 11 -4 15 -6zM83 328c-3 -65 1 -125 13 -181c9 18 25 46 49 84c25 38 41 65 49 80c1 0 6 0 7 1c-5 6 28 45 39 61l4 6
c-8 33 -18 62 -29 86c-18 15 -40 21 -65 19c-37 -29 -66 -92 -67 -156zM261 221c-3 56 -7 101 -13 135l-42 -61c-21 -30 -37 -53 -47 -70c-5 -8 -13 -42 -28 -46c3 -1 -1 -19 -10 -12c0 -1 4 -4 4 -5l-23 -38c11 -43 28 -75 50 -97l38 -14c52 34 76 103 71 208z" />
    <glyph glyph-name="ugrave" unicode="&#xf9;" 
d="M111 25c8 -4 25 -22 38 -25c33 -7 49 12 62 55c7 22 11 35 13 39c0 1 -4 1 -4 4c14 41 20 93 19 157c0 4 0 6 -1 6c1 5 3 6 5 4c-2 16 -2 40 -1 73s1 58 -1 76c1 1 3 1 6 0c-6 5 -8 13 -6 25c2 13 8 18 18 16c8 -8 2 -18 2 -27c-1 -19 -1 -52 -2 -99
c0 -47 -1 -82 -2 -105c-1 -8 2 -43 -6 -48c2 -14 0 -35 -7 -63s-10 -46 -10 -54l-2 -2c-1 -1 -3 -2 -4 -2c1 -25 -10 -46 -33 -64c-23 -19 -48 -21 -75 -7c-1 0 -1 -1 -1 -4c-5 2 -6 4 -4 6c-24 0 -41 14 -56 42l-12 20c0 3 1 5 4 5c-6 6 -11 20 -14 43s-3 40 -1 53
c-3 24 -5 48 -4 71c0 4 1 5 4 2c1 5 -4 22 -4 27c1 17 2 41 5 72s4 55 5 70c1 31 4 54 9 69c6 3 14 5 25 8c20 -17 20 -49 13 -93c-3 -21 -4 -37 -3 -47c1 -20 -2 -40 -8 -60c4 -9 5 -35 3 -79c-1 -43 0 -73 3 -90c1 -5 7 -19 8 -23c0 -4 -3 -19 3 -17c2 -8 9 -19 20 -34h-4
zM113 702c16 8 36 -8 48 -29c5 -8 9 -20 14 -37s10 -27 13 -32c-3 -12 9 -35 -8 -39c-5 -1 -13 6 -23 21s-18 30 -25 45c-12 27 -18 51 -19 71z" />
    <glyph glyph-name="uacute" unicode="&#xfa;" 
d="M111 25c8 -4 25 -22 38 -25c33 -7 49 12 62 55c7 22 11 35 13 39c0 1 -4 1 -4 4c14 41 20 93 19 157c0 4 0 6 -1 6c1 5 3 6 5 4c-2 16 -2 40 -1 73s1 58 -1 76c1 1 3 1 6 0c-6 5 -8 13 -6 25c2 13 8 18 18 16c8 -8 2 -18 2 -27c-1 -19 -1 -52 -2 -99
c0 -47 -1 -82 -2 -105c-1 -8 2 -43 -6 -48c2 -14 0 -35 -7 -63s-10 -46 -10 -54l-2 -2c-1 -1 -3 -2 -4 -2c1 -25 -10 -46 -33 -64c-23 -19 -48 -21 -75 -7c-1 0 -1 -1 -1 -4c-5 2 -6 4 -4 6c-24 0 -41 14 -56 42l-12 20c0 3 1 5 4 5c-6 6 -11 20 -14 43s-3 40 -1 53
c-3 24 -5 48 -4 71c0 4 1 5 4 2c1 5 -4 22 -4 27c1 17 2 41 5 72s4 55 5 70c1 31 4 54 9 69c6 3 14 5 25 8c20 -17 20 -49 13 -93c-3 -21 -4 -37 -3 -47c1 -20 -2 -40 -8 -60c4 -9 5 -35 3 -79c-1 -43 0 -73 3 -90c1 -5 7 -19 8 -23c0 -4 -3 -19 3 -17c2 -8 9 -19 20 -34h-4
zM199 700c-1 -20 -7 -44 -19 -71c-7 -15 -15 -30 -25 -45s-18 -22 -23 -21c-17 4 -5 27 -8 39c3 5 7 15 12 32s10 29 15 37c12 21 32 37 48 29z" />
    <glyph glyph-name="ucircumflex" unicode="&#xfb;" 
d="M111 25c8 -4 25 -22 38 -25c33 -7 49 12 62 55c7 22 11 35 13 39c0 1 -4 1 -4 4c14 41 20 93 19 157c0 4 0 6 -1 6c1 5 3 6 5 4c-2 16 -2 40 -1 73s1 58 -1 76c1 1 3 1 6 0c-6 5 -8 13 -6 25c2 13 8 18 18 16c8 -8 2 -18 2 -27c-1 -19 -1 -52 -2 -99
c0 -47 -1 -82 -2 -105c-1 -8 2 -43 -6 -48c2 -14 0 -35 -7 -63s-10 -46 -10 -54l-2 -2c-1 -1 -3 -2 -4 -2c1 -25 -10 -46 -33 -64c-23 -19 -48 -21 -75 -7c-1 0 -1 -1 -1 -4c-5 2 -6 4 -4 6c-24 0 -41 14 -56 42l-12 20c0 3 1 5 4 5c-6 6 -11 20 -14 43s-3 40 -1 53
c-3 24 -5 48 -4 71c0 4 1 5 4 2c1 5 -4 22 -4 27c1 17 2 41 5 72s4 55 5 70c1 31 4 54 9 69c6 3 14 5 25 8c20 -17 20 -49 13 -93c-3 -21 -4 -37 -3 -47c1 -20 -2 -40 -8 -60c4 -9 5 -35 3 -79c-1 -43 0 -73 3 -90c1 -5 7 -19 8 -23c0 -4 -3 -19 3 -17c2 -8 9 -19 20 -34h-4
zM226 603c-25 -16 -37 46 -55 61c-3 -2 -10 -12 -22 -30s-25 -28 -40 -29c-7 9 -5 24 7 47s23 37 32 43c32 22 36 -16 46 -37c2 -5 8 -13 18 -26s15 -22 14 -29z" />
    <glyph glyph-name="udieresis" unicode="&#xfc;" 
d="M124 632c13 1 25 -5 25 -16c1 -12 -12 -27 -23 -26c-7 1 -11 8 -13 20c-2 13 2 20 11 22zM164 613c0 3 1 5 2 7c4 9 11 11 21 6c11 -6 14 -15 7 -26c-13 -11 -27 -4 -30 13zM111 25c8 -4 25 -22 38 -25c33 -7 49 12 62 55c7 22 11 35 13 39c0 1 -4 1 -4 4
c14 41 20 93 19 157c0 4 0 6 -1 6c1 5 3 6 5 4c-2 16 -2 40 -1 73s1 58 -1 76c1 1 3 1 6 0c-6 5 -8 13 -6 25c2 13 8 18 18 16c8 -8 2 -18 2 -27c-1 -19 -1 -52 -2 -99c0 -47 -1 -82 -2 -105c-1 -8 2 -43 -6 -48c2 -14 0 -35 -7 -63s-10 -46 -10 -54l-2 -2
c-1 -1 -3 -2 -4 -2c1 -25 -10 -46 -33 -64c-23 -19 -48 -21 -75 -7c-1 0 -1 -1 -1 -4c-5 2 -6 4 -4 6c-24 0 -41 14 -56 42l-12 20c0 3 1 5 4 5c-6 6 -11 20 -14 43s-3 40 -1 53c-3 24 -5 48 -4 71c0 4 1 5 4 2c1 5 -4 22 -4 27c1 17 2 41 5 72s4 55 5 70c1 31 4 54 9 69
c6 3 14 5 25 8c20 -17 20 -49 13 -93c-3 -21 -4 -37 -3 -47c1 -20 -2 -40 -8 -60c4 -9 5 -35 3 -79c-1 -43 0 -73 3 -90c1 -5 7 -19 8 -23c0 -4 -3 -19 3 -17c2 -8 9 -19 20 -34h-4z" />
    <glyph glyph-name="yacute" unicode="&#xfd;" horiz-adv-x="354" 
d="M92 502c-20 4 -23 -5 -39 -8c-4 -15 -8 -36 -11 -63l-6 -46c-3 -16 -2 -45 3 -87s8 -68 7 -78c5 -21 18 -41 40 -62c14 -7 31 -10 50 -8c19 3 32 9 38 20c11 0 20 16 27 19c0 -31 -14 -59 -10 -79c-4 4 -6 5 -7 2c0 -23 -2 -40 -6 -50c-3 -7 -18 -20 -21 -25
c-1 -2 -5 -6 -10 -11l-2 -3c-12 -15 -15 -23 -9 -22c-13 -11 -27 -31 -42 -60c-11 -7 -16 -17 -16 -32c-11 0 -19 -22 -23 -35c0 -1 1 -3 2 -4l2 -2c-1 0 -3 1 -6 2c-9 -37 -4 -59 14 -67c3 -3 15 2 19 2c11 0 28 -6 36 2v7c17 3 29 14 45 39l15 23c-1 12 15 32 8 40
c4 3 6 11 7 25s4 24 8 31c-4 0 0 9 -2 13c8 16 11 39 6 48c8 8 13 30 9 43l28 35c13 17 23 30 30 38c15 17 41 45 61 61c0 10 -1 16 -2 17c-8 0 -12 -2 -13 -6c-20 -12 -40 -34 -64 -65c-12 -15 -21 -25 -28 -32c0 5 1 14 4 26s2 19 -2 20c9 4 5 22 9 30c2 6 10 40 12 56
c1 11 5 36 12 74c7 39 12 71 15 98s4 50 2 68c-7 3 -13 5 -20 4c-13 -11 -16 -36 -21 -52c-1 -25 -6 -62 -15 -109s-14 -82 -15 -106c-31 -42 -63 -59 -96 -50c-17 35 -24 69 -21 104c-1 0 -3 0 -4 -1s-1 0 -2 1c9 12 0 23 0 38l4 67c0 4 1 15 3 34s3 34 3 47s-2 23 -6 29z
M163 14c2 0 3 -1 3 -2l-9 -54c-4 -29 -8 -51 -12 -67c-12 -45 -37 -67 -75 -65c-3 40 16 73 41 110c13 18 22 34 27 47c8 5 21 27 25 31zM228 698c-1 -20 -7 -44 -19 -71c-7 -15 -15 -30 -25 -45s-18 -22 -23 -21c-17 4 -5 27 -8 39c3 5 7 15 12 32s10 29 15 37
c12 21 32 37 48 29z" />
    <glyph glyph-name="thorn" unicode="&#xfe;" horiz-adv-x="291" 
d="M262 437v-4c7 -6 11 -19 12 -39c1 -19 0 -33 -5 -42c9 -26 -8 -46 -21 -60l-4 -5c-19 -23 -40 -34 -63 -33c-13 1 -39 10 -79 29c2 11 -5 6 -9 12c-4 -5 -1 -28 -8 -33c5 -23 5 -41 0 -52c6 -2 4 -13 -4 -13c1 -3 8 -3 8 -4c-2 -13 -1 -24 2 -35c-7 -1 -1 -12 -6 -19
c0 -1 1 -7 4 -18s3 -19 2 -24h-6c7 -7 3 -16 6 -31c-4 0 -6 -1 -6 -2c3 0 2 -2 6 -5c-1 -3 -3 -4 -8 -4c1 -5 7 2 8 -2c1 -3 -1 -4 -6 -4c0 -1 2 -2 6 -2c0 -8 -2 -12 -6 -13c1 -1 3 -1 4 0c5 -29 5 -45 0 -50c8 -5 1 -21 6 -21c-1 -1 -1 -2 -1 -3c-1 -3 -1 -3 -4 -3
c4 -4 4 -16 -1 -16c2 -18 8 -57 -31 -48c-13 24 -20 63 -15 83c-3 6 -5 19 -6 40s-1 34 -2 37h6c-7 22 -8 42 -2 61c-4 3 -1 11 -6 14l6 9c-7 5 -4 20 -6 44h6c-3 4 -2 8 2 4c-2 3 -5 4 -8 4c0 7 1 14 4 19c-4 4 -1 17 -4 29c5 -4 5 1 0 2c1 1 3 3 6 4c-1 1 -3 3 -6 4
c4 19 5 40 4 63c1 1 3 1 6 0c-3 9 -4 23 -3 44c2 21 2 36 1 46c1 0 3 -1 8 -2c0 1 -3 3 -8 6c0 13 1 33 3 59s2 49 1 70h4c-3 4 -3 12 -2 24s1 20 0 24s5 5 5 6c1 2 0 3 -3 3l-2 -2v58c3 0 9 4 9 0c0 3 -5 7 -5 8c3 16 9 1 17 15c1 -5 9 -7 13 -2c4 -3 13 -14 14 -15
c-5 -8 -7 -41 -6 -98s2 -89 2 -96c8 11 16 -2 13 13c4 0 4 -7 8 -7c0 3 -2 6 -6 7c46 29 92 24 137 -15c5 -5 8 -9 11 -13c1 -1 2 -2 5 -3zM248 358c2 9 1 25 -2 46c0 -1 -1 -2 -2 -2c-1 10 -6 22 -17 35c-4 4 -12 18 -13 19c-48 40 -106 -19 -125 -60v-53
c15 -27 38 -43 70 -50s57 3 76 29c-1 -1 -4 0 -4 1s9 8 10 12c-3 0 -4 1 -4 2c0 4 10 14 11 21z" />
    <glyph glyph-name="ydieresis" unicode="&#xff;" horiz-adv-x="354" 
d="M143 630c13 1 25 -5 25 -16c1 -12 -12 -27 -23 -26c-7 1 -11 8 -13 20c-2 13 2 20 11 22zM183 611c0 3 1 5 2 7c4 9 11 11 21 6c11 -6 14 -15 7 -26c-13 -11 -27 -4 -30 13zM92 502c-20 4 -23 -5 -39 -8c-4 -15 -8 -36 -11 -63l-6 -46c-3 -16 -2 -45 3 -87s8 -68 7 -78
c5 -21 18 -41 40 -62c14 -7 31 -10 50 -8c19 3 32 9 38 20c11 0 20 16 27 19c0 -31 -14 -59 -10 -79c-4 4 -6 5 -7 2c0 -23 -2 -40 -6 -50c-3 -7 -18 -20 -21 -25c-1 -2 -5 -6 -10 -11l-2 -3c-12 -15 -15 -23 -9 -22c-13 -11 -27 -31 -42 -60c-11 -7 -16 -17 -16 -32
c-11 0 -19 -22 -23 -35c0 -1 1 -3 2 -4l2 -2c-1 0 -3 1 -6 2c-9 -37 -4 -59 14 -67c3 -3 15 2 19 2c11 0 28 -6 36 2v7c17 3 29 14 45 39l15 23c-1 12 15 32 8 40c4 3 6 11 7 25s4 24 8 31c-4 0 0 9 -2 13c8 16 11 39 6 48c8 8 13 30 9 43l28 35c13 17 23 30 30 38
c15 17 41 45 61 61c0 10 -1 16 -2 17c-8 0 -12 -2 -13 -6c-20 -12 -40 -34 -64 -65c-12 -15 -21 -25 -28 -32c0 5 1 14 4 26s2 19 -2 20c9 4 5 22 9 30c2 6 10 40 12 56c1 11 5 36 12 74c7 39 12 71 15 98s4 50 2 68c-7 3 -13 5 -20 4c-13 -11 -16 -36 -21 -52
c-1 -25 -6 -62 -15 -109s-14 -82 -15 -106c-31 -42 -63 -59 -96 -50c-17 35 -24 69 -21 104c-1 0 -3 0 -4 -1s-1 0 -2 1c9 12 0 23 0 38l4 67c0 4 1 15 3 34s3 34 3 47s-2 23 -6 29zM163 14c2 0 3 -1 3 -2l-9 -54c-4 -29 -8 -51 -12 -67c-12 -45 -37 -67 -75 -65
c-3 40 16 73 41 110c13 18 22 34 27 47c8 5 21 27 25 31z" />
    <glyph glyph-name="Amacron" unicode="&#x100;" horiz-adv-x="407" 
d="M221 809l-1 -6c-61 0 -100 -1 -117 -3c-3 7 -3 12 -2 17c27 7 54 10 83 10c3 0 10 -5 13 -4c10 0 32 10 29 -14l-6 1zM366 35c8 -2 12 -12 11 -31c-1 -15 -5 -23 -13 -22l-9 4c-3 -4 -7 -5 -8 -6c-11 1 -19 8 -24 20c-4 14 -10 40 -13 53c-4 15 -11 39 -21 71l-18 67
c-1 4 3 8 3 9c-5 3 -14 22 -6 29l-2 -1c-2 -1 -4 -1 -5 -1c0 15 -8 30 -9 37c-13 1 -39 0 -77 -1c-37 -1 -65 -1 -84 1c-8 -4 -7 -33 -15 -37c0 -1 2 -1 6 -1c-5 -24 -12 -63 -20 -116s-15 -95 -21 -124c-4 0 -8 3 -11 3c1 24 6 62 15 114s14 90 15 113h7c-4 11 0 33 11 68
c0 13 3 33 8 61s7 48 6 60c2 -2 4 -3 6 -3c-1 10 -1 17 -1 22l8 52c0 5 1 5 3 1c-1 25 3 42 12 53c-4 -1 -5 1 -3 5c0 1 1 2 2 4c1 3 2 4 2 5c1 1 -2 14 -1 19c1 6 1 14 1 25l10 42c4 15 3 47 16 55c-1 1 -4 -2 -7 -7c-6 30 20 57 42 29c6 -8 16 -34 29 -77
c3 -11 9 -28 16 -49c8 -21 13 -36 15 -45c0 -2 -1 -3 -3 -3c-3 -4 -8 2 -9 -2c1 -2 3 -2 6 -1s4 1 7 1l19 -77l22 -87c11 -33 16 -52 16 -57c0 -2 -1 -4 -3 -6c5 -5 14 -29 6 -38c4 -3 6 -3 6 0c7 -23 16 -55 25 -96c10 -41 19 -73 27 -96c1 -3 0 -4 -3 -4
c8 -7 13 -24 8 -35zM222 277c0 12 20 7 24 8c-4 19 -17 70 -39 153l-2 6c-3 8 -3 15 2 14c-6 2 -6 9 -9 14h3c4 0 6 1 6 2c-1 0 -4 1 -10 3c4 3 3 6 0 9l-2 2v20c-4 10 -11 24 -11 28c0 1 1 1 2 0h1c-1 5 -5 15 -10 30c-9 31 -13 52 -12 73c-8 4 -4 24 -12 27
c-5 -8 0 -30 -7 -30c0 -33 -5 -59 -15 -80c8 0 -1 -7 5 -13c-5 -19 -14 -65 -25 -138c-1 -11 -4 -30 -9 -58c-5 -27 -8 -49 -7 -65c3 3 19 2 23 -5c0 8 3 4 6 7c9 -4 26 -5 52 -4c26 2 41 3 46 2c-1 0 -2 -1 -2 -3c0 -1 1 -1 2 -2zM290 149c3 0 6 -9 10 -2c-1 0 -2 1 -4 2
c-3 3 -5 3 -6 0z" />
    <glyph glyph-name="amacron" unicode="&#x101;" horiz-adv-x="312" 
d="M201 629l-1 -6c-61 0 -100 -1 -117 -3c-3 7 -3 12 -2 17c27 7 54 10 83 10c3 0 10 -5 13 -4c10 0 32 10 29 -14l-6 1zM264 102c10 -15 32 -79 4 -90c0 -1 -1 -4 -2 -7c-27 3 -41 33 -34 53c-7 3 -2 17 -10 18c7 7 -3 8 0 15c-20 63 -31 111 -34 142c0 3 -7 2 -6 6
c-8 -1 -23 -2 -45 -2c-21 0 -37 -3 -47 -8c-2 -7 -5 -21 -8 -44c-3 -22 -8 -38 -15 -48c5 -3 -4 -23 0 -31c-1 0 -2 1 -4 2c-2 -7 -7 -40 -14 -98c-3 -1 -6 -7 -7 -7c-4 0 -9 5 -12 5c7 38 13 98 27 131c0 3 -5 4 -4 8c5 6 8 17 10 34c3 17 6 29 9 35c0 12 9 40 8 53
c1 1 3 1 6 0c-4 21 11 56 7 68c1 1 5 2 6 2c-3 9 3 22 2 30c9 3 5 9 8 21c-7 -7 -2 6 -2 6c3 5 7 5 10 2c-1 3 -2 4 -4 3c-1 -1 -3 -1 -4 -1c0 3 3 12 2 19l2 -1c3 -2 5 -2 5 1c-14 4 4 22 2 37c3 -5 5 1 6 2l-1 1l-1 -1c0 7 9 22 8 30c9 9 19 9 29 1c10 -7 14 -17 13 -28
c9 -20 18 -49 27 -86l15 -63c5 -14 16 -38 18 -52c1 -5 2 -34 5 -46l1 -2l1 2c4 -7 7 -21 10 -40l6 -33c1 -3 2 -9 5 -16c7 -15 6 -15 2 -23zM99 254c44 3 70 4 79 4c-2 11 -6 27 -11 48c-11 43 -19 77 -20 109c-8 4 -6 19 -9 23c-2 1 -4 0 -5 -3c0 -1 -1 -1 -3 0
c2 -5 1 -14 -2 -26c-3 -11 -7 -18 -10 -19c8 -11 -8 -24 -7 -28l3 2c-1 3 -1 4 1 4c1 0 2 0 3 -1c-4 -9 -5 -36 -13 -48c5 -5 3 -13 -6 -26c3 -3 2 -10 -1 -19s-2 -15 1 -20z" />
    <glyph glyph-name="Abreve" unicode="&#x102;" horiz-adv-x="407" 
d="M249 889c-10 -46 -78 -129 -121 -69c-8 11 -13 30 -14 42s-3 40 -3 45c33 7 27 -35 36 -52c19 -13 37 -14 53 -3c17 12 27 28 30 49c12 3 13 -6 19 -12zM366 35c8 -2 12 -12 11 -31c-1 -15 -5 -23 -13 -22l-9 4c-3 -4 -7 -5 -8 -6c-11 1 -19 8 -24 20
c-4 14 -10 40 -13 53c-4 15 -11 39 -21 71l-18 67c-1 4 3 8 3 9c-5 3 -14 22 -6 29l-2 -1c-2 -1 -4 -1 -5 -1c0 15 -8 30 -9 37c-13 1 -39 0 -77 -1c-37 -1 -65 -1 -84 1c-8 -4 -7 -33 -15 -37c0 -1 2 -1 6 -1c-5 -24 -12 -63 -20 -116s-15 -95 -21 -124c-4 0 -8 3 -11 3
c1 24 6 62 15 114s14 90 15 113h7c-4 11 0 33 11 68c0 13 3 33 8 61s7 48 6 60c2 -2 4 -3 6 -3c-1 10 -1 17 -1 22l8 52c0 5 1 5 3 1c-1 25 3 42 12 53c-4 -1 -5 1 -3 5c0 1 1 2 2 4c1 3 2 4 2 5c1 1 -2 14 -1 19c1 6 1 14 1 25l10 42c4 15 3 47 16 55c-1 1 -4 -2 -7 -7
c-6 30 20 57 42 29c6 -8 16 -34 29 -77c3 -11 9 -28 16 -49c8 -21 13 -36 15 -45c0 -2 -1 -3 -3 -3c-3 -4 -8 2 -9 -2c1 -2 3 -2 6 -1s4 1 7 1l19 -77l22 -87c11 -33 16 -52 16 -57c0 -2 -1 -4 -3 -6c5 -5 14 -29 6 -38c4 -3 6 -3 6 0c7 -23 16 -55 25 -96
c10 -41 19 -73 27 -96c1 -3 0 -4 -3 -4c8 -7 13 -24 8 -35zM222 277c0 12 20 7 24 8c-4 19 -17 70 -39 153l-2 6c-3 8 -3 15 2 14c-6 2 -6 9 -9 14h3c4 0 6 1 6 2c-1 0 -4 1 -10 3c4 3 3 6 0 9l-2 2v20c-4 10 -11 24 -11 28c0 1 1 1 2 0h1c-1 5 -5 15 -10 30
c-9 31 -13 52 -12 73c-8 4 -4 24 -12 27c-5 -8 0 -30 -7 -30c0 -33 -5 -59 -15 -80c8 0 -1 -7 5 -13c-5 -19 -14 -65 -25 -138c-1 -11 -4 -30 -9 -58c-5 -27 -8 -49 -7 -65c3 3 19 2 23 -5c0 8 3 4 6 7c9 -4 26 -5 52 -4c26 2 41 3 46 2c-1 0 -2 -1 -2 -3c0 -1 1 -1 2 -2z
M290 149c3 0 6 -9 10 -2c-1 0 -2 1 -4 2c-3 3 -5 3 -6 0z" />
    <glyph glyph-name="abreve" unicode="&#x103;" horiz-adv-x="312" 
d="M233 683c-10 -46 -78 -129 -121 -69c-8 11 -13 30 -14 42s-3 40 -3 45c33 7 27 -35 36 -52c19 -13 37 -14 53 -3c17 12 27 28 30 49c12 3 13 -6 19 -12zM264 102c10 -15 32 -79 4 -90c0 -1 -1 -4 -2 -7c-27 3 -41 33 -34 53c-7 3 -2 17 -10 18c7 7 -3 8 0 15
c-20 63 -31 111 -34 142c0 3 -7 2 -6 6c-8 -1 -23 -2 -45 -2c-21 0 -37 -3 -47 -8c-2 -7 -5 -21 -8 -44c-3 -22 -8 -38 -15 -48c5 -3 -4 -23 0 -31c-1 0 -2 1 -4 2c-2 -7 -7 -40 -14 -98c-3 -1 -6 -7 -7 -7c-4 0 -9 5 -12 5c7 38 13 98 27 131c0 3 -5 4 -4 8c5 6 8 17 10 34
c3 17 6 29 9 35c0 12 9 40 8 53c1 1 3 1 6 0c-4 21 11 56 7 68c1 1 5 2 6 2c-3 9 3 22 2 30c9 3 5 9 8 21c-7 -7 -2 6 -2 6c3 5 7 5 10 2c-1 3 -2 4 -4 3c-1 -1 -3 -1 -4 -1c0 3 3 12 2 19l2 -1c3 -2 5 -2 5 1c-14 4 4 22 2 37c3 -5 5 1 6 2l-1 1l-1 -1c0 7 9 22 8 30
c9 9 19 9 29 1c10 -7 14 -17 13 -28c9 -20 18 -49 27 -86l15 -63c5 -14 16 -38 18 -52c1 -5 2 -34 5 -46l1 -2l1 2c4 -7 7 -21 10 -40l6 -33c1 -3 2 -9 5 -16c7 -15 6 -15 2 -23zM99 254c44 3 70 4 79 4c-2 11 -6 27 -11 48c-11 43 -19 77 -20 109c-8 4 -6 19 -9 23
c-2 1 -4 0 -5 -3c0 -1 -1 -1 -3 0c2 -5 1 -14 -2 -26c-3 -11 -7 -18 -10 -19c8 -11 -8 -24 -7 -28l3 2c-1 3 -1 4 1 4c1 0 2 0 3 -1c-4 -9 -5 -36 -13 -48c5 -5 3 -13 -6 -26c3 -3 2 -10 -1 -19s-2 -15 1 -20z" />
    <glyph glyph-name="Aogonek" unicode="&#x104;" horiz-adv-x="407" 
d="M366 35c8 -2 12 -12 11 -31c-1 -15 -5 -23 -13 -22l-9 4c-3 -4 -7 -5 -8 -6l-4 1c-19 -16 -33 -32 -42 -48c-11 -20 -17 -37 -16 -52c1 -11 4 -20 9 -27c12 -15 42 -33 49 -40c0 -5 -3 -10 -6 -13c-18 1 -39 10 -63 29c-14 10 -22 17 -25 21c-10 17 -11 39 -4 67
c3 13 13 27 29 44c17 17 33 29 50 38c-7 12 -12 42 -14 53c-4 15 -11 39 -21 71l-18 67c-1 4 3 8 3 9c-5 3 -14 22 -6 29l-2 -1c-2 -1 -4 -1 -5 -1c0 15 -8 30 -9 37c-13 1 -39 0 -77 -1c-37 -1 -65 -1 -84 1c-8 -4 -7 -33 -15 -37c0 -1 2 -1 6 -1c-5 -24 -12 -63 -20 -116
s-15 -95 -21 -124c-4 0 -8 3 -11 3c1 24 6 62 15 114s14 90 15 113h7c-4 11 0 33 11 68c0 13 3 33 8 61s7 48 6 60c2 -2 4 -3 6 -3c-1 10 -1 17 -1 22l8 52c0 5 1 5 3 1c-1 25 3 42 12 53c-4 -1 -5 1 -3 5c0 1 1 2 2 4c1 3 2 4 2 5c1 1 -2 14 -1 19c1 6 1 14 1 25l10 42
c4 15 3 47 16 55c-1 1 -4 -2 -7 -7c-6 30 20 57 42 29c6 -8 16 -34 29 -77c3 -11 9 -28 16 -49c8 -21 13 -36 15 -45c0 -2 -1 -3 -3 -3c-3 -4 -8 2 -9 -2c1 -2 3 -2 6 -1s4 1 7 1l19 -77l22 -87c11 -33 16 -52 16 -57c0 -2 -1 -4 -3 -6c5 -5 14 -29 6 -38c4 -3 6 -3 6 0
c7 -23 16 -55 25 -96c10 -41 19 -73 27 -96c1 -3 0 -4 -3 -4c8 -7 13 -24 8 -35zM222 277c0 12 20 7 24 8c-4 19 -17 70 -39 153l-2 6c-3 8 -3 15 2 14c-6 2 -6 9 -9 14h3c4 0 6 1 6 2c-1 0 -4 1 -10 3c4 3 3 6 0 9l-2 2v20c-4 10 -11 24 -11 28c0 1 1 1 2 0h1
c-1 5 -5 15 -10 30c-9 31 -13 52 -12 73c-8 4 -4 24 -12 27c-5 -8 0 -30 -7 -30c0 -33 -5 -59 -15 -80c8 0 -1 -7 5 -13c-5 -19 -14 -65 -25 -138c-1 -11 -4 -30 -9 -58c-5 -27 -8 -49 -7 -65c3 3 19 2 23 -5c0 8 3 4 6 7c9 -4 26 -5 52 -4c26 2 41 3 46 2c-1 0 -2 -1 -2 -3
c0 -1 1 -1 2 -2zM290 149c3 0 6 -9 10 -2c-1 0 -2 1 -4 2c-3 3 -5 3 -6 0z" />
    <glyph glyph-name="aogonek" unicode="&#x105;" horiz-adv-x="312" 
d="M264 102c10 -15 32 -79 4 -90c0 -1 -1 -4 -2 -7c-2 0 -5 1 -9 2c-23 -17 -39 -35 -49 -54c-11 -20 -17 -37 -16 -52c1 -11 4 -20 9 -27c12 -15 42 -33 49 -40c0 -5 -3 -10 -6 -13c-18 1 -39 10 -63 29c-14 10 -22 17 -25 21c-10 17 -11 39 -4 67c4 14 15 30 33 48
c18 17 35 30 52 37c-7 11 -9 23 -5 35c-7 3 -2 17 -10 18c7 7 -3 8 0 15c-20 63 -31 111 -34 142c0 3 -7 2 -6 6c-8 -1 -23 -2 -45 -2c-21 0 -37 -3 -47 -8c-2 -7 -5 -21 -8 -44c-3 -22 -8 -38 -15 -48c5 -3 -4 -23 0 -31c-1 0 -2 1 -4 2c-2 -7 -7 -40 -14 -98
c-3 -1 -6 -7 -7 -7c-4 0 -9 5 -12 5c7 38 13 98 27 131c0 3 -5 4 -4 8c5 6 8 17 10 34c3 17 6 29 9 35c0 12 9 40 8 53c1 1 3 1 6 0c-4 21 11 56 7 68c1 1 5 2 6 2c-3 9 3 22 2 30c9 3 5 9 8 21c-7 -7 -2 6 -2 6c3 5 7 5 10 2c-1 3 -2 4 -4 3c-1 -1 -3 -1 -4 -1
c0 3 3 12 2 19l2 -1c3 -2 5 -2 5 1c-14 4 4 22 2 37c3 -5 5 1 6 2l-1 1l-1 -1c0 7 9 22 8 30c9 9 19 9 29 1c10 -7 14 -17 13 -28c9 -20 18 -49 27 -86l15 -63c5 -14 16 -38 18 -52c1 -5 2 -34 5 -46l1 -2l1 2c4 -7 7 -21 10 -40l6 -33c1 -3 2 -9 5 -16c7 -15 6 -15 2 -23z
M99 254c44 3 70 4 79 4c-2 11 -6 27 -11 48c-11 43 -19 77 -20 109c-8 4 -6 19 -9 23c-2 1 -4 0 -5 -3c0 -1 -1 -1 -3 0c2 -5 1 -14 -2 -26c-3 -11 -7 -18 -10 -19c8 -11 -8 -24 -7 -28l3 2c-1 3 -1 4 1 4c1 0 2 0 3 -1c-4 -9 -5 -36 -13 -48c5 -5 3 -13 -6 -26
c3 -3 2 -10 -1 -19s-2 -15 1 -20z" />
    <glyph glyph-name="Cacute" unicode="&#x106;" horiz-adv-x="325" 
d="M188 800c-17 4 -5 27 -8 39c3 5 7 15 12 32s10 29 15 37c12 21 32 37 48 29c-1 -20 -7 -44 -19 -71c-7 -15 -15 -30 -25 -45s-18 -22 -23 -21zM302 26c1 -2 2 -9 2 -21c-23 -11 -42 -17 -57 -18c-14 -1 -33 2 -57 10c-29 11 -56 30 -80 56c-17 17 -33 49 -48 96
c-20 58 -27 112 -20 163l7 57c5 49 11 86 20 121c3 10 8 24 15 42l14 37c9 26 19 49 29 69c21 45 46 85 75 121c4 1 18 13 30 10v-16c-1 1 -3 0 -4 -1l-3 -1v-9c-9 -7 -19 -21 -30 -41c-11 -19 -21 -33 -30 -40c-16 -37 -27 -66 -34 -86c-3 0 -5 -2 -6 -2c1 -1 1 -2 2 -2
c-2 -16 -10 -47 -25 -94c-1 -41 -5 -77 -12 -110c2 -2 2 -10 0 -25c-5 -73 12 -153 50 -238c0 -5 -1 -7 -2 -7c5 -5 11 -13 19 -26c17 -25 33 -41 58 -45c1 -3 -2 -5 -2 -6c12 0 34 -10 43 -10c1 0 22 11 23 4c7 1 16 11 23 12zM127 571v2v-2z" />
    <glyph glyph-name="cacute" unicode="&#x107;" horiz-adv-x="265" 
d="M186 490c-5 -9 -14 -20 -29 -35c-14 -15 -24 -27 -29 -38c-1 -1 -4 0 -7 2c-1 -4 1 -4 5 -4c-9 -9 -13 -18 -13 -27c-39 -65 -45 -160 -17 -286c1 0 2 1 3 2c-1 1 -2 3 -1 4c5 -21 18 -42 39 -61s42 -27 62 -22c5 1 23 21 39 17c1 -1 1 -10 4 -11c-5 -8 -32 -22 -37 -33
c-35 -1 -55 -1 -61 0c-29 8 -55 31 -76 68c-21 38 -29 73 -26 105c-5 9 -5 32 0 69c1 14 13 56 35 127c29 56 60 99 94 129c3 -1 14 -2 15 -6zM177 706c-1 -20 -7 -44 -19 -71c-7 -15 -15 -30 -25 -45s-18 -22 -23 -21c-17 4 -5 27 -8 39c3 5 7 15 12 32s10 29 15 37
c12 21 32 37 48 29z" />
    <glyph glyph-name="Cdotaccent" unicode="&#x10a;" horiz-adv-x="325" 
d="M180 800c-7 1 -11 8 -13 20c-2 13 2 20 11 22c13 1 25 -5 25 -16c1 -12 -12 -27 -23 -26zM302 26c1 -2 2 -9 2 -21c-23 -11 -42 -17 -57 -18c-14 -1 -33 2 -57 10c-29 11 -56 30 -80 56c-17 17 -33 49 -48 96c-20 58 -27 112 -20 163l7 57c5 49 11 86 20 121
c3 10 8 24 15 42l14 37c9 26 19 49 29 69c21 45 46 85 75 121c4 1 18 13 30 10v-16c-1 1 -3 0 -4 -1l-3 -1v-9c-9 -7 -19 -21 -30 -41c-11 -19 -21 -33 -30 -40c-16 -37 -27 -66 -34 -86c-3 0 -5 -2 -6 -2c1 -1 1 -2 2 -2c-2 -16 -10 -47 -25 -94c-1 -41 -5 -77 -12 -110
c2 -2 2 -10 0 -25c-5 -73 12 -153 50 -238c0 -5 -1 -7 -2 -7c5 -5 11 -13 19 -26c17 -25 33 -41 58 -45c1 -3 -2 -5 -2 -6c12 0 34 -10 43 -10c1 0 22 11 23 4c7 1 16 11 23 12zM127 571v2v-2z" />
    <glyph glyph-name="cdotaccent" unicode="&#x10b;" horiz-adv-x="265" 
d="M186 490c-5 -9 -14 -20 -29 -35c-14 -15 -24 -27 -29 -38c-1 -1 -4 0 -7 2c-1 -4 1 -4 5 -4c-9 -9 -13 -18 -13 -27c-39 -65 -45 -160 -17 -286c1 0 2 1 3 2c-1 1 -2 3 -1 4c5 -21 18 -42 39 -61s42 -27 62 -22c5 1 23 21 39 17c1 -1 1 -10 4 -11c-5 -8 -32 -22 -37 -33
c-35 -1 -55 -1 -61 0c-29 8 -55 31 -76 68c-21 38 -29 73 -26 105c-5 9 -5 32 0 69c1 14 13 56 35 127c29 56 60 99 94 129c3 -1 14 -2 15 -6zM137 636c13 1 25 -5 25 -16c1 -12 -12 -27 -23 -26c-7 1 -11 8 -13 20c-2 13 2 20 11 22z" />
    <glyph glyph-name="Ccaron" unicode="&#x10c;" horiz-adv-x="325" 
d="M205 806c-9 6 -20 20 -32 43s-14 38 -7 47c15 -1 28 -11 40 -29s19 -28 22 -30c18 15 30 77 55 61c1 -7 -4 -16 -14 -29s-16 -21 -18 -26c-10 -21 -14 -59 -46 -37zM302 26c1 -2 2 -9 2 -21c-23 -11 -42 -17 -57 -18c-14 -1 -33 2 -57 10c-29 11 -56 30 -80 56
c-17 17 -33 49 -48 96c-20 58 -27 112 -20 163l7 57c5 49 11 86 20 121c3 10 8 24 15 42l14 37c9 26 19 49 29 69c21 45 46 85 75 121c4 1 18 13 30 10v-16c-1 1 -3 0 -4 -1l-3 -1v-9c-9 -7 -19 -21 -30 -41c-11 -19 -21 -33 -30 -40c-16 -37 -27 -66 -34 -86
c-3 0 -5 -2 -6 -2c1 -1 1 -2 2 -2c-2 -16 -10 -47 -25 -94c-1 -41 -5 -77 -12 -110c2 -2 2 -10 0 -25c-5 -73 12 -153 50 -238c0 -5 -1 -7 -2 -7c5 -5 11 -13 19 -26c17 -25 33 -41 58 -45c1 -3 -2 -5 -2 -6c12 0 34 -10 43 -10c1 0 22 11 23 4c7 1 16 11 23 12zM127 571v2
v-2z" />
    <glyph glyph-name="ccaron" unicode="&#x10d;" horiz-adv-x="265" 
d="M186 490c-5 -9 -14 -20 -29 -35c-14 -15 -24 -27 -29 -38c-1 -1 -4 0 -7 2c-1 -4 1 -4 5 -4c-9 -9 -13 -18 -13 -27c-39 -65 -45 -160 -17 -286c1 0 2 1 3 2c-1 1 -2 3 -1 4c5 -21 18 -42 39 -61s42 -27 62 -22c5 1 23 21 39 17c1 -1 1 -10 4 -11c-5 -8 -32 -22 -37 -33
c-35 -1 -55 -1 -61 0c-29 8 -55 31 -76 68c-21 38 -29 73 -26 105c-5 9 -5 32 0 69c1 14 13 56 35 127c29 56 60 99 94 129c3 -1 14 -2 15 -6zM199 700c1 -7 -4 -16 -14 -29s-16 -21 -18 -26c-10 -21 -14 -59 -46 -37c-9 6 -20 20 -32 43s-14 38 -7 47c15 -1 28 -11 40 -29
s19 -28 22 -30c18 15 30 77 55 61z" />
    <glyph glyph-name="Dcaron" unicode="&#x10e;" horiz-adv-x="388" 
d="M85 723c-21 5 -41 8 -48 -11c0 -1 0 -6 -1 -13c0 -4 -1 -5 -3 -3c-2 -89 3 -165 15 -230c-4 -14 -2 -38 6 -73h-3c-1 -3 -1 -4 -1 -4c-1 -15 2 -43 8 -83l11 -67c-3 -7 -2 -20 1 -39c4 -19 5 -32 3 -41c1 -3 6 -7 6 -8c-1 -27 -1 -45 -1 -54s1 -28 3 -59l4 -60
c4 -1 6 -4 7 -8c9 -1 16 -2 21 -1c15 7 52 22 71 30c20 8 45 24 58 37c7 -1 21 12 21 19h8c22 27 39 54 50 79c-1 1 -2 2 -2 3c1 0 3 -1 4 -1c-1 5 7 15 0 15c11 3 19 24 11 33h6c-1 6 1 16 5 29c4 14 4 24 1 30c14 18 17 38 9 60c11 12 2 52 2 74c-4 1 -6 3 -6 4
c1 0 1 0 2 -1l2 3c-4 48 -14 94 -29 137l-9 5h6c-4 9 -17 42 -25 58c-7 16 -20 39 -35 52c-12 20 -42 45 -69 50v5c-15 1 -33 16 -42 16c-4 8 -17 13 -28 14zM86 681c7 4 24 1 31 -2c7 -1 24 -7 27 -8c10 -13 22 -20 35 -23c9 -7 22 -18 38 -33l31 -28l17 -31l17 -29l16 -51
c8 -23 14 -44 19 -63c5 -18 8 -36 9 -53c1 -1 2 -2 3 -1s2 1 3 1c-1 -11 -1 -28 1 -49s3 -36 3 -45c0 -8 -2 -20 -7 -36s-7 -27 -8 -33c-7 -35 -14 -58 -19 -69c-9 -18 -27 -39 -39 -53c-7 -8 -26 -27 -31 -32c-7 -3 -22 -10 -45 -23c-22 -12 -41 -20 -56 -23
c-3 22 -4 53 -5 94s-2 67 -3 79s-5 40 -11 84c-5 45 -9 79 -10 102c-2 29 4 59 -8 89c2 26 1 65 -3 118s-6 92 -5 118zM174 895c1 -7 -4 -16 -14 -29s-16 -21 -18 -26c-10 -21 -14 -59 -46 -37c-9 6 -20 20 -32 43s-14 38 -7 47c15 -1 28 -11 40 -29s19 -28 22 -30
c18 15 30 77 55 61z" />
    <glyph glyph-name="dcaron" unicode="&#x10f;" horiz-adv-x="432" 
d="M257 712c7 5 18 5 33 -2c6 -78 9 -166 9 -263c1 -19 0 -49 -3 -89c0 -1 1 -10 4 -26s3 -26 -2 -29c0 -3 0 -4 1 -3l2 -1c-3 -35 -5 -67 -5 -96c0 -4 5 -49 5 -58c3 -24 2 -41 -2 -52c0 -1 1 -2 3 -1l3 -3c-1 -7 -1 -19 0 -35c3 -32 0 -53 -15 -70c-8 -3 -15 2 -22 14
s-11 19 -13 20c-3 33 -4 76 -4 129c-3 -7 -7 -23 -13 -48c-5 -24 -10 -43 -15 -58c-9 -28 -34 -62 -66 -63c-20 -1 -41 11 -63 37c-1 -1 -5 -1 -10 0c-30 33 -48 92 -53 178c-1 4 5 3 5 6c-4 31 3 88 20 171c3 3 7 10 11 23c6 5 15 15 27 31c31 27 81 31 108 -2h7
c5 -11 25 -27 29 -31c5 -10 4 -21 13 -25c1 4 3 14 4 29s3 26 6 32c-3 7 -4 20 -5 39c0 19 -1 30 -3 34c1 1 2 9 6 10l-6 6c4 10 -2 11 -2 21c0 9 1 22 3 39s3 31 3 40c0 26 -9 68 0 96zM403 708c-1 -20 -7 -44 -19 -71c-7 -15 -15 -30 -25 -45s-18 -22 -23 -21
c-17 4 -5 27 -8 39c3 5 7 15 12 32s10 29 15 37c12 21 32 37 48 29zM173 416c-21 12 -55 4 -71 -16c-3 -3 -7 -11 -13 -22c-5 -11 -9 -18 -12 -20c-3 -17 -4 -59 -4 -125c0 -47 1 -78 4 -92c9 -52 34 -106 67 -117c12 -4 22 -4 29 -1c8 3 16 11 25 23l15 20
c15 47 23 99 24 156c2 57 -4 109 -18 154c-8 7 -31 33 -46 40z" />
    <glyph glyph-name="Dcroat" unicode="&#x110;" horiz-adv-x="398" 
d="M363 303c8 -22 5 -42 -9 -60c3 -6 3 -16 -1 -30c-4 -13 -6 -23 -5 -29h-6c8 -9 0 -30 -11 -33c7 0 -1 -10 0 -15c-1 0 -3 1 -4 1c0 -1 1 -2 2 -3c-11 -25 -28 -52 -50 -79h-8c0 -7 -14 -20 -21 -19c-13 -13 -38 -29 -58 -37c-19 -8 -56 -23 -71 -30c-5 -1 -12 0 -21 1
c-1 4 -3 7 -7 8l-4 60c-2 31 -3 50 -3 59s0 27 1 54c0 1 -5 5 -6 8c2 9 1 22 -3 41c-3 19 -4 32 -1 39c-3 23 -7 50 -13 82c-11 -2 -22 -3 -33 -3c1 7 -1 10 0 19c5 -1 15 1 30 6c-2 17 -3 32 -3 46c0 0 0 1 1 4h3c-8 35 -10 59 -6 73c-12 65 -17 141 -15 230c2 -2 3 -1 3 3
c1 7 1 12 1 13c7 19 27 16 48 11l39 -3c11 -1 24 -6 28 -14c9 0 27 -15 42 -16v-5c27 -5 57 -30 69 -50c15 -13 28 -36 35 -52c8 -16 21 -49 25 -58h-6l9 -5c15 -44 25 -90 29 -137l-2 -3c-1 1 -1 1 -2 1c0 -1 2 -3 6 -4c0 -22 9 -62 -2 -74zM344 266c0 9 -1 24 -3 45
s-2 38 -1 49c-1 0 -2 0 -3 -1s-2 0 -3 1c-1 17 -4 35 -9 53c-5 19 -11 40 -19 63l-16 51l-17 29l-17 31l-31 28c-16 15 -29 26 -38 33c-13 3 -25 10 -35 23c-3 1 -20 7 -27 8c-7 3 -24 6 -31 2c-1 -26 1 -65 5 -118s5 -92 3 -118c12 -30 6 -60 8 -89l1 -8c27 1 43 0 47 -5
v-12c-3 -1 -6 -2 -8 -5c-13 3 -25 4 -38 3c2 -19 5 -48 10 -85s8 -61 9 -74c1 -12 2 -38 3 -79s2 -72 5 -94c15 3 34 11 56 23c23 13 38 20 45 23c5 5 24 24 31 32c12 14 30 35 39 53c5 11 12 34 19 69c1 6 3 17 8 33s7 28 7 36z" />
    </font>
</defs>
</svg>
